<svg xmlns="http://www.w3.org/2000/svg" width="118.457" height="18.496" viewBox="0 0 118.457 18.496">
  <path id="パス_6897" data-name="パス 6897" d="M14.961-12.148a.173.173,0,0,0,.2.2h1.289q.488,0,.879-.02h.039a1.275,1.275,0,0,1,.879.332,1.133,1.133,0,0,1,.391.879,1.194,1.194,0,0,1-.391.9,1.247,1.247,0,0,1-.918.371H15.156a.173.173,0,0,0-.2.2v.449a19.539,19.539,0,0,1-.215,3.086A10.393,10.393,0,0,1,14-3.232a7.128,7.128,0,0,1-1.445,2.139,9.8,9.8,0,0,1-2.3,1.7A1.963,1.963,0,0,1,9.336.84,2.517,2.517,0,0,1,9.023.82,2.059,2.059,0,0,1,7.871.254a.854.854,0,0,1-.293-.645.994.994,0,0,1,.02-.2.9.9,0,0,1,.566-.7,8.072,8.072,0,0,0,2.393-1.572A5.655,5.655,0,0,0,11.9-5.186a11.776,11.776,0,0,0,.459-3.545V-9.3a.173.173,0,0,0-.2-.2H7.813a.173.173,0,0,0-.2.2v2.52l.02.742a1.313,1.313,0,0,1-.371.938,1.271,1.271,0,0,1-.957.41,1.21,1.21,0,0,1-.937-.41A1.289,1.289,0,0,1,5-6.016l.02-.762V-9.3a.173.173,0,0,0-.2-.2H2.48a1.289,1.289,0,0,1-.918-.371,1.189,1.189,0,0,1-.41-.918,1.11,1.11,0,0,1,.41-.879,1.25,1.25,0,0,1,.859-.332H2.5q.41.039.82.039h1.5a.173.173,0,0,0,.2-.2v-2.227a1.353,1.353,0,0,1,.352-.937,1.234,1.234,0,0,1,.947-.43,1.234,1.234,0,0,1,.947.43,1.353,1.353,0,0,1,.352.938v2.227a.173.173,0,0,0,.2.2h4.355a.173.173,0,0,0,.2-.2v-1.914l-.02-.488a1.382,1.382,0,0,1,.371-.957,1.26,1.26,0,0,1,.947-.41,1.26,1.26,0,0,1,.947.41,1.4,1.4,0,0,1,.352.938v2.422Zm17.6,2.129a.323.323,0,0,0-.156.293v7.988l.02,1.113A1.531,1.531,0,0,1,32.031.41,1.317,1.317,0,0,1,31,.879,1.375,1.375,0,0,1,29.941.41a1.49,1.49,0,0,1-.41-1.035l.02-1.113V-8.105a.12.12,0,0,0-.049-.1.112.112,0,0,0-.127,0A38.872,38.872,0,0,1,24.043-6a1.617,1.617,0,0,1-.547.1,1.548,1.548,0,0,1-.625-.137,1.756,1.756,0,0,1-.918-.762,1.1,1.1,0,0,1-.137-.527,1.2,1.2,0,0,1,.078-.41,1.055,1.055,0,0,1,.723-.625,28.771,28.771,0,0,0,7.715-3.281,22.1,22.1,0,0,0,4.277-3.437,1.591,1.591,0,0,1,1-.469h.117a1.3,1.3,0,0,1,.9.352,1.32,1.32,0,0,1,.449,1.016,1.271,1.271,0,0,1-.41.957A31.684,31.684,0,0,1,32.559-10.02ZM56.016-7.969a1.349,1.349,0,0,1,.8.82,1.522,1.522,0,0,1,.117.566,1.616,1.616,0,0,1-.117.605,1.36,1.36,0,0,1-.8.762,1.406,1.406,0,0,1-.508.1,1.416,1.416,0,0,1-.605-.137Q52.4-6.406,49.2-7.52a.129.129,0,0,0-.117.02.131.131,0,0,0-.059.117v5.469q0,.391.059,1.211v.117a1.367,1.367,0,0,1-.391.977,1.375,1.375,0,0,1-1.055.469A1.355,1.355,0,0,1,46.6.391a1.406,1.406,0,0,1-.371-.977v-.1q.059-.7.059-1.23V-13.4l-.039-.977a1.453,1.453,0,0,1,.371-.977,1.3,1.3,0,0,1,1.016-.469,1.317,1.317,0,0,1,1.035.469,1.367,1.367,0,0,1,.391.977.369.369,0,0,1-.02.117q-.02.469-.02.859v2.734a.242.242,0,0,0,.176.254A66.331,66.331,0,0,1,56.016-7.969Zm19.766-6.074h.293a3.04,3.04,0,0,1,1.992.625,1.27,1.27,0,0,1,.449.859v.156a1.421,1.421,0,0,1-.254.82,33.438,33.438,0,0,1-2.91,3.916,29.149,29.149,0,0,1-3.633,3.6.147.147,0,0,0-.02.254q1,1.016,1.992,2.109a1.375,1.375,0,0,1,.352.918.642.642,0,0,1-.02.156,1.43,1.43,0,0,1-.527,1,1.477,1.477,0,0,1-.918.313H72.4A1.519,1.519,0,0,1,71.387.137Q70.078-1.387,68.5-3.027a43.478,43.478,0,0,0-3.32-3.008,1.055,1.055,0,0,1-.41-.859,1.035,1.035,0,0,1,.391-.82,1.683,1.683,0,0,1,1.074-.371h.02a1.578,1.578,0,0,1,1.035.371q1.055.84,2.168,1.816a.212.212,0,0,0,.293,0A22.754,22.754,0,0,0,72.529-8.6a20.555,20.555,0,0,0,2.061-2.764.148.148,0,0,0-.01-.117.094.094,0,0,0-.088-.059H64.1q-.391,0-.9.039h-.1a1.3,1.3,0,0,1-.9-.352,1.249,1.249,0,0,1-.41-.937,1.21,1.21,0,0,1,.41-.937,1.322,1.322,0,0,1,.879-.332h.1q.547.039.918.039H75.2Q75.508-14.023,75.781-14.043ZM88.223-9.961a1.167,1.167,0,0,1-.1-.449,1.257,1.257,0,0,1,.1-.488,1.124,1.124,0,0,1,.684-.605,1.25,1.25,0,0,1,.43-.078,1.252,1.252,0,0,1,.566.137,1.258,1.258,0,0,1,.664.7q.41,1.016.762,2.012a1.25,1.25,0,0,1,.078.43,1.213,1.213,0,0,1-.137.547,1.258,1.258,0,0,1-.723.645,1.2,1.2,0,0,1-.41.078,1.213,1.213,0,0,1-.547-.137,1.271,1.271,0,0,1-.625-.723Q88.613-8.945,88.223-9.961Zm6.23.078a1.341,1.341,0,0,1,.586-.879,1.2,1.2,0,0,1,.645-.2,1.353,1.353,0,0,1,.391.059,1.43,1.43,0,0,1,.84.742,1.408,1.408,0,0,1,.176.664,1.3,1.3,0,0,1-.078.449q0,.059-.02.059a15.854,15.854,0,0,1-2.715,5.859A15.22,15.22,0,0,1,88.945,1.23a1.828,1.828,0,0,1-.859.215,2.3,2.3,0,0,1-.41-.039A2.179,2.179,0,0,1,86.523.762.87.87,0,0,1,86.27.156a1.8,1.8,0,0,1,.02-.254,1,1,0,0,1,.605-.684,13.816,13.816,0,0,0,2.891-1.553,11.457,11.457,0,0,0,2.344-2.139A12.334,12.334,0,0,0,94.453-9.883ZM83.594-8.828a1.211,1.211,0,0,1-.1-.469,1.211,1.211,0,0,1,.1-.469,1.119,1.119,0,0,1,.664-.645,1.475,1.475,0,0,1,.469-.078,1.617,1.617,0,0,1,.547.1,1.32,1.32,0,0,1,.7.723q.43,1,.879,2.168a1.211,1.211,0,0,1,.1.469,1.245,1.245,0,0,1-.117.527,1.32,1.32,0,0,1-.742.684,1.3,1.3,0,0,1-.449.078,1.336,1.336,0,0,1-.527-.117,1.248,1.248,0,0,1-.664-.723Q84-7.812,83.594-8.828Zm33.633-4.687a1.086,1.086,0,0,0,.791-.342,1.108,1.108,0,0,0,.342-.811,1.124,1.124,0,0,0-.332-.811,1.076,1.076,0,0,0-.8-.342,1.13,1.13,0,0,0-.83.342,1.108,1.108,0,0,0-.342.811,1.108,1.108,0,0,0,.342.811A1.13,1.13,0,0,0,117.227-13.516ZM104.453-14.2h9.258a8.37,8.37,0,0,0,.957-.059q.2-.02.156-.215v-.2a2.292,2.292,0,0,1,.7-1.68,2.315,2.315,0,0,1,1.7-.7,2.292,2.292,0,0,1,1.68.7,2.292,2.292,0,0,1,.7,1.68,2.292,2.292,0,0,1-.7,1.68,2.292,2.292,0,0,1-1.68.7h-.078a.212.212,0,0,0-.234.176l-.117.41a19.909,19.909,0,0,1-2.988,7.285A15.426,15.426,0,0,1,107.266.547a2.29,2.29,0,0,1-.82.156,2.7,2.7,0,0,1-.566-.059A2.372,2.372,0,0,1,104.668-.1a.893.893,0,0,1-.254-.625,1.211,1.211,0,0,1,.039-.293,1,1,0,0,1,.684-.7,12.944,12.944,0,0,0,6.289-4.258A10.981,10.981,0,0,0,112.9-8.564a14.229,14.229,0,0,0,.85-2.861.136.136,0,0,0-.039-.137.169.169,0,0,0-.117-.059h-9.141q-.469,0-.957.02h-.059a1.279,1.279,0,0,1-.937-.391,1.244,1.244,0,0,1-.43-.957,1.186,1.186,0,0,1,.43-.937,1.3,1.3,0,0,1,.9-.352h.078Q104.063-14.2,104.453-14.2Z" transform="translate(-1.152 17.051)" fill="#4e9174"/>
</svg>
