<svg xmlns="http://www.w3.org/2000/svg" width="97.773" height="18.691" viewBox="0 0 97.773 18.691">
  <path id="パス_6895" data-name="パス 6895" d="M7.227-8.848a.173.173,0,0,0-.2.2v.7a.371.371,0,0,0,.156.313q.605.449,2.4,1.953a1.348,1.348,0,0,1,.469.859.994.994,0,0,1,.02.2,1.257,1.257,0,0,1-.234.742.843.843,0,0,1-.7.41H9.082a.951.951,0,0,1-.723-.312q-.508-.566-1.191-1.27a.076.076,0,0,0-.088-.02A.076.076,0,0,0,7.031-5V.547a1.114,1.114,0,0,1-.332.82,1.155,1.155,0,0,1-1.621,0,1.114,1.114,0,0,1-.332-.82v-5.82q0-.02-.039-.029a.058.058,0,0,0-.059.01A24.32,24.32,0,0,1,2.52-1.758a.721.721,0,0,1-.586.293H1.8a.887.887,0,0,1-.664-.488,1.828,1.828,0,0,1-.215-.859,1.315,1.315,0,0,1,.02-.215,1.865,1.865,0,0,1,.43-1.016A19.979,19.979,0,0,0,4.2-8.652a.129.129,0,0,0,0-.137.131.131,0,0,0-.117-.059H2.031A1.069,1.069,0,0,1,1.26-9.16a1.032,1.032,0,0,1-.322-.771A1.032,1.032,0,0,1,1.26-10.7a1.069,1.069,0,0,1,.771-.312h2.52a.173.173,0,0,0,.2-.2V-13.3a.157.157,0,0,0-.059-.127.147.147,0,0,0-.137-.029q-1.074.2-2.187.352a.642.642,0,0,1-.156.02,1.1,1.1,0,0,1-.605-.176,1.444,1.444,0,0,1-.508-.645,1.211,1.211,0,0,1-.039-.293.867.867,0,0,1,.1-.391.7.7,0,0,1,.527-.391,33.7,33.7,0,0,0,5.9-1.445,1.821,1.821,0,0,1,.645-.117,1.627,1.627,0,0,1,.43.059,1.6,1.6,0,0,1,.918.527.75.75,0,0,1,.234.547,1.315,1.315,0,0,1-.02.215.775.775,0,0,1-.527.566q-.9.293-2.031.586a.217.217,0,0,0-.2.234v2.6a.173.173,0,0,0,.2.2H9.395a1.069,1.069,0,0,1,.771.313,1.032,1.032,0,0,1,.322.771,1.032,1.032,0,0,1-.322.771,1.069,1.069,0,0,1-.771.313Zm4.531-5.332a1.114,1.114,0,0,1,.82-.332,1.114,1.114,0,0,1,.82.332,1.114,1.114,0,0,1,.332.82v8.867a1.124,1.124,0,0,1-.332.811,1.1,1.1,0,0,1-.82.342,1.1,1.1,0,0,1-.82-.342,1.124,1.124,0,0,1-.332-.811v-8.867A1.114,1.114,0,0,1,11.758-14.18Zm4.375-1.191a1.146,1.146,0,0,1,.352-.84,1.146,1.146,0,0,1,.84-.352,1.114,1.114,0,0,1,.83.352,1.163,1.163,0,0,1,.342.84V-1.152A4.02,4.02,0,0,1,18.252.43a1.7,1.7,0,0,1-.85.84,7.211,7.211,0,0,1-2.676.449h-.059a1.449,1.449,0,0,1-.937-.352,1.824,1.824,0,0,1-.625-.9.885.885,0,0,1-.059-.312A.868.868,0,0,1,13.2-.332.789.789,0,0,1,13.887-.7h.02q.781.02,1.7.02a.677.677,0,0,0,.41-.127.472.472,0,0,0,.117-.361ZM31.406-6.992a.173.173,0,0,0,.2.2H35.43a.173.173,0,0,0,.2-.2v-2.07a.173.173,0,0,0-.2-.2H31.6a.173.173,0,0,0-.2.2Zm-6.211,0a.136.136,0,0,0,.039.137.187.187,0,0,0,.137.059h3.438a.173.173,0,0,0,.2-.2v-2.07a.173.173,0,0,0-.2-.2H25.43a.173.173,0,0,0-.2.2v.176Q25.234-7.988,25.2-6.992ZM29-13.594a.173.173,0,0,0-.2-.2H25.43a.173.173,0,0,0-.2.2v1.934a.173.173,0,0,0,.2.2h3.379a.173.173,0,0,0,.2-.2Zm6.426,2.129a.173.173,0,0,0,.2-.2v-1.934a.173.173,0,0,0-.2-.2H31.6a.173.173,0,0,0-.2.2v1.934a.173.173,0,0,0,.2.2Zm.859-4.59a1.637,1.637,0,0,1,1.2.5,1.637,1.637,0,0,1,.5,1.2V-1.523a3.612,3.612,0,0,1-.244,1.494,1.556,1.556,0,0,1-.85.771,7.629,7.629,0,0,1-2.617.43h-.039A1.322,1.322,0,0,1,33.359.84,1.7,1.7,0,0,1,32.773,0a.736.736,0,0,1-.059-.293.824.824,0,0,1,.137-.449.747.747,0,0,1,.645-.332h1.6q.527,0,.527-.469V-4.355a.173.173,0,0,0-.2-.2H31.6a.173.173,0,0,0-.2.2v4.2a1.146,1.146,0,0,1-.352.84,1.158,1.158,0,0,1-.85.352,1.158,1.158,0,0,1-.85-.352A1.146,1.146,0,0,1,29-.156v-4.2a.173.173,0,0,0-.2-.2H25.117a.217.217,0,0,0-.234.2A12.041,12.041,0,0,1,23.145.43a.892.892,0,0,1-.762.41.08.08,0,0,1-.059.02,1.172,1.172,0,0,1-.8-.312,1.265,1.265,0,0,1-.449-.781V-.449a1.232,1.232,0,0,1,.2-.664,8.029,8.029,0,0,0,.527-1,8.962,8.962,0,0,0,.723-2.324q.215-1.25.283-2.217t.068-2.256v-5.449a1.637,1.637,0,0,1,.5-1.2,1.637,1.637,0,0,1,1.2-.5Zm13.73,3.34a.173.173,0,0,0-.2.2v1.426a.173.173,0,0,0,.2.2h.7a.571.571,0,0,0,.352-.117q1.016-.781,1.855-1.562a.076.076,0,0,0,.02-.088q-.02-.049-.059-.049Zm3.965,8.73a.173.173,0,0,0,.2-.2v-.879a.173.173,0,0,0-.2-.2H47.5a.173.173,0,0,0-.2.2v.879a.173.173,0,0,0,.2.2ZM47.3-1.016a.173.173,0,0,0,.2.2h6.484a.173.173,0,0,0,.2-.2v-.977a.173.173,0,0,0-.2-.2H47.5a.173.173,0,0,0-.2.2Zm11.348-9.57a.962.962,0,0,1,.313.732.993.993,0,0,1-.312.742,1.03,1.03,0,0,1-.742.3H51.953a.571.571,0,0,0-.352.117Q50.547-7.93,49.57-7.3a.047.047,0,0,0-.029.059.046.046,0,0,0,.049.039h5.371a1.637,1.637,0,0,1,1.2.5,1.637,1.637,0,0,1,.5,1.2V.449a1.185,1.185,0,0,1-.361.869,1.185,1.185,0,0,1-.869.361h-.781a.467.467,0,0,1-.469-.469.052.052,0,0,0-.059-.059H47.363q-.059,0-.059.078a.507.507,0,0,1-.156.371.53.53,0,0,1-.391.156h-.645a1.146,1.146,0,0,1-.84-.352,1.146,1.146,0,0,1-.352-.84V-4.59a.115.115,0,0,0-.059-.1.129.129,0,0,0-.117-.02q-.957.43-1.738.742a1.617,1.617,0,0,1-.547.1,1.926,1.926,0,0,1-.469-.059,1.786,1.786,0,0,1-.82-.605A.829.829,0,0,1,41-5.039a.8.8,0,0,1,.039-.254.775.775,0,0,1,.527-.566,36.666,36.666,0,0,0,6.113-2.852.039.039,0,0,0,.02-.059.063.063,0,0,0-.059-.039H42.09a1.03,1.03,0,0,1-.742-.3.993.993,0,0,1-.312-.742.993.993,0,0,1,.313-.742,1.03,1.03,0,0,1,.742-.3h5.176a.173.173,0,0,0,.2-.2V-12.52a.173.173,0,0,0-.2-.2H43.789a1,1,0,0,1-.732-.3,1,1,0,0,1-.3-.732,1,1,0,0,1,.3-.732,1,1,0,0,1,.732-.3h3.477a.173.173,0,0,0,.2-.2v-.781a1.13,1.13,0,0,1,.342-.83,1.13,1.13,0,0,1,.83-.342,1.163,1.163,0,0,1,.84.342,1.114,1.114,0,0,1,.352.83v.781a.173.173,0,0,0,.2.2h3.262a.834.834,0,0,1,.625.264.859.859,0,0,1,.254.615q0,.02.029.029a.161.161,0,0,0,.049.01q.684-.762,1.309-1.543a1.224,1.224,0,0,1,.781-.508,1.284,1.284,0,0,1,.313-.039,1.416,1.416,0,0,1,.605.137,1.012,1.012,0,0,1,.508.645,1.423,1.423,0,0,1,.02.234.88.88,0,0,1-.2.547,29.949,29.949,0,0,1-3.105,3.359.076.076,0,0,0-.02.088q.02.049.059.049h3.4A1.014,1.014,0,0,1,58.652-10.586Zm6.816,6.992q1.25,0,2.4-3.926a30.327,30.327,0,0,0,1.035-4.609.105.105,0,0,0-.029-.117.2.2,0,0,0-.127-.039,6.4,6.4,0,0,0-2.08.908,6.03,6.03,0,0,0-1.533,1.436,6.613,6.613,0,0,0-.9,1.67,4.979,4.979,0,0,0-.312,1.689,4.4,4.4,0,0,0,.459,2.2A1.3,1.3,0,0,0,65.469-3.594ZM72.246.547A1.7,1.7,0,0,1,71.8.605a1.856,1.856,0,0,1-.723-.156,2.1,2.1,0,0,1-.918-.8A.923.923,0,0,1,70.02-.82a1.045,1.045,0,0,1,.078-.391.944.944,0,0,1,.684-.527q.254-.039.488-.1a6.158,6.158,0,0,0,3.242-1.846,4.962,4.962,0,0,0,1.25-3.467,5.553,5.553,0,0,0-1.035-3.418,4.672,4.672,0,0,0-2.91-1.777.176.176,0,0,0-.234.156,46.575,46.575,0,0,1-1.133,5.2,14.969,14.969,0,0,1-2.2,4.746,3.626,3.626,0,0,1-2.881,1.68,3.44,3.44,0,0,1-2.842-1.641,6.872,6.872,0,0,1-1.182-4.121,7.818,7.818,0,0,1,.7-3.242,8.438,8.438,0,0,1,1.914-2.705,9.317,9.317,0,0,1,2.91-1.836,9.42,9.42,0,0,1,3.594-.693,8.441,8.441,0,0,1,4.219,1.035,7.1,7.1,0,0,1,2.8,2.793,8.009,8.009,0,0,1,.967,3.926,7.506,7.506,0,0,1-1.582,4.834A8.349,8.349,0,0,1,72.246.547Zm16.582-7.52a.173.173,0,0,0-.2-.2H85.41a.173.173,0,0,0-.2.2v.391q0,.625-.039,1.328a.207.207,0,0,0,.049.137.157.157,0,0,0,.127.059h3.281a.173.173,0,0,0,.2-.2Zm6.094,1.914a.173.173,0,0,0,.2-.2V-6.973a.173.173,0,0,0-.2-.2H91.328a.173.173,0,0,0-.2.2v1.719a.173.173,0,0,0,.2.2ZM95.8-9.1a1.637,1.637,0,0,1,1.2.5,1.637,1.637,0,0,1,.5,1.2v4.219a1.146,1.146,0,0,1-.352.84,1.146,1.146,0,0,1-.84.352h-.234a.92.92,0,0,1-.674-.283.92.92,0,0,1-.283-.674q0-.117-.1-.117H85.059a.217.217,0,0,0-.234.2A9.765,9.765,0,0,1,83.105.938a.99.99,0,0,1-.811.391,1.292,1.292,0,0,1-.889-.352,1.154,1.154,0,0,1-.391-.8v-.1a1.22,1.22,0,0,1,.254-.762,9.782,9.782,0,0,0,1.582-5.937V-7.4a1.637,1.637,0,0,1,.5-1.2,1.637,1.637,0,0,1,1.2-.5Zm2.6-6.035a.97.97,0,0,1,.293.713.97.97,0,0,1-.293.713.959.959,0,0,1-.7.293H91.348a.173.173,0,0,0-.2.2v.82a.173.173,0,0,0,.2.2H96.8a.959.959,0,0,1,.7.293.97.97,0,0,1,.293.713.97.97,0,0,1-.293.713.959.959,0,0,1-.7.293H83.535a.959.959,0,0,1-.7-.293.97.97,0,0,1-.293-.713.97.97,0,0,1,.293-.713.959.959,0,0,1,.7-.293h5.039a.173.173,0,0,0,.2-.2v-.82a.173.173,0,0,0-.2-.2H82.285a.959.959,0,0,1-.7-.293.97.97,0,0,1-.293-.713,1,1,0,0,1,.293-.723.944.944,0,0,1,.7-.3h6.328q.156,0,.156-.137v-.156a1.146,1.146,0,0,1,.352-.84,1.146,1.146,0,0,1,.84-.352,1.146,1.146,0,0,1,.84.352,1.146,1.146,0,0,1,.352.84v.156q0,.137.156.137H97.7A.93.93,0,0,1,98.4-15.137Z" transform="translate(-0.918 16.934)" fill="#4e9174"/>
</svg>
