<svg xmlns="http://www.w3.org/2000/svg" width="157.715" height="19.16" viewBox="0 0 157.715 19.16">
  <path id="パス_6890" data-name="パス 6890" d="M6.582-7.656a.173.173,0,0,0-.2.2v.938a.187.187,0,0,0,.059.137.187.187,0,0,0,.137.059q1.738-.1,5.8-.312a.69.69,0,0,0,.352-.137q.117-.1.273-.234a1.7,1.7,0,0,1,.176-.156.38.38,0,0,0,.137-.3q0-.186-.2-.186Zm6.738-5.605a.173.173,0,0,0-.2-.2H6.582a.173.173,0,0,0-.2.2v.781a.173.173,0,0,0,.2.2h6.543a.173.173,0,0,0,.2-.2Zm-.2,3.867a.173.173,0,0,0,.2-.2v-.8a.173.173,0,0,0-.2-.2H6.582a.173.173,0,0,0-.2.2v.8a.173.173,0,0,0,.2.2Zm2.969-.957a1.554,1.554,0,0,1,.84-.586A1.353,1.353,0,0,1,17.324-11a1.548,1.548,0,0,1,.625.137,1.053,1.053,0,0,1,.586.723,1.211,1.211,0,0,1,.039.293,1.078,1.078,0,0,1-.2.605,25.68,25.68,0,0,1-2.461,2.832.452.452,0,0,0-.137.332V-1.6A4.239,4.239,0,0,1,15.537.02a1.591,1.591,0,0,1-.889.84,8.4,8.4,0,0,1-2.754.43h-.059a1.474,1.474,0,0,1-.957-.352A2.063,2.063,0,0,1,10.234,0a.837.837,0,0,1-.059-.293A.829.829,0,0,1,10.352-.8a.77.77,0,0,1,.684-.352H11.7q.566,0,1.074-.02.547,0,.547-.449V-3.984a.094.094,0,0,0-.059-.088.077.077,0,0,0-.1.01A33.142,33.142,0,0,1,3.672.723a1.406,1.406,0,0,1-.508.1A1.72,1.72,0,0,1,2.559.7,1.966,1.966,0,0,1,1.641,0a.855.855,0,0,1-.2-.527A.736.736,0,0,1,1.5-.82a.832.832,0,0,1,.586-.586A32.538,32.538,0,0,0,8.984-4.238q.039-.02.029-.049a.045.045,0,0,0-.049-.029q-4.375.352-6.387.508h-.1a1.216,1.216,0,0,1-.8-.293,1.258,1.258,0,0,1-.469-.82v-.156a1.061,1.061,0,0,1,.254-.684,1,1,0,0,1,.781-.391q.723-.02,1.563-.059a.173.173,0,0,0,.2-.2v-7.383a1.637,1.637,0,0,1,.5-1.2,1.637,1.637,0,0,1,1.2-.5H7.949a.242.242,0,0,0,.254-.176q.078-.2.137-.371a1.872,1.872,0,0,1,.742-.957,1.817,1.817,0,0,1,.977-.293h.176a.97.97,0,0,1,.781.508,1,1,0,0,1,.117.449,1.04,1.04,0,0,1-.117.469q-.039.059-.117.2a.1.1,0,0,0,0,.117.115.115,0,0,0,.1.059h3.086a1.637,1.637,0,0,1,1.2.5,1.637,1.637,0,0,1,.5,1.2v3.672a.046.046,0,0,0,.039.049.11.11,0,0,0,.078-.01Zm19.863-5.2a1.108,1.108,0,0,1,.811.342,1.119,1.119,0,0,1,.342.82,1.087,1.087,0,0,1-.342.811,1.124,1.124,0,0,1-.811.332H24.043a1.124,1.124,0,0,1-.811-.332,1.087,1.087,0,0,1-.342-.811,1.119,1.119,0,0,1,.342-.82,1.108,1.108,0,0,1,.811-.342ZM34.434-.82h1.8a.6.6,0,0,0,.6-.42,6.989,6.989,0,0,0,.244-1.768.673.673,0,0,1,.371-.586.867.867,0,0,1,.391-.1.733.733,0,0,1,.332.078,1.786,1.786,0,0,1,.8.645,1.362,1.362,0,0,1,.254.781v.176a5.494,5.494,0,0,1-.83,2.686,2.364,2.364,0,0,1-1.943.732h-2.4A2.977,2.977,0,0,1,31.777.742,3.776,3.776,0,0,1,31.191-1.7V-7.617a.173.173,0,0,0-.2-.2H28.4a.193.193,0,0,0-.215.2q-.117,1.211-.283,2.158a13.035,13.035,0,0,1-.518,1.973,7.889,7.889,0,0,1-.869,1.807A8.385,8.385,0,0,1,25.176-.146a9.345,9.345,0,0,1-1.914,1.338,1.522,1.522,0,0,1-.566.117A1.353,1.353,0,0,1,22.3,1.25a1.66,1.66,0,0,1-.82-.586.946.946,0,0,1-.2-.508A.954.954,0,0,1,21.4-.361a.79.79,0,0,1,.381-.361A7.567,7.567,0,0,0,23.34-1.787a6.038,6.038,0,0,0,1.055-1.2A6.059,6.059,0,0,0,25.049-4.4a9.551,9.551,0,0,0,.371-1.523q.107-.713.186-1.689a.207.207,0,0,0-.049-.137.157.157,0,0,0-.127-.059H22.266a1.13,1.13,0,0,1-.83-.342,1.119,1.119,0,0,1-.342-.82,1.119,1.119,0,0,1,.342-.82,1.13,1.13,0,0,1,.83-.342H37.773a1.13,1.13,0,0,1,.83.342,1.119,1.119,0,0,1,.342.82,1.119,1.119,0,0,1-.342.82,1.13,1.13,0,0,1-.83.342H33.848a.173.173,0,0,0-.2.2V-1.7a1.163,1.163,0,0,0,.146.723A.9.9,0,0,0,34.434-.82Zm10.254-15a1.283,1.283,0,0,1,.645-.664,1.2,1.2,0,0,1,.508-.117,1.166,1.166,0,0,1,.371.059,1.072,1.072,0,0,1,.645.566,1,1,0,0,1,.117.449.905.905,0,0,1-.1.41q-.645,1.465-1.328,2.715a.775.775,0,0,0-.078.352V.566a1.091,1.091,0,0,1-.332.8,1.132,1.132,0,0,1-1.6,0,1.091,1.091,0,0,1-.332-.8V-8.574q0-.039-.049-.059t-.068.02q-.254.332-.488.605a.8.8,0,0,1-.645.313.642.642,0,0,1-.156-.02.944.944,0,0,1-.7-.508,1.851,1.851,0,0,1-.234-.9,1.8,1.8,0,0,1,.02-.254,2.041,2.041,0,0,1,.469-1.055A20.973,20.973,0,0,0,44.688-15.82Zm5.488,1.836a.173.173,0,0,0-.2.2V-11.5a.173.173,0,0,0,.2.2h5.469a.173.173,0,0,0,.2-.2v-2.285a.173.173,0,0,0-.2-.2ZM58.887-7.07a1.025,1.025,0,0,1,.313.752,1.058,1.058,0,0,1-.312.762,1.021,1.021,0,0,1-.762.322H55.391a.1.1,0,0,0-.088.049.1.1,0,0,0,.01.107,15.023,15.023,0,0,0,3.418,3.5,1.111,1.111,0,0,1,.43.762V-.7a1.065,1.065,0,0,1-.273.723,1.5,1.5,0,0,1-.879.469.642.642,0,0,1-.156.02,1.138,1.138,0,0,1-.742-.273,17.579,17.579,0,0,1-2.969-3.5.039.039,0,0,0-.059-.02.063.063,0,0,0-.039.059V.547a1.146,1.146,0,0,1-.352.84,1.2,1.2,0,0,1-1.7,0,1.146,1.146,0,0,1-.352-.84V-3.125a.063.063,0,0,0-.039-.059.064.064,0,0,0-.078.02A16.023,16.023,0,0,1,48.34.254a1.2,1.2,0,0,1-.7.234,1.1,1.1,0,0,1-.215-.02,1.381,1.381,0,0,1-.859-.488A1.011,1.011,0,0,1,46.309-.7V-.84a.965.965,0,0,1,.449-.723,14.114,14.114,0,0,0,3.633-3.516.1.1,0,0,0,.01-.107.1.1,0,0,0-.088-.049H47.48a1.021,1.021,0,0,1-.762-.322,1.058,1.058,0,0,1-.312-.762,1.058,1.058,0,0,1,.313-.762A1.021,1.021,0,0,1,47.48-7.4h3.965a.173.173,0,0,0,.2-.2V-9a.173.173,0,0,0-.2-.2H49.414a1.637,1.637,0,0,1-1.2-.5,1.637,1.637,0,0,1-.5-1.2v-3.457a1.637,1.637,0,0,1,.5-1.2,1.637,1.637,0,0,1,1.2-.5h7.109a1.637,1.637,0,0,1,1.2.5,1.637,1.637,0,0,1,.5,1.2V-10.9a1.637,1.637,0,0,1-.5,1.2,1.637,1.637,0,0,1-1.2.5H54.238a.173.173,0,0,0-.2.2V-7.6a.173.173,0,0,0,.2.2h3.887A1.006,1.006,0,0,1,58.887-7.07Zm7.578-9.258a.865.865,0,0,1,.635.264.877.877,0,0,1,.264.645.877.877,0,0,1-.264.645.865.865,0,0,1-.635.264H62.617a.865.865,0,0,1-.635-.264.877.877,0,0,1-.264-.645.877.877,0,0,1,.264-.645.865.865,0,0,1,.635-.264Zm-1,13.3a.173.173,0,0,0-.2-.2H63.73a.173.173,0,0,0-.2.2v1.895a.173.173,0,0,0,.2.2h1.543a.173.173,0,0,0,.2-.2ZM65.8-5.1a1.637,1.637,0,0,1,1.2.5,1.637,1.637,0,0,1,.5,1.2V-.762a1.637,1.637,0,0,1-.5,1.2,1.637,1.637,0,0,1-1.2.5H63.613a.069.069,0,0,0-.078.078.678.678,0,0,1-.205.5.678.678,0,0,1-.5.205h-.293a.959.959,0,0,1-.7-.293.959.959,0,0,1-.293-.7V-3.4a1.637,1.637,0,0,1,.5-1.2,1.637,1.637,0,0,1,1.2-.5ZM62.5-6.113a.865.865,0,0,1-.635-.264.877.877,0,0,1-.264-.645.877.877,0,0,1,.264-.645A.865.865,0,0,1,62.5-7.93h3.965a.865.865,0,0,1,.635.264.877.877,0,0,1,.264.645.877.877,0,0,1-.264.645.865.865,0,0,1-.635.264Zm3.965-4.59a.865.865,0,0,1,.635.264.865.865,0,0,1,.264.635.834.834,0,0,1-.264.625.882.882,0,0,1-.635.254H62.48a.859.859,0,0,1-.615-.254A.834.834,0,0,1,61.6-9.8a.865.865,0,0,1,.264-.635.843.843,0,0,1,.615-.264ZM61.6-11.68a.9.9,0,0,1-.664-.273.9.9,0,0,1-.273-.664.9.9,0,0,1,.273-.664.9.9,0,0,1,.664-.273h5.547a.9.9,0,0,1,.664.273.9.9,0,0,1,.273.664.9.9,0,0,1-.273.664.9.9,0,0,1-.664.273ZM75.449-1.367a.173.173,0,0,0,.2.2h2.617a1.075,1.075,0,0,1,.791.322,1.064,1.064,0,0,1,.322.781,1.064,1.064,0,0,1-.322.781,1.075,1.075,0,0,1-.791.322h-9a1.075,1.075,0,0,1-.791-.322,1.075,1.075,0,0,1-.322-.791,1.043,1.043,0,0,1,.322-.781,1.069,1.069,0,0,1,.771-.312q.117,0,.117-.137V-9.551a1.059,1.059,0,0,1,.332-.791,1.1,1.1,0,0,1,.791-.322,1.064,1.064,0,0,1,.781.322,1.075,1.075,0,0,1,.322.791v8.184a.173.173,0,0,0,.2.2H72.91a.173.173,0,0,0,.2-.2v-12.09a.173.173,0,0,0-.2-.2H69.824a1.091,1.091,0,0,1-.8-.332,1.091,1.091,0,0,1-.332-.8,1.091,1.091,0,0,1,.332-.8,1.091,1.091,0,0,1,.8-.332h8.047a1.091,1.091,0,0,1,.8.332,1.091,1.091,0,0,1,.332.8,1.091,1.091,0,0,1-.332.8,1.091,1.091,0,0,1-.8.332H75.645a.173.173,0,0,0-.2.2v4.316a.173.173,0,0,0,.2.2h2.129a1.091,1.091,0,0,1,.8.332,1.08,1.08,0,0,1,.332.791,1.08,1.08,0,0,1-.332.791,1.091,1.091,0,0,1-.8.332H75.645a.173.173,0,0,0-.2.2ZM93.457-7.578a.1.1,0,0,0,0-.117.115.115,0,0,0-.1-.059H86.875a.115.115,0,0,0-.1.059.1.1,0,0,0,0,.117,10.589,10.589,0,0,0,3.105,3.4.238.238,0,0,0,.313,0A10.529,10.529,0,0,0,93.457-7.578Zm1.484-2.52a.994.994,0,0,1,.2-.02,1.12,1.12,0,0,1,.508.117l.488.293a1.024,1.024,0,0,1,.508.586,1.106,1.106,0,0,1,.059.352,1.094,1.094,0,0,1-.078.41,14.156,14.156,0,0,1-4.18,5.449.1.1,0,0,0-.049.107.1.1,0,0,0,.068.088,21.525,21.525,0,0,0,5.527,1.543.74.74,0,0,1,.625.488,1.051,1.051,0,0,1,.059.332.923.923,0,0,1-.137.469,2.423,2.423,0,0,1-.918.82,1.771,1.771,0,0,1-.8.2,1.365,1.365,0,0,1-.332-.039,19.99,19.99,0,0,1-6.406-2.246.341.341,0,0,0-.352,0,25.911,25.911,0,0,1-6.5,2.188,1.533,1.533,0,0,1-.332.039,1.47,1.47,0,0,1-.723-.2,1.976,1.976,0,0,1-.8-.8.8.8,0,0,1-.137-.43,1,1,0,0,1,.078-.371.825.825,0,0,1,.625-.488,25.132,25.132,0,0,0,5.605-1.543.1.1,0,0,0,.068-.088.145.145,0,0,0-.049-.127,13.972,13.972,0,0,1-2.344-2.754A1.243,1.243,0,0,1,85-6.406a1.475,1.475,0,0,1,.078-.469,1.347,1.347,0,0,1,.859-.82v-.029q0-.029-.02-.029H83.594a1.13,1.13,0,0,1-.83-.342,1.13,1.13,0,0,1-.342-.83,1.13,1.13,0,0,1,.342-.83,1.13,1.13,0,0,1,.83-.342h4.9a.173.173,0,0,0,.2-.2v-1.914a.173.173,0,0,0-.2-.2H82.617a1.153,1.153,0,0,1-.85-.342,1.142,1.142,0,0,1-.342-.84,1.142,1.142,0,0,1,.342-.84,1.153,1.153,0,0,1,.85-.342H88.5a.173.173,0,0,0,.2-.2v-1.172A1.185,1.185,0,0,1,89.053-17a1.185,1.185,0,0,1,.869-.361,1.185,1.185,0,0,1,.869.361,1.185,1.185,0,0,1,.361.869v1.172a.173.173,0,0,0,.2.2H97.3a1.13,1.13,0,0,1,.83.342,1.142,1.142,0,0,1,.342.84,1.142,1.142,0,0,1-.342.84,1.13,1.13,0,0,1-.83.342H91.348a.173.173,0,0,0-.2.2v1.914a.173.173,0,0,0,.2.2h3.594Zm10.781,2.48a1.8,1.8,0,0,1,.254-.02.992.992,0,0,1,.527.156.91.91,0,0,1,.41.664v.176a1.232,1.232,0,0,1-.2.664,1.163,1.163,0,0,1-.684.527q-.41.117-.762.215a.245.245,0,0,0-.2.254v4.2A3.95,3.95,0,0,1,104.9.537a1.538,1.538,0,0,1-.625.771,3.334,3.334,0,0,1-1.6.41h-.1a1.118,1.118,0,0,1-.762-.293,1.527,1.527,0,0,1-.527-.8.928.928,0,0,1-.039-.254.78.78,0,0,1,.156-.469.747.747,0,0,1,.645-.332,4.607,4.607,0,0,0,.508-.02.382.382,0,0,0,.254-.068.344.344,0,0,0,.078-.264V-4.355a.157.157,0,0,0-.059-.127.118.118,0,0,0-.117-.029l-.684.215a1.284,1.284,0,0,1-.312.039.992.992,0,0,1-.527-.156,1.015,1.015,0,0,1-.469-.7,1.1,1.1,0,0,1-.02-.215,1.243,1.243,0,0,1,.215-.684,1.3,1.3,0,0,1,.762-.527q.488-.117,1.035-.273a.212.212,0,0,0,.176-.234v-3.711a.173.173,0,0,0-.2-.2h-.8a1.053,1.053,0,0,1-.771-.322,1.064,1.064,0,0,1-.322-.781,1.064,1.064,0,0,1,.322-.781,1.053,1.053,0,0,1,.771-.322h.8a.173.173,0,0,0,.2-.2V-15.82a1.043,1.043,0,0,1,.322-.781,1.069,1.069,0,0,1,.771-.312,1.069,1.069,0,0,1,.771.313,1.043,1.043,0,0,1,.322.781v2.48q0,.176.2.176h.508a1.053,1.053,0,0,1,.771.322,1.064,1.064,0,0,1,.322.781,1.064,1.064,0,0,1-.322.781,1.053,1.053,0,0,1-.771.322h-.508q-.2,0-.2.176v3.164a.14.14,0,0,0,.059.107.118.118,0,0,0,.117.029Zm9.57,3.535a.1.1,0,0,0,0-.117.131.131,0,0,0-.117-.059H112.09A.094.094,0,0,0,112-4.2a.077.077,0,0,0,.01.1,7.176,7.176,0,0,0,1.719,1.719.223.223,0,0,0,.313-.02A6.266,6.266,0,0,0,115.293-4.082Zm.762-1.895a3.666,3.666,0,0,1,1.328.2.763.763,0,0,1,.4.381.672.672,0,0,1,.029.537,9.622,9.622,0,0,1-1.953,3.457.123.123,0,0,0-.039.127.12.12,0,0,0,.078.088,14.167,14.167,0,0,0,2.48.781.708.708,0,0,1,.508.469.8.8,0,0,1,.039.254.8.8,0,0,1-.137.43,2.02,2.02,0,0,1-.82.664,1.472,1.472,0,0,1-.586.117,1.353,1.353,0,0,1-.391-.059A14.526,14.526,0,0,1,114.121.313a.341.341,0,0,0-.352,0,12.478,12.478,0,0,1-2.559,1.152,1.094,1.094,0,0,1-.41.078,1.358,1.358,0,0,1-.488-.1,1.819,1.819,0,0,1-.742-.586.7.7,0,0,1-.137-.41.737.737,0,0,1,.039-.234.653.653,0,0,1,.469-.449A11.982,11.982,0,0,0,111.973-1a.1.1,0,0,0,.068-.088.145.145,0,0,0-.049-.127,8.807,8.807,0,0,1-1.25-1.328.1.1,0,0,0-.107-.049.15.15,0,0,0-.107.068,10.539,10.539,0,0,1-2.676,3.535,1.008,1.008,0,0,1-.645.234.994.994,0,0,1-.2-.02,1.492,1.492,0,0,1-.781-.449A.97.97,0,0,1,105.957.1a1,1,0,0,1,.371-.8,9.724,9.724,0,0,0,3.145-5.859.207.207,0,0,0-.049-.137.157.157,0,0,0-.127-.059h-1.23a.911.911,0,0,1-.684-.283.949.949,0,0,1-.273-.684.916.916,0,0,1,.273-.674.927.927,0,0,1,.684-.273h1.5a.173.173,0,0,0,.2-.2,4.779,4.779,0,0,1,.059-.566.207.207,0,0,0-.049-.137.157.157,0,0,0-.127-.059h-1.23a.921.921,0,0,1-.664-.264.872.872,0,0,1-.273-.654.9.9,0,0,1,.273-.664.9.9,0,0,1,.664-.273h.176q.137,0,.1-.117-.137-.508-.371-1.172a.837.837,0,0,1-.059-.293.867.867,0,0,1,.1-.391.827.827,0,0,1,.527-.43,1.211,1.211,0,0,1,.293-.039,1.074,1.074,0,0,1,.449.1.958.958,0,0,1,.508.527q.117.254.2.469a.9.9,0,0,1,.078.371,1.031,1.031,0,0,1-.1.43,1.024,1.024,0,0,1-.625.508v.02a.017.017,0,0,0,.02.02h1.973a.187.187,0,0,0,.137-.059.136.136,0,0,0,.039-.137,13.833,13.833,0,0,0-.215-1.406.905.905,0,0,1-.02-.176.9.9,0,0,1,.156-.508.828.828,0,0,1,.586-.391.994.994,0,0,1,.2-.02.942.942,0,0,1,.547.176.978.978,0,0,1,.43.605q.039.137.068.283a1.443,1.443,0,0,1,.029.283,1.232,1.232,0,0,1-.2.664,1.287,1.287,0,0,1-.8.547l-.469.1a.017.017,0,0,0-.02.02.017.017,0,0,0,.02.02h2.109a.323.323,0,0,0,.293-.156,20.065,20.065,0,0,0,1.406-2.871.139.139,0,0,0-.02-.127.105.105,0,0,0-.117-.029q-3.32.41-7.3.508h-.02a1.035,1.035,0,0,1-.664-.234,1.344,1.344,0,0,1-.41-.645.684.684,0,0,1-.039-.215.754.754,0,0,1,.117-.391.667.667,0,0,1,.527-.293,69.036,69.036,0,0,0,8.047-.723,2.517,2.517,0,0,1,.313-.02,1.984,1.984,0,0,1,.664.117,1.939,1.939,0,0,1,.781.586.7.7,0,0,1,.137.41.928.928,0,0,1-.039.254.66.66,0,0,1-.527.41l-1.191.176a.035.035,0,0,0-.039.039.035.035,0,0,0,.039.039l.371.117a1.234,1.234,0,0,1,.859.781,1.475,1.475,0,0,1,.078.469,1.3,1.3,0,0,1-.2.664q-.332.527-.645.977a.124.124,0,0,0,.01.107.1.1,0,0,0,.088.049h.781a.882.882,0,0,1,.645.273.9.9,0,0,1,.273.664.872.872,0,0,1-.273.654.9.9,0,0,1-.645.264H112.3q-.2,0-.215.215-.02.312-.039.547a.147.147,0,0,0,.029.137.157.157,0,0,0,.127.059h5.918a.937.937,0,0,1,.674.273.9.9,0,0,1,.283.674.931.931,0,0,1-.283.684.92.92,0,0,1-.674.283h-6.152a.217.217,0,0,0-.234.2,1.249,1.249,0,0,0-.039.2,1.249,1.249,0,0,1-.039.2.147.147,0,0,0,.029.137.157.157,0,0,0,.127.059Zm18.5,3.105a.173.173,0,0,0,.2-.2v-.566a.173.173,0,0,0-.2-.2h-3.223a.173.173,0,0,0-.2.2v.566a.173.173,0,0,0,.2.2ZM131.328-6.5a.173.173,0,0,0-.2.2v.469a.173.173,0,0,0,.2.2h3.223a.173.173,0,0,0,.2-.2v-.469a.173.173,0,0,0-.2-.2Zm-5.742-4.18a.173.173,0,0,0,.2.2h2.734a.173.173,0,0,0,.2-.2v-.566a.173.173,0,0,0-.2-.2h-2.734a.173.173,0,0,0-.2.2Zm8.789-.566a.173.173,0,0,0-.2-.2h-2.852a.173.173,0,0,0-.2.2v.566a.173.173,0,0,0,.2.2h2.852a.173.173,0,0,0,.2-.2Zm3.945,5.605a.872.872,0,0,1,.654.273.9.9,0,0,1,.264.645.865.865,0,0,1-.264.635.888.888,0,0,1-.654.264h-.957a.173.173,0,0,0-.2.2v2.09a1.163,1.163,0,0,1-.361.85,1.163,1.163,0,0,1-.85.361h-.488a.694.694,0,0,1-.508-.215.717.717,0,0,1-.215-.527q0-.078-.1-.078h-3.32a.173.173,0,0,0-.2.2v.41A2.892,2.892,0,0,1,130.9.771a1.6,1.6,0,0,1-.82.693,8.209,8.209,0,0,1-2.52.332h-.02a1.242,1.242,0,0,1-.781-.273,1.681,1.681,0,0,1-.547-.684.689.689,0,0,1-.059-.273.544.544,0,0,1,.117-.332.559.559,0,0,1,.508-.293q.645.02,1.445.02a.6.6,0,0,0,.381-.127.533.533,0,0,0,.107-.381v-.41a.173.173,0,0,0-.2-.2H123.5a.827.827,0,0,1-.605-.254.838.838,0,0,1-.254-.615.806.806,0,0,1,.254-.605.843.843,0,0,1,.605-.244h5.02a.173.173,0,0,0,.2-.2v-.566a.173.173,0,0,0-.2-.2h-6.8a.888.888,0,0,1-.654-.264.865.865,0,0,1-.264-.635.9.9,0,0,1,.264-.645.872.872,0,0,1,.654-.273h6.8a.173.173,0,0,0,.2-.2v-.469a.173.173,0,0,0-.2-.2h-4.922a.772.772,0,0,1-.566-.234.772.772,0,0,1-.234-.566.772.772,0,0,1,.234-.566.772.772,0,0,1,.566-.234h4.922a.173.173,0,0,0,.2-.2v-.488a.173.173,0,0,0-.2-.2H125a1.637,1.637,0,0,1-1.2-.5,1.637,1.637,0,0,1-.5-1.2v-.566a1.637,1.637,0,0,1,.5-1.2,1.637,1.637,0,0,1,1.2-.5h3.516a.173.173,0,0,0,.2-.2v-.43a.173.173,0,0,0-.2-.2h-6.309a.9.9,0,0,1-.664-.273.9.9,0,0,1-.273-.664.9.9,0,0,1,.273-.664.9.9,0,0,1,.664-.273h6.387q.117,0,.117-.137a1.108,1.108,0,0,1,.342-.811,1.13,1.13,0,0,1,.83-.342h.1a1.108,1.108,0,0,1,.811.342,1.108,1.108,0,0,1,.342.811.121.121,0,0,0,.137.137h6.563a.937.937,0,0,1,.674.273.889.889,0,0,1,.283.664.889.889,0,0,1-.283.664.937.937,0,0,1-.674.273h-6.5a.173.173,0,0,0-.2.2v.43a.173.173,0,0,0,.2.2h3.789a1.637,1.637,0,0,1,1.2.5,1.637,1.637,0,0,1,.5,1.2v.566a1.637,1.637,0,0,1-.5,1.2,1.637,1.637,0,0,1-1.2.5h-3.789a.173.173,0,0,0-.2.2V-8.3a.173.173,0,0,0,.2.2h4.141a1.637,1.637,0,0,1,1.2.5,1.637,1.637,0,0,1,.5,1.2v.566a.173.173,0,0,0,.2.2Zm14.063-5.918a.1.1,0,0,0,0-.117.131.131,0,0,0-.117-.059h-4.414a.1.1,0,0,0-.088.049.124.124,0,0,0-.01.107,9.892,9.892,0,0,1,.508,1.094.247.247,0,0,1-.02.215.317.317,0,0,1-.2.137h3.516a.277.277,0,0,0,.273-.176A13.206,13.206,0,0,0,152.383-11.562Zm6.25,7.07a.948.948,0,0,1,.293.693.948.948,0,0,1-.293.693.937.937,0,0,1-.684.293H153.32a.063.063,0,0,0-.059.039.039.039,0,0,0,.02.059A16.964,16.964,0,0,0,158.145-.9a.771.771,0,0,1,.566.527.689.689,0,0,1,.059.273.8.8,0,0,1-.176.488,1.925,1.925,0,0,1-.918.723,1.616,1.616,0,0,1-.605.117,1.406,1.406,0,0,1-.508-.1,16.63,16.63,0,0,1-5.273-2.871.077.077,0,0,0-.1-.01.094.094,0,0,0-.059.088V.566a1.13,1.13,0,0,1-.342.83,1.155,1.155,0,0,1-1.641,0,1.13,1.13,0,0,1-.342-.83V-1.543a.094.094,0,0,0-.059-.088.077.077,0,0,0-.1.01A18.27,18.27,0,0,1,143.3,1.152a1.534,1.534,0,0,1-.488.078,1.379,1.379,0,0,1-.547-.117,1.841,1.841,0,0,1-.859-.645A.725.725,0,0,1,141.23,0a.8.8,0,0,1,.039-.254.718.718,0,0,1,.527-.508,20.367,20.367,0,0,0,4.941-1.953.039.039,0,0,0,.02-.059.063.063,0,0,0-.059-.039h-4.551a.959.959,0,0,1-.7-.293.948.948,0,0,1-.293-.693.948.948,0,0,1,.293-.693.959.959,0,0,1,.7-.293h6.465a.173.173,0,0,0,.2-.2v-.488a.173.173,0,0,0-.2-.2h-4.707a.818.818,0,0,1-.615-.254.843.843,0,0,1-.244-.605.843.843,0,0,1,.244-.605.818.818,0,0,1,.615-.254h4.707a.173.173,0,0,0,.2-.2v-.508a.173.173,0,0,0-.2-.2h-5.645a.9.9,0,0,1-.664-.273.893.893,0,0,1-.273-.654.893.893,0,0,1,.273-.654.9.9,0,0,1,.664-.273h2.7a.115.115,0,0,0,.1-.059.129.129,0,0,0,.02-.117,8.854,8.854,0,0,0-.508-1.191.168.168,0,0,1-.01-.146.149.149,0,0,1,.107-.088h-3.184a.953.953,0,0,1-.684-.283.916.916,0,0,1-.293-.684.916.916,0,0,1,.293-.684.953.953,0,0,1,.684-.283h1.523a.115.115,0,0,0,.1-.059.164.164,0,0,0,.02-.137q-.234-.566-.645-1.348a.89.89,0,0,1-.117-.43.733.733,0,0,1,.078-.332.819.819,0,0,1,.527-.527,1.446,1.446,0,0,1,.459-.078,1.446,1.446,0,0,1,.459.078,1.226,1.226,0,0,1,.684.566q.332.547.566,1.035a.753.753,0,0,1,.1.371.819.819,0,0,1-.078.332.889.889,0,0,1-.527.488v.02a.017.017,0,0,0,.02.02h1.5a.173.173,0,0,0,.2-.2V-15.82a1.059,1.059,0,0,1,.332-.791,1.1,1.1,0,0,1,.791-.322,1.064,1.064,0,0,1,.781.322,1.075,1.075,0,0,1,.322.791v1.953a.173.173,0,0,0,.2.2h1.094a.173.173,0,0,0,.2-.2V-15.82a1.059,1.059,0,0,1,.332-.791,1.1,1.1,0,0,1,.791-.322,1.1,1.1,0,0,1,.791.322,1.059,1.059,0,0,1,.332.791v1.953a.173.173,0,0,0,.2.2h1.5v-.039a.474.474,0,0,1-.352-.3.56.56,0,0,1,.02-.479q.254-.508.508-1.094a1.484,1.484,0,0,1,.684-.781,1.408,1.408,0,0,1,.664-.176,1.365,1.365,0,0,1,.332.039.943.943,0,0,1,.664.547,1.292,1.292,0,0,1,.059.371.956.956,0,0,1-.137.488q-.469.781-.781,1.25a.11.11,0,0,0-.01.117.109.109,0,0,0,.107.059h1.426a.943.943,0,0,1,.693.283.932.932,0,0,1,.283.684.932.932,0,0,1-.283.684.943.943,0,0,1-.693.283h-2.6a.316.316,0,0,0-.293.176q-.352.645-.742,1.25a.148.148,0,0,0,.01.117.094.094,0,0,0,.088.059h2.793a.9.9,0,0,1,.664.273.893.893,0,0,1,.273.654.893.893,0,0,1-.273.654.9.9,0,0,1-.664.273h-5.82a.173.173,0,0,0-.2.2v.508a.173.173,0,0,0,.2.2h4.961a.827.827,0,0,1,.605.254.827.827,0,0,1,.254.605.827.827,0,0,1-.254.605.827.827,0,0,1-.605.254h-4.961a.173.173,0,0,0-.2.2v.488a.173.173,0,0,0,.2.2h6.621A.937.937,0,0,1,158.633-4.492Z" transform="translate(-1.211 17.363)" fill="#4e9174"/>
</svg>
