<svg xmlns="http://www.w3.org/2000/svg" width="116.797" height="18.672" viewBox="0 0 116.797 18.672">
  <path id="パス_6896" data-name="パス 6896" d="M5.586-1.777q.625,0,.625-.859,0-.82-.039-2.246a.109.109,0,0,0-.059-.107A.11.11,0,0,0,6-4.98a4.859,4.859,0,0,0-1.357,1,1.591,1.591,0,0,0-.5,1.035,1.022,1.022,0,0,0,.508.8A1.63,1.63,0,0,0,5.586-1.777ZM8.4-8.906V-8.4a.157.157,0,0,0,.059.127.147.147,0,0,0,.137.029,15.557,15.557,0,0,1,3.613-.469,6.243,6.243,0,0,1,3.887,1.172,3.766,3.766,0,0,1,1.543,3.164A4.611,4.611,0,0,1,16.592-1.3,6.137,6.137,0,0,1,13.281.508q-.586.117-1.25.2a1.315,1.315,0,0,1-.215.02,1.556,1.556,0,0,1-.879-.273,1.819,1.819,0,0,1-.723-.9,1.051,1.051,0,0,1-.059-.332.914.914,0,0,1,.176-.527.93.93,0,0,1,.781-.43,10.859,10.859,0,0,0,1.094-.117,4.565,4.565,0,0,0,2.07-.879,2.035,2.035,0,0,0,.8-1.66,1.81,1.81,0,0,0-.8-1.562,3.578,3.578,0,0,0-2.109-.566,13.742,13.742,0,0,0-3.535.488.245.245,0,0,0-.2.254q.02.527.049,1.377t.039,1.387q.01.537.01.811A3.938,3.938,0,0,1,7.979.215,1.957,1.957,0,0,1,6.367.9,5,5,0,0,1,4.3.41,5.345,5.345,0,0,1,2.451-.967,2.836,2.836,0,0,1,1.68-2.852,3.536,3.536,0,0,1,2.891-5.3,10.229,10.229,0,0,1,5.938-7.363a.277.277,0,0,0,.176-.273q-.02-.391-.02-1.191v-1.465a.157.157,0,0,0-.059-.127.207.207,0,0,0-.137-.049q-.566.02-.859.02-.879,0-1.562-.02a1.206,1.206,0,0,1-.859-.391,1.259,1.259,0,0,1-.352-.9,1.028,1.028,0,0,1,.332-.781,1.118,1.118,0,0,1,.762-.293h.078q.7.059,1.543.059.332,0,.938-.039a.193.193,0,0,0,.215-.2V-14.9a1.275,1.275,0,0,1,.332-.879,1.155,1.155,0,0,1,.9-.391,1.215,1.215,0,0,1,.918.391,1.269,1.269,0,0,1,.313.84v.117q-.02.215-.039.371-.02.508-.039,1.211a.136.136,0,0,0,.039.137.136.136,0,0,0,.137.039q1.191-.176,2.246-.41a1.423,1.423,0,0,1,.234-.02,1.018,1.018,0,0,1,.605.2.947.947,0,0,1,.391.8,1.425,1.425,0,0,1-.312.918,1.447,1.447,0,0,1-.879.527q-1.016.176-2.363.352a.193.193,0,0,0-.2.215Q8.4-9.941,8.4-8.906Zm5.879-2.676a1.073,1.073,0,0,1-.547-.664,1.284,1.284,0,0,1-.039-.312,1.063,1.063,0,0,1,.137-.508,1.145,1.145,0,0,1,.684-.547,1.051,1.051,0,0,1,.332-.059,1.1,1.1,0,0,1,.527.137q1.562.82,2.871,1.621a1.207,1.207,0,0,1,.547.762,2.074,2.074,0,0,1,.02.293,1.265,1.265,0,0,1-.176.625,1.017,1.017,0,0,1-.684.488,1.7,1.7,0,0,1-.234.02,1.107,1.107,0,0,1-.625-.2A31.654,31.654,0,0,0,14.277-11.582ZM27.051-14.16a.173.173,0,0,0-.2-.2H24.2a.173.173,0,0,0-.2.2v.684a.173.173,0,0,0,.2.2h2.656a.173.173,0,0,0,.2-.2ZM24-10.742a.173.173,0,0,0,.2.2h2.656a.173.173,0,0,0,.2-.2v-.742a.173.173,0,0,0-.2-.2H24.2a.173.173,0,0,0-.2.2Zm5.273.313a1.637,1.637,0,0,1-.5,1.2,1.637,1.637,0,0,1-1.2.5H24.2a.173.173,0,0,0-.2.2v9.1a1.114,1.114,0,0,1-.352.83,1.163,1.163,0,0,1-.84.342,1.13,1.13,0,0,1-.83-.342,1.13,1.13,0,0,1-.342-.83V-14.473a1.637,1.637,0,0,1,.5-1.2,1.637,1.637,0,0,1,1.2-.5h4.238a1.637,1.637,0,0,1,1.2.5,1.637,1.637,0,0,1,.5,1.2Zm2.3,5.234a.173.173,0,0,0-.2-.2h-2.91a.173.173,0,0,0-.2.2v1.953a.173.173,0,0,0,.2.2h2.91a.173.173,0,0,0,.2-.2Zm2.227,2.422a1.637,1.637,0,0,1-.5,1.2,1.637,1.637,0,0,1-1.2.5H28.4a.1.1,0,0,0-.117.117.959.959,0,0,1-.293.7.959.959,0,0,1-.7.293h-.117a1.085,1.085,0,0,1-.781-.322,1.059,1.059,0,0,1-.332-.791v-4.59a1.637,1.637,0,0,1,.5-1.2,1.637,1.637,0,0,1,1.2-.5h4.355a1.637,1.637,0,0,1,1.2.5,1.637,1.637,0,0,1,.5,1.2Zm-.879-7.949a.173.173,0,0,0,.2.2h2.754a.173.173,0,0,0,.2-.2v-.762a.173.173,0,0,0-.2-.2H33.125a.173.173,0,0,0-.2.2Zm3.145-3.457a.173.173,0,0,0-.2-.2H33.125a.173.173,0,0,0-.2.2v.7a.173.173,0,0,0,.2.2h2.754a.173.173,0,0,0,.2-.2Zm.723-1.992a1.637,1.637,0,0,1,1.2.5,1.637,1.637,0,0,1,.5,1.2V-1.094A3.893,3.893,0,0,1,38.252.449a1.686,1.686,0,0,1-.869.84,7.329,7.329,0,0,1-2.637.43h-.039a1.449,1.449,0,0,1-.937-.332,2.008,2.008,0,0,1-.625-.9A1.211,1.211,0,0,1,33.105.2a.868.868,0,0,1,.156-.488.752.752,0,0,1,.664-.352h.723q.547,0,.918-.02a.572.572,0,0,0,.391-.107.472.472,0,0,0,.117-.361V-8.516a.173.173,0,0,0-.2-.2H32.363a1.637,1.637,0,0,1-1.2-.5,1.637,1.637,0,0,1-.5-1.2v-4.062a1.637,1.637,0,0,1,.5-1.2,1.637,1.637,0,0,1,1.2-.5Zm5.527,3.359a1.46,1.46,0,0,1,.391-1.016,1.3,1.3,0,0,1,.977-.43h.02a1.24,1.24,0,0,1,1,.469,1.328,1.328,0,0,1,.352.918.433.433,0,0,1-.02.137q-.039.547-.039.9v.859q0,1.836.117,3.34.469,4.8,2.129,4.8.84,0,1.66-2.383a.845.845,0,0,1,.645-.586.994.994,0,0,1,.2-.02.721.721,0,0,1,.586.293,2.643,2.643,0,0,1,.586,1.27,1.987,1.987,0,0,1,.039.391,2.318,2.318,0,0,1-.215.977,7.634,7.634,0,0,1-1.67,2.48,2.8,2.8,0,0,1-1.885.742,3.61,3.61,0,0,1-3-1.748,11.848,11.848,0,0,1-1.631-5.518q-.215-2.227-.215-5.352Zm11.094.9a1,1,0,0,1-.176-.547,1.533,1.533,0,0,1,.039-.332.937.937,0,0,1,.605-.605,1.843,1.843,0,0,1,.586-.1,1.982,1.982,0,0,1,.547.078,1.649,1.649,0,0,1,.879.684,19.023,19.023,0,0,1,1.641,3.623A26.055,26.055,0,0,1,58.594-5.1a2.369,2.369,0,0,1,.02.293,1.608,1.608,0,0,1-.254.859,1.684,1.684,0,0,1-.918.742,1.045,1.045,0,0,1-.391.078,1.094,1.094,0,0,1-.547-.156,1.079,1.079,0,0,1-.527-.8A20.051,20.051,0,0,0,53.418-11.914ZM73.984-4.141a.173.173,0,0,0-.2-.2H66.27a.173.173,0,0,0-.2.2V-1.27a.173.173,0,0,0,.2.2h7.52a.173.173,0,0,0,.2-.2ZM64.9,1.758a1.14,1.14,0,0,1-.82-.342,1.114,1.114,0,0,1-.352-.83V-4.746a1.637,1.637,0,0,1,.5-1.2,1.637,1.637,0,0,1,1.2-.5h9.3a1.637,1.637,0,0,1,1.2.5,1.637,1.637,0,0,1,.5,1.2V.547a1.153,1.153,0,0,1-.361.859,1.2,1.2,0,0,1-.869.352h-.547a.639.639,0,0,1-.469-.2.639.639,0,0,1-.2-.469.069.069,0,0,0-.078-.078H66.152a.069.069,0,0,0-.078.078.639.639,0,0,1-.2.469.639.639,0,0,1-.469.2Zm1.211-12.4a.064.064,0,0,0-.02.078.063.063,0,0,0,.059.039h7.7a.063.063,0,0,0,.059-.039.064.064,0,0,0-.02-.078,21.486,21.486,0,0,1-3.828-3.77.131.131,0,0,0-.117-.059.131.131,0,0,0-.117.059A19.725,19.725,0,0,1,66.113-10.645Zm1.8-5.254a2.306,2.306,0,0,1,1.914-1.016,2.423,2.423,0,0,1,1.973.977,19.734,19.734,0,0,0,3.066,3.057,19.978,19.978,0,0,0,3.555,2.295,1.009,1.009,0,0,1,.547.7A.928.928,0,0,1,79-9.629a.957.957,0,0,1-.215.605,1.487,1.487,0,0,1-.859.605,1.106,1.106,0,0,1-.352.059,1.3,1.3,0,0,1-.645-.176q-.879-.527-1.8-1.172a.064.064,0,0,0-.078-.02.079.079,0,0,0-.039.078,1.185,1.185,0,0,1-.361.869,1.185,1.185,0,0,1-.869.361h-7.48a1.2,1.2,0,0,1-.879-.371,1.2,1.2,0,0,1-.371-.879.084.084,0,0,0-.039-.068.054.054,0,0,0-.078.01q-.9.645-1.914,1.25A1.265,1.265,0,0,1,62.4-8.3a1.284,1.284,0,0,1-.312-.039,1.478,1.478,0,0,1-.82-.527,1.038,1.038,0,0,1-.215-.625.994.994,0,0,1,.02-.2.906.906,0,0,1,.469-.684,21.483,21.483,0,0,0,3.545-2.549A21.28,21.28,0,0,0,67.91-15.9Zm19.961,2.539a.262.262,0,0,0,.059.215,1.4,1.4,0,0,1,.313.9,1.421,1.421,0,0,1-.254.82q-.137.2-.312.469a.8.8,0,0,0-.117.352v.2a.076.076,0,0,0,.049.078.1.1,0,0,0,.088,0,9.449,9.449,0,0,1,5.664-1.953,5.438,5.438,0,0,1,3.9,1.494,5.083,5.083,0,0,1,1.572,3.857A6.529,6.529,0,0,1,97.295-2.48,9.229,9.229,0,0,1,92.7.137a1.559,1.559,0,0,1-.41.059A1.589,1.589,0,0,1,91.6.039a1.831,1.831,0,0,1-.8-.8,1.031,1.031,0,0,1-.1-.43,1.04,1.04,0,0,1,.117-.469,1.07,1.07,0,0,1,.7-.566q4.648-1.133,4.648-4.766a2.807,2.807,0,0,0-.889-2.08,3.169,3.169,0,0,0-2.314-.869,8.2,8.2,0,0,0-5.488,2.4.53.53,0,0,0-.156.332q-.02.938-.02,1.445,0,3.281.117,5.137v.176a.321.321,0,0,1,.02.1,1.181,1.181,0,0,1-.332.84,1.189,1.189,0,0,1-.918.41,1.215,1.215,0,0,1-.918-.391A1.382,1.382,0,0,1,84.9-.449V-.566q.02-.781.039-2.109t.039-2.051a.046.046,0,0,0-.039-.049.11.11,0,0,0-.078.01q-.84,1.289-1.621,2.4a.866.866,0,0,1-.762.41.914.914,0,0,1-.781-.41,1.722,1.722,0,0,1-.332-1.016,1.761,1.761,0,0,1,.391-1.133q1.953-2.48,3.3-4.453a.8.8,0,0,0,.117-.352l.059-1a.157.157,0,0,0-.059-.127.147.147,0,0,0-.137-.029L82.91-10.2h-.176a1.216,1.216,0,0,1-.762-.273,1.112,1.112,0,0,1-.449-.84v-.117a1.118,1.118,0,0,1,.293-.762,1.206,1.206,0,0,1,.859-.391q.215,0,.449-.02.8-.059,2.09-.234a.209.209,0,0,0,.2-.215q.078-1.25.078-1.328v-.312a1.46,1.46,0,0,1,.391-1.016,1.279,1.279,0,0,1,.938-.391h.039a1.111,1.111,0,0,1,.918.449,1.216,1.216,0,0,1,.293.8,1.315,1.315,0,0,1-.02.215Q87.969-14.043,87.871-13.359Zm24.824-1a1.25,1.25,0,0,1,.332-.859,1.168,1.168,0,0,1,.9-.41,1.168,1.168,0,0,1,.9.41,1.25,1.25,0,0,1,.332.859v.078a3.181,3.181,0,0,1-.02.352q-.02.957-.059,1.953a.157.157,0,0,0,.059.127.207.207,0,0,0,.137.049q.918-.059,1.309-.078.137-.02.684-.059h.1a1.118,1.118,0,0,1,.762.293,1.146,1.146,0,0,1,.352.84,1.169,1.169,0,0,1-.352.859,1.24,1.24,0,0,1-.859.371q-.41,0-.7.02-1.074.039-1.328.059a.193.193,0,0,0-.2.215,31.939,31.939,0,0,1-.293,3.75,1.6,1.6,0,0,1-.547,1.035,2.05,2.05,0,0,1-1.172.273,17.586,17.586,0,0,1-1.914-.156,1.2,1.2,0,0,1-.762-.41,1.191,1.191,0,0,1-.273-.781v-.039a.87.87,0,0,1,.332-.7.933.933,0,0,1,.625-.234.574.574,0,0,1,.137.02,6.762,6.762,0,0,0,.742.059.864.864,0,0,0,.449-.088.488.488,0,0,0,.176-.361,20.631,20.631,0,0,0,.137-2.187.187.187,0,0,0-.059-.137.136.136,0,0,0-.137-.039q-2.539.2-4.98.449a.2.2,0,0,0-.2.234q-.02,1.66-.02,2.715,0,1.133.02,1.563.02.547.049.85a2.412,2.412,0,0,0,.146.615.957.957,0,0,0,.3.449,2.123,2.123,0,0,0,.557.264,3.555,3.555,0,0,0,.869.166q.5.039,1.279.039a35.8,35.8,0,0,0,4.57-.312.642.642,0,0,1,.156-.02,1.118,1.118,0,0,1,.762.293,1.057,1.057,0,0,1,.371.82v.059a1.518,1.518,0,0,1-.42,1.016,1.433,1.433,0,0,1-.986.469q-2.324.2-4.277.2-1.309,0-2.217-.088A6.2,6.2,0,0,1,106.9.166a3.984,3.984,0,0,1-1.045-.547,2.005,2.005,0,0,1-.615-.859,4.7,4.7,0,0,1-.3-1.152,14.547,14.547,0,0,1-.1-1.533q-.02-.84-.02-4.414a.187.187,0,0,0-.059-.137.136.136,0,0,0-.137-.039l-1.152.117q-.352.039-1.113.156a.994.994,0,0,1-.2.02,1.192,1.192,0,0,1-.742-.254,1.112,1.112,0,0,1-.449-.84.433.433,0,0,1-.02-.137,1.167,1.167,0,0,1,.293-.762,1.281,1.281,0,0,1,.859-.41q.605-.02,1.211-.078l1.309-.117a.193.193,0,0,0,.2-.215v-1.8q0-.43-.02-.82v-.078a1.347,1.347,0,0,1,.332-.9,1.189,1.189,0,0,1,.918-.41,1.21,1.21,0,0,1,.938.41,1.353,1.353,0,0,1,.352.938v.7q0,1.016-.02,1.719a.157.157,0,0,0,.059.127.207.207,0,0,0,.137.049q2.891-.273,5-.469a.193.193,0,0,0,.2-.215v-2.051Z" transform="translate(-1.68 16.914)" fill="#4e9174"/>
</svg>
