<svg xmlns="http://www.w3.org/2000/svg" width="78.125" height="18.691" viewBox="0 0 78.125 18.691">
  <path id="パス_6888" data-name="パス 6888" d="M6.973-12.832a.147.147,0,0,0-.029-.137.157.157,0,0,0-.127-.059H4.2a.109.109,0,0,0-.107.059.148.148,0,0,0-.01.117,7.935,7.935,0,0,1,.41,1.113,1.8,1.8,0,0,1,.02.254.856.856,0,0,1-.137.469.978.978,0,0,1-.586.449q-.02,0-.01.01l.01.01H7.461q.02,0,.02-.01t-.02-.01a1,1,0,0,1-.684-.508,1.063,1.063,0,0,1-.137-.508,1.166,1.166,0,0,1,.059-.371A7.4,7.4,0,0,0,6.973-12.832ZM6.836-5.039a.069.069,0,0,0-.078.078.131.131,0,0,0,.059.117q.566.41,1.914,1.465a.966.966,0,0,1,.41.723.574.574,0,0,1,.02.137.986.986,0,0,1-.254.664.85.85,0,0,1-.684.332L8.2-1.5a.921.921,0,0,1-.713-.312q-.283-.312-.6-.605a.076.076,0,0,0-.088-.02.076.076,0,0,0-.049.078V.547a1.114,1.114,0,0,1-.332.82,1.1,1.1,0,0,1-.811.332,1.135,1.135,0,0,1-.82-.332,1.1,1.1,0,0,1-.342-.82V-2.129a.046.046,0,0,0-.039-.049.058.058,0,0,0-.059.01A16.686,16.686,0,0,1,2.773-.273.981.981,0,0,1,2.09.02.369.369,0,0,1,1.973,0a1.119,1.119,0,0,1-.762-.391.994.994,0,0,1-.273-.7,1,1,0,0,1,.352-.781A13.115,13.115,0,0,0,3.867-4.883a.077.077,0,0,0,.01-.1.094.094,0,0,0-.088-.059H1.934a.959.959,0,0,1-.7-.293.959.959,0,0,1-.293-.7.959.959,0,0,1,.293-.7.959.959,0,0,1,.7-.293H4.258a.173.173,0,0,0,.2-.2V-8.379a.173.173,0,0,0-.2-.2h-2.4a.927.927,0,0,1-.693-.293.964.964,0,0,1-.283-.693.964.964,0,0,1,.283-.693.927.927,0,0,1,.693-.293h.684a.184.184,0,0,0,.117-.049.116.116,0,0,0,.039-.127q-.078-.449-.215-.957a1.284,1.284,0,0,1-.039-.312,1.063,1.063,0,0,1,.137-.508.945.945,0,0,1,.645-.488v-.02a.017.017,0,0,0-.02-.02H2.07a.943.943,0,0,1-.693-.283.931.931,0,0,1-.283-.684.931.931,0,0,1,.283-.684.943.943,0,0,1,.693-.283H4.277q.176,0,.176-.2v-.469a1.1,1.1,0,0,1,.342-.82,1.135,1.135,0,0,1,.82-.332,1.1,1.1,0,0,1,.811.332,1.114,1.114,0,0,1,.332.82v.469a.173.173,0,0,0,.2.2H9.1a.943.943,0,0,1,.693.283.931.931,0,0,1,.283.684.931.931,0,0,1-.283.684.943.943,0,0,1-.693.283H8.145q-.02,0-.02.01t.02.029a.764.764,0,0,1,.586.43.785.785,0,0,1,.117.41.819.819,0,0,1-.078.332q-.293.723-.469,1.094a.164.164,0,0,0,.01.127.115.115,0,0,0,.107.049h.84a.927.927,0,0,1,.693.293.964.964,0,0,1,.283.693.964.964,0,0,1-.283.693.927.927,0,0,1-.693.293h-2.3a.173.173,0,0,0-.2.2v1.152a.173.173,0,0,0,.2.2H9.063a.959.959,0,0,1,.7.293.959.959,0,0,1,.293.7.959.959,0,0,1-.293.7.959.959,0,0,1-.7.293Zm11.387-5.312a1.053,1.053,0,0,1,.771.322,1.053,1.053,0,0,1,.322.771,1.053,1.053,0,0,1-.322.771,1.053,1.053,0,0,1-.771.322h-.605a.173.173,0,0,0-.2.2V.469a1.108,1.108,0,0,1-.342.811,1.132,1.132,0,0,1-1.621,0,1.108,1.108,0,0,1-.342-.811V-7.969a.173.173,0,0,0-.2-.2H13.281a.173.173,0,0,0-.2.2Q13.008-2.227,10.762.879a.87.87,0,0,1-.7.332h-.02a1.134,1.134,0,0,1-.8-.332A1.19,1.19,0,0,1,8.848.1a.905.905,0,0,1-.02-.176,1.181,1.181,0,0,1,.215-.684,8.74,8.74,0,0,0,1.445-3.467,23.252,23.252,0,0,0,.352-4.209v-5.645a.928.928,0,0,1,.391-.781.989.989,0,0,1,.586-.2,1.1,1.1,0,0,1,.283.039.523.523,0,0,0,.283,0,27.742,27.742,0,0,0,3.77-1.172,1.933,1.933,0,0,1,.8-.176,2.517,2.517,0,0,1,.313.02,1.92,1.92,0,0,1,1,.469.779.779,0,0,1,.273.586v.176a.7.7,0,0,1-.508.586A36.187,36.187,0,0,1,13.281-13.2a.217.217,0,0,0-.2.234v2.422a.173.173,0,0,0,.2.2ZM34.629-5.176a.173.173,0,0,0-.2-.2h-6.6a.173.173,0,0,0-.2.2v.313a.173.173,0,0,0,.2.2h6.6a.173.173,0,0,0,.2-.2ZM27.637-.762a.173.173,0,0,0,.2.2h6.6a.173.173,0,0,0,.2-.2v-.352a.173.173,0,0,0-.2-.2h-6.6a.173.173,0,0,0-.2.2Zm6.8-1.855a.173.173,0,0,0,.2-.2v-.332a.173.173,0,0,0-.2-.2h-6.6a.173.173,0,0,0-.2.2v.332a.173.173,0,0,0,.2.2Zm4.121-6.836a.9.9,0,0,1,.273.664.9.9,0,0,1-.273.664.9.9,0,0,1-.664.273H27.773a.242.242,0,0,0-.254.176q-.1.234-.176.43a.129.129,0,0,0,0,.137.131.131,0,0,0,.117.059H35.41a1.654,1.654,0,0,1,1.2.488,1.628,1.628,0,0,1,.5,1.211V.469a1.17,1.17,0,0,1-.371.869,1.217,1.217,0,0,1-.879.361h-.723a.476.476,0,0,1-.361-.156.524.524,0,0,1-.146-.371q0-.059-.078-.059H27.7a.052.052,0,0,0-.059.059.524.524,0,0,1-.146.371.476.476,0,0,1-.361.156h-.684a1.146,1.146,0,0,1-.84-.352,1.146,1.146,0,0,1-.352-.84V-3.4q0-.059-.039-.068a.081.081,0,0,0-.078.029A14.776,14.776,0,0,1,23.2-1.348a1.22,1.22,0,0,1-.8.313h-.137a1.533,1.533,0,0,1-.9-.43,1.014,1.014,0,0,1-.312-.742,1,1,0,0,1,.41-.84,12.319,12.319,0,0,0,3.477-4.629.148.148,0,0,0-.01-.117.109.109,0,0,0-.107-.059H22.109a.9.9,0,0,1-.664-.273.9.9,0,0,1-.273-.664.9.9,0,0,1,.273-.664.9.9,0,0,1,.664-.273h6.465a.173.173,0,0,0,.2-.2v-.469a.173.173,0,0,0-.2-.2H23.945a.834.834,0,0,1-.615-.244.822.822,0,0,1-.244-.605.855.855,0,0,1,.244-.615.818.818,0,0,1,.615-.254h4.629a.173.173,0,0,0,.2-.2v-.449a.173.173,0,0,0-.2-.2H23.008a.921.921,0,0,1-.664-.264.861.861,0,0,1-.273-.645.893.893,0,0,1,.273-.654.9.9,0,0,1,.664-.273h2.246a.1.1,0,0,0,.088-.049.088.088,0,0,0,.01-.088q-.1-.156-.176-.293a.925.925,0,0,1-.117-.449,1.211,1.211,0,0,1,.039-.293.761.761,0,0,1,.508-.488,1.406,1.406,0,0,1,.508-.1,1.475,1.475,0,0,1,.469.078,1.309,1.309,0,0,1,.762.547,6.258,6.258,0,0,1,.566,1,.093.093,0,0,1-.059.137h4.375q-.117-.039-.059-.156.273-.41.508-.84a1.512,1.512,0,0,1,.664-.645,1.252,1.252,0,0,1,.566-.137,1.284,1.284,0,0,1,.313.039l.215.039a.837.837,0,0,1,.625.566,1.062,1.062,0,0,1,.039.293.778.778,0,0,1-.2.508l-.156.2a.076.076,0,0,0-.02.088.076.076,0,0,0,.078.049h2.3a.882.882,0,0,1,.645.273.893.893,0,0,1,.273.654.861.861,0,0,1-.273.645.9.9,0,0,1-.645.264H31.367a.173.173,0,0,0-.2.2v.449a.173.173,0,0,0,.2.2h4.746a.818.818,0,0,1,.615.254.855.855,0,0,1,.244.615.822.822,0,0,1-.244.605.834.834,0,0,1-.615.244H31.367a.173.173,0,0,0-.2.2v.469a.173.173,0,0,0,.2.2h6.523A.9.9,0,0,1,38.555-9.453Zm3.77,1.367a.78.78,0,0,1-.391.547.867.867,0,0,1-.391.1.991.991,0,0,1-.273-.039.976.976,0,0,1-.547-.469,1.04,1.04,0,0,1-.117-.469,1.423,1.423,0,0,1,.02-.234,25.9,25.9,0,0,0,.527-3.5.833.833,0,0,1,.293-.566.829.829,0,0,1,.508-.176h.1a.863.863,0,0,1,.605.332.808.808,0,0,1,.215.566A19.569,19.569,0,0,1,42.324-8.086Zm7.4,5.02a.173.173,0,0,0,.2.2h5.586a.173.173,0,0,0,.2-.2v-.547a.173.173,0,0,0-.2-.2H49.922a.173.173,0,0,0-.2.2ZM55.7-6.23a.173.173,0,0,0-.2-.2H49.922a.173.173,0,0,0-.2.2v.547a.173.173,0,0,0,.2.2h5.586a.173.173,0,0,0,.2-.2Zm.547-1.934a1.637,1.637,0,0,1,1.2.5,1.637,1.637,0,0,1,.5,1.2V-.547a3.068,3.068,0,0,1-.205,1.26,1.385,1.385,0,0,1-.732.674A5.324,5.324,0,0,1,55,1.719h-.02a1.143,1.143,0,0,1-.781-.293,1.471,1.471,0,0,1-.508-.742.737.737,0,0,1-.039-.234.7.7,0,0,1,.137-.41.639.639,0,0,1,.566-.293h.957a.457.457,0,0,0,.3-.078A.324.324,0,0,0,55.7-.586v-.449a.173.173,0,0,0-.2-.2H49.922a.173.173,0,0,0-.2.2v1.7a1.053,1.053,0,0,1-.322.771,1.108,1.108,0,0,1-1.562,0A1.053,1.053,0,0,1,47.52.664V-6.465a1.637,1.637,0,0,1,.5-1.2,1.637,1.637,0,0,1,1.2-.5Zm-2.4-2.656a.173.173,0,0,0,.2.2h4.395a.8.8,0,0,1,.6.254.843.843,0,0,1,.244.605.811.811,0,0,1-.244.6.811.811,0,0,1-.6.244H47.031a.843.843,0,0,1-.605-.244.8.8,0,0,1-.254-.6.827.827,0,0,1,.254-.605.827.827,0,0,1,.605-.254h4.258a.173.173,0,0,0,.2-.2v-.469a.173.173,0,0,0-.2-.2H47.344v.02q.039.078-.059.137L46.6-11a.693.693,0,0,1-.312.078A.581.581,0,0,1,46-11a.7.7,0,0,1-.41-.449q-.2-.605-.43-1.191-.02-.039-.049-.029a.045.045,0,0,0-.029.049V.645a1.037,1.037,0,0,1-.312.762,1.061,1.061,0,0,1-1.5,0,1.037,1.037,0,0,1-.312-.762V-15.879a1.014,1.014,0,0,1,.313-.742,1.025,1.025,0,0,1,.752-.312,1.025,1.025,0,0,1,.752.313,1.014,1.014,0,0,1,.313.742v2.012a.084.084,0,0,0,.039.068.07.07,0,0,0,.078.01,1.167,1.167,0,0,1,.449-.1,1.094,1.094,0,0,1,.41.078,1.063,1.063,0,0,1,.625.605q.371.859.605,1.543a.056.056,0,0,0,.039.02.017.017,0,0,0,.02-.02,1.389,1.389,0,0,1,.41-1.006,1.34,1.34,0,0,1,1-.42h2.539a.173.173,0,0,0,.2-.2v-.41a.173.173,0,0,0-.2-.2H47.656a.843.843,0,0,1-.605-.244.8.8,0,0,1-.254-.6.827.827,0,0,1,.254-.605.827.827,0,0,1,.605-.254h3.691a.121.121,0,0,0,.137-.137v-.039a1.13,1.13,0,0,1,.342-.83,1.13,1.13,0,0,1,.83-.342,1.163,1.163,0,0,1,.84.342,1.114,1.114,0,0,1,.352.83v.039a.121.121,0,0,0,.137.137h3.848a.8.8,0,0,1,.6.254.843.843,0,0,1,.244.605.811.811,0,0,1-.244.6.811.811,0,0,1-.6.244H54.043a.173.173,0,0,0-.2.2v.41a.173.173,0,0,0,.2.2h3.3a.772.772,0,0,1,.566.234.772.772,0,0,1,.234.566.772.772,0,0,1-.234.566.772.772,0,0,1-.566.234h-3.3a.173.173,0,0,0-.2.2ZM66.719-7.5v-.02a.5.5,0,0,1-.342-.273.567.567,0,0,1-.029-.449q.273-.8.449-1.387a.147.147,0,0,0-.029-.137.157.157,0,0,0-.127-.059H64a.131.131,0,0,0-.117.059.1.1,0,0,0,0,.117,8.835,8.835,0,0,1,.488,1.387.577.577,0,0,1-.068.449.644.644,0,0,1-.381.293v.02Zm-.1-5.7a.173.173,0,0,0-.2.2v1a.173.173,0,0,0,.2.2H68.77a.959.959,0,0,1,.7.293.959.959,0,0,1,.293.7.959.959,0,0,1-.293.7.959.959,0,0,1-.7.293h-.586q-.02,0-.02.01t.02.01a.588.588,0,0,1,.391.332.628.628,0,0,1,.02.508q-.566,1.309-.566,1.328a.088.088,0,0,0,.01.088.082.082,0,0,0,.068.049h.352a.959.959,0,0,1,.7.293.959.959,0,0,1,.293.7.959.959,0,0,1-.293.7.959.959,0,0,1-.7.293H66.621a.173.173,0,0,0-.2.2V-4.16a.173.173,0,0,0,.2.2h1.621a.959.959,0,0,1,.7.293.97.97,0,0,1,.293.713.97.97,0,0,1-.293.713.959.959,0,0,1-.7.293H66.621a.173.173,0,0,0-.2.2V.586a1.053,1.053,0,0,1-.322.771,1.108,1.108,0,0,1-1.562,0,1.053,1.053,0,0,1-.322-.771V-1.758a.173.173,0,0,0-.2-.2H62.246a.982.982,0,0,1-.723-.293.97.97,0,0,1-.293-.713.97.97,0,0,1,.293-.713.982.982,0,0,1,.723-.293h1.777a.173.173,0,0,0,.2-.2V-5.312a.173.173,0,0,0-.2-.2H62.07a.959.959,0,0,1-.7-.293.959.959,0,0,1-.293-.7.959.959,0,0,1,.293-.7.959.959,0,0,1,.7-.293h.352a.12.12,0,0,0,.1-.049.168.168,0,0,0,.039-.107,11.078,11.078,0,0,0-.391-1.367.581.581,0,0,1,.02-.488.53.53,0,0,1,.371-.293q.02,0,.01-.01l-.01-.01h-.9a.959.959,0,0,1-.7-.293.959.959,0,0,1-.293-.7.959.959,0,0,1,.293-.7.959.959,0,0,1,.7-.293h2.363a.173.173,0,0,0,.2-.2v-1a.173.173,0,0,0-.2-.2h-1.68a.943.943,0,0,1-.693-.283.943.943,0,0,1-.283-.693.943.943,0,0,1,.283-.693.943.943,0,0,1,.693-.283h1.7a.155.155,0,0,0,.176-.176V-15.8a1.053,1.053,0,0,1,.322-.771,1.064,1.064,0,0,1,.781-.322,1.064,1.064,0,0,1,.781.322,1.053,1.053,0,0,1,.322.771v.469a.155.155,0,0,0,.176.176h1.445a.953.953,0,0,1,.684.283.927.927,0,0,1,.293.693.927.927,0,0,1-.293.693.953.953,0,0,1-.684.283Zm5.723,6.855q-.02-.039-.039-.029a.031.031,0,0,0-.02.029V-.371a.076.076,0,0,0,.049.078.076.076,0,0,0,.088-.02,10.159,10.159,0,0,0,1.66-1.758.255.255,0,0,0,.02-.312A20.144,20.144,0,0,1,72.344-6.348Zm4.063-.82a.241.241,0,0,0-.039-.137.131.131,0,0,0-.117-.059H74.16a.131.131,0,0,0-.117.059.164.164,0,0,0-.02.137,15.234,15.234,0,0,0,1.25,2.734.115.115,0,0,0,.1.059.115.115,0,0,0,.1-.059A15.37,15.37,0,0,0,76.406-7.168Zm.742-2.09a1.062,1.062,0,0,1,.293-.039,1.094,1.094,0,0,1,.41.078l.352.137a.821.821,0,0,1,.479.381.838.838,0,0,1,.107.6A19.574,19.574,0,0,1,76.914-2.48a.267.267,0,0,0,.039.332,11.266,11.266,0,0,0,1.6,1.406.967.967,0,0,1,.43.7A.642.642,0,0,1,79,.117a.963.963,0,0,1-.254.645,1.3,1.3,0,0,1-.8.508,1.423,1.423,0,0,1-.234.02,1.152,1.152,0,0,1-.664-.215A12.579,12.579,0,0,1,75.684-.215q-.117-.137-.254,0A8.823,8.823,0,0,1,74.512.82a1.3,1.3,0,0,1-.9.352.642.642,0,0,1-.156-.02A1.8,1.8,0,0,1,72.4.664q-.02-.039-.039-.039a.044.044,0,0,0-.049-.01.045.045,0,0,0-.029.049,1.014,1.014,0,0,1-.312.742,1.014,1.014,0,0,1-.742.313h-.039a1.046,1.046,0,0,1-.752-.312,1.021,1.021,0,0,1-.322-.762V-14.395a1.637,1.637,0,0,1,.5-1.2,1.637,1.637,0,0,1,1.2-.5h4.941a1.637,1.637,0,0,1,1.2.5,1.637,1.637,0,0,1,.5,1.2v2.051a2.955,2.955,0,0,1-.215,1.25,1.341,1.341,0,0,1-.781.664,6.044,6.044,0,0,1-2.227.332H75.2a1.242,1.242,0,0,1-.781-.273,1.593,1.593,0,0,1-.527-.742.991.991,0,0,1-.039-.273.7.7,0,0,1,.137-.41.639.639,0,0,1,.566-.293q.605.02,1.309.02a.639.639,0,0,0,.322-.088.267.267,0,0,0,.088-.225v-1.445a.173.173,0,0,0-.2-.2H72.48a.173.173,0,0,0-.2.2v4.395a.173.173,0,0,0,.2.2h4.57A.217.217,0,0,0,77.148-9.258Z" transform="translate(-0.879 16.934)" fill="#4e9174"/>
</svg>
