<svg xmlns="http://www.w3.org/2000/svg" width="116.289" height="18.457" viewBox="0 0 116.289 18.457">
  <path id="パス_6894" data-name="パス 6894" d="M8.887-3.184q0-.293-.02-.488a.193.193,0,0,0-.2-.215A10.072,10.072,0,0,0,7.227-4a3.765,3.765,0,0,0-1.807.361,1.11,1.11,0,0,0-.654,1.006q0,1.328,2.383,1.328a1.74,1.74,0,0,0,1.338-.439A2.1,2.1,0,0,0,8.887-3.184Zm7.48.02a1.508,1.508,0,0,1,.566.977,1.423,1.423,0,0,1,.02.234,1.556,1.556,0,0,1-.273.879,1.092,1.092,0,0,1-.84.508.642.642,0,0,1-.156.02,1.216,1.216,0,0,1-.8-.293,13.756,13.756,0,0,0-3.164-2.07.1.1,0,0,0-.117,0,.115.115,0,0,0-.059.1,4.691,4.691,0,0,1,.02.488,3.794,3.794,0,0,1-.205,1.279A3.2,3.2,0,0,1,10.7.029,2.974,2.974,0,0,1,9.395.811a6.583,6.583,0,0,1-2.051.283A9.981,9.981,0,0,1,5.332.908a5.525,5.525,0,0,1-1.621-.6A2.824,2.824,0,0,1,2.6-.82a3.521,3.521,0,0,1-.391-1.7A3.178,3.178,0,0,1,3.594-5.176a6.612,6.612,0,0,1,4-1.035q.508,0,1,.039a.172.172,0,0,0,.127-.049.172.172,0,0,0,.049-.127q-.137-3.34-.137-4.1,0-1.523-.039-3.2l-.02-.937a1.425,1.425,0,0,1,.352-.957,1.244,1.244,0,0,1,.957-.43,1.287,1.287,0,0,1,1,.43,1.382,1.382,0,0,1,.371.957v.1q-.02.371-.059.84v1.23a.187.187,0,0,0,.059.137.187.187,0,0,0,.137.059q2.5-.059,4.16-.2h.1a1.094,1.094,0,0,1,.742.293,1.055,1.055,0,0,1,.391.84,1.2,1.2,0,0,1-.312.82,1.192,1.192,0,0,1-.82.41q-1.719.117-4.258.176-.2,0-.176.2.059,1.8.2,3.828a.273.273,0,0,0,.2.254A15.59,15.59,0,0,1,16.367-3.164Zm14.941-12.09a1.7,1.7,0,0,1,1.074-.508H32.5a1.453,1.453,0,0,1,.977.371,1.224,1.224,0,0,1,.43.938,1.26,1.26,0,0,1-.488,1.035q-.02,0-.527.391-.176.156-2.3,1.846t-2.91,2.354a3.533,3.533,0,0,0-.693.752.515.515,0,0,0,.01.537,3.543,3.543,0,0,0,.723.762q.156.137,2.529,2.09T33.828-1.66A1.375,1.375,0,0,1,34.3-.605,1.436,1.436,0,0,1,33.828.469a1.514,1.514,0,0,1-1.055.41H32.7A1.6,1.6,0,0,1,31.6.371q-.43-.449-.664-.684-1.191-1.27-5.918-5.273a4.122,4.122,0,0,1-1.25-1.523,1.416,1.416,0,0,1-.137-.605,1.7,1.7,0,0,1,.2-.762A5.473,5.473,0,0,1,25.2-9.98q4.414-3.613,5.605-4.785Q31.074-15.02,31.309-15.254ZM49.121-7.93a.225.225,0,0,0-.176.254,21.013,21.013,0,0,0,.2,2.93.077.077,0,0,0,.059.078.079.079,0,0,0,.1-.039,11.25,11.25,0,0,0,2.285-3.437.148.148,0,0,0-.01-.117.109.109,0,0,0-.107-.059A10.025,10.025,0,0,0,49.121-7.93ZM45.156-2.246a4.007,4.007,0,0,0,1.816-.547.222.222,0,0,0,.137-.273,29.645,29.645,0,0,1-.391-3.574.094.094,0,0,0-.059-.088.077.077,0,0,0-.1.01A6.568,6.568,0,0,0,44.883-5a3.33,3.33,0,0,0-.645,1.8Q44.238-2.246,45.156-2.246Zm7.188-8.223a1.034,1.034,0,0,1,.43-.664.942.942,0,0,1,.547-.176,1.1,1.1,0,0,1,.215.02l.449.117a.779.779,0,0,1,.566.41.89.89,0,0,1,.117.43.837.837,0,0,1-.059.293q-.039.1.078.137A5.649,5.649,0,0,1,57.4-8.037a4.681,4.681,0,0,1,1,2.959,6.171,6.171,0,0,1-.283,1.885,5.752,5.752,0,0,1-.889,1.7,5.588,5.588,0,0,1-1.66,1.436,9.132,9.132,0,0,1-2.48.977A1.353,1.353,0,0,1,52.7.977,1.548,1.548,0,0,1,52.031.82a1.785,1.785,0,0,1-.82-.7.785.785,0,0,1-.117-.41.733.733,0,0,1,.078-.332.829.829,0,0,1,.605-.488A5.918,5.918,0,0,0,54.9-2.7a3.581,3.581,0,0,0,1.035-2.5,2.793,2.793,0,0,0-.479-1.592A3.215,3.215,0,0,0,54.082-7.91q-.176-.078-.254.117a15.119,15.119,0,0,1-3.984,5.7.271.271,0,0,0-.078.273,1.385,1.385,0,0,0,.059.176,1.81,1.81,0,0,1,.039.352,1.252,1.252,0,0,1-.137.566,1.065,1.065,0,0,1-.684.566l-.41.117a.758.758,0,0,1-.6-.049.746.746,0,0,1-.381-.459q-.02-.078-.1-.039A6.821,6.821,0,0,1,44.57.176a2.643,2.643,0,0,1-1.924-.732,2.881,2.881,0,0,1-.752-2.158,6.033,6.033,0,0,1,1.328-3.623,9.307,9.307,0,0,1,3.359-2.8.314.314,0,0,0,.2-.273q.1-1.367.156-2.09a.136.136,0,0,0-.039-.137.187.187,0,0,0-.137-.059h-.43q-.8,0-2.363-.078a1.185,1.185,0,0,1-.82-.352,1.2,1.2,0,0,1-.371-.879.926.926,0,0,1,.332-.723A.947.947,0,0,1,43.77-14a.369.369,0,0,1,.117.02q1.484.117,2.52.117h.566a.193.193,0,0,0,.215-.2l.078-.742a1.438,1.438,0,0,1,.449-.918,1.3,1.3,0,0,1,.9-.352h.02a1.037,1.037,0,0,1,.8.41,1.038,1.038,0,0,1,.215.625.8.8,0,0,1-.039.254q-.059.273-.117.664a.147.147,0,0,0,.029.137.157.157,0,0,0,.127.059,36.421,36.421,0,0,0,5.41-.586,1.315,1.315,0,0,1,.215-.02.906.906,0,0,1,.566.2.871.871,0,0,1,.352.723,1.294,1.294,0,0,1-.312.859,1.169,1.169,0,0,1-.8.449,57.228,57.228,0,0,1-5.723.527.217.217,0,0,0-.215.215q-.078.859-.117,1.387a.157.157,0,0,0,.059.127.147.147,0,0,0,.137.029,13.04,13.04,0,0,1,2.754-.312h.215A.142.142,0,0,0,52.344-10.469Zm17.48,9.277a7.408,7.408,0,0,0,.957-.059q.2,0,.176-.215a2.476,2.476,0,0,0-.645-1.4,1.706,1.706,0,0,0-1.27-.518,1.379,1.379,0,0,0-.889.273.824.824,0,0,0-.342.664,1.036,1.036,0,0,0,.566.9A2.7,2.7,0,0,0,69.824-1.191Zm3.281-14.121a1.1,1.1,0,0,1,.215-.02,1.807,1.807,0,0,1,.742.156,1.659,1.659,0,0,1,.762.566,1.018,1.018,0,0,1,.2.605.993.993,0,0,1-.02.2,1.023,1.023,0,0,1-.449.684l-.469.313q-.469.312-1.152.859t-1.777,1.445q-1.094.9-1.309,1.055a.064.064,0,0,0,0,.068q.02.029.039.01a8.014,8.014,0,0,1,1.68-.156,6.4,6.4,0,0,1,4.219,1.406,4.439,4.439,0,0,1,1.7,3.574A5.027,5.027,0,0,1,75.625-.537a8,8,0,0,1-5.312,1.572A6.226,6.226,0,0,1,66.855.146a2.7,2.7,0,0,1-1.367-2.354,2.825,2.825,0,0,1,1.006-2.148,3.636,3.636,0,0,1,2.549-.918,4.286,4.286,0,0,1,2.793.889A3.891,3.891,0,0,1,73.223-2.09a.153.153,0,0,0,.078.107.148.148,0,0,0,.137-.01,2.869,2.869,0,0,0,1.445-2.617,2.52,2.52,0,0,0-1.172-2.139,4.943,4.943,0,0,0-2.93-.83,7.016,7.016,0,0,0-3.32.771,12.033,12.033,0,0,0-2.949,2.295,1.275,1.275,0,0,1-.879.391h-.02a1.2,1.2,0,0,1-.879-.371,1.157,1.157,0,0,1-.332-.82,1.186,1.186,0,0,1,.43-.937q.41-.332,1.924-1.592T66.8-9.531q.273-.234,1.836-1.514T70.8-12.852a.11.11,0,0,0,.01-.078q-.01-.039-.068-.039-2.676.059-4.59.215a3.014,3.014,0,0,0-.332.02h-.1a1.244,1.244,0,0,1-.82-.312,1.11,1.11,0,0,1-.41-.879,1.1,1.1,0,0,1,.361-.83,1.2,1.2,0,0,1,.85-.342h.039q.273.02.527.02.938,0,3.281-.068t3.105-.127ZM85.938-3.945a.173.173,0,0,0-.2.2v.488a.173.173,0,0,0,.2.2h8.281a.173.173,0,0,0,.2-.2V-3.75a.173.173,0,0,0-.2-.2Zm0-2.187a.173.173,0,0,0-.2.2v.469a.173.173,0,0,0,.2.2h8.281a.173.173,0,0,0,.2-.2v-.469a.173.173,0,0,0-.2-.2Zm0-2.227a.173.173,0,0,0-.2.2V-7.7a.173.173,0,0,0,.2.2h8.281a.173.173,0,0,0,.2-.2v-.469a.173.173,0,0,0-.2-.2Zm10.9,5.039a1.637,1.637,0,0,1-.5,1.2,1.637,1.637,0,0,1-1.2.5H93.574q-.02,0-.029.029t.01.029Q95.664-.8,97.734.1a.589.589,0,0,1,.371.566.581.581,0,0,1-.41.586,3.225,3.225,0,0,1-1.152.215,3.452,3.452,0,0,1-1.523-.371Q93.945.566,92.7.039a.78.78,0,0,1-.508-.781.745.745,0,0,1,.41-.684l.156-.1a.047.047,0,0,0,.029-.059.046.046,0,0,0-.049-.039H87.266q-.02,0-.029.029t.029.049l.078.039a.816.816,0,0,1,.527.8.767.767,0,0,1-.449.723,27.987,27.987,0,0,1-3.574,1.426,2.266,2.266,0,0,1-.586.078,2.252,2.252,0,0,1-.508-.059A2.182,2.182,0,0,1,81.8.9a.6.6,0,0,1-.2-.43.523.523,0,0,1,.039-.2A.617.617,0,0,1,82.109-.2,20.119,20.119,0,0,0,86.23-1.543q.02,0,.02-.039a.035.035,0,0,0-.039-.039H85.137a1.637,1.637,0,0,1-1.2-.5,1.637,1.637,0,0,1-.5-1.2V-8.086a1.637,1.637,0,0,1,.5-1.2,1.637,1.637,0,0,1,1.2-.5h4.746a.12.12,0,0,0,.1-.049.084.084,0,0,0,0-.107,3.218,3.218,0,0,0-.273-.352,1.345,1.345,0,0,1-.312-.859,1.453,1.453,0,0,1,.371-.977q.02-.02,0-.068t-.059-.049H88.262a.173.173,0,0,0-.2.2v.84a1.014,1.014,0,0,1-.312.742,1.025,1.025,0,0,1-.752.313,1.025,1.025,0,0,1-.752-.312,1.014,1.014,0,0,1-.312-.742v-.84a.173.173,0,0,0-.2-.2H84.375a.245.245,0,0,0-.254.2,6.771,6.771,0,0,1-1.133,2.344.851.851,0,0,1-.664.313h-.039a1.088,1.088,0,0,1-.742-.332,1.023,1.023,0,0,1-.352-.8,1.115,1.115,0,0,1,.234-.684,5.782,5.782,0,0,0,.977-3.477v-.41a1.055,1.055,0,0,1,.41-.859,1.088,1.088,0,0,1,.664-.234,1.211,1.211,0,0,1,.293.039.846.846,0,0,0,.313.02q1.68-.215,3.027-.527a2.171,2.171,0,0,1,.488-.059,1.653,1.653,0,0,1,1.211.508.5.5,0,0,1,.166.547.533.533,0,0,1-.42.41,28.986,28.986,0,0,1-3.906.586.173.173,0,0,0-.2.2v.313a.207.207,0,0,0,.049.137.157.157,0,0,0,.127.059H88.5a1.389,1.389,0,0,1,1.016.43,1.411,1.411,0,0,1,.43,1.035q0,.02.039.029a.058.058,0,0,0,.059-.01,3.71,3.71,0,0,0,.605-2.187V-15a1.13,1.13,0,0,1,.43-.918,1.139,1.139,0,0,1,.7-.254,1.062,1.062,0,0,1,.293.039.971.971,0,0,0,.332.02,32.119,32.119,0,0,0,3.34-.566,2.847,2.847,0,0,1,.469-.039,1.718,1.718,0,0,1,1.23.508.538.538,0,0,1,.146.557.525.525,0,0,1-.4.4,36.573,36.573,0,0,1-4.3.605.173.173,0,0,0-.2.2v.293a.207.207,0,0,0,.049.137.157.157,0,0,0,.127.059h5.215a.827.827,0,0,1,.605.254.838.838,0,0,1,.254.615.806.806,0,0,1-.254.605.843.843,0,0,1-.605.244H96.621a.173.173,0,0,0-.2.2v.859a1.014,1.014,0,0,1-.312.742,1.025,1.025,0,0,1-.752.313,1.025,1.025,0,0,1-.752-.312,1.014,1.014,0,0,1-.312-.742v-.859a.173.173,0,0,0-.2-.2H92.48a.277.277,0,0,0-.273.2A5.205,5.205,0,0,1,90.469-9.9a.11.11,0,0,0-.01.078.046.046,0,0,0,.049.039h4.629a1.637,1.637,0,0,1,1.2.5,1.637,1.637,0,0,1,.5,1.2Zm10.215-10.84a.173.173,0,0,0-.2-.2H104.2a.173.173,0,0,0-.2.2v.684a.173.173,0,0,0,.2.2h2.656a.173.173,0,0,0,.2-.2ZM104-10.742a.173.173,0,0,0,.2.2h2.656a.173.173,0,0,0,.2-.2v-.742a.173.173,0,0,0-.2-.2H104.2a.173.173,0,0,0-.2.2Zm5.273.313a1.637,1.637,0,0,1-.5,1.2,1.637,1.637,0,0,1-1.2.5H104.2a.173.173,0,0,0-.2.2v9.1a1.114,1.114,0,0,1-.352.83,1.163,1.163,0,0,1-.84.342,1.13,1.13,0,0,1-.83-.342,1.13,1.13,0,0,1-.342-.83V-14.473a1.637,1.637,0,0,1,.5-1.2,1.637,1.637,0,0,1,1.2-.5h4.238a1.637,1.637,0,0,1,1.2.5,1.637,1.637,0,0,1,.5,1.2Zm2.3,5.234a.173.173,0,0,0-.2-.2h-2.91a.173.173,0,0,0-.2.2v1.953a.173.173,0,0,0,.2.2h2.91a.173.173,0,0,0,.2-.2Zm2.227,2.422a1.637,1.637,0,0,1-.5,1.2,1.637,1.637,0,0,1-1.2.5H108.4a.1.1,0,0,0-.117.117.959.959,0,0,1-.293.7.959.959,0,0,1-.7.293h-.117a1.085,1.085,0,0,1-.781-.322,1.059,1.059,0,0,1-.332-.791v-4.59a1.637,1.637,0,0,1,.5-1.2,1.637,1.637,0,0,1,1.2-.5h4.355a1.637,1.637,0,0,1,1.2.5,1.637,1.637,0,0,1,.5,1.2Zm-.879-7.949a.173.173,0,0,0,.2.2h2.754a.173.173,0,0,0,.2-.2v-.762a.173.173,0,0,0-.2-.2h-2.754a.173.173,0,0,0-.2.2Zm3.145-3.457a.173.173,0,0,0-.2-.2h-2.754a.173.173,0,0,0-.2.2v.7a.173.173,0,0,0,.2.2h2.754a.173.173,0,0,0,.2-.2Zm.723-1.992a1.637,1.637,0,0,1,1.2.5,1.637,1.637,0,0,1,.5,1.2V-1.094a3.893,3.893,0,0,1-.244,1.543,1.686,1.686,0,0,1-.869.84,7.329,7.329,0,0,1-2.637.43h-.039a1.449,1.449,0,0,1-.937-.332,2.008,2.008,0,0,1-.625-.9A1.211,1.211,0,0,1,113.105.2a.868.868,0,0,1,.156-.488.752.752,0,0,1,.664-.352h.723q.547,0,.918-.02a.572.572,0,0,0,.391-.107.472.472,0,0,0,.117-.361V-8.516a.173.173,0,0,0-.2-.2h-3.516a1.637,1.637,0,0,1-1.2-.5,1.637,1.637,0,0,1-.5-1.2v-4.062a1.637,1.637,0,0,1,.5-1.2,1.637,1.637,0,0,1,1.2-.5Z" transform="translate(-2.207 16.719)" fill="#4e9174"/>
</svg>
