<svg xmlns="http://www.w3.org/2000/svg" width="177.988" height="18.77" viewBox="0 0 177.988 18.77">
  <path id="パス_6891" data-name="パス 6891" d="M9.941-12.363a.173.173,0,0,0-.2.2v1.582a.173.173,0,0,0,.2.2h.82a.52.52,0,0,0,.352-.137,23.847,23.847,0,0,0,1.836-1.7.076.076,0,0,0,.02-.088.076.076,0,0,0-.078-.049Zm8.789,2.3a1.017,1.017,0,0,1,.332.771,1.064,1.064,0,0,1-.322.781,1.075,1.075,0,0,1-.791.322h-5.82a.493.493,0,0,0-.332.117q-1.23,1-3.145,2.266a.323.323,0,0,0-.156.293V-4.9a.157.157,0,0,0,.059.127.147.147,0,0,0,.137.029,46.553,46.553,0,0,0,5.039-1.6,1.977,1.977,0,0,1,.82-.176,1.533,1.533,0,0,1,.332.039,1.952,1.952,0,0,1,1.055.469.779.779,0,0,1,.273.586.642.642,0,0,1-.02.156.7.7,0,0,1-.508.586A62.817,62.817,0,0,1,8.691-2.734a.217.217,0,0,0-.2.234v.9q0,.586.3.742A3.791,3.791,0,0,0,10.2-.7h4.336a1.745,1.745,0,0,0,1.055-.244,1.561,1.561,0,0,0,.43-1.006.837.837,0,0,1,.449-.625.89.89,0,0,1,.43-.117,1.051,1.051,0,0,1,.332.059,1.6,1.6,0,0,1,.781.605,1.215,1.215,0,0,1,.215.664,1.547,1.547,0,0,1-.02.254A3.191,3.191,0,0,1,17.139.908a4.223,4.223,0,0,1-2.412.537H10.02A5.525,5.525,0,0,1,6.865.811a2.866,2.866,0,0,1-.83-2.393v-2.48a.109.109,0,0,0-.059-.107.11.11,0,0,0-.117.01q-1.211.645-2.6,1.25a1.548,1.548,0,0,1-.625.137,1.852,1.852,0,0,1-.449-.059,1.814,1.814,0,0,1-.918-.605A.855.855,0,0,1,1.055-4a.928.928,0,0,1,.039-.254.882.882,0,0,1,.547-.625A34.358,34.358,0,0,0,7.832-8.066a.081.081,0,0,0,.029-.078.046.046,0,0,0-.049-.039H2.051a1.075,1.075,0,0,1-.791-.322,1.064,1.064,0,0,1-.322-.781,1.064,1.064,0,0,1,.322-.781,1.075,1.075,0,0,1,.791-.322H7.07a.173.173,0,0,0,.2-.2v-1.582a.173.173,0,0,0-.2-.2H3.828a1.053,1.053,0,0,1-.771-.322,1.053,1.053,0,0,1-.322-.771,1.021,1.021,0,0,1,.322-.762,1.069,1.069,0,0,1,.771-.312H7.07a.173.173,0,0,0,.2-.2v-1a1.185,1.185,0,0,1,.361-.869,1.185,1.185,0,0,1,.869-.361,1.217,1.217,0,0,1,.879.361,1.17,1.17,0,0,1,.371.869v1a.173.173,0,0,0,.2.2h3.047a1,1,0,0,1,.732.3,1,1,0,0,1,.3.732q0,.02.029.029a.044.044,0,0,0,.049-.01q.7-.8,1.348-1.68a1.459,1.459,0,0,1,.84-.566,1.707,1.707,0,0,1,.371-.039,1.416,1.416,0,0,1,.605.137.939.939,0,0,1,.566.664.991.991,0,0,1,.039.273.931.931,0,0,1-.215.586,30.81,30.81,0,0,1-3.086,3.555.126.126,0,0,0,0,.1q.02.059.059.059h3.32A1.028,1.028,0,0,1,18.73-10.059Zm9.551-5.059a1.449,1.449,0,0,1,.449-.967,1.35,1.35,0,0,1,.977-.4,1.18,1.18,0,0,1,.9.4,1.535,1.535,0,0,1,.41.967q.039.723.137,1.465t.332,1.875A21.717,21.717,0,0,0,32.051-9.6a19.5,19.5,0,0,0,.908,2.285,15.8,15.8,0,0,0,1.309,2.3,14.091,14.091,0,0,0,1.8,2.1,12.441,12.441,0,0,0,2.354,1.8.965.965,0,0,1,.469.742v.137a.994.994,0,0,1-.273.7,1.9,1.9,0,0,1-.977.586,1.365,1.365,0,0,1-.332.039,1.471,1.471,0,0,1-.723-.2,15.945,15.945,0,0,1-6.621-9.2A.063.063,0,0,0,29.9-8.34a.063.063,0,0,0-.059.039A17.115,17.115,0,0,1,23.652.781a1.409,1.409,0,0,1-.82.273,1.423,1.423,0,0,1-.234-.02A1.983,1.983,0,0,1,21.582.527a1.006,1.006,0,0,1-.332-.762.986.986,0,0,1,.43-.84,13.419,13.419,0,0,0,2.2-1.855A13.683,13.683,0,0,0,25.518-4.99,14.956,14.956,0,0,0,26.68-7.217a17.833,17.833,0,0,0,.781-2.2q.273-1,.469-2.148t.254-1.914Q28.242-14.238,28.281-15.117ZM44.2-7.383a1.44,1.44,0,0,1,.762-.625,1.627,1.627,0,0,1,.43-.059,1.379,1.379,0,0,1,.547.117,1.118,1.118,0,0,1,.625.7,1.106,1.106,0,0,1,.059.352,1.127,1.127,0,0,1-.156.566,32.442,32.442,0,0,1-2.4,3.477,1.275,1.275,0,0,1-.9.508,1.315,1.315,0,0,1-.215.02,1.421,1.421,0,0,1-.82-.254,1.1,1.1,0,0,1-.469-.8v-.137a1.118,1.118,0,0,1,.293-.762A22.187,22.187,0,0,0,44.2-7.383Zm12.07-2.871H51.8a.173.173,0,0,0-.2.2v9.1A1.8,1.8,0,0,1,51.074.42a2.228,2.228,0,0,1-1.582.5q-1,0-2.012-.059a1.393,1.393,0,0,1-.908-.42,1.5,1.5,0,0,1-.439-.928V-.605a.892.892,0,0,1,.3-.674.986.986,0,0,1,.693-.283.369.369,0,0,1,.117.02q.566.039,1,.039a.762.762,0,0,0,.547-.156.857.857,0,0,0,.176-.566q.02-.723.02-7.832a.173.173,0,0,0-.2-.2H43.262a1.3,1.3,0,0,1-.9-.352,1.194,1.194,0,0,1-.391-.9,1.133,1.133,0,0,1,.391-.879,1.269,1.269,0,0,1,.84-.312h.1q.332.02.605.02h4.883a.173.173,0,0,0,.2-.2v-1.406l-.02-.352a1.382,1.382,0,0,1,.371-.957,1.254,1.254,0,0,1,.967-.43,1.2,1.2,0,0,1,.947.43,1.358,1.358,0,0,1,.371.938l-.02.391v1.387a.173.173,0,0,0,.2.2H56.23q.312,0,.684-.02h.078a1.221,1.221,0,0,1,.84.313,1.133,1.133,0,0,1,.391.879,1.194,1.194,0,0,1-.391.9,1.259,1.259,0,0,1-.9.352H56.27ZM54.2-6.348a1.107,1.107,0,0,1-.2-.625,1.931,1.931,0,0,1,.02-.273,1.065,1.065,0,0,1,.547-.7,1.444,1.444,0,0,1,.684-.176,1.284,1.284,0,0,1,.313.039,1.271,1.271,0,0,1,.84.547q1,1.406,2.012,3.105a1.3,1.3,0,0,1,.176.645,1.616,1.616,0,0,1-.039.352,1.317,1.317,0,0,1-.645.8,1.309,1.309,0,0,1-.625.156,1.292,1.292,0,0,1-.371-.059,1.317,1.317,0,0,1-.8-.645Q55.137-4.941,54.2-6.348Zm9.2.156h-.039a1.476,1.476,0,0,1-1.055-.43,1.386,1.386,0,0,1-.469-1.064A1.447,1.447,0,0,1,62.3-8.77a1.445,1.445,0,0,1,1.035-.41H63.4q.938.039,1.66.039H75.8q.371,0,.781-.02h.059a1.445,1.445,0,0,1,1.035.41A1.375,1.375,0,0,1,78.145-7.7a1.4,1.4,0,0,1-.469,1.074,1.445,1.445,0,0,1-1.035.41H65.059Q64.258-6.211,63.4-6.191ZM98.457-1.641a1.375,1.375,0,0,1,.137.586,1.457,1.457,0,0,1-.1.527,1.353,1.353,0,0,1-.781.82,1.336,1.336,0,0,1-.566.137A1.379,1.379,0,0,1,96.6.313a1.436,1.436,0,0,1-.781-.781q-.156-.43-.332-.82a.216.216,0,0,0-.254-.156Q90.8-.918,83.574-.176q-.156.02-.41.039a1.1,1.1,0,0,1-.215.02,1.45,1.45,0,0,1-.9-.312,1.423,1.423,0,0,1-.586-.977,1.1,1.1,0,0,1-.02-.215,1.22,1.22,0,0,1,.313-.8,1.266,1.266,0,0,1,.957-.449h.723l.352-.02a.245.245,0,0,0,.254-.2q.8-2.051,1.846-5.283t1.553-5.049l.176-.7a1.776,1.776,0,0,1,.7-1.035,1.556,1.556,0,0,1,.879-.273,1.284,1.284,0,0,1,.313.039,1.241,1.241,0,0,1,.9.664,1.3,1.3,0,0,1,.176.645,1.406,1.406,0,0,1-.1.508q-.117.332-.254.723-2.5,7.676-3.184,9.531a.129.129,0,0,0,.02.117.079.079,0,0,0,.1.039q3.145-.312,6.914-.762a.109.109,0,0,0,.107-.059.193.193,0,0,0,.01-.137q-.684-1.367-1.27-2.363a1.064,1.064,0,0,1-.176-.586,1.106,1.106,0,0,1,.059-.352,1,1,0,0,1,.625-.684,1.416,1.416,0,0,1,.605-.137,1.358,1.358,0,0,1,.488.1,1.475,1.475,0,0,1,.859.664A60.3,60.3,0,0,1,98.457-1.641Zm2.852-2.617a1,1,0,0,1,.371-.645.942.942,0,0,1,.547-.176h.176a1.059,1.059,0,0,1,.664.41,1.018,1.018,0,0,1,.2.605v.156a19.542,19.542,0,0,1-.723,3.223.763.763,0,0,1-.508.508.938.938,0,0,1-.332.059.906.906,0,0,1-.41-.1,1.031,1.031,0,0,1-.527-.547,1.25,1.25,0,0,1-.078-.43,1.616,1.616,0,0,1,.039-.352A15.016,15.016,0,0,0,101.309-4.258Zm4.766.2a.736.736,0,0,1-.059-.293.718.718,0,0,1,.1-.352.761.761,0,0,1,.488-.43.837.837,0,0,1,.293-.059.906.906,0,0,1,.41.1.9.9,0,0,1,.469.508q.391,1,.664,1.895a.991.991,0,0,1,.039.273.925.925,0,0,1-.117.449.961.961,0,0,1-.566.488.689.689,0,0,1-.273.059.867.867,0,0,1-.391-.1.9.9,0,0,1-.43-.547Q106.465-2.949,106.074-4.062Zm-.352-5a.859.859,0,0,1-.078-.352.689.689,0,0,1,.059-.273.767.767,0,0,1,.43-.469.9.9,0,0,1,.371-.078.885.885,0,0,1,.313.059.913.913,0,0,1,.508.449,17.629,17.629,0,0,1,1.113,2.6.885.885,0,0,1,.059.313.89.89,0,0,1-.117.43,1.134,1.134,0,0,1-.547.527.581.581,0,0,1-.293.078.616.616,0,0,1-.332-.1.761.761,0,0,1-.43-.488v-.039a.111.111,0,0,0-.137-.078l-.723.059a.173.173,0,0,0-.2.2V.723a1,1,0,0,1-.3.732,1.037,1.037,0,0,1-1.465,0,1,1,0,0,1-.3-.732V-6.094a.157.157,0,0,0-.059-.127.207.207,0,0,0-.137-.049l-1.66.1a.173.173,0,0,1-.078.02.97.97,0,0,1-.684-.273.993.993,0,0,1-.371-.7v-.1a.959.959,0,0,1,.234-.645.953.953,0,0,1,.7-.332l.254-.02a.3.3,0,0,0,.234-.117q.332-.43.742-1a.264.264,0,0,0,0-.332A16.909,16.909,0,0,0,101.27-11.5a1.286,1.286,0,0,1-.332-.742v-.117a1.152,1.152,0,0,1,.215-.664l.254-.371a.462.462,0,0,1,.342-.205.432.432,0,0,1,.381.127q.059.039.078-.02.586-1.172,1.074-2.383a1.073,1.073,0,0,1,.566-.625,1.074,1.074,0,0,1,.449-.1,1.166,1.166,0,0,1,.371.059.938.938,0,0,1,.566.566.859.859,0,0,1,.078.352.89.89,0,0,1-.117.43q-1.055,1.973-1.621,2.891a.223.223,0,0,0,.02.313q.332.391.43.508a.145.145,0,0,0,.107.039.123.123,0,0,0,.107-.059q.7-1.152,1.211-2.109a1,1,0,0,1,.625-.547.9.9,0,0,1,.371-.078,1,1,0,0,1,.449.117.88.88,0,0,1,.508.586.928.928,0,0,1,.039.254.9.9,0,0,1-.156.508q-1.6,2.441-3.047,4.316a.077.077,0,0,0-.01.1.094.094,0,0,0,.088.059l1.563-.078a.1.1,0,0,0,.088-.049.124.124,0,0,0,.01-.107Q105.859-8.809,105.723-9.062Zm10.449,4.609a.173.173,0,0,0-.2-.2h-4.238a.173.173,0,0,0-.2.2v3.027a.173.173,0,0,0,.2.2h4.238a.173.173,0,0,0,.2-.2ZM110.449,1.7a1.053,1.053,0,0,1-.771-.322,1.053,1.053,0,0,1-.322-.771V-5.039a1.637,1.637,0,0,1,.5-1.2,1.637,1.637,0,0,1,1.2-.5h5.723a1.637,1.637,0,0,1,1.2.5,1.637,1.637,0,0,1,.5,1.2V.469a1.124,1.124,0,0,1-.332.811,1.1,1.1,0,0,1-.82.342h-.469a.656.656,0,0,1-.479-.205.656.656,0,0,1-.205-.479.069.069,0,0,0-.078-.078h-4.473a.069.069,0,0,0-.078.078.733.733,0,0,1-.225.537.733.733,0,0,1-.537.225Zm-1.484-15.84a1.048,1.048,0,0,1-.312-.771,1.032,1.032,0,0,1,.322-.771,1.069,1.069,0,0,1,.771-.312h7.441a1.557,1.557,0,0,1,1.172.488,1.609,1.609,0,0,1,.469,1.152,34.417,34.417,0,0,1-.234,4.063,3.685,3.685,0,0,1-.488,1.66,2.244,2.244,0,0,1-1.484.781,10.387,10.387,0,0,1-1.289.059,1.269,1.269,0,0,1-.84-.312,1.819,1.819,0,0,1-.527-.84.737.737,0,0,1-.039-.234.824.824,0,0,1,.137-.449.67.67,0,0,1,.566-.293h.9a.856.856,0,0,0,.625-.2q.332-.391.469-3.516a.187.187,0,0,0-.059-.137.187.187,0,0,0-.137-.059h-2.539a.193.193,0,0,0-.215.2,10.574,10.574,0,0,1-1.084,3.379,6.575,6.575,0,0,1-2.354,2.422,1.094,1.094,0,0,1-.547.156,1.284,1.284,0,0,1-.312-.039,1.385,1.385,0,0,1-.762-.527.88.88,0,0,1-.2-.547.726.726,0,0,1,.02-.176.838.838,0,0,1,.41-.625,5.006,5.006,0,0,0,1.7-1.709,6.8,6.8,0,0,0,.781-2.334.147.147,0,0,0-.029-.137.157.157,0,0,0-.127-.059h-1.426A1.1,1.1,0,0,1,108.965-14.141Zm21.055-.254a.123.123,0,0,0-.107-.059.083.083,0,0,0-.088.059,16.954,16.954,0,0,1-2.852,3.35,23.213,23.213,0,0,1-3.926,2.939,1.162,1.162,0,0,1-.605.176,1.051,1.051,0,0,1-.332-.059,1.358,1.358,0,0,1-.781-.547.957.957,0,0,1-.215-.605,1.1,1.1,0,0,1,.02-.215.953.953,0,0,1,.469-.684,18.015,18.015,0,0,0,3.545-2.646,19.12,19.12,0,0,0,2.744-3.213,2.537,2.537,0,0,1,.84-.781,2.117,2.117,0,0,1,1.074-.293,2.333,2.333,0,0,1,1.973,1.055,18.529,18.529,0,0,0,3,3.262,16.935,16.935,0,0,0,3.564,2.363,1.065,1.065,0,0,1,.547.7,1.147,1.147,0,0,1,.039.273,1.038,1.038,0,0,1-.215.625,1.494,1.494,0,0,1-.859.625,1.707,1.707,0,0,1-.371.039,1.408,1.408,0,0,1-.664-.176,24.052,24.052,0,0,1-3.9-2.891A17.5,17.5,0,0,1,130.02-14.395Zm2.129,5.977a1.217,1.217,0,0,1,.361-.879,1.17,1.17,0,0,1,.869-.371,1.2,1.2,0,0,1,.879.371,1.2,1.2,0,0,1,.371.879V.488a1.17,1.17,0,0,1-.371.869,1.217,1.217,0,0,1-.879.361,1.185,1.185,0,0,1-.869-.361,1.185,1.185,0,0,1-.361-.869Zm-6.895.1a1.176,1.176,0,0,1,.361-.879,1.2,1.2,0,0,1,.869-.352,1.2,1.2,0,0,1,.869.352,1.176,1.176,0,0,1,.361.879v1.25a17.314,17.314,0,0,1-.107,2.021,13.372,13.372,0,0,1-.42,2.021,7.363,7.363,0,0,1-1,2.129A8.68,8.68,0,0,1,124.453.977a1.32,1.32,0,0,1-.84.293.642.642,0,0,1-.156-.02,1.831,1.831,0,0,1-.977-.43.925.925,0,0,1-.352-.742A.945.945,0,0,1,122.5-.7a7.433,7.433,0,0,0,1.484-1.523,5.563,5.563,0,0,0,.84-1.709,10.643,10.643,0,0,0,.342-1.6,13.275,13.275,0,0,0,.088-1.611Zm29.3,5.449a.173.173,0,0,0,.2-.2v-.566a.173.173,0,0,0-.2-.2h-3.223a.173.173,0,0,0-.2.2v.566a.173.173,0,0,0,.2.2ZM151.328-6.5a.173.173,0,0,0-.2.2v.469a.173.173,0,0,0,.2.2h3.223a.173.173,0,0,0,.2-.2v-.469a.173.173,0,0,0-.2-.2Zm-5.742-4.18a.173.173,0,0,0,.2.2h2.734a.173.173,0,0,0,.2-.2v-.566a.173.173,0,0,0-.2-.2h-2.734a.173.173,0,0,0-.2.2Zm8.789-.566a.173.173,0,0,0-.2-.2h-2.852a.173.173,0,0,0-.2.2v.566a.173.173,0,0,0,.2.2h2.852a.173.173,0,0,0,.2-.2Zm3.945,5.605a.872.872,0,0,1,.654.273.9.9,0,0,1,.264.645.865.865,0,0,1-.264.635.888.888,0,0,1-.654.264h-.957a.173.173,0,0,0-.2.2v2.09a1.163,1.163,0,0,1-.361.85,1.163,1.163,0,0,1-.85.361h-.488a.694.694,0,0,1-.508-.215.717.717,0,0,1-.215-.527q0-.078-.1-.078h-3.32a.173.173,0,0,0-.2.2v.41A2.892,2.892,0,0,1,150.9.771a1.6,1.6,0,0,1-.82.693,8.209,8.209,0,0,1-2.52.332h-.02a1.242,1.242,0,0,1-.781-.273,1.681,1.681,0,0,1-.547-.684.689.689,0,0,1-.059-.273.544.544,0,0,1,.117-.332.559.559,0,0,1,.508-.293q.645.02,1.445.02a.6.6,0,0,0,.381-.127.533.533,0,0,0,.107-.381v-.41a.173.173,0,0,0-.2-.2H143.5a.827.827,0,0,1-.605-.254.838.838,0,0,1-.254-.615.806.806,0,0,1,.254-.605.843.843,0,0,1,.605-.244h5.02a.173.173,0,0,0,.2-.2v-.566a.173.173,0,0,0-.2-.2h-6.8a.888.888,0,0,1-.654-.264.865.865,0,0,1-.264-.635.9.9,0,0,1,.264-.645.872.872,0,0,1,.654-.273h6.8a.173.173,0,0,0,.2-.2v-.469a.173.173,0,0,0-.2-.2h-4.922a.772.772,0,0,1-.566-.234.772.772,0,0,1-.234-.566.772.772,0,0,1,.234-.566.772.772,0,0,1,.566-.234h4.922a.173.173,0,0,0,.2-.2v-.488a.173.173,0,0,0-.2-.2H145a1.637,1.637,0,0,1-1.2-.5,1.637,1.637,0,0,1-.5-1.2v-.566a1.637,1.637,0,0,1,.5-1.2,1.637,1.637,0,0,1,1.2-.5h3.516a.173.173,0,0,0,.2-.2v-.43a.173.173,0,0,0-.2-.2h-6.309a.9.9,0,0,1-.664-.273.9.9,0,0,1-.273-.664.9.9,0,0,1,.273-.664.9.9,0,0,1,.664-.273h6.387q.117,0,.117-.137a1.108,1.108,0,0,1,.342-.811,1.13,1.13,0,0,1,.83-.342h.1a1.108,1.108,0,0,1,.811.342,1.108,1.108,0,0,1,.342.811.121.121,0,0,0,.137.137h6.563a.937.937,0,0,1,.674.273.889.889,0,0,1,.283.664.889.889,0,0,1-.283.664.937.937,0,0,1-.674.273h-6.5a.173.173,0,0,0-.2.2v.43a.173.173,0,0,0,.2.2h3.789a1.637,1.637,0,0,1,1.2.5,1.637,1.637,0,0,1,.5,1.2v.566a1.637,1.637,0,0,1-.5,1.2,1.637,1.637,0,0,1-1.2.5h-3.789a.173.173,0,0,0-.2.2V-8.3a.173.173,0,0,0,.2.2h4.141a1.637,1.637,0,0,1,1.2.5,1.637,1.637,0,0,1,.5,1.2v.566a.173.173,0,0,0,.2.2Zm14.063-5.918a.1.1,0,0,0,0-.117.131.131,0,0,0-.117-.059h-4.414a.1.1,0,0,0-.088.049.124.124,0,0,0-.01.107,9.892,9.892,0,0,1,.508,1.094.247.247,0,0,1-.02.215.317.317,0,0,1-.2.137h3.516a.277.277,0,0,0,.273-.176A13.206,13.206,0,0,0,172.383-11.562Zm6.25,7.07a.948.948,0,0,1,.293.693.948.948,0,0,1-.293.693.937.937,0,0,1-.684.293H173.32a.063.063,0,0,0-.059.039.039.039,0,0,0,.02.059A16.964,16.964,0,0,0,178.145-.9a.771.771,0,0,1,.566.527.689.689,0,0,1,.059.273.8.8,0,0,1-.176.488,1.925,1.925,0,0,1-.918.723,1.616,1.616,0,0,1-.605.117,1.406,1.406,0,0,1-.508-.1,16.63,16.63,0,0,1-5.273-2.871.077.077,0,0,0-.1-.01.094.094,0,0,0-.059.088V.566a1.13,1.13,0,0,1-.342.83,1.155,1.155,0,0,1-1.641,0,1.13,1.13,0,0,1-.342-.83V-1.543a.094.094,0,0,0-.059-.088.077.077,0,0,0-.1.01A18.27,18.27,0,0,1,163.3,1.152a1.534,1.534,0,0,1-.488.078,1.379,1.379,0,0,1-.547-.117,1.841,1.841,0,0,1-.859-.645A.725.725,0,0,1,161.23,0a.8.8,0,0,1,.039-.254.718.718,0,0,1,.527-.508,20.367,20.367,0,0,0,4.941-1.953.039.039,0,0,0,.02-.059.063.063,0,0,0-.059-.039h-4.551a.959.959,0,0,1-.7-.293.948.948,0,0,1-.293-.693.948.948,0,0,1,.293-.693.959.959,0,0,1,.7-.293h6.465a.173.173,0,0,0,.2-.2v-.488a.173.173,0,0,0-.2-.2h-4.707a.818.818,0,0,1-.615-.254.843.843,0,0,1-.244-.605.843.843,0,0,1,.244-.605.818.818,0,0,1,.615-.254h4.707a.173.173,0,0,0,.2-.2v-.508a.173.173,0,0,0-.2-.2h-5.645a.9.9,0,0,1-.664-.273.893.893,0,0,1-.273-.654.893.893,0,0,1,.273-.654.9.9,0,0,1,.664-.273h2.7a.115.115,0,0,0,.1-.059.129.129,0,0,0,.02-.117,8.854,8.854,0,0,0-.508-1.191.168.168,0,0,1-.01-.146.149.149,0,0,1,.107-.088h-3.184a.953.953,0,0,1-.684-.283.916.916,0,0,1-.293-.684.916.916,0,0,1,.293-.684.953.953,0,0,1,.684-.283h1.523a.115.115,0,0,0,.1-.059.164.164,0,0,0,.02-.137q-.234-.566-.645-1.348a.89.89,0,0,1-.117-.43.733.733,0,0,1,.078-.332.819.819,0,0,1,.527-.527,1.446,1.446,0,0,1,.459-.078,1.446,1.446,0,0,1,.459.078,1.226,1.226,0,0,1,.684.566q.332.547.566,1.035a.753.753,0,0,1,.1.371.819.819,0,0,1-.078.332.889.889,0,0,1-.527.488v.02a.017.017,0,0,0,.02.02h1.5a.173.173,0,0,0,.2-.2V-15.82a1.059,1.059,0,0,1,.332-.791,1.1,1.1,0,0,1,.791-.322,1.064,1.064,0,0,1,.781.322,1.075,1.075,0,0,1,.322.791v1.953a.173.173,0,0,0,.2.2h1.094a.173.173,0,0,0,.2-.2V-15.82a1.059,1.059,0,0,1,.332-.791,1.1,1.1,0,0,1,.791-.322,1.1,1.1,0,0,1,.791.322,1.059,1.059,0,0,1,.332.791v1.953a.173.173,0,0,0,.2.2h1.5v-.039a.474.474,0,0,1-.352-.3.56.56,0,0,1,.02-.479q.254-.508.508-1.094a1.484,1.484,0,0,1,.684-.781,1.408,1.408,0,0,1,.664-.176,1.365,1.365,0,0,1,.332.039.943.943,0,0,1,.664.547,1.292,1.292,0,0,1,.059.371.956.956,0,0,1-.137.488q-.469.781-.781,1.25a.11.11,0,0,0-.01.117.109.109,0,0,0,.107.059h1.426a.943.943,0,0,1,.693.283.932.932,0,0,1,.283.684.932.932,0,0,1-.283.684.943.943,0,0,1-.693.283h-2.6a.316.316,0,0,0-.293.176q-.352.645-.742,1.25a.148.148,0,0,0,.01.117.094.094,0,0,0,.088.059h2.793a.9.9,0,0,1,.664.273.893.893,0,0,1,.273.654.893.893,0,0,1-.273.654.9.9,0,0,1-.664.273h-5.82a.173.173,0,0,0-.2.2v.508a.173.173,0,0,0,.2.2h4.961a.827.827,0,0,1,.605.254.827.827,0,0,1,.254.605.827.827,0,0,1-.254.605.827.827,0,0,1-.605.254h-4.961a.173.173,0,0,0-.2.2v.488a.173.173,0,0,0,.2.2h6.621A.937.937,0,0,1,178.633-4.492Z" transform="translate(-0.938 16.973)" fill="#4e9174"/>
</svg>
