<svg xmlns="http://www.w3.org/2000/svg" width="78.027" height="18.77" viewBox="0 0 78.027 18.77">
  <path id="パス_6892" data-name="パス 6892" d="M7.91-16A2.256,2.256,0,0,1,9.8-17.012a2.352,2.352,0,0,1,1.934.977A21.463,21.463,0,0,0,14.854-12.8a21.007,21.007,0,0,0,3.6,2.471,1.009,1.009,0,0,1,.547.7,1.8,1.8,0,0,1,.02.254,1.066,1.066,0,0,1-.215.645,1.407,1.407,0,0,1-.879.586,1.533,1.533,0,0,1-.332.039,1.332,1.332,0,0,1-.684-.2,29.217,29.217,0,0,1-3.9-2.969,21.244,21.244,0,0,1-3-3.242A.131.131,0,0,0,9.9-14.57a.131.131,0,0,0-.117.059,19.663,19.663,0,0,1-2.91,3.281A26.8,26.8,0,0,1,2.949-8.223a1.3,1.3,0,0,1-.645.176,1.211,1.211,0,0,1-.293-.039,1.389,1.389,0,0,1-.8-.527.933.933,0,0,1-.234-.625A.726.726,0,0,1,1-9.414a.964.964,0,0,1,.469-.7,21.357,21.357,0,0,0,3.594-2.715A22.34,22.34,0,0,0,7.91-16ZM11.563-4.961a.173.173,0,0,0-.2.2v3.613a.173.173,0,0,0,.2.2h5.879a1.037,1.037,0,0,1,.762.313,1.037,1.037,0,0,1,.313.762A1.037,1.037,0,0,1,18.2.879a1.037,1.037,0,0,1-.762.313H2.578A1.037,1.037,0,0,1,1.816.879,1.037,1.037,0,0,1,1.5.117a1.037,1.037,0,0,1,.313-.762,1.037,1.037,0,0,1,.762-.312h.9a.173.173,0,0,0,.2-.2V-6.738a1.093,1.093,0,0,1,.352-.811,1.151,1.151,0,0,1,.83-.342,1.119,1.119,0,0,1,.82.342,1.108,1.108,0,0,1,.342.811v5.586a.173.173,0,0,0,.2.2H8.672a.173.173,0,0,0,.2-.2V-10.1a1.217,1.217,0,0,1,.361-.879,1.181,1.181,0,0,1,.879-.371,1.212,1.212,0,0,1,.889.371,1.2,1.2,0,0,1,.371.879v2.852a.173.173,0,0,0,.2.2h4.1a1.021,1.021,0,0,1,.752.3,1.009,1.009,0,0,1,.3.742,1.009,1.009,0,0,1-.3.742,1.021,1.021,0,0,1-.752.3Zm20.82-6.6a.1.1,0,0,0,0-.117.131.131,0,0,0-.117-.059H27.852a.1.1,0,0,0-.088.049.124.124,0,0,0-.01.107,9.892,9.892,0,0,1,.508,1.094.247.247,0,0,1-.02.215.317.317,0,0,1-.2.137h3.516a.277.277,0,0,0,.273-.176A13.207,13.207,0,0,0,32.383-11.562Zm6.25,7.07a.948.948,0,0,1,.293.693.948.948,0,0,1-.293.693.937.937,0,0,1-.684.293H33.32a.063.063,0,0,0-.059.039.039.039,0,0,0,.02.059A16.964,16.964,0,0,0,38.145-.9a.771.771,0,0,1,.566.527A.689.689,0,0,1,38.77-.1a.8.8,0,0,1-.176.488,1.925,1.925,0,0,1-.918.723,1.616,1.616,0,0,1-.605.117,1.406,1.406,0,0,1-.508-.1,16.629,16.629,0,0,1-5.273-2.871.077.077,0,0,0-.1-.01.094.094,0,0,0-.059.088V.566a1.13,1.13,0,0,1-.342.83,1.155,1.155,0,0,1-1.641,0,1.13,1.13,0,0,1-.342-.83V-1.543a.094.094,0,0,0-.059-.088.077.077,0,0,0-.1.01A18.27,18.27,0,0,1,23.3,1.152a1.534,1.534,0,0,1-.488.078,1.379,1.379,0,0,1-.547-.117,1.841,1.841,0,0,1-.859-.645A.725.725,0,0,1,21.23,0a.8.8,0,0,1,.039-.254A.718.718,0,0,1,21.8-.762a20.367,20.367,0,0,0,4.941-1.953.039.039,0,0,0,.02-.059.063.063,0,0,0-.059-.039H22.148a.959.959,0,0,1-.7-.293.948.948,0,0,1-.293-.693.948.948,0,0,1,.293-.693.959.959,0,0,1,.7-.293h6.465a.173.173,0,0,0,.2-.2v-.488a.173.173,0,0,0-.2-.2H23.906a.817.817,0,0,1-.615-.254.843.843,0,0,1-.244-.605.843.843,0,0,1,.244-.605.817.817,0,0,1,.615-.254h4.707a.173.173,0,0,0,.2-.2v-.508a.173.173,0,0,0-.2-.2H22.969a.9.9,0,0,1-.664-.273.893.893,0,0,1-.273-.654.893.893,0,0,1,.273-.654.9.9,0,0,1,.664-.273h2.7a.115.115,0,0,0,.1-.059.129.129,0,0,0,.02-.117,8.854,8.854,0,0,0-.508-1.191.168.168,0,0,1-.01-.146.149.149,0,0,1,.107-.088H22.188a.953.953,0,0,1-.684-.283.916.916,0,0,1-.293-.684.916.916,0,0,1,.293-.684.953.953,0,0,1,.684-.283h1.523a.115.115,0,0,0,.1-.059.164.164,0,0,0,.02-.137q-.234-.566-.645-1.348a.89.89,0,0,1-.117-.43.733.733,0,0,1,.078-.332.819.819,0,0,1,.527-.527,1.446,1.446,0,0,1,.459-.078,1.446,1.446,0,0,1,.459.078,1.226,1.226,0,0,1,.684.566q.332.547.566,1.035a.753.753,0,0,1,.1.371.819.819,0,0,1-.078.332.889.889,0,0,1-.527.488v.02a.017.017,0,0,0,.02.02h1.5a.173.173,0,0,0,.2-.2V-15.82a1.059,1.059,0,0,1,.332-.791,1.1,1.1,0,0,1,.791-.322,1.064,1.064,0,0,1,.781.322,1.075,1.075,0,0,1,.322.791v1.953a.173.173,0,0,0,.2.2h1.094a.173.173,0,0,0,.2-.2V-15.82a1.059,1.059,0,0,1,.332-.791,1.1,1.1,0,0,1,.791-.322,1.1,1.1,0,0,1,.791.322,1.059,1.059,0,0,1,.332.791v1.953a.173.173,0,0,0,.2.2h1.5v-.039a.474.474,0,0,1-.352-.3.56.56,0,0,1,.02-.479q.254-.508.508-1.094a1.484,1.484,0,0,1,.684-.781,1.408,1.408,0,0,1,.664-.176,1.365,1.365,0,0,1,.332.039.943.943,0,0,1,.664.547,1.292,1.292,0,0,1,.059.371.956.956,0,0,1-.137.488q-.469.781-.781,1.25a.11.11,0,0,0-.01.117.109.109,0,0,0,.107.059h1.426a.943.943,0,0,1,.693.283.931.931,0,0,1,.283.684.931.931,0,0,1-.283.684.943.943,0,0,1-.693.283h-2.6a.316.316,0,0,0-.293.176q-.352.645-.742,1.25a.148.148,0,0,0,.01.117.094.094,0,0,0,.088.059h2.793a.9.9,0,0,1,.664.273.893.893,0,0,1,.273.654.893.893,0,0,1-.273.654.9.9,0,0,1-.664.273h-5.82a.173.173,0,0,0-.2.2v.508a.173.173,0,0,0,.2.2h4.961a.827.827,0,0,1,.605.254.827.827,0,0,1,.254.605.827.827,0,0,1-.254.605.827.827,0,0,1-.605.254H31.328a.173.173,0,0,0-.2.2v.488a.173.173,0,0,0,.2.2h6.621A.937.937,0,0,1,38.633-4.492Zm3.691-3.594a.78.78,0,0,1-.391.547.867.867,0,0,1-.391.1.991.991,0,0,1-.273-.039.976.976,0,0,1-.547-.469,1.04,1.04,0,0,1-.117-.469,1.423,1.423,0,0,1,.02-.234,25.9,25.9,0,0,0,.527-3.5.833.833,0,0,1,.293-.566.829.829,0,0,1,.508-.176h.1a.863.863,0,0,1,.605.332.808.808,0,0,1,.215.566A19.569,19.569,0,0,1,42.324-8.086Zm7.4,5.02a.173.173,0,0,0,.2.2h5.586a.173.173,0,0,0,.2-.2v-.547a.173.173,0,0,0-.2-.2H49.922a.173.173,0,0,0-.2.2ZM55.7-6.23a.173.173,0,0,0-.2-.2H49.922a.173.173,0,0,0-.2.2v.547a.173.173,0,0,0,.2.2h5.586a.173.173,0,0,0,.2-.2Zm.547-1.934a1.637,1.637,0,0,1,1.2.5,1.637,1.637,0,0,1,.5,1.2V-.547a3.068,3.068,0,0,1-.205,1.26,1.385,1.385,0,0,1-.732.674A5.324,5.324,0,0,1,55,1.719h-.02a1.143,1.143,0,0,1-.781-.293,1.471,1.471,0,0,1-.508-.742.737.737,0,0,1-.039-.234.7.7,0,0,1,.137-.41.639.639,0,0,1,.566-.293h.957a.457.457,0,0,0,.3-.078A.324.324,0,0,0,55.7-.586v-.449a.173.173,0,0,0-.2-.2H49.922a.173.173,0,0,0-.2.2v1.7a1.053,1.053,0,0,1-.322.771,1.108,1.108,0,0,1-1.562,0A1.053,1.053,0,0,1,47.52.664V-6.465a1.637,1.637,0,0,1,.5-1.2,1.637,1.637,0,0,1,1.2-.5Zm-2.4-2.656a.173.173,0,0,0,.2.2h4.395a.8.8,0,0,1,.6.254.843.843,0,0,1,.244.605.811.811,0,0,1-.244.6.811.811,0,0,1-.6.244H47.031a.843.843,0,0,1-.605-.244.8.8,0,0,1-.254-.6.827.827,0,0,1,.254-.605.827.827,0,0,1,.605-.254h4.258a.173.173,0,0,0,.2-.2v-.469a.173.173,0,0,0-.2-.2H47.344v.02q.039.078-.059.137L46.6-11a.693.693,0,0,1-.312.078A.581.581,0,0,1,46-11a.7.7,0,0,1-.41-.449q-.2-.605-.43-1.191-.02-.039-.049-.029a.045.045,0,0,0-.029.049V.645a1.037,1.037,0,0,1-.312.762,1.061,1.061,0,0,1-1.5,0,1.037,1.037,0,0,1-.312-.762V-15.879a1.014,1.014,0,0,1,.313-.742,1.025,1.025,0,0,1,.752-.312,1.025,1.025,0,0,1,.752.313,1.014,1.014,0,0,1,.313.742v2.012a.084.084,0,0,0,.039.068.07.07,0,0,0,.078.01,1.167,1.167,0,0,1,.449-.1,1.094,1.094,0,0,1,.41.078,1.063,1.063,0,0,1,.625.605q.371.859.605,1.543a.056.056,0,0,0,.039.02.017.017,0,0,0,.02-.02,1.389,1.389,0,0,1,.41-1.006,1.34,1.34,0,0,1,1-.42h2.539a.173.173,0,0,0,.2-.2v-.41a.173.173,0,0,0-.2-.2H47.656a.843.843,0,0,1-.605-.244.8.8,0,0,1-.254-.6.827.827,0,0,1,.254-.605.827.827,0,0,1,.605-.254h3.691a.121.121,0,0,0,.137-.137v-.039a1.13,1.13,0,0,1,.342-.83,1.13,1.13,0,0,1,.83-.342,1.163,1.163,0,0,1,.84.342,1.114,1.114,0,0,1,.352.83v.039a.121.121,0,0,0,.137.137h3.848a.8.8,0,0,1,.6.254.843.843,0,0,1,.244.605.811.811,0,0,1-.244.6.811.811,0,0,1-.6.244H54.043a.173.173,0,0,0-.2.2v.41a.173.173,0,0,0,.2.2h3.3a.772.772,0,0,1,.566.234.772.772,0,0,1,.234.566.772.772,0,0,1-.234.566.772.772,0,0,1-.566.234h-3.3a.173.173,0,0,0-.2.2ZM66.719-7.5v-.02a.5.5,0,0,1-.342-.273.567.567,0,0,1-.029-.449q.273-.8.449-1.387a.147.147,0,0,0-.029-.137.157.157,0,0,0-.127-.059H64a.131.131,0,0,0-.117.059.1.1,0,0,0,0,.117,8.835,8.835,0,0,1,.488,1.387.577.577,0,0,1-.068.449.644.644,0,0,1-.381.293v.02Zm-.1-5.7a.173.173,0,0,0-.2.2v1a.173.173,0,0,0,.2.2H68.77a.959.959,0,0,1,.7.293.959.959,0,0,1,.293.7.959.959,0,0,1-.293.7.959.959,0,0,1-.7.293h-.586q-.02,0-.02.01t.02.01a.588.588,0,0,1,.391.332.628.628,0,0,1,.02.508q-.566,1.309-.566,1.328a.088.088,0,0,0,.01.088.082.082,0,0,0,.068.049h.352a.959.959,0,0,1,.7.293.959.959,0,0,1,.293.7.959.959,0,0,1-.293.7.959.959,0,0,1-.7.293H66.621a.173.173,0,0,0-.2.2V-4.16a.173.173,0,0,0,.2.2h1.621a.959.959,0,0,1,.7.293.97.97,0,0,1,.293.713.97.97,0,0,1-.293.713.959.959,0,0,1-.7.293H66.621a.173.173,0,0,0-.2.2V.586a1.053,1.053,0,0,1-.322.771,1.108,1.108,0,0,1-1.562,0,1.053,1.053,0,0,1-.322-.771V-1.758a.173.173,0,0,0-.2-.2H62.246a.982.982,0,0,1-.723-.293.97.97,0,0,1-.293-.713.97.97,0,0,1,.293-.713.982.982,0,0,1,.723-.293h1.777a.173.173,0,0,0,.2-.2V-5.312a.173.173,0,0,0-.2-.2H62.07a.959.959,0,0,1-.7-.293.959.959,0,0,1-.293-.7.959.959,0,0,1,.293-.7.959.959,0,0,1,.7-.293h.352a.12.12,0,0,0,.1-.049.168.168,0,0,0,.039-.107,11.078,11.078,0,0,0-.391-1.367.581.581,0,0,1,.02-.488.53.53,0,0,1,.371-.293q.02,0,.01-.01l-.01-.01h-.9a.959.959,0,0,1-.7-.293.959.959,0,0,1-.293-.7.959.959,0,0,1,.293-.7.959.959,0,0,1,.7-.293h2.363a.173.173,0,0,0,.2-.2v-1a.173.173,0,0,0-.2-.2h-1.68a.943.943,0,0,1-.693-.283.943.943,0,0,1-.283-.693.943.943,0,0,1,.283-.693.943.943,0,0,1,.693-.283h1.7a.155.155,0,0,0,.176-.176V-15.8a1.053,1.053,0,0,1,.322-.771,1.064,1.064,0,0,1,.781-.322,1.064,1.064,0,0,1,.781.322,1.053,1.053,0,0,1,.322.771v.469a.155.155,0,0,0,.176.176h1.445a.953.953,0,0,1,.684.283.927.927,0,0,1,.293.693.927.927,0,0,1-.293.693.953.953,0,0,1-.684.283Zm5.723,6.855q-.02-.039-.039-.029a.031.031,0,0,0-.02.029V-.371a.076.076,0,0,0,.049.078.076.076,0,0,0,.088-.02,10.159,10.159,0,0,0,1.66-1.758.255.255,0,0,0,.02-.312A20.144,20.144,0,0,1,72.344-6.348Zm4.063-.82a.241.241,0,0,0-.039-.137.131.131,0,0,0-.117-.059H74.16a.131.131,0,0,0-.117.059.164.164,0,0,0-.02.137,15.234,15.234,0,0,0,1.25,2.734.115.115,0,0,0,.1.059.115.115,0,0,0,.1-.059A15.37,15.37,0,0,0,76.406-7.168Zm.742-2.09a1.062,1.062,0,0,1,.293-.039,1.094,1.094,0,0,1,.41.078l.352.137a.821.821,0,0,1,.479.381.838.838,0,0,1,.107.6A19.574,19.574,0,0,1,76.914-2.48a.267.267,0,0,0,.039.332,11.266,11.266,0,0,0,1.6,1.406.967.967,0,0,1,.43.7A.642.642,0,0,1,79,.117a.963.963,0,0,1-.254.645,1.3,1.3,0,0,1-.8.508,1.423,1.423,0,0,1-.234.02,1.152,1.152,0,0,1-.664-.215A12.579,12.579,0,0,1,75.684-.215q-.117-.137-.254,0A8.823,8.823,0,0,1,74.512.82a1.3,1.3,0,0,1-.9.352.642.642,0,0,1-.156-.02A1.8,1.8,0,0,1,72.4.664q-.02-.039-.039-.039a.044.044,0,0,0-.049-.01.045.045,0,0,0-.029.049,1.014,1.014,0,0,1-.312.742,1.014,1.014,0,0,1-.742.313h-.039a1.046,1.046,0,0,1-.752-.312,1.021,1.021,0,0,1-.322-.762V-14.395a1.637,1.637,0,0,1,.5-1.2,1.637,1.637,0,0,1,1.2-.5h4.941a1.637,1.637,0,0,1,1.2.5,1.637,1.637,0,0,1,.5,1.2v2.051a2.955,2.955,0,0,1-.215,1.25,1.341,1.341,0,0,1-.781.664,6.044,6.044,0,0,1-2.227.332H75.2a1.242,1.242,0,0,1-.781-.273,1.593,1.593,0,0,1-.527-.742.991.991,0,0,1-.039-.273.7.7,0,0,1,.137-.41.639.639,0,0,1,.566-.293q.605.02,1.309.02a.639.639,0,0,0,.322-.088.267.267,0,0,0,.088-.225v-1.445a.173.173,0,0,0-.2-.2H72.48a.173.173,0,0,0-.2.2v4.395a.173.173,0,0,0,.2.2h4.57A.217.217,0,0,0,77.148-9.258Z" transform="translate(-0.977 17.012)" fill="#4e9174"/>
</svg>
