<svg xmlns="http://www.w3.org/2000/svg" width="57.168" height="18.477" viewBox="0 0 57.168 18.477">
  <path id="パス_6893" data-name="パス 6893" d="M16.387-14.863a.644.644,0,0,1,.039.537.647.647,0,0,1-.371.4q-.02,0-.02.029a.066.066,0,0,0,.02.049l.059.039a1.649,1.649,0,0,1,.684.879,1.9,1.9,0,0,1,.1.605,2.338,2.338,0,0,1-.059.527.758.758,0,0,1-.039.1,19.908,19.908,0,0,1-2.988,7.285A15.426,15.426,0,0,1,7.266.547,2.29,2.29,0,0,1,6.445.7,2.7,2.7,0,0,1,5.879.645,2.372,2.372,0,0,1,4.668-.1a.893.893,0,0,1-.254-.625,1.211,1.211,0,0,1,.039-.293,1,1,0,0,1,.684-.7,12.944,12.944,0,0,0,6.289-4.258A10.981,10.981,0,0,0,12.9-8.564a14.228,14.228,0,0,0,.85-2.861.136.136,0,0,0-.039-.137.169.169,0,0,0-.117-.059H4.453q-.469,0-.957.02H3.438a1.279,1.279,0,0,1-.937-.391,1.244,1.244,0,0,1-.43-.957,1.186,1.186,0,0,1,.43-.937,1.3,1.3,0,0,1,.9-.352h.078q.586.039.977.039h9.258q.469,0,.762-.02a.113.113,0,0,0,.1-.068.113.113,0,0,0,0-.127Q14.3-14.941,14-15.43a.689.689,0,0,1-.117-.391.737.737,0,0,1,.039-.234.767.767,0,0,1,.43-.469,1.2,1.2,0,0,1,.41-.078,1.284,1.284,0,0,1,.313.039,1.06,1.06,0,0,1,.586.449Q16.035-15.508,16.387-14.863Zm.43-1.074a.754.754,0,0,1-.117-.391.737.737,0,0,1,.039-.234.647.647,0,0,1,.41-.449.991.991,0,0,1,.41-.1,1.051,1.051,0,0,1,.332.059,1.06,1.06,0,0,1,.586.449q.313.508.664,1.094a.867.867,0,0,1,.1.391.991.991,0,0,1-.039.273.829.829,0,0,1-.449.488,1.045,1.045,0,0,1-.391.078,1.051,1.051,0,0,1-.332-.059.977.977,0,0,1-.547-.449Q17.109-15.469,16.816-15.937ZM34.9-11.406a.173.173,0,0,0-.2-.2H25.43a.173.173,0,0,0-.2.2V-3.5a.173.173,0,0,0,.2.2h9.277a.173.173,0,0,0,.2-.2Zm2.676-.84v9.8l.02,1.426a1.344,1.344,0,0,1-.391.957,1.325,1.325,0,0,1-.977.391H35.84a.97.97,0,0,1-.684-.273.97.97,0,0,1-.273-.684q0-.137-.117-.137H25.352q-.117,0-.117.137a.97.97,0,0,1-.273.684.927.927,0,0,1-.684.273h-.391a1.3,1.3,0,0,1-.957-.391,1.344,1.344,0,0,1-.391-.957l.02-1.445V-12.48a1.621,1.621,0,0,1,.488-1.191,1.566,1.566,0,0,1,1.152-.469H35.918a1.6,1.6,0,0,1,1.172.488,1.6,1.6,0,0,1,.488,1.172ZM56.484-14.9a1.271,1.271,0,0,1,.156.605,1.419,1.419,0,0,1-.078.449,1.233,1.233,0,0,1-.723.762.1.1,0,0,0-.049.078q-.01.059.029.078l.117.059a1.789,1.789,0,0,1,.781,1.074,2.647,2.647,0,0,1,.078.645,2.393,2.393,0,0,1-.117.723,22.691,22.691,0,0,1-1.357,3.311,16.687,16.687,0,0,1-2.1,3.232,18.431,18.431,0,0,1-6.6,5.039,2.408,2.408,0,0,1-.977.215,2.3,2.3,0,0,1-.41-.039,2.449,2.449,0,0,1-1.25-.605.832.832,0,0,1-.312-.645,1.1,1.1,0,0,1,.02-.215.907.907,0,0,1,.605-.7,16.022,16.022,0,0,0,3.75-1.924,16.986,16.986,0,0,0,2.813-2.529,13.053,13.053,0,0,0,1.719-2.578,12.569,12.569,0,0,0,1.074-2.676.147.147,0,0,0-.029-.137.157.157,0,0,0-.127-.059H48.262a.371.371,0,0,0-.312.156,22.8,22.8,0,0,1-3.809,3.867,1.763,1.763,0,0,1-1.094.371h-.02a1.984,1.984,0,0,1-1.133-.391.926.926,0,0,1-.371-.762.986.986,0,0,1,.43-.84A17.251,17.251,0,0,0,47.012-14a5.358,5.358,0,0,0,.371-.645,1.836,1.836,0,0,1,.84-.879,1.524,1.524,0,0,1,.684-.176,1.658,1.658,0,0,1,.488.078,1.17,1.17,0,0,1,.742.742,1.25,1.25,0,0,1,.078.43,1.265,1.265,0,0,1-.176.625q-.215.352-.391.664a.124.124,0,0,0,.01.107.1.1,0,0,0,.088.049h3.828a6.133,6.133,0,0,0,1.6-.2.329.329,0,0,1,.273.039v-.02q-.547-1.074-1-1.836a.69.69,0,0,1-.068-.605.675.675,0,0,1,.4-.43,1.045,1.045,0,0,1,.391-.078,1.284,1.284,0,0,1,.313.039,1,1,0,0,1,.547.43Q56.25-15.312,56.484-14.9Zm.352-1.035a.658.658,0,0,1-.117-.371.684.684,0,0,1,.039-.215.646.646,0,0,1,.391-.43,1.045,1.045,0,0,1,.391-.078,1.284,1.284,0,0,1,.313.039,1,1,0,0,1,.547.43q.371.586.742,1.23a.867.867,0,0,1,.1.391.928.928,0,0,1-.039.254.767.767,0,0,1-.43.469,1,1,0,0,1-.371.078.885.885,0,0,1-.312-.059,1,1,0,0,1-.527-.449A14.683,14.683,0,0,0,56.836-15.937Z" transform="translate(-2.07 17.109)" fill="#4e9174"/>
</svg>
