<svg xmlns="http://www.w3.org/2000/svg" width="112.656" height="18.496" viewBox="0 0 112.656 18.496">
  <path id="パス_6889" data-name="パス 6889" d="M16.016-7.969a1.349,1.349,0,0,1,.8.82,1.522,1.522,0,0,1,.117.566,1.616,1.616,0,0,1-.117.605,1.36,1.36,0,0,1-.8.762,1.406,1.406,0,0,1-.508.1,1.416,1.416,0,0,1-.605-.137Q12.4-6.406,9.2-7.52a.129.129,0,0,0-.117.02.131.131,0,0,0-.059.117v5.469q0,.391.059,1.211v.117a1.367,1.367,0,0,1-.391.977A1.375,1.375,0,0,1,7.637.859,1.355,1.355,0,0,1,6.6.391,1.406,1.406,0,0,1,6.23-.586v-.1q.059-.7.059-1.23V-13.4l-.039-.977a1.453,1.453,0,0,1,.371-.977,1.3,1.3,0,0,1,1.016-.469,1.317,1.317,0,0,1,1.035.469,1.367,1.367,0,0,1,.391.977.369.369,0,0,1-.02.117q-.02.469-.02.859v2.734a.242.242,0,0,0,.176.254A66.331,66.331,0,0,1,16.016-7.969ZM28.223-9.961a1.167,1.167,0,0,1-.1-.449,1.257,1.257,0,0,1,.1-.488,1.124,1.124,0,0,1,.684-.605,1.25,1.25,0,0,1,.43-.078,1.252,1.252,0,0,1,.566.137,1.258,1.258,0,0,1,.664.7q.41,1.016.762,2.012a1.25,1.25,0,0,1,.078.43,1.213,1.213,0,0,1-.137.547,1.258,1.258,0,0,1-.723.645,1.2,1.2,0,0,1-.41.078,1.213,1.213,0,0,1-.547-.137,1.271,1.271,0,0,1-.625-.723Q28.613-8.945,28.223-9.961Zm6.23.078a1.341,1.341,0,0,1,.586-.879,1.2,1.2,0,0,1,.645-.2,1.353,1.353,0,0,1,.391.059,1.43,1.43,0,0,1,.84.742,1.408,1.408,0,0,1,.176.664,1.3,1.3,0,0,1-.078.449q0,.059-.02.059a15.853,15.853,0,0,1-2.715,5.859A15.22,15.22,0,0,1,28.945,1.23a1.828,1.828,0,0,1-.859.215,2.3,2.3,0,0,1-.41-.039A2.179,2.179,0,0,1,26.523.762.87.87,0,0,1,26.27.156a1.8,1.8,0,0,1,.02-.254,1,1,0,0,1,.605-.684,13.816,13.816,0,0,0,2.891-1.553,11.457,11.457,0,0,0,2.344-2.139A12.334,12.334,0,0,0,34.453-9.883ZM23.594-8.828a1.21,1.21,0,0,1-.1-.469,1.21,1.21,0,0,1,.1-.469,1.119,1.119,0,0,1,.664-.645,1.475,1.475,0,0,1,.469-.078,1.617,1.617,0,0,1,.547.1,1.32,1.32,0,0,1,.7.723q.43,1,.879,2.168a1.21,1.21,0,0,1,.1.469,1.245,1.245,0,0,1-.117.527,1.32,1.32,0,0,1-.742.684,1.3,1.3,0,0,1-.449.078,1.336,1.336,0,0,1-.527-.117,1.248,1.248,0,0,1-.664-.723Q24-7.812,23.594-8.828Zm33.633-4.687a1.086,1.086,0,0,0,.791-.342,1.108,1.108,0,0,0,.342-.811,1.124,1.124,0,0,0-.332-.811,1.076,1.076,0,0,0-.8-.342,1.13,1.13,0,0,0-.83.342,1.108,1.108,0,0,0-.342.811,1.108,1.108,0,0,0,.342.811A1.13,1.13,0,0,0,57.227-13.516ZM44.453-14.2h9.258a8.37,8.37,0,0,0,.957-.059q.2-.02.156-.215v-.2a2.292,2.292,0,0,1,.7-1.68,2.315,2.315,0,0,1,1.7-.7,2.292,2.292,0,0,1,1.68.7,2.292,2.292,0,0,1,.7,1.68,2.292,2.292,0,0,1-.7,1.68,2.292,2.292,0,0,1-1.68.7h-.078a.212.212,0,0,0-.234.176l-.117.41a19.908,19.908,0,0,1-2.988,7.285A15.426,15.426,0,0,1,47.266.547a2.29,2.29,0,0,1-.82.156,2.7,2.7,0,0,1-.566-.059A2.372,2.372,0,0,1,44.668-.1a.893.893,0,0,1-.254-.625,1.211,1.211,0,0,1,.039-.293,1,1,0,0,1,.684-.7,12.944,12.944,0,0,0,6.289-4.258A10.981,10.981,0,0,0,52.9-8.564a14.228,14.228,0,0,0,.85-2.861.136.136,0,0,0-.039-.137.169.169,0,0,0-.117-.059H44.453q-.469,0-.957.02h-.059a1.279,1.279,0,0,1-.937-.391,1.244,1.244,0,0,1-.43-.957,1.186,1.186,0,0,1,.43-.937,1.3,1.3,0,0,1,.9-.352h.078Q44.063-14.2,44.453-14.2Zm30.371,1.055a1.224,1.224,0,0,0-.371.9,1.224,1.224,0,0,0,.371.9,1.224,1.224,0,0,0,.9.371,1.224,1.224,0,0,0,.9-.371,1.224,1.224,0,0,0,.371-.9,1.224,1.224,0,0,0-.371-.9,1.224,1.224,0,0,0-.9-.371A1.224,1.224,0,0,0,74.824-13.145Zm-.937,2.734a2.482,2.482,0,0,1-.742-1.826,2.53,2.53,0,0,1,.752-1.846,2.47,2.47,0,0,1,1.826-.762,2.5,2.5,0,0,1,1.836.762,2.514,2.514,0,0,1,.762,1.846,2.45,2.45,0,0,1-.762,1.826,2.536,2.536,0,0,1-1.836.742A2.536,2.536,0,0,1,73.887-10.41ZM64.023-4.668a1.319,1.319,0,0,1-1.016.605h-.156a1.312,1.312,0,0,1-.957-.41,1.554,1.554,0,0,1-.449-1.113,1.645,1.645,0,0,1,.527-1.23,5.5,5.5,0,0,0,.391-.391q.312-.313.82-.889t.9-1.055q.391-.479,1.1-1.338t1.006-1.23a2.651,2.651,0,0,1,1.8-1.133.321.321,0,0,1,.1-.02,3.425,3.425,0,0,1,2.031.977A50.325,50.325,0,0,1,74.2-7.832q.332.352,1.113,1.191T76.8-5.029q.7.771,1.27,1.416a1.646,1.646,0,0,1,.449,1.152,1.632,1.632,0,0,1-.469,1.172,1.241,1.241,0,0,1-.977.449h-.059A1.356,1.356,0,0,1,76-1.367q-1.8-2.227-3.3-3.984Q71.719-6.523,70.635-7.7a21.905,21.905,0,0,0-1.611-1.621,1.435,1.435,0,0,0-.82-.449.056.056,0,0,0-.039.02q-.332.02-.762.547-.352.449-.9,1.182T65.283-6.377q-.674.908-.928,1.26Q64.2-4.9,64.023-4.668ZM83.4-6.191h-.039a1.476,1.476,0,0,1-1.055-.43,1.386,1.386,0,0,1-.469-1.064A1.447,1.447,0,0,1,82.3-8.77a1.445,1.445,0,0,1,1.035-.41H83.4q.938.039,1.66.039H95.8q.371,0,.781-.02h.059a1.445,1.445,0,0,1,1.035.41A1.375,1.375,0,0,1,98.145-7.7a1.4,1.4,0,0,1-.469,1.074,1.445,1.445,0,0,1-1.035.41H85.059Q84.258-6.211,83.4-6.191Zm30.02-7.715a.785.785,0,0,1-.117-.41.574.574,0,0,1,.039-.215.709.709,0,0,1,.41-.488,1.25,1.25,0,0,1,.43-.078,1.284,1.284,0,0,1,.313.039,1.059,1.059,0,0,1,.586.449q.469.762.9,1.523a.754.754,0,0,1,.117.391.736.736,0,0,1-.059.293.822.822,0,0,1-.488.508,1,1,0,0,1-.371.078,1.106,1.106,0,0,1-.352-.059.952.952,0,0,1-.547-.508Q113.848-13.223,113.418-13.906Zm2.754-.957a.733.733,0,0,1-.137-.43.684.684,0,0,1,.039-.215.7.7,0,0,1,.41-.469,1.3,1.3,0,0,1,.449-.078,1.533,1.533,0,0,1,.332.039,1.06,1.06,0,0,1,.605.449q.43.625.9,1.426a.785.785,0,0,1,.117.41.648.648,0,0,1-.059.254.766.766,0,0,1-.449.508.991.991,0,0,1-.41.1,1.051,1.051,0,0,1-.332-.059.976.976,0,0,1-.547-.469Q116.66-14.16,116.172-14.863Zm-10.586,1.992a1.2,1.2,0,0,1-.566-.8,1.211,1.211,0,0,1-.039-.293,1.332,1.332,0,0,1,.2-.684,1.43,1.43,0,0,1,.84-.586,1.533,1.533,0,0,1,.332-.039,1.265,1.265,0,0,1,.684.2q1.094.645,2.324,1.465a1.2,1.2,0,0,1,.566.84,1.931,1.931,0,0,1,.02.273,1.369,1.369,0,0,1-.215.723,1.281,1.281,0,0,1-.859.547.928.928,0,0,1-.254.039,1.227,1.227,0,0,1-.723-.234Q106.7-12.207,105.586-12.871ZM105.176.723a1.856,1.856,0,0,1-.508.078,1.945,1.945,0,0,1-.762-.156,1.962,1.962,0,0,1-.957-.879,1.1,1.1,0,0,1-.137-.527,1.167,1.167,0,0,1,.1-.449,1.063,1.063,0,0,1,.781-.625A19.837,19.837,0,0,0,109-3.809a22.074,22.074,0,0,0,3.916-2.783,19.343,19.343,0,0,0,3.037-3.389.932.932,0,0,1,.8-.41h.02a.838.838,0,0,1,.781.449,2.468,2.468,0,0,1,.313,1.211v.137a2.2,2.2,0,0,1-.469,1.27,24.4,24.4,0,0,1-7.031,5.938A23.537,23.537,0,0,1,105.176.723ZM102.52-8.32a1.274,1.274,0,0,1-.586-.8,1.211,1.211,0,0,1-.039-.293,1.152,1.152,0,0,1,.215-.664,1.335,1.335,0,0,1,.84-.605,1.533,1.533,0,0,1,.332-.039,1.332,1.332,0,0,1,.684.2q1.152.664,2.324,1.426a1.263,1.263,0,0,1,.586.84,2.369,2.369,0,0,1,.02.293,1.3,1.3,0,0,1-.215.723,1.253,1.253,0,0,1-.84.566,1.211,1.211,0,0,1-.293.039,1.2,1.2,0,0,1-.7-.234Q103.613-7.676,102.52-8.32Z" transform="translate(-6.23 17.051)" fill="#4e9174"/>
</svg>
