<svg xmlns="http://www.w3.org/2000/svg" width="196.074" height="18.457" viewBox="0 0 196.074 18.457">
  <path id="パス_6898" data-name="パス 6898" d="M17.227-13.516a1.086,1.086,0,0,0,.791-.342,1.108,1.108,0,0,0,.342-.811,1.124,1.124,0,0,0-.332-.811,1.076,1.076,0,0,0-.8-.342,1.13,1.13,0,0,0-.83.342,1.108,1.108,0,0,0-.342.811,1.108,1.108,0,0,0,.342.811A1.13,1.13,0,0,0,17.227-13.516ZM4.453-14.2h9.258a8.37,8.37,0,0,0,.957-.059q.2-.02.156-.215v-.2a2.292,2.292,0,0,1,.7-1.68,2.315,2.315,0,0,1,1.7-.7,2.292,2.292,0,0,1,1.68.7,2.292,2.292,0,0,1,.7,1.68,2.292,2.292,0,0,1-.7,1.68,2.292,2.292,0,0,1-1.68.7h-.078a.212.212,0,0,0-.234.176l-.117.41a19.908,19.908,0,0,1-2.988,7.285A15.426,15.426,0,0,1,7.266.547,2.29,2.29,0,0,1,6.445.7,2.7,2.7,0,0,1,5.879.645,2.372,2.372,0,0,1,4.668-.1a.893.893,0,0,1-.254-.625,1.211,1.211,0,0,1,.039-.293,1,1,0,0,1,.684-.7,12.944,12.944,0,0,0,6.289-4.258A10.981,10.981,0,0,0,12.9-8.564a14.228,14.228,0,0,0,.85-2.861.136.136,0,0,0-.039-.137.169.169,0,0,0-.117-.059H4.453q-.469,0-.957.02H3.438a1.279,1.279,0,0,1-.937-.391,1.244,1.244,0,0,1-.43-.957,1.186,1.186,0,0,1,.43-.937,1.3,1.3,0,0,1,.9-.352h.078Q4.063-14.2,4.453-14.2Zm30.82,3.75a3.014,3.014,0,0,1,.332-.02,3,3,0,0,1,1.582.371,1.1,1.1,0,0,1,.488.664,1.559,1.559,0,0,1,.059.41,1.419,1.419,0,0,1-.078.449,14.554,14.554,0,0,1-2.91,5.41A14.4,14.4,0,0,1,29.023.684,1.978,1.978,0,0,1,28.3.82a2.266,2.266,0,0,1-.586-.078A2.466,2.466,0,0,1,26.6.039a.886.886,0,0,1-.234-.586.837.837,0,0,1,.059-.293.894.894,0,0,1,.645-.625,12.508,12.508,0,0,0,5.469-3.145,8.456,8.456,0,0,0,1.992-3.262.116.116,0,0,0-.01-.137.14.14,0,0,0-.107-.059H24.941q-.469,0-1.016.02h-.059a1.25,1.25,0,0,1-.859-.332,1.133,1.133,0,0,1-.391-.879,1.133,1.133,0,0,1,.391-.879,1.181,1.181,0,0,1,.84-.332h.078q.566.02,1.016.02H35.273Zm-9.531-2.363h-.02a1.235,1.235,0,0,1-.879-.352,1.173,1.173,0,0,1-.391-.879,1.133,1.133,0,0,1,.391-.879,1.25,1.25,0,0,1,.859-.332h.039q.371.02.8.02h7.7q.449,0,.879-.02h.039a1.25,1.25,0,0,1,.859.332,1.133,1.133,0,0,1,.391.879,1.173,1.173,0,0,1-.391.879,1.235,1.235,0,0,1-.879.352H25.742ZM52.559-10.02a.323.323,0,0,0-.156.293v7.988l.02,1.113A1.531,1.531,0,0,1,52.031.41,1.317,1.317,0,0,1,51,.879,1.375,1.375,0,0,1,49.941.41a1.49,1.49,0,0,1-.41-1.035l.02-1.113V-8.105a.12.12,0,0,0-.049-.1.112.112,0,0,0-.127,0A38.872,38.872,0,0,1,44.043-6a1.617,1.617,0,0,1-.547.1,1.548,1.548,0,0,1-.625-.137,1.756,1.756,0,0,1-.918-.762,1.1,1.1,0,0,1-.137-.527,1.2,1.2,0,0,1,.078-.41,1.055,1.055,0,0,1,.723-.625,28.771,28.771,0,0,0,7.715-3.281,22.1,22.1,0,0,0,4.277-3.437,1.591,1.591,0,0,1,1-.469h.117a1.3,1.3,0,0,1,.9.352,1.32,1.32,0,0,1,.449,1.016,1.271,1.271,0,0,1-.41.957A31.684,31.684,0,0,1,52.559-10.02ZM74.473-14.57a.867.867,0,0,1-.1-.391.684.684,0,0,1,.039-.215.65.65,0,0,1,.391-.449A1.045,1.045,0,0,1,75.2-15.7a1.284,1.284,0,0,1,.313.039,1,1,0,0,1,.547.43q.352.566.723,1.25a.753.753,0,0,1,.1.371.689.689,0,0,1-.059.273.767.767,0,0,1-.43.469,1,1,0,0,1-.371.078.885.885,0,0,1-.312-.059.9.9,0,0,1-.527-.449Q74.785-14.062,74.473-14.57Zm2.383-.918a.685.685,0,0,1-.078-.6.648.648,0,0,1,.391-.439.867.867,0,0,1,.391-.1.885.885,0,0,1,.313.059.9.9,0,0,1,.547.43q.391.586.742,1.23a.753.753,0,0,1,.1.371.991.991,0,0,1-.039.273.767.767,0,0,1-.43.469,1,1,0,0,1-.371.078.885.885,0,0,1-.312-.059.9.9,0,0,1-.527-.449Q77.227-14.883,76.855-15.488ZM63.848-6.211a28.994,28.994,0,0,0,1.7-6.133,1.4,1.4,0,0,1,.586-.937,1.242,1.242,0,0,1,.781-.273,1.211,1.211,0,0,1,.293.039,1.316,1.316,0,0,1,.9.625,1.44,1.44,0,0,1,.234.781,1.533,1.533,0,0,1-.039.332q-.078.332-.117.566-.234,1.133-.732,2.91T66.484-5.2A27.177,27.177,0,0,1,64.336-.762,1.642,1.642,0,0,1,63.359,0a1.783,1.783,0,0,1-.527.078,1.631,1.631,0,0,1-.7-.156,1.117,1.117,0,0,1-.7-.781,1.616,1.616,0,0,1-.039-.352,1.181,1.181,0,0,1,.215-.684A24.033,24.033,0,0,0,63.848-6.211Zm9.863-.43q-.957-2.637-2.246-5.332a1.178,1.178,0,0,1-.137-.527,1.211,1.211,0,0,1,.1-.469,1.173,1.173,0,0,1,.723-.684,1.719,1.719,0,0,1,.508-.078,1.769,1.769,0,0,1,.625.117,1.507,1.507,0,0,1,.82.781Q75.488-9.98,76.426-7.52q.859,2.168,1.895,5.488a1.475,1.475,0,0,1,.078.469,1.47,1.47,0,0,1-.2.723,1.481,1.481,0,0,1-.918.781,1.475,1.475,0,0,1-.469.078,1.332,1.332,0,0,1-.684-.2,1.43,1.43,0,0,1-.7-.918A56.69,56.69,0,0,0,73.711-6.641Zm12.148-6.328a1.189,1.189,0,0,1-.586-.8,1.211,1.211,0,0,1-.039-.293,1.243,1.243,0,0,1,.215-.684,1.333,1.333,0,0,1,.859-.586,1.284,1.284,0,0,1,.313-.039,1.365,1.365,0,0,1,.7.2q1.113.684,2.3,1.445a1.262,1.262,0,0,1,.566.859,1.931,1.931,0,0,1,.02.273,1.227,1.227,0,0,1-.234.723,1.2,1.2,0,0,1-.84.566,1.931,1.931,0,0,1-.273.02,1.4,1.4,0,0,1-.742-.215Q86.914-12.324,85.859-12.969ZM85.43.645a1.719,1.719,0,0,1-.508.078A1.721,1.721,0,0,1,84.18.547,2.09,2.09,0,0,1,83.2-.312a1.178,1.178,0,0,1-.137-.527,1.211,1.211,0,0,1,.1-.469,1.063,1.063,0,0,1,.781-.625,20.958,20.958,0,0,0,5.332-1.953A22.074,22.074,0,0,0,93.193-6.67a19.343,19.343,0,0,0,3.037-3.389.92.92,0,0,1,.8-.43h.02a.879.879,0,0,1,.781.469,2.355,2.355,0,0,1,.332,1.211.574.574,0,0,1-.02.137,2.2,2.2,0,0,1-.469,1.27,24.3,24.3,0,0,1-7.031,5.918A23.357,23.357,0,0,1,85.43.645ZM82.793-8.418a1.27,1.27,0,0,1-.586-.781,1.284,1.284,0,0,1-.039-.312,1.232,1.232,0,0,1,.2-.664,1.41,1.41,0,0,1,.859-.605,1.616,1.616,0,0,1,.352-.039,1.332,1.332,0,0,1,.684.2q1.133.664,2.285,1.426a1.263,1.263,0,0,1,.586.84,2.369,2.369,0,0,1,.02.293,1.3,1.3,0,0,1-.215.723,1.253,1.253,0,0,1-.84.566,1.211,1.211,0,0,1-.293.039,1.2,1.2,0,0,1-.7-.234Q83.809-7.813,82.793-8.418ZM103.4-6.191h-.039a1.476,1.476,0,0,1-1.055-.43,1.386,1.386,0,0,1-.469-1.064A1.447,1.447,0,0,1,102.3-8.77a1.445,1.445,0,0,1,1.035-.41h.059q.938.039,1.66.039H115.8q.371,0,.781-.02h.059a1.445,1.445,0,0,1,1.035.41,1.375,1.375,0,0,1,.469,1.055,1.4,1.4,0,0,1-.469,1.074,1.445,1.445,0,0,1-1.035.41H105.059Q104.258-6.211,103.4-6.191Zm33.2-9.883a1.06,1.06,0,0,0-.781.313,1.037,1.037,0,0,0-.312.762,1.069,1.069,0,0,0,.313.771,1.043,1.043,0,0,0,.781.322,1.021,1.021,0,0,0,.762-.322,1.069,1.069,0,0,0,.313-.771,1.037,1.037,0,0,0-.312-.762A1.037,1.037,0,0,0,136.6-16.074Zm1.621,2.715a2.174,2.174,0,0,1-1.621.684,2.238,2.238,0,0,1-1.641-.684A2.237,2.237,0,0,1,134.277-15a2.206,2.206,0,0,1,.684-1.631A2.254,2.254,0,0,1,136.6-17.3a2.221,2.221,0,0,1,1.631.674A2.221,2.221,0,0,1,138.906-15,2.237,2.237,0,0,1,138.223-13.359ZM123.965-7.148a1.349,1.349,0,0,1,.762-.605,1.2,1.2,0,0,1,.41-.078,1.289,1.289,0,0,1,.547.117,1.118,1.118,0,0,1,.625.7,1.106,1.106,0,0,1,.059.352,1.127,1.127,0,0,1-.156.566,32.558,32.558,0,0,1-2.4,3.5,1.388,1.388,0,0,1-.918.508.994.994,0,0,1-.2.02,1.351,1.351,0,0,1-.82-.273,1.051,1.051,0,0,1-.469-.8v-.117a1.118,1.118,0,0,1,.293-.762A22.212,22.212,0,0,0,123.965-7.148Zm12.051-2.871h-4.473a.173.173,0,0,0-.2.2v9.1A1.8,1.8,0,0,1,130.82.664a2.225,2.225,0,0,1-1.562.488q-1.016,0-2.012-.059a1.413,1.413,0,0,1-.928-.42,1.5,1.5,0,0,1-.439-.928V-.371a.937.937,0,0,1,.293-.684,1.04,1.04,0,0,1,.7-.273h.117q.586.059.977.059a.841.841,0,0,0,.566-.156.706.706,0,0,0,.176-.547q.02-.742.02-7.852a.173.173,0,0,0-.2-.2h-5.527a1.3,1.3,0,0,1-.9-.352,1.194,1.194,0,0,1-.391-.9,1.133,1.133,0,0,1,.391-.879,1.269,1.269,0,0,1,.84-.312h.1q.332.02.605.02h4.883a.173.173,0,0,0,.2-.2v-1.758a1.4,1.4,0,0,1,.352-.937,1.221,1.221,0,0,1,.957-.449,1.185,1.185,0,0,1,.957.449,1.328,1.328,0,0,1,.352.918v1.777a.173.173,0,0,0,.2.2H136q.293,0,.664-.02h.078a1.226,1.226,0,0,1,.84.332,1.075,1.075,0,0,1,.391.859,1.194,1.194,0,0,1-.391.9,1.259,1.259,0,0,1-.9.352h-.664Zm-2.051,3.906a1.107,1.107,0,0,1-.2-.625,1.8,1.8,0,0,1,.02-.254,1.071,1.071,0,0,1,.547-.723A1.334,1.334,0,0,1,135-7.891a1.533,1.533,0,0,1,.332.039,1.3,1.3,0,0,1,.82.547q1,1.406,2.012,3.105a1.2,1.2,0,0,1,.2.645,1.106,1.106,0,0,1-.059.352,1.25,1.25,0,0,1-.645.8,1.271,1.271,0,0,1-.605.156,1.559,1.559,0,0,1-.41-.059,1.246,1.246,0,0,1-.781-.645Q134.883-4.727,133.965-6.113Zm10.02-7.773a1.44,1.44,0,0,1,.4-1.016,1.3,1.3,0,0,1,.986-.43,1.326,1.326,0,0,1,1,.43,1.445,1.445,0,0,1,.41,1.035v7.09a1.422,1.422,0,0,1-.41,1.016,1.32,1.32,0,0,1-1.016.449,1.3,1.3,0,0,1-1-.449,1.367,1.367,0,0,1-.391-.977.15.15,0,0,1,.02-.059v-7.031Zm9.238-.2a1.432,1.432,0,0,1,.371-1,1.279,1.279,0,0,1,.977-.449,1.32,1.32,0,0,1,1.016.449,1.391,1.391,0,0,1,.391,1v4.531a15.908,15.908,0,0,1-.557,4.736,8.25,8.25,0,0,1-1.768,3.037A10.185,10.185,0,0,1,150.215.586a2.29,2.29,0,0,1-.82.156,2.171,2.171,0,0,1-.488-.059A2.3,2.3,0,0,1,147.754.02a.85.85,0,0,1-.254-.586.991.991,0,0,1,.039-.273.894.894,0,0,1,.625-.645A8.383,8.383,0,0,0,151.6-3.594a5.593,5.593,0,0,0,1.3-2.383,16.478,16.478,0,0,0,.322-3.75v-4.355Zm12.637,1.113a1.189,1.189,0,0,1-.586-.8,1.211,1.211,0,0,1-.039-.293,1.243,1.243,0,0,1,.215-.684,1.333,1.333,0,0,1,.859-.586,1.284,1.284,0,0,1,.313-.039,1.365,1.365,0,0,1,.7.2q1.113.684,2.3,1.445a1.262,1.262,0,0,1,.566.859,1.932,1.932,0,0,1,.02.273,1.227,1.227,0,0,1-.234.723,1.2,1.2,0,0,1-.84.566,1.931,1.931,0,0,1-.273.02,1.4,1.4,0,0,1-.742-.215Q166.914-12.324,165.859-12.969ZM165.43.645a1.719,1.719,0,0,1-.508.078,1.721,1.721,0,0,1-.742-.176,2.09,2.09,0,0,1-.977-.859,1.178,1.178,0,0,1-.137-.527,1.21,1.21,0,0,1,.1-.469,1.063,1.063,0,0,1,.781-.625,20.958,20.958,0,0,0,5.332-1.953,22.074,22.074,0,0,0,3.916-2.783,19.343,19.343,0,0,0,3.037-3.389.92.92,0,0,1,.8-.43h.02a.879.879,0,0,1,.781.469,2.355,2.355,0,0,1,.332,1.211.574.574,0,0,1-.02.137,2.2,2.2,0,0,1-.469,1.27,24.3,24.3,0,0,1-7.031,5.918A23.357,23.357,0,0,1,165.43.645Zm-2.637-9.062a1.269,1.269,0,0,1-.586-.781,1.284,1.284,0,0,1-.039-.312,1.232,1.232,0,0,1,.2-.664,1.41,1.41,0,0,1,.859-.605,1.616,1.616,0,0,1,.352-.039,1.332,1.332,0,0,1,.684.2q1.133.664,2.285,1.426a1.263,1.263,0,0,1,.586.84,2.37,2.37,0,0,1,.02.293,1.3,1.3,0,0,1-.215.723,1.253,1.253,0,0,1-.84.566,1.211,1.211,0,0,1-.293.039,1.2,1.2,0,0,1-.7-.234Q163.809-7.813,162.793-8.418ZM183.4-6.191h-.039a1.476,1.476,0,0,1-1.055-.43,1.386,1.386,0,0,1-.469-1.064A1.447,1.447,0,0,1,182.3-8.77a1.445,1.445,0,0,1,1.035-.41h.059q.938.039,1.66.039H195.8q.371,0,.781-.02h.059a1.445,1.445,0,0,1,1.035.41,1.375,1.375,0,0,1,.469,1.055,1.4,1.4,0,0,1-.469,1.074,1.445,1.445,0,0,1-1.035.41H185.059Q184.258-6.211,183.4-6.191Z" transform="translate(-2.07 17.305)" fill="#4e9174"/>
</svg>
