<svg xmlns="http://www.w3.org/2000/svg" width="77.852" height="18.438" viewBox="0 0 77.852 18.438">
  <path id="パス_6883" data-name="パス 6883" d="M8.359-16.055a1.676,1.676,0,0,1,1.445-.8,1.816,1.816,0,0,1,1.5.762,23.232,23.232,0,0,0,3.32,3.545A22.568,22.568,0,0,0,18.5-9.8a.779.779,0,0,1,.41.566.905.905,0,0,1,.02.176.829.829,0,0,1-.176.508,1.21,1.21,0,0,1-.684.469,1.423,1.423,0,0,1-.234.02,1.025,1.025,0,0,1-.547-.156,29.528,29.528,0,0,1-4.092-3.125,21.415,21.415,0,0,1-3.174-3.5A.131.131,0,0,0,9.9-14.9a.131.131,0,0,0-.117.059,20.333,20.333,0,0,1-3.047,3.525,28.114,28.114,0,0,1-4.1,3.213.9.9,0,0,1-.508.156.684.684,0,0,1-.215-.039,1.081,1.081,0,0,1-.645-.391.829.829,0,0,1-.176-.508v-.137a.723.723,0,0,1,.371-.547,24.465,24.465,0,0,0,3.9-3.008A20.085,20.085,0,0,0,8.359-16.055ZM11.289-5.2a.173.173,0,0,0-.2.2V-.859a.173.173,0,0,0,.2.2h6.328a.811.811,0,0,1,.6.244.811.811,0,0,1,.244.6.811.811,0,0,1-.244.6.811.811,0,0,1-.6.244H2.422a.811.811,0,0,1-.6-.244.811.811,0,0,1-.244-.6.811.811,0,0,1,.244-.6.811.811,0,0,1,.6-.244H3.75a.173.173,0,0,0,.2-.2V-6.934a.865.865,0,0,1,.264-.635.877.877,0,0,1,.645-.264.877.877,0,0,1,.645.264.865.865,0,0,1,.264.635V-.859a.173.173,0,0,0,.2.2H8.945a.173.173,0,0,0,.2-.2v-9.512a.976.976,0,0,1,.283-.7.927.927,0,0,1,.693-.293.927.927,0,0,1,.693.293.976.976,0,0,1,.283.7v3.3a.173.173,0,0,0,.2.2H15.8a.811.811,0,0,1,.6.244.811.811,0,0,1,.244.6.811.811,0,0,1-.244.6.811.811,0,0,1-.6.244Zm21.367-6.445a.1.1,0,0,0,0-.117.131.131,0,0,0-.117-.059h-4.98a.115.115,0,0,0-.1.059q-.039.059,0,.1a8.182,8.182,0,0,1,.566,1.113.379.379,0,0,1-.01.381.448.448,0,0,1-.322.225v.02H31.66a.316.316,0,0,0,.293-.176A16.622,16.622,0,0,0,32.656-11.641Zm5.879,7.246a.76.76,0,0,1,.234.557.729.729,0,0,1-.234.547.766.766,0,0,1-.547.225H32.7q-.039,0-.059.049t.02.068A17.065,17.065,0,0,0,38.262-.566a.6.6,0,0,1,.449.41.684.684,0,0,1,.039.215.621.621,0,0,1-.137.391A1.558,1.558,0,0,1,37.891,1a1.074,1.074,0,0,1-.449.1,1.045,1.045,0,0,1-.391-.078A16.761,16.761,0,0,1,31.035-2.3a.113.113,0,0,0-.107-.02.076.076,0,0,0-.049.078V.664a.888.888,0,0,1-.264.654.92.92,0,0,1-1.289,0,.888.888,0,0,1-.264-.654V-2.109a.076.076,0,0,0-.049-.078.113.113,0,0,0-.107.02,18.862,18.862,0,0,1-6,3.184,1.353,1.353,0,0,1-.391.059A1.25,1.25,0,0,1,22.09,1a1.5,1.5,0,0,1-.684-.527A.6.6,0,0,1,21.27.1a1.315,1.315,0,0,1,.02-.215.551.551,0,0,1,.43-.391,18.323,18.323,0,0,0,5.605-2.441q.039-.02.02-.068t-.059-.049H22.07a.733.733,0,0,1-.537-.225.744.744,0,0,1-.225-.547.777.777,0,0,1,.225-.557.718.718,0,0,1,.537-.234h6.8a.173.173,0,0,0,.2-.2v-.82a.173.173,0,0,0-.2-.2h-5a.678.678,0,0,1-.5-.205.678.678,0,0,1-.205-.5.678.678,0,0,1,.205-.5.678.678,0,0,1,.5-.205h5a.173.173,0,0,0,.2-.2v-.8a.173.173,0,0,0-.2-.2H22.93a.717.717,0,0,1-.527-.215.717.717,0,0,1-.215-.527.717.717,0,0,1,.215-.527.717.717,0,0,1,.527-.215h3.164A.14.14,0,0,0,26.2-9.98a.09.09,0,0,0,.01-.117,9.566,9.566,0,0,0-.566-1.27.311.311,0,0,1,.01-.273.327.327,0,0,1,.225-.176H22.168a.74.74,0,0,1-.557-.234.777.777,0,0,1-.225-.557.744.744,0,0,1,.225-.547.756.756,0,0,1,.557-.225h1.973a.131.131,0,0,0,.117-.059.1.1,0,0,0,0-.117,13.1,13.1,0,0,0-.918-1.8.672.672,0,0,1-.068-.6.617.617,0,0,1,.42-.4,1.135,1.135,0,0,1,.361-.059,1.135,1.135,0,0,1,.361.059,1,1,0,0,1,.566.43,14.189,14.189,0,0,1,.723,1.27.867.867,0,0,1,.1.391.819.819,0,0,1-.078.332.882.882,0,0,1-.547.508v.02a.017.017,0,0,0,.02.02H27.09a.173.173,0,0,0,.2-.2v-2.363a.827.827,0,0,1,.254-.605.838.838,0,0,1,.615-.254.838.838,0,0,1,.615.254.827.827,0,0,1,.254.605v2.363a.173.173,0,0,0,.2.2H30.8a.173.173,0,0,0,.2-.2v-2.344a.834.834,0,0,1,.264-.625.871.871,0,0,1,.625-.254.838.838,0,0,1,.615.254.849.849,0,0,1,.254.625v2.344a.173.173,0,0,0,.2.2h1.895v-.02a.62.62,0,0,1-.361-.352.519.519,0,0,1,.029-.488,15.706,15.706,0,0,0,.684-1.426,1.2,1.2,0,0,1,.547-.586,1.2,1.2,0,0,1,.508-.117,1.931,1.931,0,0,1,.273.02.759.759,0,0,1,.508.449.736.736,0,0,1,.059.293.831.831,0,0,1-.1.371q-.566.977-1.055,1.7a.077.077,0,0,0-.01.1.094.094,0,0,0,.088.059H37.93a.733.733,0,0,1,.537.225.744.744,0,0,1,.225.547.777.777,0,0,1-.225.557.718.718,0,0,1-.537.234H35.039a.316.316,0,0,0-.293.176q-.352.605-.918,1.543a.11.11,0,0,0-.01.117.094.094,0,0,0,.088.059h3.32a.727.727,0,0,1,.518.215.7.7,0,0,1,.225.527.7.7,0,0,1-.225.527.727.727,0,0,1-.518.215H31.074a.173.173,0,0,0-.2.2v.8a.173.173,0,0,0,.2.2h5.254a.656.656,0,0,1,.479.205.678.678,0,0,1,.205.5.678.678,0,0,1-.205.5.656.656,0,0,1-.479.205H31.074a.173.173,0,0,0-.2.2v.82a.173.173,0,0,0,.2.2h6.914A.75.75,0,0,1,38.535-4.395Zm3.633-3.633a.652.652,0,0,1-.342.43.7.7,0,0,1-.547.049.75.75,0,0,1-.439-.361.831.831,0,0,1-.1-.371.684.684,0,0,1,.039-.215,27.581,27.581,0,0,0,.605-3.75.615.615,0,0,1,.234-.449.605.605,0,0,1,.488-.137.687.687,0,0,1,.469.264.7.7,0,0,1,.156.5A29.084,29.084,0,0,1,42.168-8.027Zm4.648-3.77a.7.7,0,0,1-.029.547.845.845,0,0,1-.4.41.581.581,0,0,1-.5.01.623.623,0,0,1-.342-.381q-.332-1.016-.723-1.953a.066.066,0,0,0-.049-.02q-.029,0-.029.039V.7a.827.827,0,0,1-.254.605.827.827,0,0,1-.605.254.8.8,0,0,1-.6-.254A.843.843,0,0,1,43.047.7V-15.937a.811.811,0,0,1,.244-.6.811.811,0,0,1,.6-.244.843.843,0,0,1,.605.244.8.8,0,0,1,.254.6v2.3a.079.079,0,0,0,.039.078.083.083,0,0,0,.078,0,1.25,1.25,0,0,1,.43-.078,1.419,1.419,0,0,1,.449.078,1.132,1.132,0,0,1,.625.625Q46.641-12.285,46.816-11.8Zm2.461,8.809a.173.173,0,0,0,.2.2H55.7a.173.173,0,0,0,.2-.2v-.859a.173.173,0,0,0-.2-.2h-6.23a.173.173,0,0,0-.2.2ZM55.9-6.465a.173.173,0,0,0-.2-.2h-6.23a.173.173,0,0,0-.2.2v.84a.173.173,0,0,0,.2.2H55.7a.173.173,0,0,0,.2-.2Zm.059-1.6a1.637,1.637,0,0,1,1.2.5,1.637,1.637,0,0,1,.5,1.2V-.332A2.538,2.538,0,0,1,57.49.684a1.053,1.053,0,0,1-.615.547,6.307,6.307,0,0,1-2.09.293h-.02a.933.933,0,0,1-.625-.234A1.376,1.376,0,0,1,53.711.7.592.592,0,0,1,53.8.186a.465.465,0,0,1,.439-.225h1.309a.5.5,0,0,0,.273-.088A.313.313,0,0,0,55.9-.371v-.9a.173.173,0,0,0-.2-.2h-6.23a.173.173,0,0,0-.2.2V.7a.827.827,0,0,1-.254.605.849.849,0,0,1-1.211,0A.827.827,0,0,1,47.559.7v-7.07a1.637,1.637,0,0,1,.5-1.2,1.637,1.637,0,0,1,1.2-.5Zm-2.48-2.559a.173.173,0,0,0,.2.2h4.785a.656.656,0,0,1,.479.205.667.667,0,0,1,.205.488.667.667,0,0,1-.205.488.656.656,0,0,1-.479.205h-11.6a.678.678,0,0,1-.5-.205.667.667,0,0,1-.205-.488.667.667,0,0,1,.205-.488.678.678,0,0,1,.5-.205h4.59a.173.173,0,0,0,.2-.2v-.762a.173.173,0,0,0-.2-.2H47.91a.623.623,0,0,1-.459-.186.623.623,0,0,1-.186-.459.623.623,0,0,1,.186-.459.623.623,0,0,1,.459-.186h3.535a.173.173,0,0,0,.2-.2v-.664a.173.173,0,0,0-.2-.2H47.461a.672.672,0,0,1-.479-.2.646.646,0,0,1-.205-.488.646.646,0,0,1,.205-.488.672.672,0,0,1,.479-.2h4.023a.138.138,0,0,0,.156-.156v-.41a.872.872,0,0,1,.273-.654.91.91,0,0,1,.654-.264.877.877,0,0,1,.645.264.888.888,0,0,1,.264.654v.41a.138.138,0,0,0,.156.156h4.219a.662.662,0,0,1,.488.2.662.662,0,0,1,.2.488.662.662,0,0,1-.2.488.662.662,0,0,1-.488.2h-4.18a.173.173,0,0,0-.2.2v.664a.173.173,0,0,0,.2.2h3.691a.656.656,0,0,1,.469.186.608.608,0,0,1,.2.459.608.608,0,0,1-.2.459.656.656,0,0,1-.469.186H53.672a.173.173,0,0,0-.2.2ZM66.895-7.4v-.02a.5.5,0,0,1-.361-.283.592.592,0,0,1-.029-.459q.352-.9.566-1.621a.147.147,0,0,0-.029-.137.14.14,0,0,0-.107-.059H63.848a.115.115,0,0,0-.1.059.129.129,0,0,0-.02.117,9.87,9.87,0,0,1,.586,1.621.62.62,0,0,1-.078.479.6.6,0,0,1-.391.283v.02Zm-.469-5.9a.173.173,0,0,0-.2.2v1.348a.173.173,0,0,0,.2.2h2.52a.772.772,0,0,1,.566.234.76.76,0,0,1,.234.557.76.76,0,0,1-.234.557.772.772,0,0,1-.566.234h-.977v.02a.649.649,0,0,1,.449.361.686.686,0,0,1,.02.576q-.371.918-.645,1.465a.124.124,0,0,0,.01.107.115.115,0,0,0,.107.049h.781a.772.772,0,0,1,.566.234.772.772,0,0,1,.234.566.772.772,0,0,1-.234.566.772.772,0,0,1-.566.234H66.426a.173.173,0,0,0-.2.2v1.484a.173.173,0,0,0,.2.2h2.031A.75.75,0,0,1,69-3.691a.76.76,0,0,1,.234.557A.76.76,0,0,1,69-2.578a.75.75,0,0,1-.547.234H66.426a.173.173,0,0,0-.2.2V.645a.849.849,0,0,1-.254.625.872.872,0,0,1-1.23,0,.849.849,0,0,1-.254-.625V-2.148a.173.173,0,0,0-.2-.2H62.148a.74.74,0,0,1-.557-.234.777.777,0,0,1-.225-.557.777.777,0,0,1,.225-.557.74.74,0,0,1,.557-.234H64.3a.173.173,0,0,0,.2-.2V-5.605a.173.173,0,0,0-.2-.2H61.973a.772.772,0,0,1-.566-.234.772.772,0,0,1-.234-.566.772.772,0,0,1,.234-.566.772.772,0,0,1,.566-.234h.762a.172.172,0,0,0,.127-.049.125.125,0,0,0,.029-.127,10.15,10.15,0,0,0-.43-1.484.7.7,0,0,1,.029-.547.613.613,0,0,1,.4-.352v-.02h-1.27a.75.75,0,0,1-.547-.234.76.76,0,0,1-.234-.557.76.76,0,0,1,.234-.557.75.75,0,0,1,.547-.234H64.3a.173.173,0,0,0,.2-.2v-1.348a.173.173,0,0,0-.2-.2H62.344a.756.756,0,0,1-.557-.225.744.744,0,0,1-.225-.547.777.777,0,0,1,.225-.557.74.74,0,0,1,.557-.234H64.3a.173.173,0,0,0,.2-.2v-.82a.827.827,0,0,1,.254-.605.838.838,0,0,1,.615-.254.838.838,0,0,1,.615.254.827.827,0,0,1,.254.605v.82a.173.173,0,0,0,.2.2h1.8a.75.75,0,0,1,.547.234.76.76,0,0,1,.234.557.729.729,0,0,1-.234.547.766.766,0,0,1-.547.225Zm5.586,5.859q0-.02-.029-.01t-.029.029v7.4a.094.094,0,0,0,.059.088.11.11,0,0,0,.117-.01,9.563,9.563,0,0,0,2.09-2.129.255.255,0,0,0,.02-.312A20.8,20.8,0,0,1,72.012-7.441Zm4.668,0a.118.118,0,0,0-.029-.117.157.157,0,0,0-.127-.059H73.711a.14.14,0,0,0-.107.059.118.118,0,0,0-.029.117,16.8,16.8,0,0,0,1.621,3.5.115.115,0,0,0,.1.059.115.115,0,0,0,.1-.059A17.051,17.051,0,0,0,76.68-7.441Zm.605-1.7a.811.811,0,0,1,.527.02L78.125-9a.628.628,0,0,1,.381.313.758.758,0,0,1,.088.488,19.118,19.118,0,0,1-2.051,5.762.255.255,0,0,0,.02.313A10.414,10.414,0,0,0,78.574-.391a.724.724,0,0,1,.352.566.369.369,0,0,1,.02.117.778.778,0,0,1-.2.508,1.162,1.162,0,0,1-.645.391,1.315,1.315,0,0,1-.215.02.992.992,0,0,1-.527-.156,11.487,11.487,0,0,1-1.816-1.68q-.117-.156-.254,0A12.827,12.827,0,0,1,74.023.762a1.293,1.293,0,0,1-.82.293h-.156a1.831,1.831,0,0,1-.977-.43.056.056,0,0,1-.02-.039.064.064,0,0,0-.068,0q-.029.02-.029.039V.742a.811.811,0,0,1-.244.6.8.8,0,0,1-.586.244.832.832,0,0,1-.6-.244.8.8,0,0,1-.254-.6V-14.2a1.637,1.637,0,0,1,.5-1.2,1.637,1.637,0,0,1,1.2-.5h4.57a1.637,1.637,0,0,1,1.2.5,1.637,1.637,0,0,1,.5,1.2v2.07a2.411,2.411,0,0,1-.186,1.055,1.143,1.143,0,0,1-.693.547,6.9,6.9,0,0,1-2.344.273,1.008,1.008,0,0,1-.645-.234,1.237,1.237,0,0,1-.41-.586.576.576,0,0,1,.059-.527.507.507,0,0,1,.449-.234q.586.02.977.02.449,0,.664-.02a.662.662,0,0,0,.313-.078.281.281,0,0,0,.078-.234v-1.914a.173.173,0,0,0-.2-.2h-4.16a.173.173,0,0,0-.2.2v4.727a.173.173,0,0,0,.2.2h5.137Z" transform="translate(-1.094 16.855)"/>
</svg>
