<svg xmlns="http://www.w3.org/2000/svg" width="112.246" height="18.145" viewBox="0 0 112.246 18.145">
  <path id="パス_6880" data-name="パス 6880" d="M16.074-7.578a1.124,1.124,0,0,1,.625.664,1.167,1.167,0,0,1,.1.449A1.21,1.21,0,0,1,16.7-6a1.058,1.058,0,0,1-.645.605,1.045,1.045,0,0,1-.391.078A1.04,1.04,0,0,1,15.2-5.43,53.347,53.347,0,0,0,8.867-7.969a.147.147,0,0,0-.137.029.14.14,0,0,0-.059.107v6L8.73-.43a1.143,1.143,0,0,1-.293.781,1.057,1.057,0,0,1-.82.371A1.057,1.057,0,0,1,6.8.352,1.1,1.1,0,0,1,6.484-.43l.059-1.406V-13.4L6.5-14.512a1.118,1.118,0,0,1,.293-.762,1,1,0,0,1,.8-.371,1.057,1.057,0,0,1,.82.371,1.08,1.08,0,0,1,.313.762L8.672-13.4v2.93a.245.245,0,0,0,.2.254A66.506,66.506,0,0,1,16.074-7.578Zm12.3-2.578a.859.859,0,0,1-.078-.352.9.9,0,0,1,.078-.371.821.821,0,0,1,.547-.488.938.938,0,0,1,.332-.059,1.167,1.167,0,0,1,.449.1,1.024,1.024,0,0,1,.527.566q.488,1.289.918,2.48a.938.938,0,0,1,.059.332.89.89,0,0,1-.117.43,1.024,1.024,0,0,1-.566.527,1.051,1.051,0,0,1-.332.059.785.785,0,0,1-.41-.117.882.882,0,0,1-.488-.566Q28.867-8.906,28.379-10.156Zm6.406.2a.953.953,0,0,1,.469-.684.9.9,0,0,1,.508-.156.837.837,0,0,1,.293.059,1.073,1.073,0,0,1,.664.547,1.252,1.252,0,0,1,.137.566A1.051,1.051,0,0,1,36.8-9.3a.321.321,0,0,1-.02.1,15.9,15.9,0,0,1-2.793,6.016A15.051,15.051,0,0,1,28.5,1.191a1.589,1.589,0,0,1-.684.156,1.365,1.365,0,0,1-.332-.039A1.84,1.84,0,0,1,26.563.8a.706.706,0,0,1-.2-.488,1.228,1.228,0,0,1,.02-.2.764.764,0,0,1,.488-.547,13.832,13.832,0,0,0,2.979-1.582A11.79,11.79,0,0,0,32.3-4.258a11.881,11.881,0,0,0,1.514-2.588A14.657,14.657,0,0,0,34.785-9.961Zm-11.035.9a.9.9,0,0,1-.078-.371,1.106,1.106,0,0,1,.059-.352.883.883,0,0,1,.527-.508,1,1,0,0,1,.371-.078,1.031,1.031,0,0,1,.43.1.944.944,0,0,1,.547.547q.508,1.172,1.074,2.676a.859.859,0,0,1,.078.352,1.031,1.031,0,0,1-.1.43,1.024,1.024,0,0,1-.566.527,1.106,1.106,0,0,1-.352.059.906.906,0,0,1-.41-.1.942.942,0,0,1-.527-.586Q24.258-7.871,23.75-9.062Zm33.574-4.2a1.208,1.208,0,0,0,.889-.361,1.185,1.185,0,0,0,.361-.869,1.208,1.208,0,0,0-.361-.889,1.208,1.208,0,0,0-.889-.361,1.217,1.217,0,0,0-.879.361,1.192,1.192,0,0,0-.371.889,1.185,1.185,0,0,0,.361.869A1.208,1.208,0,0,0,57.324-13.262Zm-12.793-.664h9.707q.41,0,.645-.02.2,0,.156-.215a2.68,2.68,0,0,1-.02-.332,2.221,2.221,0,0,1,.674-1.631,2.221,2.221,0,0,1,1.631-.674,2.254,2.254,0,0,1,1.641.674,2.206,2.206,0,0,1,.684,1.631,2.174,2.174,0,0,1-.684,1.621,2.271,2.271,0,0,1-1.641.664,2.68,2.68,0,0,1-.332-.02.19.19,0,0,0-.234.156l-.059.2a18.522,18.522,0,0,1-3.008,7.344A15.253,15.253,0,0,1,46.953.449a1.592,1.592,0,0,1-.645.137,1.852,1.852,0,0,1-.449-.059A1.978,1.978,0,0,1,44.9-.059a.739.739,0,0,1-.215-.508A.875.875,0,0,1,44.727-.8a.773.773,0,0,1,.547-.547A13.925,13.925,0,0,0,49.1-3.154a12.627,12.627,0,0,0,2.754-2.607,11.124,11.124,0,0,0,1.582-2.832,16.022,16.022,0,0,0,.9-3.105.207.207,0,0,0-.049-.137.157.157,0,0,0-.127-.059H44.531q-.469,0-1.035.02h-.039a1.014,1.014,0,0,1-.742-.312,1.006,1.006,0,0,1-.332-.762.947.947,0,0,1,.332-.742.994.994,0,0,1,.7-.273h.059Q44.063-13.926,44.531-13.926Zm30.117.859a1.282,1.282,0,0,0-.41.967,1.313,1.313,0,0,0,.41.977,1.35,1.35,0,0,0,.977.4,1.317,1.317,0,0,0,.967-.4,1.329,1.329,0,0,0,.4-.977,1.329,1.329,0,0,0-.4-.977,1.317,1.317,0,0,0-.967-.4A1.334,1.334,0,0,0,74.648-13.066Zm-1.523.957a2.441,2.441,0,0,1,.732-1.777,2.393,2.393,0,0,1,1.768-.742,2.415,2.415,0,0,1,1.787.742,2.441,2.441,0,0,1,.732,1.777,2.377,2.377,0,0,1-.732,1.758,2.448,2.448,0,0,1-1.787.723,2.425,2.425,0,0,1-1.768-.723A2.377,2.377,0,0,1,73.125-12.109Zm-9.57,7.48a1.1,1.1,0,0,1-.82.449h-.117a1.037,1.037,0,0,1-.762-.312,1.2,1.2,0,0,1-.371-.879,1.271,1.271,0,0,1,.41-.957l.273-.273a3.682,3.682,0,0,1,.273-.254q.41-.43,1.055-1.182t1.533-1.836q.889-1.084,1.318-1.592a2.53,2.53,0,0,1,1.641-1.055h.078a3.23,3.23,0,0,1,1.855.879,49.87,49.87,0,0,1,4.121,4.1q2.891,3.105,4.063,4.434a1.347,1.347,0,0,1,.332.9,1.289,1.289,0,0,1-.371.918.982.982,0,0,1-.762.352h-.039a.981.981,0,0,1-.781-.41q-1.27-1.563-3.652-4.316a48.027,48.027,0,0,0-3.809-4.023,1.588,1.588,0,0,0-.879-.449h-.02q-.352.02-.8.605-.527.645-1.875,2.383T63.984-5.234Q63.75-4.922,63.555-4.629ZM83.184-6.5h-.039a1.157,1.157,0,0,1-.82-.332,1.138,1.138,0,0,1-.371-.859,1.057,1.057,0,0,1,.371-.82,1.091,1.091,0,0,1,.8-.332h.059q.918.039,1.738.039H95.781q.488,0,1.016-.02h.059a1.127,1.127,0,0,1,.8.313,1.057,1.057,0,0,1,.371.82,1.138,1.138,0,0,1-.371.859,1.2,1.2,0,0,1-.82.313H96.8q-.547-.02-1-.02H84.922Q84.1-6.543,83.184-6.5ZM113.5-13.926a.6.6,0,0,1-.078-.518.532.532,0,0,1,.352-.381.789.789,0,0,1,.6-.039.873.873,0,0,1,.479.371q.605.957,1.074,1.8a.644.644,0,0,1,.049.566.679.679,0,0,1-.381.41.759.759,0,0,1-.6.029.741.741,0,0,1-.439-.4A19.17,19.17,0,0,0,113.5-13.926Zm2.676-.957a.6.6,0,0,1-.078-.518.533.533,0,0,1,.332-.381.9.9,0,0,1,.371-.078.928.928,0,0,1,.254.039.867.867,0,0,1,.508.352q.527.781,1.094,1.758a.819.819,0,0,1,.078.332.737.737,0,0,1-.039.234.647.647,0,0,1-.371.41.759.759,0,0,1-.6.029.815.815,0,0,1-.459-.4A16.7,16.7,0,0,0,116.172-14.883Zm-10.586,1.7a1.038,1.038,0,0,1-.449-.645.684.684,0,0,1-.039-.215.857.857,0,0,1,.176-.527,1.025,1.025,0,0,1,.664-.469.928.928,0,0,1,.254-.039,1.094,1.094,0,0,1,.547.156q1.211.742,2.676,1.719a.955.955,0,0,1,.43.684.993.993,0,0,1,.02.2,1.064,1.064,0,0,1-.176.586,1.043,1.043,0,0,1-.684.43.994.994,0,0,1-.2.02.989.989,0,0,1-.586-.2Q106.895-12.383,105.586-13.184ZM104.863.586a1.353,1.353,0,0,1-.391.059,1.416,1.416,0,0,1-.605-.137,1.617,1.617,0,0,1-.762-.684.785.785,0,0,1-.117-.41.718.718,0,0,1,.1-.352.829.829,0,0,1,.605-.488,20.971,20.971,0,0,0,5.586-2.051,22.273,22.273,0,0,0,3.984-2.891,19.49,19.49,0,0,0,3.047-3.5.7.7,0,0,1,.625-.332.69.69,0,0,1,.625.352,1.915,1.915,0,0,1,.254.957,1.773,1.773,0,0,1-.352,1.094,24.041,24.041,0,0,1-7.129,6.172A22.125,22.125,0,0,1,104.863.586Zm-2.3-9.277a.95.95,0,0,1-.469-.625,1.423,1.423,0,0,1-.02-.234.9.9,0,0,1,.156-.508,1.093,1.093,0,0,1,.664-.469.991.991,0,0,1,.273-.039.992.992,0,0,1,.527.156q1.387.82,2.676,1.641a1.033,1.033,0,0,1,.469.684,1.1,1.1,0,0,1,.02.215,1.064,1.064,0,0,1-.176.586,1.045,1.045,0,0,1-.664.449,1.315,1.315,0,0,1-.215.02.906.906,0,0,1-.566-.2Q103.906-7.891,102.559-8.691Z" transform="translate(-6.484 16.797)"/>
</svg>
