<svg xmlns="http://www.w3.org/2000/svg" width="56.699" height="18.262" viewBox="0 0 56.699 18.262">
  <path id="パス_6885" data-name="パス 6885" d="M16.367-14.727a.644.644,0,0,1,.039.537.647.647,0,0,1-.371.4q-.02,0-.02.029a.066.066,0,0,0,.02.049l.039.02a1.461,1.461,0,0,1,.586.781,1.672,1.672,0,0,1,.1.566,2.4,2.4,0,0,1-.039.43.056.056,0,0,0-.02.039,18.571,18.571,0,0,1-3.008,7.344A15.172,15.172,0,0,1,6.973.449a1.732,1.732,0,0,1-.664.137A1.852,1.852,0,0,1,5.859.527,1.978,1.978,0,0,1,4.9-.059a.739.739,0,0,1-.215-.508A.875.875,0,0,1,4.727-.8a.773.773,0,0,1,.547-.547A13.925,13.925,0,0,0,9.1-3.154a12.627,12.627,0,0,0,2.754-2.607,11.124,11.124,0,0,0,1.582-2.832,16.022,16.022,0,0,0,.9-3.105.207.207,0,0,0-.049-.137.157.157,0,0,0-.127-.059H4.531q-.469,0-1.035.02H3.457a1.014,1.014,0,0,1-.742-.312,1.006,1.006,0,0,1-.332-.762.947.947,0,0,1,.332-.742.994.994,0,0,1,.7-.273h.059q.586.039,1.055.039h9.707q.43,0,.684-.02A.109.109,0,0,0,15.029-14a.193.193,0,0,0,.01-.137q-.352-.645-.84-1.406a.59.59,0,0,1-.068-.518.619.619,0,0,1,.342-.381.892.892,0,0,1,.6-.029.828.828,0,0,1,.479.361Q15.918-15.508,16.367-14.727Zm.508-1.348a.616.616,0,0,1-.1-.332.905.905,0,0,1,.02-.176.53.53,0,0,1,.352-.371.733.733,0,0,1,.332-.078.991.991,0,0,1,.273.039.875.875,0,0,1,.469.371q.449.684.859,1.367a.733.733,0,0,1,.078.332.573.573,0,0,1-.039.215.588.588,0,0,1-.352.41,1.051,1.051,0,0,1-.332.059.8.8,0,0,1-.254-.039.79.79,0,0,1-.469-.371Q17.246-15.508,16.875-16.074ZM35.234-11.68a.173.173,0,0,0-.2-.2h-9.98a.173.173,0,0,0-.2.2v8.613a.173.173,0,0,0,.2.2h9.98a.173.173,0,0,0,.2-.2Zm2.109-.508v9.824l.02,1.523a1.014,1.014,0,0,1-.312.742,1.037,1.037,0,0,1-.762.313h-.078a.959.959,0,0,1-.7-.293.9.9,0,0,1-.273-.664q0-.156-.117-.156H25a.1.1,0,0,0-.117.117.959.959,0,0,1-.293.7.959.959,0,0,1-.7.293h-.059A1.037,1.037,0,0,1,23.066-.1a1.014,1.014,0,0,1-.312-.742l.02-1.523v-9.863a1.583,1.583,0,0,1,.5-1.172,1.631,1.631,0,0,1,1.182-.488h11.23a1.583,1.583,0,0,1,1.172.5,1.631,1.631,0,0,1,.488,1.182ZM49.1-12.969a.1.1,0,0,0,0,.117.115.115,0,0,0,.1.059h4.629q.273,0,.547-.02.2-.02.371-.02a2.635,2.635,0,0,1,1.387.332.959.959,0,0,1,.449.605,1.284,1.284,0,0,1,.039.313,1.419,1.419,0,0,1-.078.449q-.078.176-.137.352a21.229,21.229,0,0,1-1.367,3.447,16.78,16.78,0,0,1-2.168,3.35,17.8,17.8,0,0,1-6.836,5.059,1.9,1.9,0,0,1-.742.156,1.616,1.616,0,0,1-.352-.039,1.944,1.944,0,0,1-1-.488.664.664,0,0,1-.225-.43A.73.73,0,0,1,44.2-.508,15.863,15.863,0,0,0,51.035-5.1a14.544,14.544,0,0,0,1.855-2.8,13.92,13.92,0,0,0,1.152-2.9.147.147,0,0,0-.029-.137A.157.157,0,0,0,53.887-11H48.008a.371.371,0,0,0-.312.156,20.7,20.7,0,0,1-4.043,4.082,1.4,1.4,0,0,1-.859.293h-.02a1.629,1.629,0,0,1-.9-.312.688.688,0,0,1-.293-.586.747.747,0,0,1,.332-.645,17.108,17.108,0,0,0,5.371-6.035q.137-.254.313-.645a1.453,1.453,0,0,1,.664-.7,1.136,1.136,0,0,1,.547-.137,1.292,1.292,0,0,1,.371.059.937.937,0,0,1,.605.586,1.106,1.106,0,0,1,.059.352.956.956,0,0,1-.137.488q-.176.293-.41.723a.737.737,0,0,1-.078.156Q49.141-13.027,49.1-12.969Zm5.43-2.07a.586.586,0,0,1-.1-.312.905.905,0,0,1,.02-.176.586.586,0,0,1,.332-.371.807.807,0,0,1,.566-.029.768.768,0,0,1,.449.342q.449.723.9,1.543a.6.6,0,0,1,.039.518.654.654,0,0,1-.352.381.885.885,0,0,1-.312.059.928.928,0,0,1-.254-.039.715.715,0,0,1-.43-.371Q54.922-14.395,54.531-15.039ZM56.8-15.9a.616.616,0,0,1-.1-.332.642.642,0,0,1,.02-.156.593.593,0,0,1,.313-.371,1.051,1.051,0,0,1,.332-.059.8.8,0,0,1,.254.039.729.729,0,0,1,.449.332q.488.742.938,1.523a.693.693,0,0,1,.078.313.684.684,0,0,1-.039.215.584.584,0,0,1-.352.391.837.837,0,0,1-.293.059.8.8,0,0,1-.254-.039.715.715,0,0,1-.43-.371Q57.266-15.2,56.8-15.9Z" transform="translate(-2.383 17.031)"/>
</svg>
