<svg xmlns="http://www.w3.org/2000/svg" width="177.695" height="18.438" viewBox="0 0 177.695 18.438">
  <path id="パス_6882" data-name="パス 6882" d="M9.551-10.293a.173.173,0,0,0,.2.2h.977a.571.571,0,0,0,.352-.117A29.8,29.8,0,0,0,13.4-12.363a.076.076,0,0,0,.02-.088.076.076,0,0,0-.078-.049H9.746a.173.173,0,0,0-.2.2Zm9.121.449a.827.827,0,0,1,.254.605.827.827,0,0,1-.254.605.827.827,0,0,1-.605.254H11.855a.571.571,0,0,0-.352.117Q10.078-7.148,8.359-6.035a.371.371,0,0,0-.156.313v1.191a.131.131,0,0,0,.059.117.164.164,0,0,0,.137.02,39.956,39.956,0,0,0,5.7-1.895,1.639,1.639,0,0,1,.664-.137,1.423,1.423,0,0,1,.234.02,1.484,1.484,0,0,1,.82.371.612.612,0,0,1,.215.469v.117a.606.606,0,0,1-.391.488A54.81,54.81,0,0,1,8.4-2.812a.245.245,0,0,0-.2.254v1.27A.97.97,0,0,0,8.34-.7a.835.835,0,0,0,.5.254,5.824,5.824,0,0,0,1.123.078h4.9A1.5,1.5,0,0,0,15.977-.7a2.483,2.483,0,0,0,.43-1.348.6.6,0,0,1,.332-.488.616.616,0,0,1,.332-.1.56.56,0,0,1,.254.059,1.122,1.122,0,0,1,.625.488.962.962,0,0,1,.2.566.905.905,0,0,1-.02.176,3.4,3.4,0,0,1-.908,2.09,3.566,3.566,0,0,1-2.256.547h-5.1A5.308,5.308,0,0,1,7.041.771,2.36,2.36,0,0,1,6.309-1.27V-4.629a.115.115,0,0,0-.059-.1.1.1,0,0,0-.117,0q-1.66.9-3.242,1.582a1.2,1.2,0,0,1-.508.117,1.106,1.106,0,0,1-.352-.059,1.4,1.4,0,0,1-.723-.469A.652.652,0,0,1,1.133-4a.994.994,0,0,1,.02-.2.705.705,0,0,1,.43-.488A37.778,37.778,0,0,0,8.438-8.281a.047.047,0,0,0,.029-.059q-.01-.039-.068-.039H1.934a.827.827,0,0,1-.605-.254.827.827,0,0,1-.254-.605.827.827,0,0,1,.254-.605.827.827,0,0,1,.605-.254H7.422a.173.173,0,0,0,.2-.2V-12.3a.173.173,0,0,0-.2-.2H3.691a.843.843,0,0,1-.605-.244.806.806,0,0,1-.254-.605.806.806,0,0,1,.254-.605.843.843,0,0,1,.605-.244h3.73a.173.173,0,0,0,.2-.2v-1.387a.943.943,0,0,1,.283-.693.931.931,0,0,1,.684-.283.931.931,0,0,1,.684.283.943.943,0,0,1,.283.693v1.387a.173.173,0,0,0,.2.2h3.516a.888.888,0,0,1,.654.264.888.888,0,0,1,.264.654q0,.02.029.029a.044.044,0,0,0,.049-.01q.9-1,1.621-1.953a1.056,1.056,0,0,1,.625-.43.991.991,0,0,1,.273-.039,1.079,1.079,0,0,1,.488.117.827.827,0,0,1,.43.527.994.994,0,0,1,.02.2.78.78,0,0,1-.156.469,31.524,31.524,0,0,1-3.73,4.141.076.076,0,0,0-.02.088q.02.049.059.049h4.2A.827.827,0,0,1,18.672-9.844Zm9.98-5.352a1.037,1.037,0,0,1,.342-.732,1.064,1.064,0,0,1,.752-.3h.176a.786.786,0,0,1,.605.254.729.729,0,0,1,.234.527l-.02.293q.059.723.146,1.455t.332,1.924a21.7,21.7,0,0,0,.6,2.285,22.429,22.429,0,0,0,.947,2.4,15.644,15.644,0,0,0,1.357,2.412A13.94,13.94,0,0,0,36.016-2.5,12.611,12.611,0,0,0,38.5-.664a.664.664,0,0,1,.371.547V0a.784.784,0,0,1-.215.547A1.57,1.57,0,0,1,37.91,1a.991.991,0,0,1-.273.039A1.094,1.094,0,0,1,37.09.879q-5.156-3.008-7.109-10.1a.047.047,0,0,0-.059-.029.124.124,0,0,0-.059.029A16.515,16.515,0,0,1,23.125.84a1.2,1.2,0,0,1-.625.176A1.315,1.315,0,0,1,22.285,1,1.4,1.4,0,0,1,21.5.605.772.772,0,0,1,21.27.039.7.7,0,0,1,21.6-.586a12.677,12.677,0,0,0,2.363-1.9,15.148,15.148,0,0,0,1.758-2.139,13.885,13.885,0,0,0,1.24-2.334,20.446,20.446,0,0,0,.83-2.314,19.65,19.65,0,0,0,.488-2.266q.2-1.23.264-1.982T28.652-15.2ZM44.688-7.5a1.02,1.02,0,0,1,.605-.488.938.938,0,0,1,.332-.059,1.031,1.031,0,0,1,.43.1.882.882,0,0,1,.488.566.991.991,0,0,1,.039.273.925.925,0,0,1-.117.449,30.464,30.464,0,0,1-2.7,3.867,1.053,1.053,0,0,1-.723.41h-.156a1.138,1.138,0,0,1-.645-.2.838.838,0,0,1-.371-.625.321.321,0,0,1-.02-.1.862.862,0,0,1,.234-.605A21.387,21.387,0,0,0,44.688-7.5Zm11.68-3.008H51.523a.173.173,0,0,0-.2.2V-.977q0,1.7-1.895,1.7Q48.379.723,47.4.664A1.019,1.019,0,0,1,46.68.332a1.124,1.124,0,0,1-.352-.82.709.709,0,0,1,.234-.547.784.784,0,0,1,.547-.215h.117a10.407,10.407,0,0,0,1.289.1.751.751,0,0,0,.566-.186.814.814,0,0,0,.176-.576q.02-.937.02-8.4a.173.173,0,0,0-.2-.2H43.945q-.391,0-.781.02h-.02a1.025,1.025,0,0,1-.723-.293.959.959,0,0,1-.293-.7.919.919,0,0,1,.293-.7,1.011,1.011,0,0,1,.684-.254h.059q.371.02.762.02h5.156a.173.173,0,0,0,.2-.2v-1.66l-.02-.469a1.09,1.09,0,0,1,.273-.742.992.992,0,0,1,.771-.352.992.992,0,0,1,.771.352,1.065,1.065,0,0,1,.273.723l-.02.508v1.641a.173.173,0,0,0,.2.2h4.824q.332,0,.742-.02h.059a.941.941,0,0,1,.664.254.93.93,0,0,1,.313.7.93.93,0,0,1-.312.7.959.959,0,0,1-.7.293h-.02Q56.836-10.508,56.367-10.508ZM54.277-6.68a.8.8,0,0,1-.176-.488.994.994,0,0,1,.02-.2.779.779,0,0,1,.41-.566,1.252,1.252,0,0,1,.566-.137,1.423,1.423,0,0,1,.234.02,1.034,1.034,0,0,1,.664.43A41.336,41.336,0,0,1,58.32-4.062a1.063,1.063,0,0,1,.137.508,1.211,1.211,0,0,1-.039.293.946.946,0,0,1-.508.625.956.956,0,0,1-.488.137.885.885,0,0,1-.312-.059,1.009,1.009,0,0,1-.625-.508A39.758,39.758,0,0,0,54.277-6.68Zm8.906.176h-.039a1.157,1.157,0,0,1-.82-.332,1.138,1.138,0,0,1-.371-.859,1.057,1.057,0,0,1,.371-.82,1.091,1.091,0,0,1,.8-.332h.059q.918.039,1.738.039H75.781q.488,0,1.016-.02h.059a1.127,1.127,0,0,1,.8.313,1.057,1.057,0,0,1,.371.82,1.138,1.138,0,0,1-.371.859,1.2,1.2,0,0,1-.82.313H76.8q-.547-.02-1-.02H64.922Q64.1-6.543,63.184-6.5Zm35.2,5.254a1.211,1.211,0,0,1,.1.469,1.25,1.25,0,0,1-.078.43,1.127,1.127,0,0,1-.625.645.925.925,0,0,1-.449.117.991.991,0,0,1-.41-.1,1.132,1.132,0,0,1-.625-.625q-.254-.605-.527-1.23a.246.246,0,0,0-.273-.156q-2.539.313-6.338.723T83.5-.391q-.234.02-.586.078h-.176a1.143,1.143,0,0,1-.7-.234,1.172,1.172,0,0,1-.469-.781.642.642,0,0,1-.02-.156.963.963,0,0,1,.254-.645.945.945,0,0,1,.762-.352q.488-.02.82-.039L84-2.559a.277.277,0,0,0,.273-.176q.781-2.051,1.914-5.527t1.582-5.156q.137-.449.215-.82a1.489,1.489,0,0,1,.547-.82,1.181,1.181,0,0,1,.684-.215.928.928,0,0,1,.254.039,1.01,1.01,0,0,1,.723.527,1.245,1.245,0,0,1,.117.527,1.353,1.353,0,0,1-.059.391q-.156.41-.293.82Q87.832-6.191,86.6-2.949a.139.139,0,0,0,.02.127.141.141,0,0,0,.117.049q3.965-.352,7.852-.859a.188.188,0,0,0,.1-.078.1.1,0,0,0,0-.117Q93.828-5.547,93.105-6.7a.78.78,0,0,1-.156-.469.8.8,0,0,1,.039-.254.882.882,0,0,1,.488-.566,1.257,1.257,0,0,1,.488-.1,1.292,1.292,0,0,1,.371.059A1.163,1.163,0,0,1,95-7.5,56.37,56.37,0,0,1,98.379-1.25Zm3.242-3.3a.722.722,0,0,1,.3-.508.744.744,0,0,1,.6-.137.859.859,0,0,1,.527.332.824.824,0,0,1,.137.449v.156a18.417,18.417,0,0,1-.918,3.574.59.59,0,0,1-.41.391.708.708,0,0,1-.586-.059.777.777,0,0,1-.41-.439.786.786,0,0,1,0-.6A17.117,17.117,0,0,0,101.621-4.551Zm4.57.137a.58.58,0,0,1,.01-.518.615.615,0,0,1,.381-.342.742.742,0,0,1,.566.029.757.757,0,0,1,.391.4A20.245,20.245,0,0,1,108.32-2.6a.693.693,0,0,1-.059.576.783.783,0,0,1-.449.381.642.642,0,0,1-.547-.049.692.692,0,0,1-.332-.439Q106.621-3.262,106.191-4.414Zm-.43-4.824a.628.628,0,0,1-.029-.5.556.556,0,0,1,.342-.361.724.724,0,0,1,.547-.02.814.814,0,0,1,.43.352,15.921,15.921,0,0,1,1.27,2.832.766.766,0,0,1-.039.586.853.853,0,0,1-.449.43.58.58,0,0,1-.518-.01.616.616,0,0,1-.342-.4q-.039-.117-.1-.254a.153.153,0,0,0-.156-.117l-.977.059a.193.193,0,0,0-.2.215V.762a.811.811,0,0,1-.244.6.825.825,0,0,1-1.172,0,.811.811,0,0,1-.244-.6v-7.09a.187.187,0,0,0-.059-.137.136.136,0,0,0-.137-.039q-1.113.059-2.012.117h-.059a.784.784,0,0,1-.547-.215.816.816,0,0,1-.293-.645.706.706,0,0,1,.2-.488.746.746,0,0,1,.547-.273h.43a.313.313,0,0,0,.234-.137q.566-.742.938-1.289a.264.264,0,0,0,0-.332,18.883,18.883,0,0,0-1.816-2.109.879.879,0,0,1-.264-.557.8.8,0,0,1,.166-.576l.078-.1a.57.57,0,0,1,.41-.244.55.55,0,0,1,.449.146.062.062,0,0,0,.1-.02,26.184,26.184,0,0,0,1.289-2.734.905.905,0,0,1,.469-.488.859.859,0,0,1,.352-.078.885.885,0,0,1,.313.059.837.837,0,0,1,.449.469.991.991,0,0,1,.039.273,1,1,0,0,1-.078.371q-1.016,1.895-1.758,3.027a.242.242,0,0,0,.039.313,10.65,10.65,0,0,1,.7.8.1.1,0,0,0,.107.049.15.15,0,0,0,.107-.068q.8-1.309,1.426-2.5a.838.838,0,0,1,.488-.43.837.837,0,0,1,.293-.059.753.753,0,0,1,.371.1.707.707,0,0,1,.391.449.737.737,0,0,1,.039.234.658.658,0,0,1-.117.371q-1.777,2.832-3.281,4.8a.1.1,0,0,0-.01.107.1.1,0,0,0,.088.049q1.035-.039,2.109-.1a.115.115,0,0,0,.1-.059.129.129,0,0,0,0-.137Q105.977-8.848,105.762-9.238Zm10.762,4.375a.173.173,0,0,0-.2-.2h-5a.173.173,0,0,0-.2.2V-1.23a.173.173,0,0,0,.2.2h5a.173.173,0,0,0,.2-.2Zm-5.645,6.172a.775.775,0,0,1-.6.254.838.838,0,0,1-.615-.254A.827.827,0,0,1,109.414.7V-5a1.637,1.637,0,0,1,.5-1.2,1.637,1.637,0,0,1,1.2-.5h5.508a1.637,1.637,0,0,1,1.2.5,1.637,1.637,0,0,1,.5,1.2V.586a.865.865,0,0,1-.264.635.865.865,0,0,1-.635.264H117.3a.74.74,0,0,1-.557-.234.789.789,0,0,1-.225-.566q0-.078-.1-.078h-5.2a.086.086,0,0,0-.1.1A.827.827,0,0,1,110.879,1.309Zm-1.953-15.645a.827.827,0,0,1-.254-.605.827.827,0,0,1,.254-.605.827.827,0,0,1,.605-.254h7.48a1.529,1.529,0,0,1,1.172.508,1.521,1.521,0,0,1,.469,1.113,31.18,31.18,0,0,1-.254,3.945,3.606,3.606,0,0,1-.469,1.582,1.967,1.967,0,0,1-1.348.625,8.013,8.013,0,0,1-1.113.059h-.293a1.1,1.1,0,0,1-.684-.273,1.344,1.344,0,0,1-.41-.645.626.626,0,0,1,.088-.537.526.526,0,0,1,.459-.244q.488.02,1.133.02a.809.809,0,0,0,.645-.2q.371-.43.508-4.043a.187.187,0,0,0-.059-.137.187.187,0,0,0-.137-.059h-3.027a.193.193,0,0,0-.215.2,10.324,10.324,0,0,1-1.143,3.545A6.423,6.423,0,0,1,109.8-7.91a.89.89,0,0,1-.43.117.928.928,0,0,1-.254-.039,1.082,1.082,0,0,1-.586-.41.672.672,0,0,1-.156-.43v-.137a.654.654,0,0,1,.332-.469,5.145,5.145,0,0,0,2.021-1.895,7.891,7.891,0,0,0,.908-2.715.147.147,0,0,0-.029-.137.157.157,0,0,0-.127-.059h-1.953A.827.827,0,0,1,108.926-14.336Zm21.094-.391a.115.115,0,0,0-.1-.059.115.115,0,0,0-.1.059,18.442,18.442,0,0,1-2.988,3.525,24.407,24.407,0,0,1-4.121,3.135.956.956,0,0,1-.488.137.737.737,0,0,1-.234-.039,1.141,1.141,0,0,1-.645-.43.75.75,0,0,1-.176-.488.642.642,0,0,1,.02-.156.712.712,0,0,1,.371-.527,20.065,20.065,0,0,0,3.867-2.91,18.743,18.743,0,0,0,2.91-3.477,1.682,1.682,0,0,1,1.484-.859,1.811,1.811,0,0,1,1.543.82,19.5,19.5,0,0,0,3.193,3.545A18.27,18.27,0,0,0,138.4-9.844a.77.77,0,0,1,.43.566.573.573,0,0,1,.039.215.8.8,0,0,1-.176.488,1.208,1.208,0,0,1-.664.469.991.991,0,0,1-.273.039,1.1,1.1,0,0,1-.527-.137,25.926,25.926,0,0,1-4.1-3.018A18.121,18.121,0,0,1,130.02-14.727Zm2.441,6a.943.943,0,0,1,.283-.693.931.931,0,0,1,.684-.283.931.931,0,0,1,.684.283.943.943,0,0,1,.283.693V.586a.943.943,0,0,1-.283.693.967.967,0,0,1-1.367,0,.943.943,0,0,1-.283-.693Zm-6.934.078a.937.937,0,0,1,.273-.674.889.889,0,0,1,.664-.283.92.92,0,0,1,.674.283.92.92,0,0,1,.283.674v1.68q0,.9-.059,1.621a11.3,11.3,0,0,1-.273,1.641,7.97,7.97,0,0,1-.586,1.68,8.372,8.372,0,0,1-1.025,1.572,8.121,8.121,0,0,1-1.572,1.475,1.124,1.124,0,0,1-.645.215.642.642,0,0,1-.156-.02,1.322,1.322,0,0,1-.762-.352.685.685,0,0,1-.254-.547.707.707,0,0,1,.293-.605,7.98,7.98,0,0,0,1.68-1.572,5.669,5.669,0,0,0,.957-1.768,10.385,10.385,0,0,0,.4-1.67,12.184,12.184,0,0,0,.107-1.709Zm29.395,5.879a.173.173,0,0,0,.2-.2v-.859a.173.173,0,0,0-.2-.2h-3.867a.173.173,0,0,0-.2.2v.859a.173.173,0,0,0,.2.2Zm-3.867-3.848a.173.173,0,0,0-.2.2v.742a.173.173,0,0,0,.2.2h3.867a.173.173,0,0,0,.2-.2v-.742a.173.173,0,0,0-.2-.2Zm-5.84-3.926a.173.173,0,0,0,.2.2h3.379a.173.173,0,0,0,.2-.2v-.82a.173.173,0,0,0-.2-.2H145.41a.173.173,0,0,0-.2.2Zm9.59-.82a.173.173,0,0,0-.2-.2h-3.555a.173.173,0,0,0-.2.2v.82a.173.173,0,0,0,.2.2h3.555a.173.173,0,0,0,.2-.2Zm3.555,5.879a.694.694,0,0,1,.508.215.705.705,0,0,1,.215.518.705.705,0,0,1-.215.518.694.694,0,0,1-.508.215h-1.172a.173.173,0,0,0-.2.2v2.363a.9.9,0,0,1-.273.664.9.9,0,0,1-.664.273H155.9a.756.756,0,0,1-.557-.225.733.733,0,0,1-.225-.537q0-.1-.078-.1h-3.984a.173.173,0,0,0-.2.2v.859a2.336,2.336,0,0,1-.215,1.123,1.34,1.34,0,0,1-.723.576,9.611,9.611,0,0,1-2.578.254h-.02a.984.984,0,0,1-.625-.215A1.384,1.384,0,0,1,146.25.84a.5.5,0,0,1,.039-.469.445.445,0,0,1,.41-.234q.645.02,1.074.02.488,0,.723-.02a.7.7,0,0,0,.381-.107.429.429,0,0,0,.107-.342v-.879a.173.173,0,0,0-.2-.2h-5.352a.678.678,0,0,1-.5-.205.667.667,0,0,1-.205-.488.667.667,0,0,1,.205-.488.678.678,0,0,1,.5-.205h5.352a.173.173,0,0,0,.2-.2v-.859a.173.173,0,0,0-.2-.2h-7.07a.717.717,0,0,1-.527-.215.705.705,0,0,1-.215-.518.705.705,0,0,1,.215-.518.717.717,0,0,1,.527-.215h7.07a.173.173,0,0,0,.2-.2v-.742a.173.173,0,0,0-.2-.2h-5.215a.608.608,0,0,1-.459-.2.656.656,0,0,1-.186-.469.656.656,0,0,1,.186-.469.608.608,0,0,1,.459-.2h5.215a.173.173,0,0,0,.2-.2v-.781a.173.173,0,0,0-.2-.2h-3.652a1.637,1.637,0,0,1-1.2-.5,1.637,1.637,0,0,1-.5-1.2v-.273a1.637,1.637,0,0,1,.5-1.2,1.637,1.637,0,0,1,1.2-.5h3.652a.173.173,0,0,0,.2-.2v-.645a.173.173,0,0,0-.2-.2h-6.641a.717.717,0,0,1-.527-.215.717.717,0,0,1-.215-.527.717.717,0,0,1,.215-.527.717.717,0,0,1,.527-.215h6.68a.138.138,0,0,0,.156-.156v-.371a.9.9,0,0,1,.273-.664.9.9,0,0,1,.664-.273.9.9,0,0,1,.664.273.9.9,0,0,1,.273.664v.371a.138.138,0,0,0,.156.156h6.895a.717.717,0,0,1,.527.215.717.717,0,0,1,.215.527.717.717,0,0,1-.215.527.717.717,0,0,1-.527.215h-6.855a.173.173,0,0,0-.2.2v.645a.173.173,0,0,0,.2.2h3.926a1.637,1.637,0,0,1,1.2.5,1.637,1.637,0,0,1,.5,1.2v.273a1.637,1.637,0,0,1-.5,1.2,1.637,1.637,0,0,1-1.2.5h-3.926a.173.173,0,0,0-.2.2v.781a.173.173,0,0,0,.2.2h4.238a1.637,1.637,0,0,1,1.2.5,1.637,1.637,0,0,1,.5,1.2v.566a.173.173,0,0,0,.2.2Zm14.3-6.152a.1.1,0,0,0,0-.117.131.131,0,0,0-.117-.059h-4.98a.115.115,0,0,0-.1.059q-.039.059,0,.1a8.183,8.183,0,0,1,.566,1.113.379.379,0,0,1-.01.381.448.448,0,0,1-.322.225v.02h3.965a.316.316,0,0,0,.293-.176A16.62,16.62,0,0,0,172.656-11.641Zm5.879,7.246a.76.76,0,0,1,.234.557.729.729,0,0,1-.234.547.766.766,0,0,1-.547.225H172.7q-.039,0-.059.049t.02.068a17.065,17.065,0,0,0,5.605,2.383.6.6,0,0,1,.449.41.684.684,0,0,1,.039.215.621.621,0,0,1-.137.391,1.558,1.558,0,0,1-.723.547,1.074,1.074,0,0,1-.449.1,1.045,1.045,0,0,1-.391-.078,16.761,16.761,0,0,1-6.016-3.32.113.113,0,0,0-.107-.02.076.076,0,0,0-.049.078V.664a.888.888,0,0,1-.264.654.92.92,0,0,1-1.289,0,.888.888,0,0,1-.264-.654V-2.109a.076.076,0,0,0-.049-.078.113.113,0,0,0-.107.02,18.862,18.862,0,0,1-6,3.184,1.353,1.353,0,0,1-.391.059A1.25,1.25,0,0,1,162.09,1a1.5,1.5,0,0,1-.684-.527A.6.6,0,0,1,161.27.1a1.316,1.316,0,0,1,.02-.215.551.551,0,0,1,.43-.391,18.323,18.323,0,0,0,5.605-2.441q.039-.02.02-.068t-.059-.049H162.07a.733.733,0,0,1-.537-.225.744.744,0,0,1-.225-.547.777.777,0,0,1,.225-.557.718.718,0,0,1,.537-.234h6.8a.173.173,0,0,0,.2-.2v-.82a.173.173,0,0,0-.2-.2h-5a.678.678,0,0,1-.5-.205.678.678,0,0,1-.205-.5.678.678,0,0,1,.205-.5.678.678,0,0,1,.5-.205h5a.173.173,0,0,0,.2-.2v-.8a.173.173,0,0,0-.2-.2H162.93a.717.717,0,0,1-.527-.215.717.717,0,0,1-.215-.527.717.717,0,0,1,.215-.527.717.717,0,0,1,.527-.215h3.164a.14.14,0,0,0,.107-.059.09.09,0,0,0,.01-.117,9.567,9.567,0,0,0-.566-1.27.311.311,0,0,1,.01-.273.327.327,0,0,1,.225-.176h-3.711a.74.74,0,0,1-.557-.234.777.777,0,0,1-.225-.557.744.744,0,0,1,.225-.547.756.756,0,0,1,.557-.225h1.973a.131.131,0,0,0,.117-.059.1.1,0,0,0,0-.117,13.1,13.1,0,0,0-.918-1.8.672.672,0,0,1-.068-.6.617.617,0,0,1,.42-.4,1.135,1.135,0,0,1,.361-.059,1.135,1.135,0,0,1,.361.059,1,1,0,0,1,.566.43,14.188,14.188,0,0,1,.723,1.27.867.867,0,0,1,.1.391.819.819,0,0,1-.078.332.882.882,0,0,1-.547.508v.02a.017.017,0,0,0,.02.02h1.895a.173.173,0,0,0,.2-.2v-2.363a.827.827,0,0,1,.254-.605.838.838,0,0,1,.615-.254.838.838,0,0,1,.615.254.827.827,0,0,1,.254.605v2.363a.173.173,0,0,0,.2.2H170.8a.173.173,0,0,0,.2-.2v-2.344a.834.834,0,0,1,.264-.625.871.871,0,0,1,.625-.254.838.838,0,0,1,.615.254.849.849,0,0,1,.254.625v2.344a.173.173,0,0,0,.2.2h1.895v-.02a.62.62,0,0,1-.361-.352.519.519,0,0,1,.029-.488,15.7,15.7,0,0,0,.684-1.426,1.2,1.2,0,0,1,.547-.586,1.2,1.2,0,0,1,.508-.117,1.931,1.931,0,0,1,.273.02.759.759,0,0,1,.508.449.736.736,0,0,1,.059.293.831.831,0,0,1-.1.371q-.566.977-1.055,1.7a.077.077,0,0,0-.01.1.094.094,0,0,0,.088.059h1.914a.733.733,0,0,1,.537.225.744.744,0,0,1,.225.547.777.777,0,0,1-.225.557.718.718,0,0,1-.537.234h-2.891a.316.316,0,0,0-.293.176q-.352.605-.918,1.543a.11.11,0,0,0-.01.117.094.094,0,0,0,.088.059h3.32a.727.727,0,0,1,.518.215.7.7,0,0,1,.225.527.7.7,0,0,1-.225.527.727.727,0,0,1-.518.215h-6.152a.173.173,0,0,0-.2.2v.8a.173.173,0,0,0,.2.2h5.254a.656.656,0,0,1,.479.205.678.678,0,0,1,.205.5.678.678,0,0,1-.205.5.656.656,0,0,1-.479.205h-5.254a.173.173,0,0,0-.2.2v.82a.173.173,0,0,0,.2.2h6.914A.75.75,0,0,1,178.535-4.395Z" transform="translate(-1.074 16.816)"/>
</svg>
