<svg xmlns="http://www.w3.org/2000/svg" width="97.598" height="18.379" viewBox="0 0 97.598 18.379">
  <path id="パス_6886" data-name="パス 6886" d="M7.051-14.258a.217.217,0,0,0-.2.234v2.969a.173.173,0,0,0,.2.2H9.629a.827.827,0,0,1,.605.254.827.827,0,0,1,.254.605.827.827,0,0,1-.254.605.827.827,0,0,1-.605.254H7.051a.173.173,0,0,0-.2.2v.938a.371.371,0,0,0,.156.313q.957.7,2.754,2.246a1,1,0,0,1,.352.684.574.574,0,0,1,.02.137,1.018,1.018,0,0,1-.2.605.669.669,0,0,1-.547.313H9.316a.688.688,0,0,1-.527-.234q-.879-.918-1.8-1.8a.076.076,0,0,0-.088-.02.076.076,0,0,0-.049.078V.625a.888.888,0,0,1-.264.654.92.92,0,0,1-1.289,0A.888.888,0,0,1,5.039.625V-6.211q0-.02-.029-.029a.044.044,0,0,0-.049.01,22.1,22.1,0,0,1-2.7,4.395.61.61,0,0,1-.488.234H1.66a.712.712,0,0,1-.527-.371,1.444,1.444,0,0,1-.176-.684v-.156a1.434,1.434,0,0,1,.352-.781A19.827,19.827,0,0,0,4.59-8.965a.129.129,0,0,0-.02-.117.115.115,0,0,0-.1-.059H1.895a.827.827,0,0,1-.605-.254A.827.827,0,0,1,1.035-10a.827.827,0,0,1,.254-.605.827.827,0,0,1,.605-.254H4.844a.173.173,0,0,0,.2-.2v-2.6a.131.131,0,0,0-.059-.117.241.241,0,0,0-.137-.039q-1.348.273-2.656.449H2.07A.856.856,0,0,1,1.6-13.5,1.039,1.039,0,0,1,1.191-14a.623.623,0,0,1,.029-.518.563.563,0,0,1,.4-.3,39.089,39.089,0,0,0,6.465-1.5,1.457,1.457,0,0,1,.527-.1,1.533,1.533,0,0,1,.332.039,1.389,1.389,0,0,1,.723.41.629.629,0,0,1,.176.43.905.905,0,0,1-.02.176.6.6,0,0,1-.391.449Q8.4-14.59,7.051-14.258Zm4.863.137a.882.882,0,0,1,.645-.273.865.865,0,0,1,.635.264.865.865,0,0,1,.264.635v9.2a.865.865,0,0,1-.264.635.865.865,0,0,1-.635.264.865.865,0,0,1-.635-.264A.865.865,0,0,1,11.66-4.3v-9.2A.849.849,0,0,1,11.914-14.121Zm4.531-1.348a.9.9,0,0,1,.273-.664.893.893,0,0,1,.654-.273.893.893,0,0,1,.654.273.9.9,0,0,1,.273.664V-.781A3.08,3.08,0,0,1,18.076.537a1.457,1.457,0,0,1-.752.693,8.554,8.554,0,0,1-2.754.332h-.02a1.22,1.22,0,0,1-.762-.254,1.537,1.537,0,0,1-.508-.7.928.928,0,0,1-.039-.254.6.6,0,0,1,.137-.371.6.6,0,0,1,.527-.293h.02q.742.02,1.27.02h.723a.608.608,0,0,0,.41-.107.5.5,0,0,0,.117-.381ZM31.074-6.758a.173.173,0,0,0,.2.2h4.453a.173.173,0,0,0,.2-.2V-9.336a.173.173,0,0,0-.2-.2H31.27a.173.173,0,0,0-.2.2Zm-6.25,0a.136.136,0,0,0,.039.137A.187.187,0,0,0,25-6.562h4.023a.173.173,0,0,0,.2-.2V-9.336a.173.173,0,0,0-.2-.2H25.078a.173.173,0,0,0-.2.2v.605Q24.883-7.676,24.824-6.758Zm4.395-7.129a.173.173,0,0,0-.2-.2H25.078a.173.173,0,0,0-.2.2v2.422a.173.173,0,0,0,.2.2h3.945a.173.173,0,0,0,.2-.2Zm6.5,2.617a.173.173,0,0,0,.2-.2v-2.422a.173.173,0,0,0-.2-.2H31.27a.173.173,0,0,0-.2.2v2.422a.173.173,0,0,0,.2.2Zm.352-4.609a1.637,1.637,0,0,1,1.2.5,1.637,1.637,0,0,1,.5,1.2V-1.211a2.9,2.9,0,0,1-.225,1.27A1.306,1.306,0,0,1,36.8.7a8.523,8.523,0,0,1-2.773.332H34a1.165,1.165,0,0,1-.723-.254,1.544,1.544,0,0,1-.469-.664.608.608,0,0,1,.068-.586A.591.591,0,0,1,33.4-.742q.8.02,2.031.02.488,0,.488-.508V-4.609a.173.173,0,0,0-.2-.2H31.27a.173.173,0,0,0-.2.2V0A.882.882,0,0,1,30.8.645a.92.92,0,0,1-1.309,0A.882.882,0,0,1,29.219,0V-4.609a.173.173,0,0,0-.2-.2h-4.2a.193.193,0,0,0-.215.2A12.006,12.006,0,0,1,22.734.508a.757.757,0,0,1-.605.313H22.07a.933.933,0,0,1-.625-.234.937.937,0,0,1-.352-.605V-.176A.929.929,0,0,1,21.25-.7a6.992,6.992,0,0,0,.7-1.211,9.565,9.565,0,0,0,.732-2.334,20.588,20.588,0,0,0,.293-2.236q.068-1,.068-2.266v-5.43a1.637,1.637,0,0,1,.5-1.2,1.637,1.637,0,0,1,1.2-.5Zm13.535,5.1a.173.173,0,0,0,.2.2h.9a.571.571,0,0,0,.352-.117A26.274,26.274,0,0,0,53.379-12.7q.039-.02.02-.068a.076.076,0,0,0-.078-.049H49.8a.173.173,0,0,0-.2.2Zm4.746,6.934a.173.173,0,0,0,.2-.2v-1.27a.173.173,0,0,0-.2-.2H47.207a.173.173,0,0,0-.2.2v1.27a.173.173,0,0,0,.2.2ZM47.012-.82a.173.173,0,0,0,.2.2h7.148a.173.173,0,0,0,.2-.2V-2.187a.173.173,0,0,0-.2-.2H47.207a.173.173,0,0,0-.2.2Zm11.6-9.512a.754.754,0,0,1,.254.576.8.8,0,0,1-.244.586.811.811,0,0,1-.6.244H51.719a.571.571,0,0,0-.352.117q-.918.684-2.48,1.66a.056.056,0,0,0-.029.068q.01.049.049.049h5.879a1.637,1.637,0,0,1,1.2.5,1.637,1.637,0,0,1,.5,1.2V.547a.92.92,0,0,1-.283.674.92.92,0,0,1-.674.283h-.488a.468.468,0,0,1-.342-.146.468.468,0,0,1-.146-.342q0-.059-.039-.059H47.09q-.078,0-.078.059a.563.563,0,0,1-.156.4.514.514,0,0,1-.391.166h-.371a.882.882,0,0,1-.645-.273.882.882,0,0,1-.273-.645V-4.941a.109.109,0,0,0-.059-.107A.148.148,0,0,0,45-5.059q-1.133.527-2.324,1.016a1.25,1.25,0,0,1-.43.078,1.106,1.106,0,0,1-.352-.059,1.362,1.362,0,0,1-.645-.469.648.648,0,0,1-.156-.41.522.522,0,0,1,.039-.2.647.647,0,0,1,.41-.449A36.843,36.843,0,0,0,48.3-8.809a.11.11,0,0,0,.01-.078.046.046,0,0,0-.049-.039H41.973a.811.811,0,0,1-.6-.244.8.8,0,0,1-.244-.586.8.8,0,0,1,.244-.586.811.811,0,0,1,.6-.244h5.586a.173.173,0,0,0,.2-.2v-1.836a.173.173,0,0,0-.2-.2H43.691a.788.788,0,0,1-.576-.244.788.788,0,0,1-.244-.576.756.756,0,0,1,.244-.566.8.8,0,0,1,.576-.234h3.867a.173.173,0,0,0,.2-.2v-1.23a.872.872,0,0,1,.273-.654.91.91,0,0,1,.654-.264.91.91,0,0,1,.654.264.872.872,0,0,1,.273.654v1.23a.173.173,0,0,0,.2.2h3.672a.766.766,0,0,1,.547.225.74.74,0,0,1,.234.557q0,.02.029.029t.029-.01q.879-.9,1.582-1.777a1.086,1.086,0,0,1,.625-.41,1.423,1.423,0,0,1,.234-.02,1.079,1.079,0,0,1,.488.117.765.765,0,0,1,.391.508.905.905,0,0,1,.02.176.7.7,0,0,1-.156.449A30.5,30.5,0,0,1,53.77-10.7q-.039.02-.02.068t.059.049h4.219A.764.764,0,0,1,58.613-10.332Zm6.836,7.168q1.426,0,2.734-4.336a26.152,26.152,0,0,0,1.055-4.9.172.172,0,0,0-.049-.127.125.125,0,0,0-.127-.029,6.777,6.777,0,0,0-2.285.879,6.415,6.415,0,0,0-1.729,1.5A7.27,7.27,0,0,0,63.994-8.35a5.079,5.079,0,0,0-.381,1.865,4.477,4.477,0,0,0,.566,2.451A1.57,1.57,0,0,0,65.449-3.164ZM71.855.469a1.533,1.533,0,0,1-.332.039A1.548,1.548,0,0,1,70.9.371a1.725,1.725,0,0,1-.723-.645.658.658,0,0,1-.117-.371.693.693,0,0,1,.078-.312.722.722,0,0,1,.547-.41q.352-.059.664-.137a6.822,6.822,0,0,0,1.816-.674A6.665,6.665,0,0,0,74.688-3.32a4.758,4.758,0,0,0,1.064-1.66,5.865,5.865,0,0,0,.381-2.148,5.669,5.669,0,0,0-1.2-3.652,5.1,5.1,0,0,0-3.35-1.836.2.2,0,0,0-.234.176A47.209,47.209,0,0,1,70.2-7.07,14.806,14.806,0,0,1,68.076-2.4,3.422,3.422,0,0,1,65.371-.781a3.218,3.218,0,0,1-2.627-1.553,6.615,6.615,0,0,1-1.123-3.975,7.383,7.383,0,0,1,.693-3.125,8.575,8.575,0,0,1,1.865-2.627A8.742,8.742,0,0,1,67-13.848a9.252,9.252,0,0,1,3.486-.664,8.753,8.753,0,0,1,3.213.576,6.846,6.846,0,0,1,2.461,1.592,7.371,7.371,0,0,1,1.543,2.383,7.694,7.694,0,0,1,.557,2.93A7.23,7.23,0,0,1,76.6-2.2,8.446,8.446,0,0,1,71.855.469ZM89.063-7.285a.173.173,0,0,0-.2-.2H85.059a.173.173,0,0,0-.2.2v.82q0,.762-.059,1.426a.136.136,0,0,0,.039.137.187.187,0,0,0,.137.059h3.887a.173.173,0,0,0,.2-.2Zm6.211,2.441a.173.173,0,0,0,.2-.2V-7.285a.173.173,0,0,0-.2-.2H91.055a.173.173,0,0,0-.2.2v2.246a.173.173,0,0,0,.2.2ZM95.625-9a1.637,1.637,0,0,1,1.2.5,1.637,1.637,0,0,1,.5,1.2v4.141a.882.882,0,0,1-.273.645.9.9,0,0,1-.664.273h-.02a.865.865,0,0,1-.635-.264.888.888,0,0,1-.264-.654q0-.1-.117-.1H84.746a.234.234,0,0,0-.234.2A9.55,9.55,0,0,1,82.7.957a.78.78,0,0,1-.645.293.994.994,0,0,1-.7-.273.892.892,0,0,1-.312-.7.934.934,0,0,1,.2-.586,9.452,9.452,0,0,0,1.816-6.172V-7.3a1.637,1.637,0,0,1,.5-1.2,1.637,1.637,0,0,1,1.2-.5Zm2.7-5.937a.709.709,0,0,1,.234.547.789.789,0,0,1-.225.566.74.74,0,0,1-.557.234h-6.7a.173.173,0,0,0-.2.2v1.25a.173.173,0,0,0,.2.2h5.82a.756.756,0,0,1,.557.225.756.756,0,0,1,.225.557.789.789,0,0,1-.225.566.74.74,0,0,1-.557.234H83.438a.772.772,0,0,1-.566-.234.772.772,0,0,1-.234-.566.74.74,0,0,1,.234-.557.789.789,0,0,1,.566-.225h5.391a.173.173,0,0,0,.2-.2V-13.4a.173.173,0,0,0-.2-.2H82.207a.74.74,0,0,1-.557-.234.789.789,0,0,1-.225-.566.756.756,0,0,1,.225-.557.756.756,0,0,1,.557-.225h6.641a.155.155,0,0,0,.176-.176v-.527a.882.882,0,0,1,.273-.645.893.893,0,0,1,.654-.273.893.893,0,0,1,.654.273.882.882,0,0,1,.273.645v.527a.155.155,0,0,0,.176.176h6.719A.709.709,0,0,1,98.32-14.941Z" transform="translate(-0.957 16.797)"/>
</svg>
