<svg xmlns="http://www.w3.org/2000/svg" width="157.5" height="18.848" viewBox="0 0 157.5 18.848">
  <path id="パス_6881" data-name="パス 6881" d="M6.23-7.832a.173.173,0,0,0-.2.2v1.348a.187.187,0,0,0,.059.137.136.136,0,0,0,.137.039q5-.254,6.523-.352a.69.69,0,0,0,.352-.137q.156-.156.41-.371a.452.452,0,0,0,.137-.332v-.332a.173.173,0,0,0-.2-.2ZM13.652-13.5a.173.173,0,0,0-.2-.2H6.23a.173.173,0,0,0-.2.2v1.172a.173.173,0,0,0,.2.2h7.227a.173.173,0,0,0,.2-.2Zm-.2,4.316a.173.173,0,0,0,.2-.2v-1.191a.173.173,0,0,0-.2-.2H6.23a.173.173,0,0,0-.2.2v1.191a.173.173,0,0,0,.2.2ZM16.5-10.215a1.208,1.208,0,0,1,.664-.469,1.284,1.284,0,0,1,.313-.039,1.079,1.079,0,0,1,.488.117.821.821,0,0,1,.469.566.684.684,0,0,1,.039.215.75.75,0,0,1-.176.488,23.567,23.567,0,0,1-2.578,2.91.452.452,0,0,0-.137.332v4.8A3.3,3.3,0,0,1,15.352.088a1.455,1.455,0,0,1-.82.732,11.9,11.9,0,0,1-3.008.313H11.5a1.164,1.164,0,0,1-.762-.273,1.666,1.666,0,0,1-.508-.723A.928.928,0,0,1,10.2-.117a.754.754,0,0,1,.117-.391A.6.6,0,0,1,10.84-.8h.02q.9.02,2.266.02a.477.477,0,0,0,.527-.527V-4.473a.094.094,0,0,0-.059-.088.077.077,0,0,0-.1.01A34.273,34.273,0,0,1,3.2.664a1.559,1.559,0,0,1-.41.059A1.475,1.475,0,0,1,2.324.645,1.438,1.438,0,0,1,1.6.1a.648.648,0,0,1-.156-.41.737.737,0,0,1,.039-.234A.612.612,0,0,1,1.953-1,32.968,32.968,0,0,0,10.215-4.57a.044.044,0,0,0,.01-.049.045.045,0,0,0-.049-.029q-5.02.41-7.812.605H2.285a.984.984,0,0,1-.625-.215A1,1,0,0,1,1.289-4.9a.574.574,0,0,1-.02-.137.857.857,0,0,1,.176-.527.816.816,0,0,1,.625-.312l1.914-.1a.193.193,0,0,0,.2-.215v-7.422a1.637,1.637,0,0,1,.5-1.2,1.637,1.637,0,0,1,1.2-.5H8.086a.277.277,0,0,0,.273-.176q.156-.391.293-.723a1.515,1.515,0,0,1,.586-.723,1.3,1.3,0,0,1,.723-.215h.176a.725.725,0,0,1,.586.43.718.718,0,0,1,.1.352A.725.725,0,0,1,10.7-16a5.49,5.49,0,0,1-.293.508.1.1,0,0,0,0,.117.115.115,0,0,0,.1.059h3.379a1.637,1.637,0,0,1,1.2.5,1.637,1.637,0,0,1,.5,1.2v4.375a.06.06,0,0,0,.049.068A.056.056,0,0,0,15.7-9.2Q16.074-9.648,16.5-10.215Zm19.668-5.078a.856.856,0,0,1,.645.264.882.882,0,0,1,.254.635.882.882,0,0,1-.254.635.856.856,0,0,1-.645.264H23.906a.865.865,0,0,1-.635-.264.865.865,0,0,1-.264-.635.865.865,0,0,1,.264-.635.865.865,0,0,1,.635-.264ZM34.219-.527h2.266A.657.657,0,0,0,37.148-1a8.193,8.193,0,0,0,.234-2.051.524.524,0,0,1,.3-.459.664.664,0,0,1,.576-.029,1.452,1.452,0,0,1,.625.527,1.152,1.152,0,0,1,.215.664.321.321,0,0,1-.02.1A6.013,6.013,0,0,1,38.389.508a2.026,2.026,0,0,1-1.768.723H33.965A2.758,2.758,0,0,1,31.982.693a2.987,2.987,0,0,1-.518-2.041V-7.832a.173.173,0,0,0-.2-.2H28.242a.193.193,0,0,0-.215.2q-.117,1.289-.293,2.256A13.632,13.632,0,0,1,27.2-3.564a8.234,8.234,0,0,1-.889,1.846A7.893,7.893,0,0,1,24.932-.166a9.135,9.135,0,0,1-1.982,1.318,1.031,1.031,0,0,1-.43.1.885.885,0,0,1-.312-.059,1.215,1.215,0,0,1-.625-.469.629.629,0,0,1-.176-.43.642.642,0,0,1,.02-.156A.653.653,0,0,1,21.8-.332a7.424,7.424,0,0,0,1.7-1.1,6.6,6.6,0,0,0,1.162-1.3,6.473,6.473,0,0,0,.732-1.553,11.817,11.817,0,0,0,.43-1.68q.137-.791.215-1.865A.136.136,0,0,0,26-7.969a.187.187,0,0,0-.137-.059H22.148a.888.888,0,0,1-.654-.264.865.865,0,0,1-.264-.635.865.865,0,0,1,.264-.635.888.888,0,0,1,.654-.264H37.93a.865.865,0,0,1,.635.264.865.865,0,0,1,.264.635.865.865,0,0,1-.264.635.865.865,0,0,1-.635.264H33.574a.173.173,0,0,0-.2.2v6.465a1.071,1.071,0,0,0,.146.693A1.071,1.071,0,0,0,34.219-.527Zm10.84-15.352a.968.968,0,0,1,.508-.508.905.905,0,0,1,.41-.1,1.211,1.211,0,0,1,.293.039.828.828,0,0,1,.508.449.859.859,0,0,1,.078.352.819.819,0,0,1-.078.332q-.664,1.523-1.5,3.047a.718.718,0,0,0-.1.352V.664a.859.859,0,0,1-.254.615.873.873,0,0,1-1.25,0,.859.859,0,0,1-.254-.615V-9.2q0-.059-.039-.068a.081.081,0,0,0-.078.029q-.488.664-1.016,1.27a.667.667,0,0,1-.508.234H41.66a.718.718,0,0,1-.566-.41,1.365,1.365,0,0,1-.2-.7.905.905,0,0,1,.02-.176,1.291,1.291,0,0,1,.352-.8A21.158,21.158,0,0,0,45.059-15.879Zm4.551,1.66a.173.173,0,0,0-.2.2v2.832a.173.173,0,0,0,.2.2h6.348a.173.173,0,0,0,.2-.2v-2.832a.173.173,0,0,0-.2-.2Zm9.2,7.3a.816.816,0,0,1,.254.6.8.8,0,0,1-.244.586.811.811,0,0,1-.6.244H54.863a.109.109,0,0,0-.107.059.11.11,0,0,0,.01.117,14.833,14.833,0,0,0,1.816,2.256A13.833,13.833,0,0,0,58.77-1.211a.865.865,0,0,1,.352.586v.1a.784.784,0,0,1-.215.547,1.085,1.085,0,0,1-.684.371.642.642,0,0,1-.156.02.962.962,0,0,1-.566-.2,16.988,16.988,0,0,1-3.73-4.238.074.074,0,0,0-.068-.01q-.049.01-.049.049V.664a.9.9,0,0,1-.273.664.92.92,0,0,1-1.309,0A.9.9,0,0,1,51.8.664V-3.887a.063.063,0,0,0-.039-.059.039.039,0,0,0-.059.02A16.54,16.54,0,0,1,47.734.215a.942.942,0,0,1-.547.176.994.994,0,0,1-.2-.02,1.042,1.042,0,0,1-.664-.391.778.778,0,0,1-.2-.508V-.645a.8.8,0,0,1,.352-.566,13.633,13.633,0,0,0,2.295-1.816A14.678,14.678,0,0,0,50.7-5.312a.11.11,0,0,0,.01-.117.094.094,0,0,0-.088-.059h-3.5a.811.811,0,0,1-.6-.244.8.8,0,0,1-.244-.586.832.832,0,0,1,.244-.6.8.8,0,0,1,.6-.254H51.6a.173.173,0,0,0,.2-.2V-9.141a.173.173,0,0,0-.2-.2H49.375a1.637,1.637,0,0,1-1.2-.5,1.637,1.637,0,0,1-.5-1.2V-14.16a1.637,1.637,0,0,1,.5-1.2,1.637,1.637,0,0,1,1.2-.5h6.953a1.637,1.637,0,0,1,1.2.5,1.637,1.637,0,0,1,.5,1.2v3.125a1.637,1.637,0,0,1-.5,1.2,1.637,1.637,0,0,1-1.2.5h-2.48a.173.173,0,0,0-.2.2v1.777a.173.173,0,0,0,.2.2h4.375A.764.764,0,0,1,58.809-6.914Zm7.832-9.2a.717.717,0,0,1,.527.215.705.705,0,0,1,.215.518.674.674,0,0,1-.215.508.735.735,0,0,1-.527.205H62.6a.735.735,0,0,1-.527-.205.674.674,0,0,1-.215-.508.705.705,0,0,1,.215-.518.717.717,0,0,1,.527-.215ZM65.879-3.457a.173.173,0,0,0-.2-.2H63.5a.173.173,0,0,0-.2.2v2.48a.173.173,0,0,0,.2.2h2.188a.173.173,0,0,0,.2-.2Zm-.078-1.7a1.637,1.637,0,0,1,1.2.5,1.637,1.637,0,0,1,.5,1.2V-1a1.637,1.637,0,0,1-.5,1.2,1.637,1.637,0,0,1-1.2.5H63.4q-.1,0-.1.078a.767.767,0,0,1-.781.781H62.5a.772.772,0,0,1-.566-.234A.772.772,0,0,1,61.7.762V-3.457a1.637,1.637,0,0,1,.5-1.2,1.637,1.637,0,0,1,1.2-.5Zm-3.34-1.328a.711.711,0,0,1-.508-.205.674.674,0,0,1-.215-.508.705.705,0,0,1,.215-.518.694.694,0,0,1,.508-.215h4.2a.694.694,0,0,1,.508.215.705.705,0,0,1,.215.518.674.674,0,0,1-.215.508.711.711,0,0,1-.508.205Zm4.2-4.16a.694.694,0,0,1,.508.215.694.694,0,0,1,.215.508.694.694,0,0,1-.215.508.694.694,0,0,1-.508.215h-4.2a.694.694,0,0,1-.508-.215.694.694,0,0,1-.215-.508.694.694,0,0,1,.215-.508.694.694,0,0,1,.508-.215Zm-5.117-1.289a.7.7,0,0,1-.527-.225.738.738,0,0,1-.215-.527.705.705,0,0,1,.215-.518.717.717,0,0,1,.527-.215h5.8a.717.717,0,0,1,.527.215.705.705,0,0,1,.215.518.738.738,0,0,1-.215.527.7.7,0,0,1-.527.225ZM75.059-1.055a.173.173,0,0,0,.2.2h3.105a.849.849,0,0,1,.625.254.849.849,0,0,1,.254.625.849.849,0,0,1-.254.625A.849.849,0,0,1,78.359.9H68.984a.849.849,0,0,1-.625-.254A.849.849,0,0,1,68.105.02a.849.849,0,0,1,.254-.625.849.849,0,0,1,.625-.254h.371A.121.121,0,0,0,69.492-1V-9.707a.827.827,0,0,1,.254-.605.838.838,0,0,1,.615-.254.806.806,0,0,1,.605.254.843.843,0,0,1,.244.605v8.652a.173.173,0,0,0,.2.2h1.641a.173.173,0,0,0,.2-.2V-13.711a.173.173,0,0,0-.2-.2H69.609a.882.882,0,0,1-.635-.254.823.823,0,0,1-.264-.615.854.854,0,0,1,.264-.625.865.865,0,0,1,.635-.264h8.418a.843.843,0,0,1,.615.264.854.854,0,0,1,.264.625.823.823,0,0,1-.264.615.859.859,0,0,1-.615.254H75.254a.173.173,0,0,0-.2.2v4.785a.173.173,0,0,0,.2.2h2.637a.882.882,0,0,1,.635.254.823.823,0,0,1,.264.615.854.854,0,0,1-.264.625.865.865,0,0,1-.635.264H75.254a.173.173,0,0,0-.2.2ZM93.965-7.793a.1.1,0,0,0,0-.117.115.115,0,0,0-.1-.059H86.426a.115.115,0,0,0-.1.059.1.1,0,0,0,0,.117,11.369,11.369,0,0,0,3.555,3.945.238.238,0,0,0,.313,0A11.676,11.676,0,0,0,93.965-7.793ZM95.156-9.8a.672.672,0,0,1,.547.078l.391.234a.921.921,0,0,1,.381.479.81.81,0,0,1-.029.615,13.923,13.923,0,0,1-4.512,5.566.1.1,0,0,0-.049.107.1.1,0,0,0,.068.088A21.441,21.441,0,0,0,98.145-.762a.523.523,0,0,1,.469.371.648.648,0,0,1,.059.254.658.658,0,0,1-.117.371,1.665,1.665,0,0,1-.684.625,1.387,1.387,0,0,1-.625.156A1.547,1.547,0,0,1,96.992,1a21.042,21.042,0,0,1-6.875-2.441.341.341,0,0,0-.352,0A26.043,26.043,0,0,1,82.832.918a1.423,1.423,0,0,1-.234.02A1.375,1.375,0,0,1,82.012.8a1.6,1.6,0,0,1-.625-.625.63.63,0,0,1-.117-.352.689.689,0,0,1,.059-.273A.6.6,0,0,1,81.8-.82a25.343,25.343,0,0,0,6.27-1.855.1.1,0,0,0,.068-.088.1.1,0,0,0-.049-.107A14.545,14.545,0,0,1,85.1-6.328a1.094,1.094,0,0,1-.156-.547,1.045,1.045,0,0,1,.078-.391A1.056,1.056,0,0,1,85.7-7.91v-.039a.017.017,0,0,0-.02-.02H83.418a.882.882,0,0,1-.645-.273.882.882,0,0,1-.273-.645.882.882,0,0,1,.273-.645.882.882,0,0,1,.645-.273h5.371a.173.173,0,0,0,.2-.2v-2.363a.173.173,0,0,0-.2-.2H82.5a.882.882,0,0,1-.645-.273.882.882,0,0,1-.273-.645.882.882,0,0,1,.273-.645.882.882,0,0,1,.645-.273h6.289a.173.173,0,0,0,.2-.2v-1.68a.92.92,0,0,1,.283-.674.92.92,0,0,1,.674-.283.92.92,0,0,1,.674.283.92.92,0,0,1,.283.674v1.68a.173.173,0,0,0,.2.2h6.348a.882.882,0,0,1,.645.273.882.882,0,0,1,.273.645.882.882,0,0,1-.273.645.882.882,0,0,1-.645.273H91.094a.173.173,0,0,0-.2.2V-10a.173.173,0,0,0,.2.2h4.063Zm21.152-6.7a2.369,2.369,0,0,1,.293-.02,1.281,1.281,0,0,1,1.074.547.511.511,0,0,1,.088.527.521.521,0,0,1-.42.332,65.467,65.467,0,0,1-9.023.82.906.906,0,0,1-.566-.2.9.9,0,0,1-.332-.508.58.58,0,0,1,.068-.5.472.472,0,0,1,.42-.225A73.143,73.143,0,0,0,116.309-16.5Zm-2.871,3.848a.726.726,0,0,1,.02.176.8.8,0,0,1-.137.43.8.8,0,0,1-.508.352.674.674,0,0,1-.576-.107.76.76,0,0,1-.322-.5q-.078-.527-.215-1.094a.746.746,0,0,1,.107-.566.7.7,0,0,1,.479-.312.852.852,0,0,1,.576.127.762.762,0,0,1,.342.479Q113.32-13.145,113.438-12.656Zm-6.484,5.762v.156a1.027,1.027,0,0,1-.137.527,1,1,0,0,1-.547.43L105.1-5.41a.242.242,0,0,0-.176.254V-.488a2.945,2.945,0,0,1-.166,1.113,1.135,1.135,0,0,1-.557.586,3.728,3.728,0,0,1-1.7.352h-.039a1.008,1.008,0,0,1-.645-.234,1.229,1.229,0,0,1-.41-.625.693.693,0,0,1,.1-.576.513.513,0,0,1,.488-.244h.234q.469,0,.625-.02a.459.459,0,0,0,.293-.068.377.377,0,0,0,.078-.283v-4.16a.131.131,0,0,0-.059-.117.164.164,0,0,0-.137-.02l-1.133.371a.928.928,0,0,1-.254.039.7.7,0,0,1-.41-.137.723.723,0,0,1-.371-.547.905.905,0,0,1-.02-.176A1.025,1.025,0,0,1,101-5.781a.978.978,0,0,1,.605-.43q.605-.176,1.426-.391a.245.245,0,0,0,.2-.254v-4.1a.173.173,0,0,0-.2-.2h-1.27a.827.827,0,0,1-.605-.254.838.838,0,0,1-.254-.615.806.806,0,0,1,.254-.605.843.843,0,0,1,.605-.244h1.27a.173.173,0,0,0,.2-.2v-2.852a.811.811,0,0,1,.244-.6.811.811,0,0,1,.6-.244.843.843,0,0,1,.605.244.8.8,0,0,1,.254.6v2.852a.173.173,0,0,0,.2.2h.938a.834.834,0,0,1,.615.244.822.822,0,0,1,.244.605.855.855,0,0,1-.244.615.817.817,0,0,1-.615.254h-.937a.173.173,0,0,0-.2.2v3.574a.157.157,0,0,0,.059.127.118.118,0,0,0,.117.029q.059-.02.391-.117T106-7.48a.684.684,0,0,1,.215-.039.689.689,0,0,1,.391.117A.712.712,0,0,1,106.953-6.895Zm8.594,2.5a.112.112,0,0,0,0-.127.12.12,0,0,0-.1-.049H111.6a.115.115,0,0,0-.107.049.1.1,0,0,0,.01.107,8.7,8.7,0,0,0,2.109,2.207.223.223,0,0,0,.313-.02A6.722,6.722,0,0,0,115.547-4.395Zm.625-1.582a2.7,2.7,0,0,1,1.055.176.568.568,0,0,1,.322.293.524.524,0,0,1,.029.43,9.612,9.612,0,0,1-2.246,3.672.177.177,0,0,0-.029.127.15.15,0,0,0,.068.107,13.434,13.434,0,0,0,3.066,1.055.514.514,0,0,1,.4.361A.584.584,0,0,1,118.77.8a1.52,1.52,0,0,1-.664.527,1.257,1.257,0,0,1-.488.1,1.284,1.284,0,0,1-.312-.039A13.962,13.962,0,0,1,113.965,0a.306.306,0,0,0-.332,0,13.529,13.529,0,0,1-3.086,1.387,1.284,1.284,0,0,1-.312.039,1.045,1.045,0,0,1-.391-.078,1.275,1.275,0,0,1-.586-.469.532.532,0,0,1-.088-.508.51.51,0,0,1,.381-.352,14.271,14.271,0,0,0,2.656-1.035.1.1,0,0,0,.068-.088.145.145,0,0,0-.049-.127,11.957,11.957,0,0,1-1.719-1.875.132.132,0,0,0-.1-.039.077.077,0,0,0-.078.059,11.417,11.417,0,0,1-1.25,2.246A9.209,9.209,0,0,1,107.3,1.016a.829.829,0,0,1-.508.176.574.574,0,0,1-.137-.02,1.015,1.015,0,0,1-.625-.352.717.717,0,0,1-.215-.527.705.705,0,0,1,.273-.586,10.247,10.247,0,0,0,3.516-6.6.118.118,0,0,0-.029-.117.157.157,0,0,0-.127-.059h-1.621a.75.75,0,0,1-.547-.234.75.75,0,0,1-.234-.547.718.718,0,0,1,.234-.537.766.766,0,0,1,.547-.225h1.836a.193.193,0,0,0,.215-.2q.02-.371.078-.918a.207.207,0,0,0-.049-.137.157.157,0,0,0-.127-.059h-1.562a.717.717,0,0,1-.527-.215.705.705,0,0,1-.215-.518.738.738,0,0,1,.215-.527.7.7,0,0,1,.527-.225h.488a.132.132,0,0,0,.1-.039.088.088,0,0,0,.02-.1q-.176-.645-.508-1.543a.579.579,0,0,1,.02-.527.653.653,0,0,1,.41-.332.921.921,0,0,1,.605.049.743.743,0,0,1,.41.42q.156.332.273.645a1.045,1.045,0,0,1,.078.391,1,1,0,0,1-.117.449,1.084,1.084,0,0,1-.625.547v.039h4.941a.371.371,0,0,0,.313-.156,18.918,18.918,0,0,0,1.211-2.266,1.15,1.15,0,0,1,.527-.527.906.906,0,0,1,.41-.1,1.062,1.062,0,0,1,.293.039.652.652,0,0,1,.469.43.648.648,0,0,1,.059.254.658.658,0,0,1-.117.371q-.664,1.094-1.172,1.8a.1.1,0,0,0-.01.107.1.1,0,0,0,.088.049h1.25a.7.7,0,0,1,.527.225.738.738,0,0,1,.215.527.705.705,0,0,1-.215.518.717.717,0,0,1-.527.215h-5.664a.193.193,0,0,0-.215.2q-.039.547-.1.918a.207.207,0,0,0,.049.137.157.157,0,0,0,.127.059H118.2a.756.756,0,0,1,.557.225.733.733,0,0,1,.225.537.766.766,0,0,1-.225.547.74.74,0,0,1-.557.234h-6.582a.212.212,0,0,0-.234.176q-.02.137-.068.371t-.068.352a.136.136,0,0,0,.039.137.169.169,0,0,0,.117.059Zm18.75,3.2a.173.173,0,0,0,.2-.2v-.859a.173.173,0,0,0-.2-.2h-3.867a.173.173,0,0,0-.2.2v.859a.173.173,0,0,0,.2.2Zm-3.867-3.848a.173.173,0,0,0-.2.2v.742a.173.173,0,0,0,.2.2h3.867a.173.173,0,0,0,.2-.2v-.742a.173.173,0,0,0-.2-.2Zm-5.84-3.926a.173.173,0,0,0,.2.2h3.379a.173.173,0,0,0,.2-.2v-.82a.173.173,0,0,0-.2-.2H125.41a.173.173,0,0,0-.2.2Zm9.59-.82a.173.173,0,0,0-.2-.2h-3.555a.173.173,0,0,0-.2.2v.82a.173.173,0,0,0,.2.2h3.555a.173.173,0,0,0,.2-.2Zm3.555,5.879a.694.694,0,0,1,.508.215.705.705,0,0,1,.215.518.705.705,0,0,1-.215.518.694.694,0,0,1-.508.215h-1.172a.173.173,0,0,0-.2.2v2.363a.9.9,0,0,1-.273.664.9.9,0,0,1-.664.273H135.9a.756.756,0,0,1-.557-.225.733.733,0,0,1-.225-.537q0-.1-.078-.1h-3.984a.173.173,0,0,0-.2.2v.859a2.336,2.336,0,0,1-.215,1.123,1.34,1.34,0,0,1-.723.576,9.611,9.611,0,0,1-2.578.254h-.02a.984.984,0,0,1-.625-.215A1.384,1.384,0,0,1,126.25.84a.5.5,0,0,1,.039-.469.445.445,0,0,1,.41-.234q.645.02,1.074.02.488,0,.723-.02a.7.7,0,0,0,.381-.107.429.429,0,0,0,.107-.342v-.879a.173.173,0,0,0-.2-.2h-5.352a.678.678,0,0,1-.5-.205.667.667,0,0,1-.205-.488.667.667,0,0,1,.205-.488.678.678,0,0,1,.5-.205h5.352a.173.173,0,0,0,.2-.2v-.859a.173.173,0,0,0-.2-.2h-7.07a.717.717,0,0,1-.527-.215.705.705,0,0,1-.215-.518.705.705,0,0,1,.215-.518.717.717,0,0,1,.527-.215h7.07a.173.173,0,0,0,.2-.2v-.742a.173.173,0,0,0-.2-.2h-5.215a.608.608,0,0,1-.459-.2.657.657,0,0,1-.186-.469.657.657,0,0,1,.186-.469.608.608,0,0,1,.459-.2h5.215a.173.173,0,0,0,.2-.2v-.781a.173.173,0,0,0-.2-.2h-3.652a1.637,1.637,0,0,1-1.2-.5,1.637,1.637,0,0,1-.5-1.2v-.273a1.637,1.637,0,0,1,.5-1.2,1.637,1.637,0,0,1,1.2-.5h3.652a.173.173,0,0,0,.2-.2v-.645a.173.173,0,0,0-.2-.2h-6.641a.717.717,0,0,1-.527-.215.717.717,0,0,1-.215-.527.717.717,0,0,1,.215-.527.717.717,0,0,1,.527-.215h6.68a.138.138,0,0,0,.156-.156v-.371a.9.9,0,0,1,.273-.664.9.9,0,0,1,.664-.273.9.9,0,0,1,.664.273.9.9,0,0,1,.273.664v.371a.138.138,0,0,0,.156.156h6.895a.717.717,0,0,1,.527.215.717.717,0,0,1,.215.527.717.717,0,0,1-.215.527.717.717,0,0,1-.527.215h-6.855a.173.173,0,0,0-.2.2v.645a.173.173,0,0,0,.2.2h3.926a1.637,1.637,0,0,1,1.2.5,1.637,1.637,0,0,1,.5,1.2v.273a1.637,1.637,0,0,1-.5,1.2,1.637,1.637,0,0,1-1.2.5h-3.926a.173.173,0,0,0-.2.2v.781a.173.173,0,0,0,.2.2h4.238a1.637,1.637,0,0,1,1.2.5,1.637,1.637,0,0,1,.5,1.2v.566a.173.173,0,0,0,.2.2Zm14.3-6.152a.1.1,0,0,0,0-.117.131.131,0,0,0-.117-.059h-4.98a.115.115,0,0,0-.1.059q-.039.059,0,.1a8.183,8.183,0,0,1,.566,1.113.379.379,0,0,1-.01.381.448.448,0,0,1-.322.225v.02h3.965a.316.316,0,0,0,.293-.176A16.62,16.62,0,0,0,152.656-11.641Zm5.879,7.246a.76.76,0,0,1,.234.557.729.729,0,0,1-.234.547.766.766,0,0,1-.547.225H152.7q-.039,0-.059.049t.02.068a17.065,17.065,0,0,0,5.605,2.383.6.6,0,0,1,.449.41.684.684,0,0,1,.039.215.621.621,0,0,1-.137.391,1.558,1.558,0,0,1-.723.547,1.074,1.074,0,0,1-.449.1,1.045,1.045,0,0,1-.391-.078,16.761,16.761,0,0,1-6.016-3.32.113.113,0,0,0-.107-.02.076.076,0,0,0-.049.078V.664a.888.888,0,0,1-.264.654.92.92,0,0,1-1.289,0,.888.888,0,0,1-.264-.654V-2.109a.076.076,0,0,0-.049-.078.113.113,0,0,0-.107.02,18.862,18.862,0,0,1-6,3.184,1.353,1.353,0,0,1-.391.059A1.25,1.25,0,0,1,142.09,1a1.5,1.5,0,0,1-.684-.527A.6.6,0,0,1,141.27.1a1.316,1.316,0,0,1,.02-.215.551.551,0,0,1,.43-.391,18.323,18.323,0,0,0,5.605-2.441q.039-.02.02-.068t-.059-.049H142.07a.733.733,0,0,1-.537-.225.744.744,0,0,1-.225-.547.777.777,0,0,1,.225-.557.718.718,0,0,1,.537-.234h6.8a.173.173,0,0,0,.2-.2v-.82a.173.173,0,0,0-.2-.2h-5a.678.678,0,0,1-.5-.205.678.678,0,0,1-.205-.5.678.678,0,0,1,.205-.5.678.678,0,0,1,.5-.205h5a.173.173,0,0,0,.2-.2v-.8a.173.173,0,0,0-.2-.2H142.93a.717.717,0,0,1-.527-.215.717.717,0,0,1-.215-.527.717.717,0,0,1,.215-.527.717.717,0,0,1,.527-.215h3.164a.14.14,0,0,0,.107-.059.09.09,0,0,0,.01-.117,9.567,9.567,0,0,0-.566-1.27.311.311,0,0,1,.01-.273.327.327,0,0,1,.225-.176h-3.711a.74.74,0,0,1-.557-.234.777.777,0,0,1-.225-.557.744.744,0,0,1,.225-.547.756.756,0,0,1,.557-.225h1.973a.131.131,0,0,0,.117-.059.1.1,0,0,0,0-.117,13.1,13.1,0,0,0-.918-1.8.672.672,0,0,1-.068-.6.617.617,0,0,1,.42-.4,1.135,1.135,0,0,1,.361-.059,1.135,1.135,0,0,1,.361.059,1,1,0,0,1,.566.43,14.188,14.188,0,0,1,.723,1.27.867.867,0,0,1,.1.391.819.819,0,0,1-.078.332.882.882,0,0,1-.547.508v.02a.017.017,0,0,0,.02.02h1.895a.173.173,0,0,0,.2-.2v-2.363a.827.827,0,0,1,.254-.605.838.838,0,0,1,.615-.254.838.838,0,0,1,.615.254.827.827,0,0,1,.254.605v2.363a.173.173,0,0,0,.2.2H150.8a.173.173,0,0,0,.2-.2v-2.344a.834.834,0,0,1,.264-.625.871.871,0,0,1,.625-.254.838.838,0,0,1,.615.254.849.849,0,0,1,.254.625v2.344a.173.173,0,0,0,.2.2h1.895v-.02a.62.62,0,0,1-.361-.352.519.519,0,0,1,.029-.488,15.7,15.7,0,0,0,.684-1.426,1.2,1.2,0,0,1,.547-.586,1.2,1.2,0,0,1,.508-.117,1.931,1.931,0,0,1,.273.02.759.759,0,0,1,.508.449.736.736,0,0,1,.059.293.831.831,0,0,1-.1.371q-.566.977-1.055,1.7a.077.077,0,0,0-.01.1.094.094,0,0,0,.088.059h1.914a.733.733,0,0,1,.537.225.744.744,0,0,1,.225.547.777.777,0,0,1-.225.557.718.718,0,0,1-.537.234h-2.891a.316.316,0,0,0-.293.176q-.352.605-.918,1.543a.11.11,0,0,0-.01.117.094.094,0,0,0,.088.059h3.32a.727.727,0,0,1,.518.215.7.7,0,0,1,.225.527.7.7,0,0,1-.225.527.727.727,0,0,1-.518.215h-6.152a.173.173,0,0,0-.2.2v.8a.173.173,0,0,0,.2.2h5.254a.656.656,0,0,1,.479.205.678.678,0,0,1,.205.5.678.678,0,0,1-.205.5.656.656,0,0,1-.479.205h-5.254a.173.173,0,0,0-.2.2v.82a.173.173,0,0,0,.2.2h6.914A.75.75,0,0,1,158.535-4.395Z" transform="translate(-1.27 17.227)"/>
</svg>
