<svg xmlns="http://www.w3.org/2000/svg" width="115.879" height="18.184" viewBox="0 0 115.879 18.184">
  <path id="パス_6887" data-name="パス 6887" d="M9.141-2.93q0-.469-.02-.8a.217.217,0,0,0-.2-.234,9.274,9.274,0,0,0-1.6-.137,4.369,4.369,0,0,0-2.129.43A1.305,1.305,0,0,0,4.434-2.5a1.243,1.243,0,0,0,.723,1.152,4.277,4.277,0,0,0,2.012.391,2.039,2.039,0,0,0,1.494-.479A2.039,2.039,0,0,0,9.141-2.93Zm7.227.234a1.2,1.2,0,0,1,.449.781.994.994,0,0,1,.02.2,1.243,1.243,0,0,1-.215.684.91.91,0,0,1-.664.41H15.82A.933.933,0,0,1,15.2-.859a14.241,14.241,0,0,0-3.789-2.383.148.148,0,0,0-.117.01.109.109,0,0,0-.059.107v.859a3.085,3.085,0,0,1-.918,2.3,4.131,4.131,0,0,1-2.969.9A9.336,9.336,0,0,1,5.4.752,5.553,5.553,0,0,1,3.848.186,2.689,2.689,0,0,1,2.793-.85,3.1,3.1,0,0,1,2.422-2.4,2.962,2.962,0,0,1,3.74-4.893a6.433,6.433,0,0,1,3.838-.967q.488,0,1.27.059a.136.136,0,0,0,.137-.039.136.136,0,0,0,.039-.137q-.117-3.4-.117-4.238,0-.645-.01-1.855t-.01-1.582l-.059-1.035a1.094,1.094,0,0,1,.293-.742.982.982,0,0,1,.762-.352,1.023,1.023,0,0,1,.8.352,1.138,1.138,0,0,1,.273.742L10.9-13.652v1.543a.173.173,0,0,0,.2.2q2.48-.039,4.59-.234h.1a.855.855,0,0,1,.566.215.871.871,0,0,1,.313.684.959.959,0,0,1-.234.645.943.943,0,0,1-.664.313q-2.07.156-4.668.234a.173.173,0,0,0-.2.2q0,.7.2,4.316a.234.234,0,0,0,.2.234A15.457,15.457,0,0,1,16.367-2.7ZM31.68-15.254a1.21,1.21,0,0,1,.84-.41h.1a1.118,1.118,0,0,1,.762.293.945.945,0,0,1,.352.762,1,1,0,0,1-.391.82q-.371.312-.566.449-.664.566-2.715,2.227T27.324-8.887q-.859.742-.859,1.113t.9,1.133q.2.156,1.279,1.055L30.41-4.121q.684.566,1.689,1.436t1.709,1.514a1.117,1.117,0,0,1,.371.84,1.117,1.117,0,0,1-.371.84,1.2,1.2,0,0,1-.82.313H32.93A1.24,1.24,0,0,1,32.07.449q-.527-.547-.684-.723-1.055-1.133-6.113-5.41a4.017,4.017,0,0,1-1.211-1.445,1.522,1.522,0,0,1-.117-.566,1.56,1.56,0,0,1,.176-.7A5.591,5.591,0,0,1,25.43-9.824l1.719-1.416q1.387-1.143,2.4-2.012t1.6-1.475a1.628,1.628,0,0,0,.225-.215Q31.562-15.137,31.68-15.254ZM48.906-8.125a.245.245,0,0,0-.2.254v.293a20.049,20.049,0,0,0,.273,3.262.117.117,0,0,0,.078.078.088.088,0,0,0,.1-.02A13.161,13.161,0,0,0,51.914-8.4a.129.129,0,0,0-.02-.117.131.131,0,0,0-.117-.059A9.9,9.9,0,0,0,48.906-8.125ZM45-1.934A4.41,4.41,0,0,0,47.227-2.7a.251.251,0,0,0,.137-.293,24.22,24.22,0,0,1-.41-4.082.1.1,0,0,0-.049-.088.1.1,0,0,0-.107.01A6.936,6.936,0,0,0,44.766-5.2a3.893,3.893,0,0,0-.781,2.148Q43.984-1.934,45-1.934Zm7.578-8.535a.975.975,0,0,1,.41-.625.868.868,0,0,1,.488-.156.573.573,0,0,1,.215.039.82.82,0,0,1,.586.449.89.89,0,0,1,.117.43,1.284,1.284,0,0,1-.039.313l-.01.01-.01.01a.109.109,0,0,0,.078.156,5.7,5.7,0,0,1,2.773,1.826,4.49,4.49,0,0,1,1.016,2.9,5.555,5.555,0,0,1-1.348,3.7A7.545,7.545,0,0,1,52.676.84a2.517,2.517,0,0,1-.312.02,1.617,1.617,0,0,1-.547-.1A1.515,1.515,0,0,1,51.172.2a.687.687,0,0,1-.1-.332.689.689,0,0,1,.059-.273.608.608,0,0,1,.488-.371,6.534,6.534,0,0,0,3.418-1.641A3.824,3.824,0,0,0,56.23-5.215a3.007,3.007,0,0,0-.6-1.826,3.591,3.591,0,0,0-1.709-1.221.186.186,0,0,0-.254.117A15.685,15.685,0,0,1,49.59-2.187a.228.228,0,0,0-.078.273l.117.469a.964.964,0,0,1,.039.381.989.989,0,0,1-.1.342.816.816,0,0,1-.225.273A1,1,0,0,1,49-.273l-.039.02a.991.991,0,0,1-.273.039.89.89,0,0,1-.43-.117.762.762,0,0,1-.41-.527q-.039-.1-.117-.059A6.659,6.659,0,0,1,44.609,0,2.463,2.463,0,0,1,42.8-.684a2.676,2.676,0,0,1-.693-1.992,5.939,5.939,0,0,1,1.348-3.613,9.338,9.338,0,0,1,3.379-2.773.314.314,0,0,0,.2-.273q.039-.918.176-2.3a.207.207,0,0,0-.049-.137.157.157,0,0,0-.127-.059H46.27q-.9,0-2.4-.078a1.061,1.061,0,0,1-.664-.312.959.959,0,0,1-.293-.7.743.743,0,0,1,.254-.566.784.784,0,0,1,.547-.215h.078q1.563.156,2.539.156h.879a.193.193,0,0,0,.215-.2l.117-1.152a1.019,1.019,0,0,1,.332-.723,1.025,1.025,0,0,1,.723-.293h.02a.854.854,0,0,1,.645.332.857.857,0,0,1,.176.527,1.228,1.228,0,0,1-.02.2q-.1.391-.2,1.055a.125.125,0,0,0,.029.127.172.172,0,0,0,.127.049,38.031,38.031,0,0,0,5.742-.645h.156a.78.78,0,0,1,.469.156.721.721,0,0,1,.293.586,1.086,1.086,0,0,1-.254.7,1.028,1.028,0,0,1-.645.352q-2.754.41-5.977.566a.217.217,0,0,0-.215.215q-.078.762-.156,1.738a.157.157,0,0,0,.059.127.118.118,0,0,0,.117.029,12.415,12.415,0,0,1,2.969-.391q.293,0,.43.01a.156.156,0,0,0,.176-.127ZM69.922-.9a11.086,11.086,0,0,0,1.211-.059q.2-.02.156-.215A2.8,2.8,0,0,0,70.527-2.8a2.108,2.108,0,0,0-1.543-.6,1.617,1.617,0,0,0-1.025.313.954.954,0,0,0-.4.781,1.15,1.15,0,0,0,.664,1.025A3.384,3.384,0,0,0,69.922-.9Zm3.3-14.18a1.423,1.423,0,0,1,.234-.02,1.427,1.427,0,0,1,1.191.586.809.809,0,0,1,.156.488v.156a.932.932,0,0,1-.371.566q-.273.176-.469.313-.449.312-1.23.957T70.8-10.41q-1.152.977-1.5,1.289-.039.02-.02.049t.059.01a7.817,7.817,0,0,1,2.148-.273,6.258,6.258,0,0,1,4.131,1.367,4.28,4.28,0,0,1,1.65,3.438A4.813,4.813,0,0,1,75.41-.605,7.941,7.941,0,0,1,70.273.9a5.872,5.872,0,0,1-3.311-.84A2.534,2.534,0,0,1,65.7-2.129a2.593,2.593,0,0,1,.928-1.963,3.35,3.35,0,0,1,2.354-.85,4.092,4.092,0,0,1,2.773.928A4.02,4.02,0,0,1,73.105-1.66a.19.19,0,0,0,.078.117.129.129,0,0,0,.137,0,3.163,3.163,0,0,0,1.895-3.008,2.724,2.724,0,0,0-1.23-2.285,5.061,5.061,0,0,0-3.066-.9,7.48,7.48,0,0,0-3.5.781,13.5,13.5,0,0,0-3.164,2.422.951.951,0,0,1-.723.313.982.982,0,0,1-.723-.293.947.947,0,0,1-.273-.664.925.925,0,0,1,.352-.742q.84-.7,2.422-2.021t1.953-1.611q3.5-2.949,4.219-3.555a.076.076,0,0,0,.02-.088q-.02-.049-.059-.049-3.887.156-5.273.234-.332.039-.43.039h-.1a.933.933,0,0,1-.625-.234.926.926,0,0,1-.332-.723.816.816,0,0,1,.293-.645.882.882,0,0,1,.645-.273h.059q.293.02.547.02.938,0,3.408-.078t3.193-.137Q73.145-15.078,73.223-15.078Zm21.191,2.813a.173.173,0,0,0-.2-.2H92.188a.263.263,0,0,0-.254.176,4.932,4.932,0,0,1-1.348,1.953.725.725,0,0,1-.469.176H89.98a1.033,1.033,0,0,1-.586-.332.76.76,0,0,1-.205-.557.647.647,0,0,1,.264-.518,3.717,3.717,0,0,0,1.23-2.891v-.566a.926.926,0,0,1,.371-.762A.931.931,0,0,1,91.641-16a1.423,1.423,0,0,1,.234.02.728.728,0,0,0,.293.02,37.348,37.348,0,0,0,3.809-.566,2.2,2.2,0,0,1,.391-.039,1.467,1.467,0,0,1,1.016.41.4.4,0,0,1,.127.43.408.408,0,0,1-.322.313,35.576,35.576,0,0,1-4.668.664.173.173,0,0,0-.2.2v.469q-.02.2.176.2h5.664a.694.694,0,0,1,.508.215.694.694,0,0,1,.215.508.663.663,0,0,1-.215.5.711.711,0,0,1-.508.205H96.309a.173.173,0,0,0-.2.2V-11a.843.843,0,0,1-.244.605.8.8,0,0,1-.6.254.827.827,0,0,1-.605-.254A.827.827,0,0,1,94.414-11ZM85.566-4.043a.173.173,0,0,0-.2.2v.82a.173.173,0,0,0,.2.2h9.043a.173.173,0,0,0,.2-.2v-.82a.173.173,0,0,0-.2-.2Zm0-2.3a.173.173,0,0,0-.2.2v.8a.173.173,0,0,0,.2.2h9.043a.173.173,0,0,0,.2-.2v-.8a.173.173,0,0,0-.2-.2Zm0-2.246a.173.173,0,0,0-.2.2v.742a.173.173,0,0,0,.2.2h9.043a.173.173,0,0,0,.2-.2V-8.4a.173.173,0,0,0-.2-.2ZM85.273-1.68a1.637,1.637,0,0,1-1.2-.5,1.637,1.637,0,0,1-.5-1.2V-8.086a1.637,1.637,0,0,1,.5-1.2,1.637,1.637,0,0,1,1.2-.5h9.688a1.637,1.637,0,0,1,1.2.5,1.637,1.637,0,0,1,.5,1.2v4.707a1.637,1.637,0,0,1-.5,1.2,1.637,1.637,0,0,1-1.2.5Zm.859-10.586a.173.173,0,0,0-.2-.2H84.18a.217.217,0,0,0-.234.2,6.577,6.577,0,0,1-1.23,2.617.665.665,0,0,1-.527.254h-.039a.957.957,0,0,1-.605-.273.849.849,0,0,1-.254-.625.857.857,0,0,1,.176-.527,5.585,5.585,0,0,0,1.074-3.555V-15.1a.855.855,0,0,1,.371-.723.855.855,0,0,1,.527-.2.991.991,0,0,1,.273.039.65.65,0,0,0,.273.02,33.7,33.7,0,0,0,3.5-.586,1.559,1.559,0,0,1,.41-.059,1.334,1.334,0,0,1,.977.41.45.45,0,0,1,.127.459.41.41,0,0,1-.322.322,31.442,31.442,0,0,1-4.3.645.193.193,0,0,0-.2.215v.469q-.02.2.176.2h4.863a.663.663,0,0,1,.5.215.711.711,0,0,1,.205.508.678.678,0,0,1-.205.5.678.678,0,0,1-.5.205h-1.25a.173.173,0,0,0-.2.2V-11a.8.8,0,0,1-.234.576.767.767,0,0,1-.576.244.8.8,0,0,1-.586-.244A.788.788,0,0,1,86.133-11Zm-.1,11.055a2.334,2.334,0,0,1,.9-.2,1.933,1.933,0,0,1,.8.176.452.452,0,0,1,.273.41.42.42,0,0,1-.234.43A26.38,26.38,0,0,1,83.4,1.367a1.627,1.627,0,0,1-.43.059,1.627,1.627,0,0,1-.43-.059,1.7,1.7,0,0,1-.762-.449.486.486,0,0,1-.156-.352.642.642,0,0,1,.02-.156.458.458,0,0,1,.391-.352A22.773,22.773,0,0,0,86.035-1.211Zm6.25.879a.428.428,0,0,1-.293-.43.406.406,0,0,1,.215-.352,1.786,1.786,0,0,1,.957-.293,1.931,1.931,0,0,1,.645.117q2.285.8,4.082,1.563a.442.442,0,0,1,.293.449.442.442,0,0,1-.312.449,2.467,2.467,0,0,1-.957.2,2.711,2.711,0,0,1-1.152-.273Q94.2.371,92.285-.332ZM107.422-14.3a.173.173,0,0,0-.2-.2h-3.379a.173.173,0,0,0-.2.2v1a.173.173,0,0,0,.2.2h3.379a.173.173,0,0,0,.2-.2Zm-3.77,3.828a.173.173,0,0,0,.2.2h3.379a.173.173,0,0,0,.2-.2v-1.113a.173.173,0,0,0-.2-.2h-3.379a.173.173,0,0,0-.2.2Zm5.527-.059a1.637,1.637,0,0,1-.5,1.2,1.637,1.637,0,0,1-1.2.5h-3.633a.173.173,0,0,0-.2.2v9.3a.9.9,0,0,1-.264.645.861.861,0,0,1-.645.273.893.893,0,0,1-.654-.273.882.882,0,0,1-.273-.645V-14.277a1.637,1.637,0,0,1,.5-1.2,1.637,1.637,0,0,1,1.2-.5h3.965a1.637,1.637,0,0,1,1.2.5,1.637,1.637,0,0,1,.5,1.2Zm2.773,5.059a.173.173,0,0,0-.2-.2h-3.691a.173.173,0,0,0-.2.2v2.52a.173.173,0,0,0,.2.2h3.691a.173.173,0,0,0,.2-.2Zm1.738,2.559a1.637,1.637,0,0,1-.5,1.2,1.637,1.637,0,0,1-1.2.5h-3.984q-.137,0-.137.117v.176a.843.843,0,0,1-.244.605.806.806,0,0,1-.605.254.838.838,0,0,1-.615-.254.827.827,0,0,1-.254-.605V-5.527a1.637,1.637,0,0,1,.5-1.2,1.637,1.637,0,0,1,1.2-.5h4.141a1.637,1.637,0,0,1,1.2.5,1.637,1.637,0,0,1,.5,1.2Zm-1.152-7.539a.173.173,0,0,0,.2.2h3.477a.173.173,0,0,0,.2-.2v-1.133a.173.173,0,0,0-.2-.2h-3.477a.173.173,0,0,0-.2.2Zm3.867-3.867a.173.173,0,0,0-.2-.2h-3.477a.173.173,0,0,0-.2.2V-13.3a.173.173,0,0,0,.2.2h3.477a.173.173,0,0,0,.2-.2Zm.2-1.66a1.637,1.637,0,0,1,1.2.5,1.637,1.637,0,0,1,.5,1.2v13.5a3.08,3.08,0,0,1-.225,1.318,1.457,1.457,0,0,1-.752.693,8.8,8.8,0,0,1-2.715.332h-.02a1.138,1.138,0,0,1-.742-.273,1.413,1.413,0,0,1-.488-.7.737.737,0,0,1-.039-.234.658.658,0,0,1,.117-.371.559.559,0,0,1,.508-.293h.02q.352.02,1.953.02a.583.583,0,0,0,.391-.127.57.57,0,0,0,.1-.381V-8.613a.173.173,0,0,0-.2-.2h-3.75a1.637,1.637,0,0,1-1.2-.5,1.637,1.637,0,0,1-.5-1.2v-3.77a1.637,1.637,0,0,1,.5-1.2,1.637,1.637,0,0,1,1.2-.5Z" transform="translate(-2.422 16.602)"/>
</svg>
