<svg xmlns="http://www.w3.org/2000/svg" width="77.949" height="18.359" viewBox="0 0 77.949 18.359">
  <path id="パス_6884" data-name="パス 6884" d="M7.3-13.027a.164.164,0,0,0-.02-.137.131.131,0,0,0-.117-.059H4a.131.131,0,0,0-.117.059.1.1,0,0,0,0,.117,9.412,9.412,0,0,1,.488,1.406.991.991,0,0,1,.039.273.992.992,0,0,1-.156.527,1.161,1.161,0,0,1-.7.508v.039H7.7a.017.017,0,0,0,.02-.02.017.017,0,0,0-.02-.02.946.946,0,0,1-.7-.547,1.063,1.063,0,0,1-.137-.508,1.353,1.353,0,0,1,.059-.391Q7.148-12.461,7.3-13.027Zm1.6,9.883a.821.821,0,0,1,.313.586.321.321,0,0,1,.02.1.828.828,0,0,1-.2.547.666.666,0,0,1-.547.273H8.457a.75.75,0,0,1-.547-.234Q7.383-2.4,6.7-3.066a.076.076,0,0,0-.088-.02.076.076,0,0,0-.049.078V.645a.865.865,0,0,1-.264.635.9.9,0,0,1-1.27,0A.865.865,0,0,1,4.766.645V-2.949q0-.039-.049-.049a.074.074,0,0,0-.068.01A16.236,16.236,0,0,1,3.584-1.562,13.288,13.288,0,0,1,2.461-.371a.761.761,0,0,1-.527.215h-.1a.932.932,0,0,1-.625-.332.828.828,0,0,1-.2-.547.8.8,0,0,1,.293-.625A13.925,13.925,0,0,0,4.3-5.156a.1.1,0,0,0,.01-.107A.115.115,0,0,0,4.2-5.312H1.855a.772.772,0,0,1-.566-.234.772.772,0,0,1-.234-.566.74.74,0,0,1,.234-.557.789.789,0,0,1,.566-.225H4.57a.173.173,0,0,0,.2-.2V-8.516a.173.173,0,0,0-.2-.2H1.8a.772.772,0,0,1-.566-.234A.772.772,0,0,1,1-9.512a.74.74,0,0,1,.234-.557.789.789,0,0,1,.566-.225H2.871A.157.157,0,0,0,3-10.352a.207.207,0,0,0,.049-.137A9.605,9.605,0,0,0,2.773-11.7a1.106,1.106,0,0,1-.059-.352,1.127,1.127,0,0,1,.156-.566,1.055,1.055,0,0,1,.7-.566.017.017,0,0,0,.02-.02.017.017,0,0,0-.02-.02H2.031a.733.733,0,0,1-.537-.225.744.744,0,0,1-.225-.547.744.744,0,0,1,.225-.547.733.733,0,0,1,.537-.225H4.57a.173.173,0,0,0,.2-.2v-.8a.865.865,0,0,1,.264-.635.865.865,0,0,1,.635-.264A.865.865,0,0,1,6.3-16.4a.865.865,0,0,1,.264.635v.8a.173.173,0,0,0,.2.2H9.3a.733.733,0,0,1,.537.225.744.744,0,0,1,.225.547.744.744,0,0,1-.225.547.733.733,0,0,1-.537.225h-1.5a.017.017,0,0,0-.02.02.017.017,0,0,0,.02.02,1.061,1.061,0,0,1,.723.566.956.956,0,0,1,.137.488,1.031,1.031,0,0,1-.1.43q-.312.781-.527,1.23a.1.1,0,0,0,0,.117.131.131,0,0,0,.117.059H9.492a.756.756,0,0,1,.557.225.756.756,0,0,1,.225.557.789.789,0,0,1-.225.566.74.74,0,0,1-.557.234H6.758a.173.173,0,0,0-.2.2V-7.09a.173.173,0,0,0,.2.2H9.316a.766.766,0,0,1,.547.225.74.74,0,0,1,.234.557.772.772,0,0,1-.234.566.75.75,0,0,1-.547.234H6.738q-.176,0-.176.166a.308.308,0,0,0,.137.264Q7.383-4.395,8.906-3.145Zm9.414-7.012a.827.827,0,0,1,.605.254.827.827,0,0,1,.254.605.827.827,0,0,1-.254.605.827.827,0,0,1-.605.254H17.266a.173.173,0,0,0-.2.2V.566a.882.882,0,0,1-.254.635.845.845,0,0,1-.635.264.877.877,0,0,1-.645-.264.865.865,0,0,1-.264-.635V-8.242a.173.173,0,0,0-.2-.2H12.891a.173.173,0,0,0-.2.2q0,6.074-2.5,9.2a.685.685,0,0,1-.547.254H9.609A.976.976,0,0,1,8.984.938.887.887,0,0,1,8.691.313a.217.217,0,0,1-.02-.1.88.88,0,0,1,.2-.547A8.8,8.8,0,0,0,9.971-2.2,8.973,8.973,0,0,0,10.6-4.3q.186-1.094.254-1.982t.068-2v-5.762a.852.852,0,0,1,.352-.7.829.829,0,0,1,.508-.176.928.928,0,0,1,.254.039.576.576,0,0,0,.254.02,30.42,30.42,0,0,0,4.277-1.289,1.667,1.667,0,0,1,.625-.117,1.8,1.8,0,0,1,.254.02,1.434,1.434,0,0,1,.781.352.612.612,0,0,1,.215.469v.117a.562.562,0,0,1-.391.469,32.671,32.671,0,0,1-5.156,1.406.217.217,0,0,0-.2.234v2.852a.173.173,0,0,0,.2.2ZM34.941-5.488a.173.173,0,0,0-.2-.2H27.422a.173.173,0,0,0-.2.2V-4.9a.173.173,0,0,0,.2.2h7.324a.173.173,0,0,0,.2-.2ZM27.227-.7a.173.173,0,0,0,.2.2h7.324a.173.173,0,0,0,.2-.2v-.625a.173.173,0,0,0-.2-.2H27.422a.173.173,0,0,0-.2.2ZM34.746-2.6a.173.173,0,0,0,.2-.2V-3.4a.173.173,0,0,0-.2-.2H27.422a.173.173,0,0,0-.2.2v.605a.173.173,0,0,0,.2.2Zm3.691-6.738a.705.705,0,0,1,.215.518.705.705,0,0,1-.215.518.694.694,0,0,1-.508.215H27.559a.277.277,0,0,0-.273.2l-.273.645a.164.164,0,0,0,.02.137.115.115,0,0,0,.1.059h8.047a1.654,1.654,0,0,1,1.2.488,1.628,1.628,0,0,1,.5,1.211V.527a.943.943,0,0,1-.283.693.92.92,0,0,1-.674.283h-.43a.524.524,0,0,1-.381-.166.546.546,0,0,1-.166-.4.052.052,0,0,0-.059-.059h-7.6q-.059,0-.059.078a.562.562,0,0,1-.176.41.584.584,0,0,1-.43.176h-.312a.9.9,0,0,1-.664-.273.882.882,0,0,1-.273-.645V-4.121a.063.063,0,0,0-.039-.059.039.039,0,0,0-.059.02,15.586,15.586,0,0,1-2.461,2.734.933.933,0,0,1-.625.234h-.1a1.116,1.116,0,0,1-.7-.332.8.8,0,0,1-.254-.586.815.815,0,0,1,.313-.664A13.045,13.045,0,0,0,25.273-7.91a.129.129,0,0,0-.02-.117.131.131,0,0,0-.117-.059H22.07a.694.694,0,0,1-.508-.215.705.705,0,0,1-.215-.518.705.705,0,0,1,.215-.518.694.694,0,0,1,.508-.215h6.758a.173.173,0,0,0,.2-.2v-.781a.173.173,0,0,0-.2-.2H23.867a.656.656,0,0,1-.479-.205.667.667,0,0,1-.205-.488.667.667,0,0,1,.205-.488.656.656,0,0,1,.479-.205h4.961a.173.173,0,0,0,.2-.2v-.762a.173.173,0,0,0-.2-.2h-5.84a.717.717,0,0,1-.527-.215.705.705,0,0,1-.215-.518.738.738,0,0,1,.215-.527.7.7,0,0,1,.527-.225h2.559a.115.115,0,0,0,.107-.049.1.1,0,0,0-.01-.107,6.114,6.114,0,0,0-.41-.664.674.674,0,0,1-.088-.576.566.566,0,0,1,.4-.4,1.094,1.094,0,0,1,.41-.078.938.938,0,0,1,.332.059,1.086,1.086,0,0,1,.625.41,5.847,5.847,0,0,1,.742,1.211.131.131,0,0,1-.078.2h4.766q-.1-.039-.039-.137.352-.508.664-1.035a1.364,1.364,0,0,1,.625-.586,1.245,1.245,0,0,1,.527-.117.885.885,0,0,1,.313.059.658.658,0,0,1,.488.449.737.737,0,0,1,.039.234.648.648,0,0,1-.156.41q-.254.312-.469.586a.076.076,0,0,0-.02.088.076.076,0,0,0,.078.049h2.715a.68.68,0,0,1,.508.225.738.738,0,0,1,.215.527.705.705,0,0,1-.215.518.694.694,0,0,1-.508.215h-6a.173.173,0,0,0-.2.2v.762a.173.173,0,0,0,.2.2h5.078a.646.646,0,0,1,.488.205.684.684,0,0,1,.2.488.684.684,0,0,1-.2.488.646.646,0,0,1-.488.205H31.113a.173.173,0,0,0-.2.2v.781a.173.173,0,0,0,.2.2H37.93A.694.694,0,0,1,38.438-9.336Zm3.73,1.309a.652.652,0,0,1-.342.43.7.7,0,0,1-.547.049.75.75,0,0,1-.439-.361.831.831,0,0,1-.1-.371.684.684,0,0,1,.039-.215,27.581,27.581,0,0,0,.605-3.75.615.615,0,0,1,.234-.449.605.605,0,0,1,.488-.137.687.687,0,0,1,.469.264.7.7,0,0,1,.156.5A29.084,29.084,0,0,1,42.168-8.027Zm4.648-3.77a.7.7,0,0,1-.029.547.845.845,0,0,1-.4.41.581.581,0,0,1-.5.01.623.623,0,0,1-.342-.381q-.332-1.016-.723-1.953a.066.066,0,0,0-.049-.02q-.029,0-.029.039V.7a.827.827,0,0,1-.254.605.827.827,0,0,1-.605.254.8.8,0,0,1-.6-.254A.843.843,0,0,1,43.047.7V-15.937a.811.811,0,0,1,.244-.6.811.811,0,0,1,.6-.244.843.843,0,0,1,.605.244.8.8,0,0,1,.254.6v2.3a.079.079,0,0,0,.039.078.083.083,0,0,0,.078,0,1.25,1.25,0,0,1,.43-.078,1.419,1.419,0,0,1,.449.078,1.132,1.132,0,0,1,.625.625Q46.641-12.285,46.816-11.8Zm2.461,8.809a.173.173,0,0,0,.2.2H55.7a.173.173,0,0,0,.2-.2v-.859a.173.173,0,0,0-.2-.2h-6.23a.173.173,0,0,0-.2.2ZM55.9-6.465a.173.173,0,0,0-.2-.2h-6.23a.173.173,0,0,0-.2.2v.84a.173.173,0,0,0,.2.2H55.7a.173.173,0,0,0,.2-.2Zm.059-1.6a1.637,1.637,0,0,1,1.2.5,1.637,1.637,0,0,1,.5,1.2V-.332A2.538,2.538,0,0,1,57.49.684a1.053,1.053,0,0,1-.615.547,6.307,6.307,0,0,1-2.09.293h-.02a.933.933,0,0,1-.625-.234A1.376,1.376,0,0,1,53.711.7.592.592,0,0,1,53.8.186a.465.465,0,0,1,.439-.225h1.309a.5.5,0,0,0,.273-.088A.313.313,0,0,0,55.9-.371v-.9a.173.173,0,0,0-.2-.2h-6.23a.173.173,0,0,0-.2.2V.7a.827.827,0,0,1-.254.605.849.849,0,0,1-1.211,0A.827.827,0,0,1,47.559.7v-7.07a1.637,1.637,0,0,1,.5-1.2,1.637,1.637,0,0,1,1.2-.5Zm-2.48-2.559a.173.173,0,0,0,.2.2h4.785a.656.656,0,0,1,.479.205.667.667,0,0,1,.205.488.667.667,0,0,1-.205.488.656.656,0,0,1-.479.205h-11.6a.678.678,0,0,1-.5-.205.667.667,0,0,1-.205-.488.667.667,0,0,1,.205-.488.678.678,0,0,1,.5-.205h4.59a.173.173,0,0,0,.2-.2v-.762a.173.173,0,0,0-.2-.2H47.91a.623.623,0,0,1-.459-.186.623.623,0,0,1-.186-.459.623.623,0,0,1,.186-.459.623.623,0,0,1,.459-.186h3.535a.173.173,0,0,0,.2-.2v-.664a.173.173,0,0,0-.2-.2H47.461a.672.672,0,0,1-.479-.2.646.646,0,0,1-.205-.488.646.646,0,0,1,.205-.488.672.672,0,0,1,.479-.2h4.023a.138.138,0,0,0,.156-.156v-.41a.872.872,0,0,1,.273-.654.91.91,0,0,1,.654-.264.877.877,0,0,1,.645.264.888.888,0,0,1,.264.654v.41a.138.138,0,0,0,.156.156h4.219a.662.662,0,0,1,.488.2.662.662,0,0,1,.2.488.662.662,0,0,1-.2.488.662.662,0,0,1-.488.2h-4.18a.173.173,0,0,0-.2.2v.664a.173.173,0,0,0,.2.2h3.691a.656.656,0,0,1,.469.186.608.608,0,0,1,.2.459.608.608,0,0,1-.2.459.656.656,0,0,1-.469.186H53.672a.173.173,0,0,0-.2.2ZM66.895-7.4v-.02a.5.5,0,0,1-.361-.283.592.592,0,0,1-.029-.459q.352-.9.566-1.621a.147.147,0,0,0-.029-.137.14.14,0,0,0-.107-.059H63.848a.115.115,0,0,0-.1.059.129.129,0,0,0-.02.117,9.87,9.87,0,0,1,.586,1.621.62.62,0,0,1-.078.479.6.6,0,0,1-.391.283v.02Zm-.469-5.9a.173.173,0,0,0-.2.2v1.348a.173.173,0,0,0,.2.2h2.52a.772.772,0,0,1,.566.234.76.76,0,0,1,.234.557.76.76,0,0,1-.234.557.772.772,0,0,1-.566.234h-.977v.02a.649.649,0,0,1,.449.361.686.686,0,0,1,.02.576q-.371.918-.645,1.465a.124.124,0,0,0,.01.107.115.115,0,0,0,.107.049h.781a.772.772,0,0,1,.566.234.772.772,0,0,1,.234.566.772.772,0,0,1-.234.566.772.772,0,0,1-.566.234H66.426a.173.173,0,0,0-.2.2v1.484a.173.173,0,0,0,.2.2h2.031A.75.75,0,0,1,69-3.691a.76.76,0,0,1,.234.557A.76.76,0,0,1,69-2.578a.75.75,0,0,1-.547.234H66.426a.173.173,0,0,0-.2.2V.645a.849.849,0,0,1-.254.625.872.872,0,0,1-1.23,0,.849.849,0,0,1-.254-.625V-2.148a.173.173,0,0,0-.2-.2H62.148a.74.74,0,0,1-.557-.234.777.777,0,0,1-.225-.557.777.777,0,0,1,.225-.557.74.74,0,0,1,.557-.234H64.3a.173.173,0,0,0,.2-.2V-5.605a.173.173,0,0,0-.2-.2H61.973a.772.772,0,0,1-.566-.234.772.772,0,0,1-.234-.566.772.772,0,0,1,.234-.566.772.772,0,0,1,.566-.234h.762a.172.172,0,0,0,.127-.049.125.125,0,0,0,.029-.127,10.15,10.15,0,0,0-.43-1.484.7.7,0,0,1,.029-.547.613.613,0,0,1,.4-.352v-.02h-1.27a.75.75,0,0,1-.547-.234.76.76,0,0,1-.234-.557.76.76,0,0,1,.234-.557.75.75,0,0,1,.547-.234H64.3a.173.173,0,0,0,.2-.2v-1.348a.173.173,0,0,0-.2-.2H62.344a.756.756,0,0,1-.557-.225.744.744,0,0,1-.225-.547.777.777,0,0,1,.225-.557.74.74,0,0,1,.557-.234H64.3a.173.173,0,0,0,.2-.2v-.82a.827.827,0,0,1,.254-.605.838.838,0,0,1,.615-.254.838.838,0,0,1,.615.254.827.827,0,0,1,.254.605v.82a.173.173,0,0,0,.2.2h1.8a.75.75,0,0,1,.547.234.76.76,0,0,1,.234.557.729.729,0,0,1-.234.547.766.766,0,0,1-.547.225Zm5.586,5.859q0-.02-.029-.01t-.029.029v7.4a.094.094,0,0,0,.059.088.11.11,0,0,0,.117-.01,9.563,9.563,0,0,0,2.09-2.129.255.255,0,0,0,.02-.312A20.8,20.8,0,0,1,72.012-7.441Zm4.668,0a.118.118,0,0,0-.029-.117.157.157,0,0,0-.127-.059H73.711a.14.14,0,0,0-.107.059.118.118,0,0,0-.029.117,16.8,16.8,0,0,0,1.621,3.5.115.115,0,0,0,.1.059.115.115,0,0,0,.1-.059A17.051,17.051,0,0,0,76.68-7.441Zm.605-1.7a.811.811,0,0,1,.527.02L78.125-9a.628.628,0,0,1,.381.313.758.758,0,0,1,.088.488,19.118,19.118,0,0,1-2.051,5.762.255.255,0,0,0,.02.313A10.414,10.414,0,0,0,78.574-.391a.724.724,0,0,1,.352.566.369.369,0,0,1,.02.117.778.778,0,0,1-.2.508,1.162,1.162,0,0,1-.645.391,1.315,1.315,0,0,1-.215.02.992.992,0,0,1-.527-.156,11.487,11.487,0,0,1-1.816-1.68q-.117-.156-.254,0A12.827,12.827,0,0,1,74.023.762a1.293,1.293,0,0,1-.82.293h-.156a1.831,1.831,0,0,1-.977-.43.056.056,0,0,1-.02-.039.064.064,0,0,0-.068,0q-.029.02-.029.039V.742a.811.811,0,0,1-.244.6.8.8,0,0,1-.586.244.832.832,0,0,1-.6-.244.8.8,0,0,1-.254-.6V-14.2a1.637,1.637,0,0,1,.5-1.2,1.637,1.637,0,0,1,1.2-.5h4.57a1.637,1.637,0,0,1,1.2.5,1.637,1.637,0,0,1,.5,1.2v2.07a2.411,2.411,0,0,1-.186,1.055,1.143,1.143,0,0,1-.693.547,6.9,6.9,0,0,1-2.344.273,1.008,1.008,0,0,1-.645-.234,1.237,1.237,0,0,1-.41-.586.576.576,0,0,1,.059-.527.507.507,0,0,1,.449-.234q.586.02.977.02.449,0,.664-.02a.662.662,0,0,0,.313-.078.281.281,0,0,0,.078-.234v-1.914a.173.173,0,0,0-.2-.2h-4.16a.173.173,0,0,0-.2.2v4.727a.173.173,0,0,0,.2.2h5.137Z" transform="translate(-0.996 16.777)"/>
</svg>
