<svg id="コンポーネント_55_6" data-name="コンポーネント 55 – 6" xmlns="http://www.w3.org/2000/svg" width="228" height="52" viewBox="0 0 228 52">
  <g id="長方形_3255" data-name="長方形 3255" fill="#fff" stroke="#707070" stroke-width="1" opacity="0">
    <rect width="228" height="52" stroke="none"/>
    <rect x="0.5" y="0.5" width="227" height="51" fill="none"/>
  </g>
  <g id="グループ_7311" data-name="グループ 7311" transform="translate(-135.802 -108.166)">
    <path id="パス_6849" data-name="パス 6849" d="M156.12,147.532a18.507,18.507,0,0,1-4.233-.475,14.992,14.992,0,0,1-6.541-3.331,17.221,17.221,0,0,1-2.938-3.611,24.746,24.746,0,0,1-5.78-2.166.919.919,0,1,1,.912-1.6,21.059,21.059,0,0,0,3.712,1.528,14.627,14.627,0,0,1-.725-2.163,12.907,12.907,0,0,1-.221-5.254,13.416,13.416,0,0,1,.861-3,12.088,12.088,0,0,1,2.865-4.162,11.721,11.721,0,0,1,6.552-3.05,11.2,11.2,0,0,1,3.64.136,10.258,10.258,0,0,1,3.44,1.382,10.59,10.59,0,0,1,4.376,5.659,9.365,9.365,0,0,1,.393,4.244,8.769,8.769,0,0,1-1.424,3.642,12.185,12.185,0,0,1-6.42,4.595,20.12,20.12,0,0,1-6.158.953,23.844,23.844,0,0,1-3.439-.246,13.5,13.5,0,0,0,1.569,1.727,14.226,14.226,0,0,0,9.843,3.346c8.152-.069,13.371-6.553,14.335-7.852a.919.919,0,1,1,1.476,1.1,23.692,23.692,0,0,1-4.687,4.653,20.688,20.688,0,0,1-4.8,2.7,17.59,17.59,0,0,1-6.307,1.238Zm-12.526-9.03a19.909,19.909,0,0,0,10.427-.339c4.3-1.393,7.9-5.078,6.267-10.17a8.8,8.8,0,0,0-3.609-4.668,9.6,9.6,0,0,0-11.388,1.319,10.836,10.836,0,0,0-3.172,6.12A11.757,11.757,0,0,0,143.594,138.5Z" transform="translate(0 0)" fill="#47b847"/>
    <circle id="楕円形_81" data-name="楕円形 81" cx="1.207" cy="1.207" r="1.207" transform="translate(146.88 131.301)" fill="#231815"/>
    <circle id="楕円形_82" data-name="楕円形 82" cx="1.207" cy="1.207" r="1.207" transform="translate(154.739 130.094)" fill="#231815"/>
    <path id="パス_6850" data-name="パス 6850" d="M905.6,902.661a3.475,3.475,0,0,1-2.129-.842.276.276,0,0,1,.371-.408,2.87,2.87,0,0,0,1.965.688,2.654,2.654,0,0,0,1.83-1.215.276.276,0,0,1,.444.327,3.174,3.174,0,0,1-2.224,1.438Q905.728,902.661,905.6,902.661Z" transform="translate(-753.116 -766.255)" fill="#231815"/>
    <path id="パス_6851" data-name="パス 6851" d="M898.7,294.13" transform="translate(-748.514 -170.765)" fill="#fff" stroke="#231815" stroke-linecap="round" stroke-miterlimit="10" stroke-width="4"/>
  </g>
  <path id="パス_6856" data-name="パス 6856" d="M-141.944-1.675q.376.062.376.39a.349.349,0,0,1-.362.39l-3.562.232a.187.187,0,0,1,.007.041v.048a.407.407,0,0,1-.1.267.478.478,0,0,1-.4.171.432.432,0,0,1-.465-.437l-.28-2.42q-.007-.068-.007-.089a.385.385,0,0,1,.3-.4.624.624,0,0,1,.185-.027.444.444,0,0,1,.424.246l3.343-.287a1.318,1.318,0,0,1,.144-.007q.67,0,.67.54a.968.968,0,0,1-.034.246Zm-.882.055.137-.916a.5.5,0,0,0,.007-.082q0-.157-.185-.157h-.089l-2.748.253.13,1.114Zm1.442-5.175a.376.376,0,0,1,.349.4q0,.376-.41.4l-4.792.328a.486.486,0,0,1-.479.26.423.423,0,0,1-.451-.417l-.321-2.167A.692.692,0,0,1-147.5-8.1a.4.4,0,0,1,.246-.383.633.633,0,0,1,.26-.055.485.485,0,0,1,.458.26l4.546-.362h.144q.711,0,.711.588a1.041,1.041,0,0,1-.027.239Zm-.916.048.116-.813v-.068q0-.185-.226-.185h-.041l-3.958.308.137,1.053Zm-1.47-3.274,4.033-.28q.479,0,.479.424a.367.367,0,0,1-.376.417l-9.146.629h-.055a.4.4,0,0,1-.362-.205.407.407,0,0,1-.055-.205q0-.4.472-.431l3.951-.273v-1.128a.482.482,0,0,1,.178-.4.558.558,0,0,1,.349-.109.516.516,0,0,1,.424.185.482.482,0,0,1,.109.321Zm-4.587,6.057.28,4.245V.308a.363.363,0,0,1-.137.314.547.547,0,0,1-.369.123.449.449,0,0,1-.506-.465l-.321-4.888a.394.394,0,0,1,.116-.321.5.5,0,0,1,.383-.15.464.464,0,0,1,.472.314l8.62-.595q.068-.007.171-.007a.74.74,0,0,1,.718.342,1.9,1.9,0,0,1,.13.827,28.457,28.457,0,0,1-.219,3.623,2.722,2.722,0,0,1-.294,1.06.723.723,0,0,1-.643.3A4.217,4.217,0,0,1-141.678.3q-.349-.164-.349-.383A.287.287,0,0,1-141.7-.4a.99.99,0,0,1,.26.048,3.473,3.473,0,0,0,.909.13.438.438,0,0,0,.472-.362,17.491,17.491,0,0,0,.253-2.98l.014-.437q0-.547-.26-.547h-.048Zm17.193,3.91-3.869.547a2.377,2.377,0,0,1-.308.021q-.868,0-.868-1.1V-5.8q0-.4.444-.4t.451.4V-.854a.794.794,0,0,0,.062.383.313.313,0,0,0,.26.089,2.445,2.445,0,0,0,.28-.021l3.548-.492V-6.173q0-.41.444-.41a.515.515,0,0,1,.28.082.364.364,0,0,1,.171.328V.157a.359.359,0,0,1-.055.191.415.415,0,0,1-.4.212.448.448,0,0,1-.369-.171.365.365,0,0,1-.075-.232Zm-2.44-2.611q-.027.048-.075.123a7.668,7.668,0,0,1-.957,1.224.426.426,0,0,1-.3.157.3.3,0,0,1-.205-.089.273.273,0,0,1-.1-.205.694.694,0,0,1,.226-.431A8.041,8.041,0,0,0-133.871-3.6l-.909.1-.068.007a.333.333,0,0,1-.349-.212.409.409,0,0,1-.034-.171.36.36,0,0,1,.342-.41l1.285-.13V-6.385q0-.376.4-.376t.41.376V-4.5l1.107-.116h.055q.362,0,.362.39t-.335.41l-1.189.123v.4q.718.4,1.2.718a.527.527,0,0,1,.267.451.51.51,0,0,1-.1.314.351.351,0,0,1-.287.15.53.53,0,0,1-.349-.191q-.28-.273-.731-.649v1.415q0,.383-.4.383t-.41-.383Zm1.039-7.219,1.627-.137a.411.411,0,0,1,.062-.007.321.321,0,0,1,.349.226.476.476,0,0,1,.034.185.35.35,0,0,1-.349.4l-1.723.144v1.046l2.311-.178.068-.007q.41-.027.41.424a.373.373,0,0,1-.383.424l-6.255.472-.075.007q-.4,0-.4-.424a.367.367,0,0,1,.376-.417l1.08-.089V-9.42q0-.41.444-.41t.451.41v1.545l1.08-.082V-11.1q0-.424.444-.424a.5.5,0,0,1,.287.089.385.385,0,0,1,.164.335Zm5.578-.752.068.13A18.419,18.419,0,0,0-124.9-7.561a7.707,7.707,0,0,0,.841.868q.253.219.253.321,0,.082-.178.15a2.173,2.173,0,0,1-.759.205A.466.466,0,0,1-125.1-6.2a15.39,15.39,0,0,1-1.148-1.682,18.2,18.2,0,0,1-1.019-1.894,12.027,12.027,0,0,1-2.187,3.814q-.28.314-.437.314a.307.307,0,0,1-.219-.1.365.365,0,0,1-.13-.246,1.416,1.416,0,0,1,.321-.54,10.162,10.162,0,0,0,1.148-2.03,11.894,11.894,0,0,0,.766-2.242q.116-.506.52-.506a.647.647,0,0,1,.267.062.417.417,0,0,1,.267.4A.811.811,0,0,1-126.987-10.637Zm.144,9.529A3.306,3.306,0,0,1-126.03.3a.451.451,0,0,1-.246.4.538.538,0,0,1-.287.1.459.459,0,0,1-.362-.178,1.955,1.955,0,0,1-.191-.3,20.909,20.909,0,0,0-1.818-2.728.484.484,0,0,1-.144-.308.4.4,0,0,1,.116-.267.319.319,0,0,1,.232-.116.521.521,0,0,1,.342.178q.267.267,1.025,1.176a13.558,13.558,0,0,0,1.148-2.092,1.5,1.5,0,0,0,.13-.369q0-.1-.13-.1a.926.926,0,0,0-.1.007l-2.857.321a.589.589,0,0,1-.1.007q-.438,0-.437-.458,0-.369.438-.417l3.568-.349q.089-.007.144-.007.663,0,.663.54a1.748,1.748,0,0,1-.239.7A18.56,18.56,0,0,1-126.843-1.107Zm-7.875-5.2q.191,0,.492.438a1.854,1.854,0,0,1,.4.916.355.355,0,0,1-.164.314.337.337,0,0,1-.2.068q-.273,0-.383-.369a4.03,4.03,0,0,0-.355-.834.508.508,0,0,1-.082-.26.253.253,0,0,1,.1-.205A.3.3,0,0,1-134.718-6.3Zm3-.328a.337.337,0,0,1,.2.068.343.343,0,0,1,.164.3,2.091,2.091,0,0,1-.437.943q-.342.513-.5.513a.347.347,0,0,1-.185-.055.252.252,0,0,1-.137-.226.868.868,0,0,1,.13-.362,7.889,7.889,0,0,0,.41-.9A.367.367,0,0,1-131.717-6.631Zm3.8-.813a2.8,2.8,0,0,1,1.06.52q.6.4.6.759a.489.489,0,0,1-.109.314.4.4,0,0,1-.335.15.6.6,0,0,1-.444-.26,5.93,5.93,0,0,0-.916-.827.457.457,0,0,1-.205-.369.209.209,0,0,1,.055-.144A.4.4,0,0,1-127.917-7.444Zm11.7.027a22.523,22.523,0,0,0,2.7-2.9.665.665,0,0,1,.52-.314.489.489,0,0,1,.314.109.467.467,0,0,1,.191.369,1.1,1.1,0,0,1-.321.622q-.636.759-1.9,1.982l3.5-.308h.048a.4.4,0,0,1,.451.465.407.407,0,0,1-.417.458l-4.751.417q-1,.82-2.14,1.62l3.712-.369a2.355,2.355,0,0,1,.246-.014.83.83,0,0,1,.745.308,1.326,1.326,0,0,1,.157.711V.506a.46.46,0,0,1-.13.328.541.541,0,0,1-.39.144.508.508,0,0,1-.431-.2A.42.42,0,0,1-114.2.506V.185l-4.026.321a.453.453,0,0,1-.52.431.508.508,0,0,1-.431-.2.42.42,0,0,1-.089-.273V-4.081q-1.169.738-2.933,1.634a.867.867,0,0,1-.376.116.322.322,0,0,1-.308-.185.485.485,0,0,1-.055-.219.339.339,0,0,1,.15-.273,4.924,4.924,0,0,1,.513-.28,31.775,31.775,0,0,0,4.806-3.083l-4.833.424h-.062a.435.435,0,0,1-.287-.1.444.444,0,0,1-.157-.362.415.415,0,0,1,.417-.465l4.607-.4V-8.764l-2.434.2h-.068A.381.381,0,0,1-120.711-9a.385.385,0,0,1,.4-.431l2.522-.205v-1.34a.4.4,0,0,1,.13-.314.541.541,0,0,1,.39-.144.5.5,0,0,1,.451.219.421.421,0,0,1,.068.239v1.258L-115-9.857h.068q.41,0,.41.438a.379.379,0,0,1-.39.431l-1.832.144v1.477Zm-2.01,5.544V-.39l4.026-.321v-1.5Zm0-.841,4.026-.342V-4.1q0-.308-.294-.28l-3.732.335Zm19.182-2.27a21.141,21.141,0,0,1-2.358.492,14.678,14.678,0,0,1-1.559.212.453.453,0,0,1-.41-.178.64.64,0,0,1-.109-.349,1.527,1.527,0,0,1,.314-.581,17.89,17.89,0,0,0,1.7-2.912.476.476,0,0,1,.438-.335.677.677,0,0,1,.294.068.4.4,0,0,1,.273.383,1.073,1.073,0,0,1-.178.458,24.083,24.083,0,0,1-1.559,2.447,16.169,16.169,0,0,0,2.693-.349,9.177,9.177,0,0,0-.622-.718.432.432,0,0,1-.13-.287.358.358,0,0,1,.13-.26.341.341,0,0,1,.226-.1q.26,0,1.142.868.937.923.937,1.326a.423.423,0,0,1-.185.342.591.591,0,0,1-.349.123q-.246,0-.472-.342Q-98.884-4.744-99.048-4.983Zm-7.916-2.3.185-.232q.745-.93,1.217-1.654a.551.551,0,0,1,.465-.294.5.5,0,0,1,.308.109.429.429,0,0,1,.185.349.715.715,0,0,1-.157.41,25.453,25.453,0,0,1-2.324,2.721,13.392,13.392,0,0,1-1.012.957,17.123,17.123,0,0,0,2.666-.69q-.171-.342-.308-.567a.506.506,0,0,1-.089-.26.3.3,0,0,1,.13-.239.32.32,0,0,1,.185-.068.47.47,0,0,1,.335.191,6.886,6.886,0,0,1,.964,1.47.86.86,0,0,1,.116.4.367.367,0,0,1-.205.349.559.559,0,0,1-.253.062q-.294,0-.472-.458l-.1-.239q-.479.178-1.012.349V.431a.409.409,0,0,1-.068.232.429.429,0,0,1-.39.191.44.44,0,0,1-.39-.191.421.421,0,0,1-.062-.232V-4.361a11.117,11.117,0,0,1-1.818.4.335.335,0,0,1-.287-.157.632.632,0,0,1-.137-.362.4.4,0,0,1,.068-.226q.034-.048.308-.342.656-.711,1.422-1.606-.437-.171-1.121-.39-.554-.178-.554-.52a1.444,1.444,0,0,1,.4-.738,19.836,19.836,0,0,0,1.818-2.639.523.523,0,0,1,.458-.314.484.484,0,0,1,.28.1.419.419,0,0,1,.191.355,1.619,1.619,0,0,1-.342.745,19.467,19.467,0,0,1-1.825,2.283l.294.116Q-107.142-7.362-106.964-7.28Zm-1.142,3.787a.551.551,0,0,1,.219.041.444.444,0,0,1,.273.431,3.45,3.45,0,0,1-.349,1.056,10.481,10.481,0,0,1-.731,1.391q-.26.41-.479.41a.346.346,0,0,1-.205-.068.343.343,0,0,1-.137-.28A1.155,1.155,0,0,1-109.37-.9a15.894,15.894,0,0,0,.766-2.112Q-108.461-3.493-108.105-3.493Zm2.8-.376q.226,0,.526.554a8.907,8.907,0,0,1,.465,1.032.73.73,0,0,1,.062.273.425.425,0,0,1-.232.417.559.559,0,0,1-.253.062q-.376,0-.479-.506a12.912,12.912,0,0,0-.362-1.292.766.766,0,0,1-.041-.226.282.282,0,0,1,.171-.273A.3.3,0,0,1-105.3-3.869Zm5.161-7.417a.364.364,0,0,1,.308.178,4.1,4.1,0,0,1,.232.431,9.128,9.128,0,0,0,1.224,1.743,10.868,10.868,0,0,0,1.5,1.463q.314.246.314.39,0,.109-.164.178a2.076,2.076,0,0,1-.8.164.655.655,0,0,1-.513-.232A19.562,19.562,0,0,1-100.032-9.8a3.83,3.83,0,0,1-.561-1.128.309.309,0,0,1,.171-.273A.532.532,0,0,1-100.142-11.286ZM-102.179-3.5q.232,0,.4.4a5.248,5.248,0,0,0,1.5,2.153,2.838,2.838,0,0,0,1.812.731q.294,0,.294-.205a3.975,3.975,0,0,0-.246-.943.613.613,0,0,1-.027-.164.254.254,0,0,1,.287-.287q.178,0,.369.3A3.342,3.342,0,0,1-97.147.15q0,.574-.889.574a4.444,4.444,0,0,1-2.529-.786,4.649,4.649,0,0,1-1.374-1.531,6.6,6.6,0,0,1-.561-1.244,1,1,0,0,1-.075-.314.314.314,0,0,1,.12-.246A.413.413,0,0,1-102.179-3.5Zm.1-7.451a.655.655,0,0,1,.362.116.413.413,0,0,1,.205.369,2.878,2.878,0,0,1-.369.943A8.845,8.845,0,0,1-103.7-7a.8.8,0,0,1-.472.267.289.289,0,0,1-.185-.082.326.326,0,0,1-.157-.26.629.629,0,0,1,.185-.349,9.733,9.733,0,0,0,1.764-3.062Q-102.4-10.951-102.083-10.951Zm-1.176,8.094q.376,0,.376.39a10.917,10.917,0,0,1-.157,1.34A7.339,7.339,0,0,1-103.259-.1q-.144.424-.5.424a.666.666,0,0,1-.212-.034.416.416,0,0,1-.321-.417,1.339,1.339,0,0,1,.1-.369,12.613,12.613,0,0,0,.561-1.982Q-103.56-2.857-103.259-2.857Zm2.338-.9a.518.518,0,0,1,.369.226,1.993,1.993,0,0,0,.485.39.414.414,0,0,0,.191.075q.109,0,.219-.178a.315.315,0,0,1,.267-.171.239.239,0,0,1,.267.273,2.073,2.073,0,0,1-.232.786.47.47,0,0,1-.431.321,1.064,1.064,0,0,1-.7-.4,4.979,4.979,0,0,1-.615-.772.558.558,0,0,1-.1-.28.247.247,0,0,1,.085-.188A.28.28,0,0,1-100.921-3.76Zm2.57-.267q.294,0,1.053.711.7.656.7,1A.53.53,0,0,1-96.717-2a.46.46,0,0,1-.376.178q-.267,0-.492-.383a6.092,6.092,0,0,0-.957-1.23.451.451,0,0,1-.15-.3.259.259,0,0,1,.075-.178A.352.352,0,0,1-98.351-4.026Zm12.476,3.09a.423.423,0,0,1,.191.041.421.421,0,0,1,.212.4.458.458,0,0,1-.2.4.428.428,0,0,1-.232.075l-5.551.26.007.034a.748.748,0,0,1,.007.089q0,.431-.533.431-.424,0-.5-.52l-.561-3.965v-.062a.4.4,0,0,1,.253-.383A.593.593,0,0,1-92.5-4.2a.473.473,0,0,1,.472.287l5.578-.458q.089-.007.178-.007.9,0,.9.759a1.457,1.457,0,0,1-.027.253Zm-1.039.055.383-2.324v-.062q0-.15-.164-.15h-.048l-5.134.39.308,2.4Zm-2.017-9.734a15.242,15.242,0,0,0,1.47,1.463,19.812,19.812,0,0,0,4.108,2.905q.54.273.54.444,0,.123-.267.191a4.39,4.39,0,0,1-1.06.185.707.707,0,0,1-.417-.13,22.773,22.773,0,0,1-2.7-2.181,23.736,23.736,0,0,1-2.105-2.194,14.9,14.9,0,0,1-5.332,4.826.962.962,0,0,1-.4.137.3.3,0,0,1-.267-.157.383.383,0,0,1-.055-.191.358.358,0,0,1,.15-.28q.034-.034.485-.328a17.119,17.119,0,0,0,3.233-2.8,12.537,12.537,0,0,0,1.7-2.358q.205-.376.492-.376a.6.6,0,0,1,.246.055.418.418,0,0,1,.28.417A.851.851,0,0,1-88.93-10.616Zm1.668,4.655-4.238.349h-.082a.411.411,0,0,1-.472-.458q0-.4.451-.437l4.259-.383h.068a.426.426,0,0,1,.479.485Q-86.8-6-87.262-5.961Zm12.127-2.3v1.928l1.873-.13q.171-.014.328-.014.964,0,.964.54a2.5,2.5,0,0,1-.417,1.053,10.973,10.973,0,0,1-2.3,2.728q.513.328,1.128.663A25.985,25.985,0,0,0-70.029.13q.4.144.4.314,0,.15-.28.232A4.931,4.931,0,0,1-71.143.93a1.2,1.2,0,0,1-.533-.171,32.559,32.559,0,0,1-3.767-2.324A14.49,14.49,0,0,1-78.321.027a15.464,15.464,0,0,1-2.126.7.887.887,0,0,1-.219.034q-.383,0-.383-.4a.382.382,0,0,1,.232-.362,3.41,3.41,0,0,1,.472-.15,12.257,12.257,0,0,0,4.088-2,21.825,21.825,0,0,1-2.249-1.825.651.651,0,0,1-.246-.417.431.431,0,0,1,.116-.28.377.377,0,0,1,.28-.13,1.121,1.121,0,0,1,.615.355Q-77-3.8-75.525-2.734a9.24,9.24,0,0,0,1.969-2.338.782.782,0,0,0,.123-.314q0-.13-.191-.13h-.068l-5.168.4a.555.555,0,0,1-.068.007q-.479,0-.479-.458a.452.452,0,0,1,.479-.5l2.714-.191V-8.2l-4.02.28q-.547-.007-.547-.458a.429.429,0,0,1,.465-.472l4.1-.287V-11.17a.437.437,0,0,1,.191-.376.564.564,0,0,1,.355-.116.557.557,0,0,1,.39.15.452.452,0,0,1,.144.342V-9.2l3.78-.26.062-.007a.441.441,0,0,1,.5.5q0,.41-.479.444ZM-60.5-6.85a7.805,7.805,0,0,1-.2.991l4.5-.314.068-.007a.4.4,0,0,1,.4.212.411.411,0,0,1,.048.2q0,.4-.437.438l-4.833.321a9.184,9.184,0,0,1-.362.991l3.473-.253h.089q.745,0,.745.561a1.749,1.749,0,0,1-.342.848,8.464,8.464,0,0,1-1.422,1.593A18.587,18.587,0,0,0-56.042.212q.376.157.376.308,0,.1-.205.185a3.371,3.371,0,0,1-1.073.26,1.108,1.108,0,0,1-.581-.205q-.506-.328-1.812-1.312l-.15-.123A10.433,10.433,0,0,1-61.832.67,2.41,2.41,0,0,1-62.577.9a.365.365,0,0,1-.335-.164.359.359,0,0,1-.068-.2A.353.353,0,0,1-62.8.226a3.6,3.6,0,0,1,.349-.157,11.182,11.182,0,0,0,2.208-1.333,17.4,17.4,0,0,1-1.627-1.579,11.322,11.322,0,0,1-1.9,2.522q-.595.581-.841.581a.344.344,0,0,1-.267-.123.3.3,0,0,1-.082-.2q0-.164.362-.506a9.424,9.424,0,0,0,1.853-2.57,12.022,12.022,0,0,0,.663-1.593l.068-.205-1.777.116a.725.725,0,0,1-.082.007q-.424,0-.424-.39,0-.41.444-.437l2.078-.144q.13-.5.219-.984l-1.593.13-.082.007q-.424,0-.424-.383a.411.411,0,0,1,.424-.451l4.437-.369a.64.64,0,0,0,.055-.082,10.627,10.627,0,0,0,.957-1.839.505.505,0,0,1,.479-.376.739.739,0,0,1,.294.062.421.421,0,0,1,.287.4.741.741,0,0,1-.123.342,13.906,13.906,0,0,1-.95,1.415l.916-.075A.555.555,0,0,1-56.815-8q.438,0,.438.4a.407.407,0,0,1-.431.444Zm-.7,3.664a20.6,20.6,0,0,0,1.634,1.367,9.327,9.327,0,0,0,1.046-1.128.866.866,0,0,0,.2-.342q.007-.1-.185-.1h-.055Zm-4.238-4.5v1.818q.4-.239.827-.52a.589.589,0,0,1,.328-.123.343.343,0,0,1,.239.1.318.318,0,0,1,.109.239.431.431,0,0,1-.185.335q-.369.294-1.319.9V-.041q0,.868-.725.868a2.908,2.908,0,0,1-1.1-.314q-.848-.383-.848-.649,0-.3.328-.3a1.223,1.223,0,0,1,.335.062,2.784,2.784,0,0,0,.766.157q.294,0,.294-.4V-4.354a5.125,5.125,0,0,1-1.463.649q-.444,0-.444-.465a.452.452,0,0,1,.226-.39,2.159,2.159,0,0,1,.349-.171q.684-.3,1.333-.629V-7.547l-1.306.185a.46.46,0,0,1-.075.007.366.366,0,0,1-.355-.185.459.459,0,0,1-.068-.26q0-.376.417-.431l1.388-.2v-2.447a.431.431,0,0,1,.13-.328.464.464,0,0,1,.342-.137.475.475,0,0,1,.383.171.447.447,0,0,1,.1.294v2.317l.964-.137A.555.555,0,0,1-64.4-8.7a.346.346,0,0,1,.39.253.51.51,0,0,1,.034.185.411.411,0,0,1-.417.438Zm7.444-3.876a.425.425,0,0,1,.438.287.529.529,0,0,1,.048.191q0,.39-.731.567a45.645,45.645,0,0,1-4.778.82q-.123.014-.171.014-.4,0-.4-.342a.393.393,0,0,1,.287-.41q.055-.014.458-.075a27.113,27.113,0,0,0,4.293-.923A2.61,2.61,0,0,1-57.99-11.56Zm-5.243,2.112a.479.479,0,0,1,.314.15q.868.793.868,1.23a.354.354,0,0,1-.191.314.6.6,0,0,1-.328.1.465.465,0,0,1-.465-.362,5.421,5.421,0,0,0-.41-.82.743.743,0,0,1-.1-.294.3.3,0,0,1,.157-.26A.264.264,0,0,1-63.234-9.447Zm2.372-.328q.328,0,.82.636a1.747,1.747,0,0,1,.451.82.379.379,0,0,1-.226.328.708.708,0,0,1-.342.089q-.308,0-.458-.4a4.042,4.042,0,0,0-.451-.923.455.455,0,0,1-.1-.273Q-61.169-9.775-60.861-9.775Zm15.7,2L-45-7.779q1.907-.137,2.058-.15.089-.007.15-.007a.533.533,0,0,1,.431.178.444.444,0,0,1,.1.28.457.457,0,0,1-.205.417,1.135,1.135,0,0,1-.492.1l-1,.068q-.492.041-1.21.089a14.737,14.737,0,0,1-.458,3.288,6.8,6.8,0,0,1-2.249,3.4,1.29,1.29,0,0,1-.643.362.319.319,0,0,1-.26-.116.371.371,0,0,1-.089-.239.435.435,0,0,1,.1-.273q.055-.068.444-.424a6.209,6.209,0,0,0,1.873-3.63,15.769,15.769,0,0,0,.219-2.283l-.308.027-1.025.082-1.039.082-1.032.082-.26.021v2.3q0,.574-.5.574t-.506-.574V-6.357q-.725.062-1.531.116l-.861.062q-.1.007-.157.007-.547,0-.547-.492a.445.445,0,0,1,.335-.472,2.077,2.077,0,0,1,.369-.041q.984-.055,2.393-.171V-9.577q0-.574.5-.574t.506.574v2.16l.308-.027,1.039-.075,1.039-.075,1.032-.075.26-.014v-2.468q0-.588.533-.588t.533.588ZM-30.3-6.4q.711,0,.711.526a.461.461,0,0,1-.294.485,4.478,4.478,0,0,1-.807.062q-3.117.089-8.367.4h-.075a.592.592,0,0,1-.376-.123.489.489,0,0,1-.178-.4.484.484,0,0,1,.465-.52q.1-.014.69-.048,2.577-.15,3.972-.205,2.728-.1,3-.123Q-30.626-6.4-30.3-6.4Zm6.884-.335a48.124,48.124,0,0,0,5.373-1.142,1.25,1.25,0,0,1,.349-.062q.492,0,.492.554a.469.469,0,0,1-.355.485q-.335.116-2.427.513-1.859.349-3.432.561v2.789a1.088,1.088,0,0,0,.8,1.217,9.573,9.573,0,0,0,1.818.1q1.374,0,3.8-.212.075-.007.123-.007a.479.479,0,0,1,.383.178.637.637,0,0,1,.144.424q0,.417-.465.485l-.355.027Q-19.223-.7-20.877-.7a10.466,10.466,0,0,1-2.153-.144A1.678,1.678,0,0,1-24.309-1.88a3.119,3.119,0,0,1-.164-1.087v-6.9a.465.465,0,0,1,.533-.52.459.459,0,0,1,.52.52Zm6.132-3.726a.684.684,0,0,1,.383.15A4.694,4.694,0,0,1-15.62-9.03a.66.66,0,0,1,.123.349.389.389,0,0,1-.144.308.444.444,0,0,1-.294.1q-.2,0-.383-.294A7.69,7.69,0,0,0-17.35-9.857a.542.542,0,0,1-.2-.342A.23.23,0,0,1-17.288-10.459Zm1.2-.923q.342,0,1.114.69.656.581.656.937a.41.41,0,0,1-.15.335.445.445,0,0,1-.267.1.386.386,0,0,1-.321-.178,8.542,8.542,0,0,0-1.094-1.306.519.519,0,0,1-.2-.321A.227.227,0,0,1-16.085-11.382Zm9.154,7.226A19.364,19.364,0,0,1-11.279-.793a1.616,1.616,0,0,1-.608.253.358.358,0,0,1-.321-.171.377.377,0,0,1-.068-.212.391.391,0,0,1,.164-.3q.048-.041.479-.308A18.394,18.394,0,0,0-7.786-4.71,15.168,15.168,0,0,0-5.271-8.135a1.78,1.78,0,0,0,.212-.526q0-.109-.164-.109a3.047,3.047,0,0,0-.321.034q-.868.1-2.68.239-1.121.082-1.8.137-.1.007-.171.007-.547,0-.547-.479a.46.46,0,0,1,.383-.492A4.285,4.285,0,0,1-9.8-9.379q1.593-.1,3.514-.273,1.34-.123,1.593-.123a1.112,1.112,0,0,1,.629.164.627.627,0,0,1,.294.561,2.741,2.741,0,0,1-.355,1.025A16.235,16.235,0,0,1-6.357-4.771,17.349,17.349,0,0,1-2.563-1.866a.951.951,0,0,1,.314.643.559.559,0,0,1-.171.41.532.532,0,0,1-.39.164A.532.532,0,0,1-3.179-.8q-.027-.021-.246-.267A22.787,22.787,0,0,0-6.932-4.156Z" transform="translate(192 18)" fill="#231815"/>
  <path id="パス_6855" data-name="パス 6855" d="M-181.156.273a5.394,5.394,0,0,1-3.994-1.582,5.8,5.8,0,0,1-1.572-4.277,6.692,6.692,0,0,1,.439-2.441A5.416,5.416,0,0,1-185.111-9.9a5.47,5.47,0,0,1,1.67-1.162,4.683,4.683,0,0,1,1.934-.42,4.249,4.249,0,0,1,3.379,1.387,5.334,5.334,0,0,1,1.309,3.691,1.425,1.425,0,0,1-.527,1.133,1.9,1.9,0,0,1-1.309.488h-5.02a.169.169,0,0,0-.117.059.136.136,0,0,0-.039.137A3.07,3.07,0,0,0-182.8-2.646a3.1,3.1,0,0,0,2.031.674,4.276,4.276,0,0,0,1.6-.312,1.21,1.21,0,0,1,.469-.1,1.365,1.365,0,0,1,.332.039.956.956,0,0,1,.625.488,1.1,1.1,0,0,1,.137.527.991.991,0,0,1-.039.273.829.829,0,0,1-.488.605A6.847,6.847,0,0,1-181.156.273Zm-2.715-7.148a.132.132,0,0,0,.039.1.131.131,0,0,0,.117.059h4.18a.187.187,0,0,0,.137-.059.187.187,0,0,0,.059-.137h0a2.694,2.694,0,0,0-.586-1.689,1.952,1.952,0,0,0-1.543-.6,2.261,2.261,0,0,0-1.543.586A2.316,2.316,0,0,0-183.871-6.875Zm20.745-3.574a3.014,3.014,0,0,1,.332-.02,3,3,0,0,1,1.582.371,1.1,1.1,0,0,1,.488.664,1.559,1.559,0,0,1,.059.41,1.419,1.419,0,0,1-.078.449,14.553,14.553,0,0,1-2.91,5.41A14.4,14.4,0,0,1-169.377.684,1.978,1.978,0,0,1-170.1.82a2.266,2.266,0,0,1-.586-.078,2.466,2.466,0,0,1-1.113-.7.886.886,0,0,1-.234-.586.837.837,0,0,1,.059-.293.894.894,0,0,1,.645-.625,12.508,12.508,0,0,0,5.469-3.145,8.456,8.456,0,0,0,1.992-3.262.116.116,0,0,0-.01-.137.14.14,0,0,0-.107-.059h-9.473q-.469,0-1.016.02h-.059a1.25,1.25,0,0,1-.859-.332,1.133,1.133,0,0,1-.391-.879,1.133,1.133,0,0,1,.391-.879,1.181,1.181,0,0,1,.84-.332h.078q.566.02,1.016.02h10.332Zm-9.531-2.363h-.02a1.235,1.235,0,0,1-.879-.352,1.173,1.173,0,0,1-.391-.879,1.133,1.133,0,0,1,.391-.879,1.25,1.25,0,0,1,.859-.332h.039q.371.02.8.02h7.7q.449,0,.879-.02h.039a1.25,1.25,0,0,1,.859.332,1.133,1.133,0,0,1,.391.879,1.173,1.173,0,0,1-.391.879,1.235,1.235,0,0,1-.879.352h-9.395Zm24.416,2.793a.323.323,0,0,0-.156.293v7.988l.02,1.113A1.531,1.531,0,0,1-148.769.41,1.317,1.317,0,0,1-149.8.879,1.375,1.375,0,0,1-150.859.41a1.49,1.49,0,0,1-.41-1.035l.02-1.113V-8.105a.12.12,0,0,0-.049-.1.112.112,0,0,0-.127,0A38.872,38.872,0,0,1-156.757-6a1.617,1.617,0,0,1-.547.1,1.548,1.548,0,0,1-.625-.137,1.756,1.756,0,0,1-.918-.762,1.1,1.1,0,0,1-.137-.527,1.2,1.2,0,0,1,.078-.41,1.055,1.055,0,0,1,.723-.625,28.771,28.771,0,0,0,7.715-3.281,22.1,22.1,0,0,0,4.277-3.437,1.591,1.591,0,0,1,1-.469h.117a1.3,1.3,0,0,1,.9.352,1.32,1.32,0,0,1,.449,1.016,1.271,1.271,0,0,1-.41.957A31.683,31.683,0,0,1-148.241-10.02Zm19.709-4.414h.234a3.383,3.383,0,0,1,1.895.488,1.287,1.287,0,0,1,.586.742,1.982,1.982,0,0,1,.078.547,2.4,2.4,0,0,1-.039.43l-.078.313a19.415,19.415,0,0,1-3.008,7.266A15.4,15.4,0,0,1-135.388.313a2.113,2.113,0,0,1-.84.176,1.982,1.982,0,0,1-.547-.078,2.427,2.427,0,0,1-1.211-.723.963.963,0,0,1-.254-.645,1.211,1.211,0,0,1,.039-.293,1,1,0,0,1,.684-.7,12.828,12.828,0,0,0,6.27-4.238,10.313,10.313,0,0,0,1.484-2.6,14.93,14.93,0,0,0,.84-2.852.207.207,0,0,0-.049-.137.157.157,0,0,0-.127-.059h-10.1a.056.056,0,0,1-.039.02,1.344,1.344,0,0,1-.957-.391,1.271,1.271,0,0,1-.41-.957,1.244,1.244,0,0,1,.43-.957,1.235,1.235,0,0,1,.879-.352.321.321,0,0,1,.1.02q.625.039,1,.039h9.238Q-128.727-14.414-128.532-14.434Zm11.125,8.643a2.464,2.464,0,0,1-.752-1.807,2.464,2.464,0,0,1,.752-1.807,2.464,2.464,0,0,1,1.807-.752,2.464,2.464,0,0,1,1.807.752,2.464,2.464,0,0,1,.752,1.807,2.464,2.464,0,0,1-.752,1.807,2.464,2.464,0,0,1-1.807.752A2.464,2.464,0,0,1-117.407-5.791Zm25.422-8.584a1.076,1.076,0,0,0,.342.8,1.135,1.135,0,0,0,.82.332,1.135,1.135,0,0,0,.82-.332,1.076,1.076,0,0,0,.342-.8,1.13,1.13,0,0,0-.342-.83,1.119,1.119,0,0,0-.82-.342,1.119,1.119,0,0,0-.82.342A1.13,1.13,0,0,0-91.984-14.375Zm-1.23,0a2.315,2.315,0,0,1,.7-1.7,2.3,2.3,0,0,1,1.689-.7,2.3,2.3,0,0,1,1.689.7,2.315,2.315,0,0,1,.7,1.7,2.292,2.292,0,0,1-.7,1.68,2.3,2.3,0,0,1-1.689.7,2.3,2.3,0,0,1-1.689-.7A2.292,2.292,0,0,1-93.215-14.375Zm-10.938,8.164a28.994,28.994,0,0,0,1.7-6.133,1.4,1.4,0,0,1,.586-.937,1.242,1.242,0,0,1,.781-.273,1.211,1.211,0,0,1,.293.039,1.316,1.316,0,0,1,.9.625,1.44,1.44,0,0,1,.234.781,1.533,1.533,0,0,1-.039.332q-.078.332-.117.566-.234,1.133-.732,2.91t-.967,3.105a27.177,27.177,0,0,1-2.148,4.434,1.642,1.642,0,0,1-.977.762,1.783,1.783,0,0,1-.527.078,1.631,1.631,0,0,1-.7-.156,1.117,1.117,0,0,1-.7-.781,1.616,1.616,0,0,1-.039-.352,1.181,1.181,0,0,1,.215-.684A24.034,24.034,0,0,0-104.152-6.211Zm9.863-.43q-.957-2.637-2.246-5.332a1.178,1.178,0,0,1-.137-.527,1.211,1.211,0,0,1,.1-.469,1.173,1.173,0,0,1,.723-.684,1.719,1.719,0,0,1,.508-.078,1.769,1.769,0,0,1,.625.117,1.507,1.507,0,0,1,.82.781q1.406,2.91,2.324,5.313.859,2.168,1.895,5.488a1.475,1.475,0,0,1,.078.469,1.47,1.47,0,0,1-.2.723,1.481,1.481,0,0,1-.918.781,1.475,1.475,0,0,1-.469.078,1.332,1.332,0,0,1-.684-.2,1.43,1.43,0,0,1-.7-.918A56.69,56.69,0,0,0-94.289-6.641ZM-87-6.191h-.039a1.476,1.476,0,0,1-1.055-.43,1.386,1.386,0,0,1-.469-1.064A1.447,1.447,0,0,1-88.1-8.77a1.445,1.445,0,0,1,1.035-.41H-87q.938.039,1.66.039H-74.6q.371,0,.781-.02h.059a1.445,1.445,0,0,1,1.035.41A1.375,1.375,0,0,1-72.255-7.7a1.4,1.4,0,0,1-.469,1.074,1.445,1.445,0,0,1-1.035.41H-85.341Q-86.142-6.211-87-6.191Zm30.217-1.777a1.349,1.349,0,0,1,.8.82,1.522,1.522,0,0,1,.117.566,1.616,1.616,0,0,1-.117.605,1.36,1.36,0,0,1-.8.762,1.406,1.406,0,0,1-.508.1,1.416,1.416,0,0,1-.605-.137q-2.5-1.152-5.7-2.266a.129.129,0,0,0-.117.02.131.131,0,0,0-.059.117v5.469q0,.391.059,1.211v.117a1.367,1.367,0,0,1-.391.977,1.375,1.375,0,0,1-1.055.469A1.355,1.355,0,0,1-66.2.391a1.406,1.406,0,0,1-.371-.977v-.1q.059-.7.059-1.23V-13.4l-.039-.977a1.453,1.453,0,0,1,.371-.977,1.3,1.3,0,0,1,1.016-.469,1.317,1.317,0,0,1,1.035.469,1.367,1.367,0,0,1,.391.977.369.369,0,0,1-.02.117q-.02.469-.02.859v2.734a.242.242,0,0,0,.176.254A66.332,66.332,0,0,1-56.784-7.969Zm13.5-3.516a.173.173,0,0,0,.2.2h4.316q.391,0,.82-.02h.059a1.3,1.3,0,0,1,.9.352,1.215,1.215,0,0,1,.391.918A1.279,1.279,0,0,1-37-9.1a1.328,1.328,0,0,1-.918.352h-.039q-.488-.02-.84-.02H-43.11a.173.173,0,0,0-.2.2,13.032,13.032,0,0,1-1.113,4.98A10.276,10.276,0,0,1-47.72.273a1.99,1.99,0,0,1-1.172.371h-.078A2.152,2.152,0,0,1-50.239.2a.874.874,0,0,1-.371-.742,1,1,0,0,1,.488-.9,8.461,8.461,0,0,0,4.043-7.129.136.136,0,0,0-.039-.137.187.187,0,0,0-.137-.059h-4.9q-.43,0-.918.039h-.078a1.267,1.267,0,0,1-.9-.371,1.21,1.21,0,0,1-.41-.937,1.189,1.189,0,0,1,.41-.918,1.235,1.235,0,0,1,.879-.352h.078q.469.02.859.02h5a.173.173,0,0,0,.2-.2v-1.992q0-.371-.02-.781a.369.369,0,0,1-.02-.117,1.453,1.453,0,0,1,.371-.977,1.24,1.24,0,0,1,1-.469,1.375,1.375,0,0,1,1.055.469,1.556,1.556,0,0,1,.391,1.055l-.02.84ZM-34.2-6.191h-.039a1.476,1.476,0,0,1-1.055-.43,1.386,1.386,0,0,1-.469-1.064A1.447,1.447,0,0,1-35.3-8.77a1.445,1.445,0,0,1,1.035-.41h.059q.938.039,1.66.039H-21.8q.371,0,.781-.02h.059a1.445,1.445,0,0,1,1.035.41A1.375,1.375,0,0,1-19.455-7.7a1.4,1.4,0,0,1-.469,1.074,1.445,1.445,0,0,1-1.035.41H-32.541Q-33.342-6.211-34.2-6.191Zm33.284-9.18A.658.658,0,0,1-.8-15a.648.648,0,0,1-.059.254.767.767,0,0,1-.43.469.9.9,0,0,1-.371.078.885.885,0,0,1-.312-.059.9.9,0,0,1-.508-.449q-.391-.7-.742-1.27a.692.692,0,0,1-.088-.586.672.672,0,0,1,.4-.449,1.094,1.094,0,0,1,.41-.078,1.211,1.211,0,0,1,.293.039,1,1,0,0,1,.566.43Q-1.289-16.055-.918-15.371Zm-3.2,1.934a.017.017,0,0,0-.02.02v.039a.487.487,0,0,1,.215.332.639.639,0,0,1-.059.41,6.429,6.429,0,0,0-.43.82A28.349,28.349,0,0,1-7.441-6.5a.2.2,0,0,0,.02.293A52.73,52.73,0,0,1-2.969-1.777a1.478,1.478,0,0,1,.371,1q0,.059,0,.117A1.418,1.418,0,0,1-3.125.371a1.3,1.3,0,0,1-.9.352H-4.18a1.357,1.357,0,0,1-1-.547A47.94,47.94,0,0,0-9.16-4.141a.171.171,0,0,0-.273,0A27.842,27.842,0,0,1-15.488.645a1.851,1.851,0,0,1-.9.234A1.616,1.616,0,0,1-16.738.84,2.01,2.01,0,0,1-17.852.234a.947.947,0,0,1-.273-.664,1.423,1.423,0,0,1,.02-.234,1.06,1.06,0,0,1,.605-.762A21.349,21.349,0,0,0-13.77-3.75a22.706,22.706,0,0,0,3.086-2.832A16.849,16.849,0,0,0-8.926-8.955a12.783,12.783,0,0,0,1.172-2.334.147.147,0,0,0-.029-.137.14.14,0,0,0-.107-.059h-6.582q-.391,0-.957.039h-.1a1.3,1.3,0,0,1-.9-.352,1.271,1.271,0,0,1-.41-.957,1.271,1.271,0,0,1,.41-.957,1.328,1.328,0,0,1,.918-.352h.078q.566.02.957.02h7.051a8.687,8.687,0,0,0,1.8-.156.538.538,0,0,1,.488.078h0q-.313-.605-.625-1.133a.658.658,0,0,1-.117-.371.737.737,0,0,1,.039-.234.7.7,0,0,1,.41-.449,1.045,1.045,0,0,1,.391-.078,1.284,1.284,0,0,1,.313.039,1,1,0,0,1,.547.43q.312.488.605,1.035a.956.956,0,0,1,.137.488,1.051,1.051,0,0,1-.059.332,1,1,0,0,1-.566.586Z" transform="translate(227 39)" fill="#47b847"/>
</svg>
