<svg xmlns="http://www.w3.org/2000/svg" width="41.16" height="40.42" viewBox="0 0 41.16 40.42">
  <g id="グループ_7006" data-name="グループ 7006" transform="translate(-6531.365 -2289)">
    <path id="パス_6838" data-name="パス 6838" d="M11.865.42A9.934,9.934,0,0,1,6.44-1.085,10.1,10.1,0,0,1,2.713-5.442,15.816,15.816,0,0,1,1.365-12.25a15.816,15.816,0,0,1,1.348-6.807A10.1,10.1,0,0,1,6.44-23.415a9.934,9.934,0,0,1,5.425-1.5,9.934,9.934,0,0,1,5.425,1.5,10.1,10.1,0,0,1,3.728,4.358,15.816,15.816,0,0,1,1.347,6.807,15.816,15.816,0,0,1-1.347,6.808A10.1,10.1,0,0,1,17.29-1.085,9.934,9.934,0,0,1,11.865.42Zm0-4.8A4.006,4.006,0,0,0,15.382-6.3q1.278-1.925,1.278-5.95T15.382-18.2a4.006,4.006,0,0,0-3.517-1.925A3.977,3.977,0,0,0,8.382-18.2q-1.277,1.925-1.277,5.95T8.382-6.3A3.977,3.977,0,0,0,11.865-4.375Zm30.66-.245V0H24.01V-3.675L33.46-12.6a10.035,10.035,0,0,0,2.03-2.467,4.488,4.488,0,0,0,.525-2.047,2.707,2.707,0,0,0-1-2.257A4.642,4.642,0,0,0,32.1-20.16a6.711,6.711,0,0,0-2.905.612,5.563,5.563,0,0,0-2.17,1.838l-4.13-2.66a9.689,9.689,0,0,1,3.955-3.342A13.209,13.209,0,0,1,32.62-24.92a11.873,11.873,0,0,1,4.778.892,7.364,7.364,0,0,1,3.185,2.52,6.52,6.52,0,0,1,1.138,3.833,8.543,8.543,0,0,1-.84,3.745,14.416,14.416,0,0,1-3.255,3.99L31.99-4.62Z" transform="translate(6530 2329)" fill="#47b847"/>
    <text id="POINT" transform="translate(6532 2299)" fill="#47b847" font-size="13" font-family="FuturaTBold, Futura T"><tspan x="0" y="0">POINT</tspan></text>
  </g>
</svg>
