<svg xmlns="http://www.w3.org/2000/svg" width="88.2" height="76.392" viewBox="0 0 88.2 76.392">
  <g id="グループ_7005" data-name="グループ 7005" transform="translate(7592.075 279.4)">
    <g id="グループ_5646" data-name="グループ 5646" transform="translate(-14729 -2526)" opacity="0.4">
      <path id="パス_6836" data-name="パス 6836" d="M25.425.9A21.287,21.287,0,0,1,13.8-2.325a21.642,21.642,0,0,1-7.988-9.337A33.891,33.891,0,0,1,2.925-26.25,33.891,33.891,0,0,1,5.813-40.837,21.642,21.642,0,0,1,13.8-50.175,21.287,21.287,0,0,1,25.425-53.4,21.287,21.287,0,0,1,37.05-50.175a21.642,21.642,0,0,1,7.987,9.338A33.891,33.891,0,0,1,47.925-26.25a33.891,33.891,0,0,1-2.888,14.588A21.642,21.642,0,0,1,37.05-2.325,21.287,21.287,0,0,1,25.425.9Zm0-10.275A8.585,8.585,0,0,0,32.963-13.5Q35.7-17.625,35.7-26.25T32.963-39a8.585,8.585,0,0,0-7.538-4.125A8.522,8.522,0,0,0,17.962-39q-2.738,4.125-2.738,12.75T17.962-13.5A8.522,8.522,0,0,0,25.425-9.375Zm65.7-.525V0H51.45V-7.875L71.7-27a21.5,21.5,0,0,0,4.35-5.287,9.618,9.618,0,0,0,1.125-4.388,5.8,5.8,0,0,0-2.137-4.838Q72.9-43.2,68.775-43.2a14.381,14.381,0,0,0-6.225,1.312A11.921,11.921,0,0,0,57.9-37.95l-8.85-5.7a20.761,20.761,0,0,1,8.475-7.162A28.3,28.3,0,0,1,69.9-53.4a25.443,25.443,0,0,1,10.237,1.913,15.779,15.779,0,0,1,6.825,5.4A13.972,13.972,0,0,1,89.4-37.875a18.307,18.307,0,0,1-1.8,8.025q-1.8,3.75-6.975,8.55L68.55-9.9Z" transform="translate(7134 2300)" fill="#d0f7d0"/>
    </g>
    <g id="グループ_6930" data-name="グループ 6930" transform="translate(-9870.011 -968.992)">
      <path id="パス_6746" data-name="パス 6746" d="M2414.993,741a5,5,0,0,1-5-5v-3a5.016,5.016,0,0,1,.673-2.5,1,1,0,1,1,1.732,1,2.971,2.971,0,0,0-.406,1.5v3a3,3,0,0,0,6,0v-3a2.971,2.971,0,0,0-.406-1.5,1,1,0,1,1,1.732-1,5.016,5.016,0,0,1,.673,2.5v3A5,5,0,0,1,2414.993,741Z" transform="translate(-87.994 -16)" fill="#4e9174"/>
      <path id="パス_6747" data-name="パス 6747" d="M2344.993,769.237c-3.247,0-5-2.833-5-5.5v-.5a1,1,0,1,1,2,0v.5c0,1.407.8,3.5,3,3.5s3-1.885,3-3.5V761.3a1,1,0,0,1,2,0v2.439C2349.992,766.387,2348.428,769.237,2344.993,769.237Z" transform="translate(-31.99 -40.243)" fill="#4e9174"/>
      <path id="パス_6748" data-name="パス 6748" d="M2412.991,732h-12a1,1,0,0,1,0-2h12a1,1,0,1,1,0,2Z" transform="translate(-79.994 -16.001)" fill="#4e9174"/>
      <path id="パス_6749" data-name="パス 6749" d="M2418.99,716a1,1,0,0,1-.993-.891c-.153-1.38-.659-2.9-1.029-3.108a.691.691,0,0,0-.482.137,2.835,2.835,0,0,1-2.988,0,.691.691,0,0,0-.482-.137c-.37.206-.876,1.728-1.029,3.109a1,1,0,0,1-1.988-.218c.126-1.147.712-4.89,2.993-4.89a2.643,2.643,0,0,1,1.56.438.835.835,0,0,0,.878,0,2.644,2.644,0,0,1,1.56-.438c2.281,0,2.868,3.743,2.993,4.89a1,1,0,0,1-.885,1.1A.953.953,0,0,1,2418.99,716Z" transform="translate(-87.993)" fill="#4e9174"/>
      <path id="パス_6750" data-name="パス 6750" d="M2369.037,757.817a4.868,4.868,0,0,1-3.437-1.423,1,1,0,0,1,1.414-1.414,2.873,2.873,0,0,0,2.176.834,1,1,0,0,1,.108,2Q2369.167,757.818,2369.037,757.817Z" transform="translate(-52.241 -35.753)" fill="#4e9174"/>
      <path id="パス_6751" data-name="パス 6751" d="M2340.995,759.748a1,1,0,0,1,0-2,4.8,4.8,0,0,0,4.172-2.52,1,1,0,0,1,1.778.916A6.845,6.845,0,0,1,2340.995,759.748Z" transform="translate(-31.99 -35.752)" fill="#4e9174"/>
      <path id="パス_6752" data-name="パス 6752" d="M2339.991,748.995a1,1,0,0,1-1-1V738a8.245,8.245,0,0,0-.035-.836c0-.007,0-.014,0-.021-.207-2.5-1.3-3.489-1.928-3.858a1.876,1.876,0,0,0-1.558-.255.955.955,0,0,1-1.183-.266,3.162,3.162,0,0,0-2.292-.762c-3.435,0-5,3.161-5,6.1v7.138a1,1,0,1,1-2,0V738.1c0-4.024,2.4-8.1,7-8.1a5.421,5.421,0,0,1,3.3,1,4.075,4.075,0,0,1,2.738.553c.966.564,2.626,2.017,2.911,5.408a9.907,9.907,0,0,1,.045,1.033v10A1,1,0,0,1,2339.991,748.995Z" transform="translate(-19.989 -16.001)" fill="#4e9174"/>
      <path id="パス_6753" data-name="パス 6753" d="M2456.81,789.151a3.378,3.378,0,0,1-3.374-3.374V772.156a1,1,0,0,1,2,0v13.621a1.376,1.376,0,0,0,1.375,1.375.626.626,0,0,0,.625-.625V769.2a7,7,0,0,0-7-7h-.139a1,1,0,1,1,0-2h.1a8.9,8.9,0,0,1,6.383,2.62,9.047,9.047,0,0,1,2.654,6.377v17.33A2.627,2.627,0,0,1,2456.81,789.151Z" transform="translate(-119.438 -40.162)" fill="#4e9174"/>
      <path id="パス_6754" data-name="パス 6754" d="M2398.984,762.3h-3.189a1,1,0,1,1,0-2h3.189a1,1,0,0,1,0,2Z" transform="translate(-75.833 -40.243)" fill="#4e9174"/>
      <path id="パス_6755" data-name="パス 6755" d="M2435.995,930a1,1,0,0,1-1-1V916a1,1,0,1,1,2,0v13A1,1,0,0,1,2435.995,930Z" transform="translate(-107.996 -164.012)" fill="#4e9174"/>
      <path id="パス_6756" data-name="パス 6756" d="M2405.995,954a1,1,0,0,1-1-1v-7a1,1,0,1,1,2,0v7A1,1,0,0,1,2405.995,954Z" transform="translate(-83.994 -188.014)" fill="#4e9174"/>
      <path id="パス_6757" data-name="パス 6757" d="M2465.995,917.995a1,1,0,0,1-1-1V901a1,1,0,0,1,2,0v16A1,1,0,0,1,2465.995,917.995Z" transform="translate(-131.997 -152.011)" fill="#4e9174"/>
      <path id="パス_6758" data-name="パス 6758" d="M2418.991,883.5h-13a1,1,0,1,1,0-2h12v-2.374a1,1,0,0,1,2,0V882.5A1,1,0,0,1,2418.991,883.5Z" transform="translate(-83.994 -134.51)" fill="#4e9174"/>
      <path id="パス_6759" data-name="パス 6759" d="M2334.989,866.994h-18.994a1,1,0,0,1-.993-1.116l1.049-8.968a1.034,1.034,0,0,1,.026-.136l1.363-10.9a1,1,0,0,1,1.984.248l-1.378,11.017a1.019,1.019,0,0,1-.022.119l-.905,7.734h16.754l-1.826-16.445a1,1,0,0,1,1.987-.221l1.95,17.555a1,1,0,0,1-.994,1.11Z" transform="translate(-11.989 -108.008)" fill="#4e9174"/>
      <path id="パス_6760" data-name="パス 6760" d="M2360.995,954a1,1,0,0,1-1-1v-7a1,1,0,1,1,2,0v7A1,1,0,0,1,2360.995,954Z" transform="translate(-47.991 -188.014)" fill="#4e9174"/>
      <path id="パス_6761" data-name="パス 6761" d="M2385.995,954a1,1,0,0,1-1-1v-7a1,1,0,1,1,2,0v7A1,1,0,0,1,2385.995,954Z" transform="translate(-67.993 -188.014)" fill="#4e9174"/>
      <path id="パス_6762" data-name="パス 6762" d="M2335.995,954a1,1,0,0,1-1-1v-7a1,1,0,1,1,2,0v7A1,1,0,0,1,2335.995,954Z" transform="translate(-27.99 -188.014)" fill="#4e9174"/>
      <path id="パス_6763" data-name="パス 6763" d="M2303.45,839.423a3.429,3.429,0,0,1-.8-.1l-.017,0a1.054,1.054,0,0,1-.117-.023,3.36,3.36,0,0,1-2.449-3.825l2.168-12.43a8.129,8.129,0,0,1,.353-1.385,1,1,0,0,1,1.882.675,6.129,6.129,0,0,0-.264,1.047l-2.171,12.443a1.352,1.352,0,0,0,.939,1.526h0a1.024,1.024,0,0,1,.115.023,1.44,1.44,0,0,0,1.186-.213c.032-.023.07-.049.109-.08a1,1,0,0,1,1.681.731,1.01,1.01,0,0,1-.355.765h0a3.506,3.506,0,0,1-.287.22A3.453,3.453,0,0,1,2303.45,839.423Z" transform="translate(0 -88.806)" fill="#4e9174"/>
      <path id="パス_6764" data-name="パス 6764" d="M2326,794.638a1,1,0,0,1-.663-1.748,10.29,10.29,0,0,1,5.01-2.376,1,1,0,1,1,.342,1.97,8.268,8.268,0,0,0-4.026,1.9A1,1,0,0,1,2326,794.638Z" transform="translate(-19.989 -64.404)" fill="#4e9174"/>
      <path id="パス_6765" data-name="パス 6765" d="M2377.435,806.156a1,1,0,0,1,0-2,2.36,2.36,0,0,0,1.436-.349c.147-.112.564-.427.564-1.65a23.875,23.875,0,0,0-1.911-5.588,1,1,0,0,1-.088-.411,4,4,0,0,0-3.509-3.966,1,1,0,1,1,.241-1.985,6,6,0,0,1,5.264,5.729c.482,1.086,2,4.641,2,6.221a3.812,3.812,0,0,1-1.347,3.236A4.239,4.239,0,0,1,2377.435,806.156Z" transform="translate(-58.433 -64.165)" fill="#4e9174"/>
      <path id="パス_6766" data-name="パス 6766" d="M2304.908,792.882c-.06,0-.12,0-.18-.005a2.965,2.965,0,0,1-1.416-.389,3.068,3.068,0,0,1-1.517-2.229l-.188-1.206a3.988,3.988,0,0,1,2.258-4.231l2.957-1.378a1,1,0,1,1,.844,1.812l-2.959,1.38a1.983,1.983,0,0,0-1.125,2.105l.191,1.223a1.08,1.08,0,0,0,.534.79.948.948,0,0,0,.457.125l.069,0a.9.9,0,0,0,.4-.059c.027-.011.055-.021.083-.03.715-.306.925-.971.925-2.873a1,1,0,1,1,2,0c0,1.547,0,3.885-2.258,4.761-.027.01-.053.019-.08.027A2.853,2.853,0,0,1,2304.908,792.882Z" transform="translate(-1.236 -58.684)" fill="#4e9174"/>
      <path id="パス_6767" data-name="パス 6767" d="M2330.6,851a3.2,3.2,0,0,1-2.451-1.126,5.2,5.2,0,0,1-1.1-4,1,1,0,0,1,1.984.248,3.251,3.251,0,0,0,.617,2.425,1.217,1.217,0,0,0,.952.45,2.86,2.86,0,0,0,2.247-.658,1,1,0,0,1,1.5,1.316A4.665,4.665,0,0,1,2330.6,851Z" transform="translate(-21.598 -108.008)" fill="#4e9174"/>
      <path id="パス_6768" data-name="パス 6768" d="M2485.995,909.994a1,1,0,0,1-1-1V893.5a3.5,3.5,0,0,1,7,0,1,1,0,0,1-2,0,1.5,1.5,0,0,0-3,0v15.5A1,1,0,0,1,2485.995,909.994Z" transform="translate(-147.998 -144.01)" fill="#4e9174"/>
    </g>
  </g>
</svg>
