<svg xmlns="http://www.w3.org/2000/svg" width="97.5" height="69.68" viewBox="0 0 97.5 69.68">
  <g id="グループ_7003" data-name="グループ 7003" transform="translate(7860.075 14.4)">
    <path id="パス_6834" data-name="パス 6834" d="M25.425.9A21.287,21.287,0,0,1,13.8-2.325a21.642,21.642,0,0,1-7.988-9.337A33.891,33.891,0,0,1,2.925-26.25,33.891,33.891,0,0,1,5.813-40.837,21.642,21.642,0,0,1,13.8-50.175,21.287,21.287,0,0,1,25.425-53.4,21.287,21.287,0,0,1,37.05-50.175a21.642,21.642,0,0,1,7.987,9.338A33.891,33.891,0,0,1,47.925-26.25a33.891,33.891,0,0,1-2.888,14.588A21.642,21.642,0,0,1,37.05-2.325,21.287,21.287,0,0,1,25.425.9Zm0-10.275A8.585,8.585,0,0,0,32.963-13.5Q35.7-17.625,35.7-26.25T32.963-39a8.585,8.585,0,0,0-7.538-4.125A8.522,8.522,0,0,0,17.962-39q-2.738,4.125-2.738,12.75T17.962-13.5A8.522,8.522,0,0,0,25.425-9.375Zm75-1.65h-8.55V0H80.025V-11.025H51.75V-19.2L76.5-52.5H89.25L66.3-20.925H80.4V-30.75H91.875v9.825h8.55Z" transform="translate(-7863 39)" fill="#d0f7d0" opacity="0.4"/>
    <g id="グループ_6118" data-name="グループ 6118" transform="translate(-8266.5 -34.797)">
      <g id="グループ_6116" data-name="グループ 6116" transform="translate(434.105 42.665)">
        <path id="パス_6180" data-name="パス 6180" d="M443.09,55.616a5.629,5.629,0,1,1,5.63-5.629A5.635,5.635,0,0,1,443.09,55.616Zm0-9.382a3.753,3.753,0,1,0,3.753,3.753A3.757,3.757,0,0,0,443.09,46.234Z" transform="translate(-437.461 -44.358)" fill="#4e9174"/>
      </g>
      <path id="パス_6181" data-name="パス 6181" d="M462.924,90.425" transform="translate(-12.893 -18.947)" fill="#4e9174" stroke="#505050" stroke-linecap="round" stroke-linejoin="round" stroke-width="3"/>
      <path id="パス_6182" data-name="パス 6182" d="M446.079,98.8a3.4,3.4,0,0,1-3.369-3.42V84.31a.395.395,0,1,0-.79,0V95.385a3.4,3.4,0,0,1-3.37,3.42,3.225,3.225,0,0,1-3.161-3.42V70.248a.938.938,0,0,1,1.876,0V95.385a1.381,1.381,0,0,0,1.285,1.544,1.521,1.521,0,0,0,1.494-1.544V84.31a2.271,2.271,0,1,1,4.543,0V95.385a1.521,1.521,0,0,0,1.493,1.544,1.381,1.381,0,0,0,1.285-1.544V72.914a6.422,6.422,0,0,1,1.895-4.569l4.929-4.929a.938.938,0,0,1,1.327,1.327l-4.928,4.929a4.556,4.556,0,0,0-1.345,3.242V95.385A3.226,3.226,0,0,1,446.079,98.8Z" transform="translate(-2.58 -8.728)" fill="#4e9174"/>
      <path id="パス_6183" data-name="パス 6183" d="M431.5,81.727a3.054,3.054,0,0,1-3-3.236V67.923a5.732,5.732,0,0,1,5.725-5.725h9.91a2.41,2.41,0,0,0,1.691-.7l2.374-2.374a.938.938,0,0,1,1.327,1.327l-2.374,2.374a4.3,4.3,0,0,1-3.017,1.25h-9.91a3.854,3.854,0,0,0-3.849,3.849V78.491c0,.677.347,1.36,1.12,1.36a1.338,1.338,0,0,0,1.313-1.36.938.938,0,1,1,1.876,0A3.216,3.216,0,0,1,431.5,81.727Z" transform="translate(0 -7.12)" fill="#4e9174"/>
      <g id="グループ_6117" data-name="グループ 6117" transform="translate(463.549 42.665)">
        <path id="パス_6184" data-name="パス 6184" d="M490.167,55.616a5.629,5.629,0,1,1,5.629-5.629A5.636,5.636,0,0,1,490.167,55.616Zm0-9.382a3.753,3.753,0,1,0,3.753,3.753A3.758,3.758,0,0,0,490.167,46.234Z" transform="translate(-484.537 -44.358)" fill="#4e9174"/>
      </g>
      <path id="パス_6185" data-name="パス 6185" d="M477.076,90.425" transform="translate(-18.194 -18.947)" fill="#4e9174" stroke="#505050" stroke-linecap="round" stroke-linejoin="round" stroke-width="3"/>
      <path id="パス_6186" data-name="パス 6186" d="M489.234,98.8a3.4,3.4,0,0,1-3.37-3.42V84.31a.395.395,0,1,0-.79,0V95.385A3.4,3.4,0,0,1,481.7,98.8a3.226,3.226,0,0,1-3.162-3.42V72.914a4.556,4.556,0,0,0-1.345-3.242l-4.928-4.929a.938.938,0,0,1,1.327-1.327l4.929,4.929a6.422,6.422,0,0,1,1.895,4.569V95.385a1.381,1.381,0,0,0,1.285,1.544,1.521,1.521,0,0,0,1.493-1.544V84.31a2.271,2.271,0,1,1,4.543,0V95.385a1.521,1.521,0,0,0,1.494,1.544,1.381,1.381,0,0,0,1.285-1.544V70.248a.938.938,0,1,1,1.876,0V95.385A3.225,3.225,0,0,1,489.234,98.8Z" transform="translate(-16.291 -8.728)" fill="#4e9174"/>
      <path id="パス_6187" data-name="パス 6187" d="M495.748,81.727a3.216,3.216,0,0,1-3.189-3.236.938.938,0,1,1,1.876,0,1.338,1.338,0,0,0,1.313,1.36c.773,0,1.12-.683,1.12-1.36V67.923a3.854,3.854,0,0,0-3.849-3.849h-9.91a4.3,4.3,0,0,1-3.017-1.25l-2.374-2.374a.938.938,0,0,1,1.327-1.327l2.374,2.374a2.41,2.41,0,0,0,1.691.7h9.91a5.732,5.732,0,0,1,5.725,5.725V78.491A3.054,3.054,0,0,1,495.748,81.727Z" transform="translate(-18.331 -7.12)" fill="#4e9174"/>
      <path id="パス_6188" data-name="パス 6188" d="M465.161,54.249a.936.936,0,0,1-.487-.136l-.177-.108h0c-.758-.462-7.417-4.645-7.417-9.426a4.741,4.741,0,0,1,8.081-3.365,4.741,4.741,0,0,1,8.081,3.365c0,4.791-6.659,8.966-7.418,9.426l-.176.107A.936.936,0,0,1,465.161,54.249Zm-3.339-12.534a2.868,2.868,0,0,0-2.865,2.865c0,2.92,3.888,6.149,6.2,7.626,1.292-.845,6.208-4.284,6.208-7.626a2.865,2.865,0,0,0-5.381-1.37.938.938,0,0,1-1.646,0A2.868,2.868,0,0,0,461.822,41.715Z" transform="translate(-10.704 0)" fill="#4e9174"/>
      <path id="パス_6189" data-name="パス 6189" d="M476.242,46.919a.938.938,0,0,1-.938-.938.527.527,0,0,0-.527-.526.938.938,0,0,1,0-1.876,2.406,2.406,0,0,1,2.4,2.4A.938.938,0,0,1,476.242,46.919Z" transform="translate(-16.981 -1.4)" fill="#4e9174"/>
    </g>
  </g>
</svg>
