<svg xmlns="http://www.w3.org/2000/svg" width="40.81" height="40.42" viewBox="0 0 40.81 40.42">
  <g id="グループ_7007" data-name="グループ 7007" transform="translate(-6534.365 -2289)">
    <path id="パス_6839" data-name="パス 6839" d="M11.865.42A9.934,9.934,0,0,1,6.44-1.085,10.1,10.1,0,0,1,2.713-5.442,15.816,15.816,0,0,1,1.365-12.25a15.816,15.816,0,0,1,1.348-6.807A10.1,10.1,0,0,1,6.44-23.415a9.934,9.934,0,0,1,5.425-1.5,9.934,9.934,0,0,1,5.425,1.5,10.1,10.1,0,0,1,3.728,4.358,15.816,15.816,0,0,1,1.347,6.807,15.816,15.816,0,0,1-1.347,6.808A10.1,10.1,0,0,1,17.29-1.085,9.934,9.934,0,0,1,11.865.42Zm0-4.8A4.006,4.006,0,0,0,15.382-6.3q1.278-1.925,1.278-5.95T15.382-18.2a4.006,4.006,0,0,0-3.517-1.925A3.977,3.977,0,0,0,8.382-18.2q-1.277,1.925-1.277,5.95T8.382-6.3A3.977,3.977,0,0,0,11.865-4.375Zm23.66-10.15a8.247,8.247,0,0,1,4.935,2.4A6.609,6.609,0,0,1,42.175-7.49a7.318,7.318,0,0,1-1.12,3.938A7.8,7.8,0,0,1,37.643-.665,13.073,13.073,0,0,1,32.025.42a19.27,19.27,0,0,1-5.093-.683A13.118,13.118,0,0,1,22.68-2.2l2.2-4.34a10.683,10.683,0,0,0,3.237,1.628,12.477,12.477,0,0,0,3.763.577,5.964,5.964,0,0,0,3.36-.822A2.642,2.642,0,0,0,36.47-7.49q0-3.01-4.585-3.01H29.3v-3.745l5.04-5.7H23.905V-24.5h17.15v3.675Z" transform="translate(6533 2329)" fill="#47b847"/>
    <text id="POINT" transform="translate(6535 2299)" fill="#47b847" font-size="13" font-family="FuturaTBold, Futura T"><tspan x="0" y="0">POINT</tspan></text>
  </g>
</svg>
