<svg xmlns="http://www.w3.org/2000/svg" width="40" height="40.42" viewBox="0 0 40 40.42">
  <g id="グループ_7008" data-name="グループ 7008" transform="translate(-6532 -2289)">
    <path id="パス_6837" data-name="パス 6837" d="M11.865.42A9.934,9.934,0,0,1,6.44-1.085,10.1,10.1,0,0,1,2.713-5.442,15.816,15.816,0,0,1,1.365-12.25a15.816,15.816,0,0,1,1.348-6.807A10.1,10.1,0,0,1,6.44-23.415a9.934,9.934,0,0,1,5.425-1.5,9.934,9.934,0,0,1,5.425,1.5,10.1,10.1,0,0,1,3.728,4.358,15.816,15.816,0,0,1,1.347,6.807,15.816,15.816,0,0,1-1.347,6.808A10.1,10.1,0,0,1,17.29-1.085,9.934,9.934,0,0,1,11.865.42Zm0-4.8A4.006,4.006,0,0,0,15.382-6.3q1.278-1.925,1.278-5.95T15.382-18.2a4.006,4.006,0,0,0-3.517-1.925A3.977,3.977,0,0,0,8.382-18.2q-1.277,1.925-1.277,5.95T8.382-6.3A3.977,3.977,0,0,0,11.865-4.375ZM33.67-24.5V0H28V-19.95H23.1V-24.5Z" transform="translate(6533.635 2329)" fill="#47b847"/>
    <text id="POINT" transform="translate(6532 2299)" fill="#47b847" font-size="13" font-family="FuturaTBold, Futura T"><tspan x="0" y="0">POINT</tspan></text>
  </g>
</svg>
