<svg xmlns="http://www.w3.org/2000/svg" width="89.1" height="73.18" viewBox="0 0 89.1 73.18">
  <g id="グループ_7004" data-name="グループ 7004" transform="translate(7504.075 14.4)">
    <g id="グループ_5647" data-name="グループ 5647" transform="translate(-14641 -2261)" opacity="0.4">
      <path id="パス_6835" data-name="パス 6835" d="M25.425.9A21.287,21.287,0,0,1,13.8-2.325a21.642,21.642,0,0,1-7.988-9.337A33.891,33.891,0,0,1,2.925-26.25,33.891,33.891,0,0,1,5.813-40.837,21.642,21.642,0,0,1,13.8-50.175,21.287,21.287,0,0,1,25.425-53.4,21.287,21.287,0,0,1,37.05-50.175a21.642,21.642,0,0,1,7.987,9.338A33.891,33.891,0,0,1,47.925-26.25a33.891,33.891,0,0,1-2.888,14.588A21.642,21.642,0,0,1,37.05-2.325,21.287,21.287,0,0,1,25.425.9Zm0-10.275A8.585,8.585,0,0,0,32.963-13.5Q35.7-17.625,35.7-26.25T32.963-39a8.585,8.585,0,0,0-7.538-4.125A8.522,8.522,0,0,0,17.962-39q-2.738,4.125-2.738,12.75T17.962-13.5A8.522,8.522,0,0,0,25.425-9.375Zm44.925-23.4q11.1,0,16.388,4.425A14.663,14.663,0,0,1,92.025-16.5a16.461,16.461,0,0,1-2.4,8.737,16.763,16.763,0,0,1-7.312,6.3A27.825,27.825,0,0,1,70.2.9,41.292,41.292,0,0,1,59.287-.562a28.109,28.109,0,0,1-9.112-4.162l4.8-9.3a22.973,22.973,0,0,0,6.9,3.488A26.376,26.376,0,0,0,69.9-9.3a12.573,12.573,0,0,0,7.2-1.8,5.754,5.754,0,0,0,2.625-5.025,5.646,5.646,0,0,0-2.737-5.1Q74.25-22.95,67.5-22.95H54.075l2.7-29.55H88.8v9.75H66.9l-.825,9.975Z" transform="translate(7134 2300)" fill="#d0f7d0"/>
    </g>
    <g id="グループ_6929" data-name="グループ 6929" transform="translate(-7618.582 -1672.051)">
      <path id="パス_6723" data-name="パス 6723" d="M150.815,1810.21a13.233,13.233,0,1,1,9.357-22.589,13.4,13.4,0,0,1,1.635,1.987h0a13.234,13.234,0,0,1-10.992,20.6Zm0-25.314a12.08,12.08,0,1,0,10.037,5.355,12.28,12.28,0,0,0-1.495-1.816A11.992,11.992,0,0,0,150.815,1784.9Zm-1.786,14.443a.575.575,0,0,1-.406-.167,3.1,3.1,0,1,1,4.383,0,.576.576,0,0,1-.811-.817,1.952,1.952,0,1,0-2.761,0,.576.576,0,0,1-.406.984Z" transform="translate(0 -80.38)" fill="#4e9174" stroke="#4e9174" stroke-width="1"/>
      <path id="パス_6724" data-name="パス 6724" d="M187.167,1848.378a3.072,3.072,0,0,1-2.194-.911.576.576,0,1,1,.816-.812,1.946,1.946,0,0,0,2.756,0,.576.576,0,0,1,.817.811A3.071,3.071,0,0,1,187.167,1848.378Z" transform="translate(-36.352 -128.677)" fill="#4e9174" stroke="#4e9174" stroke-width="1"/>
      <path id="パス_6725" data-name="パス 6725" d="M282.877,1866.423a5.153,5.153,0,1,1,5.153-5.153A5.159,5.159,0,0,1,282.877,1866.423Zm0-9.155a4,4,0,1,0,4,4A4.006,4.006,0,0,0,282.877,1857.268Z" transform="translate(-107.881 -136.092)" fill="#4e9174" stroke="#4e9174" stroke-width="1"/>
      <path id="パス_6726" data-name="パス 6726" d="M292.309,1873.034a2.332,2.332,0,1,1,2.332-2.333A2.335,2.335,0,0,1,292.309,1873.034Zm0-3.513a1.181,1.181,0,1,0,1.181,1.181A1.182,1.182,0,0,0,292.309,1869.521Z" transform="translate(-117.313 -145.524)" fill="#4e9174" stroke="#4e9174" stroke-width="1"/>
      <path id="パス_6727" data-name="パス 6727" d="M193.138,1756.241a.575.575,0,0,1-.576-.575V1747.1a.576.576,0,0,1,1.151,0v8.571A.575.575,0,0,1,193.138,1756.241Z" transform="translate(-42.323 -51.725)" fill="#4e9174" stroke="#4e9174" stroke-width="1"/>
      <path id="パス_6728" data-name="パス 6728" d="M210.545,1747.671h-4.567a.576.576,0,1,1,0-1.151h4.567a.576.576,0,1,1,0,1.151Z" transform="translate(-52.207 -51.725)" fill="#4e9174" stroke="#4e9174" stroke-width="1"/>
      <path id="パス_6729" data-name="パス 6729" d="M193.14,1797.671a.576.576,0,0,1-.576-.575v-3.467a.576.576,0,1,1,1.151,0v3.467A.575.575,0,0,1,193.14,1797.671Z" transform="translate(-42.325 -87.546)" fill="#4e9174" stroke="#4e9174" stroke-width="1"/>
      <path id="パス_6730" data-name="パス 6730" d="M252.485,1761.849H238.818a.576.576,0,1,1,0-1.151h13.092v-10.083a2.949,2.949,0,0,0-2.947-2.945h-.78a.576.576,0,1,1,0-1.151h.78a4.1,4.1,0,0,1,4.1,4.1v10.658A.575.575,0,0,1,252.485,1761.849Z" transform="translate(-77.488 -51.725)" fill="#4e9174" stroke="#4e9174" stroke-width="1"/>
      <path id="パス_6731" data-name="パス 6731" d="M238.178,1741.937H225.822a.575.575,0,0,1-.576-.576v-2.032a2.65,2.65,0,0,1,2.647-2.647h7.887a2.977,2.977,0,0,1,2.974,2.974v1.706A.575.575,0,0,1,238.178,1741.937Zm-11.781-1.151H237.6v-1.13a1.825,1.825,0,0,0-1.823-1.823h-7.887a1.5,1.5,0,0,0-1.5,1.5Z" transform="translate(-67.483 -44.152)" fill="#4e9174" stroke="#4e9174" stroke-width="1"/>
      <path id="パス_6732" data-name="パス 6732" d="M283.041,1823.189a.575.575,0,0,1-.576-.575v-13.472h-3.953a.576.576,0,0,1,0-1.151h4.528a.576.576,0,0,1,.576.576v14.048A.575.575,0,0,1,283.041,1823.189Z" transform="translate(-108.044 -99.044)" fill="#4e9174" stroke="#4e9174" stroke-width="1"/>
      <path id="パス_6733" data-name="パス 6733" d="M311.99,1817.161h-4.95a.576.576,0,0,1-.53-.351l-2.756-6.486a1.881,1.881,0,0,0-1.735-1.148h-.01l-3.823.019h0a.575.575,0,0,1,0-1.151l3.823-.019h.015a3.029,3.029,0,0,1,2.794,1.849l2.607,6.136h4.569a.576.576,0,0,1,0,1.151Z" transform="translate(-123.187 -99.071)" fill="#4e9174" stroke="#4e9174" stroke-width="1"/>
      <path id="パス_6734" data-name="パス 6734" d="M217.32,1784.552H193.138a.576.576,0,1,1,0-1.151H217.32a.576.576,0,1,1,0,1.151Z" transform="translate(-42.323 -80.116)" fill="#4e9174" stroke="#4e9174" stroke-width="1"/>
      <path id="パス_6735" data-name="パス 6735" d="M153.883,1704.436a.575.575,0,0,1-.576-.576v-8.452l-1.712-12.627a.652.652,0,0,0-.308-.461,2.974,2.974,0,0,0-1.747-.2l1.955,13.165a.575.575,0,1,1-1.138.169l-1.948-13.119-9.328,2.038a1.116,1.116,0,0,1-1.354-1.09v-.756a1.616,1.616,0,0,1,1.276-1.573l7.448-1.574a2.5,2.5,0,0,1,2.871,1.6,4.058,4.058,0,0,1,2.588.37,1.822,1.822,0,0,1,.823,1.254l1.721,12.686a.617.617,0,0,1,.005.077v8.491A.575.575,0,0,1,153.883,1704.436Zm-6.916-23.959a1.351,1.351,0,0,0-.278.029l-7.448,1.574a.459.459,0,0,0-.363.447v.712l9.29-2.03a1.347,1.347,0,0,0-1.2-.732Z" transform="translate(-0.112 0)" fill="#4e9174" stroke="#4e9174" stroke-width="1"/>
      <path id="パス_6736" data-name="パス 6736" d="M155.452,1839.879h-7.987a.576.576,0,0,1,0-1.151h7.987a.576.576,0,0,1,0,1.151Z" transform="translate(-7.165 -122.706)" fill="#4e9174" stroke="#4e9174" stroke-width="1"/>
      <path id="パス_6737" data-name="パス 6737" d="M212.106,1839.879H204.12a.576.576,0,0,1,0-1.151h7.987a.576.576,0,0,1,0,1.151Z" transform="translate(-50.777 -122.706)" fill="#4e9174" stroke="#4e9174" stroke-width="1"/>
      <path id="パス_6738" data-name="パス 6738" d="M193.14,1802.191a.576.576,0,0,1-.576-.576v-7.987a.576.576,0,1,1,1.151,0v7.987A.576.576,0,0,1,193.14,1802.191Z" transform="translate(-42.325 -87.546)" fill="#4e9174" stroke="#4e9174" stroke-width="1"/>
      <path id="パス_6739" data-name="パス 6739" d="M193.14,1858.845a.576.576,0,0,1-.576-.575v-7.987a.576.576,0,1,1,1.151,0v7.987A.575.575,0,0,1,193.14,1858.845Z" transform="translate(-42.325 -131.157)" fill="#4e9174" stroke="#4e9174" stroke-width="1"/>
      <path id="パス_6740" data-name="パス 6740" d="M160.841,1853.285a.575.575,0,0,1-.407-.982l5.649-5.649a.575.575,0,0,1,.814.814l-5.649,5.649A.574.574,0,0,1,160.841,1853.285Z" transform="translate(-17.461 -128.678)" fill="#4e9174" stroke="#4e9174" stroke-width="1"/>
      <path id="パス_6741" data-name="パス 6741" d="M200.9,1813.23a.576.576,0,0,1-.407-.982l5.649-5.65a.576.576,0,0,1,.814.814l-5.649,5.649A.573.573,0,0,1,200.9,1813.23Z" transform="translate(-48.297 -97.843)" fill="#4e9174" stroke="#4e9174" stroke-width="1"/>
      <path id="パス_6742" data-name="パス 6742" d="M206.547,1853.285a.574.574,0,0,1-.407-.168l-5.649-5.649a.575.575,0,1,1,.814-.814l5.649,5.649a.575.575,0,0,1-.407.982Z" transform="translate(-48.297 -128.678)" fill="#4e9174" stroke="#4e9174" stroke-width="1"/>
      <path id="パス_6743" data-name="パス 6743" d="M166.49,1813.23a.572.572,0,0,1-.407-.169l-5.649-5.649a.575.575,0,0,1,.814-.814l5.649,5.649a.576.576,0,0,1-.407.983Z" transform="translate(-17.461 -97.843)" fill="#4e9174" stroke="#4e9174" stroke-width="1"/>
      <path id="パス_6744" data-name="パス 6744" d="M157.98,1815.233a11.09,11.09,0,1,1,11.09-11.09A11.1,11.1,0,0,1,157.98,1815.233Zm0-21.029a9.939,9.939,0,1,0,9.939,9.939A9.95,9.95,0,0,0,157.98,1794.2Z" transform="translate(-7.165 -87.546)" fill="#4e9174" stroke="#4e9174" stroke-width="1"/>
      <path id="パス_6745" data-name="パス 6745" d="M259.647,1839.879H248.122a.576.576,0,0,1,0-1.151h11.524a.576.576,0,0,1,0,1.151Z" transform="translate(-84.65 -122.706)" fill="#4e9174" stroke="#4e9174" stroke-width="1"/>
    </g>
  </g>
</svg>
