<svg xmlns="http://www.w3.org/2000/svg" width="87.45" height="69.766" viewBox="0 0 87.45 69.766">
  <g id="グループ_7002" data-name="グループ 7002" transform="translate(8208.075 14.4)">
    <path id="パス_6833" data-name="パス 6833" d="M25.425.9A21.287,21.287,0,0,1,13.8-2.325a21.642,21.642,0,0,1-7.988-9.337A33.891,33.891,0,0,1,2.925-26.25,33.891,33.891,0,0,1,5.813-40.837,21.642,21.642,0,0,1,13.8-50.175,21.287,21.287,0,0,1,25.425-53.4,21.287,21.287,0,0,1,37.05-50.175a21.642,21.642,0,0,1,7.987,9.338A33.891,33.891,0,0,1,47.925-26.25a33.891,33.891,0,0,1-2.888,14.588A21.642,21.642,0,0,1,37.05-2.325,21.287,21.287,0,0,1,25.425.9Zm0-10.275A8.585,8.585,0,0,0,32.963-13.5Q35.7-17.625,35.7-26.25T32.963-39a8.585,8.585,0,0,0-7.538-4.125A8.522,8.522,0,0,0,17.962-39q-2.738,4.125-2.738,12.75T17.962-13.5A8.522,8.522,0,0,0,25.425-9.375Zm50.7-21.75Q83.025-30,86.7-25.988a14.162,14.162,0,0,1,3.675,9.938,15.682,15.682,0,0,1-2.4,8.437,16.718,16.718,0,0,1-7.312,6.187A28.012,28.012,0,0,1,68.625.9,41.292,41.292,0,0,1,57.712-.562,28.109,28.109,0,0,1,48.6-4.725l4.725-9.3a22.892,22.892,0,0,0,6.937,3.488A26.736,26.736,0,0,0,68.325-9.3a12.78,12.78,0,0,0,7.2-1.762A5.662,5.662,0,0,0,78.15-16.05q0-6.45-9.825-6.45h-5.55v-8.025l10.8-12.225H51.225V-52.5h36.75v7.875Z" transform="translate(-8211 39)" fill="#d0f7d0" opacity="0.4"/>
    <g id="グループ_5941" data-name="グループ 5941" transform="translate(-8368 -46.771)">
      <path id="パス_5937" data-name="パス 5937" d="M239.208,58.944,234.2,60.462a2.05,2.05,0,0,0-1.345,2.478l5.591,20.9a2.049,2.049,0,0,0,2.6,1.425l5.064-1.49a2.051,2.051,0,0,0,1.363-2.49l-5.643-20.925A2.049,2.049,0,0,0,239.208,58.944Z" transform="translate(-8.98 -0.077)" fill="none" stroke="#4e9174" stroke-linecap="round" stroke-linejoin="round" stroke-width="3"/>
      <path id="パス_5938" data-name="パス 5938" d="M232.287,83.487a12.63,12.63,0,0,1-1.807.608,2.125,2.125,0,0,1-2.171-.751c-.755-.952-2.041-2.563-3.532-4.385C216.219,68.506,210.888,66.034,204.257,67c-2.9.424-4.085,1.4-6.745,2.448-2.594,1.02-7.139.992-7.259-1.97-.077-1.9,3.6-3.632,7.753-6.307,6.239-4.018,9.85-3.144,15.387-1.444,6.222,1.911,10.509,3.321,13.557,3.808" transform="translate(-2.897)" fill="none" stroke="#4e9174" stroke-linecap="round" stroke-linejoin="round" stroke-width="3"/>
      <path id="パス_5939" data-name="パス 5939" d="M207.61,103.338c6.116,2.847,7.83-.945,7.83-.945s4.233-.248,4.986-4.263c2.588.228,5.738-1.64,5.621-4.517,3.631.066,6.989-3.851,3.973-7.223" transform="translate(-5.379 -4.017)" fill="none" stroke="#4e9174" stroke-linecap="round" stroke-linejoin="round" stroke-width="3"/>
      <path id="パス_5940" data-name="パス 5940" d="M180.7,87.9s1.645,1.265,3.328,2.353" transform="translate(-1.531 -4.234)" fill="none" stroke="#4e9174" stroke-linecap="round" stroke-linejoin="round" stroke-width="3"/>
      <path id="パス_5941" data-name="パス 5941" d="M192.553,65.125c-3.011-.515-5.544-1.03-5.544-1.03" transform="translate(-2.433 -0.828)" fill="none" stroke="#4e9174" stroke-linecap="round" stroke-linejoin="round" stroke-width="3"/>
      <path id="パス_5942" data-name="パス 5942" d="M196.8,103.535a.984.984,0,0,0-.773-.416,4.338,4.338,0,0,1-2.9-1.012,4.251,4.251,0,0,1-.963-1.469,1.087,1.087,0,0,0-1.331-.624c-1.839.5-3.776-1.19-3.9-3.137a.908.908,0,0,0-.824-.863c-2.694-.185-4.2-3.305-2.487-4.973,1.022-1,3.769-.62,4.591,1.315a.732.732,0,0,0,1.027.361,2.909,2.909,0,0,1,4.089,1.856.848.848,0,0,0,.914.555c2.706-.311,3.894,1.327,4.134,3.556a1.073,1.073,0,0,0,1.046.947c1.783-.045,2.933.842,3.118,1.848a3.422,3.422,0,0,0,1.537,2.448C204.419,105,198.842,106.418,196.8,103.535Z" transform="translate(-1.844 -4.606)" fill="none" stroke="#4e9174" stroke-linecap="round" stroke-linejoin="round" stroke-width="3"/>
      <path id="パス_5943" data-name="パス 5943" d="M178.329,58.944l5.012,1.518a2.05,2.05,0,0,1,1.345,2.478l-5.591,20.9a2.049,2.049,0,0,1-2.6,1.425l-5.065-1.49a2.051,2.051,0,0,1-1.363-2.49l5.643-20.925A2.049,2.049,0,0,1,178.329,58.944Z" transform="translate(0 -0.077)" fill="none" stroke="#4e9174" stroke-linecap="round" stroke-linejoin="round" stroke-width="3"/>
      <line id="線_161" data-name="線 161" x1="5.243" y1="5.927" transform="translate(215.424 83.669)" fill="none" stroke="#4e9174" stroke-linecap="round" stroke-linejoin="round" stroke-width="3"/>
      <line id="線_162" data-name="線 162" x1="4.2" y1="4.766" transform="translate(210.846 89.347)" fill="none" stroke="#4e9174" stroke-linecap="round" stroke-linejoin="round" stroke-width="3"/>
      <line id="線_163" data-name="線 163" x1="3.153" y1="3.729" transform="translate(206.908 94.646)" fill="none" stroke="#4e9174" stroke-linecap="round" stroke-linejoin="round" stroke-width="3"/>
    </g>
  </g>
</svg>
