<svg xmlns="http://www.w3.org/2000/svg" width="41.58" height="39.351" viewBox="0 0 41.58 39.351">
  <g id="グループ_7010" data-name="グループ 7010" transform="translate(-6534 -2290.069)">
    <path id="パス_6842" data-name="パス 6842" d="M11.865.42A9.934,9.934,0,0,1,6.44-1.085,10.1,10.1,0,0,1,2.713-5.442,15.816,15.816,0,0,1,1.365-12.25a15.816,15.816,0,0,1,1.348-6.807A10.1,10.1,0,0,1,6.44-23.415a9.934,9.934,0,0,1,5.425-1.5,9.934,9.934,0,0,1,5.425,1.5,10.1,10.1,0,0,1,3.728,4.358,15.816,15.816,0,0,1,1.347,6.807,15.816,15.816,0,0,1-1.347,6.808A10.1,10.1,0,0,1,17.29-1.085,9.934,9.934,0,0,1,11.865.42Zm0-4.8A4.006,4.006,0,0,0,15.382-6.3q1.278-1.925,1.278-5.95T15.382-18.2a4.006,4.006,0,0,0-3.517-1.925A3.977,3.977,0,0,0,8.382-18.2q-1.277,1.925-1.277,5.95T8.382-6.3A3.977,3.977,0,0,0,11.865-4.375ZM32.83-15.3q5.18,0,7.647,2.065A6.843,6.843,0,0,1,42.945-7.7a7.682,7.682,0,0,1-1.12,4.077,7.823,7.823,0,0,1-3.413,2.94A12.985,12.985,0,0,1,32.76.42a19.27,19.27,0,0,1-5.093-.683A13.118,13.118,0,0,1,23.415-2.2l2.24-4.34a10.721,10.721,0,0,0,3.22,1.628,12.309,12.309,0,0,0,3.745.577,5.868,5.868,0,0,0,3.36-.84,2.685,2.685,0,0,0,1.225-2.345A2.635,2.635,0,0,0,35.928-9.9,8.816,8.816,0,0,0,31.5-10.71H25.235L26.5-24.5H41.44v4.55H31.22L30.835-15.3Z" transform="translate(6532.635 2329)" fill="#47b847"/>
    <path id="パス_6841" data-name="パス 6841" d="M3.161-2.888V0H.908V-8.671h3.58a4.045,4.045,0,0,1,1.254.165,2.43,2.43,0,0,1,.917.565A2.751,2.751,0,0,1,7.5-5.827a3.975,3.975,0,0,1-.184,1.27,2.333,2.333,0,0,1-.568.927,2.356,2.356,0,0,1-.92.562,3.972,3.972,0,0,1-1.266.181Zm0-1.8H3.9a1.4,1.4,0,0,0,.949-.27,1.065,1.065,0,0,0,.3-.835q0-1.066-1.238-1.066H3.161Zm9.947-4.24a4.99,4.99,0,0,1,2.444.6,4.458,4.458,0,0,1,1.72,1.66A4.531,4.531,0,0,1,17.9-4.316a4.553,4.553,0,0,1-.628,2.355A4.455,4.455,0,0,1,15.545-.292a4.979,4.979,0,0,1-2.437.6,5.016,5.016,0,0,1-2.444-.6,4.42,4.42,0,0,1-1.73-1.669,4.571,4.571,0,0,1-.625-2.355,4.537,4.537,0,0,1,.625-2.349,4.434,4.434,0,0,1,1.73-1.663A5.016,5.016,0,0,1,13.108-8.931Zm0,2.184a2.4,2.4,0,0,0-1.225.327,2.419,2.419,0,0,0-.892.885,2.37,2.37,0,0,0-.327,1.219,2.39,2.39,0,0,0,.19.939,2.449,2.449,0,0,0,.527.787,2.449,2.449,0,0,0,.787.527,2.39,2.39,0,0,0,.939.19A2.4,2.4,0,0,0,14.333-2.2a2.4,2.4,0,0,0,.892-.892,2.4,2.4,0,0,0,.327-1.225,2.37,2.37,0,0,0-.327-1.219,2.419,2.419,0,0,0-.892-.885A2.4,2.4,0,0,0,13.108-6.748Zm8.474-1.923V0H19.329V-8.671ZM23.4,0V-8.671h2.253L29.8-3.364V-8.671h2.247V0H29.8L25.651-5.307V0Zm13.73-6.76V0H34.88V-6.76H33.046V-8.671H39V-6.76Z" transform="translate(6534.092 2299)" fill="#47b847"/>
  </g>
</svg>
