<svg xmlns="http://www.w3.org/2000/svg" width="69.225" height="76.68" viewBox="0 0 69.225 76.68">
  <g id="グループ_7001" data-name="グループ 7001" transform="translate(8112.075 279.4)">
    <g id="グループ_6926" data-name="グループ 6926" transform="translate(-15249 -2526)" opacity="0.4">
      <path id="パス_6832" data-name="パス 6832" d="M25.425.9A21.287,21.287,0,0,1,13.8-2.325a21.642,21.642,0,0,1-7.988-9.337A33.891,33.891,0,0,1,2.925-26.25,33.891,33.891,0,0,1,5.813-40.837,21.642,21.642,0,0,1,13.8-50.175,21.287,21.287,0,0,1,25.425-53.4,21.287,21.287,0,0,1,37.05-50.175a21.642,21.642,0,0,1,7.987,9.338A33.891,33.891,0,0,1,47.925-26.25a33.891,33.891,0,0,1-2.888,14.588A21.642,21.642,0,0,1,37.05-2.325,21.287,21.287,0,0,1,25.425.9Zm0-10.275A8.585,8.585,0,0,0,32.963-13.5Q35.7-17.625,35.7-26.25T32.963-39a8.585,8.585,0,0,0-7.538-4.125A8.522,8.522,0,0,0,17.962-39q-2.738,4.125-2.738,12.75T17.962-13.5A8.522,8.522,0,0,0,25.425-9.375ZM72.15-52.5V0H60V-42.75H49.5V-52.5Z" transform="translate(7134 2300)" fill="#d0f7d0"/>
    </g>
    <g id="グループ_6112" data-name="グループ 6112" transform="translate(-7965.607 -639.439)">
      <path id="パス_6163" data-name="パス 6163" d="M-86.339,417.879c0-.026-.006-.054-.008-.081a1.051,1.051,0,0,0-.024-.156c0-.01,0-.022,0-.033l-2.027-7.051a1.083,1.083,0,0,0-1.042-.786h-.012a1.083,1.083,0,0,0-1.036.808l-1.855,7.053c0,.008,0,.018,0,.027a.914.914,0,0,0-.021.156.5.5,0,0,0-.008.077l0,.015v15.534a1.084,1.084,0,0,0,1.083,1.082h3.884a1.084,1.084,0,0,0,1.084-1.082V417.908C-86.333,417.9-86.339,417.891-86.339,417.879Zm-3.058-2.94.54,1.886h-1.035Zm.893,17.418h-1.712v-2.451H-88.5Zm0-4.617h-1.712v-8.747H-88.5Z" fill="#4e9174"/>
      <g id="グループ_6111" data-name="グループ 6111">
        <path id="パス_6164" data-name="パス 6164" d="M-100.742,387a4.875,4.875,0,0,0-2.152-.5h-5.719v-2.666h-2.97a5.374,5.374,0,0,0-5.1-4.392,5.378,5.378,0,0,0-5.1,4.392h-2.971V386.5h-5.715a4.923,4.923,0,0,0-4.925,4.923V431.8a4.894,4.894,0,0,0,.568,2.291,4.938,4.938,0,0,0,2.067,2.066,4.9,4.9,0,0,0,2.29.567h27.574a4.924,4.924,0,0,0,4.923-4.924V391.42a4.913,4.913,0,0,0-.5-2.152A4.93,4.93,0,0,0-100.742,387Zm-15.939-5.59a3.337,3.337,0,0,1,3.061,2.423h-6.123A3.335,3.335,0,0,1-116.681,381.408Zm15.262,51.537h-30.527V389.781h7.193v2.663h16.14v-2.663h7.194Z" fill="#4e9174"/>
        <rect id="長方形_3313" data-name="長方形 3313" width="11.789" height="1.849" transform="translate(-127.945 428.415)" fill="#4e9174"/>
        <rect id="長方形_3314" data-name="長方形 3314" width="11.789" height="1.847" transform="translate(-127.945 424.769)" fill="#4e9174"/>
        <rect id="長方形_3315" data-name="長方形 3315" width="11.789" height="1.851" transform="translate(-127.945 420.867)" fill="#4e9174"/>
        <path id="パス_6165" data-name="パス 6165" d="M-114.416,430.833h10.083V420.748h-10.083Zm1.331-8.754h7.421v7.42h-7.421Z" fill="#4e9174"/>
        <path id="パス_6166" data-name="パス 6166" d="M-109.8,426.323l-1.66-2.072-1.038.832,2.773,3.462,3.5-5.036-1.092-.76Z" fill="#4e9174"/>
        <rect id="長方形_3316" data-name="長方形 3316" width="11.789" height="1.849" transform="translate(-127.945 415.428)" fill="#4e9174"/>
        <rect id="長方形_3317" data-name="長方形 3317" width="11.789" height="1.849" transform="translate(-127.945 411.782)" fill="#4e9174"/>
        <rect id="長方形_3318" data-name="長方形 3318" width="11.789" height="1.847" transform="translate(-127.945 407.882)" fill="#4e9174"/>
        <path id="パス_6167" data-name="パス 6167" d="M-114.416,417.844h10.083V407.761h-10.083Zm1.331-8.752h7.421v7.421h-7.421Z" fill="#4e9174"/>
        <path id="パス_6168" data-name="パス 6168" d="M-109.8,413.336l-1.66-2.073-1.038.832,2.773,3.462,3.5-5.035-1.092-.759Z" fill="#4e9174"/>
        <rect id="長方形_3319" data-name="長方形 3319" width="11.789" height="1.847" transform="translate(-127.945 402.962)" fill="#4e9174"/>
        <rect id="長方形_3320" data-name="長方形 3320" width="11.789" height="1.85" transform="translate(-127.945 399.314)" fill="#4e9174"/>
        <rect id="長方形_3321" data-name="長方形 3321" width="11.789" height="1.848" transform="translate(-127.945 395.415)" fill="#4e9174"/>
        <path id="パス_6169" data-name="パス 6169" d="M-114.416,405.377h10.083V395.294h-10.083Zm1.331-8.751h7.421v7.42h-7.421Z" fill="#4e9174"/>
        <path id="パス_6170" data-name="パス 6170" d="M-109.8,400.869l-1.66-2.072-1.038.833,2.773,3.46,3.5-5.034-1.092-.76Z" fill="#4e9174"/>
      </g>
    </g>
  </g>
</svg>
