<svg xmlns="http://www.w3.org/2000/svg" width="125" height="30.031" viewBox="0 0 125 30.031">
  <path id="パス_6922" data-name="パス 6922" d="M23.281-4.594a.276.276,0,0,0,.313-.312v-.906a.276.276,0,0,0-.312-.312H18.125a.276.276,0,0,0-.312.313v.906a.276.276,0,0,0,.313.313Zm-5.156-5.812a.276.276,0,0,0-.312.313v.75a.276.276,0,0,0,.313.313h5.156a.276.276,0,0,0,.313-.312v-.75a.276.276,0,0,0-.312-.312ZM8.938-17.094a.276.276,0,0,0,.313.313h4.375a.276.276,0,0,0,.313-.312V-18a.276.276,0,0,0-.312-.312H9.25A.276.276,0,0,0,8.938-18ZM23-18a.276.276,0,0,0-.312-.312H18.125a.276.276,0,0,0-.312.313v.906a.276.276,0,0,0,.313.313h4.563A.276.276,0,0,0,23-17.094Zm6.313,8.969a1.4,1.4,0,0,1,1.047.438,1.437,1.437,0,0,1,.422,1.031,1.384,1.384,0,0,1-.422,1.016,1.421,1.421,0,0,1-1.047.422H27.781a.276.276,0,0,0-.312.313v3.344a1.86,1.86,0,0,1-.578,1.359,1.86,1.86,0,0,1-1.359.578H24.75a1.111,1.111,0,0,1-.812-.344,1.147,1.147,0,0,1-.344-.844q0-.125-.156-.125H18.125a.276.276,0,0,0-.312.313v.656a4.627,4.627,0,0,1-.375,2.109,2.566,2.566,0,0,1-1.312,1.109,13.135,13.135,0,0,1-4.031.531h-.031a1.987,1.987,0,0,1-1.25-.437,2.69,2.69,0,0,1-.875-1.094A1.1,1.1,0,0,1,9.844.906a.87.87,0,0,1,.188-.531.9.9,0,0,1,.813-.469q1.031.031,2.313.031a.953.953,0,0,0,.609-.2.852.852,0,0,0,.172-.609v-.656a.276.276,0,0,0-.312-.312H5.594a1.323,1.323,0,0,1-.969-.406,1.341,1.341,0,0,1-.406-.984A1.29,1.29,0,0,1,4.625-4.2a1.349,1.349,0,0,1,.969-.391h8.031a.276.276,0,0,0,.313-.312v-.906a.276.276,0,0,0-.312-.312H2.75A1.421,1.421,0,0,1,1.7-6.547a1.384,1.384,0,0,1-.422-1.016A1.437,1.437,0,0,1,1.7-8.594,1.4,1.4,0,0,1,2.75-9.031H13.625a.276.276,0,0,0,.313-.312v-.75a.276.276,0,0,0-.312-.312H5.75a1.235,1.235,0,0,1-.906-.375,1.235,1.235,0,0,1-.375-.906,1.235,1.235,0,0,1,.375-.906,1.235,1.235,0,0,1,.906-.375h7.875a.276.276,0,0,0,.313-.312v-.781a.276.276,0,0,0-.312-.312H8a2.619,2.619,0,0,1-1.922-.8,2.619,2.619,0,0,1-.8-1.922V-18a2.619,2.619,0,0,1,.8-1.922A2.619,2.619,0,0,1,8-20.719h5.625a.276.276,0,0,0,.313-.312v-.687a.276.276,0,0,0-.312-.312H3.531a1.447,1.447,0,0,1-1.062-.437,1.447,1.447,0,0,1-.437-1.062,1.447,1.447,0,0,1,.438-1.062,1.447,1.447,0,0,1,1.063-.437H13.75q.188,0,.188-.219a1.772,1.772,0,0,1,.547-1.3,1.808,1.808,0,0,1,1.328-.547h.156a1.772,1.772,0,0,1,1.3.547,1.772,1.772,0,0,1,.547,1.3.193.193,0,0,0,.219.219h10.5a1.5,1.5,0,0,1,1.078.438,1.422,1.422,0,0,1,.453,1.063,1.422,1.422,0,0,1-.453,1.063,1.5,1.5,0,0,1-1.078.438H18.125a.276.276,0,0,0-.312.313v.688a.276.276,0,0,0,.313.313h6.063a2.619,2.619,0,0,1,1.922.8,2.619,2.619,0,0,1,.8,1.922v.906a2.619,2.619,0,0,1-.8,1.922,2.619,2.619,0,0,1-1.922.8H18.125a.276.276,0,0,0-.312.313v.781a.276.276,0,0,0,.313.313H24.75a2.619,2.619,0,0,1,1.922.8,2.619,2.619,0,0,1,.8,1.922v.906a.276.276,0,0,0,.313.313Zm22.5-9.469a.156.156,0,0,0,0-.187.21.21,0,0,0-.187-.094H44.563a.153.153,0,0,0-.141.078.2.2,0,0,0-.016.172,15.827,15.827,0,0,1,.813,1.75.4.4,0,0,1-.031.344.507.507,0,0,1-.312.219H50.5a.442.442,0,0,0,.438-.281A21.132,21.132,0,0,0,51.813-18.5Zm10,11.313a1.516,1.516,0,0,1,.469,1.109,1.516,1.516,0,0,1-.469,1.109,1.5,1.5,0,0,1-1.094.469H53.313a.1.1,0,0,0-.094.063.062.062,0,0,0,.031.094,27.142,27.142,0,0,0,7.781,2.906,1.234,1.234,0,0,1,.906.844,1.1,1.1,0,0,1,.094.438,1.285,1.285,0,0,1-.281.781,3.08,3.08,0,0,1-1.469,1.156,2.586,2.586,0,0,1-.969.188,2.249,2.249,0,0,1-.812-.156,26.607,26.607,0,0,1-8.437-4.594.124.124,0,0,0-.156-.016.15.15,0,0,0-.094.141V.906a1.808,1.808,0,0,1-.547,1.328,1.848,1.848,0,0,1-2.625,0A1.808,1.808,0,0,1,46.094.906V-2.469A.15.15,0,0,0,46-2.609a.124.124,0,0,0-.156.016,29.232,29.232,0,0,1-8.562,4.438,2.454,2.454,0,0,1-.781.125,2.206,2.206,0,0,1-.875-.187A2.946,2.946,0,0,1,34.25.75,1.159,1.159,0,0,1,33.969,0a1.277,1.277,0,0,1,.063-.406,1.148,1.148,0,0,1,.844-.812,32.587,32.587,0,0,0,7.906-3.125.062.062,0,0,0,.031-.094.1.1,0,0,0-.094-.062H35.438a1.534,1.534,0,0,1-1.125-.469,1.516,1.516,0,0,1-.469-1.109,1.516,1.516,0,0,1,.469-1.109,1.534,1.534,0,0,1,1.125-.469H45.781a.276.276,0,0,0,.313-.312V-8.75a.276.276,0,0,0-.312-.312H38.25a1.308,1.308,0,0,1-.984-.406,1.349,1.349,0,0,1-.391-.969,1.349,1.349,0,0,1,.391-.969,1.308,1.308,0,0,1,.984-.406h7.531a.276.276,0,0,0,.313-.312v-.812a.276.276,0,0,0-.312-.312H36.75a1.447,1.447,0,0,1-1.062-.437,1.428,1.428,0,0,1-.437-1.047,1.428,1.428,0,0,1,.438-1.047,1.447,1.447,0,0,1,1.063-.437h4.313a.184.184,0,0,0,.156-.094.207.207,0,0,0,.031-.187,14.166,14.166,0,0,0-.812-1.906.268.268,0,0,1-.016-.234.238.238,0,0,1,.172-.141H35.5a1.524,1.524,0,0,1-1.094-.453,1.466,1.466,0,0,1-.469-1.094,1.466,1.466,0,0,1,.469-1.094,1.524,1.524,0,0,1,1.094-.453h2.438a.184.184,0,0,0,.156-.094.263.263,0,0,0,.031-.219q-.375-.906-1.031-2.156a1.425,1.425,0,0,1-.187-.687,1.172,1.172,0,0,1,.125-.531,1.311,1.311,0,0,1,.844-.844,2.314,2.314,0,0,1,.734-.125,2.314,2.314,0,0,1,.734.125,1.962,1.962,0,0,1,1.094.906q.531.875.906,1.656a1.2,1.2,0,0,1,.156.594,1.311,1.311,0,0,1-.125.531,1.422,1.422,0,0,1-.844.781v.031a.028.028,0,0,0,.031.031h2.406a.276.276,0,0,0,.313-.312v-3.125a1.7,1.7,0,0,1,.531-1.266,1.754,1.754,0,0,1,1.266-.516,1.7,1.7,0,0,1,1.25.516,1.721,1.721,0,0,1,.516,1.266v3.125a.276.276,0,0,0,.313.313h1.75a.276.276,0,0,0,.313-.312v-3.125a1.7,1.7,0,0,1,.531-1.266,1.754,1.754,0,0,1,1.266-.516,1.754,1.754,0,0,1,1.266.516,1.7,1.7,0,0,1,.531,1.266v3.125a.276.276,0,0,0,.313.313h2.406v-.062a.758.758,0,0,1-.562-.484A.9.9,0,0,1,55-23.187q.406-.812.813-1.75a2.375,2.375,0,0,1,1.094-1.25,2.253,2.253,0,0,1,1.063-.281,2.184,2.184,0,0,1,.531.063,1.509,1.509,0,0,1,1.063.875,2.067,2.067,0,0,1,.094.594,1.529,1.529,0,0,1-.219.781q-.75,1.25-1.25,2a.176.176,0,0,0-.016.188.175.175,0,0,0,.172.094h2.281a1.509,1.509,0,0,1,1.109.453,1.49,1.49,0,0,1,.453,1.094,1.49,1.49,0,0,1-.453,1.094,1.509,1.509,0,0,1-1.109.453H56.469A.5.5,0,0,0,56-18.5q-.562,1.031-1.187,2a.237.237,0,0,0,.016.188.15.15,0,0,0,.141.094h4.469a1.447,1.447,0,0,1,1.063.438,1.428,1.428,0,0,1,.438,1.047,1.428,1.428,0,0,1-.437,1.047,1.447,1.447,0,0,1-1.062.438H50.125a.276.276,0,0,0-.312.313v.813a.276.276,0,0,0,.313.313h7.938a1.323,1.323,0,0,1,.969.406,1.323,1.323,0,0,1,.406.969,1.323,1.323,0,0,1-.406.969,1.323,1.323,0,0,1-.969.406H50.125a.276.276,0,0,0-.312.313v.781a.276.276,0,0,0,.313.313H60.719A1.5,1.5,0,0,1,61.813-7.187Zm4.281.375a1.593,1.593,0,0,1,.594-1.031,1.508,1.508,0,0,1,.875-.281h.281a1.694,1.694,0,0,1,1.063.656,1.629,1.629,0,0,1,.313.969v.25a31.267,31.267,0,0,1-1.156,5.156,1.22,1.22,0,0,1-.812.813,1.5,1.5,0,0,1-.531.094,1.449,1.449,0,0,1-.656-.156,1.649,1.649,0,0,1-.844-.875,2,2,0,0,1-.125-.687,2.586,2.586,0,0,1,.063-.562A24.026,24.026,0,0,0,66.094-6.812Zm7.625.313a1.177,1.177,0,0,1-.094-.469,1.149,1.149,0,0,1,.156-.562,1.217,1.217,0,0,1,.781-.687,1.339,1.339,0,0,1,.469-.094,1.449,1.449,0,0,1,.656.156,1.44,1.44,0,0,1,.75.813Q77.062-5.75,77.5-4.312a1.586,1.586,0,0,1,.063.438,1.481,1.481,0,0,1-.187.719,1.537,1.537,0,0,1-.906.781,1.1,1.1,0,0,1-.437.094,1.387,1.387,0,0,1-.625-.156,1.434,1.434,0,0,1-.687-.875Q74.344-4.719,73.719-6.5Zm-.562-8a1.375,1.375,0,0,1-.125-.562,1.1,1.1,0,0,1,.094-.437,1.227,1.227,0,0,1,.688-.75,1.446,1.446,0,0,1,.594-.125,1.415,1.415,0,0,1,.5.094,1.46,1.46,0,0,1,.813.719A28.206,28.206,0,0,1,77.5-11.406a1.415,1.415,0,0,1,.094.5,1.425,1.425,0,0,1-.187.688,1.814,1.814,0,0,1-.875.844.93.93,0,0,1-.469.125.986.986,0,0,1-.531-.156,1.217,1.217,0,0,1-.687-.781v-.062a.178.178,0,0,0-.219-.125l-1.156.094a.276.276,0,0,0-.312.313V1.156a1.6,1.6,0,0,1-.484,1.172,1.66,1.66,0,0,1-2.344,0,1.6,1.6,0,0,1-.484-1.172V-9.75a.252.252,0,0,0-.094-.2.331.331,0,0,0-.219-.078l-2.656.156a.277.277,0,0,1-.125.031,1.553,1.553,0,0,1-1.094-.437,1.589,1.589,0,0,1-.594-1.125v-.156a1.534,1.534,0,0,1,.375-1.031,1.525,1.525,0,0,1,1.125-.531l.406-.031a.473.473,0,0,0,.375-.187q.531-.687,1.188-1.594a.423.423,0,0,0,0-.531,27.054,27.054,0,0,0-2.5-2.937,2.058,2.058,0,0,1-.531-1.187v-.187a1.843,1.843,0,0,1,.344-1.062l.406-.594a.739.739,0,0,1,.547-.328.692.692,0,0,1,.609.2q.094.062.125-.031.938-1.875,1.719-3.812a1.716,1.716,0,0,1,.906-1,1.718,1.718,0,0,1,.719-.156,1.865,1.865,0,0,1,.594.094,1.5,1.5,0,0,1,.906.906A1.375,1.375,0,0,1,72.5-25a1.425,1.425,0,0,1-.187.688q-1.687,3.156-2.594,4.625a.357.357,0,0,0,.031.5q.531.625.688.813a.232.232,0,0,0,.172.063.2.2,0,0,0,.172-.094q1.125-1.844,1.938-3.375a1.6,1.6,0,0,1,1-.875,1.446,1.446,0,0,1,.594-.125,1.607,1.607,0,0,1,.719.188,1.408,1.408,0,0,1,.813.938,1.485,1.485,0,0,1,.063.406,1.436,1.436,0,0,1-.25.813q-2.563,3.906-4.875,6.906a.124.124,0,0,0-.016.156.15.15,0,0,0,.141.094l2.5-.125a.153.153,0,0,0,.141-.078.2.2,0,0,0,.016-.172Q73.375-14.094,73.156-14.5ZM89.875-7.125a.276.276,0,0,0-.312-.312H82.781a.276.276,0,0,0-.312.313v4.844a.276.276,0,0,0,.313.313h6.781a.276.276,0,0,0,.313-.312ZM80.719,2.719A1.684,1.684,0,0,1,79.484,2.2,1.684,1.684,0,0,1,78.969.969V-8.062a2.619,2.619,0,0,1,.8-1.922,2.619,2.619,0,0,1,1.922-.8h9.156a2.619,2.619,0,0,1,1.922.8,2.619,2.619,0,0,1,.8,1.922V.75a1.8,1.8,0,0,1-.531,1.3,1.757,1.757,0,0,1-1.312.547h-.75a1.049,1.049,0,0,1-.766-.328,1.049,1.049,0,0,1-.328-.766.11.11,0,0,0-.125-.125H82.594a.11.11,0,0,0-.125.125,1.173,1.173,0,0,1-.359.859,1.173,1.173,0,0,1-.859.359ZM78.344-22.625a1.677,1.677,0,0,1-.5-1.234,1.651,1.651,0,0,1,.516-1.234,1.711,1.711,0,0,1,1.234-.5H91.5a2.492,2.492,0,0,1,1.875.781,2.574,2.574,0,0,1,.75,1.844,55.067,55.067,0,0,1-.375,6.5,5.9,5.9,0,0,1-.781,2.656,3.59,3.59,0,0,1-2.375,1.25,16.619,16.619,0,0,1-2.062.094,2.03,2.03,0,0,1-1.344-.5,2.911,2.911,0,0,1-.844-1.344,1.18,1.18,0,0,1-.062-.375,1.319,1.319,0,0,1,.219-.719,1.072,1.072,0,0,1,.906-.469h1.438a1.37,1.37,0,0,0,1-.312q.531-.625.75-5.625a.3.3,0,0,0-.094-.219.3.3,0,0,0-.219-.094H86.219a.309.309,0,0,0-.344.313,16.918,16.918,0,0,1-1.734,5.406,10.521,10.521,0,0,1-3.766,3.875,1.75,1.75,0,0,1-.875.25,2.055,2.055,0,0,1-.5-.062,2.217,2.217,0,0,1-1.219-.844,1.408,1.408,0,0,1-.312-.875,1.162,1.162,0,0,1,.031-.281,1.34,1.34,0,0,1,.656-1,8.01,8.01,0,0,0,2.719-2.734,10.882,10.882,0,0,0,1.25-3.734.235.235,0,0,0-.047-.219.252.252,0,0,0-.2-.094H79.594A1.764,1.764,0,0,1,78.344-22.625Zm33.688-.406a.2.2,0,0,0-.172-.094.133.133,0,0,0-.141.094,27.127,27.127,0,0,1-4.562,5.359,37.142,37.142,0,0,1-6.281,4.7,1.859,1.859,0,0,1-.969.281,1.682,1.682,0,0,1-.531-.094,2.173,2.173,0,0,1-1.25-.875,1.531,1.531,0,0,1-.344-.969,1.756,1.756,0,0,1,.031-.344,1.525,1.525,0,0,1,.75-1.094,28.824,28.824,0,0,0,5.672-4.234,30.593,30.593,0,0,0,4.391-5.141,4.059,4.059,0,0,1,1.344-1.25,3.387,3.387,0,0,1,1.719-.469,3.732,3.732,0,0,1,3.156,1.688,29.647,29.647,0,0,0,4.8,5.219,27.1,27.1,0,0,0,5.7,3.781,1.7,1.7,0,0,1,.875,1.125,1.836,1.836,0,0,1,.063.438,1.661,1.661,0,0,1-.344,1,2.391,2.391,0,0,1-1.375,1,2.731,2.731,0,0,1-.594.063,2.253,2.253,0,0,1-1.062-.281,38.483,38.483,0,0,1-6.234-4.625A28,28,0,0,1,112.031-23.031Zm3.406,9.563a1.948,1.948,0,0,1,.578-1.406,1.871,1.871,0,0,1,1.391-.594,1.922,1.922,0,0,1,1.406.594,1.922,1.922,0,0,1,.594,1.406V.781a1.871,1.871,0,0,1-.594,1.391,1.948,1.948,0,0,1-1.406.578,1.9,1.9,0,0,1-1.391-.578,1.9,1.9,0,0,1-.578-1.391Zm-11.031.156a1.881,1.881,0,0,1,.578-1.406,1.923,1.923,0,0,1,1.391-.562,1.923,1.923,0,0,1,1.391.563,1.881,1.881,0,0,1,.578,1.406v2a27.7,27.7,0,0,1-.172,3.234,21.4,21.4,0,0,1-.672,3.234,11.78,11.78,0,0,1-1.594,3.406,13.888,13.888,0,0,1-2.781,3,2.111,2.111,0,0,1-1.344.469,1.027,1.027,0,0,1-.25-.031,2.93,2.93,0,0,1-1.562-.687A1.48,1.48,0,0,1,99.406.125,1.512,1.512,0,0,1,100-1.125a11.893,11.893,0,0,0,2.375-2.437A8.9,8.9,0,0,0,103.719-6.3a17.029,17.029,0,0,0,.547-2.562,21.24,21.24,0,0,0,.141-2.578Z" transform="translate(-1.281 27.156)" fill="#231815"/>
</svg>
