<svg xmlns="http://www.w3.org/2000/svg" width="113.757" height="17.505" viewBox="0 0 113.757 17.505">
  <path id="パス_6921" data-name="パス 6921" d="M1.746,0V-16.675H8.179a5.976,5.976,0,0,1,2.563.5,3.453,3.453,0,0,1,1.6,1.471,4.842,4.842,0,0,1,.537,2.374,5.219,5.219,0,0,1-.189,1.465A3.142,3.142,0,0,1,12.1-9.735a3.789,3.789,0,0,1-1.056.861,4.281,4.281,0,0,1,2.576,1.312,4.162,4.162,0,0,1,.83,2.765,4.7,4.7,0,0,1-.684,2.57A4.354,4.354,0,0,1,11.792-.574,7.581,7.581,0,0,1,8.7,0ZM6.079-10.1h.793a2.343,2.343,0,0,0,1.508-.421A1.5,1.5,0,0,0,8.9-11.755a1.46,1.46,0,0,0-.519-1.2,2.343,2.343,0,0,0-1.508-.421H6.079Zm0,6.726h.94a6.848,6.848,0,0,0,1.733-.183,1.934,1.934,0,0,0,1-.555,1.482,1.482,0,0,0,.317-.995A1.542,1.542,0,0,0,9.253-6.58a2.473,2.473,0,0,0-.806-.238,13.926,13.926,0,0,0-1.5-.055H6.079ZM21.533-16.675v9.021q0,.854.012,1.2a6.674,6.674,0,0,0,.061.69,2.163,2.163,0,0,0,.122.519q.073.171.281.574A2.352,2.352,0,0,0,23-3.741a3.014,3.014,0,0,0,1.4.336,3.226,3.226,0,0,0,1.526-.366,2.386,2.386,0,0,0,1.025-.977,2.759,2.759,0,0,0,.372-1.013A14.9,14.9,0,0,0,27.4-7.654v-9.021h4.321v9.619a12.666,12.666,0,0,1-.153,2.118,5.841,5.841,0,0,1-.513,1.611,6.339,6.339,0,0,1-.958,1.4A7.4,7.4,0,0,1,24.28.427,8.989,8.989,0,0,1,21.936.122a7.62,7.62,0,0,1-2.051-.873,5.258,5.258,0,0,1-1.477-1.324,4.767,4.767,0,0,1-.7-1.251,7.2,7.2,0,0,1-.385-1.581A16.136,16.136,0,0,1,17.2-7.056v-9.619Zm24.573.952-1.721,3.369a7.492,7.492,0,0,0-.964-.635,4.138,4.138,0,0,0-.916-.366,3.823,3.823,0,0,0-.977-.122,2.072,2.072,0,0,0-1.306.415,1.242,1.242,0,0,0-.537,1.013q0,.781,1.123,1.294.183.085,1.88.61a8.177,8.177,0,0,1,2.338,1.038,3.871,3.871,0,0,1,1.337,1.5A4.7,4.7,0,0,1,46.79-5.53a6.73,6.73,0,0,1-.439,2.515,5.079,5.079,0,0,1-1.27,1.868A5.515,5.515,0,0,1,43.036.024a8.724,8.724,0,0,1-2.753.4,9.841,9.841,0,0,1-5.8-1.88l1.843-3.5a5.932,5.932,0,0,0,3.833,1.709A2.4,2.4,0,0,0,41.687-3.7a1.423,1.423,0,0,0,.574-1.172,1.287,1.287,0,0,0-.543-1.08A6.986,6.986,0,0,0,39.661-6.8q-.916-.269-1.544-.494a7.138,7.138,0,0,1-.995-.427,4.634,4.634,0,0,1-.708-.482,4.058,4.058,0,0,1-1.257-3.247,5.926,5.926,0,0,1,.714-2.924,4.98,4.98,0,0,1,2.014-2,6.063,6.063,0,0,1,2.948-.708A11.2,11.2,0,0,1,46.106-15.723Zm7.727-.952V0H49.5V-16.675ZM57.324,0V-16.675h4.333L69.629-6.47V-16.675H73.95V0H69.629L61.658-10.205V0ZM86.938-13H81.787v2.771h4.871v3.674H81.787v2.881h5.151V0H77.454V-16.675h9.485Zm13.611-2.722-1.721,3.369a7.492,7.492,0,0,0-.964-.635,4.138,4.138,0,0,0-.916-.366,3.823,3.823,0,0,0-.977-.122,2.072,2.072,0,0,0-1.306.415,1.242,1.242,0,0,0-.537,1.013q0,.781,1.123,1.294.183.085,1.88.61a8.177,8.177,0,0,1,2.338,1.038,3.871,3.871,0,0,1,1.337,1.5,4.7,4.7,0,0,1,.427,2.075,6.73,6.73,0,0,1-.439,2.515,5.079,5.079,0,0,1-1.27,1.868A5.515,5.515,0,0,1,97.479.024a8.724,8.724,0,0,1-2.753.4,9.841,9.841,0,0,1-5.8-1.88l1.843-3.5A5.932,5.932,0,0,0,94.6-3.247,2.4,2.4,0,0,0,96.13-3.7,1.423,1.423,0,0,0,96.7-4.871a1.287,1.287,0,0,0-.543-1.08A6.986,6.986,0,0,0,94.1-6.8q-.916-.269-1.544-.494a7.139,7.139,0,0,1-.995-.427,4.634,4.634,0,0,1-.708-.482A4.058,4.058,0,0,1,89.6-11.45a5.926,5.926,0,0,1,.714-2.924,4.98,4.98,0,0,1,2.014-2,6.063,6.063,0,0,1,2.948-.708A11.2,11.2,0,0,1,100.549-15.723Zm14.27,0L113.1-12.354a7.492,7.492,0,0,0-.964-.635,4.138,4.138,0,0,0-.916-.366,3.823,3.823,0,0,0-.977-.122,2.072,2.072,0,0,0-1.306.415,1.242,1.242,0,0,0-.537,1.013q0,.781,1.123,1.294.183.085,1.88.61a8.177,8.177,0,0,1,2.338,1.038,3.871,3.871,0,0,1,1.337,1.5A4.7,4.7,0,0,1,115.5-5.53a6.73,6.73,0,0,1-.439,2.515,5.079,5.079,0,0,1-1.27,1.868A5.515,5.515,0,0,1,111.749.024a8.724,8.724,0,0,1-2.753.4,9.841,9.841,0,0,1-5.8-1.88l1.843-3.5a5.932,5.932,0,0,0,3.833,1.709A2.4,2.4,0,0,0,110.4-3.7a1.423,1.423,0,0,0,.574-1.172,1.287,1.287,0,0,0-.543-1.08,6.986,6.986,0,0,0-2.057-.848q-.916-.269-1.544-.494a7.139,7.139,0,0,1-.995-.427,4.634,4.634,0,0,1-.708-.482,4.058,4.058,0,0,1-1.257-3.247,5.926,5.926,0,0,1,.714-2.924,4.98,4.98,0,0,1,2.014-2,6.063,6.063,0,0,1,2.948-.708A11.2,11.2,0,0,1,114.819-15.723Z" transform="translate(-1.746 17.078)" fill="#231815"/>
</svg>
