<svg xmlns="http://www.w3.org/2000/svg" width="585.344" height="29.219" viewBox="0 0 585.344 29.219">
  <path id="パス_6906" data-name="パス 6906" d="M10.313.438A8.63,8.63,0,0,1,3.922-2.094,9.28,9.28,0,0,1,1.406-8.937a10.707,10.707,0,0,1,.7-3.906,8.665,8.665,0,0,1,1.875-3A8.752,8.752,0,0,1,6.656-17.7a7.492,7.492,0,0,1,3.094-.672,6.8,6.8,0,0,1,5.406,2.219A8.535,8.535,0,0,1,17.25-10.25a2.28,2.28,0,0,1-.844,1.813,3.037,3.037,0,0,1-2.094.781H6.281a.27.27,0,0,0-.187.094.217.217,0,0,0-.062.219A4.912,4.912,0,0,0,7.688-4.234a4.951,4.951,0,0,0,3.25,1.078,6.842,6.842,0,0,0,2.563-.5,1.937,1.937,0,0,1,.75-.156,2.184,2.184,0,0,1,.531.063,1.53,1.53,0,0,1,1,.781A1.757,1.757,0,0,1,16-2.125a1.586,1.586,0,0,1-.062.438,1.327,1.327,0,0,1-.781.969A10.956,10.956,0,0,1,10.313.438ZM5.969-11a.212.212,0,0,0,.063.156.21.21,0,0,0,.188.094h6.688a.3.3,0,0,0,.219-.094.3.3,0,0,0,.094-.219,4.311,4.311,0,0,0-.937-2.7,3.123,3.123,0,0,0-2.469-.953,3.617,3.617,0,0,0-2.469.938A3.705,3.705,0,0,0,5.969-11ZM43-16.719a4.822,4.822,0,0,1,.531-.031,4.792,4.792,0,0,1,2.531.594,1.761,1.761,0,0,1,.781,1.063,2.494,2.494,0,0,1,.094.656,2.271,2.271,0,0,1-.125.719,23.286,23.286,0,0,1-4.656,8.656A23.045,23.045,0,0,1,33,1.094a3.164,3.164,0,0,1-1.156.219,3.625,3.625,0,0,1-.937-.125A3.945,3.945,0,0,1,29.125.063a1.417,1.417,0,0,1-.375-.937,1.339,1.339,0,0,1,.094-.469,1.43,1.43,0,0,1,1.031-1,20.012,20.012,0,0,0,8.75-5.031,13.53,13.53,0,0,0,3.188-5.219.186.186,0,0,0-.016-.219.223.223,0,0,0-.172-.094H26.469q-.75,0-1.625.031H24.75a2,2,0,0,1-1.375-.531,1.813,1.813,0,0,1-.625-1.406,1.813,1.813,0,0,1,.625-1.406,1.889,1.889,0,0,1,1.344-.531h.125q.906.031,1.625.031H43ZM27.75-20.5h-.031a1.976,1.976,0,0,1-1.406-.562,1.876,1.876,0,0,1-.625-1.406,1.813,1.813,0,0,1,.625-1.406,2,2,0,0,1,1.375-.531h.063q.594.031,1.281.031H41.344q.719,0,1.406-.031h.063a2,2,0,0,1,1.375.531,1.813,1.813,0,0,1,.625,1.406,1.876,1.876,0,0,1-.625,1.406,1.976,1.976,0,0,1-1.406.563H27.75Zm42.906,4.469a.516.516,0,0,0-.25.469V-2.781L70.438-1A2.45,2.45,0,0,1,69.813.656a2.107,2.107,0,0,1-1.656.75,2.2,2.2,0,0,1-1.687-.75A2.384,2.384,0,0,1,65.813-1l.031-1.781V-12.969a.192.192,0,0,0-.078-.156.179.179,0,0,0-.2,0,62.2,62.2,0,0,1-8.531,3.531,2.587,2.587,0,0,1-.875.156,2.477,2.477,0,0,1-1-.219,2.809,2.809,0,0,1-1.469-1.219,1.757,1.757,0,0,1-.219-.844,1.92,1.92,0,0,1,.125-.656,1.688,1.688,0,0,1,1.156-1,46.033,46.033,0,0,0,12.344-5.25,35.353,35.353,0,0,0,6.844-5.5,2.546,2.546,0,0,1,1.594-.75h.188a2.086,2.086,0,0,1,1.438.563,2.112,2.112,0,0,1,.719,1.625,2.033,2.033,0,0,1-.656,1.531A50.7,50.7,0,0,1,70.656-16.031Zm35.375-7.062h.375a5.413,5.413,0,0,1,3.031.781,2.06,2.06,0,0,1,.938,1.188,3.172,3.172,0,0,1,.125.875,3.836,3.836,0,0,1-.062.688l-.125.5q-1.781,7.625-4.812,11.625A24.635,24.635,0,0,1,95.063.5a3.38,3.38,0,0,1-1.344.281,3.172,3.172,0,0,1-.875-.125A3.883,3.883,0,0,1,90.906-.5,1.54,1.54,0,0,1,90.5-1.531,1.938,1.938,0,0,1,90.563-2a1.607,1.607,0,0,1,1.094-1.125,20.524,20.524,0,0,0,10.031-6.781,16.5,16.5,0,0,0,2.375-4.156,23.889,23.889,0,0,0,1.344-4.562.331.331,0,0,0-.078-.219.252.252,0,0,0-.2-.094H88.969a.09.09,0,0,1-.062.031,2.151,2.151,0,0,1-1.531-.625,2.033,2.033,0,0,1-.656-1.531,1.99,1.99,0,0,1,.688-1.531,1.976,1.976,0,0,1,1.406-.562.514.514,0,0,1,.156.031q1,.062,1.594.063h14.781Q105.719-23.062,106.031-23.094ZM140.188-23a1.721,1.721,0,0,0,.547,1.281,1.817,1.817,0,0,0,1.313.531,1.817,1.817,0,0,0,1.313-.531A1.721,1.721,0,0,0,143.906-23a1.808,1.808,0,0,0-.547-1.328,1.79,1.79,0,0,0-1.312-.547,1.79,1.79,0,0,0-1.312.547A1.808,1.808,0,0,0,140.188-23Zm-1.969,0a3.7,3.7,0,0,1,1.125-2.719,3.686,3.686,0,0,1,2.7-1.125,3.686,3.686,0,0,1,2.7,1.125A3.7,3.7,0,0,1,145.875-23a3.668,3.668,0,0,1-1.125,2.688,3.686,3.686,0,0,1-2.7,1.125,3.686,3.686,0,0,1-2.7-1.125A3.668,3.668,0,0,1,138.219-23Zm-17.5,13.063a46.391,46.391,0,0,0,2.719-9.812,2.238,2.238,0,0,1,.938-1.5,1.987,1.987,0,0,1,1.25-.437,1.938,1.938,0,0,1,.469.063,2.105,2.105,0,0,1,1.438,1,2.3,2.3,0,0,1,.375,1.25,2.453,2.453,0,0,1-.062.531q-.125.531-.187.906-.375,1.813-1.172,4.656t-1.547,4.969A43.483,43.483,0,0,1,121.5-1.219,2.628,2.628,0,0,1,119.938,0a2.853,2.853,0,0,1-.844.125,2.61,2.61,0,0,1-1.125-.25,1.787,1.787,0,0,1-1.125-1.25,2.586,2.586,0,0,1-.062-.562,1.89,1.89,0,0,1,.344-1.094A38.454,38.454,0,0,0,120.719-9.937Zm15.781-.687q-1.531-4.219-3.594-8.531a1.884,1.884,0,0,1-.219-.844,1.937,1.937,0,0,1,.156-.75A1.877,1.877,0,0,1,134-21.844a2.75,2.75,0,0,1,.813-.125,2.831,2.831,0,0,1,1,.188,2.412,2.412,0,0,1,1.313,1.25q2.25,4.656,3.719,8.5,1.375,3.469,3.031,8.781A2.36,2.36,0,0,1,144-2.5a2.353,2.353,0,0,1-.312,1.156,2.37,2.37,0,0,1-1.469,1.25,2.359,2.359,0,0,1-.75.125,2.131,2.131,0,0,1-1.094-.312A2.288,2.288,0,0,1,139.25-1.75,90.7,90.7,0,0,0,136.5-10.625Zm15.5.719h-.062a2.362,2.362,0,0,1-1.687-.687,2.218,2.218,0,0,1-.75-1.7,2.315,2.315,0,0,1,.75-1.734,2.313,2.313,0,0,1,1.656-.656H152q1.5.063,2.656.063h17.188q.594,0,1.25-.031h.094a2.313,2.313,0,0,1,1.656.656,2.2,2.2,0,0,1,.75,1.688,2.235,2.235,0,0,1-.75,1.719,2.313,2.313,0,0,1-1.656.656H154.656Q153.375-9.937,152-9.906Zm52.188-2.844a2.159,2.159,0,0,1,1.281,1.313,2.434,2.434,0,0,1,.188.906,2.586,2.586,0,0,1-.187.969,2.175,2.175,0,0,1-1.281,1.219,2.249,2.249,0,0,1-.812.156,2.266,2.266,0,0,1-.969-.219q-4-1.844-9.125-3.625a.207.207,0,0,0-.187.031.21.21,0,0,0-.094.188v8.75q0,.625.094,1.938v.188a2.188,2.188,0,0,1-.625,1.563,2.2,2.2,0,0,1-1.687.75,2.168,2.168,0,0,1-1.656-.75,2.25,2.25,0,0,1-.594-1.562v-.156q.094-1.125.094-1.969V-21.437L188.563-23a2.325,2.325,0,0,1,.594-1.562,2.074,2.074,0,0,1,1.625-.75,2.107,2.107,0,0,1,1.656.75A2.188,2.188,0,0,1,193.063-23a.59.59,0,0,1-.031.188q-.031.75-.031,1.375v4.375a.387.387,0,0,0,.281.406A106.131,106.131,0,0,1,204.188-12.75Zm25.438-5.625a.276.276,0,0,0,.313.313h6.906q.625,0,1.313-.031h.094a2.086,2.086,0,0,1,1.438.563,1.945,1.945,0,0,1,.625,1.469,2.046,2.046,0,0,1-.625,1.5,2.125,2.125,0,0,1-1.469.563h-.062q-.781-.031-1.344-.031h-6.906a.276.276,0,0,0-.312.313,20.851,20.851,0,0,1-1.781,7.969A16.442,16.442,0,0,1,222.531.438a3.184,3.184,0,0,1-1.875.594h-.125A3.443,3.443,0,0,1,218.5.313a1.4,1.4,0,0,1-.594-1.187,1.607,1.607,0,0,1,.781-1.437q6-3.719,6.469-11.406a.217.217,0,0,0-.062-.219.3.3,0,0,0-.219-.094h-7.844q-.687,0-1.469.063h-.125A2.027,2.027,0,0,1,214-14.562a1.936,1.936,0,0,1-.656-1.5A1.9,1.9,0,0,1,214-17.531a1.976,1.976,0,0,1,1.406-.562h.125q.75.031,1.375.031h8a.276.276,0,0,0,.313-.312v-3.187q0-.594-.031-1.25a.59.59,0,0,1-.031-.187,2.325,2.325,0,0,1,.594-1.562,1.983,1.983,0,0,1,1.594-.75,2.2,2.2,0,0,1,1.688.75,2.49,2.49,0,0,1,.625,1.688l-.031,1.344ZM248-9.906h-.062a2.362,2.362,0,0,1-1.687-.687,2.218,2.218,0,0,1-.75-1.7,2.315,2.315,0,0,1,.75-1.734,2.313,2.313,0,0,1,1.656-.656H248q1.5.063,2.656.063h17.188q.594,0,1.25-.031h.094a2.313,2.313,0,0,1,1.656.656,2.2,2.2,0,0,1,.75,1.688,2.235,2.235,0,0,1-.75,1.719,2.313,2.313,0,0,1-1.656.656H250.656Q249.375-9.937,248-9.906Zm57.094-14.687a1.053,1.053,0,0,1,.188.594,1.037,1.037,0,0,1-.094.406,1.227,1.227,0,0,1-.687.75,1.446,1.446,0,0,1-.594.125,1.415,1.415,0,0,1-.5-.094,1.443,1.443,0,0,1-.812-.719q-.625-1.125-1.187-2.031a1.107,1.107,0,0,1-.141-.937,1.074,1.074,0,0,1,.641-.719,1.751,1.751,0,0,1,.656-.125,1.938,1.938,0,0,1,.469.063,1.6,1.6,0,0,1,.906.688Q304.5-25.688,305.094-24.594ZM299.969-21.5a.028.028,0,0,0-.031.031v.063a.779.779,0,0,1,.344.531,1.022,1.022,0,0,1-.094.656,10.289,10.289,0,0,0-.687,1.313,45.359,45.359,0,0,1-4.844,8.5.322.322,0,0,0,.031.469,84.369,84.369,0,0,1,7.125,7.094,2.365,2.365,0,0,1,.594,1.594v.188a2.268,2.268,0,0,1-.844,1.656,2.086,2.086,0,0,1-1.437.563h-.25a2.171,2.171,0,0,1-1.594-.875,76.7,76.7,0,0,0-6.375-6.906.273.273,0,0,0-.437,0,44.547,44.547,0,0,1-9.687,7.656,2.961,2.961,0,0,1-1.437.375,2.586,2.586,0,0,1-.562-.062A3.216,3.216,0,0,1,278,.375a1.516,1.516,0,0,1-.437-1.062,2.276,2.276,0,0,1,.031-.375,1.7,1.7,0,0,1,.969-1.219A34.157,34.157,0,0,0,284.531-6a36.33,36.33,0,0,0,4.938-4.531,26.957,26.957,0,0,0,2.813-3.8,20.455,20.455,0,0,0,1.875-3.734.235.235,0,0,0-.047-.219.223.223,0,0,0-.172-.094H283.406q-.625,0-1.531.063h-.156a2.086,2.086,0,0,1-1.437-.562,2.033,2.033,0,0,1-.656-1.531,2.033,2.033,0,0,1,.656-1.531,2.125,2.125,0,0,1,1.469-.562h.125q.906.031,1.531.031h11.281a13.9,13.9,0,0,0,2.875-.25.861.861,0,0,1,.781.125q-.5-.969-1-1.812a1.053,1.053,0,0,1-.187-.594,1.18,1.18,0,0,1,.063-.375,1.123,1.123,0,0,1,.656-.719,1.672,1.672,0,0,1,.625-.125,2.055,2.055,0,0,1,.5.063,1.6,1.6,0,0,1,.875.688q.5.781.969,1.656a1.529,1.529,0,0,1,.219.781,1.682,1.682,0,0,1-.094.531,1.607,1.607,0,0,1-.906.938Zm15,11.219a2.5,2.5,0,0,1-.844.156,2.206,2.206,0,0,1-.875-.187,1.973,1.973,0,0,1-1.156-1.219,1.649,1.649,0,0,1-.156-.687,1.75,1.75,0,0,1,.25-.875,1.887,1.887,0,0,1,1.25-1q.688-.187,1.188-.344.156-.031,1.281-.375l1.8-.547q.672-.2,1.938-.531t2.2-.516q.938-.187,2.078-.344A15.424,15.424,0,0,1,326-16.906a8.589,8.589,0,0,1,6.047,2.109,7.325,7.325,0,0,1,2.3,5.672,8.228,8.228,0,0,1-3.3,6.7Q327.75.219,321.375.969a2.1,2.1,0,0,1-.344.031,2.638,2.638,0,0,1-1.437-.437,2.936,2.936,0,0,1-1.187-1.375,1.6,1.6,0,0,1-.125-.594,1.529,1.529,0,0,1,.219-.781,1.545,1.545,0,0,1,1.219-.719,18.834,18.834,0,0,0,7.625-1.937,4.8,4.8,0,0,0,2.813-4.344,3.73,3.73,0,0,0-1.25-2.906,4.764,4.764,0,0,0-3.312-1.125Q322.219-13.219,314.969-10.281ZM343.531-18a2.277,2.277,0,0,1-.375.031,1.907,1.907,0,0,1-1.187-.406,1.84,1.84,0,0,1-.781-1.406v-.187a1.954,1.954,0,0,1,.5-1.344,1.994,1.994,0,0,1,1.5-.719,7.644,7.644,0,0,0,.906-.094q.906-.062,13.656-1.187,3.25-.281,6.938-.469h.094a1.889,1.889,0,0,1,1.344.531,1.91,1.91,0,0,1,.625,1.438,1.958,1.958,0,0,1-.594,1.438,2.073,2.073,0,0,1-1.437.625,22.009,22.009,0,0,0-4.062.375,8.75,8.75,0,0,0-4.75,3.406,9.087,9.087,0,0,0-1.937,5.469,6.583,6.583,0,0,0,.609,2.891A5.741,5.741,0,0,0,356.3-5.5a9.631,9.631,0,0,0,2.5,1.359,15.261,15.261,0,0,0,3.109.766,1.941,1.941,0,0,1,1.344.875,1.724,1.724,0,0,1,.313.969,2.067,2.067,0,0,1-.094.594A3,3,0,0,1,362.281.594,2.574,2.574,0,0,1,360.906,1a3.319,3.319,0,0,1-.469-.031A17.236,17.236,0,0,1,356.344-.3a14.093,14.093,0,0,1-3.359-2.141,9.173,9.173,0,0,1-2.344-3.141,9.528,9.528,0,0,1-.859-4.047,11.881,11.881,0,0,1,1.328-5.578,12.372,12.372,0,0,1,3.109-3.984.1.1,0,0,0,.031-.125.062.062,0,0,0-.094-.031Q347.187-18.625,343.531-18Zm47.625-2.219a1.971,1.971,0,0,1,1.063-.312,1.938,1.938,0,0,1,.469.063,1.708,1.708,0,0,1,1.188.906,2.078,2.078,0,0,1,.281,1.031,2.067,2.067,0,0,1-.094.594,2.02,2.02,0,0,1-1,1.281L391.75-16q-.344.188-2.062,1.031t-3.094,1.609q-1.375.766-2.687,1.609a14.32,14.32,0,0,0-3.25,2.8,4.66,4.66,0,0,0-1.125,2.984q0,3.469,6.594,3.469a50.165,50.165,0,0,0,8.094-.719,2.1,2.1,0,0,1,.344-.031,1.821,1.821,0,0,1,1.188.438,1.776,1.776,0,0,1,.656,1.406A2.692,2.692,0,0,1,395.75.375a2.43,2.43,0,0,1-1.625.875,66.221,66.221,0,0,1-7.906.438q-11.094,0-11.094-7.219a7.716,7.716,0,0,1,1.313-4.375,15.615,15.615,0,0,1,3.688-3.75.353.353,0,0,0,.125-.469q-1.5-2.844-3.406-7.187a2.138,2.138,0,0,1-.187-.844,2.012,2.012,0,0,1,.156-.781,2.092,2.092,0,0,1,1.156-1.187,2.173,2.173,0,0,1,.781-.156,1.992,1.992,0,0,1,.844.188,2.092,2.092,0,0,1,1.156,1.188q1.281,3.062,3.031,6.469a.284.284,0,0,0,.438.125q1.187-.719,3.156-1.781T390-19.531Q390.688-19.906,391.156-20.219Zm2.406-3.125a1.2,1.2,0,0,1-.156-.594,2.1,2.1,0,0,1,.031-.344,1.242,1.242,0,0,1,.656-.719,1.672,1.672,0,0,1,.625-.125,1.415,1.415,0,0,1,.5.094,1.434,1.434,0,0,1,.875.688q.563.906,1.156,1.969a1.387,1.387,0,0,1,.156.625,1.485,1.485,0,0,1-.062.406,1.221,1.221,0,0,1-.719.781,1.77,1.77,0,0,1-.562.094,1.5,1.5,0,0,1-.531-.094,1.439,1.439,0,0,1-.844-.719Q394.094-22.438,393.563-23.344Zm3.813-1.437a1.053,1.053,0,0,1-.187-.594.918.918,0,0,1,.063-.344,1.04,1.04,0,0,1,.625-.719,1.586,1.586,0,0,1,.656-.156,1.415,1.415,0,0,1,.5.094,1.6,1.6,0,0,1,.875.688q.625,1,1.188,2a1.2,1.2,0,0,1,.156.594,1.1,1.1,0,0,1-.094.438,1.229,1.229,0,0,1-.687.719,1.375,1.375,0,0,1-.562.125,1.5,1.5,0,0,1-.531-.094,1.466,1.466,0,0,1-.812-.687A22.672,22.672,0,0,0,397.375-24.781Zm18.281,1.094a2.643,2.643,0,0,1,1.406-1.281,2.546,2.546,0,0,1,.953-.187,2.546,2.546,0,0,1,.953.188,1.879,1.879,0,0,1,1.125,1.25,1.865,1.865,0,0,1,.094.594,1.843,1.843,0,0,1-.344,1.063q-1.125,1.719-5.031,8.656a.087.087,0,0,0,.016.109.087.087,0,0,0,.109.016,7.143,7.143,0,0,1,3.344-.812A3.68,3.68,0,0,1,421.094-13a4.672,4.672,0,0,1,1.125,3.094q0,.25.016,2.375a23.039,23.039,0,0,0,.141,2.906q.125,1.719,2,1.719a3.5,3.5,0,0,0,2.781-1.469,12.441,12.441,0,0,0,2-3.906,1.415,1.415,0,0,1,.969-.969,1.177,1.177,0,0,1,.469-.094,1.3,1.3,0,0,1,.844.344A3.1,3.1,0,0,1,432.5-7.406a2.75,2.75,0,0,1,.125.813,3.175,3.175,0,0,1-.187,1.063q-2.812,6.969-8.75,6.969A5.348,5.348,0,0,1,419.875.172a4.464,4.464,0,0,1-1.437-3.141q-.062-.906-.109-2.953t-.078-2.609a1.708,1.708,0,0,0-1.875-1.781,3.9,3.9,0,0,0-2.828,1.328,11.128,11.128,0,0,0-2.2,3.453,42.393,42.393,0,0,0-1.75,4.781A2.3,2.3,0,0,1,408.469.625a2.28,2.28,0,0,1-1.031.25,2.359,2.359,0,0,1-.75-.125,2.288,2.288,0,0,1-1.344-1.187,2.508,2.508,0,0,1-.187-.937,2.249,2.249,0,0,1,.156-.812q1.875-4.563,5.109-11.187t4.7-9.281Q415.281-22.937,415.656-23.687Zm47.406,5.125a1.914,1.914,0,0,1,.906,1.25,3.088,3.088,0,0,1,.031.438,1.989,1.989,0,0,1-.344,1.094,1.974,1.974,0,0,1-1.281.813,2.277,2.277,0,0,1-.375.031,1.89,1.89,0,0,1-1.094-.344,42.7,42.7,0,0,0-4.312-2.531,1.608,1.608,0,0,1-.844-1.062,1.1,1.1,0,0,1-.094-.437,1.508,1.508,0,0,1,.281-.875,2.057,2.057,0,0,1,1.219-.906,2.067,2.067,0,0,1,.594-.094,2,2,0,0,1,.906.219Q461-19.812,463.063-18.562Zm-12-3.281a1.18,1.18,0,0,1,.375-.062,1.408,1.408,0,0,1,.875.313,1.341,1.341,0,0,1,.563,1.156,2.285,2.285,0,0,1-.469,1.406,2.136,2.136,0,0,1-1.25.813q-1.687.375-3.406.594a.574.574,0,0,0-.437.344,55.151,55.151,0,0,1-5.469,11.469,2.358,2.358,0,0,1-1.406,1.031,2.165,2.165,0,0,1-.625.094,2.31,2.31,0,0,1-1.094-.281,1.707,1.707,0,0,1-.937-1.219,1.586,1.586,0,0,1-.062-.437,1.741,1.741,0,0,1,.375-1.062,48.433,48.433,0,0,0,5.031-9.187.207.207,0,0,0-.031-.187.127.127,0,0,0-.156-.062h-1.344q-1.031,0-2.094-.031a1.87,1.87,0,0,1-1.375-.562,2.046,2.046,0,0,1-.625-1.5,1.553,1.553,0,0,1,.438-1.094,1.64,1.64,0,0,1,1.156-.469h.094q1.25.062,2.375.063,1.25,0,2.531-.062a.437.437,0,0,0,.406-.312q.344-1.5.563-2.812a2.292,2.292,0,0,1,.844-1.5,2.03,2.03,0,0,1,1.344-.5.918.918,0,0,1,.219.031,1.749,1.749,0,0,1,1.375.781,1.843,1.843,0,0,1,.344,1.063,2.055,2.055,0,0,1-.062.5q-.25,1.031-.469,1.875a.2.2,0,0,0,.047.2.158.158,0,0,0,.172.047Q450-21.594,451.063-21.844Zm2.531,17.125V-5a.34.34,0,0,0-.281-.375,11.386,11.386,0,0,0-2.281-.25,4.063,4.063,0,0,0-2.172.516,1.55,1.55,0,0,0-.828,1.359A1.736,1.736,0,0,0,448.75-2.3a3.237,3.237,0,0,0,2,.547Q453.594-1.75,453.594-4.719Zm-.406-9.219a1.815,1.815,0,0,1,.531-1.281,1.822,1.822,0,0,1,1.375-.594,1.822,1.822,0,0,1,1.375.594,1.976,1.976,0,0,1,.563,1.406q0,.312.016.656t.031.75q.016.406.016.656.062,1.875.156,3.688a.5.5,0,0,0,.313.438,20.074,20.074,0,0,1,4.75,2.688,2.13,2.13,0,0,1,.813,1.375,2.276,2.276,0,0,1,.031.375,2.255,2.255,0,0,1-.375,1.219,1.544,1.544,0,0,1-1.187.75,1.027,1.027,0,0,1-.25.031,1.664,1.664,0,0,1-1.125-.437,20.136,20.136,0,0,0-2.5-1.844.176.176,0,0,0-.187-.016.15.15,0,0,0-.094.141A5.059,5.059,0,0,1,455.984.469q-1.453,1.406-4.641,1.406A8.8,8.8,0,0,1,446.266.516a4.433,4.433,0,0,1-1.984-3.891,4.9,4.9,0,0,1,1.891-3.937,7.827,7.827,0,0,1,5.141-1.562,16.515,16.515,0,0,1,1.813.125.3.3,0,0,0,.219-.094.3.3,0,0,0,.094-.219Zm35.344-7.125a1.89,1.89,0,0,1,1.094-.344,3.319,3.319,0,0,1,.469.031,1.926,1.926,0,0,1,1.281.906,1.971,1.971,0,0,1,.313,1.063,2.587,2.587,0,0,1-.062.563,2.131,2.131,0,0,1-1,1.281q-.594.281-1.281.625-.094.062-1.719.859t-2.453,1.219q-.828.422-2.234,1.2T480.5-12.219a13.88,13.88,0,0,0-3.266,2.781,4.645,4.645,0,0,0-1.141,2.969q0,3.5,6.594,3.5a50.33,50.33,0,0,0,8.125-.719,2.1,2.1,0,0,1,.344-.031,1.945,1.945,0,0,1,1.219.438,1.776,1.776,0,0,1,.656,1.406,2.692,2.692,0,0,1-.656,1.781,2.549,2.549,0,0,1-1.656.875,67.238,67.238,0,0,1-7.906.438q-11.062,0-11.062-7.187a7.835,7.835,0,0,1,1.3-4.406,15.581,15.581,0,0,1,3.7-3.781.3.3,0,0,0,.094-.437q-1.531-2.906-3.437-7.187a2.138,2.138,0,0,1-.187-.844,2.249,2.249,0,0,1,.156-.812,2.1,2.1,0,0,1,1.156-1.156,2.249,2.249,0,0,1,.813-.156,2.138,2.138,0,0,1,.844.188,2.1,2.1,0,0,1,1.156,1.156q1.25,3.094,3.031,6.5a.253.253,0,0,0,.406.125q1.5-.875,3.953-2.187t2.641-1.406Q488.219-20.875,488.531-21.062Zm19.188,2.219a2.088,2.088,0,0,1-1.516-.687,2.218,2.218,0,0,1-.609-1.562,1.813,1.813,0,0,1,.625-1.406,1.961,1.961,0,0,1,1.344-.531h.156q2.875.219,6.531.219,3.438,0,7.063-.281h.156a1.851,1.851,0,0,1,1.313.531,1.809,1.809,0,0,1,.656,1.438,2.15,2.15,0,0,1-.625,1.531,2.23,2.23,0,0,1-1.5.719q-4.188.25-7.031.25Q511.094-18.625,507.719-18.844Zm-4,10.75a2.163,2.163,0,0,1,.875-1.406,2.24,2.24,0,0,1,1.375-.469,1.027,1.027,0,0,1,.25.031,1.659,1.659,0,0,1,1.281.719,1.964,1.964,0,0,1,.375,1.156,2.1,2.1,0,0,1-.031.344,7.832,7.832,0,0,0-.094,1.156,2.872,2.872,0,0,0,1.609,2.547,9.84,9.84,0,0,0,4.891.953,47.61,47.61,0,0,0,8.969-.781,2.277,2.277,0,0,1,.375-.031,1.738,1.738,0,0,1,1.125.406,1.69,1.69,0,0,1,.688,1.406,2.608,2.608,0,0,1-.625,1.719,2.412,2.412,0,0,1-1.562.906,53.161,53.161,0,0,1-8.812.656q-5.406,0-8.156-1.75a5.616,5.616,0,0,1-2.75-5.031A15.4,15.4,0,0,1,503.719-8.094Zm36.406-12.125h-.219a1.987,1.987,0,0,1-1.25-.437A1.9,1.9,0,0,1,538-22.125a1.7,1.7,0,0,1,.563-1.281,1.928,1.928,0,0,1,1.375-.531h.438q6.406,0,10.094-.219l.563-.062a2.277,2.277,0,0,1,.375-.031,3.164,3.164,0,0,1,1.156.219,2.655,2.655,0,0,1,1.219.906,1.54,1.54,0,0,1,.313.906,2.106,2.106,0,0,1-.031.344,1.516,1.516,0,0,1-.719,1.031q-.094.062-.25.156-4.531,3.281-7.031,5.406a.071.071,0,0,0-.016.078.072.072,0,0,0,.078.047,11,11,0,0,1,2.906-.375,10.3,10.3,0,0,1,6.766,2.172,6.8,6.8,0,0,1,2.641,5.484A8.289,8.289,0,0,1,554.813-.75q-3.375,2.406-9.875,2.406h-.969a2.8,2.8,0,0,1-1.719-.641,2.911,2.911,0,0,1-1-1.547,1.484,1.484,0,0,1-.062-.406,1.368,1.368,0,0,1,.344-.906,1.482,1.482,0,0,1,1.156-.531h.125q1.125.094,2.125.094a14.068,14.068,0,0,0,6.188-1.156,4.724,4.724,0,0,0,2.969-4.437,3.637,3.637,0,0,0-1.625-3.062,7.147,7.147,0,0,0-4.312-1.187,12.024,12.024,0,0,0-3.156.406,10.365,10.365,0,0,0-2.781,1.2,19.518,19.518,0,0,0-2.281,1.641q-1,.844-2.125,2a1.9,1.9,0,0,1-1.469.656h-.031a1.91,1.91,0,0,1-1.437-.625,2.086,2.086,0,0,1-.562-1.437A2.024,2.024,0,0,1,535-9.844q2.063-1.844,6.547-5.7t5.578-4.859a.1.1,0,0,0,.031-.125.1.1,0,0,0-.094-.062q-1.031.031-3.5.172t-2.969.172A3.791,3.791,0,0,0,540.125-20.219Zm40.406,10.156q-.813,1.844-2.156,1.844h-.187a2.082,2.082,0,0,1-1.531-.625,1.344,1.344,0,0,1-.437-.969,1.585,1.585,0,0,1,.063-.437,5.528,5.528,0,0,1,1.031-1.8,9.762,9.762,0,0,1,1.531-1.484q.813-.625,1.594-1.234a6.705,6.705,0,0,0,1.3-1.312,2.389,2.389,0,0,0,.516-1.422,2.577,2.577,0,0,0-1.078-2.219,4.944,4.944,0,0,0-2.953-.781,6.23,6.23,0,0,0-3.812,1.281,2.376,2.376,0,0,1-1.344.5H573a1.789,1.789,0,0,1-1.219-.469,1.787,1.787,0,0,1-.594-1.344,1.482,1.482,0,0,1,.531-1.156,10.375,10.375,0,0,1,7-2.625,9.459,9.459,0,0,1,5.828,1.656,5.585,5.585,0,0,1,2.2,4.75,4.147,4.147,0,0,1-.516,2.031,5.851,5.851,0,0,1-1.312,1.625q-.8.687-1.641,1.3a15.183,15.183,0,0,0-1.625,1.359A4.894,4.894,0,0,0,580.531-10.062ZM575.813-.594a3.04,3.04,0,0,1-.937-2.281,2.989,2.989,0,0,1,.938-2.266,3.331,3.331,0,0,1,2.391-.891,3.331,3.331,0,0,1,2.391.891,2.989,2.989,0,0,1,.938,2.266,2.989,2.989,0,0,1-.937,2.266A3.331,3.331,0,0,1,578.2.281,3.365,3.365,0,0,1,575.813-.594Z" transform="translate(-1.406 27.344)" fill="#231815"/>
</svg>
