<svg xmlns="http://www.w3.org/2000/svg" width="108.35" height="17.773" viewBox="0 0 108.35 17.773">
  <path id="パス_6905" data-name="パス 6905" d="M13.745-16.174V-11A4.724,4.724,0,0,0,10-12.83a4.722,4.722,0,0,0-1.776.336,4.037,4.037,0,0,0-1.428.952,4.413,4.413,0,0,0-.928,1.483A5.025,5.025,0,0,0,5.53-8.228a4.58,4.58,0,0,0,.58,2.295,4.18,4.18,0,0,0,1.6,1.605A4.546,4.546,0,0,0,10-3.748a4.994,4.994,0,0,0,3.748-1.758V-.378a23.071,23.071,0,0,1-2.228.665A7.416,7.416,0,0,1,9.924.452,9.044,9.044,0,0,1,5.4-.7,8.568,8.568,0,0,1,2.179-3.845,8.489,8.489,0,0,1,1-8.252a8.609,8.609,0,0,1,.677-3.394,8.81,8.81,0,0,1,1.9-2.82,8.693,8.693,0,0,1,2.832-1.892,8.8,8.8,0,0,1,3.418-.671A10.776,10.776,0,0,1,13.745-16.174Zm11.475-1a9.6,9.6,0,0,1,4.7,1.154,8.572,8.572,0,0,1,3.308,3.192A8.714,8.714,0,0,1,34.436-8.3a8.756,8.756,0,0,1-1.208,4.529,8.566,8.566,0,0,1-3.32,3.21A9.576,9.576,0,0,1,25.22.6a9.645,9.645,0,0,1-4.7-1.16,8.5,8.5,0,0,1-3.326-3.21,8.79,8.79,0,0,1-1.2-4.529,8.725,8.725,0,0,1,1.2-4.517,8.527,8.527,0,0,1,3.326-3.2A9.645,9.645,0,0,1,25.22-17.175Zm0,4.2a4.623,4.623,0,0,0-2.356.629,4.653,4.653,0,0,0-1.715,1.7A4.558,4.558,0,0,0,20.52-8.3a4.6,4.6,0,0,0,.366,1.807A4.71,4.71,0,0,0,21.9-4.98a4.71,4.71,0,0,0,1.514,1.013A4.6,4.6,0,0,0,25.22-3.6a4.623,4.623,0,0,0,2.356-.629,4.625,4.625,0,0,0,1.715-1.715A4.623,4.623,0,0,0,29.919-8.3a4.558,4.558,0,0,0-.629-2.344,4.653,4.653,0,0,0-1.715-1.7A4.623,4.623,0,0,0,25.22-12.976ZM37.183,0V-16.675h4.333L49.487-6.47V-16.675h4.321V0H49.487L41.516-10.205V0ZM69.531-16.174V-11a4.724,4.724,0,0,0-3.748-1.831,4.722,4.722,0,0,0-1.776.336,4.037,4.037,0,0,0-1.428.952,4.413,4.413,0,0,0-.928,1.483,5.025,5.025,0,0,0-.336,1.831,4.58,4.58,0,0,0,.58,2.295,4.18,4.18,0,0,0,1.6,1.605,4.546,4.546,0,0,0,2.289.58,4.994,4.994,0,0,0,3.748-1.758V-.378A23.072,23.072,0,0,1,67.3.287,7.416,7.416,0,0,1,65.71.452,9.044,9.044,0,0,1,61.188-.7a8.568,8.568,0,0,1-3.223-3.143,8.489,8.489,0,0,1-1.178-4.407,8.609,8.609,0,0,1,.677-3.394,8.81,8.81,0,0,1,1.9-2.82,8.693,8.693,0,0,1,2.832-1.892,8.8,8.8,0,0,1,3.418-.671A10.776,10.776,0,0,1,69.531-16.174ZM81.763-13H76.611v2.771h4.871v3.674H76.611v2.881h5.151V0H72.278V-16.675h9.485Zm7.068,7.446V0H84.5V-16.675h6.885a7.779,7.779,0,0,1,2.411.317,4.674,4.674,0,0,1,1.764,1.086,5.29,5.29,0,0,1,1.624,4.065,7.643,7.643,0,0,1-.354,2.441,4.486,4.486,0,0,1-1.093,1.782,4.531,4.531,0,0,1-1.77,1.08,7.639,7.639,0,0,1-2.435.348Zm0-3.467h1.416a2.686,2.686,0,0,0,1.825-.519,2.048,2.048,0,0,0,.58-1.605q0-2.051-2.38-2.051h-1.44ZM105.75-13V0h-4.321V-13H97.9v-3.674h11.45V-13Z" transform="translate(-1.001 17.175)" fill="#231815"/>
</svg>
