<svg xmlns="http://www.w3.org/2000/svg" width="87.645" height="16.523" viewBox="0 0 87.645 16.523">
  <path id="パス_6901" data-name="パス 6901" d="M86.258,4.5a.625.625,0,0,1,.457.193.635.635,0,0,1,.193.466.606.606,0,0,1-.193.457.64.64,0,0,1-.457.185H82.3a.661.661,0,0,1-.475-.185.606.606,0,0,1-.193-.457.635.635,0,0,1,.193-.466A.645.645,0,0,1,82.3,4.5Zm.668,2.373a.645.645,0,0,1,.475.193.635.635,0,0,1,.193.466A.664.664,0,0,1,87.4,8a.631.631,0,0,1-.475.2H81.389a.631.631,0,0,1-.475-.2.664.664,0,0,1-.193-.475.635.635,0,0,1,.193-.466.645.645,0,0,1,.475-.193ZM85.484,15.66a.155.155,0,0,0-.176-.176H83.146a.155.155,0,0,0-.176.176v2.25a.155.155,0,0,0,.176.176h2.162a.155.155,0,0,0,.176-.176Zm-.07-1.512a1.488,1.488,0,0,1,1.081.439,1.465,1.465,0,0,1,.448,1.09V17.91a1.53,1.53,0,0,1-1.529,1.529H83.041a.062.062,0,0,0-.07.07.69.69,0,0,1-.686.686H82.25a.72.72,0,0,1-.721-.721v-3.8a1.465,1.465,0,0,1,.448-1.09,1.488,1.488,0,0,1,1.081-.439Zm-3.2-1.125a.625.625,0,0,1-.457-.193.658.658,0,0,1,0-.932.625.625,0,0,1,.457-.193h4.1a.625.625,0,0,1,.457.193.658.658,0,0,1,0,.932.625.625,0,0,1-.457.193Zm0-2.408a.65.65,0,0,1,0-1.3h4.1a.617.617,0,0,1,.466.193.658.658,0,0,1,0,.914.617.617,0,0,1-.466.193Zm14.344,3.99a.715.715,0,0,1,.536.229.759.759,0,0,1,.22.545.75.75,0,0,1-.756.756H93.395a.155.155,0,0,0-.176.176v3.27a.785.785,0,0,1-.246.589.828.828,0,0,1-1.16,0,.785.785,0,0,1-.246-.589v-3.27a.155.155,0,0,0-.176-.176H88.156a.75.75,0,0,1-.756-.756.759.759,0,0,1,.22-.545.715.715,0,0,1,.536-.229h3.234a.155.155,0,0,0,.176-.176V12.549a.155.155,0,0,0-.176-.176H89.07a.756.756,0,1,1,0-1.512h2.32a.155.155,0,0,0,.176-.176V8.963a.155.155,0,0,0-.176-.176H88.736a.729.729,0,0,1-.536-.22.719.719,0,0,1-.22-.527A.749.749,0,0,1,88.2,7.5a.715.715,0,0,1,.536-.229h.932a.118.118,0,0,0,.105-.053.116.116,0,0,0,.018-.105,12.81,12.81,0,0,0-.809-2,.663.663,0,0,1-.026-.527.553.553,0,0,1,.36-.352.824.824,0,0,1,.58,0,.843.843,0,0,1,.457.369,13.808,13.808,0,0,1,.773,1.67,1.09,1.09,0,0,1,.035.264.773.773,0,0,1-.07.316.834.834,0,0,1-.422.4q-.018,0-.018.009t.018.009h3.445q.018,0,.018-.009V7.258a.65.65,0,0,1-.369-.9,16.256,16.256,0,0,0,.7-1.687.866.866,0,0,1,.439-.492.9.9,0,0,1,.4-.105.956.956,0,0,1,.264.035.683.683,0,0,1,.457.4.8.8,0,0,1,.053.281.773.773,0,0,1-.07.316q-.721,1.424-1.055,2.021a.075.075,0,0,0,0,.1.108.108,0,0,0,.088.044h1.248a.715.715,0,0,1,.536.229.749.749,0,0,1,.22.536.719.719,0,0,1-.22.527.729.729,0,0,1-.536.22h-2.9a.155.155,0,0,0-.176.176v1.723a.155.155,0,0,0,.176.176h2.5a.756.756,0,1,1,0,1.512h-2.5a.155.155,0,0,0-.176.176V14.43a.155.155,0,0,0,.176.176Zm5.713-8.666a1.006,1.006,0,0,1,.264-.686.882.882,0,0,1,.7-.334h.018a.952.952,0,0,1,.738.334,1.006,1.006,0,0,1,.264.686v.105q-.035.4-.07.914-.211,5.941-.211,8.561a2.345,2.345,0,0,0,.738,1.934,3.065,3.065,0,0,0,1.986.6,6.947,6.947,0,0,0,5.66-2.865.765.765,0,0,1,.615-.3.051.051,0,0,1,.035-.018.716.716,0,0,1,.58.281,1.212,1.212,0,0,1,.3.809v.018a1.142,1.142,0,0,1-.281.756,9.646,9.646,0,0,1-1.187,1.16,10.526,10.526,0,0,1-1.494,1.011,7.691,7.691,0,0,1-1.951.756,9.571,9.571,0,0,1-2.312.272,5.117,5.117,0,0,1-3.349-.993,3.814,3.814,0,0,1-1.2-3.12q0-1.371.1-4.737t.1-4.122Zm24.24-.668a1.089,1.089,0,0,1,.756-.369h.088a1.006,1.006,0,0,1,.686.264.85.85,0,0,1,.316.686.9.9,0,0,1-.352.738q-.334.281-.51.4-.6.51-2.443,2t-2.461,2q-.773.668-.773,1t.809,1.02q.176.141,1.151.949l1.591,1.318q.615.51,1.521,1.292t1.538,1.362a1.022,1.022,0,0,1,0,1.512,1.077,1.077,0,0,1-.738.281h-.053a1.116,1.116,0,0,1-.773-.334q-.475-.492-.615-.65-.949-1.02-5.5-4.869a3.616,3.616,0,0,1-1.09-1.3,1.369,1.369,0,0,1-.105-.51,1.4,1.4,0,0,1,.158-.633,5.032,5.032,0,0,1,1.178-1.283l1.547-1.274q1.248-1.028,2.162-1.811t1.441-1.327a1.465,1.465,0,0,0,.2-.193Q126.406,5.377,126.512,5.271ZM145,8.189a.155.155,0,0,0,.176-.176V6.959A.155.155,0,0,0,145,6.783H141.98a.666.666,0,0,1-.5-.211.7.7,0,0,1-.2-.5.67.67,0,0,1,.2-.492.68.68,0,0,1,.5-.2h3.041a.14.14,0,0,0,.158-.158v-.51a.826.826,0,1,1,1.652,0v.51a.14.14,0,0,0,.158.158h3.252a.689.689,0,0,1,.492.2.656.656,0,0,1,.211.492.684.684,0,0,1-.211.5.675.675,0,0,1-.492.211h-3.234a.155.155,0,0,0-.176.176V8.014a.155.155,0,0,0,.176.176h2.707a.68.68,0,0,1,.5.2.679.679,0,0,1,0,.967.68.68,0,0,1-.5.2h-7.172a.689.689,0,0,1-.492-.2.659.659,0,0,1,0-.967.689.689,0,0,1,.492-.2Zm-2.215,3.85a.155.155,0,0,0-.176.176v1a.724.724,0,0,1-.211.519.743.743,0,0,1-1.055,0,.724.724,0,0,1-.211-.519v-1a1.488,1.488,0,0,1,.439-1.081,1.465,1.465,0,0,1,1.09-.448H149.5a1.53,1.53,0,0,1,1.529,1.529v.967a.744.744,0,0,1-.229.545.754.754,0,0,1-.554.229.725.725,0,0,1-.545-.229.759.759,0,0,1-.22-.545v-.967a.155.155,0,0,0-.176-.176ZM139.66,4.5a.617.617,0,0,1,.466.193.65.65,0,0,1,.185.466.621.621,0,0,1-.185.457.631.631,0,0,1-.466.185h-3.393a.661.661,0,0,1-.475-.185.606.606,0,0,1-.193-.457.635.635,0,0,1,.193-.466.645.645,0,0,1,.475-.193Zm.545,2.373a.645.645,0,0,1,.475.193.635.635,0,0,1,.193.466A.664.664,0,0,1,140.68,8a.631.631,0,0,1-.475.2h-4.816a.631.631,0,0,1-.475-.2.664.664,0,0,1-.193-.475.635.635,0,0,1,.193-.466.645.645,0,0,1,.475-.193Zm-.475,2.443a.6.6,0,0,1,.448.193.658.658,0,0,1,0,.914.6.6,0,0,1-.448.193h-3.586a.65.65,0,0,1,0-1.3Zm-3.586,3.709a.625.625,0,0,1-.457-.193.658.658,0,0,1,0-.932.625.625,0,0,1,.457-.193h3.568a.617.617,0,0,1,.466.193.68.68,0,0,1,0,.932.617.617,0,0,1-.466.193Zm2.689,5.063a.155.155,0,0,0,.176-.176V15.66a.155.155,0,0,0-.176-.176h-1.811a.155.155,0,0,0-.176.176v2.25a.155.155,0,0,0,.176.176Zm.035-3.937a1.488,1.488,0,0,1,1.081.439,1.465,1.465,0,0,1,.448,1.09V18.93a.118.118,0,0,0,.053.105.116.116,0,0,0,.105.018,6.082,6.082,0,0,0,1.468-.844,3.318,3.318,0,0,0,.914-1.143,5.586,5.586,0,0,0,.466-1.406,15.206,15.206,0,0,0,.211-1.811.813.813,0,0,1,.255-.562.773.773,0,0,1,.554-.229.708.708,0,0,1,.545.229.7.7,0,0,1,.211.51,10.17,10.17,0,0,1-.668,3.709,4.918,4.918,0,0,1-1.916,2.3,1.56,1.56,0,0,1-.7.176,1.464,1.464,0,0,1-.387-.053,2.4,2.4,0,0,1-1-.633l-.105-.105v.018a.185.185,0,0,1-.062.132.2.2,0,0,1-.149.062h-3.27a.062.062,0,0,0-.07.07v.035a.686.686,0,0,1-1.371,0V15.678a1.465,1.465,0,0,1,.448-1.09,1.488,1.488,0,0,1,1.081-.439Zm9.844,4.623h.932q.229,0,.316-.3a6.455,6.455,0,0,0,.123-1.266.437.437,0,0,1,.237-.369.469.469,0,0,1,.448-.018,1.123,1.123,0,0,1,.492.4.89.89,0,0,1,.176.527,3.39,3.39,0,0,1-.475,1.969,1.336,1.336,0,0,1-1.16.51h-1.354a1.7,1.7,0,0,1-1.354-.413,2.636,2.636,0,0,1-.334-1.573V13.867a.764.764,0,0,1,.229-.562.785.785,0,0,1,1.107,0,.764.764,0,0,1,.229.563v4.359a1.006,1.006,0,0,0,.062.448Q148.449,18.771,148.713,18.771Zm6.521-5.045a1.524,1.524,0,0,0,.325,1.028,1.015,1.015,0,0,0,.8.378,1.042,1.042,0,0,0,.976-.642,3.453,3.453,0,0,0,.325-1.573A1.438,1.438,0,0,0,157.4,12a.833.833,0,0,0-.686-.334,1.27,1.27,0,0,0-1.046.58A2.411,2.411,0,0,0,155.234,13.727Zm9.967,1a.666.666,0,0,1,.264-.545.587.587,0,0,1,.4-.158.664.664,0,0,1,.211.035,1.3,1.3,0,0,1,.712.492,1.358,1.358,0,0,1,.272.826v.158q0,.4-.018.809a3.55,3.55,0,0,1-.606,1.986,3.494,3.494,0,0,1-1.854,1.09,12.9,12.9,0,0,1-1.714.246q-1.134.105-2.065.105a12.568,12.568,0,0,1-1.9-.123,4.815,4.815,0,0,1-1.23-.325,1.76,1.76,0,0,1-.686-.527,1.7,1.7,0,0,1-.316-.624,3.284,3.284,0,0,1-.07-.738,4.686,4.686,0,0,1,.018-.475.142.142,0,0,0-.053-.114.186.186,0,0,0-.123-.044,2.132,2.132,0,0,1-.264.018,2.348,2.348,0,0,1-1.723-.747,3.066,3.066,0,0,1-.738-2.241,3.851,3.851,0,0,1,.879-2.549,2.763,2.763,0,0,1,2.215-1.055h.123q.176.018.176-.158V8.928a.155.155,0,0,0-.176-.176h-.352q-1.02,0-2.021-.07a.934.934,0,0,1-.615-.3,1.03,1.03,0,0,1-.281-.615V7.715a.616.616,0,0,1,.229-.492.625.625,0,0,1,.457-.193h.088a17.6,17.6,0,0,0,2.039.123h.457a.174.174,0,0,0,.176-.193V6.572q0-.545-.018-.932V5.57a.91.91,0,0,1,.229-.615.783.783,0,0,1,.633-.3.834.834,0,0,1,.65.3.91.91,0,0,1,.229.615v.07q-.035.457-.035.932v.264a.142.142,0,0,0,.053.114.186.186,0,0,0,.123.044q1.2-.158,2.3-.387a.815.815,0,0,1,.158-.018.7.7,0,0,1,.422.141.635.635,0,0,1,.246.527,1.073,1.073,0,0,1-.229.668.953.953,0,0,1-.6.369q-1.16.211-2.3.316a.174.174,0,0,0-.176.193v2.18a.567.567,0,0,0,.105.316,2.857,2.857,0,0,1,.387,1.547,4.7,4.7,0,0,1-.826,2.883.468.468,0,0,0-.123.316q-.018.264-.018.756a1.442,1.442,0,0,0,.149.747,1.2,1.2,0,0,0,.721.387,7.39,7.39,0,0,0,1.731.149,10.092,10.092,0,0,0,2.9-.334,2.035,2.035,0,0,0,1.055-.659,1.93,1.93,0,0,0,.352-1.222Zm-.65-6.662a.716.716,0,0,1-.281-.58.724.724,0,0,1,.229-.527.972.972,0,0,1,.615-.281h.088a.934.934,0,0,1,.563.193,23.7,23.7,0,0,1,2.355,2.162.9.9,0,0,1,.246.633.933.933,0,0,1-.281.686.794.794,0,0,1-.58.246h-.035a.866.866,0,0,1-.615-.281A21.962,21.962,0,0,0,164.551,8.066Z" transform="translate(-80.721 -3.883)" fill="#fff"/>
</svg>
