<svg xmlns="http://www.w3.org/2000/svg" width="260.229" height="31.614" viewBox="0 0 260.229 31.614">
  <path id="パス_6925" data-name="パス 6925" d="M10.86-12.633a.285.285,0,0,0-.322.322v1.547a.309.309,0,0,0,.1.226.309.309,0,0,0,.226.1q2.868-.161,9.571-.516a1.138,1.138,0,0,0,.58-.226q.193-.161.451-.387a2.8,2.8,0,0,1,.29-.258.627.627,0,0,0,.226-.5q0-.306-.322-.306Zm11.118-9.249a.285.285,0,0,0-.322-.322H10.86a.285.285,0,0,0-.322.322v1.289a.285.285,0,0,0,.322.322h10.8a.285.285,0,0,0,.322-.322ZM21.656-15.5a.285.285,0,0,0,.322-.322v-1.321a.285.285,0,0,0-.322-.322H10.86a.285.285,0,0,0-.322.322v1.321a.285.285,0,0,0,.322.322Zm4.9-1.579a2.563,2.563,0,0,1,1.386-.967,2.233,2.233,0,0,1,.645-.1,2.555,2.555,0,0,1,1.031.226,1.738,1.738,0,0,1,.967,1.192,2,2,0,0,1,.064.483,1.778,1.778,0,0,1-.322,1,42.372,42.372,0,0,1-4.061,4.673.746.746,0,0,0-.226.548v7.38a7,7,0,0,1-.4,2.675A2.625,2.625,0,0,1,24.17,1.418a13.858,13.858,0,0,1-4.544.709h-.1a2.433,2.433,0,0,1-1.579-.58A3.4,3.4,0,0,1,16.887,0a1.381,1.381,0,0,1-.1-.483,1.368,1.368,0,0,1,.29-.838,1.271,1.271,0,0,1,1.128-.58h1.1q.935,0,1.772-.032.9,0,.9-.741v-3.9a.155.155,0,0,0-.1-.145.128.128,0,0,0-.161.016,54.685,54.685,0,0,1-15.662,7.9,2.32,2.32,0,0,1-.838.161,2.838,2.838,0,0,1-1-.193A3.244,3.244,0,0,1,2.707,0a1.41,1.41,0,0,1-.322-.87,1.214,1.214,0,0,1,.1-.483,1.373,1.373,0,0,1,.967-.967A53.688,53.688,0,0,0,14.824-6.993q.064-.032.048-.081a.074.074,0,0,0-.081-.048q-7.219.58-10.538.838H4.093a2.007,2.007,0,0,1-1.321-.483A2.076,2.076,0,0,1,2-8.121v-.258a1.75,1.75,0,0,1,.419-1.128,1.649,1.649,0,0,1,1.289-.645q1.192-.032,2.578-.1a.285.285,0,0,0,.322-.322V-22.752a2.7,2.7,0,0,1,.822-1.982,2.7,2.7,0,0,1,1.982-.822h3.706a.4.4,0,0,0,.419-.29q.129-.322.226-.612a3.089,3.089,0,0,1,1.225-1.579,3,3,0,0,1,1.611-.483h.29a1.6,1.6,0,0,1,1.289.838,1.657,1.657,0,0,1,.193.741,1.716,1.716,0,0,1-.193.773q-.064.1-.193.322a.161.161,0,0,0,0,.193.189.189,0,0,0,.161.1h5.092a2.7,2.7,0,0,1,1.982.822,2.7,2.7,0,0,1,.822,1.982v6.059a.076.076,0,0,0,.064.081.182.182,0,0,0,.129-.016Zm32.774-8.572a1.828,1.828,0,0,1,1.337.564,1.846,1.846,0,0,1,.564,1.354,1.793,1.793,0,0,1-.564,1.337,1.854,1.854,0,0,1-1.337.548H39.671a1.854,1.854,0,0,1-1.337-.548,1.793,1.793,0,0,1-.564-1.337,1.846,1.846,0,0,1,.564-1.354,1.828,1.828,0,0,1,1.337-.564Zm-2.514,24.3H59.78a.987.987,0,0,0,.983-.693,11.532,11.532,0,0,0,.4-2.917,1.11,1.11,0,0,1,.612-.967,1.43,1.43,0,0,1,.645-.161,1.209,1.209,0,0,1,.548.129A2.947,2.947,0,0,1,64.292-4.9a2.247,2.247,0,0,1,.419,1.289v.29a9.065,9.065,0,0,1-1.37,4.431A3.9,3.9,0,0,1,60.135,2.32H56.171q-2.771,0-3.738-1.1T51.466-2.8v-9.765a.285.285,0,0,0-.322-.322H46.857a.319.319,0,0,0-.354.322q-.193,2-.467,3.561a21.507,21.507,0,0,1-.854,3.255,13.016,13.016,0,0,1-1.434,2.981A13.835,13.835,0,0,1,41.54-.242a15.419,15.419,0,0,1-3.158,2.208,2.51,2.51,0,0,1-.935.193,2.233,2.233,0,0,1-.645-.1A2.74,2.74,0,0,1,35.449,1.1a1.56,1.56,0,0,1-.322-.838A1.574,1.574,0,0,1,35.3-.6a1.3,1.3,0,0,1,.628-.6,12.485,12.485,0,0,0,2.578-1.756,9.962,9.962,0,0,0,1.74-1.982,10,10,0,0,0,1.08-2.336,15.759,15.759,0,0,0,.612-2.514q.177-1.176.306-2.788a.342.342,0,0,0-.081-.226.26.26,0,0,0-.209-.1H36.738a1.865,1.865,0,0,1-1.37-.564,1.846,1.846,0,0,1-.564-1.354,1.846,1.846,0,0,1,.564-1.354,1.865,1.865,0,0,1,1.37-.564H62.326a1.865,1.865,0,0,1,1.37.564,1.846,1.846,0,0,1,.564,1.354,1.846,1.846,0,0,1-.564,1.354,1.865,1.865,0,0,1-1.37.564H55.849a.285.285,0,0,0-.322.322V-2.8a1.918,1.918,0,0,0,.242,1.192A1.487,1.487,0,0,0,56.815-1.354ZM73.734-26.1A2.117,2.117,0,0,1,74.8-27.2a1.985,1.985,0,0,1,.838-.193,1.924,1.924,0,0,1,.612.1,1.769,1.769,0,0,1,1.063.935,1.657,1.657,0,0,1,.193.741,1.494,1.494,0,0,1-.161.677q-1.063,2.417-2.191,4.479a1.279,1.279,0,0,0-.129.58V.935a1.8,1.8,0,0,1-.548,1.321,1.867,1.867,0,0,1-2.643,0A1.8,1.8,0,0,1,71.285.935V-14.147q0-.064-.081-.1t-.113.032q-.419.548-.806,1a1.312,1.312,0,0,1-1.063.516,1.059,1.059,0,0,1-.258-.032,1.557,1.557,0,0,1-1.16-.838,3.054,3.054,0,0,1-.387-1.482,2.975,2.975,0,0,1,.032-.419,3.367,3.367,0,0,1,.773-1.74A34.6,34.6,0,0,0,73.734-26.1Zm9.056,3.029a.285.285,0,0,0-.322.322v3.771a.285.285,0,0,0,.322.322h9.023a.285.285,0,0,0,.322-.322v-3.771a.285.285,0,0,0-.322-.322ZM97.163-11.666a1.691,1.691,0,0,1,.516,1.241,1.745,1.745,0,0,1-.516,1.257,1.684,1.684,0,0,1-1.257.532H91.395a.158.158,0,0,0-.145.081.156.156,0,0,0,.016.177,24.788,24.788,0,0,0,5.64,5.769,1.834,1.834,0,0,1,.709,1.257v.193A1.756,1.756,0,0,1,97.163.032a2.477,2.477,0,0,1-1.45.773,1.059,1.059,0,0,1-.258.032A1.878,1.878,0,0,1,94.23.387a29,29,0,0,1-4.9-5.769.064.064,0,0,0-.1-.032.1.1,0,0,0-.064.1V.9a1.891,1.891,0,0,1-.58,1.386,1.984,1.984,0,0,1-2.8,0A1.891,1.891,0,0,1,85.207.9V-5.156a.1.1,0,0,0-.064-.1.105.105,0,0,0-.129.032A26.437,26.437,0,0,1,79.761.419,1.978,1.978,0,0,1,78.6.806a1.811,1.811,0,0,1-.354-.032,2.278,2.278,0,0,1-1.418-.806,1.669,1.669,0,0,1-.419-1.128v-.226a1.592,1.592,0,0,1,.741-1.192,23.287,23.287,0,0,0,5.994-5.8.156.156,0,0,0,.016-.177.158.158,0,0,0-.145-.081H78.343a1.684,1.684,0,0,1-1.257-.532,1.745,1.745,0,0,1-.516-1.257,1.745,1.745,0,0,1,.516-1.257,1.684,1.684,0,0,1,1.257-.532h6.542a.285.285,0,0,0,.322-.322v-2.32a.285.285,0,0,0-.322-.322H81.533A2.7,2.7,0,0,1,79.551-16a2.7,2.7,0,0,1-.822-1.982v-5.7a2.7,2.7,0,0,1,.822-1.982,2.7,2.7,0,0,1,1.982-.822h11.73a2.7,2.7,0,0,1,1.982.822,2.7,2.7,0,0,1,.822,1.982v5.7A2.7,2.7,0,0,1,95.246-16a2.7,2.7,0,0,1-1.982.822H89.493a.285.285,0,0,0-.322.322v2.32a.285.285,0,0,0,.322.322h6.413A1.661,1.661,0,0,1,97.163-11.666Zm12.5-15.275a1.428,1.428,0,0,1,1.047.435,1.447,1.447,0,0,1,.435,1.063,1.447,1.447,0,0,1-.435,1.063,1.428,1.428,0,0,1-1.047.435h-6.349a1.428,1.428,0,0,1-1.047-.435,1.447,1.447,0,0,1-.435-1.063,1.447,1.447,0,0,1,.435-1.063,1.428,1.428,0,0,1,1.047-.435ZM108.023-5a.285.285,0,0,0-.322-.322h-2.546a.285.285,0,0,0-.322.322v3.126a.285.285,0,0,0,.322.322H107.7a.285.285,0,0,0,.322-.322Zm.548-3.416a2.7,2.7,0,0,1,1.982.822,2.7,2.7,0,0,1,.822,1.982v4.351a2.7,2.7,0,0,1-.822,1.982,2.7,2.7,0,0,1-1.982.822h-3.609a.114.114,0,0,0-.129.129,1.119,1.119,0,0,1-.338.822,1.119,1.119,0,0,1-.822.338h-.483a1.582,1.582,0,0,1-1.16-.483,1.582,1.582,0,0,1-.483-1.16v-6.8a2.7,2.7,0,0,1,.822-1.982,2.7,2.7,0,0,1,1.982-.822Zm-5.446-1.676a1.428,1.428,0,0,1-1.047-.435,1.447,1.447,0,0,1-.435-1.063,1.447,1.447,0,0,1,.435-1.063,1.428,1.428,0,0,1,1.047-.435h6.542a1.428,1.428,0,0,1,1.047.435,1.447,1.447,0,0,1,.435,1.063,1.447,1.447,0,0,1-.435,1.063,1.428,1.428,0,0,1-1.047.435Zm6.542-7.573a1.428,1.428,0,0,1,1.047.435,1.428,1.428,0,0,1,.435,1.047,1.375,1.375,0,0,1-.435,1.031,1.456,1.456,0,0,1-1.047.419h-6.574a1.418,1.418,0,0,1-1.015-.419,1.375,1.375,0,0,1-.435-1.031,1.428,1.428,0,0,1,.435-1.047,1.391,1.391,0,0,1,1.015-.435Zm-8.024-1.611a1.492,1.492,0,0,1-1.1-.451,1.492,1.492,0,0,1-.451-1.1,1.492,1.492,0,0,1,.451-1.1,1.492,1.492,0,0,1,1.1-.451h9.152a1.492,1.492,0,0,1,1.1.451,1.492,1.492,0,0,1,.451,1.1,1.492,1.492,0,0,1-.451,1.1,1.492,1.492,0,0,1-1.1.451ZM124.491-2.256a.285.285,0,0,0,.322.322h4.318a1.774,1.774,0,0,1,1.305.532,1.755,1.755,0,0,1,.532,1.289,1.755,1.755,0,0,1-.532,1.289,1.774,1.774,0,0,1-1.305.532H114.275a1.774,1.774,0,0,1-1.305-.532,1.774,1.774,0,0,1-.532-1.305,1.722,1.722,0,0,1,.532-1.289,1.764,1.764,0,0,1,1.273-.516q.193,0,.193-.226v-13.6a1.748,1.748,0,0,1,.548-1.305,1.809,1.809,0,0,1,1.305-.532,1.755,1.755,0,0,1,1.289.532,1.774,1.774,0,0,1,.532,1.305v13.5a.285.285,0,0,0,.322.322H120.3a.285.285,0,0,0,.322-.322V-22.2a.285.285,0,0,0-.322-.322H115.21a1.8,1.8,0,0,1-1.321-.548,1.8,1.8,0,0,1-.548-1.321,1.8,1.8,0,0,1,.548-1.321,1.8,1.8,0,0,1,1.321-.548h13.277a1.8,1.8,0,0,1,1.321.548,1.8,1.8,0,0,1,.548,1.321,1.8,1.8,0,0,1-.548,1.321,1.8,1.8,0,0,1-1.321.548h-3.674a.285.285,0,0,0-.322.322v7.122a.285.285,0,0,0,.322.322h3.513a1.8,1.8,0,0,1,1.321.548,1.782,1.782,0,0,1,.548,1.305,1.782,1.782,0,0,1-.548,1.305,1.8,1.8,0,0,1-1.321.548h-3.513a.285.285,0,0,0-.322.322ZM154.2-12.5a.161.161,0,0,0,0-.193.189.189,0,0,0-.161-.1h-10.7a.189.189,0,0,0-.161.1.161.161,0,0,0,0,.193A17.472,17.472,0,0,0,148.307-6.9a.392.392,0,0,0,.516,0A17.373,17.373,0,0,0,154.2-12.5Zm2.449-4.157a1.64,1.64,0,0,1,.322-.032,1.847,1.847,0,0,1,.838.193l.806.483a1.689,1.689,0,0,1,.838.967,1.825,1.825,0,0,1,.1.58,1.805,1.805,0,0,1-.129.677,23.358,23.358,0,0,1-6.9,8.991.17.17,0,0,0-.081.177.163.163,0,0,0,.113.145,35.517,35.517,0,0,0,9.12,2.546,1.221,1.221,0,0,1,1.031.806,1.735,1.735,0,0,1,.1.548,1.523,1.523,0,0,1-.226.773,4,4,0,0,1-1.515,1.354,2.923,2.923,0,0,1-1.321.322A2.252,2.252,0,0,1,159.2,1.8,32.983,32.983,0,0,1,148.629-1.9a.562.562,0,0,0-.58,0,42.754,42.754,0,0,1-10.731,3.609,2.53,2.53,0,0,1-.548.064,2.426,2.426,0,0,1-1.192-.322A3.26,3.26,0,0,1,134.256.129a1.312,1.312,0,0,1-.226-.709,1.65,1.65,0,0,1,.129-.612A1.362,1.362,0,0,1,135.19-2a41.468,41.468,0,0,0,9.249-2.546.163.163,0,0,0,.113-.145.24.24,0,0,0-.081-.209A23.054,23.054,0,0,1,140.6-9.442a2.051,2.051,0,0,1-.354-1.128,2.433,2.433,0,0,1,.129-.773A2.222,2.222,0,0,1,141.8-12.7v-.048q0-.048-.032-.048H137.93a1.865,1.865,0,0,1-1.37-.564,1.865,1.865,0,0,1-.564-1.37,1.865,1.865,0,0,1,.564-1.37,1.865,1.865,0,0,1,1.37-.564h8.089a.285.285,0,0,0,.322-.322v-3.158a.285.285,0,0,0-.322-.322h-9.7a1.9,1.9,0,0,1-1.4-.564,1.884,1.884,0,0,1-.564-1.386,1.884,1.884,0,0,1,.564-1.386,1.9,1.9,0,0,1,1.4-.564h9.7a.285.285,0,0,0,.322-.322v-1.934a1.955,1.955,0,0,1,.6-1.434,1.955,1.955,0,0,1,1.434-.6,1.955,1.955,0,0,1,1.434.6,1.955,1.955,0,0,1,.6,1.434v1.934a.285.285,0,0,0,.322.322h9.829a1.865,1.865,0,0,1,1.37.564,1.884,1.884,0,0,1,.564,1.386,1.884,1.884,0,0,1-.564,1.386,1.865,1.865,0,0,1-1.37.564h-9.829a.285.285,0,0,0-.322.322v3.158a.285.285,0,0,0,.322.322h5.93Zm17.789,4.093a2.975,2.975,0,0,1,.419-.032,1.638,1.638,0,0,1,.87.258,1.5,1.5,0,0,1,.677,1.1v.29a2.033,2.033,0,0,1-.322,1.1,1.919,1.919,0,0,1-1.128.87q-.677.193-1.257.354a.4.4,0,0,0-.322.419v6.929a6.517,6.517,0,0,1-.29,2.175,2.537,2.537,0,0,1-1.031,1.273,5.5,5.5,0,0,1-2.643.677h-.161A1.845,1.845,0,0,1,168,2.353a2.52,2.52,0,0,1-.87-1.321,1.531,1.531,0,0,1-.064-.419,1.287,1.287,0,0,1,.258-.773,1.232,1.232,0,0,1,1.063-.548,7.6,7.6,0,0,0,.838-.032.631.631,0,0,0,.419-.113.568.568,0,0,0,.129-.435v-5.9a.26.26,0,0,0-.1-.209.194.194,0,0,0-.193-.048l-1.128.354a2.119,2.119,0,0,1-.516.064,1.638,1.638,0,0,1-.87-.258,1.675,1.675,0,0,1-.773-1.16,1.811,1.811,0,0,1-.032-.354,2.051,2.051,0,0,1,.354-1.128,2.147,2.147,0,0,1,1.257-.87q.806-.193,1.708-.451a.35.35,0,0,0,.29-.387v-6.123a.285.285,0,0,0-.322-.322h-1.321a1.737,1.737,0,0,1-1.273-.532,1.755,1.755,0,0,1-.532-1.289,1.755,1.755,0,0,1,.532-1.289,1.737,1.737,0,0,1,1.273-.532h1.321a.285.285,0,0,0,.322-.322V-26.1a1.722,1.722,0,0,1,.532-1.289,1.764,1.764,0,0,1,1.273-.516,1.764,1.764,0,0,1,1.273.516,1.722,1.722,0,0,1,.532,1.289v4.093q0,.29.322.29h.838a1.737,1.737,0,0,1,1.273.532,1.755,1.755,0,0,1,.532,1.289,1.755,1.755,0,0,1-.532,1.289,1.737,1.737,0,0,1-1.273.532H173.7q-.322,0-.322.29v5.221a.23.23,0,0,0,.1.177.194.194,0,0,0,.193.048Zm15.791,5.833a.161.161,0,0,0,0-.193.217.217,0,0,0-.193-.1h-5.092a.155.155,0,0,0-.145.1.128.128,0,0,0,.016.161,11.841,11.841,0,0,0,2.836,2.836.369.369,0,0,0,.516-.032A10.34,10.34,0,0,0,190.233-6.735Zm1.257-3.126a6.049,6.049,0,0,1,2.191.322,1.259,1.259,0,0,1,.661.628,1.108,1.108,0,0,1,.048.886,15.876,15.876,0,0,1-3.223,5.7.2.2,0,0,0-.064.209.2.2,0,0,0,.129.145,23.375,23.375,0,0,0,4.093,1.289,1.169,1.169,0,0,1,.838.773,1.317,1.317,0,0,1,.064.419,1.312,1.312,0,0,1-.226.709,3.334,3.334,0,0,1-1.354,1.1,2.428,2.428,0,0,1-.967.193,2.233,2.233,0,0,1-.645-.1A23.968,23.968,0,0,1,188.3.516a.562.562,0,0,0-.58,0,20.589,20.589,0,0,1-4.222,1.9,1.805,1.805,0,0,1-.677.129,2.241,2.241,0,0,1-.806-.161,3,3,0,0,1-1.225-.967,1.162,1.162,0,0,1-.226-.677,1.217,1.217,0,0,1,.064-.387,1.078,1.078,0,0,1,.773-.741,19.771,19.771,0,0,0,3.352-1.257.163.163,0,0,0,.113-.145A.24.24,0,0,0,184.787-2a14.531,14.531,0,0,1-2.062-2.191.17.17,0,0,0-.177-.081.247.247,0,0,0-.177.113,17.389,17.389,0,0,1-4.415,5.833,1.664,1.664,0,0,1-1.063.387,1.64,1.64,0,0,1-.322-.032,2.463,2.463,0,0,1-1.289-.741,1.6,1.6,0,0,1-.451-1.128,1.65,1.65,0,0,1,.612-1.321q3.932-3.255,5.188-9.668a.342.342,0,0,0-.081-.226.26.26,0,0,0-.209-.1h-2.03a1.5,1.5,0,0,1-1.128-.467,1.565,1.565,0,0,1-.451-1.128,1.511,1.511,0,0,1,.451-1.112,1.53,1.53,0,0,1,1.128-.451h2.481a.285.285,0,0,0,.322-.322,7.883,7.883,0,0,1,.1-.935.342.342,0,0,0-.081-.226.26.26,0,0,0-.209-.1h-2.03a1.52,1.52,0,0,1-1.1-.435,1.439,1.439,0,0,1-.451-1.08,1.492,1.492,0,0,1,.451-1.1,1.492,1.492,0,0,1,1.1-.451h.29q.226,0,.161-.193-.226-.838-.612-1.934a1.381,1.381,0,0,1-.1-.483,1.43,1.43,0,0,1,.161-.645,1.364,1.364,0,0,1,.87-.709,2,2,0,0,1,.483-.064,1.771,1.771,0,0,1,.741.161,1.58,1.58,0,0,1,.838.87q.193.419.322.773a1.491,1.491,0,0,1,.129.612,1.7,1.7,0,0,1-.161.709,1.69,1.69,0,0,1-1.031.838v.032a.028.028,0,0,0,.032.032h3.255a.309.309,0,0,0,.226-.1.224.224,0,0,0,.064-.226,22.824,22.824,0,0,0-.354-2.32,1.494,1.494,0,0,1-.032-.29,1.481,1.481,0,0,1,.258-.838,1.367,1.367,0,0,1,.967-.645,1.64,1.64,0,0,1,.322-.032,1.555,1.555,0,0,1,.9.29,1.613,1.613,0,0,1,.709,1q.064.226.113.467a2.381,2.381,0,0,1,.048.467,2.033,2.033,0,0,1-.322,1.1,2.124,2.124,0,0,1-1.321.9l-.773.161a.028.028,0,0,0-.032.032.028.028,0,0,0,.032.032h3.48a.533.533,0,0,0,.483-.258,33.107,33.107,0,0,0,2.32-4.737.23.23,0,0,0-.032-.209.173.173,0,0,0-.193-.048q-5.479.677-12.053.838h-.032a1.707,1.707,0,0,1-1.1-.387,2.217,2.217,0,0,1-.677-1.063,1.129,1.129,0,0,1-.064-.354,1.244,1.244,0,0,1,.193-.645,1.1,1.1,0,0,1,.87-.483,113.909,113.909,0,0,0,13.277-1.192,4.153,4.153,0,0,1,.516-.032,3.274,3.274,0,0,1,1.1.193,3.2,3.2,0,0,1,1.289.967,1.162,1.162,0,0,1,.226.677,1.531,1.531,0,0,1-.064.419,1.089,1.089,0,0,1-.87.677l-1.966.29a.057.057,0,0,0-.064.064.057.057,0,0,0,.064.064l.612.193a2.036,2.036,0,0,1,1.418,1.289,2.433,2.433,0,0,1,.129.773,2.145,2.145,0,0,1-.322,1.1q-.548.87-1.063,1.611a.2.2,0,0,0,.016.177.158.158,0,0,0,.145.081H194a1.455,1.455,0,0,1,1.063.451,1.492,1.492,0,0,1,.451,1.1,1.439,1.439,0,0,1-.451,1.08,1.482,1.482,0,0,1-1.063.435h-8.7q-.322,0-.354.354-.032.516-.064.9a.242.242,0,0,0,.048.226.26.26,0,0,0,.209.1h9.765a1.546,1.546,0,0,1,1.112.451,1.485,1.485,0,0,1,.467,1.112,1.537,1.537,0,0,1-.467,1.128,1.518,1.518,0,0,1-1.112.467H184.755a.359.359,0,0,0-.387.322,2.061,2.061,0,0,0-.064.322,2.061,2.061,0,0,1-.064.322.242.242,0,0,0,.048.226.26.26,0,0,0,.209.1Zm30.519,5.124a.285.285,0,0,0,.322-.322v-.935a.285.285,0,0,0-.322-.322h-5.317a.285.285,0,0,0-.322.322v.935a.285.285,0,0,0,.322.322Zm-5.317-5.994a.285.285,0,0,0-.322.322v.773a.285.285,0,0,0,.322.322h5.317a.285.285,0,0,0,.322-.322v-.773a.285.285,0,0,0-.322-.322Zm-9.475-6.9a.285.285,0,0,0,.322.322h4.512a.285.285,0,0,0,.322-.322v-.935a.285.285,0,0,0-.322-.322h-4.512a.285.285,0,0,0-.322.322Zm14.5-.935a.285.285,0,0,0-.322-.322h-4.705a.285.285,0,0,0-.322.322v.935a.285.285,0,0,0,.322.322H221.4a.285.285,0,0,0,.322-.322Zm6.51,9.249a1.439,1.439,0,0,1,1.08.451,1.482,1.482,0,0,1,.435,1.063,1.428,1.428,0,0,1-.435,1.047,1.466,1.466,0,0,1-1.08.435h-1.579a.285.285,0,0,0-.322.322v3.448a1.919,1.919,0,0,1-.6,1.4,1.919,1.919,0,0,1-1.4.6h-.806a1.146,1.146,0,0,1-.838-.354,1.183,1.183,0,0,1-.354-.87q0-.129-.161-.129h-5.479a.285.285,0,0,0-.322.322V-.9a4.771,4.771,0,0,1-.387,2.175,2.646,2.646,0,0,1-1.354,1.144,13.545,13.545,0,0,1-4.157.548h-.032a2.049,2.049,0,0,1-1.289-.451,2.774,2.774,0,0,1-.9-1.128,1.137,1.137,0,0,1-.1-.451.9.9,0,0,1,.193-.548.923.923,0,0,1,.838-.483q1.063.032,2.385.032a.983.983,0,0,0,.628-.209.879.879,0,0,0,.177-.628v-.677a.285.285,0,0,0-.322-.322h-8.282a1.364,1.364,0,0,1-1-.419,1.383,1.383,0,0,1-.419-1.015,1.33,1.33,0,0,1,.419-1,1.391,1.391,0,0,1,1-.4h8.282a.285.285,0,0,0,.322-.322v-.935a.285.285,0,0,0-.322-.322H200.836a1.466,1.466,0,0,1-1.08-.435,1.428,1.428,0,0,1-.435-1.047,1.482,1.482,0,0,1,.435-1.063,1.439,1.439,0,0,1,1.08-.451h11.215a.285.285,0,0,0,.322-.322v-.773a.285.285,0,0,0-.322-.322H203.93a1.273,1.273,0,0,1-.935-.387,1.273,1.273,0,0,1-.387-.935,1.273,1.273,0,0,1,.387-.935,1.273,1.273,0,0,1,.935-.387h8.121a.285.285,0,0,0,.322-.322V-14.5a.285.285,0,0,0-.322-.322h-5.8a2.7,2.7,0,0,1-1.982-.822,2.7,2.7,0,0,1-.822-1.982v-.935a2.7,2.7,0,0,1,.822-1.982,2.7,2.7,0,0,1,1.982-.822h5.8a.285.285,0,0,0,.322-.322V-22.4a.285.285,0,0,0-.322-.322H201.642a1.492,1.492,0,0,1-1.1-.451,1.492,1.492,0,0,1-.451-1.1,1.492,1.492,0,0,1,.451-1.1,1.492,1.492,0,0,1,1.1-.451H212.18q.193,0,.193-.226a1.828,1.828,0,0,1,.564-1.337,1.865,1.865,0,0,1,1.37-.564h.161a1.828,1.828,0,0,1,1.337.564,1.828,1.828,0,0,1,.564,1.337.2.2,0,0,0,.226.226h10.828a1.546,1.546,0,0,1,1.112.451,1.466,1.466,0,0,1,.467,1.1,1.466,1.466,0,0,1-.467,1.1,1.546,1.546,0,0,1-1.112.451H216.691a.285.285,0,0,0-.322.322v.709a.285.285,0,0,0,.322.322h6.252a2.7,2.7,0,0,1,1.982.822,2.7,2.7,0,0,1,.822,1.982v.935a2.7,2.7,0,0,1-.822,1.982,2.7,2.7,0,0,1-1.982.822h-6.252a.285.285,0,0,0-.322.322v.806a.285.285,0,0,0,.322.322h6.832a2.7,2.7,0,0,1,1.982.822,2.7,2.7,0,0,1,.822,1.982v.935a.285.285,0,0,0,.322.322Zm23.2-9.765a.161.161,0,0,0,0-.193.217.217,0,0,0-.193-.1h-7.283a.158.158,0,0,0-.145.081.2.2,0,0,0-.016.177,16.321,16.321,0,0,1,.838,1.8.408.408,0,0,1-.032.354.523.523,0,0,1-.322.226h5.8a.456.456,0,0,0,.451-.29A21.793,21.793,0,0,0,251.432-19.078ZM261.744-7.412a1.564,1.564,0,0,1,.483,1.144,1.564,1.564,0,0,1-.483,1.144,1.546,1.546,0,0,1-1.128.483h-7.638a.1.1,0,0,0-.1.064.064.064,0,0,0,.032.1,27.99,27.99,0,0,0,8.024,3,1.273,1.273,0,0,1,.935.87,1.137,1.137,0,0,1,.1.451,1.325,1.325,0,0,1-.29.806,3.176,3.176,0,0,1-1.515,1.192,2.666,2.666,0,0,1-1,.193,2.32,2.32,0,0,1-.838-.161,27.439,27.439,0,0,1-8.7-4.737.128.128,0,0,0-.161-.016.155.155,0,0,0-.1.145V.935a1.865,1.865,0,0,1-.564,1.37,1.906,1.906,0,0,1-2.707,0,1.865,1.865,0,0,1-.564-1.37v-3.48a.155.155,0,0,0-.1-.145.128.128,0,0,0-.161.016,30.145,30.145,0,0,1-8.83,4.576,2.531,2.531,0,0,1-.806.129,2.275,2.275,0,0,1-.9-.193A3.038,3.038,0,0,1,233.32.773,1.2,1.2,0,0,1,233.03,0a1.317,1.317,0,0,1,.064-.419,1.184,1.184,0,0,1,.87-.838,33.6,33.6,0,0,0,8.153-3.223.064.064,0,0,0,.032-.1.1.1,0,0,0-.1-.064h-7.509a1.582,1.582,0,0,1-1.16-.483,1.564,1.564,0,0,1-.483-1.144,1.564,1.564,0,0,1,.483-1.144,1.582,1.582,0,0,1,1.16-.483h10.667a.285.285,0,0,0,.322-.322v-.806a.285.285,0,0,0-.322-.322h-7.767a1.349,1.349,0,0,1-1.015-.419,1.391,1.391,0,0,1-.4-1,1.391,1.391,0,0,1,.4-1,1.349,1.349,0,0,1,1.015-.419h7.767a.285.285,0,0,0,.322-.322v-.838a.285.285,0,0,0-.322-.322H235.9a1.492,1.492,0,0,1-1.1-.451,1.473,1.473,0,0,1-.451-1.08,1.473,1.473,0,0,1,.451-1.08,1.492,1.492,0,0,1,1.1-.451h4.447a.189.189,0,0,0,.161-.1.213.213,0,0,0,.032-.193,14.609,14.609,0,0,0-.838-1.966.277.277,0,0,1-.016-.242.245.245,0,0,1,.177-.145h-5.253a1.572,1.572,0,0,1-1.128-.467A1.512,1.512,0,0,1,233-20.963a1.512,1.512,0,0,1,.483-1.128,1.572,1.572,0,0,1,1.128-.467h2.514a.189.189,0,0,0,.161-.1.271.271,0,0,0,.032-.226q-.387-.935-1.063-2.224a1.469,1.469,0,0,1-.193-.709,1.209,1.209,0,0,1,.129-.548,1.352,1.352,0,0,1,.87-.87,2.387,2.387,0,0,1,.757-.129,2.387,2.387,0,0,1,.757.129,2.024,2.024,0,0,1,1.128.935q.548.9.935,1.708a1.242,1.242,0,0,1,.161.612,1.352,1.352,0,0,1-.129.548,1.466,1.466,0,0,1-.87.806v.032a.028.028,0,0,0,.032.032h2.481a.285.285,0,0,0,.322-.322V-26.1a1.748,1.748,0,0,1,.548-1.305,1.809,1.809,0,0,1,1.305-.532,1.755,1.755,0,0,1,1.289.532,1.774,1.774,0,0,1,.532,1.305v3.223a.285.285,0,0,0,.322.322h1.8a.285.285,0,0,0,.322-.322V-26.1a1.748,1.748,0,0,1,.548-1.305,1.809,1.809,0,0,1,1.305-.532,1.809,1.809,0,0,1,1.305.532,1.748,1.748,0,0,1,.548,1.305v3.223a.285.285,0,0,0,.322.322h2.481v-.064a.782.782,0,0,1-.58-.5.924.924,0,0,1,.032-.79q.419-.838.838-1.8a2.449,2.449,0,0,1,1.128-1.289,2.324,2.324,0,0,1,1.1-.29,2.252,2.252,0,0,1,.548.064,1.557,1.557,0,0,1,1.1.9,2.132,2.132,0,0,1,.1.612,1.577,1.577,0,0,1-.226.806q-.773,1.289-1.289,2.063a.181.181,0,0,0-.016.193.18.18,0,0,0,.177.1h2.353a1.556,1.556,0,0,1,1.144.467,1.537,1.537,0,0,1,.467,1.128,1.537,1.537,0,0,1-.467,1.128,1.556,1.556,0,0,1-1.144.467h-4.286a.521.521,0,0,0-.483.29q-.58,1.063-1.225,2.063a.244.244,0,0,0,.016.193.155.155,0,0,0,.145.1h4.608a1.492,1.492,0,0,1,1.1.451,1.473,1.473,0,0,1,.451,1.08,1.473,1.473,0,0,1-.451,1.08,1.492,1.492,0,0,1-1.1.451h-9.6a.285.285,0,0,0-.322.322v.838a.285.285,0,0,0,.322.322h8.186a1.364,1.364,0,0,1,1,.419,1.364,1.364,0,0,1,.419,1,1.364,1.364,0,0,1-.419,1,1.364,1.364,0,0,1-1,.419h-8.186a.285.285,0,0,0-.322.322v.806a.285.285,0,0,0,.322.322h10.925A1.546,1.546,0,0,1,261.744-7.412Z" transform="translate(-1.998 28.649)" fill="#f2a935"/>
</svg>
