<svg xmlns="http://www.w3.org/2000/svg" width="245.992" height="22.034" viewBox="0 0 245.992 22.034">
  <path id="パス_6927" data-name="パス 6927" d="M7.569-8.8a.2.2,0,0,0-.225.225V-7.5a.215.215,0,0,0,.067.157.215.215,0,0,0,.157.067q2-.112,6.671-.359a.793.793,0,0,0,.4-.157q.135-.112.314-.27a1.949,1.949,0,0,1,.2-.18.437.437,0,0,0,.157-.348q0-.213-.225-.213Zm7.749-6.446a.2.2,0,0,0-.225-.225H7.569a.2.2,0,0,0-.225.225v.9a.2.2,0,0,0,.225.225h7.524a.2.2,0,0,0,.225-.225ZM15.094-10.8a.2.2,0,0,0,.225-.225v-.921a.2.2,0,0,0-.225-.225H7.569a.2.2,0,0,0-.225.225v.921a.2.2,0,0,0,.225.225Zm3.414-1.1a1.787,1.787,0,0,1,.966-.674,1.556,1.556,0,0,1,.449-.067,1.78,1.78,0,0,1,.719.157,1.212,1.212,0,0,1,.674.831,1.393,1.393,0,0,1,.045.337,1.239,1.239,0,0,1-.225.7,29.532,29.532,0,0,1-2.83,3.257.52.52,0,0,0-.157.382v5.144A4.875,4.875,0,0,1,17.868.022a1.83,1.83,0,0,1-1.022.966,9.659,9.659,0,0,1-3.167.494h-.067a1.7,1.7,0,0,1-1.1-.4A2.372,2.372,0,0,1,11.77,0,.962.962,0,0,1,11.7-.337a.954.954,0,0,1,.2-.584.886.886,0,0,1,.786-.4h.764q.651,0,1.235-.022.629,0,.629-.517V-4.582a.108.108,0,0,0-.067-.1.089.089,0,0,0-.112.011A38.114,38.114,0,0,1,4.223.831a1.617,1.617,0,0,1-.584.112,1.978,1.978,0,0,1-.7-.135A2.261,2.261,0,0,1,1.887,0a.983.983,0,0,1-.225-.606.846.846,0,0,1,.067-.337A.957.957,0,0,1,2.4-1.617a37.419,37.419,0,0,0,7.929-3.257q.045-.022.034-.056a.052.052,0,0,0-.056-.034q-5.031.4-7.345.584H2.853a1.4,1.4,0,0,1-.921-.337,1.447,1.447,0,0,1-.539-.943v-.18a1.22,1.22,0,0,1,.292-.786,1.149,1.149,0,0,1,.9-.449q.831-.022,1.8-.067A.2.2,0,0,0,4.6-7.367v-8.49a1.883,1.883,0,0,1,.573-1.381,1.883,1.883,0,0,1,1.381-.573H9.142a.279.279,0,0,0,.292-.2q.09-.225.157-.427a2.153,2.153,0,0,1,.854-1.1,2.089,2.089,0,0,1,1.123-.337h.2a1.116,1.116,0,0,1,.9.584,1.155,1.155,0,0,1,.135.517,1.2,1.2,0,0,1-.135.539q-.045.067-.135.225a.112.112,0,0,0,0,.135.132.132,0,0,0,.112.067h3.549a1.883,1.883,0,0,1,1.381.573,1.883,1.883,0,0,1,.573,1.381v4.223a.053.053,0,0,0,.045.056.127.127,0,0,0,.09-.011Zm22.843-5.975a1.274,1.274,0,0,1,.932.393,1.287,1.287,0,0,1,.393.943,1.25,1.25,0,0,1-.393.932,1.292,1.292,0,0,1-.932.382h-13.7a1.292,1.292,0,0,1-.932-.382,1.25,1.25,0,0,1-.393-.932,1.287,1.287,0,0,1,.393-.943,1.274,1.274,0,0,1,.932-.393ZM39.6-.943h2.066a.688.688,0,0,0,.685-.483,8.037,8.037,0,0,0,.281-2.033.774.774,0,0,1,.427-.674,1,1,0,0,1,.449-.112.842.842,0,0,1,.382.09,2.054,2.054,0,0,1,.921.741,1.566,1.566,0,0,1,.292.9v.2A6.318,6.318,0,0,1,44.147.775a2.719,2.719,0,0,1-2.235.842H39.149A3.424,3.424,0,0,1,36.544.854a4.342,4.342,0,0,1-.674-2.808V-8.76a.2.2,0,0,0-.225-.225H32.658a.222.222,0,0,0-.247.225q-.135,1.393-.326,2.482a14.99,14.99,0,0,1-.6,2.269,9.072,9.072,0,0,1-1,2.078A9.643,9.643,0,0,1,28.952-.168a10.747,10.747,0,0,1-2.2,1.539A1.75,1.75,0,0,1,26.1,1.5a1.556,1.556,0,0,1-.449-.067,1.91,1.91,0,0,1-.943-.674A1.087,1.087,0,0,1,24.482.18a1.1,1.1,0,0,1,.124-.6.909.909,0,0,1,.438-.416,8.7,8.7,0,0,0,1.8-1.224,6.943,6.943,0,0,0,1.213-1.381,6.968,6.968,0,0,0,.752-1.628,10.984,10.984,0,0,0,.427-1.752q.124-.82.213-1.943a.238.238,0,0,0-.056-.157.181.181,0,0,0-.146-.067H25.605a1.3,1.3,0,0,1-.955-.393,1.287,1.287,0,0,1-.393-.943,1.287,1.287,0,0,1,.393-.943,1.3,1.3,0,0,1,.955-.393H43.439a1.3,1.3,0,0,1,.955.393,1.287,1.287,0,0,1,.393.943,1.287,1.287,0,0,1-.393.943,1.3,1.3,0,0,1-.955.393H38.925a.2.2,0,0,0-.225.225v6.806a1.337,1.337,0,0,0,.168.831A1.036,1.036,0,0,0,39.6-.943Zm11.792-17.25a1.475,1.475,0,0,1,.741-.764,1.383,1.383,0,0,1,.584-.135,1.341,1.341,0,0,1,.427.067,1.233,1.233,0,0,1,.741.651,1.155,1.155,0,0,1,.135.517,1.041,1.041,0,0,1-.112.472q-.741,1.685-1.527,3.122a.892.892,0,0,0-.09.4V.651a1.255,1.255,0,0,1-.382.921,1.3,1.3,0,0,1-1.842,0,1.255,1.255,0,0,1-.382-.921V-9.86q0-.045-.056-.067t-.079.022q-.292.382-.562.7a.914.914,0,0,1-.741.359.738.738,0,0,1-.18-.022,1.085,1.085,0,0,1-.809-.584,2.129,2.129,0,0,1-.27-1.033,2.074,2.074,0,0,1,.022-.292,2.347,2.347,0,0,1,.539-1.213A24.118,24.118,0,0,0,51.391-18.193ZM57.7-16.082a.2.2,0,0,0-.225.225v2.628A.2.2,0,0,0,57.7-13h6.289a.2.2,0,0,0,.225-.225v-2.628a.2.2,0,0,0-.225-.225ZM67.72-8.131a1.179,1.179,0,0,1,.359.865,1.216,1.216,0,0,1-.359.876,1.174,1.174,0,0,1-.876.371H63.7a.11.11,0,0,0-.1.056.109.109,0,0,0,.011.124A17.276,17.276,0,0,0,67.54-1.819a1.278,1.278,0,0,1,.494.876v.135a1.224,1.224,0,0,1-.314.831,1.726,1.726,0,0,1-1.011.539.738.738,0,0,1-.18.022A1.309,1.309,0,0,1,65.676.27a20.216,20.216,0,0,1-3.414-4.021.044.044,0,0,0-.067-.022.072.072,0,0,0-.045.067V.629a1.318,1.318,0,0,1-.4.966,1.383,1.383,0,0,1-1.954,0,1.318,1.318,0,0,1-.4-.966V-3.594a.072.072,0,0,0-.045-.067.073.073,0,0,0-.09.022A18.426,18.426,0,0,1,55.591.292a1.379,1.379,0,0,1-.809.27,1.262,1.262,0,0,1-.247-.022,1.588,1.588,0,0,1-.988-.562,1.163,1.163,0,0,1-.292-.786V-.966a1.11,1.11,0,0,1,.517-.831A16.231,16.231,0,0,0,57.949-5.84a.109.109,0,0,0,.011-.124.11.11,0,0,0-.1-.056H54.6a1.174,1.174,0,0,1-.876-.371,1.216,1.216,0,0,1-.359-.876,1.216,1.216,0,0,1,.359-.876,1.174,1.174,0,0,1,.876-.371h4.56a.2.2,0,0,0,.225-.225v-1.617a.2.2,0,0,0-.225-.225H56.826a1.883,1.883,0,0,1-1.381-.573,1.883,1.883,0,0,1-.573-1.381v-3.976a1.883,1.883,0,0,1,.573-1.381,1.883,1.883,0,0,1,1.381-.573H65a1.883,1.883,0,0,1,1.381.573,1.883,1.883,0,0,1,.573,1.381v3.976a1.883,1.883,0,0,1-.573,1.381A1.883,1.883,0,0,1,65-10.579H62.374a.2.2,0,0,0-.225.225v1.617a.2.2,0,0,0,.225.225h4.47A1.157,1.157,0,0,1,67.72-8.131Zm8.715-10.646a1,1,0,0,1,.73.3,1.008,1.008,0,0,1,.3.741,1.008,1.008,0,0,1-.3.741,1,1,0,0,1-.73.3H72.01a1,1,0,0,1-.73-.3,1.008,1.008,0,0,1-.3-.741,1.008,1.008,0,0,1,.3-.741,1,1,0,0,1,.73-.3Zm-1.146,15.3a.2.2,0,0,0-.225-.225H73.29a.2.2,0,0,0-.225.225V-1.3a.2.2,0,0,0,.225.225h1.774a.2.2,0,0,0,.225-.225Zm.382-2.381a1.883,1.883,0,0,1,1.381.573,1.883,1.883,0,0,1,.573,1.381V-.876A1.883,1.883,0,0,1,77.052.505a1.883,1.883,0,0,1-1.381.573H73.155a.079.079,0,0,0-.09.09.78.78,0,0,1-.236.573.78.78,0,0,1-.573.236H71.92a1.1,1.1,0,0,1-.809-.337,1.1,1.1,0,0,1-.337-.809V-3.908a1.883,1.883,0,0,1,.573-1.381,1.883,1.883,0,0,1,1.381-.573Zm-3.8-1.168a1,1,0,0,1-.73-.3,1.008,1.008,0,0,1-.3-.741,1.008,1.008,0,0,1,.3-.741,1,1,0,0,1,.73-.3h4.56a1,1,0,0,1,.73.3,1.008,1.008,0,0,1,.3.741,1.008,1.008,0,0,1-.3.741,1,1,0,0,1-.73.3Zm4.56-5.278a1,1,0,0,1,.73.3,1,1,0,0,1,.3.73.959.959,0,0,1-.3.719,1.015,1.015,0,0,1-.73.292H71.853a.988.988,0,0,1-.708-.292.959.959,0,0,1-.3-.719,1,1,0,0,1,.3-.73.97.97,0,0,1,.708-.3Zm-5.593-1.123a1.04,1.04,0,0,1-.764-.314,1.04,1.04,0,0,1-.314-.764,1.04,1.04,0,0,1,.314-.764,1.04,1.04,0,0,1,.764-.314h6.379a1.04,1.04,0,0,1,.764.314,1.04,1.04,0,0,1,.314.764,1.04,1.04,0,0,1-.314.764,1.04,1.04,0,0,1-.764.314ZM86.767-1.572a.2.2,0,0,0,.225.225H90a1.237,1.237,0,0,1,.91.371,1.223,1.223,0,0,1,.371.9,1.223,1.223,0,0,1-.371.9A1.237,1.237,0,0,1,90,1.19H79.646a1.237,1.237,0,0,1-.91-.371,1.237,1.237,0,0,1-.371-.91,1.2,1.2,0,0,1,.371-.9,1.23,1.23,0,0,1,.887-.359q.135,0,.135-.157v-9.479a1.218,1.218,0,0,1,.382-.91,1.261,1.261,0,0,1,.91-.371,1.223,1.223,0,0,1,.9.371,1.237,1.237,0,0,1,.371.91v9.411a.2.2,0,0,0,.225.225h1.3a.2.2,0,0,0,.225-.225v-13.9a.2.2,0,0,0-.225-.225H80.3a1.255,1.255,0,0,1-.921-.382A1.255,1.255,0,0,1,79-17a1.255,1.255,0,0,1,.382-.921,1.255,1.255,0,0,1,.921-.382h9.254a1.255,1.255,0,0,1,.921.382,1.255,1.255,0,0,1,.382.921,1.255,1.255,0,0,1-.382.921,1.255,1.255,0,0,1-.921.382H86.991a.2.2,0,0,0-.225.225v4.964a.2.2,0,0,0,.225.225h2.448a1.255,1.255,0,0,1,.921.382,1.242,1.242,0,0,1,.382.91,1.242,1.242,0,0,1-.382.91,1.255,1.255,0,0,1-.921.382H86.991a.2.2,0,0,0-.225.225Zm20.709-7.143a.112.112,0,0,0,0-.135.132.132,0,0,0-.112-.067H99.906a.132.132,0,0,0-.112.067.112.112,0,0,0,0,.135,12.177,12.177,0,0,0,3.571,3.908.273.273,0,0,0,.359,0A12.108,12.108,0,0,0,107.476-8.715Zm1.707-2.9a1.143,1.143,0,0,1,.225-.022,1.288,1.288,0,0,1,.584.135l.562.337a1.177,1.177,0,0,1,.584.674,1.272,1.272,0,0,1,.067.4,1.258,1.258,0,0,1-.09.472,16.28,16.28,0,0,1-4.807,6.267.118.118,0,0,0-.056.124.114.114,0,0,0,.079.1,24.754,24.754,0,0,0,6.356,1.774.851.851,0,0,1,.719.562,1.209,1.209,0,0,1,.067.382,1.062,1.062,0,0,1-.157.539,2.787,2.787,0,0,1-1.056.943,2.037,2.037,0,0,1-.921.225,1.57,1.57,0,0,1-.382-.045,22.988,22.988,0,0,1-7.367-2.583.392.392,0,0,0-.4,0A29.8,29.8,0,0,1,95.706,1.19a1.763,1.763,0,0,1-.382.045,1.691,1.691,0,0,1-.831-.225A2.272,2.272,0,0,1,93.572.09.914.914,0,0,1,93.415-.4a1.15,1.15,0,0,1,.09-.427.949.949,0,0,1,.719-.562,28.9,28.9,0,0,0,6.446-1.774.114.114,0,0,0,.079-.1.167.167,0,0,0-.056-.146A16.068,16.068,0,0,1,98-6.581a1.429,1.429,0,0,1-.247-.786,1.7,1.7,0,0,1,.09-.539,1.549,1.549,0,0,1,.988-.943v-.034q0-.034-.022-.034H96.133a1.3,1.3,0,0,1-.955-.393,1.3,1.3,0,0,1-.393-.955,1.3,1.3,0,0,1,.393-.955,1.3,1.3,0,0,1,.955-.393h5.638a.2.2,0,0,0,.225-.225v-2.2a.2.2,0,0,0-.225-.225H95.01a1.326,1.326,0,0,1-.977-.393,1.313,1.313,0,0,1-.393-.966,1.313,1.313,0,0,1,.393-.966,1.326,1.326,0,0,1,.977-.393h6.761a.2.2,0,0,0,.225-.225v-1.348a1.363,1.363,0,0,1,.416-1,1.363,1.363,0,0,1,1-.416,1.363,1.363,0,0,1,1,.416,1.363,1.363,0,0,1,.416,1v1.348a.2.2,0,0,0,.225.225H111.9a1.3,1.3,0,0,1,.955.393,1.313,1.313,0,0,1,.393.966,1.313,1.313,0,0,1-.393.966,1.3,1.3,0,0,1-.955.393H105.05a.2.2,0,0,0-.225.225v2.2a.2.2,0,0,0,.225.225h4.133Zm12.4,2.853a2.074,2.074,0,0,1,.292-.022,1.141,1.141,0,0,1,.606.18,1.046,1.046,0,0,1,.472.764v.2a1.417,1.417,0,0,1-.225.764,1.338,1.338,0,0,1-.786.606q-.472.135-.876.247a.282.282,0,0,0-.225.292V-.9a4.542,4.542,0,0,1-.2,1.516,1.769,1.769,0,0,1-.719.887,3.834,3.834,0,0,1-1.842.472h-.112a1.286,1.286,0,0,1-.876-.337,1.757,1.757,0,0,1-.606-.921,1.067,1.067,0,0,1-.045-.292.9.9,0,0,1,.18-.539.859.859,0,0,1,.741-.382,5.3,5.3,0,0,0,.584-.022.439.439,0,0,0,.292-.079.4.4,0,0,0,.09-.3v-4.11a.181.181,0,0,0-.067-.146.136.136,0,0,0-.135-.034l-.786.247a1.477,1.477,0,0,1-.359.045,1.141,1.141,0,0,1-.606-.18,1.168,1.168,0,0,1-.539-.809,1.262,1.262,0,0,1-.022-.247,1.429,1.429,0,0,1,.247-.786,1.5,1.5,0,0,1,.876-.606q.562-.135,1.19-.314a.244.244,0,0,0,.2-.27v-4.268a.2.2,0,0,0-.225-.225h-.921a1.21,1.21,0,0,1-.887-.371,1.223,1.223,0,0,1-.371-.9,1.223,1.223,0,0,1,.371-.9,1.21,1.21,0,0,1,.887-.371h.921a.2.2,0,0,0,.225-.225v-2.83a1.2,1.2,0,0,1,.371-.9,1.23,1.23,0,0,1,.887-.359,1.23,1.23,0,0,1,.887.359,1.2,1.2,0,0,1,.371.9v2.853q0,.2.225.2h.584a1.21,1.21,0,0,1,.887.371,1.223,1.223,0,0,1,.371.9,1.223,1.223,0,0,1-.371.9,1.21,1.21,0,0,1-.887.371h-.584q-.225,0-.225.2V-8.76a.161.161,0,0,0,.067.124.136.136,0,0,0,.135.034Zm11.006,4.065a.112.112,0,0,0,0-.135.151.151,0,0,0-.135-.067H128.9a.108.108,0,0,0-.1.067.089.089,0,0,0,.011.112A8.252,8.252,0,0,0,130.79-2.74a.257.257,0,0,0,.359-.022A7.206,7.206,0,0,0,132.587-4.694Zm.876-2.179a4.216,4.216,0,0,1,1.527.225.878.878,0,0,1,.46.438.772.772,0,0,1,.034.618,11.065,11.065,0,0,1-2.246,3.976.142.142,0,0,0-.045.146.138.138,0,0,0,.09.1,16.292,16.292,0,0,0,2.853.9.815.815,0,0,1,.584.539.918.918,0,0,1,.045.292.914.914,0,0,1-.157.494,2.324,2.324,0,0,1-.943.764,1.692,1.692,0,0,1-.674.135,1.556,1.556,0,0,1-.449-.067,16.7,16.7,0,0,1-3.3-1.325.392.392,0,0,0-.4,0,14.35,14.35,0,0,1-2.942,1.325,1.258,1.258,0,0,1-.472.09,1.562,1.562,0,0,1-.562-.112,2.092,2.092,0,0,1-.854-.674.81.81,0,0,1-.157-.472.848.848,0,0,1,.045-.27.751.751,0,0,1,.539-.517,13.78,13.78,0,0,0,2.336-.876.114.114,0,0,0,.079-.1.167.167,0,0,0-.056-.146,10.128,10.128,0,0,1-1.437-1.527.118.118,0,0,0-.124-.056.172.172,0,0,0-.124.079,12.119,12.119,0,0,1-3.077,4.065,1.16,1.16,0,0,1-.741.27,1.143,1.143,0,0,1-.225-.022,1.716,1.716,0,0,1-.9-.517,1.116,1.116,0,0,1-.314-.786,1.15,1.15,0,0,1,.427-.921,11.183,11.183,0,0,0,3.616-6.738.238.238,0,0,0-.056-.157.181.181,0,0,0-.146-.067h-1.415a1.048,1.048,0,0,1-.786-.326,1.091,1.091,0,0,1-.314-.786,1.053,1.053,0,0,1,.314-.775,1.067,1.067,0,0,1,.786-.314h1.729a.2.2,0,0,0,.225-.225,5.5,5.5,0,0,1,.067-.651.238.238,0,0,0-.056-.157.181.181,0,0,0-.146-.067h-1.415a1.06,1.06,0,0,1-.764-.3,1,1,0,0,1-.314-.752,1.04,1.04,0,0,1,.314-.764,1.04,1.04,0,0,1,.764-.314h.2q.157,0,.112-.135-.157-.584-.427-1.348a.962.962,0,0,1-.067-.337,1,1,0,0,1,.112-.449.951.951,0,0,1,.606-.494,1.393,1.393,0,0,1,.337-.045,1.235,1.235,0,0,1,.517.112,1.1,1.1,0,0,1,.584.606q.135.292.225.539a1.039,1.039,0,0,1,.09.427,1.185,1.185,0,0,1-.112.494,1.178,1.178,0,0,1-.719.584v.022a.02.02,0,0,0,.022.022h2.269a.215.215,0,0,0,.157-.067.156.156,0,0,0,.045-.157,15.906,15.906,0,0,0-.247-1.617,1.041,1.041,0,0,1-.022-.2,1.032,1.032,0,0,1,.18-.584.953.953,0,0,1,.674-.449,1.143,1.143,0,0,1,.225-.022,1.084,1.084,0,0,1,.629.2,1.124,1.124,0,0,1,.494.7q.045.157.079.326a1.66,1.66,0,0,1,.034.326,1.417,1.417,0,0,1-.225.764,1.48,1.48,0,0,1-.921.629l-.539.112a.02.02,0,0,0-.022.022.02.02,0,0,0,.022.022h2.426a.371.371,0,0,0,.337-.18,23.074,23.074,0,0,0,1.617-3.3.16.16,0,0,0-.022-.146.121.121,0,0,0-.135-.034q-3.818.472-8.4.584h-.022a1.19,1.19,0,0,1-.764-.27,1.545,1.545,0,0,1-.472-.741.787.787,0,0,1-.045-.247.867.867,0,0,1,.135-.449.767.767,0,0,1,.606-.337,79.391,79.391,0,0,0,9.254-.831,2.9,2.9,0,0,1,.359-.022,2.282,2.282,0,0,1,.764.135,2.229,2.229,0,0,1,.9.674.81.81,0,0,1,.157.472,1.067,1.067,0,0,1-.045.292.759.759,0,0,1-.606.472l-1.37.2a.04.04,0,0,0-.045.045.04.04,0,0,0,.045.045l.427.135a1.419,1.419,0,0,1,.988.9,1.7,1.7,0,0,1,.09.539,1.5,1.5,0,0,1-.225.764q-.382.606-.741,1.123a.142.142,0,0,0,.011.124.11.11,0,0,0,.1.056h.9a1.014,1.014,0,0,1,.741.314,1.04,1.04,0,0,1,.314.764,1,1,0,0,1-.314.752,1.033,1.033,0,0,1-.741.3H129.15q-.225,0-.247.247-.022.359-.045.629a.169.169,0,0,0,.034.157.181.181,0,0,0,.146.067h6.806a1.077,1.077,0,0,1,.775.314,1.035,1.035,0,0,1,.326.775,1.071,1.071,0,0,1-.326.786,1.058,1.058,0,0,1-.775.326h-7.075a.25.25,0,0,0-.27.225,1.436,1.436,0,0,0-.045.225,1.436,1.436,0,0,1-.045.225.169.169,0,0,0,.034.157.181.181,0,0,0,.146.067ZM154.733-3.3a.2.2,0,0,0,.225-.225v-.651a.2.2,0,0,0-.225-.225h-3.706a.2.2,0,0,0-.225.225v.651a.2.2,0,0,0,.225.225Zm-3.706-4.178a.2.2,0,0,0-.225.225v.539a.2.2,0,0,0,.225.225h3.706a.2.2,0,0,0,.225-.225v-.539a.2.2,0,0,0-.225-.225Zm-6.6-4.807a.2.2,0,0,0,.225.225h3.145a.2.2,0,0,0,.225-.225v-.651a.2.2,0,0,0-.225-.225h-3.145a.2.2,0,0,0-.225.225Zm10.107-.651a.2.2,0,0,0-.225-.225h-3.279a.2.2,0,0,0-.225.225v.651a.2.2,0,0,0,.225.225h3.279a.2.2,0,0,0,.225-.225Zm4.537,6.446a1,1,0,0,1,.752.314,1.033,1.033,0,0,1,.3.741,1,1,0,0,1-.3.73,1.022,1.022,0,0,1-.752.3h-1.1a.2.2,0,0,0-.225.225v2.4a1.337,1.337,0,0,1-.416.977,1.337,1.337,0,0,1-.977.416h-.562a.8.8,0,0,1-.584-.247.824.824,0,0,1-.247-.606q0-.09-.112-.09h-3.818a.2.2,0,0,0-.225.225v.472a3.325,3.325,0,0,1-.27,1.516,1.844,1.844,0,0,1-.943.8,9.44,9.44,0,0,1-2.9.382h-.022a1.428,1.428,0,0,1-.9-.314,1.933,1.933,0,0,1-.629-.786.793.793,0,0,1-.067-.314A.626.626,0,0,1,145.21.27a.643.643,0,0,1,.584-.337q.741.022,1.662.022a.685.685,0,0,0,.438-.146.613.613,0,0,0,.124-.438V-1.1a.2.2,0,0,0-.225-.225h-5.772a.951.951,0,0,1-.7-.292.964.964,0,0,1-.292-.708.927.927,0,0,1,.292-.7.97.97,0,0,1,.7-.281h5.772a.2.2,0,0,0,.225-.225v-.651a.2.2,0,0,0-.225-.225h-7.816a1.022,1.022,0,0,1-.752-.3,1,1,0,0,1-.3-.73,1.033,1.033,0,0,1,.3-.741,1,1,0,0,1,.752-.314h7.816a.2.2,0,0,0,.225-.225v-.539a.2.2,0,0,0-.225-.225h-5.66a.887.887,0,0,1-.651-.27.887.887,0,0,1-.27-.651.887.887,0,0,1,.27-.651.887.887,0,0,1,.651-.27h5.66a.2.2,0,0,0,.225-.225v-.562a.2.2,0,0,0-.225-.225H143.75a1.883,1.883,0,0,1-1.381-.573,1.883,1.883,0,0,1-.573-1.381v-.651a1.883,1.883,0,0,1,.573-1.381,1.883,1.883,0,0,1,1.381-.573h4.043a.2.2,0,0,0,.225-.225v-.494a.2.2,0,0,0-.225-.225h-7.255a1.04,1.04,0,0,1-.764-.314,1.04,1.04,0,0,1-.314-.764,1.04,1.04,0,0,1,.314-.764,1.04,1.04,0,0,1,.764-.314h7.345q.135,0,.135-.157a1.274,1.274,0,0,1,.393-.932,1.3,1.3,0,0,1,.955-.393h.112a1.274,1.274,0,0,1,.932.393,1.274,1.274,0,0,1,.393.932.139.139,0,0,0,.157.157h7.547a1.077,1.077,0,0,1,.775.314,1.022,1.022,0,0,1,.326.764,1.022,1.022,0,0,1-.326.764,1.077,1.077,0,0,1-.775.314h-7.479a.2.2,0,0,0-.225.225v.494a.2.2,0,0,0,.225.225h4.357a1.883,1.883,0,0,1,1.381.573,1.883,1.883,0,0,1,.573,1.381v.651a1.883,1.883,0,0,1-.573,1.381,1.883,1.883,0,0,1-1.381.573h-4.357a.2.2,0,0,0-.225.225v.562a.2.2,0,0,0,.225.225h4.762a1.883,1.883,0,0,1,1.381.573,1.883,1.883,0,0,1,.573,1.381v.651a.2.2,0,0,0,.225.225ZM175.24-13.3a.112.112,0,0,0,0-.135.151.151,0,0,0-.135-.067h-5.076a.11.11,0,0,0-.1.056.142.142,0,0,0-.011.124,11.375,11.375,0,0,1,.584,1.258.284.284,0,0,1-.022.247.364.364,0,0,1-.225.157H174.3a.318.318,0,0,0,.314-.2A15.188,15.188,0,0,0,175.24-13.3Zm7.188,8.131a1.09,1.09,0,0,1,.337.8,1.09,1.09,0,0,1-.337.8,1.077,1.077,0,0,1-.786.337h-5.323a.072.072,0,0,0-.067.045.044.044,0,0,0,.022.067,19.508,19.508,0,0,0,5.593,2.089.887.887,0,0,1,.651.606.793.793,0,0,1,.067.314.924.924,0,0,1-.2.562,2.214,2.214,0,0,1-1.056.831,1.858,1.858,0,0,1-.7.135,1.617,1.617,0,0,1-.584-.112A19.124,19.124,0,0,1,173.982-2a.089.089,0,0,0-.112-.011.108.108,0,0,0-.067.1V.651a1.3,1.3,0,0,1-.393.955,1.329,1.329,0,0,1-1.887,0,1.3,1.3,0,0,1-.393-.955V-1.774a.108.108,0,0,0-.067-.1.089.089,0,0,0-.112.011A21.01,21.01,0,0,1,164.8,1.325a1.764,1.764,0,0,1-.562.09,1.585,1.585,0,0,1-.629-.135,2.118,2.118,0,0,1-.988-.741.833.833,0,0,1-.2-.539.918.918,0,0,1,.045-.292.825.825,0,0,1,.606-.584,23.422,23.422,0,0,0,5.683-2.246.044.044,0,0,0,.022-.067.072.072,0,0,0-.067-.045h-5.233a1.1,1.1,0,0,1-.809-.337,1.09,1.09,0,0,1-.337-.8,1.09,1.09,0,0,1,.337-.8,1.1,1.1,0,0,1,.809-.337h7.435a.2.2,0,0,0,.225-.225v-.562a.2.2,0,0,0-.225-.225h-5.413a.94.94,0,0,1-.708-.292.97.97,0,0,1-.281-.7.97.97,0,0,1,.281-.7.94.94,0,0,1,.708-.292h5.413a.2.2,0,0,0,.225-.225V-9.3a.2.2,0,0,0-.225-.225h-6.491a1.04,1.04,0,0,1-.764-.314,1.027,1.027,0,0,1-.314-.752,1.027,1.027,0,0,1,.314-.752,1.04,1.04,0,0,1,.764-.314h3.1a.132.132,0,0,0,.112-.067.149.149,0,0,0,.022-.135,10.182,10.182,0,0,0-.584-1.37.193.193,0,0,1-.011-.168.171.171,0,0,1,.124-.1h-3.661a1.1,1.1,0,0,1-.786-.326,1.054,1.054,0,0,1-.337-.786,1.054,1.054,0,0,1,.337-.786,1.1,1.1,0,0,1,.786-.326h1.752a.132.132,0,0,0,.112-.067.189.189,0,0,0,.022-.157q-.27-.651-.741-1.55a1.024,1.024,0,0,1-.135-.494.842.842,0,0,1,.09-.382.942.942,0,0,1,.606-.606,1.663,1.663,0,0,1,.528-.09,1.663,1.663,0,0,1,.528.09,1.41,1.41,0,0,1,.786.651q.382.629.651,1.19a.866.866,0,0,1,.112.427.942.942,0,0,1-.09.382,1.022,1.022,0,0,1-.606.562v.022a.02.02,0,0,0,.022.022h1.729a.2.2,0,0,0,.225-.225v-2.246a1.218,1.218,0,0,1,.382-.91,1.261,1.261,0,0,1,.91-.371,1.223,1.223,0,0,1,.9.371,1.237,1.237,0,0,1,.371.91v2.246a.2.2,0,0,0,.225.225h1.258a.2.2,0,0,0,.225-.225v-2.246a1.218,1.218,0,0,1,.382-.91,1.261,1.261,0,0,1,.91-.371,1.261,1.261,0,0,1,.91.371,1.218,1.218,0,0,1,.382.91v2.246a.2.2,0,0,0,.225.225h1.729v-.045a.545.545,0,0,1-.4-.348.644.644,0,0,1,.022-.55q.292-.584.584-1.258a1.707,1.707,0,0,1,.786-.9,1.619,1.619,0,0,1,.764-.2,1.57,1.57,0,0,1,.382.045,1.085,1.085,0,0,1,.764.629,1.486,1.486,0,0,1,.067.427,1.1,1.1,0,0,1-.157.562q-.539.9-.9,1.438a.126.126,0,0,0-.011.135.125.125,0,0,0,.124.067h1.64a1.084,1.084,0,0,1,.8.326,1.071,1.071,0,0,1,.326.786,1.071,1.071,0,0,1-.326.786,1.084,1.084,0,0,1-.8.326h-2.987a.363.363,0,0,0-.337.2q-.4.741-.854,1.438a.17.17,0,0,0,.011.135.108.108,0,0,0,.1.067h3.212a1.04,1.04,0,0,1,.764.314,1.027,1.027,0,0,1,.314.752,1.027,1.027,0,0,1-.314.752,1.04,1.04,0,0,1-.764.314h-6.693a.2.2,0,0,0-.225.225v.584a.2.2,0,0,0,.225.225h5.705a.951.951,0,0,1,.7.292.951.951,0,0,1,.292.7.951.951,0,0,1-.292.7.951.951,0,0,1-.7.292h-5.705a.2.2,0,0,0-.225.225v.562a.2.2,0,0,0,.225.225h7.614A1.077,1.077,0,0,1,182.428-5.166Zm17.362-9.973a1.359,1.359,0,0,1,.786-.247,2.385,2.385,0,0,1,.337.022,1.384,1.384,0,0,1,.921.651,1.417,1.417,0,0,1,.225.764,1.858,1.858,0,0,1-.045.4,1.532,1.532,0,0,1-.719.921q-.427.2-.921.449-.067.045-1.235.618t-1.763.876q-.6.3-1.606.865t-1.752,1.033a9.976,9.976,0,0,0-2.347,2,3.339,3.339,0,0,0-.82,2.134q0,2.516,4.739,2.516a36.175,36.175,0,0,0,5.84-.517,1.512,1.512,0,0,1,.247-.022,1.4,1.4,0,0,1,.876.314,1.277,1.277,0,0,1,.472,1.011,1.935,1.935,0,0,1-.472,1.28,1.832,1.832,0,0,1-1.19.629,48.327,48.327,0,0,1-5.683.314q-7.951,0-7.951-5.166a5.631,5.631,0,0,1,.932-3.167,11.2,11.2,0,0,1,2.662-2.718.212.212,0,0,0,.067-.314q-1.1-2.089-2.471-5.166a1.537,1.537,0,0,1-.135-.606,1.617,1.617,0,0,1,.112-.584,1.509,1.509,0,0,1,.831-.831,1.617,1.617,0,0,1,.584-.112,1.537,1.537,0,0,1,.606.135,1.509,1.509,0,0,1,.831.831q.9,2.224,2.179,4.672a.182.182,0,0,0,.292.09q1.078-.629,2.841-1.572t1.9-1.011Zm10.489-1.235a1.683,1.683,0,0,1,.584-1.078,1.437,1.437,0,0,1,.988-.382h.135a1.327,1.327,0,0,1,.966.562,1.417,1.417,0,0,1,.225.764,1.477,1.477,0,0,1-.045.359q-.067.27-.112.494-.292,1.325-.685,4.279a37.05,37.05,0,0,0-.393,4.526,10.63,10.63,0,0,0,.067,1.258q0,.022.045.034a.055.055,0,0,0,.067-.034q.2-.517.562-1.3a.646.646,0,0,1,.472-.393.665.665,0,0,1,.606.146,1.22,1.22,0,0,1,.427.651,1.477,1.477,0,0,1,.045.359,1.272,1.272,0,0,1-.067.4,41.74,41.74,0,0,0-1.348,4.582q-.067.359-.112.7a1.589,1.589,0,0,1-.393.955,1.263,1.263,0,0,1-.865.438h-.135a1.5,1.5,0,0,1-.9-.292,1.35,1.35,0,0,1-.562-.876,28.277,28.277,0,0,1-.606-6.02,63.915,63.915,0,0,1,.943-9.479Q210.257-16.1,210.279-16.374ZM221.914-3.818v-.157a.263.263,0,0,0-.225-.292,6.831,6.831,0,0,0-1.617-.2,2.9,2.9,0,0,0-1.583.382,1.156,1.156,0,0,0-.6,1.011,1.077,1.077,0,0,0,.584.988,3.09,3.09,0,0,0,1.55.337,1.8,1.8,0,0,0,1.449-.517A2.348,2.348,0,0,0,221.914-3.818Zm6.109-.022a1.417,1.417,0,0,1,.562,1.011,1.143,1.143,0,0,1,.022.225,1.585,1.585,0,0,1-.27.9,1.161,1.161,0,0,1-.854.539.738.738,0,0,1-.18.022,1.2,1.2,0,0,1-.809-.314q-.764-.651-1.5-1.19a.126.126,0,0,0-.135-.011.108.108,0,0,0-.067.1A3.821,3.821,0,0,1,223.542.011a4.749,4.749,0,0,1-3.2.932,6.3,6.3,0,0,1-3.74-.977,3.192,3.192,0,0,1-1.359-2.751,3.428,3.428,0,0,1,1.37-2.83A5.8,5.8,0,0,1,220.3-6.693a10.276,10.276,0,0,1,1.258.067.238.238,0,0,0,.157-.056.181.181,0,0,0,.067-.146q-.112-2.4-.157-4.223,0-.225-.225-.2H220q-1.325,0-2.628-.045a1.452,1.452,0,0,1-.977-.46,1.375,1.375,0,0,1-.393-.977,1.221,1.221,0,0,1,.4-.921,1.258,1.258,0,0,1,.854-.337.37.37,0,0,1,.112.022q1.28.09,2.628.09.921,0,1.37-.022.225,0,.225-.247,0-.359-.011-.831t-.011-.809l-.022-.584a1.51,1.51,0,0,1,.427-1.078,1.363,1.363,0,0,1,1.078-.494,1.363,1.363,0,0,1,1.078.494,1.527,1.527,0,0,1,.4,1.056l-.067,2.066a.215.215,0,0,0,.067.157.156.156,0,0,0,.157.045q1.078-.112,1.909-.247a1.041,1.041,0,0,1,.2-.022,1.134,1.134,0,0,1,.764.292,1.087,1.087,0,0,1,.427.9,1.568,1.568,0,0,1-.4,1.067,1.509,1.509,0,0,1-.988.528q-.988.112-1.932.18a.222.222,0,0,0-.225.247q.045,1.977.247,5.121a.318.318,0,0,0,.225.314A13.658,13.658,0,0,1,228.023-3.841Zm14.892-3.392q-.584,1.325-1.55,1.325h-.135a1.5,1.5,0,0,1-1.1-.449.966.966,0,0,1-.314-.7,1.14,1.14,0,0,1,.045-.314,3.974,3.974,0,0,1,.741-1.292,7.016,7.016,0,0,1,1.1-1.067q.584-.449,1.146-.887a4.819,4.819,0,0,0,.932-.943,1.717,1.717,0,0,0,.371-1.022,1.852,1.852,0,0,0-.775-1.595,3.554,3.554,0,0,0-2.123-.562,4.478,4.478,0,0,0-2.74.921,1.708,1.708,0,0,1-.966.359H237.5a1.286,1.286,0,0,1-.876-.337,1.285,1.285,0,0,1-.427-.966,1.065,1.065,0,0,1,.382-.831,7.457,7.457,0,0,1,5.031-1.887,6.8,6.8,0,0,1,4.189,1.19,4.014,4.014,0,0,1,1.583,3.414,2.981,2.981,0,0,1-.371,1.46,4.205,4.205,0,0,1-.943,1.168q-.573.494-1.179.932a10.914,10.914,0,0,0-1.168.977A3.517,3.517,0,0,0,242.915-7.232ZM239.523-.427a2.185,2.185,0,0,1-.674-1.64,2.149,2.149,0,0,1,.674-1.628,2.394,2.394,0,0,1,1.718-.64,2.394,2.394,0,0,1,1.718.64,2.149,2.149,0,0,1,.674,1.628,2.149,2.149,0,0,1-.674,1.628,2.394,2.394,0,0,1-1.718.64A2.418,2.418,0,0,1,239.523-.427Z" transform="translate(-1.393 19.968)"/>
</svg>
