<svg xmlns="http://www.w3.org/2000/svg" width="302.643" height="17.244" viewBox="0 0 302.643 17.244">
  <path id="パス_6923" data-name="パス 6923" d="M5.924-6.891a.155.155,0,0,0-.176.176v.844a.169.169,0,0,0,.053.123.169.169,0,0,0,.123.053q1.564-.088,5.221-.281a.621.621,0,0,0,.316-.123q.105-.088.246-.211a1.525,1.525,0,0,1,.158-.141.342.342,0,0,0,.123-.272q0-.167-.176-.167Zm6.064-5.045a.155.155,0,0,0-.176-.176H5.924a.155.155,0,0,0-.176.176v.7a.155.155,0,0,0,.176.176h5.889a.155.155,0,0,0,.176-.176Zm-.176,3.48a.155.155,0,0,0,.176-.176v-.721a.155.155,0,0,0-.176-.176H5.924a.155.155,0,0,0-.176.176v.721a.155.155,0,0,0,.176.176Zm2.672-.861a1.4,1.4,0,0,1,.756-.527,1.218,1.218,0,0,1,.352-.053,1.393,1.393,0,0,1,.563.123.948.948,0,0,1,.527.65,1.09,1.09,0,0,1,.035.264.97.97,0,0,1-.176.545,23.112,23.112,0,0,1-2.215,2.549.407.407,0,0,0-.123.3v4.025a3.815,3.815,0,0,1-.22,1.459,1.432,1.432,0,0,1-.8.756,7.559,7.559,0,0,1-2.479.387h-.053A1.327,1.327,0,0,1,9.791.844,1.857,1.857,0,0,1,9.211,0a.753.753,0,0,1-.053-.264.746.746,0,0,1,.158-.457.693.693,0,0,1,.615-.316h.6q.51,0,.967-.018.492,0,.492-.4V-3.586a.084.084,0,0,0-.053-.079.07.07,0,0,0-.088.009A29.828,29.828,0,0,1,3.3.65a1.265,1.265,0,0,1-.457.088A1.548,1.548,0,0,1,2.3.633,1.769,1.769,0,0,1,1.477,0,.769.769,0,0,1,1.3-.475a.662.662,0,0,1,.053-.264.749.749,0,0,1,.527-.527A29.284,29.284,0,0,0,8.086-3.814q.035-.018.026-.044a.041.041,0,0,0-.044-.026q-3.937.316-5.748.457H2.232a1.1,1.1,0,0,1-.721-.264A1.132,1.132,0,0,1,1.09-4.43V-4.57a.955.955,0,0,1,.229-.615.9.9,0,0,1,.7-.352q.65-.018,1.406-.053A.155.155,0,0,0,3.6-5.766V-12.41a1.473,1.473,0,0,1,.448-1.081,1.473,1.473,0,0,1,1.081-.448H7.154a.218.218,0,0,0,.229-.158q.07-.176.123-.334a1.685,1.685,0,0,1,.668-.861,1.635,1.635,0,0,1,.879-.264h.158a.873.873,0,0,1,.7.457.9.9,0,0,1,.105.4.936.936,0,0,1-.105.422q-.035.053-.105.176a.088.088,0,0,0,0,.105.1.1,0,0,0,.088.053h2.777a1.473,1.473,0,0,1,1.081.448A1.473,1.473,0,0,1,14.2-12.41v3.3a.042.042,0,0,0,.035.044.1.1,0,0,0,.07-.009Zm17.877-4.676a1,1,0,0,1,.729.308,1.007,1.007,0,0,1,.308.738.978.978,0,0,1-.308.729,1.011,1.011,0,0,1-.729.3H21.639a1.011,1.011,0,0,1-.729-.3.978.978,0,0,1-.308-.729,1.007,1.007,0,0,1,.308-.738,1,1,0,0,1,.729-.308ZM30.99-.738h1.617a.538.538,0,0,0,.536-.378,6.29,6.29,0,0,0,.22-1.591.606.606,0,0,1,.334-.527.78.78,0,0,1,.352-.088.659.659,0,0,1,.3.07,1.608,1.608,0,0,1,.721.58,1.225,1.225,0,0,1,.229.7v.158A4.945,4.945,0,0,1,34.55.606a2.128,2.128,0,0,1-1.749.659H30.639A2.679,2.679,0,0,1,28.6.668a3.4,3.4,0,0,1-.527-2.2V-6.855a.155.155,0,0,0-.176-.176H25.559a.174.174,0,0,0-.193.176q-.105,1.09-.255,1.942a11.731,11.731,0,0,1-.466,1.775,7.1,7.1,0,0,1-.782,1.626,7.546,7.546,0,0,1-1.2,1.38,8.41,8.41,0,0,1-1.723,1.2,1.369,1.369,0,0,1-.51.105,1.218,1.218,0,0,1-.352-.053A1.494,1.494,0,0,1,19.336.6.851.851,0,0,1,19.16.141a.859.859,0,0,1,.1-.466A.711.711,0,0,1,19.6-.65a6.81,6.81,0,0,0,1.406-.958,5.434,5.434,0,0,0,.949-1.081,5.453,5.453,0,0,0,.589-1.274,8.6,8.6,0,0,0,.334-1.371q.1-.642.167-1.521A.186.186,0,0,0,23-6.979a.142.142,0,0,0-.114-.053H20.039a1.017,1.017,0,0,1-.747-.308,1.007,1.007,0,0,1-.308-.738,1.007,1.007,0,0,1,.308-.738,1.017,1.017,0,0,1,.747-.308H34a1.017,1.017,0,0,1,.747.308,1.007,1.007,0,0,1,.308.738,1.007,1.007,0,0,1-.308.738A1.017,1.017,0,0,1,34-7.031H30.463a.155.155,0,0,0-.176.176v5.326a1.046,1.046,0,0,0,.132.65A.811.811,0,0,0,30.99-.738Zm9.229-13.5a1.154,1.154,0,0,1,.58-.6,1.083,1.083,0,0,1,.457-.105,1.049,1.049,0,0,1,.334.053.965.965,0,0,1,.58.51.9.9,0,0,1,.105.4.815.815,0,0,1-.088.369q-.58,1.318-1.2,2.443a.7.7,0,0,0-.07.316V.51a.982.982,0,0,1-.3.721,1.018,1.018,0,0,1-1.441,0,.982.982,0,0,1-.3-.721V-7.717q0-.035-.044-.053t-.062.018q-.229.3-.439.545a.716.716,0,0,1-.58.281.578.578,0,0,1-.141-.018.849.849,0,0,1-.633-.457,1.666,1.666,0,0,1-.211-.809,1.623,1.623,0,0,1,.018-.229,1.837,1.837,0,0,1,.422-.949A18.875,18.875,0,0,0,40.219-14.238Zm4.939,1.652a.155.155,0,0,0-.176.176v2.057a.155.155,0,0,0,.176.176H50.08a.155.155,0,0,0,.176-.176V-12.41a.155.155,0,0,0-.176-.176ZM53-6.363a.923.923,0,0,1,.281.677A.952.952,0,0,1,53-5a.919.919,0,0,1-.686.29H49.852a.086.086,0,0,0-.079.044.085.085,0,0,0,.009.1,13.521,13.521,0,0,0,3.076,3.146,1,1,0,0,1,.387.686v.105A.958.958,0,0,1,53,.018a1.351,1.351,0,0,1-.791.422.578.578,0,0,1-.141.018A1.024,1.024,0,0,1,51.4.211a15.821,15.821,0,0,1-2.672-3.146.035.035,0,0,0-.053-.018.056.056,0,0,0-.035.053V.492a1.032,1.032,0,0,1-.316.756,1.082,1.082,0,0,1-1.529,0,1.032,1.032,0,0,1-.316-.756v-3.3a.056.056,0,0,0-.035-.053.057.057,0,0,0-.07.018A14.42,14.42,0,0,1,43.506.229a1.079,1.079,0,0,1-.633.211A.988.988,0,0,1,42.68.422a1.243,1.243,0,0,1-.773-.439.91.91,0,0,1-.229-.615V-.756a.868.868,0,0,1,.4-.65,12.7,12.7,0,0,0,3.27-3.164.085.085,0,0,0,.009-.1.086.086,0,0,0-.079-.044H42.732A.919.919,0,0,1,42.047-5a.952.952,0,0,1-.281-.686.952.952,0,0,1,.281-.686.919.919,0,0,1,.686-.29H46.3a.155.155,0,0,0,.176-.176V-8.1a.155.155,0,0,0-.176-.176H44.473a1.473,1.473,0,0,1-1.081-.448,1.473,1.473,0,0,1-.448-1.081V-12.92A1.473,1.473,0,0,1,43.392-14a1.473,1.473,0,0,1,1.081-.448h6.4A1.473,1.473,0,0,1,51.952-14,1.473,1.473,0,0,1,52.4-12.92v3.111a1.473,1.473,0,0,1-.448,1.081,1.473,1.473,0,0,1-1.081.448H48.814a.155.155,0,0,0-.176.176v1.266a.155.155,0,0,0,.176.176h3.5A.906.906,0,0,1,53-6.363Zm6.82-8.332a.779.779,0,0,1,.571.237.789.789,0,0,1,.237.58.789.789,0,0,1-.237.58.779.779,0,0,1-.571.237H56.355a.779.779,0,0,1-.571-.237.789.789,0,0,1-.237-.58.789.789,0,0,1,.237-.58.779.779,0,0,1,.571-.237Zm-.9,11.971a.155.155,0,0,0-.176-.176H57.357a.155.155,0,0,0-.176.176V-1.02a.155.155,0,0,0,.176.176h1.389a.155.155,0,0,0,.176-.176Zm.3-1.863A1.473,1.473,0,0,1,60.3-4.14a1.473,1.473,0,0,1,.448,1.081V-.686A1.473,1.473,0,0,1,60.3.4a1.473,1.473,0,0,1-1.081.448H57.252a.062.062,0,0,0-.07.07A.61.61,0,0,1,57,1.362a.61.61,0,0,1-.448.185h-.264a.863.863,0,0,1-.633-.264A.863.863,0,0,1,55.389.65V-3.059a1.473,1.473,0,0,1,.448-1.081,1.473,1.473,0,0,1,1.081-.448ZM56.25-5.5a.779.779,0,0,1-.571-.237.789.789,0,0,1-.237-.58.789.789,0,0,1,.237-.58.779.779,0,0,1,.571-.237h3.568a.779.779,0,0,1,.571.237.789.789,0,0,1,.237.58.789.789,0,0,1-.237.58.779.779,0,0,1-.571.237Zm3.568-4.131a.779.779,0,0,1,.571.237.779.779,0,0,1,.237.571.75.75,0,0,1-.237.563.794.794,0,0,1-.571.229H56.232a.773.773,0,0,1-.554-.229.75.75,0,0,1-.237-.562.779.779,0,0,1,.237-.571.759.759,0,0,1,.554-.237Zm-4.377-.879a.814.814,0,0,1-.6-.246.814.814,0,0,1-.246-.6.814.814,0,0,1,.246-.6.814.814,0,0,1,.6-.246h4.992a.814.814,0,0,1,.6.246.814.814,0,0,1,.246.6.814.814,0,0,1-.246.6.814.814,0,0,1-.6.246ZM67.9-1.23a.155.155,0,0,0,.176.176h2.355a.968.968,0,0,1,.712.29.958.958,0,0,1,.29.7.958.958,0,0,1-.29.7.968.968,0,0,1-.712.29h-8.1a.968.968,0,0,1-.712-.29.968.968,0,0,1-.29-.712.939.939,0,0,1,.29-.7.962.962,0,0,1,.694-.281q.105,0,.105-.123V-8.6a.954.954,0,0,1,.3-.712.987.987,0,0,1,.712-.29.958.958,0,0,1,.7.29.968.968,0,0,1,.29.712V-1.23a.155.155,0,0,0,.176.176h1.02a.155.155,0,0,0,.176-.176V-12.111a.155.155,0,0,0-.176-.176H62.842a.982.982,0,0,1-.721-.3.982.982,0,0,1-.3-.721.982.982,0,0,1,.3-.721.982.982,0,0,1,.721-.3h7.242a.982.982,0,0,1,.721.3.982.982,0,0,1,.3.721.982.982,0,0,1-.3.721.982.982,0,0,1-.721.3h-2a.155.155,0,0,0-.176.176v3.885a.155.155,0,0,0,.176.176H70a.982.982,0,0,1,.721.3.972.972,0,0,1,.3.712.972.972,0,0,1-.3.712.982.982,0,0,1-.721.3H68.08a.155.155,0,0,0-.176.176ZM84.111-6.82a.088.088,0,0,0,0-.105.1.1,0,0,0-.088-.053H78.188a.1.1,0,0,0-.088.053.088.088,0,0,0,0,.105,9.53,9.53,0,0,0,2.795,3.059.214.214,0,0,0,.281,0A9.476,9.476,0,0,0,84.111-6.82Zm1.336-2.268a.894.894,0,0,1,.176-.018A1.008,1.008,0,0,1,86.08-9l.439.264a.921.921,0,0,1,.457.527,1,1,0,0,1,.053.316.985.985,0,0,1-.07.369,12.741,12.741,0,0,1-3.762,4.9.093.093,0,0,0-.044.1.089.089,0,0,0,.062.079,19.373,19.373,0,0,0,4.975,1.389.666.666,0,0,1,.563.439.946.946,0,0,1,.053.3.831.831,0,0,1-.123.422,2.181,2.181,0,0,1-.826.738,1.594,1.594,0,0,1-.721.176,1.228,1.228,0,0,1-.3-.035A17.991,17.991,0,0,1,81.07-1.037a.307.307,0,0,0-.316,0A23.32,23.32,0,0,1,74.9.932a1.38,1.38,0,0,1-.3.035,1.323,1.323,0,0,1-.65-.176A1.778,1.778,0,0,1,73.23.07a.716.716,0,0,1-.123-.387.9.9,0,0,1,.07-.334.743.743,0,0,1,.563-.439,22.619,22.619,0,0,0,5.045-1.389.089.089,0,0,0,.062-.079.131.131,0,0,0-.044-.114A12.575,12.575,0,0,1,76.693-5.15a1.119,1.119,0,0,1-.193-.615,1.327,1.327,0,0,1,.07-.422,1.212,1.212,0,0,1,.773-.738v-.026q0-.026-.018-.026H75.234a1.017,1.017,0,0,1-.747-.308,1.017,1.017,0,0,1-.308-.747,1.017,1.017,0,0,1,.308-.747,1.017,1.017,0,0,1,.747-.308h4.412a.155.155,0,0,0,.176-.176v-1.723a.155.155,0,0,0-.176-.176H74.355a1.038,1.038,0,0,1-.765-.308,1.028,1.028,0,0,1-.308-.756,1.028,1.028,0,0,1,.308-.756,1.038,1.038,0,0,1,.765-.308h5.291a.155.155,0,0,0,.176-.176V-14.52a1.066,1.066,0,0,1,.325-.782,1.066,1.066,0,0,1,.782-.325,1.066,1.066,0,0,1,.782.325,1.066,1.066,0,0,1,.325.782v1.055a.155.155,0,0,0,.176.176h5.361a1.017,1.017,0,0,1,.747.308,1.028,1.028,0,0,1,.308.756,1.028,1.028,0,0,1-.308.756,1.017,1.017,0,0,1-.747.308H82.213a.155.155,0,0,0-.176.176v1.723a.155.155,0,0,0,.176.176h3.234Zm9.7,2.232a1.623,1.623,0,0,1,.229-.018.893.893,0,0,1,.475.141.819.819,0,0,1,.369.6v.158a1.109,1.109,0,0,1-.176.6,1.047,1.047,0,0,1-.615.475l-.686.193a.221.221,0,0,0-.176.229V-.7A3.555,3.555,0,0,1,94.412.483a1.384,1.384,0,0,1-.562.694,3,3,0,0,1-1.441.369H92.32a1.006,1.006,0,0,1-.686-.264A1.375,1.375,0,0,1,91.16.563a.835.835,0,0,1-.035-.229.7.7,0,0,1,.141-.422.672.672,0,0,1,.58-.3A4.146,4.146,0,0,0,92.3-.4a.344.344,0,0,0,.229-.062A.31.31,0,0,0,92.6-.7V-3.92a.142.142,0,0,0-.053-.114.106.106,0,0,0-.105-.026l-.615.193a1.156,1.156,0,0,1-.281.035.893.893,0,0,1-.475-.141.914.914,0,0,1-.422-.633.988.988,0,0,1-.018-.193,1.119,1.119,0,0,1,.193-.615,1.171,1.171,0,0,1,.686-.475q.439-.105.932-.246a.191.191,0,0,0,.158-.211v-3.34a.155.155,0,0,0-.176-.176h-.721a.947.947,0,0,1-.694-.29.958.958,0,0,1-.29-.7.958.958,0,0,1,.29-.7.947.947,0,0,1,.694-.29h.721a.155.155,0,0,0,.176-.176v-2.215a.939.939,0,0,1,.29-.7.962.962,0,0,1,.694-.281.962.962,0,0,1,.694.281.939.939,0,0,1,.29.7v2.232q0,.158.176.158H95.2a.947.947,0,0,1,.694.29.958.958,0,0,1,.29.7.958.958,0,0,1-.29.7.947.947,0,0,1-.694.29h-.457q-.176,0-.176.158v2.848a.126.126,0,0,0,.053.1.106.106,0,0,0,.105.026Zm8.613,3.182a.088.088,0,0,0,0-.105.118.118,0,0,0-.105-.053h-2.777a.084.084,0,0,0-.079.053.07.07,0,0,0,.009.088,6.459,6.459,0,0,0,1.547,1.547.2.2,0,0,0,.281-.018A5.64,5.64,0,0,0,103.764-3.674Zm.686-1.705a3.3,3.3,0,0,1,1.2.176.687.687,0,0,1,.36.343.6.6,0,0,1,.026.483,8.66,8.66,0,0,1-1.758,3.111.111.111,0,0,0-.035.114.108.108,0,0,0,.07.079,12.75,12.75,0,0,0,2.232.7A.638.638,0,0,1,107,.053a.718.718,0,0,1,.035.229.716.716,0,0,1-.123.387,1.818,1.818,0,0,1-.738.6,1.324,1.324,0,0,1-.527.105,1.218,1.218,0,0,1-.352-.053A13.074,13.074,0,0,1,102.709.281a.307.307,0,0,0-.316,0,11.231,11.231,0,0,1-2.3,1.037.985.985,0,0,1-.369.07,1.222,1.222,0,0,1-.439-.088,1.637,1.637,0,0,1-.668-.527A.634.634,0,0,1,98.49.4a.664.664,0,0,1,.035-.211.588.588,0,0,1,.422-.4A10.784,10.784,0,0,0,100.775-.9a.089.089,0,0,0,.062-.079.131.131,0,0,0-.044-.114,7.926,7.926,0,0,1-1.125-1.2.093.093,0,0,0-.1-.044.135.135,0,0,0-.1.062A9.485,9.485,0,0,1,97.066.914a.908.908,0,0,1-.58.211.894.894,0,0,1-.176-.018,1.343,1.343,0,0,1-.7-.4.873.873,0,0,1-.246-.615A.9.9,0,0,1,95.7-.633a8.752,8.752,0,0,0,2.83-5.273.186.186,0,0,0-.044-.123.142.142,0,0,0-.114-.053H97.26a.82.82,0,0,1-.615-.255.854.854,0,0,1-.246-.615.824.824,0,0,1,.246-.606A.835.835,0,0,1,97.26-7.8h1.354a.155.155,0,0,0,.176-.176,4.3,4.3,0,0,1,.053-.51.186.186,0,0,0-.044-.123.142.142,0,0,0-.114-.053H97.576a.829.829,0,0,1-.6-.237.785.785,0,0,1-.246-.589.814.814,0,0,1,.246-.6.814.814,0,0,1,.6-.246h.158q.123,0,.088-.105Q97.7-10.9,97.488-11.5a.753.753,0,0,1-.053-.264.78.78,0,0,1,.088-.352A.744.744,0,0,1,98-12.5a1.09,1.09,0,0,1,.264-.035.966.966,0,0,1,.4.088.862.862,0,0,1,.457.475q.105.229.176.422a.813.813,0,0,1,.07.334.928.928,0,0,1-.088.387.922.922,0,0,1-.562.457v.018a.016.016,0,0,0,.018.018h1.775a.169.169,0,0,0,.123-.053.122.122,0,0,0,.035-.123,12.449,12.449,0,0,0-.193-1.266.815.815,0,0,1-.018-.158.808.808,0,0,1,.141-.457.745.745,0,0,1,.527-.352.894.894,0,0,1,.176-.018.848.848,0,0,1,.492.158.88.88,0,0,1,.387.545q.035.123.062.255a1.3,1.3,0,0,1,.026.255,1.109,1.109,0,0,1-.176.6,1.158,1.158,0,0,1-.721.492l-.422.088a.016.016,0,0,0-.018.018.016.016,0,0,0,.018.018h1.9a.29.29,0,0,0,.264-.141,18.058,18.058,0,0,0,1.266-2.584.125.125,0,0,0-.018-.114.1.1,0,0,0-.105-.026q-2.988.369-6.574.457h-.018a.931.931,0,0,1-.6-.211,1.209,1.209,0,0,1-.369-.58.616.616,0,0,1-.035-.193.678.678,0,0,1,.105-.352.6.6,0,0,1,.475-.264,62.132,62.132,0,0,0,7.242-.65,2.265,2.265,0,0,1,.281-.018,1.786,1.786,0,0,1,.6.105,1.745,1.745,0,0,1,.7.527.634.634,0,0,1,.123.369.835.835,0,0,1-.035.229.594.594,0,0,1-.475.369l-1.072.158a.031.031,0,0,0-.035.035.031.031,0,0,0,.035.035l.334.105a1.111,1.111,0,0,1,.773.7,1.327,1.327,0,0,1,.07.422,1.17,1.17,0,0,1-.176.6q-.3.475-.58.879a.111.111,0,0,0,.009.1.086.086,0,0,0,.079.044h.7a.794.794,0,0,1,.58.246.814.814,0,0,1,.246.6.785.785,0,0,1-.246.589.808.808,0,0,1-.58.237h-4.746q-.176,0-.193.193-.018.281-.035.492a.132.132,0,0,0,.026.123.142.142,0,0,0,.114.053h5.326a.843.843,0,0,1,.606.246.81.81,0,0,1,.255.606.838.838,0,0,1-.255.615.828.828,0,0,1-.606.255h-5.537a.2.2,0,0,0-.211.176,1.124,1.124,0,0,0-.035.176,1.124,1.124,0,0,1-.035.176.132.132,0,0,0,.026.123.142.142,0,0,0,.114.053ZM121.1-2.584a.155.155,0,0,0,.176-.176v-.51a.155.155,0,0,0-.176-.176h-2.9a.155.155,0,0,0-.176.176v.51a.155.155,0,0,0,.176.176Zm-2.9-3.27a.155.155,0,0,0-.176.176v.422a.155.155,0,0,0,.176.176h2.9a.155.155,0,0,0,.176-.176v-.422a.155.155,0,0,0-.176-.176Zm-5.168-3.762a.155.155,0,0,0,.176.176h2.461a.155.155,0,0,0,.176-.176v-.51a.155.155,0,0,0-.176-.176H113.2a.155.155,0,0,0-.176.176Zm7.91-.51a.155.155,0,0,0-.176-.176H118.2a.155.155,0,0,0-.176.176v.51a.155.155,0,0,0,.176.176h2.566a.155.155,0,0,0,.176-.176Zm3.551,5.045a.785.785,0,0,1,.589.246.808.808,0,0,1,.237.58.779.779,0,0,1-.237.571.8.8,0,0,1-.589.237h-.861a.155.155,0,0,0-.176.176v1.881a1.046,1.046,0,0,1-.325.765,1.046,1.046,0,0,1-.765.325h-.439a.625.625,0,0,1-.457-.193.645.645,0,0,1-.193-.475q0-.07-.088-.07H118.2a.155.155,0,0,0-.176.176v.369a2.6,2.6,0,0,1-.211,1.187,1.443,1.443,0,0,1-.738.624,7.388,7.388,0,0,1-2.268.3h-.018a1.118,1.118,0,0,1-.7-.246,1.513,1.513,0,0,1-.492-.615.62.62,0,0,1-.053-.246.49.49,0,0,1,.105-.3.5.5,0,0,1,.457-.264q.58.018,1.3.018a.536.536,0,0,0,.343-.114.479.479,0,0,0,.1-.343V-.861a.155.155,0,0,0-.176-.176h-4.518a.744.744,0,0,1-.545-.229.754.754,0,0,1-.229-.554.725.725,0,0,1,.229-.545.759.759,0,0,1,.545-.22h4.518a.155.155,0,0,0,.176-.176v-.51a.155.155,0,0,0-.176-.176h-6.117a.8.8,0,0,1-.589-.237.779.779,0,0,1-.237-.571.808.808,0,0,1,.237-.58.785.785,0,0,1,.589-.246h6.117a.155.155,0,0,0,.176-.176v-.422a.155.155,0,0,0-.176-.176h-4.43a.7.7,0,0,1-.51-.211.7.7,0,0,1-.211-.51.7.7,0,0,1,.211-.51.7.7,0,0,1,.51-.211h4.43a.155.155,0,0,0,.176-.176V-7.91a.155.155,0,0,0-.176-.176H112.5a1.473,1.473,0,0,1-1.081-.448,1.473,1.473,0,0,1-.448-1.081v-.51a1.473,1.473,0,0,1,.448-1.081,1.473,1.473,0,0,1,1.081-.448h3.164a.155.155,0,0,0,.176-.176v-.387a.155.155,0,0,0-.176-.176h-5.678a.814.814,0,0,1-.6-.246.814.814,0,0,1-.246-.6.814.814,0,0,1,.246-.6.814.814,0,0,1,.6-.246h5.748q.105,0,.105-.123a1,1,0,0,1,.308-.729,1.017,1.017,0,0,1,.747-.308h.088a1,1,0,0,1,.729.308,1,1,0,0,1,.308.729.109.109,0,0,0,.123.123h5.906a.843.843,0,0,1,.606.246.8.8,0,0,1,.255.6.8.8,0,0,1-.255.6.843.843,0,0,1-.606.246H118.2a.155.155,0,0,0-.176.176v.387a.155.155,0,0,0,.176.176h3.41a1.473,1.473,0,0,1,1.081.448,1.473,1.473,0,0,1,.448,1.081v.51a1.473,1.473,0,0,1-.448,1.081,1.473,1.473,0,0,1-1.081.448H118.2a.155.155,0,0,0-.176.176v.439a.155.155,0,0,0,.176.176h3.727A1.473,1.473,0,0,1,123-6.847a1.473,1.473,0,0,1,.448,1.081v.51a.155.155,0,0,0,.176.176Zm12.656-5.326a.088.088,0,0,0,0-.105.118.118,0,0,0-.105-.053h-3.973a.086.086,0,0,0-.079.044.111.111,0,0,0-.009.1,8.9,8.9,0,0,1,.457.984.223.223,0,0,1-.018.193.285.285,0,0,1-.176.123h3.164a.249.249,0,0,0,.246-.158A11.887,11.887,0,0,0,137.145-10.406Zm5.625,6.363a.853.853,0,0,1,.264.624.853.853,0,0,1-.264.624.843.843,0,0,1-.615.264h-4.166a.056.056,0,0,0-.053.035.035.035,0,0,0,.018.053A15.267,15.267,0,0,0,142.33-.809a.694.694,0,0,1,.51.475.62.62,0,0,1,.053.246.723.723,0,0,1-.158.439,1.732,1.732,0,0,1-.826.65,1.454,1.454,0,0,1-.545.105,1.265,1.265,0,0,1-.457-.088,14.967,14.967,0,0,1-4.746-2.584.07.07,0,0,0-.088-.009.084.084,0,0,0-.053.079v2a1.017,1.017,0,0,1-.308.747,1.04,1.04,0,0,1-1.477,0,1.017,1.017,0,0,1-.308-.747v-1.9a.084.084,0,0,0-.053-.079.07.07,0,0,0-.088.009,16.443,16.443,0,0,1-4.816,2.5,1.38,1.38,0,0,1-.439.07A1.241,1.241,0,0,1,128.039,1a1.657,1.657,0,0,1-.773-.58A.652.652,0,0,1,127.107,0a.718.718,0,0,1,.035-.229.646.646,0,0,1,.475-.457,18.33,18.33,0,0,0,4.447-1.758.035.035,0,0,0,.018-.053.056.056,0,0,0-.053-.035h-4.1a.863.863,0,0,1-.633-.264.853.853,0,0,1-.264-.624.853.853,0,0,1,.264-.624.863.863,0,0,1,.633-.264h5.818a.155.155,0,0,0,.176-.176v-.439a.155.155,0,0,0-.176-.176h-4.236a.736.736,0,0,1-.554-.229.759.759,0,0,1-.22-.545.759.759,0,0,1,.22-.545.736.736,0,0,1,.554-.229h4.236a.155.155,0,0,0,.176-.176v-.457a.155.155,0,0,0-.176-.176h-5.08a.814.814,0,0,1-.6-.246.8.8,0,0,1-.246-.589.8.8,0,0,1,.246-.589.814.814,0,0,1,.6-.246H131.1a.1.1,0,0,0,.088-.053.116.116,0,0,0,.018-.105,7.968,7.968,0,0,0-.457-1.072.151.151,0,0,1-.009-.132.134.134,0,0,1,.1-.079h-2.865a.857.857,0,0,1-.615-.255.825.825,0,0,1-.264-.615.825.825,0,0,1,.264-.615.857.857,0,0,1,.615-.255h1.371a.1.1,0,0,0,.088-.053.148.148,0,0,0,.018-.123q-.211-.51-.58-1.213a.8.8,0,0,1-.105-.387.659.659,0,0,1,.07-.3.737.737,0,0,1,.475-.475,1.3,1.3,0,0,1,.413-.07,1.3,1.3,0,0,1,.413.07,1.1,1.1,0,0,1,.615.51q.3.492.51.932a.678.678,0,0,1,.088.334.737.737,0,0,1-.07.3.8.8,0,0,1-.475.439v.018a.016.016,0,0,0,.018.018h1.354a.155.155,0,0,0,.176-.176v-1.758a.954.954,0,0,1,.3-.712.987.987,0,0,1,.712-.29.958.958,0,0,1,.7.29.968.968,0,0,1,.29.712v1.758a.155.155,0,0,0,.176.176h.984a.155.155,0,0,0,.176-.176v-1.758a.954.954,0,0,1,.3-.712.987.987,0,0,1,.712-.29.987.987,0,0,1,.712.29.954.954,0,0,1,.3.712v1.758a.155.155,0,0,0,.176.176h1.354v-.035a.427.427,0,0,1-.316-.272.5.5,0,0,1,.018-.431q.229-.457.457-.984a1.336,1.336,0,0,1,.615-.7,1.267,1.267,0,0,1,.6-.158,1.228,1.228,0,0,1,.3.035.849.849,0,0,1,.6.492,1.163,1.163,0,0,1,.053.334.86.86,0,0,1-.123.439q-.422.7-.7,1.125a.1.1,0,0,0-.009.105.1.1,0,0,0,.1.053H142.1a.849.849,0,0,1,.624.255.838.838,0,0,1,.255.615.838.838,0,0,1-.255.615.849.849,0,0,1-.624.255h-2.338a.284.284,0,0,0-.264.158q-.316.58-.668,1.125a.133.133,0,0,0,.009.105.084.084,0,0,0,.079.053h2.514a.814.814,0,0,1,.6.246.8.8,0,0,1,.246.589.8.8,0,0,1-.246.589.814.814,0,0,1-.6.246H136.2a.155.155,0,0,0-.176.176v.457a.155.155,0,0,0,.176.176h4.465a.744.744,0,0,1,.545.229.744.744,0,0,1,.229.545.744.744,0,0,1-.229.545.744.744,0,0,1-.545.229H136.2a.155.155,0,0,0-.176.176v.439a.155.155,0,0,0,.176.176h5.959A.843.843,0,0,1,142.77-4.043Zm10.459-6.135a1.221,1.221,0,0,1-.826-.387,1.244,1.244,0,0,1-.334-.861,1,1,0,0,1,.334-.756,1.1,1.1,0,0,1,.721-.264h.088q1.23.088,2.531.088,1.389,0,2.848-.105h.088a.992.992,0,0,1,.7.281,1,1,0,0,1,.352.773,1.182,1.182,0,0,1-.334.844,1.2,1.2,0,0,1-.809.387q-1.336.07-2.672.07T153.229-10.178ZM151.26-4.113a1.055,1.055,0,0,1,.422-.7,1.073,1.073,0,0,1,.668-.229.39.39,0,0,1,.123.018.87.87,0,0,1,.65.369,1.063,1.063,0,0,1,.193.615v.123a3.357,3.357,0,0,0-.035.475q0,1.266,2.5,1.266a21.025,21.025,0,0,0,3.27-.246,1.183,1.183,0,0,1,.193-.018,1,1,0,0,1,.65.246.967.967,0,0,1,.369.791,1.374,1.374,0,0,1-.316.9,1.221,1.221,0,0,1-.844.457,29.471,29.471,0,0,1-3.41.176,6.127,6.127,0,0,1-3.4-.765,2.466,2.466,0,0,1-1.134-2.171A9.065,9.065,0,0,1,151.26-4.113Zm-4.535-8.578a1.33,1.33,0,0,1,.457-.861,1.168,1.168,0,0,1,.773-.3.39.39,0,0,1,.123.018.97.97,0,0,1,.756.439,1.037,1.037,0,0,1,.193.6,1.09,1.09,0,0,1-.035.264q-.053.211-.088.387-.264,1.23-.571,3.287a23.289,23.289,0,0,0-.308,3.252,8.152,8.152,0,0,0,.053.967.042.042,0,0,0,.035.044.043.043,0,0,0,.053-.026q.141-.352.439-1a.505.505,0,0,1,.369-.308.548.548,0,0,1,.475.1,1.056,1.056,0,0,1,.352.51,1.156,1.156,0,0,1,.035.281,1,1,0,0,1-.053.316,34.012,34.012,0,0,0-1.055,3.709q-.053.246-.088.527a1.257,1.257,0,0,1-.316.756,1.007,1.007,0,0,1-.686.352h-.105a1.252,1.252,0,0,1-.721-.229,1.125,1.125,0,0,1-.439-.7,24.273,24.273,0,0,1-.457-4.834q0-.756.053-1.591t.149-1.7q.1-.861.176-1.433t.2-1.371q.123-.8.158-.958l.026-.193Q146.707-12.586,146.725-12.691Zm18.6,4.816a1.411,1.411,0,0,1-.527.105,1.369,1.369,0,0,1-.51-.105,1.282,1.282,0,0,1-.721-.721,1.222,1.222,0,0,1-.088-.439,1.112,1.112,0,0,1,.141-.527,1.184,1.184,0,0,1,.773-.6q.439-.123.844-.246.123-.035,1.037-.325t1.538-.466q.624-.176,1.591-.413t1.837-.36a11.543,11.543,0,0,1,1.608-.123,6.981,6.981,0,0,1,2.927.589,4.786,4.786,0,0,1,2.065,1.775,4.987,4.987,0,0,1,.773,2.786,5.556,5.556,0,0,1-2.347,4.6,12.719,12.719,0,0,1-6.5,2.241,1.183,1.183,0,0,1-.193.018,1.635,1.635,0,0,1-.879-.264,1.853,1.853,0,0,1-.738-.844.94.94,0,0,1-.07-.352A.866.866,0,0,1,168.029-2a.875.875,0,0,1,.721-.439,16.071,16.071,0,0,0,3.762-.677,6.224,6.224,0,0,0,2.575-1.512,3.237,3.237,0,0,0,.976-2.347,2.8,2.8,0,0,0-.87-2.127,3.4,3.4,0,0,0-2.435-.826Q170.227-9.932,165.322-7.875Zm16.77-3.656a1.314,1.314,0,0,1,.352-.914,1.174,1.174,0,0,1,.879-.387h.018a1.116,1.116,0,0,1,.9.422,1.2,1.2,0,0,1,.316.826.39.39,0,0,1-.018.123q-.035.492-.035.809v.773q0,1.652.105,3.006.422,4.324,1.916,4.324.756,0,1.494-2.145a.761.761,0,0,1,.58-.527.894.894,0,0,1,.176-.018.649.649,0,0,1,.527.264,2.379,2.379,0,0,1,.527,1.143,1.789,1.789,0,0,1,.035.352,2.086,2.086,0,0,1-.193.879,6.871,6.871,0,0,1-1.5,2.232,2.518,2.518,0,0,1-1.7.668,3.249,3.249,0,0,1-2.7-1.573A10.664,10.664,0,0,1,182.3-6.24q-.193-2-.193-4.816Zm9.984.809a.9.9,0,0,1-.158-.492,1.38,1.38,0,0,1,.035-.3.843.843,0,0,1,.545-.545,1.659,1.659,0,0,1,.527-.088,1.784,1.784,0,0,1,.492.07,1.485,1.485,0,0,1,.791.615A17.121,17.121,0,0,1,195.785-8.2a23.45,23.45,0,0,1,.949,3.612,2.132,2.132,0,0,1,.018.264,1.448,1.448,0,0,1-.229.773,1.516,1.516,0,0,1-.826.668.94.94,0,0,1-.352.07.984.984,0,0,1-.492-.141.971.971,0,0,1-.475-.721A18.046,18.046,0,0,0,192.076-10.723Zm8.719.6a1.281,1.281,0,0,1-.211.018,1.073,1.073,0,0,1-.668-.229,1.035,1.035,0,0,1-.439-.791v-.105a1.1,1.1,0,0,1,.281-.756,1.122,1.122,0,0,1,.844-.4,4.3,4.3,0,0,0,.51-.053q.51-.035,7.682-.668,1.828-.158,3.9-.264h.053a1.063,1.063,0,0,1,.756.3,1.074,1.074,0,0,1,.352.809,1.1,1.1,0,0,1-.334.809,1.166,1.166,0,0,1-.809.352,12.38,12.38,0,0,0-2.285.211,4.922,4.922,0,0,0-2.672,1.916,5.111,5.111,0,0,0-1.09,3.076,3.7,3.7,0,0,0,.343,1.626,3.229,3.229,0,0,0,.967,1.187,5.417,5.417,0,0,0,1.406.765,8.584,8.584,0,0,0,1.749.431,1.092,1.092,0,0,1,.756.492.97.97,0,0,1,.176.545,1.163,1.163,0,0,1-.053.334,1.685,1.685,0,0,1-.668.861,1.448,1.448,0,0,1-.773.229A1.867,1.867,0,0,1,210.3.545,9.7,9.7,0,0,1,208-.167a7.927,7.927,0,0,1-1.89-1.2,5.16,5.16,0,0,1-1.318-1.767,5.359,5.359,0,0,1-.483-2.276,6.683,6.683,0,0,1,.747-3.138,6.959,6.959,0,0,1,1.749-2.241.057.057,0,0,0,.018-.07.035.035,0,0,0-.053-.018Q202.852-10.477,200.795-10.125Zm21.34-4.57a.779.779,0,0,1,.571.237.789.789,0,0,1,.237.58.789.789,0,0,1-.237.58.779.779,0,0,1-.571.237H218.32a.779.779,0,0,1-.571-.237.789.789,0,0,1-.237-.58.789.789,0,0,1,.237-.58.779.779,0,0,1,.571-.237Zm.65,2.426a.814.814,0,0,1,.6.246.814.814,0,0,1,.246.6.814.814,0,0,1-.246.6.814.814,0,0,1-.6.246h-5.344a.814.814,0,0,1-.6-.246.814.814,0,0,1-.246-.6.814.814,0,0,1,.246-.6.814.814,0,0,1,.6-.246Zm-1.67,9.316a.155.155,0,0,0-.176-.176h-1.564a.155.155,0,0,0-.176.176V-1.23a.155.155,0,0,0,.176.176h1.564a.155.155,0,0,0,.176-.176Zm.316-1.863a1.473,1.473,0,0,1,1.081.448,1.473,1.473,0,0,1,.448,1.081V-.914a1.473,1.473,0,0,1-.448,1.081,1.473,1.473,0,0,1-1.081.448H219.27a.062.062,0,0,0-.07.07.61.61,0,0,1-.185.448.61.61,0,0,1-.448.185H218.3a.869.869,0,0,1-.65-.272A.892.892,0,0,1,217.389.4V-3.287a1.473,1.473,0,0,1,.448-1.081,1.473,1.473,0,0,1,1.081-.448Zm-3.2-.9a.773.773,0,0,1-.554-.229.75.75,0,0,1-.237-.562.779.779,0,0,1,.237-.571.759.759,0,0,1,.554-.237h3.955a.75.75,0,0,1,.563.237.794.794,0,0,1,.229.571.764.764,0,0,1-.229.563.764.764,0,0,1-.562.229Zm.035-2.426a.8.8,0,0,1-.589-.237.789.789,0,0,1-.237-.58.789.789,0,0,1,.237-.58.8.8,0,0,1,.589-.237h3.9a.779.779,0,0,1,.571.237.789.789,0,0,1,.237.58.789.789,0,0,1-.237.58.779.779,0,0,1-.571.237Zm14.2,3.639a.933.933,0,0,1,.686.281.933.933,0,0,1,.281.686.962.962,0,0,1-.281.694.919.919,0,0,1-.686.29h-2.777a.155.155,0,0,0-.176.176V.51a1.017,1.017,0,0,1-.308.747,1.061,1.061,0,0,1-1.494,0,1.017,1.017,0,0,1-.308-.747V-2.373a.155.155,0,0,0-.176-.176h-2.865a.919.919,0,0,1-.686-.29.962.962,0,0,1-.281-.694.933.933,0,0,1,.281-.686.933.933,0,0,1,.686-.281h2.865a.155.155,0,0,0,.176-.176V-6.135a.155.155,0,0,0-.176-.176h-1.951a.913.913,0,0,1-.668-.281.913.913,0,0,1-.281-.668.913.913,0,0,1,.281-.668.913.913,0,0,1,.668-.281h1.951a.155.155,0,0,0,.176-.176V-9.738a.155.155,0,0,0-.176-.176h-2.285a.919.919,0,0,1-.686-.29.952.952,0,0,1-.281-.686.952.952,0,0,1,.281-.686.919.919,0,0,1,.686-.29h.492a.118.118,0,0,0,.105-.053.116.116,0,0,0,.018-.105,11.965,11.965,0,0,0-.633-1.67.892.892,0,0,1-.088-.369.773.773,0,0,1,.07-.316.737.737,0,0,1,.475-.475.985.985,0,0,1,.369-.07.985.985,0,0,1,.369.07.975.975,0,0,1,.563.492,12.253,12.253,0,0,1,.6,1.354.946.946,0,0,1,.053.3.78.78,0,0,1-.088.352.857.857,0,0,1-.492.457v.018a.016.016,0,0,0,.018.018H230.1q.018,0,.018-.009t-.018-.009a.692.692,0,0,1-.4-.387.753.753,0,0,1-.053-.264.946.946,0,0,1,.053-.3q.316-.7.58-1.424a1.147,1.147,0,0,1,.563-.633,1.014,1.014,0,0,1,.51-.141,1,1,0,0,1,.316.053.844.844,0,0,1,.58.492.985.985,0,0,1,.07.369,1.05,1.05,0,0,1-.088.4q-.527,1.02-.932,1.705a.1.1,0,0,0,.009.088.084.084,0,0,0,.079.053h.809a.928.928,0,0,1,.677.29.937.937,0,0,1,.29.686.937.937,0,0,1-.29.686.928.928,0,0,1-.677.29h-2.5a.155.155,0,0,0-.176.176v1.354a.155.155,0,0,0,.176.176h2.145a.884.884,0,0,1,.659.281.927.927,0,0,1,.272.668.927.927,0,0,1-.272.668.884.884,0,0,1-.659.281h-2.145a.155.155,0,0,0-.176.176v1.459a.155.155,0,0,0,.176.176Zm5.555-8.332v-.105a1.266,1.266,0,0,1,.334-.879,1.116,1.116,0,0,1,.9-.422h.018a1.165,1.165,0,0,1,.932.439,1.308,1.308,0,0,1,.334.879v.123a9.262,9.262,0,0,0-.053.949q-.229,4.588-.229,8.121,0,2.373,2.461,2.373a6.7,6.7,0,0,0,5.326-2.6,1.054,1.054,0,0,1,.791-.387h.035a.95.95,0,0,1,.756.352A1.677,1.677,0,0,1,250-2.936a1.362,1.362,0,0,1-.369.949A9.637,9.637,0,0,1,246.709.2a8.847,8.847,0,0,1-4.008.87A5.393,5.393,0,0,1,239.15.018a3.993,3.993,0,0,1-1.266-3.252q0-1.318.088-4.632t.088-3.981Q238.061-12.357,238.025-12.832Zm24.152-.9a1.532,1.532,0,0,1,.967-.457h.105a1.308,1.308,0,0,1,.879.334,1.1,1.1,0,0,1,.387.844,1.134,1.134,0,0,1-.439.932q-.018,0-.475.352-.158.141-2.074,1.661t-2.619,2.118a3.18,3.18,0,0,0-.624.677.463.463,0,0,0,.009.483,3.188,3.188,0,0,0,.65.686q.141.123,2.276,1.881t3.226,2.725a1.238,1.238,0,0,1,.422.949,1.293,1.293,0,0,1-.422.967,1.362,1.362,0,0,1-.949.369h-.07a1.44,1.44,0,0,1-.984-.457q-.387-.4-.6-.615-1.072-1.143-5.326-4.746A3.71,3.71,0,0,1,255.393-6.4a1.275,1.275,0,0,1-.123-.545,1.528,1.528,0,0,1,.176-.686,4.925,4.925,0,0,1,1.23-1.354q3.973-3.252,5.045-4.307Q261.967-13.518,262.178-13.729Zm13.236,6.223a.155.155,0,0,0-.176.176v.756a.155.155,0,0,0,.176.176h7.172a.155.155,0,0,0,.176-.176V-7.33a.155.155,0,0,0-.176-.176Zm0-2.865a.155.155,0,0,0-.176.176v.756a.155.155,0,0,0,.176.176h7.172a.155.155,0,0,0,.176-.176V-10.2a.155.155,0,0,0-.176-.176Zm0-2.848a.155.155,0,0,0-.176.176v.756a.155.155,0,0,0,.176.176h7.172a.155.155,0,0,0,.176-.176v-.756a.155.155,0,0,0-.176-.176ZM282.8-1.02h1.881a.573.573,0,0,0,.6-.422,4.042,4.042,0,0,0,.141-.9.647.647,0,0,1,.352-.527.78.78,0,0,1,.352-.088.946.946,0,0,1,.3.053,1.624,1.624,0,0,1,.7.58,1.079,1.079,0,0,1,.211.633.894.894,0,0,1-.018.176,4.247,4.247,0,0,1-.58,1.793,2.138,2.138,0,0,1-1.863.738H282.5A2.951,2.951,0,0,1,280.38.457a3.1,3.1,0,0,1-.536-2.109V-4.342a.155.155,0,0,0-.176-.176H277.84a.174.174,0,0,0-.193.176,9.111,9.111,0,0,1-.439,1.811,5.551,5.551,0,0,1-.958,1.564A5.159,5.159,0,0,1,274.5.316a10.366,10.366,0,0,1-1.635.633,1.218,1.218,0,0,1-.352.053,1.112,1.112,0,0,1-.527-.141,1.782,1.782,0,0,1-.721-.633.742.742,0,0,1-.123-.4.8.8,0,0,1,.053-.281.737.737,0,0,1,.492-.457,7.626,7.626,0,0,0,1.723-.633,3.541,3.541,0,0,0,1.406-1.23,4.719,4.719,0,0,0,.51-1.564.132.132,0,0,0-.026-.123.142.142,0,0,0-.114-.053h-.492a1.473,1.473,0,0,1-1.081-.448,1.473,1.473,0,0,1-.448-1.081V-13.57a1.473,1.473,0,0,1,.448-1.081,1.473,1.473,0,0,1,1.081-.448h8.719a1.473,1.473,0,0,1,1.081.448,1.473,1.473,0,0,1,.448,1.081v7.523a1.473,1.473,0,0,1-.448,1.081,1.473,1.473,0,0,1-1.081.448h-1.23a.155.155,0,0,0-.176.176V-1.67q0,.439.132.545A1.257,1.257,0,0,0,282.8-1.02Zm14.045-.053a6.667,6.667,0,0,0,.861-.053q.176,0,.158-.193a2.228,2.228,0,0,0-.58-1.257,1.535,1.535,0,0,0-1.143-.466,1.241,1.241,0,0,0-.8.246.742.742,0,0,0-.308.6.933.933,0,0,0,.51.809A2.431,2.431,0,0,0,296.842-1.072Zm2.953-12.709a.988.988,0,0,1,.193-.018,1.626,1.626,0,0,1,.668.141,1.493,1.493,0,0,1,.686.51.916.916,0,0,1,.176.545.894.894,0,0,1-.018.176.92.92,0,0,1-.4.615l-.422.281q-.422.281-1.037.773t-1.6,1.3q-.984.809-1.178.949a.058.058,0,0,0,0,.062q.018.026.035.009a7.213,7.213,0,0,1,1.512-.141,5.756,5.756,0,0,1,3.8,1.266A4,4,0,0,1,303.732-4.1a4.525,4.525,0,0,1-1.67,3.612A7.2,7.2,0,0,1,297.281.932a5.6,5.6,0,0,1-3.111-.8,2.429,2.429,0,0,1-1.23-2.118,2.542,2.542,0,0,1,.905-1.934,3.272,3.272,0,0,1,2.294-.826,3.858,3.858,0,0,1,2.514.8A3.5,3.5,0,0,1,299.9-1.881a.138.138,0,0,0,.07.1.133.133,0,0,0,.123-.009,2.582,2.582,0,0,0,1.3-2.355,2.268,2.268,0,0,0-1.055-1.925A4.449,4.449,0,0,0,297.7-6.82a6.315,6.315,0,0,0-2.988.694,10.829,10.829,0,0,0-2.654,2.065,1.147,1.147,0,0,1-.791.352h-.018a1.081,1.081,0,0,1-.791-.334,1.041,1.041,0,0,1-.3-.738,1.067,1.067,0,0,1,.387-.844q.369-.3,1.731-1.433t1.837-1.521q.246-.211,1.652-1.362t1.951-1.626a.1.1,0,0,0,.009-.07q-.009-.035-.062-.035-2.408.053-4.131.193a2.712,2.712,0,0,0-.3.018h-.088a1.12,1.12,0,0,1-.738-.281,1,1,0,0,1-.369-.791.99.99,0,0,1,.325-.747,1.076,1.076,0,0,1,.765-.308h.035q.246.018.475.018.844,0,2.953-.062t2.795-.114Z" transform="translate(-1.09 15.627)" fill="#fff"/>
</svg>
