<svg xmlns="http://www.w3.org/2000/svg" width="282.154" height="264" viewBox="0 0 282.154 264">
  <g id="グループ_6221" data-name="グループ 6221" transform="translate(2695 -2874)">
    <g id="グループ_6220" data-name="グループ 6220" transform="translate(-2695 2874)">
      <g id="パス_6647" data-name="パス 6647" fill="#f7e1d0">
        <path d="M 141.0771484375 262.5 C 131.5996856689453 262.5 122.1286849975586 261.6067199707031 112.9272537231445 259.8450012207031 C 103.9612884521484 258.1283264160156 95.14239501953125 255.5669708251953 86.71553802490234 252.2320404052734 C 78.44286346435547 248.9581146240234 70.46414947509766 244.9061126708984 63.00104141235352 240.1885375976562 C 55.61029052734375 235.5167083740234 48.66072082519531 230.1517791748047 42.34539794921875 224.2427825927734 C 36.03179168701172 218.3354339599609 30.30022048950195 211.8357543945312 25.30989837646484 204.9243621826172 C 20.27336311340332 197.9489593505859 15.94779109954834 190.4926452636719 12.45336246490479 182.7624664306641 C 8.895326614379883 174.8915710449219 6.162755489349365 166.6551818847656 4.331541061401367 158.2821044921875 C 2.452684164047241 149.6910400390625 1.500005602836609 140.8484649658203 1.500005602836609 132 C 1.500005602836609 123.1515350341797 2.452684164047241 114.308967590332 4.331541061401367 105.7178955078125 C 6.162755489349365 97.34481811523438 8.895326614379883 89.10842895507812 12.45336246490479 81.23753356933594 C 15.94779109954834 73.50735473632812 20.27336311340332 66.05103302001953 25.30989837646484 59.07564163208008 C 30.30022048950195 52.16424942016602 36.03179168701172 45.66456985473633 42.34539794921875 39.7572135925293 C 48.66072082519531 33.84821319580078 55.61029052734375 28.48328590393066 63.00104141235352 23.81146430969238 C 70.46414947509766 19.09389305114746 78.44286346435547 15.04189300537109 86.71553802490234 11.76796436309814 C 95.14239501953125 8.433035850524902 103.9612884521484 5.871678352355957 112.9272537231445 4.15500020980835 C 122.1286849975586 2.393285751342773 131.5996856689453 1.5 141.0771484375 1.5 C 150.5546112060547 1.5 160.0256195068359 2.393285751342773 169.2270355224609 4.15500020980835 C 178.1930084228516 5.871678352355957 187.0119018554688 8.433035850524902 195.4387969970703 11.76796436309814 C 203.7114715576172 15.04189300537109 211.6901550292969 19.09389305114746 219.1532592773438 23.81146430969238 C 226.5440063476562 28.48328590393066 233.4935760498047 33.84821319580078 239.8089294433594 39.7572135925293 C 246.1225128173828 45.66456985473633 251.8540802001953 52.16424942016602 256.8444213867188 59.07564163208008 C 261.8809204101562 66.05103302001953 266.2065124511719 73.50735473632812 269.700927734375 81.23753356933594 C 273.2589721679688 89.10842895507812 275.9915466308594 97.34481811523438 277.82275390625 105.7178955078125 C 279.7015991210938 114.308967590332 280.654296875 123.1515350341797 280.654296875 132 C 280.654296875 140.8484649658203 279.7015991210938 149.6910400390625 277.82275390625 158.2821044921875 C 275.9915466308594 166.6551818847656 273.2589721679688 174.8915710449219 269.700927734375 182.7624664306641 C 266.2065124511719 190.4926452636719 261.8809204101562 197.9489593505859 256.8444213867188 204.9243621826172 C 251.8540802001953 211.8357543945312 246.1225128173828 218.3354339599609 239.8089294433594 224.2427825927734 C 233.4935760498047 230.1517791748047 226.5440063476562 235.5167083740234 219.1532592773438 240.1885375976562 C 211.6901550292969 244.9061126708984 203.7114715576172 248.9581146240234 195.4387969970703 252.2320404052734 C 187.0119018554688 255.5669708251953 178.1930084228516 258.1283264160156 169.2270355224609 259.8450012207031 C 160.0256195068359 261.6067199707031 150.5546112060547 262.5 141.0771484375 262.5 Z" stroke="none"/>
        <path d="M 141.0771484375 3 C 131.6941070556641 3 122.3179931640625 3.88427734375 113.2093353271484 5.628265380859375 C 104.3353424072266 7.327301025390625 95.60726928710938 9.862274169921875 87.26750183105469 13.16273498535156 C 79.08152770996094 16.40231323242188 71.18679809570312 20.41165161132812 63.80253601074219 25.07939147949219 C 56.49125671386719 29.70095825195312 49.61683654785156 35.0078125 43.37022399902344 40.8525390625 C 37.1270751953125 46.69395446777344 31.45988464355469 53.12054443359375 26.5260009765625 59.9537353515625 C 21.54815673828125 66.84780883789062 17.2733154296875 74.21661376953125 13.8201904296875 81.85537719726562 C 10.30517578125 89.63107299804688 7.60577392578125 97.76737976074219 5.796905517578125 106.0383453369141 C 3.941009521484375 114.5243530273438 3 123.2591094970703 3 132 C 3 140.7408752441406 3.941009521484375 149.4756469726562 5.796905517578125 157.9616546630859 C 7.60577392578125 166.2326049804688 10.30517578125 174.3689270019531 13.8201904296875 182.1446228027344 C 17.2733154296875 189.7833862304688 21.54815673828125 197.1521911621094 26.5260009765625 204.0462646484375 C 31.45988464355469 210.8794555664062 37.1270751953125 217.3060302734375 43.37022399902344 223.1474609375 C 49.61683654785156 228.9921875 56.49125671386719 234.2990417480469 63.80253601074219 238.9206237792969 C 71.18679809570312 243.5883483886719 79.08152770996094 247.5976867675781 87.26750183105469 250.8372650146484 C 95.60726928710938 254.1377258300781 104.3353424072266 256.6726989746094 113.2093353271484 258.3717346191406 C 122.3179931640625 260.11572265625 131.6941070556641 261 141.0771484375 261 C 150.4601898193359 261 159.8363037109375 260.11572265625 168.9449462890625 258.3717346191406 C 177.8189544677734 256.6726989746094 186.5470275878906 254.1377258300781 194.8868103027344 250.8372650146484 C 203.07275390625 247.5976867675781 210.9674987792969 243.5883483886719 218.3517608642578 238.9206237792969 C 225.6630249023438 234.2990417480469 232.5374603271484 228.9921875 238.7840728759766 223.1474609375 C 245.0272216796875 217.3060302734375 250.6944122314453 210.8794555664062 255.6282958984375 204.0462646484375 C 260.6061401367188 197.1521911621094 264.8809814453125 189.7833862304688 268.3341064453125 182.1446228027344 C 271.84912109375 174.3689270019531 274.5485229492188 166.2326049804688 276.3573913574219 157.9616546630859 C 278.2132873535156 149.4756469726562 279.154296875 140.7408752441406 279.154296875 132 C 279.154296875 123.2591094970703 278.2132873535156 114.5243530273438 276.3573913574219 106.0383453369141 C 274.5485229492188 97.76737976074219 271.84912109375 89.63107299804688 268.3341064453125 81.85537719726562 C 264.8809814453125 74.21661376953125 260.6061401367188 66.84780883789062 255.6282958984375 59.9537353515625 C 250.6944122314453 53.12054443359375 245.0272216796875 46.69395446777344 238.7840728759766 40.8525390625 C 232.5374603271484 35.0078125 225.6630249023438 29.70095825195312 218.3517608642578 25.07939147949219 C 210.9674987792969 20.41165161132812 203.07275390625 16.40231323242188 194.8868103027344 13.16273498535156 C 186.5470275878906 9.862274169921875 177.8189544677734 7.327301025390625 168.9449462890625 5.628265380859375 C 159.8363037109375 3.88427734375 150.4601898193359 3 141.0771484375 3 M 141.0771484375 0 C 218.9919128417969 0 282.154296875 59.09841918945312 282.154296875 132 C 282.154296875 204.9015808105469 218.9919128417969 264 141.0771484375 264 C 63.16238403320312 264 0 204.9015808105469 0 132 C 0 59.09841918945312 63.16238403320312 0 141.0771484375 0 Z" stroke="none" fill="#e6753d"/>
      </g>
      <path id="パス_6904" data-name="パス 6904" d="M12.468-12.269h.2a2.876,2.876,0,0,1,1.61.415,1.094,1.094,0,0,1,.5.631,1.685,1.685,0,0,1,.066.465,2.038,2.038,0,0,1-.033.365l-.066.266a16.5,16.5,0,0,1-2.557,6.176A13.087,13.087,0,0,1,6.641.266a1.8,1.8,0,0,1-.714.149A1.685,1.685,0,0,1,5.462.349,2.063,2.063,0,0,1,4.433-.266a.818.818,0,0,1-.216-.548,1.029,1.029,0,0,1,.033-.249.854.854,0,0,1,.581-.6,10.9,10.9,0,0,0,5.329-3.6,8.766,8.766,0,0,0,1.262-2.208,12.691,12.691,0,0,0,.714-2.424.176.176,0,0,0-.042-.116.134.134,0,0,0-.108-.05H3.4a.048.048,0,0,1-.033.017,1.142,1.142,0,0,1-.813-.332,1.08,1.08,0,0,1-.349-.813A1.057,1.057,0,0,1,2.573-12a1.05,1.05,0,0,1,.747-.3.273.273,0,0,1,.083.017q.531.033.847.033H12.1Q12.3-12.252,12.468-12.269ZM28.389-8.284a.147.147,0,0,0,.166.166H30.4q.149,0,.349-.017h.066a.95.95,0,0,1,.647.249.881.881,0,0,1,.315.681.94.94,0,0,1-.3.714,1,1,0,0,1-.714.282H28.6a.159.159,0,0,0-.116.05.159.159,0,0,0-.05.116q.116,4.615.116,5.943A1.365,1.365,0,0,1,28.106.946a1.69,1.69,0,0,1-1.2.415q-.764,0-1.66-.033a1.036,1.036,0,0,1-.714-.315,1.015,1.015,0,0,1-.332-.764.8.8,0,0,1,.249-.581.825.825,0,0,1,.581-.232H25.1q.581.05,1,.05.432,0,.432-.515,0-.8-.017-3.2a.051.051,0,0,0-.042-.058.079.079,0,0,0-.075.025,16.3,16.3,0,0,1-1.959,1.959A19.433,19.433,0,0,1,21.98-.5a1.224,1.224,0,0,1-.664.2,1.641,1.641,0,0,1-.232-.017,1.357,1.357,0,0,1-.813-.465.818.818,0,0,1-.216-.548,1.21,1.21,0,0,1,.017-.2.91.91,0,0,1,.465-.614A17.691,17.691,0,0,0,23.292-4a13.743,13.743,0,0,0,2.092-2.075.066.066,0,0,0,.008-.083.08.08,0,0,0-.075-.05h-3.47q-.249,0-.564.017H21.25a.984.984,0,0,1-.7-.282.94.94,0,0,1-.3-.714.921.921,0,0,1,.3-.7,1.034,1.034,0,0,1,.681-.249h.05q.3.017.515.017h4.449a.159.159,0,0,0,.116-.05.159.159,0,0,0,.05-.116q0-.332-.033-.88,0-.149-.017-.315v-.083a.958.958,0,0,1,.266-.681.9.9,0,0,1,.714-.332,1,1,0,0,1,.747.332,1.083,1.083,0,0,1,.282.747v.332Zm8.5,3.021h-.033a1.255,1.255,0,0,1-.9-.365,1.178,1.178,0,0,1-.4-.9,1.23,1.23,0,0,1,.4-.921,1.229,1.229,0,0,1,.88-.349h.05q.8.033,1.411.033h9.131q.315,0,.664-.017h.05a1.229,1.229,0,0,1,.88.349,1.169,1.169,0,0,1,.4.9,1.187,1.187,0,0,1-.4.913,1.229,1.229,0,0,1-.88.349H38.3Q37.619-5.279,36.889-5.263Zm29.8,3.868a1.169,1.169,0,0,1,.116.5,1.238,1.238,0,0,1-.083.448,1.15,1.15,0,0,1-.664.7,1.136,1.136,0,0,1-.481.116,1.172,1.172,0,0,1-.465-.1A1.221,1.221,0,0,1,64.447-.4q-.133-.365-.282-.7a.184.184,0,0,0-.216-.133Q60.181-.78,54.038-.149q-.133.017-.349.033a.933.933,0,0,1-.183.017,1.233,1.233,0,0,1-.764-.266,1.209,1.209,0,0,1-.5-.83.933.933,0,0,1-.017-.183,1.037,1.037,0,0,1,.266-.681,1.076,1.076,0,0,1,.813-.382h.614l.3-.017a.208.208,0,0,0,.216-.166q.681-1.743,1.569-4.491t1.32-4.292l.149-.6a1.509,1.509,0,0,1,.6-.88,1.322,1.322,0,0,1,.747-.232,1.092,1.092,0,0,1,.266.033,1.055,1.055,0,0,1,.764.564A1.1,1.1,0,0,1,60-11.97a1.2,1.2,0,0,1-.083.432l-.216.614q-2.125,6.524-2.706,8.1a.11.11,0,0,0,.017.1.067.067,0,0,0,.083.033q2.673-.266,5.877-.647a.093.093,0,0,0,.091-.05.164.164,0,0,0,.008-.116q-.581-1.162-1.079-2.009a.9.9,0,0,1-.149-.5.94.94,0,0,1,.05-.3.846.846,0,0,1,.531-.581,1.2,1.2,0,0,1,.515-.116,1.154,1.154,0,0,1,.415.083,1.253,1.253,0,0,1,.73.564A51.252,51.252,0,0,1,66.688-1.395Zm6.624-10.99a1.164,1.164,0,0,1,.415-.83,1.088,1.088,0,0,1,.747-.3h.133a1.025,1.025,0,0,1,.78.465,1.084,1.084,0,0,1,.216.647,2.013,2.013,0,0,1-.017.249l-.033.166q-.033.133-.315,1.577a.106.106,0,0,0,.025.108.146.146,0,0,0,.108.042q.946-.066,1.245-.066,3.038,0,3.038,3.221a26.226,26.226,0,0,1-.224,3.428,8.884,8.884,0,0,1-.722,2.714A2.5,2.5,0,0,1,77.629.224a3.618,3.618,0,0,1-1.693.357,8.747,8.747,0,0,1-.9-.05A1.43,1.43,0,0,1,74.184.1a1.591,1.591,0,0,1-.44-.88.546.546,0,0,1-.017-.133.709.709,0,0,1,.249-.531.759.759,0,0,1,.531-.216.769.769,0,0,1,.149.017,5.77,5.77,0,0,0,.963.116,1.255,1.255,0,0,0,1.262-.73A6.635,6.635,0,0,0,77.4-4.217a19,19,0,0,0,.183-2.656A1.519,1.519,0,0,0,77.2-8.1a2.108,2.108,0,0,0-1.278-.3q-.216,0-1,.066a.2.2,0,0,0-.2.166Q74.209-6.176,73.5-4.092a27.038,27.038,0,0,1-1.561,3.71,1.215,1.215,0,0,1-.73.631,1.238,1.238,0,0,1-.448.083,1.281,1.281,0,0,1-.515-.116.9.9,0,0,1-.548-.6.94.94,0,0,1-.05-.3,1.015,1.015,0,0,1,.149-.531A25.931,25.931,0,0,0,72.5-7.936a.1.1,0,0,0-.025-.1.1.1,0,0,0-.108-.033q-.83.1-1.278.166l-.73.083a.845.845,0,0,1-.166.017,1.056,1.056,0,0,1-.664-.232,1.032,1.032,0,0,1-.4-.747v-.1a.928.928,0,0,1,.282-.681,1.073,1.073,0,0,1,.764-.349q.116,0,.324-.008t.324-.008q.747-.017,2.009-.116a.208.208,0,0,0,.2-.183Q73.229-11.389,73.313-12.385Zm6.939,2.341a.878.878,0,0,1-.149-.481.894.894,0,0,1,.05-.282.847.847,0,0,1,.5-.564,1.2,1.2,0,0,1,.515-.116,1.206,1.206,0,0,1,.382.066,1.185,1.185,0,0,1,.7.564A31.419,31.419,0,0,1,84.22-6.641a1.2,1.2,0,0,1,.083.432,1.21,1.21,0,0,1-.1.481,1.288,1.288,0,0,1-.664.681.9.9,0,0,1-.407.1.9.9,0,0,1-.407-.1,1,1,0,0,1-.564-.631A20.229,20.229,0,0,0,80.252-10.044Zm10.94-1.312a.953.953,0,0,1-.647-.465.987.987,0,0,1-.149-.515.894.894,0,0,1,.05-.282.955.955,0,0,1,.481-.631,1.075,1.075,0,0,1,.531-.149,1.3,1.3,0,0,1,.282.033q2.042.5,4.648.9a.978.978,0,0,1,.664.415.941.941,0,0,1,.166.531.843.843,0,0,1-.033.232,1.082,1.082,0,0,1-.481.7,1.119,1.119,0,0,1-.631.2,1.21,1.21,0,0,1-.2-.017Q93.7-10.791,91.192-11.355ZM88.453-9.413a1.128,1.128,0,0,1,.4-.764,1.056,1.056,0,0,1,.664-.232h.166a1.021,1.021,0,0,1,.714.448,1.06,1.06,0,0,1,.216.631,1.21,1.21,0,0,1-.017.2q-.216,1.245-.382,2.64a.057.057,0,0,0,.025.075.055.055,0,0,0,.075-.008,8.315,8.315,0,0,1,4.814-1.494A4.947,4.947,0,0,1,98.539-6.79a3.516,3.516,0,0,1,1.27,2.723,4.812,4.812,0,0,1-.274,1.652,4.032,4.032,0,0,1-.888,1.4A4.951,4.951,0,0,1,97.086.066a9.006,9.006,0,0,1-2.357.647,15.9,15.9,0,0,1-2.274.149q-.448,0-.93-.017A1.614,1.614,0,0,1,90.6.49a1.623,1.623,0,0,1-.556-.822.976.976,0,0,1-.033-.232.727.727,0,0,1,.183-.481.758.758,0,0,1,.6-.266h.083q.83.066,1.561.066a8.122,8.122,0,0,0,3.287-.564,2.488,2.488,0,0,0,1.727-2.308,1.619,1.619,0,0,0-.706-1.345,2.941,2.941,0,0,0-1.818-.531,6.779,6.779,0,0,0-2.64.506,5.2,5.2,0,0,0-2.009,1.453.69.69,0,0,1-.1.133,1.659,1.659,0,0,1-.681.531,1.281,1.281,0,0,1-.515.116,1.374,1.374,0,0,1-.3-.033,1.026,1.026,0,0,1-.647-.465,1.057,1.057,0,0,1-.183-.581,1.21,1.21,0,0,1,.017-.2Q88.254-6.923,88.453-9.413ZM4.748,24.489q.531,0,.531-.73,0-.7-.033-1.909a.093.093,0,0,0-.149-.083,4.13,4.13,0,0,0-1.154.847,1.353,1.353,0,0,0-.423.88.869.869,0,0,0,.432.681A1.386,1.386,0,0,0,4.748,24.489Zm2.391-6.06v.432a.134.134,0,0,0,.05.108.125.125,0,0,0,.116.025,13.223,13.223,0,0,1,3.071-.4,5.306,5.306,0,0,1,3.3,1,3.2,3.2,0,0,1,1.312,2.689A3.919,3.919,0,0,1,14.1,24.9a5.216,5.216,0,0,1-2.814,1.536q-.5.1-1.062.166a1.118,1.118,0,0,1-.183.017,1.322,1.322,0,0,1-.747-.232,1.546,1.546,0,0,1-.614-.764.894.894,0,0,1-.05-.282.777.777,0,0,1,.149-.448.791.791,0,0,1,.664-.365,9.23,9.23,0,0,0,.93-.1,3.88,3.88,0,0,0,1.76-.747,1.73,1.73,0,0,0,.681-1.411,1.538,1.538,0,0,0-.681-1.328,3.042,3.042,0,0,0-1.793-.481,11.681,11.681,0,0,0-3,.415.208.208,0,0,0-.166.216q.017.448.042,1.17t.033,1.179q.008.457.008.689a3.347,3.347,0,0,1-.473,2.059,1.664,1.664,0,0,1-1.37.581,4.245,4.245,0,0,1-1.76-.415,4.543,4.543,0,0,1-1.569-1.17,2.411,2.411,0,0,1-.656-1.6,3.005,3.005,0,0,1,1.029-2.083,8.7,8.7,0,0,1,2.59-1.751.235.235,0,0,0,.149-.232Q5.18,19.177,5.18,18.5V17.251a.134.134,0,0,0-.05-.108.176.176,0,0,0-.116-.042q-.481.017-.73.017-.747,0-1.328-.017a1.025,1.025,0,0,1-.73-.332,1.07,1.07,0,0,1-.3-.764.874.874,0,0,1,.282-.664.95.95,0,0,1,.647-.249h.066q.6.05,1.312.05.282,0,.8-.033a.164.164,0,0,0,.183-.166v-1.61a1.083,1.083,0,0,1,.282-.747.982.982,0,0,1,.764-.332,1.033,1.033,0,0,1,.78.332A1.078,1.078,0,0,1,7.3,13.3v.1q-.017.183-.033.315-.017.432-.033,1.029a.124.124,0,0,0,.149.149Q8.4,14.744,9.3,14.545a1.21,1.21,0,0,1,.2-.017.865.865,0,0,1,.515.166.8.8,0,0,1,.332.681,1.212,1.212,0,0,1-.266.78,1.23,1.23,0,0,1-.747.448q-.863.149-2.009.3a.164.164,0,0,0-.166.183Q7.139,17.55,7.139,18.43Zm5-2.274a.912.912,0,0,1-.465-.564,1.092,1.092,0,0,1-.033-.266.9.9,0,0,1,.116-.432.974.974,0,0,1,.581-.465.894.894,0,0,1,.282-.05.933.933,0,0,1,.448.116q1.328.7,2.44,1.378a1.026,1.026,0,0,1,.465.647,1.763,1.763,0,0,1,.017.249,1.075,1.075,0,0,1-.149.531.864.864,0,0,1-.581.415,1.44,1.44,0,0,1-.2.017.941.941,0,0,1-.531-.166A26.906,26.906,0,0,0,12.136,16.155Zm10.857-2.191a.147.147,0,0,0-.166-.166H20.569a.147.147,0,0,0-.166.166v.581a.147.147,0,0,0,.166.166h2.258a.147.147,0,0,0,.166-.166ZM20.4,16.869a.147.147,0,0,0,.166.166h2.258a.147.147,0,0,0,.166-.166v-.631a.147.147,0,0,0-.166-.166H20.569a.147.147,0,0,0-.166.166Zm4.482.266a1.445,1.445,0,0,1-1.444,1.444H20.569a.147.147,0,0,0-.166.166v7.736a.947.947,0,0,1-.3.706.988.988,0,0,1-.714.291.992.992,0,0,1-1-1V13.7a1.445,1.445,0,0,1,1.444-1.444h3.6A1.445,1.445,0,0,1,24.886,13.7Zm1.959,4.449a.147.147,0,0,0-.166-.166H24.205a.147.147,0,0,0-.166.166v1.66a.147.147,0,0,0,.166.166h2.474a.147.147,0,0,0,.166-.166Zm1.893,2.059a1.445,1.445,0,0,1-1.444,1.444H24.139a.088.088,0,0,0-.1.1.85.85,0,0,1-.847.847h-.1a.922.922,0,0,1-.664-.274.9.9,0,0,1-.282-.672v-3.9a1.445,1.445,0,0,1,1.444-1.444h3.7a1.445,1.445,0,0,1,1.444,1.444Zm-.747-6.757a.147.147,0,0,0,.166.166H30.5a.147.147,0,0,0,.166-.166v-.647a.147.147,0,0,0-.166-.166H28.156a.147.147,0,0,0-.166.166Zm2.673-2.938a.147.147,0,0,0-.166-.166H28.156a.147.147,0,0,0-.166.166v.6a.147.147,0,0,0,.166.166H30.5a.147.147,0,0,0,.166-.166Zm.614-1.693A1.445,1.445,0,0,1,32.722,13.7V25.07a3.309,3.309,0,0,1-.208,1.312,1.434,1.434,0,0,1-.739.714,6.229,6.229,0,0,1-2.241.365H29.5a1.231,1.231,0,0,1-.8-.282,1.707,1.707,0,0,1-.531-.764,1.029,1.029,0,0,1-.033-.249.738.738,0,0,1,.133-.415.639.639,0,0,1,.564-.3h.614q.465,0,.78-.017a.486.486,0,0,0,.332-.091.4.4,0,0,0,.1-.307V18.762A.147.147,0,0,0,30.5,18.6H27.509a1.445,1.445,0,0,1-1.444-1.444V13.7a1.445,1.445,0,0,1,1.444-1.444Zm4.7,2.855a1.241,1.241,0,0,1,.332-.863,1.109,1.109,0,0,1,.83-.365h.017a1.054,1.054,0,0,1,.847.4,1.129,1.129,0,0,1,.3.78.368.368,0,0,1-.017.116q-.033.465-.033.764v.73q0,1.561.1,2.839.4,4.084,1.81,4.084.714,0,1.411-2.025a.718.718,0,0,1,.548-.5.845.845,0,0,1,.166-.017.613.613,0,0,1,.5.249,2.247,2.247,0,0,1,.5,1.079,1.689,1.689,0,0,1,.033.332,1.97,1.97,0,0,1-.183.83,6.489,6.489,0,0,1-1.419,2.108,2.378,2.378,0,0,1-1.6.631A3.069,3.069,0,0,1,37.561,24.8a10.071,10.071,0,0,1-1.386-4.69q-.183-1.893-.183-4.549Zm9.43.764a.854.854,0,0,1-.149-.465,1.3,1.3,0,0,1,.033-.282.8.8,0,0,1,.515-.515,1.567,1.567,0,0,1,.5-.083,1.685,1.685,0,0,1,.465.066,1.4,1.4,0,0,1,.747.581,16.17,16.17,0,0,1,1.395,3.08,22.147,22.147,0,0,1,.9,3.412,2.014,2.014,0,0,1,.017.249,1.367,1.367,0,0,1-.216.73,1.431,1.431,0,0,1-.78.631.888.888,0,0,1-.332.066.93.93,0,0,1-.465-.133.917.917,0,0,1-.448-.681A17.043,17.043,0,0,0,45.405,15.873ZM62.887,22.48a.147.147,0,0,0-.166-.166H56.329a.147.147,0,0,0-.166.166v2.44a.147.147,0,0,0,.166.166h6.392a.147.147,0,0,0,.166-.166Zm-7.72,5.014a.969.969,0,0,1-.7-.291.947.947,0,0,1-.3-.706V21.966a1.445,1.445,0,0,1,1.444-1.444h7.9a1.445,1.445,0,0,1,1.444,1.444v4.5a.98.98,0,0,1-.307.73,1.021,1.021,0,0,1-.739.3h-.465a.567.567,0,0,1-.564-.564.059.059,0,0,0-.066-.066H56.229a.059.059,0,0,0-.066.066.567.567,0,0,1-.564.564ZM56.2,16.952a.054.054,0,0,0-.017.066.053.053,0,0,0,.05.033h6.541a.053.053,0,0,0,.05-.033.054.054,0,0,0-.017-.066,18.263,18.263,0,0,1-3.254-3.2.125.125,0,0,0-.2,0A16.766,16.766,0,0,1,56.2,16.952Zm1.527-4.466a1.96,1.96,0,0,1,1.627-.863,2.06,2.06,0,0,1,1.677.83,16.774,16.774,0,0,0,2.606,2.6A16.982,16.982,0,0,0,66.655,17a.857.857,0,0,1,.465.6.789.789,0,0,1,.033.216.813.813,0,0,1-.183.515,1.264,1.264,0,0,1-.73.515.94.94,0,0,1-.3.05,1.1,1.1,0,0,1-.548-.149q-.747-.448-1.527-1a.054.054,0,0,0-.066-.017.067.067,0,0,0-.033.066,1.049,1.049,0,0,1-1.046,1.046H56.362A1.077,1.077,0,0,1,55.3,17.782a.072.072,0,0,0-.033-.058.046.046,0,0,0-.066.008q-.764.548-1.627,1.063a1.075,1.075,0,0,1-.531.149,1.092,1.092,0,0,1-.266-.033,1.256,1.256,0,0,1-.7-.448.882.882,0,0,1-.183-.531.845.845,0,0,1,.017-.166.77.77,0,0,1,.4-.581,18.261,18.261,0,0,0,3.013-2.167A18.089,18.089,0,0,0,57.724,12.486ZM74.69,14.645a.223.223,0,0,0,.05.183,1.188,1.188,0,0,1,.266.764,1.208,1.208,0,0,1-.216.7q-.116.166-.266.4a.684.684,0,0,0-.1.3v.166a.065.065,0,0,0,.042.066.088.088,0,0,0,.075,0,8.031,8.031,0,0,1,4.814-1.66,4.622,4.622,0,0,1,3.312,1.27A4.321,4.321,0,0,1,84,20.106a5.55,5.55,0,0,1-1.3,3.785,7.845,7.845,0,0,1-3.91,2.225,1.325,1.325,0,0,1-.349.05,1.35,1.35,0,0,1-.581-.133,1.556,1.556,0,0,1-.681-.681.846.846,0,0,1,.017-.764.909.909,0,0,1,.6-.481q3.951-.963,3.951-4.051a2.386,2.386,0,0,0-.755-1.768,2.694,2.694,0,0,0-1.967-.739,6.972,6.972,0,0,0-4.665,2.042.451.451,0,0,0-.133.282q-.017.8-.017,1.229,0,2.789.1,4.366v.149a.273.273,0,0,1,.017.083,1.075,1.075,0,0,1-1.062,1.063,1.033,1.033,0,0,1-.78-.332,1.174,1.174,0,0,1-.315-.813v-.1q.017-.664.033-1.793t.033-1.743a.039.039,0,0,0-.033-.042.094.094,0,0,0-.066.008q-.714,1.1-1.378,2.042a.736.736,0,0,1-.647.349.777.777,0,0,1-.664-.349,1.464,1.464,0,0,1-.282-.863,1.5,1.5,0,0,1,.332-.963q1.66-2.108,2.806-3.785a.684.684,0,0,0,.1-.3l.05-.847a.134.134,0,0,0-.05-.108.125.125,0,0,0-.116-.025l-1.81.232h-.149a1.033,1.033,0,0,1-.647-.232.945.945,0,0,1-.382-.714v-.1a.95.95,0,0,1,.249-.647,1.025,1.025,0,0,1,.73-.332q.183,0,.382-.017.681-.05,1.776-.2a.178.178,0,0,0,.166-.183q.066-1.062.066-1.129v-.266A1.241,1.241,0,0,1,73,12.652a1.087,1.087,0,0,1,.8-.332h.033a.944.944,0,0,1,.78.382,1.034,1.034,0,0,1,.249.681,1.117,1.117,0,0,1-.017.183Q74.773,14.063,74.69,14.645Zm21.1-.847a1.062,1.062,0,0,1,.282-.73,1.011,1.011,0,0,1,1.527,0,1.062,1.062,0,0,1,.282.73v.066a2.7,2.7,0,0,1-.017.3q-.017.813-.05,1.66a.134.134,0,0,0,.05.108.176.176,0,0,0,.116.042q.78-.05,1.112-.066.116-.017.581-.05h.083a.95.95,0,0,1,.647.249.974.974,0,0,1,.3.714.994.994,0,0,1-.3.73,1.054,1.054,0,0,1-.73.315q-.349,0-.6.017-.913.033-1.129.05a.164.164,0,0,0-.166.183,27.148,27.148,0,0,1-.249,3.188,1.361,1.361,0,0,1-.465.88,1.742,1.742,0,0,1-1,.232,14.948,14.948,0,0,1-1.627-.133.995.995,0,0,1-.88-1.013v-.033a.739.739,0,0,1,.282-.6.793.793,0,0,1,.531-.2.488.488,0,0,1,.116.017,5.748,5.748,0,0,0,.631.05.734.734,0,0,0,.382-.075.415.415,0,0,0,.149-.307,17.536,17.536,0,0,0,.116-1.859.159.159,0,0,0-.05-.116.115.115,0,0,0-.116-.033q-2.158.166-4.233.382a.173.173,0,0,0-.166.2q-.017,1.411-.017,2.308,0,.963.017,1.328.017.465.042.722a2.05,2.05,0,0,0,.125.523.814.814,0,0,0,.257.382,1.8,1.8,0,0,0,.473.224,3.022,3.022,0,0,0,.739.141q.423.033,1.087.033a30.427,30.427,0,0,0,3.885-.266.546.546,0,0,1,.133-.017.95.95,0,0,1,.647.249.9.9,0,0,1,.315.7v.05a1.291,1.291,0,0,1-.357.863,1.218,1.218,0,0,1-.838.4q-1.976.166-3.636.166-1.112,0-1.884-.075a5.272,5.272,0,0,1-1.328-.282,3.387,3.387,0,0,1-.888-.465,1.7,1.7,0,0,1-.523-.73,4,4,0,0,1-.257-.979,12.365,12.365,0,0,1-.083-1.3q-.017-.714-.017-3.752a.159.159,0,0,0-.05-.116.115.115,0,0,0-.116-.033l-.979.1q-.3.033-.946.133a.845.845,0,0,1-.166.017,1.013,1.013,0,0,1-.631-.216.945.945,0,0,1-.382-.714.368.368,0,0,1-.017-.116.992.992,0,0,1,.249-.647,1.089,1.089,0,0,1,.73-.349q.515-.017,1.029-.066l1.112-.1a.164.164,0,0,0,.166-.183V15.093q0-.365-.017-.7v-.066a1.145,1.145,0,0,1,.282-.764,1.01,1.01,0,0,1,.78-.349,1.028,1.028,0,0,1,.8.349,1.15,1.15,0,0,1,.3.8v.6q0,.863-.017,1.461a.134.134,0,0,0,.05.108.176.176,0,0,0,.116.042q2.457-.232,4.25-.4a.164.164,0,0,0,.166-.183V14.246Z" transform="translate(29.653 120)" fill="#e6753d"/>
      <g id="グループ_6219" data-name="グループ 6219" transform="translate(147.426 94)">
        <path id="パス_6234" data-name="パス 6234" d="M236.582,200.261a1.5,1.5,0,0,1-1.061-.44l-.266-.266a1.5,1.5,0,0,1,2.121-2.121l.267.266a1.5,1.5,0,0,1-1.061,2.561Z" transform="translate(-168.5 -170.525)" fill="#f2a935"/>
        <path id="パス_6235" data-name="パス 6235" d="M240.393,204.072a1.492,1.492,0,0,1-1.06-.44l-.267-.266a1.5,1.5,0,0,1,2.121-2.121l.267.266a1.5,1.5,0,0,1-1.061,2.561Z" transform="translate(-168.5 -170.525)" fill="#f2a935"/>
        <path id="パス_6236" data-name="パス 6236" d="M236.315,204.072a1.5,1.5,0,0,1-1.06-2.561l.266-.266a1.5,1.5,0,0,1,2.122,2.121l-.267.266A1.5,1.5,0,0,1,236.315,204.072Z" transform="translate(-168.5 -170.525)" fill="#f2a935"/>
        <path id="パス_6237" data-name="パス 6237" d="M240.126,200.261a1.5,1.5,0,0,1-1.06-2.561l.267-.266a1.5,1.5,0,0,1,2.121,2.121l-.267.266A1.5,1.5,0,0,1,240.126,200.261Z" transform="translate(-168.5 -170.525)" fill="#f2a935"/>
        <path id="パス_6238" data-name="パス 6238" d="M244.058,183.84A1.5,1.5,0,0,1,243,181.279l.852-.853a1.5,1.5,0,1,1,2.122,2.121l-.852.853A1.5,1.5,0,0,1,244.058,183.84Z" transform="translate(-168.5 -170.525)" fill="#f2a935"/>
        <path id="パス_6239" data-name="パス 6239" d="M248.657,179.24a1.5,1.5,0,0,1-1.061-2.56l.852-.853a1.5,1.5,0,1,1,2.122,2.121l-.852.853A1.5,1.5,0,0,1,248.657,179.24Z" transform="translate(-168.5 -170.525)" fill="#f2a935"/>
        <path id="パス_6240" data-name="パス 6240" d="M249.509,183.84a1.5,1.5,0,0,1-1.061-.44l-.852-.853a1.5,1.5,0,1,1,2.122-2.12l.852.853a1.5,1.5,0,0,1-1.061,2.56Z" transform="translate(-168.5 -170.525)" fill="#f2a935"/>
        <path id="パス_6241" data-name="パス 6241" d="M244.91,179.24a1.493,1.493,0,0,1-1.06-.439l-.853-.853a1.5,1.5,0,1,1,2.121-2.121l.853.853a1.5,1.5,0,0,1-1.061,2.56Z" transform="translate(-168.5 -170.525)" fill="#f2a935"/>
        <path id="パス_6242" data-name="パス 6242" d="M179.969,173.792a1.491,1.491,0,0,1-1.059-.439l-.267-.266a1.5,1.5,0,0,1,2.119-2.123l.267.266a1.5,1.5,0,0,1-1.06,2.562Z" transform="translate(-168.5 -170.525)" fill="#f2a935"/>
        <path id="パス_6243" data-name="パス 6243" d="M183.78,177.6a1.493,1.493,0,0,1-1.06-.439l-.267-.267a1.5,1.5,0,0,1,2.121-2.121l.267.266a1.5,1.5,0,0,1-1.061,2.561Z" transform="translate(-168.5 -170.525)" fill="#f2a935"/>
        <path id="パス_6244" data-name="パス 6244" d="M179.7,177.6a1.5,1.5,0,0,1-1.061-2.561l.267-.266a1.5,1.5,0,0,1,2.121,2.121l-.267.267A1.5,1.5,0,0,1,179.7,177.6Z" transform="translate(-168.5 -170.525)" fill="#f2a935"/>
        <path id="パス_6245" data-name="パス 6245" d="M183.514,173.792a1.5,1.5,0,0,1-1.06-2.562l.267-.266a1.5,1.5,0,1,1,2.119,2.123l-.267.266A1.491,1.491,0,0,1,183.514,173.792Z" transform="translate(-168.5 -170.525)" fill="#f2a935"/>
        <path id="パス_6246" data-name="パス 6246" d="M170.462,205.224a1.5,1.5,0,0,1-1.061-2.56l.852-.853a1.5,1.5,0,1,1,2.122,2.121l-.852.853A1.5,1.5,0,0,1,170.462,205.224Z" transform="translate(-168.5 -170.525)" fill="#f2a935"/>
        <path id="パス_6247" data-name="パス 6247" d="M175.062,200.625A1.5,1.5,0,0,1,174,198.064l.852-.853a1.5,1.5,0,1,1,2.122,2.122l-.852.852A1.5,1.5,0,0,1,175.062,200.625Z" transform="translate(-168.5 -170.525)" fill="#f2a935"/>
        <path id="パス_6248" data-name="パス 6248" d="M175.914,205.224a1.5,1.5,0,0,1-1.061-.439l-.852-.853a1.5,1.5,0,0,1,2.122-2.121l.852.853a1.5,1.5,0,0,1-1.061,2.56Z" transform="translate(-168.5 -170.525)" fill="#f2a935"/>
        <path id="パス_6249" data-name="パス 6249" d="M171.314,200.625a1.5,1.5,0,0,1-1.061-.44l-.852-.852a1.5,1.5,0,0,1,2.122-2.122l.852.853a1.5,1.5,0,0,1-1.061,2.561Z" transform="translate(-168.5 -170.525)" fill="#f2a935"/>
        <path id="パス_6250" data-name="パス 6250" d="M202.751,247.474q-.414,0-.8-.022a32.972,32.972,0,0,1-14.972-4.211c-5.932-3.28-12.008-5.38-17.107-5.914a1.5,1.5,0,1,1,.312-2.984c5.491.576,11.97,2.8,18.246,6.272a29.764,29.764,0,0,0,13.692,3.842c4.666.271,13.325-2.453,25.037-7.864,7.337-3.389,20.992-9.7,21.338-12.564.008-.072.035-.291-.485-.705-2.683-2.135-12.61,2.245-20.587,5.766-1.789.79-3.573,1.577-5.309,2.314a1.5,1.5,0,1,1-1.172-2.761c1.723-.732,3.494-1.514,5.269-2.3,10.5-4.634,19.564-8.637,23.668-5.368a3.674,3.674,0,0,1,1.594,3.41c-.467,3.873-7.491,7.736-23.058,14.929C216.693,244.733,208.067,247.474,202.751,247.474Z" transform="translate(-168.5 -170.525)" fill="#e6753d"/>
        <path id="パス_6251" data-name="パス 6251" d="M215.271,238.372c-2.043,0-4.659-.939-8.134-2.185-.952-.342-1.86-.68-2.744-1.008a48.748,48.748,0,0,0-12.789-3.418,1.5,1.5,0,1,1,.321-2.982,51.129,51.129,0,0,1,13.514,3.588c.873.324,1.77.658,2.71.995,3.47,1.246,6.749,2.422,7.9,1.877.094-.045.289-.137.453-.6.519-1.467-3.916-5.867-11.783-9.157a36.639,36.639,0,0,1-5.971-3.377c-2.36-1.542-4.589-3-7.063-3.387a22.9,22.9,0,0,0-9.764.926A47.286,47.286,0,0,1,170.03,221.7H170a1.5,1.5,0,0,1,0-3h.031a44.42,44.42,0,0,0,11.083-1.943,26.043,26.043,0,0,1,11.03-1c3.112.487,5.6,2.116,8.241,3.841a34.3,34.3,0,0,0,5.487,3.119c5.431,2.271,15.232,7.9,13.453,12.926a3.861,3.861,0,0,1-1.994,2.31A4.721,4.721,0,0,1,215.271,238.372Z" transform="translate(-168.5 -170.525)" fill="#e6753d"/>
        <path id="パス_6252" data-name="パス 6252" d="M218.34,227.782a1.5,1.5,0,0,1-.9-2.7c.348-.262,8.633-6.446,18.619-8.44a1.5,1.5,0,0,1,.588,2.941c-9.322,1.862-17.321,7.834-17.4,7.894A1.5,1.5,0,0,1,218.34,227.782Z" transform="translate(-168.5 -170.525)" fill="#e6753d"/>
        <path id="パス_6253" data-name="パス 6253" d="M214.073,224.293a1.5,1.5,0,0,1-.948-2.663,46.527,46.527,0,0,1,14.032-7.572,1.5,1.5,0,0,1,.863,2.873,44.175,44.175,0,0,0-13,7.027A1.5,1.5,0,0,1,214.073,224.293Z" transform="translate(-168.5 -170.525)" fill="#e6753d"/>
        <path id="パス_6254" data-name="パス 6254" d="M209.374,221.369a1.5,1.5,0,0,1-.988-2.629,41.212,41.212,0,0,1,9.776-6.081,1.5,1.5,0,0,1,1.187,2.755,38.877,38.877,0,0,0-8.99,5.585A1.493,1.493,0,0,1,209.374,221.369Z" transform="translate(-168.5 -170.525)" fill="#e6753d"/>
        <g id="グループ_6218" data-name="グループ 6218" transform="translate(22.772 6.49)">
          <path id="パス_6255" data-name="パス 6255" d="M226.143,204.015H193.885a2.616,2.616,0,0,1-2.613-2.613V179.628a2.616,2.616,0,0,1,2.613-2.613h32.258a2.616,2.616,0,0,1,2.613,2.613V201.4A2.616,2.616,0,0,1,226.143,204.015Zm-32.258-25a.614.614,0,0,0-.613.613V201.4a.614.614,0,0,0,.613.613h32.258a.614.614,0,0,0,.613-.613V179.628a.614.614,0,0,0-.613-.613Z" transform="translate(-191.272 -177.015)" fill="#e6753d"/>
          <path id="パス_6256" data-name="パス 6256" d="M210.014,194.416a6.624,6.624,0,0,1-4.7-1.944l-11.331-11.33,1.414-1.414,11.331,11.33a4.652,4.652,0,0,0,6.57,0l11.33-11.33,1.414,1.414-11.33,11.33A6.624,6.624,0,0,1,210.014,194.416Z" transform="translate(-191.272 -177.015)" fill="#e6753d"/>
          <rect id="長方形_3326" data-name="長方形 3326" width="12.546" height="2" transform="translate(2.712 22.874) rotate(-45)" fill="#e6753d"/>
          <rect id="長方形_3327" data-name="長方形 3327" width="2" height="12.545" transform="translate(24.487 15.417) rotate(-44.998)" fill="#e6753d"/>
        </g>
      </g>
    </g>
  </g>
</svg>
