<svg xmlns="http://www.w3.org/2000/svg" width="186.875" height="29.875" viewBox="0 0 186.875 29.875">
  <path id="パス_6902" data-name="パス 6902" d="M8.938-2.844q1,0,1-1.375,0-1.312-.062-3.594a.175.175,0,0,0-.094-.172.176.176,0,0,0-.187.016A7.775,7.775,0,0,0,7.422-6.375a2.546,2.546,0,0,0-.8,1.656,1.636,1.636,0,0,0,.813,1.281A2.608,2.608,0,0,0,8.938-2.844Zm4.5-11.406v.813a.252.252,0,0,0,.094.2.235.235,0,0,0,.219.047,24.891,24.891,0,0,1,5.781-.75,9.988,9.988,0,0,1,6.219,1.875A6.025,6.025,0,0,1,28.219-7a7.378,7.378,0,0,1-1.672,4.922A9.818,9.818,0,0,1,21.25.813q-.937.188-2,.313a2.1,2.1,0,0,1-.344.031A2.489,2.489,0,0,1,17.5.719,2.91,2.91,0,0,1,16.344-.719a1.682,1.682,0,0,1-.094-.531,1.462,1.462,0,0,1,.281-.844,1.488,1.488,0,0,1,1.25-.687,17.375,17.375,0,0,0,1.75-.187,7.3,7.3,0,0,0,3.313-1.406,3.256,3.256,0,0,0,1.281-2.656,2.9,2.9,0,0,0-1.281-2.5,5.725,5.725,0,0,0-3.375-.906,21.987,21.987,0,0,0-5.656.781.392.392,0,0,0-.312.406q.031.844.078,2.2t.063,2.219q.016.859.016,1.3A6.3,6.3,0,0,1,12.766.344a3.132,3.132,0,0,1-2.578,1.094A7.992,7.992,0,0,1,6.875.656a8.552,8.552,0,0,1-2.953-2.2A4.538,4.538,0,0,1,2.688-4.562,5.657,5.657,0,0,1,4.625-8.484a16.367,16.367,0,0,1,4.875-3.3.442.442,0,0,0,.281-.437q-.031-.625-.031-1.906v-2.344a.252.252,0,0,0-.094-.2.331.331,0,0,0-.219-.078q-.906.031-1.375.031-1.406,0-2.5-.031a1.93,1.93,0,0,1-1.375-.625,2.014,2.014,0,0,1-.562-1.437,1.645,1.645,0,0,1,.531-1.25,1.789,1.789,0,0,1,1.219-.469H5.5q1.125.094,2.469.094.531,0,1.5-.062a.309.309,0,0,0,.344-.312v-3.031a2.039,2.039,0,0,1,.531-1.406,1.848,1.848,0,0,1,1.438-.625,1.945,1.945,0,0,1,1.469.625,2.03,2.03,0,0,1,.5,1.344v.188q-.031.344-.062.594-.031.812-.062,1.938a.217.217,0,0,0,.063.219.217.217,0,0,0,.219.063q1.906-.281,3.594-.656a2.277,2.277,0,0,1,.375-.031,1.629,1.629,0,0,1,.969.313A1.515,1.515,0,0,1,19.469-20a2.281,2.281,0,0,1-.5,1.469,2.315,2.315,0,0,1-1.406.844q-1.625.281-3.781.563a.309.309,0,0,0-.312.344Q13.438-15.906,13.438-14.25Zm9.406-4.281a1.716,1.716,0,0,1-.875-1.062,2.055,2.055,0,0,1-.062-.5,1.7,1.7,0,0,1,.219-.812,1.833,1.833,0,0,1,1.094-.875,1.682,1.682,0,0,1,.531-.094,1.757,1.757,0,0,1,.844.219q2.5,1.313,4.594,2.594a1.931,1.931,0,0,1,.875,1.219,3.319,3.319,0,0,1,.031.469,2.024,2.024,0,0,1-.281,1,1.627,1.627,0,0,1-1.094.781,2.711,2.711,0,0,1-.375.031,1.771,1.771,0,0,1-1-.312A50.647,50.647,0,0,0,22.844-18.531Zm20.438-4.125a.276.276,0,0,0-.312-.312h-4.25a.276.276,0,0,0-.312.313v1.094a.276.276,0,0,0,.313.313h4.25a.276.276,0,0,0,.313-.312Zm-4.875,5.469a.276.276,0,0,0,.313.313h4.25a.276.276,0,0,0,.313-.312v-1.187a.276.276,0,0,0-.312-.312h-4.25a.276.276,0,0,0-.312.313Zm8.438.5a2.619,2.619,0,0,1-.8,1.922,2.619,2.619,0,0,1-1.922.8H38.719a.276.276,0,0,0-.312.313V.906a1.783,1.783,0,0,1-.562,1.328,1.86,1.86,0,0,1-1.344.547,1.808,1.808,0,0,1-1.328-.547A1.808,1.808,0,0,1,34.625.906V-23.156a2.619,2.619,0,0,1,.8-1.922,2.619,2.619,0,0,1,1.922-.8h6.781a2.619,2.619,0,0,1,1.922.8,2.619,2.619,0,0,1,.8,1.922Zm3.688,8.375a.276.276,0,0,0-.312-.312H45.563a.276.276,0,0,0-.312.313v3.125a.276.276,0,0,0,.313.313h4.656a.276.276,0,0,0,.313-.312Zm3.563,3.875a2.619,2.619,0,0,1-.8,1.922,2.619,2.619,0,0,1-1.922.8H45.438a.166.166,0,0,0-.187.188,1.534,1.534,0,0,1-.469,1.125,1.534,1.534,0,0,1-1.125.469h-.187a1.736,1.736,0,0,1-1.25-.516,1.7,1.7,0,0,1-.531-1.266V-9.062a2.619,2.619,0,0,1,.8-1.922,2.619,2.619,0,0,1,1.922-.8h6.969a2.619,2.619,0,0,1,1.922.8,2.619,2.619,0,0,1,.8,1.922ZM52.688-17.156a.276.276,0,0,0,.313.313h4.406a.276.276,0,0,0,.313-.312v-1.219a.276.276,0,0,0-.312-.312H53a.276.276,0,0,0-.312.313Zm5.031-5.531A.276.276,0,0,0,57.406-23H53a.276.276,0,0,0-.312.313v1.125A.276.276,0,0,0,53-21.25h4.406a.276.276,0,0,0,.313-.312Zm1.156-3.187a2.619,2.619,0,0,1,1.922.8,2.619,2.619,0,0,1,.8,1.922V-1.75A6.229,6.229,0,0,1,61.2.719a2.7,2.7,0,0,1-1.391,1.344,11.726,11.726,0,0,1-4.219.688h-.062a2.318,2.318,0,0,1-1.5-.531,3.213,3.213,0,0,1-1-1.437,1.938,1.938,0,0,1-.062-.469,1.388,1.388,0,0,1,.25-.781,1.2,1.2,0,0,1,1.063-.562h1.156q.875,0,1.469-.031a.915.915,0,0,0,.625-.172.756.756,0,0,0,.188-.578V-13.625a.276.276,0,0,0-.312-.312H51.781a2.619,2.619,0,0,1-1.922-.8,2.619,2.619,0,0,1-.8-1.922v-6.5a2.619,2.619,0,0,1,.8-1.922,2.619,2.619,0,0,1,1.922-.8ZM67.719-20.5a2.336,2.336,0,0,1,.625-1.625,2.087,2.087,0,0,1,1.563-.687h.031a1.983,1.983,0,0,1,1.594.75,2.125,2.125,0,0,1,.563,1.469.692.692,0,0,1-.031.219Q72-19.5,72-18.937v1.375q0,2.937.188,5.344.75,7.688,3.406,7.688,1.344,0,2.656-3.812a1.352,1.352,0,0,1,1.031-.937,1.59,1.59,0,0,1,.313-.031,1.154,1.154,0,0,1,.938.469,4.229,4.229,0,0,1,.938,2.031,3.18,3.18,0,0,1,.063.625,3.709,3.709,0,0,1-.344,1.563A12.215,12.215,0,0,1,78.516-.656,4.477,4.477,0,0,1,75.5.531a5.777,5.777,0,0,1-4.8-2.8q-1.984-2.8-2.609-8.828-.344-3.562-.344-8.562Zm17.75,1.438a1.608,1.608,0,0,1-.281-.875,2.453,2.453,0,0,1,.063-.531,1.5,1.5,0,0,1,.969-.969,2.949,2.949,0,0,1,.938-.156,3.172,3.172,0,0,1,.875.125,2.639,2.639,0,0,1,1.406,1.094,30.438,30.438,0,0,1,2.625,5.8A41.688,41.688,0,0,1,93.75-8.156a3.79,3.79,0,0,1,.031.469,2.573,2.573,0,0,1-.406,1.375,2.7,2.7,0,0,1-1.469,1.188A1.672,1.672,0,0,1,91.281-5a1.75,1.75,0,0,1-.875-.25,1.726,1.726,0,0,1-.844-1.281Q88.406-14.438,85.469-19.062ZM118.375-6.625a.276.276,0,0,0-.312-.312H106.031a.276.276,0,0,0-.312.313v4.594a.276.276,0,0,0,.313.313h12.031a.276.276,0,0,0,.313-.312ZM103.844,2.813a1.824,1.824,0,0,1-1.312-.547,1.783,1.783,0,0,1-.562-1.328V-7.594a2.619,2.619,0,0,1,.8-1.922,2.619,2.619,0,0,1,1.922-.8h14.875a2.619,2.619,0,0,1,1.922.8,2.619,2.619,0,0,1,.8,1.922V.875A1.845,1.845,0,0,1,121.7,2.25a1.923,1.923,0,0,1-1.391.563h-.875a1.023,1.023,0,0,1-.75-.312,1.023,1.023,0,0,1-.312-.75.11.11,0,0,0-.125-.125H105.844a.11.11,0,0,0-.125.125,1.023,1.023,0,0,1-.312.75,1.023,1.023,0,0,1-.75.313Zm1.938-19.844a.1.1,0,0,0-.031.125.1.1,0,0,0,.094.063h12.313a.1.1,0,0,0,.094-.062.1.1,0,0,0-.031-.125,34.378,34.378,0,0,1-6.125-6.031.21.21,0,0,0-.187-.094.21.21,0,0,0-.187.094A31.56,31.56,0,0,1,105.781-17.031Zm2.875-8.406a3.69,3.69,0,0,1,3.063-1.625,3.877,3.877,0,0,1,3.156,1.563,31.574,31.574,0,0,0,4.906,4.891,31.965,31.965,0,0,0,5.688,3.672,1.614,1.614,0,0,1,.875,1.125,1.485,1.485,0,0,1,.063.406,1.531,1.531,0,0,1-.344.969,2.379,2.379,0,0,1-1.375.969,1.77,1.77,0,0,1-.562.094,2.078,2.078,0,0,1-1.031-.281q-1.406-.844-2.875-1.875a.1.1,0,0,0-.125-.031.126.126,0,0,0-.062.125,1.9,1.9,0,0,1-.578,1.391,1.9,1.9,0,0,1-1.391.578H106.094a1.922,1.922,0,0,1-1.406-.594,1.922,1.922,0,0,1-.594-1.406.135.135,0,0,0-.062-.109.087.087,0,0,0-.125.016q-1.438,1.031-3.062,2a2.024,2.024,0,0,1-1,.281,2.055,2.055,0,0,1-.5-.062,2.365,2.365,0,0,1-1.312-.844,1.661,1.661,0,0,1-.344-1,1.59,1.59,0,0,1,.031-.312,1.449,1.449,0,0,1,.75-1.094,34.373,34.373,0,0,0,5.672-4.078A34.049,34.049,0,0,0,108.656-25.437Zm31.938,4.063a.419.419,0,0,0,.094.344,2.236,2.236,0,0,1,.5,1.438,2.274,2.274,0,0,1-.406,1.313q-.219.313-.5.75a1.287,1.287,0,0,0-.187.563v.313a.122.122,0,0,0,.078.125.166.166,0,0,0,.141,0,15.118,15.118,0,0,1,9.063-3.125,8.7,8.7,0,0,1,6.234,2.391,8.133,8.133,0,0,1,2.516,6.172,10.447,10.447,0,0,1-2.453,7.125A14.767,14.767,0,0,1,148.313.219a2.494,2.494,0,0,1-.656.094,2.542,2.542,0,0,1-1.094-.25,2.929,2.929,0,0,1-1.281-1.281,1.649,1.649,0,0,1-.156-.687,1.664,1.664,0,0,1,.188-.75,1.711,1.711,0,0,1,1.125-.906q7.437-1.813,7.438-7.625a4.492,4.492,0,0,0-1.422-3.328,5.071,5.071,0,0,0-3.7-1.391q-4.5,0-8.781,3.844a.849.849,0,0,0-.25.531q-.031,1.5-.031,2.313,0,5.25.188,8.219v.281a.514.514,0,0,1,.031.156,1.889,1.889,0,0,1-.531,1.344,1.9,1.9,0,0,1-1.469.656,1.945,1.945,0,0,1-1.469-.625,2.211,2.211,0,0,1-.594-1.531V-.906q.031-1.25.063-3.375t.063-3.281a.074.074,0,0,0-.062-.078.176.176,0,0,0-.125.016q-1.344,2.063-2.594,3.844a1.386,1.386,0,0,1-1.219.656,1.463,1.463,0,0,1-1.25-.656,2.755,2.755,0,0,1-.531-1.625,2.817,2.817,0,0,1,.625-1.812q3.125-3.969,5.281-7.125a1.287,1.287,0,0,0,.188-.562l.094-1.594a.252.252,0,0,0-.094-.2.235.235,0,0,0-.219-.047l-3.406.438h-.281a1.945,1.945,0,0,1-1.219-.437,1.779,1.779,0,0,1-.719-1.344v-.187a1.789,1.789,0,0,1,.469-1.219,1.93,1.93,0,0,1,1.375-.625q.344,0,.719-.031,1.281-.094,3.344-.375a.335.335,0,0,0,.313-.344q.125-2,.125-2.125v-.5a2.336,2.336,0,0,1,.625-1.625,2.046,2.046,0,0,1,1.5-.625h.063a1.778,1.778,0,0,1,1.469.719,1.946,1.946,0,0,1,.469,1.281,2.1,2.1,0,0,1-.031.344Q140.75-22.469,140.594-21.375Zm39.719-1.594a2,2,0,0,1,.531-1.375A1.869,1.869,0,0,1,182.281-25a1.869,1.869,0,0,1,1.438.656,2,2,0,0,1,.531,1.375v.125a5.091,5.091,0,0,1-.031.563q-.031,1.531-.094,3.125a.252.252,0,0,0,.094.2.331.331,0,0,0,.219.078q1.469-.094,2.094-.125.219-.031,1.094-.094h.156a1.789,1.789,0,0,1,1.219.469,1.834,1.834,0,0,1,.563,1.344A1.87,1.87,0,0,1,189-15.906a1.985,1.985,0,0,1-1.375.594q-.656,0-1.125.031-1.719.063-2.125.094a.309.309,0,0,0-.312.344,51.1,51.1,0,0,1-.469,6,2.561,2.561,0,0,1-.875,1.656,3.279,3.279,0,0,1-1.875.438A28.137,28.137,0,0,1,177.781-7a1.919,1.919,0,0,1-1.219-.656,1.906,1.906,0,0,1-.437-1.25v-.062a1.392,1.392,0,0,1,.531-1.125,1.493,1.493,0,0,1,1-.375.918.918,0,0,1,.219.031,10.819,10.819,0,0,0,1.188.094,1.382,1.382,0,0,0,.719-.141.782.782,0,0,0,.281-.578,33.01,33.01,0,0,0,.219-3.5.3.3,0,0,0-.094-.219.217.217,0,0,0-.219-.062q-4.062.312-7.969.719a.325.325,0,0,0-.312.375q-.031,2.656-.031,4.344,0,1.812.031,2.5.031.875.078,1.359a3.859,3.859,0,0,0,.234.984,1.532,1.532,0,0,0,.484.719,3.4,3.4,0,0,0,.891.422,5.688,5.688,0,0,0,1.391.266q.8.063,2.047.063a57.274,57.274,0,0,0,7.313-.5,1.027,1.027,0,0,1,.25-.031,1.789,1.789,0,0,1,1.219.469,1.692,1.692,0,0,1,.594,1.313v.094a2.43,2.43,0,0,1-.672,1.625,2.293,2.293,0,0,1-1.578.75q-3.719.313-6.844.313Q175,.938,173.547.8a9.924,9.924,0,0,1-2.5-.531,6.375,6.375,0,0,1-1.672-.875,3.208,3.208,0,0,1-.984-1.375,7.521,7.521,0,0,1-.484-1.844,23.276,23.276,0,0,1-.156-2.453q-.031-1.344-.031-7.062a.3.3,0,0,0-.094-.219.217.217,0,0,0-.219-.062l-1.844.188q-.562.063-1.781.25a1.59,1.59,0,0,1-.312.031,1.907,1.907,0,0,1-1.187-.406,1.779,1.779,0,0,1-.719-1.344.693.693,0,0,1-.031-.219A1.867,1.867,0,0,1,162-16.344,2.05,2.05,0,0,1,163.375-17q.969-.031,1.938-.125l2.094-.187a.309.309,0,0,0,.313-.344v-2.875q0-.688-.031-1.312v-.125a2.155,2.155,0,0,1,.531-1.437,1.9,1.9,0,0,1,1.469-.656,1.936,1.936,0,0,1,1.5.656,2.165,2.165,0,0,1,.563,1.5v1.125q0,1.625-.031,2.75a.252.252,0,0,0,.094.2.331.331,0,0,0,.219.078q4.625-.437,8-.75a.309.309,0,0,0,.313-.344v-3.281Z" transform="translate(-2.688 27.063)" fill="#fff"/>
</svg>
