<svg xmlns="http://www.w3.org/2000/svg" width="91.469" height="29.563" viewBox="0 0 91.469 29.563">
  <path id="パス_6903" data-name="パス 6903" d="M26.219-23.781a1.031,1.031,0,0,1,.063.859,1.034,1.034,0,0,1-.594.641q-.031,0-.031.047a.106.106,0,0,0,.031.078l.094.063a2.639,2.639,0,0,1,1.094,1.406,3.043,3.043,0,0,1,.156.969,3.741,3.741,0,0,1-.094.844,1.212,1.212,0,0,1-.062.156q-1.813,7.688-4.781,11.656A24.681,24.681,0,0,1,11.625.875a3.664,3.664,0,0,1-1.312.25,4.314,4.314,0,0,1-.906-.094A3.8,3.8,0,0,1,7.469-.156a1.428,1.428,0,0,1-.406-1,1.938,1.938,0,0,1,.063-.469A1.607,1.607,0,0,1,8.219-2.75,20.711,20.711,0,0,0,18.281-9.562,17.57,17.57,0,0,0,20.641-13.7,22.765,22.765,0,0,0,22-18.281a.217.217,0,0,0-.062-.219.27.27,0,0,0-.187-.094H7.125q-.75,0-1.531.031H5.5A2.046,2.046,0,0,1,4-19.187a1.99,1.99,0,0,1-.687-1.531A1.9,1.9,0,0,1,4-22.219a2.086,2.086,0,0,1,1.438-.562h.125q.938.062,1.563.063H21.938q.75,0,1.219-.031a.181.181,0,0,0,.156-.109.18.18,0,0,0,0-.2q-.437-.844-.906-1.625a1.1,1.1,0,0,1-.187-.625,1.18,1.18,0,0,1,.063-.375,1.227,1.227,0,0,1,.688-.75,1.92,1.92,0,0,1,.656-.125,2.055,2.055,0,0,1,.5.063,1.7,1.7,0,0,1,.938.719Q25.656-24.812,26.219-23.781Zm.688-1.719a1.206,1.206,0,0,1-.187-.625,1.18,1.18,0,0,1,.063-.375,1.036,1.036,0,0,1,.656-.719,1.586,1.586,0,0,1,.656-.156,1.682,1.682,0,0,1,.531.094,1.7,1.7,0,0,1,.938.719q.5.812,1.063,1.75a1.387,1.387,0,0,1,.156.625,1.586,1.586,0,0,1-.062.438,1.326,1.326,0,0,1-.719.781,1.672,1.672,0,0,1-.625.125,1.682,1.682,0,0,1-.531-.094,1.564,1.564,0,0,1-.875-.719Q27.375-24.75,26.906-25.5Zm28.938,7.25a.276.276,0,0,0-.312-.312H40.688a.276.276,0,0,0-.312.313V-5.594a.276.276,0,0,0,.313.313H55.531a.276.276,0,0,0,.313-.312Zm4.281-1.344V-3.906l.031,2.281a2.151,2.151,0,0,1-.625,1.531,2.12,2.12,0,0,1-1.562.625h-.625A1.553,1.553,0,0,1,56.25.094,1.553,1.553,0,0,1,55.813-1q0-.219-.187-.219H40.563q-.187,0-.187.219A1.553,1.553,0,0,1,39.938.094a1.484,1.484,0,0,1-1.094.438h-.625a2.082,2.082,0,0,1-1.531-.625,2.151,2.151,0,0,1-.625-1.531l.031-2.312V-19.969a2.594,2.594,0,0,1,.781-1.906,2.506,2.506,0,0,1,1.844-.75h18.75a2.557,2.557,0,0,1,1.875.781,2.557,2.557,0,0,1,.781,1.875Zm30.25-4.25a2.034,2.034,0,0,1,.25.969,2.271,2.271,0,0,1-.125.719,1.973,1.973,0,0,1-1.156,1.219.157.157,0,0,0-.078.125q-.016.094.047.125l.188.094a2.863,2.863,0,0,1,1.25,1.719,4.236,4.236,0,0,1,.125,1.031,3.83,3.83,0,0,1-.187,1.156,36.3,36.3,0,0,1-2.172,5.3,26.7,26.7,0,0,1-3.359,5.172A29.49,29.49,0,0,1,74.594,1.844a3.852,3.852,0,0,1-1.562.344,3.671,3.671,0,0,1-.656-.062,3.918,3.918,0,0,1-2-.969,1.331,1.331,0,0,1-.5-1.031,1.756,1.756,0,0,1,.031-.344,1.451,1.451,0,0,1,.969-1.125,25.636,25.636,0,0,0,6-3.078,27.178,27.178,0,0,0,4.5-4.047,20.885,20.885,0,0,0,2.75-4.125,20.11,20.11,0,0,0,1.719-4.281.235.235,0,0,0-.047-.219.252.252,0,0,0-.2-.094H77.219a.594.594,0,0,0-.5.25,36.488,36.488,0,0,1-6.094,6.188,2.821,2.821,0,0,1-1.75.594h-.031a3.174,3.174,0,0,1-1.812-.625A1.481,1.481,0,0,1,66.438-12a1.578,1.578,0,0,1,.688-1.344,27.6,27.6,0,0,0,8.094-9.062,8.574,8.574,0,0,0,.594-1.031,2.937,2.937,0,0,1,1.344-1.406,2.438,2.438,0,0,1,1.094-.281,2.654,2.654,0,0,1,.781.125,1.872,1.872,0,0,1,1.188,1.188,2,2,0,0,1,.125.688,2.024,2.024,0,0,1-.281,1q-.344.563-.625,1.063a.2.2,0,0,0,.016.172.153.153,0,0,0,.141.078h6.125a9.813,9.813,0,0,0,2.563-.312.526.526,0,0,1,.438.063v-.031q-.875-1.719-1.594-2.937A1.1,1.1,0,0,1,87.016-25a1.08,1.08,0,0,1,.641-.687,1.672,1.672,0,0,1,.625-.125,2.055,2.055,0,0,1,.5.063,1.6,1.6,0,0,1,.875.688Q90-24.5,90.375-23.844Zm.563-1.656a1.053,1.053,0,0,1-.187-.594,1.1,1.1,0,0,1,.063-.344,1.033,1.033,0,0,1,.625-.687,1.672,1.672,0,0,1,.625-.125,2.055,2.055,0,0,1,.5.063,1.6,1.6,0,0,1,.875.688q.594.938,1.188,1.969a1.387,1.387,0,0,1,.156.625,1.485,1.485,0,0,1-.062.406,1.227,1.227,0,0,1-.687.75,1.6,1.6,0,0,1-.594.125,1.415,1.415,0,0,1-.5-.094,1.6,1.6,0,0,1-.844-.719A23.492,23.492,0,0,0,90.938-25.5Z" transform="translate(-3.313 27.375)" fill="#436472"/>
</svg>
