<svg xmlns="http://www.w3.org/2000/svg" width="592.999" height="302" viewBox="0 0 592.999 302">
  <g id="グループ_7246" data-name="グループ 7246" transform="translate(0.464 -0.339)">
    <g id="グループ_7140" data-name="グループ 7140" transform="translate(0 0)">
      <rect id="長方形_3459" data-name="長方形 3459" width="501" height="95" rx="3" transform="translate(-0.464 0.339)" fill="#4e9174"/>
      <g id="グループ_7139" data-name="グループ 7139" transform="translate(34.062 0.547)">
        <path id="パス_6876" data-name="パス 6876" d="M-119.748-35.037c-3.723.612-11.271.918-16.881,1.173a49.152,49.152,0,0,1,1.428-6.477,9.275,9.275,0,0,0,.408-.969c0-.306-.2-.459-1.683-.612l-6.426-.612c-.153,1.377-.918,7.65-1.02,8.925-3.672.1-6.681.153-10.863.153h-1.53l.051,3.672c1.836-.2,9.384-.51,12.087-.612-.357,3.927-.408,5.1-.459,7.5-7.8,3.366-12.138,8.67-12.138,16.167,0,5.2,2.448,8.415,7.548,8.415,3.978,0,15.045-1.785,20.4-22.185a9.14,9.14,0,0,1,5.1,8.619c0,10.761-9.537,11.577-12.495,11.832l1.071,3.264c3.366-.255,9.231-.765,13.974-4.386a13.1,13.1,0,0,0,5.1-10.71c0-9.435-8.007-13.209-17.187-13.209a23.451,23.451,0,0,0-4.641.408c.153-1.479.306-3.009.765-6.018,6.528-.255,13.617-.51,17.391-.663Zm-13.464,13.005a33.558,33.558,0,0,1-4.641,12.393,49.412,49.412,0,0,1-.408-7.344c0-1.887.051-2.856.153-4.539A13.209,13.209,0,0,1-133.212-22.032Zm-11.424,3.927a65.065,65.065,0,0,0,1.377,13.719A8.128,8.128,0,0,1-147.8-2.652c-2.7,0-2.856-2.958-2.856-4.233A13.759,13.759,0,0,1-144.636-18.105Zm67.575-7.6c.153,10,.153,11.22.459,15.1a39.063,39.063,0,0,0-4.029-.255c-6.426,0-10.4,3.315-10.4,7.089,0,3.162,2.805,6.579,10.863,6.579,2.652,0,6.579-.306,8.874-2.346a5.629,5.629,0,0,0,1.785-4.284A27.345,27.345,0,0,1-63.75.612l4.233-5.151a50.381,50.381,0,0,0-10.3-4.539c-.255-5.712-.306-9.078-.306-10.455a28.7,28.7,0,0,1,.153-3.774,14.141,14.141,0,0,0,.51-1.326c0-.255-.1-.459-1.989-.612Zm.714,18.768c.051.459.2,2.856.2,2.907,0,2.346-2.193,3.315-4.437,3.315-2.5,0-4.335-1.071-4.335-3.417,0-3.162,3.825-3.366,5-3.366A13.085,13.085,0,0,1-76.347-6.936ZM-58.905-30.5A117.574,117.574,0,0,0-74-35.139l-1.938,2.754A45.522,45.522,0,0,1-62.22-25.041Zm-42.84,1.938c1.02-.051,5.049-.306,6.528-.357-1.989,5.661-4.845,13.821-7.752,22.9l6.885,1.836a193.242,193.242,0,0,1,7.8-25.092c3.876-.255,6.171-.459,9.129-.867v-3.876a47.846,47.846,0,0,1-7.8,1.275c.408-.969,1.836-4.692,2.244-5.253.153-.255,1.02-1.173,1.02-1.428,0-.357-.2-.561-1.581-.918l-5.355-1.326c-.51,1.479-2.907,8.058-3.366,9.384-3.825,0-5.1,0-7.752-.2Zm78.285,4.947A49.8,49.8,0,0,1-5-19.482l1.122-6.477a92.552,92.552,0,0,0-17.187-1.275c-1.275,0-1.428.051-2.091.051Zm-4.845,12.24a10.648,10.648,0,0,0-2.5,6.834C-30.8,2.7-22.593,2.7-15.3,2.7c3.417,0,6.783-.1,10.149-.255l-.1-6.324A59.425,59.425,0,0,1-19.278-2.4c-2.958,0-7.191,0-7.191-3.519a7.26,7.26,0,0,1,1.428-4.131Zm8.058-22.287c-3.468.408-5.967.561-8.772.765.408-1.224,1.785-5.3,1.938-5.61a5.174,5.174,0,0,0,.816-1.326c0-.306-.255-.612-1.683-.969l-5.712-1.428c-.408,1.326-2.754,8.823-3.06,9.639-2.754.153-6.375.153-10.506.1v3.774c4.539-.306,6.63-.408,9.486-.51-1.02,3.264-5.61,17.7-6.528,20.6C-44.829-6.732-45.492-4.641-47.124,0l7.4,2.04c1.479-5.508,4.845-16.83,9.639-31.62,5.661-.255,7.65-.357,9.843-.459Z" transform="translate(162.472 65.792)" fill="#fff"/>
        <path id="パス_6874" data-name="パス 6874" d="M-79.254-19.89v-5.1a6.121,6.121,0,0,0,.153-1.224.346.346,0,0,0-.357-.357h-6.477a54.236,54.236,0,0,0,5.3-7.089h19.788v-2.856h-18.1a30.944,30.944,0,0,0,2.04-4.08,2.025,2.025,0,0,0,.561-1.02.454.454,0,0,0-.255-.408l-7.446-1.734a38.066,38.066,0,0,1-6.987,18.411l2.244,1.683c.765-.765,1.275-1.173,2.805-2.805a28.777,28.777,0,0,1,.2,3.519v4.539l-3.366.765.867,2.7,2.5-.561V-1.581c0,3.876.561,5.763,6.018,5.763h12.189c4.641,0,6.069-1.53,7.242-7.5a17.115,17.115,0,0,1-6.12-2.091c-.357,6.732-2.193,6.732-4.08,6.732H-76.3c-2.7,0-2.958-1.071-2.958-2.907V-16.932l2.652-.612V-4.182h5.661V-18.768l2.958-.663c0,.867-.051,6.987-.306,8.568-.1.714-.255,1.173-.969,1.173a5.007,5.007,0,0,1-1.479-.255l.816,3.111h2.7c3.111,0,3.774-1.683,4.131-2.652.663-1.887.765-6.834.918-14.229l-8.772,1.989V-29.58a3.979,3.979,0,0,0,.2-1.122c0-.306-.1-.306-.306-.306h-5.712c.051.867.153,2.5.153,3.06V-20.5Zm-15.81-14.025v-7.6c.1-.612.2-1.02.2-1.224,0-.357-.153-.408-.459-.408L-102-43.2a24.592,24.592,0,0,1,.255,3.111v6.171h-6.885v2.805h4.131v8.976c0,11.22-1.122,18.258-5.151,24.276L-107.3,4.08c8.262-9.333,8.925-20.3,9.18-25.041h2.346c.153,10.608-.867,17.646-1.377,19.686-.663,2.55-1.581,2.7-3.06,2.7a12.814,12.814,0,0,1-3.621-.561l1.122,3.264h3.978c2.805,0,5.967,0,7.446-3.978,1.632-4.488,1.785-18.615,1.734-23.97h-8.466V-31.11H-89.2v-2.805Zm57.783,23.766V-.612h-4.437v-9.537Zm10.047-6.171a28.381,28.381,0,0,0,7.6,11.934A33.449,33.449,0,0,1-31.416,1.938V-13.005H-47.94V4.488h6.222V2.244h9.639l1.836,2.346A45.379,45.379,0,0,0-15.708-1.326,50.619,50.619,0,0,0-3.06,4.335l2.04-2.346A37.442,37.442,0,0,1-11.832-4.335C-8.925-7.089-5.3-11.577-3.57-21.318H-30.141v2.856H-11.73a22.565,22.565,0,0,1-4.08,9.945c-1.581-2.04-2.856-4.233-4.386-9.69ZM-49.419-34.629v2.856H-29.58v-2.856Zm23.307-7.089v5.2c0,7.089-1.428,9.333-5,12.138l2.5,2.091c8.619-4.08,8.976-10.2,9.129-16.575h3.468v10.2c0,3.009.255,4.233,4.284,4.233h5.1c4.284,0,5-3.366,5.559-7.344A22.579,22.579,0,0,1-6.426-33.66a32.611,32.611,0,0,1-.459,5.1c-.1.561-.2,1.275-.969,1.275h-.918c-.816,0-.816-.2-.816-.918V-41.718ZM-47.889-20.3v2.856h16.473V-20.3Zm.051-21.42v2.856h16.422v-2.856Zm-.051,14.331v2.856h16.473v-2.856Z" transform="translate(362.472 65.792)" fill="#fff"/>
        <path id="パス_6877" data-name="パス 6877" d="M-8.35-28c-2.55.8-13.85,3.85-16.1,4.55a20.459,20.459,0,0,1-.6-5.7,77.977,77.977,0,0,1,.6-9.1,11.836,11.836,0,0,0,.65-1.7c0-.25-.1-.6-1.8-.75l-6.35-.6c.05,1.8.1,3.8.1,5.6,0,10.1,0,11.2,1.1,14.45-7.65,3.2-12.2,6.7-12.2,12.7C-42.95,2.4-28.8,2.4-21.6,2.4c3.95,0,9.65-.15,13.6-.6V-3.05a55.985,55.985,0,0,1-13.9,1.7c-4.65,0-13.4-.65-13.4-7.95,0-7.1,7.55-9.55,14.05-11.2a72.434,72.434,0,0,1,13.9-2Z" transform="translate(228.954 61.549) rotate(-8)" fill="#fff"/>
        <path id="パス_6875" data-name="パス 6875" d="M-22.848.969C-18.411.2-2.856-2.448-2.856-19.788c0-14.076-10.506-19.482-21.318-19.482-15.249,0-23.868,11.067-23.868,22.746,0,8.058,4.539,15.453,11.781,15.453,9.843,0,12.8-14.688,14.229-34.272,10.1,2.091,11.475,9.894,11.475,14.943,0,15.1-9.945,17.238-13.362,17.952Zm-6.528-36.261C-30.4-14.586-34.527-5.1-37.026-5.1s-4.794-2.7-4.794-9.894C-41.82-18.513-41.31-31.671-29.376-35.292Z" transform="translate(433.472 66.792)" fill="#fff"/>
      </g>
    </g>
    <g id="グループ_7143" data-name="グループ 7143" transform="translate(23.519 104.622)">
      <rect id="長方形_3459-2" data-name="長方形 3459" width="500" height="94" rx="3" transform="translate(0.016 -0.283)" fill="#6cba6c"/>
      <g id="グループ_7139-2" data-name="グループ 7139" transform="translate(53.528 2.433)">
        <path id="パス_6878" data-name="パス 6878" d="M43.146-7.344A77.791,77.791,0,0,1,22.287-4.59c-6.375,0-10.2-1.122-10.2-4.59,0-2.652,1.938-5.1,2.652-6.018L11.883-16.83C10.608-15.657,7.038-12.24,7.038-7.5c0,8.568,14.484,8.568,19.176,8.568A132.227,132.227,0,0,0,43.146-.1Zm-31.518-28.1c8.364-.255,19.176.714,26.877,4.386L39.933-38.3a62.945,62.945,0,0,0-15.1-1.581,85.438,85.438,0,0,0-13.311,1.02Zm87.108,28.1A77.791,77.791,0,0,1,77.877-4.59c-6.375,0-10.2-1.122-10.2-4.59,0-2.652,1.938-5.1,2.652-6.018L67.473-16.83C66.2-15.657,62.628-12.24,62.628-7.5c0,8.568,14.484,8.568,19.176,8.568A132.227,132.227,0,0,0,98.736-.1Zm-31.518-28.1c8.364-.255,19.176.714,26.877,4.386L95.523-38.3a62.945,62.945,0,0,0-15.1-1.581,85.438,85.438,0,0,0-13.311,1.02ZM127.143,2.193c1.173.051,2.193.1,5.916.1,6.018,0,23.868-.1,23.868-15.3,0-9.18-7.038-12.852-14.484-12.852a25.638,25.638,0,0,0-7.5,1.071A172.762,172.762,0,0,1,149.379-37.74l-2.448-3.417c-4.743.663-17.6,1.02-24.021.969v3.876c2.958-.2,8.619-.612,15.453-.867-3.162,2.958-9.486,8.925-22.644,21.726l5.406,4.488c5.406-6.222,10.149-11.22,18.156-11.22,7.089,0,9.588,4.386,9.588,9.027,0,8.415-8.211,12.138-17.8,12.138-.867,0-2.55-.051-4.284-.2Zm83.334-26.418c-2.4.867-5.916,2.142-10.047,3.876-.663-1.734-2.193-6.018-8.466-6.018a9.2,9.2,0,0,0-5.508,1.683c1.989-3.468,2.754-4.794,4.131-7.089,5.2-.306,11.271-.663,15.555-.969v-3.927c-3.621.867-9.792,1.275-13.515,1.53.51-.816,2.295-3.774,2.652-4.131.51-.51.816-.816.816-1.071,0-.51-1.02-.765-1.581-.918l-6.375-1.683a70.232,70.232,0,0,1-3.978,8.262c-4.131.2-7.191.255-10.914.153l-.1,3.723c4.488-.255,4.947-.306,9.282-.51-.2.408-7.4,14.025-10.4,20.757l6.273,2.5c5.457-13.005,8.517-14.637,11.679-14.637,3.57,0,4.182,3.417,4.488,5.1-11.271,5.814-12.9,10-12.9,13.311,0,5.3,4.59,7.5,14.178,7.5h7.191a76.845,76.845,0,0,0,8.415-.51l-.1-4.131A66.2,66.2,0,0,1,198.645-.2c-4.386,0-10.2-.357-10.2-5.457,0-4.437,3.927-6.681,6.222-8.007-.051,4.488-.1,6.426-.153,8.619H201.4c.051-6.63,0-8.313-.2-11.322a53.143,53.143,0,0,1,10.812-2.6Zm16.422-.1c4.59-2.3,15.657-6.63,22.236-6.63,7.5,0,12.444,4.131,12.444,11.475,0,11.118-11.883,16.014-23.868,15.4l.765,3.621c19.686-.255,31.008-8.109,31.008-19.278,0-9.741-7.191-15.351-16.626-15.351-7.242,0-14.994,2.193-20.094,3.672a53.6,53.6,0,0,1-7.548,1.581Zm80.58-1.377c.153,10,.153,11.22.459,15.1a39.063,39.063,0,0,0-4.029-.255c-6.426,0-10.4,3.315-10.4,7.089,0,3.162,2.8,6.579,10.863,6.579,2.652,0,6.579-.306,8.874-2.346a5.629,5.629,0,0,0,1.785-4.284A27.345,27.345,0,0,1,320.79.612l4.233-5.151a50.38,50.38,0,0,0-10.3-4.539c-.255-5.712-.306-9.078-.306-10.455a28.7,28.7,0,0,1,.153-3.774,14.143,14.143,0,0,0,.51-1.326c0-.255-.1-.459-1.989-.612Zm.714,18.768c.051.459.2,2.856.2,2.907,0,2.346-2.193,3.315-4.437,3.315-2.5,0-4.335-1.071-4.335-3.417,0-3.162,3.825-3.366,5-3.366A13.085,13.085,0,0,1,308.193-6.936ZM325.635-30.5a117.573,117.573,0,0,0-15.1-4.641L308.6-32.385a45.522,45.522,0,0,1,13.719,7.344ZM282.8-28.56c1.02-.051,5.049-.306,6.528-.357-1.989,5.661-4.845,13.821-7.752,22.9l6.885,1.836a193.243,193.243,0,0,1,7.8-25.092c3.876-.255,6.171-.459,9.129-.867v-3.876a47.845,47.845,0,0,1-7.8,1.275c.408-.969,1.836-4.692,2.244-5.253.153-.255,1.02-1.173,1.02-1.428,0-.357-.2-.561-1.581-.918l-5.355-1.326c-.51,1.479-2.907,8.058-3.366,9.384-3.825,0-5.1,0-7.752-.2Zm82.824-14.892c-8.976,7.242-11.322,9.129-16.065,13.668-2.55,2.5-8.466,8.211-8.466,10.2,0,1.173,1.122,2.091,3.417,3.621,6.528,4.386,19.635,14.739,24.684,20.655l5.355-6.681c-7.6-6.426-16.83-12.138-23.97-16.524-.663-.408-1.938-1.326-1.938-1.887,0-2.4,19.278-15.912,21.471-16.269,1.071-.2,1.377-.2,1.377-.714,0-.459-.561-1.071-1.173-1.632Zm.1,15.3a35.165,35.165,0,0,1,4.794,6.579l3.213-2.3a40.43,40.43,0,0,0-5.712-6.018Zm12.648,1.071a36.085,36.085,0,0,0-5.355-5.1l-2.346,1.632a30.213,30.213,0,0,1,4.488,5.763Z" transform="translate(0.488 63.284)" fill="#fff"/>
      </g>
    </g>
    <g id="グループ_7144" data-name="グループ 7144" transform="translate(48.661 207.622)">
      <rect id="長方形_3459-3" data-name="長方形 3459" width="544" height="95" rx="3" transform="translate(-0.126 -0.283)" fill="#6cba6c"/>
      <g id="グループ_7139-3" data-name="グループ 7139" transform="translate(55.149 3.244)">
        <path id="パス_6879" data-name="パス 6879" d="M40.29-37.587a5.2,5.2,0,0,0,5.2,5.253,5.2,5.2,0,0,0,5.2-5.253,5.235,5.235,0,0,0-5.2-5.253A5.2,5.2,0,0,0,40.29-37.587Zm7.7,0a2.483,2.483,0,0,1-2.5,2.55,2.557,2.557,0,0,1-2.55-2.55,2.557,2.557,0,0,1,2.55-2.55A2.514,2.514,0,0,1,47.991-37.587ZM3.621-1.836C15.555-11.475,18.564-19.176,20.6-34.323c.051-.255.408-1.224.408-1.428,0-.255-.612-.357-1.02-.408l-7.344-1.224c0,19.89-6.324,28.152-11.781,33.66ZM29.733-35.9A100.876,100.876,0,0,1,41.361-3.315l7.854-3.264a110.839,110.839,0,0,0-12.7-26.163c-.51-.816-3.009-4.08-3.468-4.794ZM58.7-17.238c2.805-.051,3.927-.051,12.8-.051H90.933c3.264,0,9.588,0,12.648.051v-4.386c-4.131.051-8.772.051-12.8.051H71.349c-1.581,0-9.078-.051-12.648-.051Zm69.156,8.517c0,3.213,0,7.65-.1,10.863H135.3c0-1.275-.051-10.251-.051-10.659V-22.746A41.786,41.786,0,0,1,150.96-11.883l5.253-6.171a55.486,55.486,0,0,0-20.961-8.415V-38.505c0-.255.306-1.53.306-1.785,0-.357-.714-.408-1.071-.459l-6.732-.51c.051,1.326.1,2.958.1,6.375Zm86.19-19.635c-3.57.153-6.936.153-8.364.153h-7.752c0-1.785.051-10.812.1-11.169a6.955,6.955,0,0,0,.2-.867c0-.255-.2-.357-1.071-.408l-6.987-.459c.1,1.785.153,5.457.153,7.4V-28.2H179.52c-2.907,0-5.2-.051-8.619-.153v3.519c6.018-.153,6.63-.153,8.619-.153h10.761c-.1,8.874-.255,20.4-16.371,23.868l1.377,3.213c15.2-3.009,22.338-9.231,22.593-27.081h7.854c1.734,0,3.213.051,8.313.2Zm11.424,11.118c2.8-.051,3.927-.051,12.8-.051H257.7c3.264,0,9.588,0,12.648.051v-4.386c-4.131.051-8.772.051-12.8.051H238.119c-1.581,0-9.078-.051-12.648-.051ZM320.433-28.56c-2.6.816-14.127,3.927-16.422,4.641a20.868,20.868,0,0,1-.612-5.814,79.538,79.538,0,0,1,.612-9.282,12.074,12.074,0,0,0,.663-1.734c0-.255-.1-.612-1.836-.765l-6.477-.612c.051,1.836.1,3.876.1,5.712,0,10.3,0,11.424,1.122,14.739-7.8,3.264-12.444,6.834-12.444,12.954,0,11.169,14.433,11.169,21.777,11.169,4.029,0,9.843-.153,13.872-.612V-3.111a57.1,57.1,0,0,1-14.178,1.734c-4.743,0-13.668-.663-13.668-8.109,0-7.242,7.7-9.741,14.331-11.424a73.883,73.883,0,0,1,14.178-2.04Zm23.46-13.056c-.051,4.743-.867,25.755-.867,30.039,0,6.171,1.479,14.076,13.872,14.076,14.229,0,18.717-10.149,21.42-19.482l-3.009-.969c-1.53,4.437-5.049,14.637-15.555,14.637-9.18,0-9.333-6.273-9.333-9.588,0-3.009.867-24.225,1.122-25.449a16.806,16.806,0,0,0,.612-1.938c0-.408-.2-.663-2.193-.816ZM393.669-33.1c4.539-.51,14.841-1.479,23.664-1.683-4.488,2.652-13.005,7.65-13.005,18.564C404.328.51,423.249.918,428.706,1.02l.663-3.876c-9.486.714-17.187-3.57-17.187-14.229,0-11.73,9.18-18.105,19.839-18.156.459,0,2.244.051,3.366.1v-3.825c-6.63.255-36.006,1.683-42.024,1.938Z" transform="translate(-0.276 63.472)" fill="#fff"/>
      </g>
    </g>
  </g>
</svg>
