<svg id="グループ_5083" data-name="グループ 5083" xmlns="http://www.w3.org/2000/svg" width="220.294" height="188.855" viewBox="0 0 220.294 188.855">
  <g id="グループ_4765" data-name="グループ 4765" transform="translate(0 94.91)">
    <g id="グループ_4722" data-name="グループ 4722" transform="translate(5.687 5.372)">
      <g id="グループ_4719" data-name="グループ 4719" transform="translate(9.74)">
        <g id="グループ_4718" data-name="グループ 4718">
          <path id="パス_17" data-name="パス 17" d="M3731.9,730.8a44.157,44.157,0,0,1-10.665-1.42c-1.779-.445-6.433-2-15.194-4.939-16.66-5.59-55.676-18.678-61.38-17.888a52.5,52.5,0,0,0-13.359,4.219,3.9,3.9,0,1,1-3.144-7.139,60.064,60.064,0,0,1,15.434-4.807c6.286-.873,28.568,6.021,64.931,18.22,7,2.348,13.041,4.377,14.605,4.766,7.046,1.764,11.3,1.063,11.916.944,10.415-3.281,21.745-13.134,37.4-26.747,7.615-6.62,16.243-14.124,26.433-22.348,5.053-4.079,9.513-7.641,13.185-10.579,4.762-3.806,8.947-7.147,10.329-8.363a2.8,2.8,0,0,0-.482-1.95c-1.059-1.5-3.882-2.323-7.762-2.25-8.036.143-35.146,17.089-57.771,33.752a116.45,116.45,0,0,0-11.434,9.411,3.9,3.9,0,0,1-5.479-5.551,120.884,120.884,0,0,1,12.287-10.141c11.148-8.211,48.592-35.026,62.255-35.27,10.525-.184,14.14,4.621,15.365,7.505,1.456,3.432.985,7.589-1.1,9.669-1.033,1.034-4.226,3.592-11.343,9.282-3.667,2.93-8.114,6.484-13.156,10.555-10.079,8.133-18.649,15.587-26.213,22.163-16.45,14.306-28.336,24.642-40.36,28.361l-.187.052A21.851,21.851,0,0,1,3731.9,730.8Z" transform="translate(-3625.59 -642.471)" fill="#4e9174"/>
          <path id="パス_18" data-name="パス 18" d="M3731.774,730.913a44.577,44.577,0,0,1-10.727-1.427c-1.773-.444-6.437-2-15.211-4.944-15.973-5.36-53.381-17.91-60.721-17.91a4.131,4.131,0,0,0-.548.032,52.358,52.358,0,0,0-13.3,4.2,4.144,4.144,0,1,1-3.339-7.585,60.324,60.324,0,0,1,15.5-4.824,9.245,9.245,0,0,1,1.256-.077c7.711,0,29.229,6.713,63.786,18.307l.215.071c6.887,2.311,12.833,4.306,14.37,4.689a36.329,36.329,0,0,0,8.717,1.174,17,17,0,0,0,3.1-.234c10.342-3.259,21.641-13.087,37.284-26.691,7.607-6.617,16.233-14.116,26.44-22.353,4.994-4.032,9.406-7.56,13.059-10.478l.129-.1c4.517-3.609,8.787-7.023,10.245-8.294a2.56,2.56,0,0,0-.447-1.688c-1.008-1.426-3.8-2.217-7.559-2.146-7.983.142-35.035,17.063-57.629,33.7a117.38,117.38,0,0,0-11.406,9.387,4.145,4.145,0,0,1-5.825-5.9,122.676,122.676,0,0,1,12.313-10.162c11.168-8.224,48.668-35.073,62.4-35.318,10.69-.189,14.355,4.74,15.594,7.654,1.493,3.519,1,7.79-1.15,9.937-1.036,1.039-4.233,3.6-11.36,9.3-3.987,3.185-8.286,6.623-13.156,10.555-10.062,8.12-18.626,15.566-26.181,22.134-16.5,14.348-28.4,24.7-40.477,28.432l-.191.055A22.337,22.337,0,0,1,3731.774,730.913Zm-86.658-24.77c7.42,0,44.88,12.569,60.877,17.935,8.762,2.94,13.417,4.495,15.174,4.933a44.062,44.062,0,0,0,10.607,1.414,21.733,21.733,0,0,0,5.052-.487l.174-.049c11.978-3.7,23.845-14.025,40.275-28.311,7.584-6.595,16.146-14.043,26.215-22.169,4.873-3.932,9.174-7.371,13.162-10.556,7.111-5.685,10.3-8.242,11.319-9.263,2.017-2.015,2.467-6.056,1.044-9.4-1.19-2.8-4.774-7.543-15.133-7.357-13.59.243-50.983,27.021-62.118,35.223a121.247,121.247,0,0,0-12.26,10.117,3.657,3.657,0,0,0,5.138,5.205,117.573,117.573,0,0,1,11.461-9.434c22.655-16.688,49.823-33.656,57.91-33.8,4-.073,6.847.77,7.964,2.353a3.013,3.013,0,0,1,.522,2.124.239.239,0,0,1-.08.149c-1.4,1.227-5.538,4.537-10.334,8.371l-.127.1c-3.651,2.917-8.064,6.445-13.061,10.476-10.2,8.232-18.818,15.728-26.426,22.342-15.684,13.642-27.019,23.5-37.481,26.8a17.39,17.39,0,0,1-3.217.248,36.759,36.759,0,0,1-8.833-1.188c-1.557-.388-7.514-2.386-14.408-4.7l-.215-.072c-33.641-11.286-56.02-18.282-63.632-18.282a8.6,8.6,0,0,0-1.187.072,59.837,59.837,0,0,0-15.371,4.788,3.657,3.657,0,0,0,1.477,7,3.62,3.62,0,0,0,1.471-.311,52.76,52.76,0,0,1,13.427-4.237A4.524,4.524,0,0,1,3645.116,706.144Z" transform="translate(-3625.459 -642.34)" fill="#4e9174"/>
        </g>
      </g>
      <g id="グループ_4721" data-name="グループ 4721" transform="translate(0 65.845)">
        <g id="グループ_4720" data-name="グループ 4720">
          <path id="パス_19" data-name="パス 19" d="M3614.7,752.192a4.052,4.052,0,0,1-3.22-1.8c-.339-.536-1.868-3.327,1.612-5.706a3.9,3.9,0,0,1,5.375,5.488,3.852,3.852,0,0,1-1.294,1.251A4.837,4.837,0,0,1,3614.7,752.192Z" transform="translate(-3610.609 -743.766)" fill="#4e9174"/>
          <path id="パス_20" data-name="パス 20" d="M3614.569,752.3a4.333,4.333,0,0,1-3.425-1.908c-.361-.569-1.983-3.535,1.681-6.038a4.144,4.144,0,0,1,5.76,1.083,4.161,4.161,0,0,1-.048,4.748,4.1,4.1,0,0,1-1.37,1.319A5.116,5.116,0,0,1,3614.569,752.3Zm.591-8.181a3.639,3.639,0,0,0-2.06.638c-3.293,2.25-1.862,4.871-1.544,5.374a3.814,3.814,0,0,0,3.013,1.682,4.648,4.648,0,0,0,2.351-.728,3.625,3.625,0,0,0,1.213-1.173,3.658,3.658,0,0,0-2.973-5.793Z" transform="translate(-3610.475 -743.635)" fill="#4e9174"/>
        </g>
      </g>
    </g>
    <g id="グループ_4724" data-name="グループ 4724" transform="translate(152.16 0)">
      <g id="グループ_4723" data-name="グループ 4723" transform="translate(0)">
        <path id="パス_21" data-name="パス 21" d="M3840.344,654.366l-4.163-6.6,3.3-2.081c1.961-1.237,3.771-2.413,5.362-3.451,7.918-5.159,13.149-8.563,19.948-7.631,9.075,1.249,14.181,9.2,14.393,9.535l2.08,3.3-6.6,4.158-2.07-3.285c-.108-.165-3.5-5.243-8.868-5.981-3.766-.516-7.008,1.475-14.625,6.439-1.617,1.053-3.447,2.247-5.459,3.515Z" transform="translate(-3835.938 -634.206)" fill="#4e9174"/>
        <path id="パス_22" data-name="パス 22" d="M3840.21,654.478a.254.254,0,0,1-.056-.006.25.25,0,0,1-.151-.108l-4.16-6.6a.247.247,0,0,1,.076-.337l3.3-2.081c2-1.261,3.861-2.475,5.36-3.45,6.973-4.542,12.01-7.824,17.867-7.824a16.629,16.629,0,0,1,2.244.155c9.175,1.263,14.353,9.305,14.567,9.647l2.08,3.3a.242.242,0,0,1,.03.184.235.235,0,0,1-.108.152l-6.6,4.158a.244.244,0,0,1-.336-.076l-2.07-3.284c-.033-.049-3.419-5.144-8.693-5.87a8.082,8.082,0,0,0-1.107-.077c-3.265,0-6.637,2.1-13.352,6.479l-.091.059c-1.592,1.036-3.4,2.212-5.373,3.457l-3.3,2.081A.24.24,0,0,1,3840.21,654.478Zm-3.824-6.765,3.9,6.185,3.094-1.951c1.972-1.244,3.773-2.418,5.365-3.454l.089-.058c6.8-4.429,10.218-6.557,13.619-6.557a8.658,8.658,0,0,1,1.173.081c5.494.755,8.9,5.872,9.037,6.089l1.943,3.082,6.188-3.9-1.949-3.093c-.212-.333-5.269-8.192-14.221-9.424a16.157,16.157,0,0,0-2.179-.151c-5.711,0-10.7,3.249-17.6,7.745-1.5.976-3.36,2.19-5.365,3.454Z" transform="translate(-3835.806 -634.075)" fill="#4e9174"/>
      </g>
    </g>
    <g id="グループ_4726" data-name="グループ 4726" transform="translate(10.539 4.042)">
      <g id="グループ_4725" data-name="グループ 4725" transform="translate(0)">
        <path id="パス_23" data-name="パス 23" d="M3730.154,681.707c-15.154,0-32.519-.687-37.71-.908a3.9,3.9,0,1,1,.334-7.793c21.55.917,54.01,1.474,58.711-.157,2.749-.954,4.39-3.852,4.39-7.755,0-3.316-3.9-5.26-5.623-5.956-5.08-1.679-72.8-13.334-86.276-10.176-6.5,1.524-25.36,9.5-40.141,16.264a3.9,3.9,0,1,1-3.247-7.093c3.215-1.47,31.682-14.437,41.606-16.765,15.97-3.746,86.354,8.687,90.908,10.508,6.72,2.688,10.574,7.505,10.574,13.217,0,7.269-3.692,13.065-9.637,15.126C3750.776,681.354,3741.034,681.707,3730.154,681.707Z" transform="translate(-3618.069 -640.424)" fill="#4e9174"/>
        <path id="パス_24" data-name="パス 24" d="M3730.023,681.82c-15.212,0-32.718-.7-37.717-.908a4.144,4.144,0,0,1,.189-8.284l.159,0c12.8.544,27.446.882,38.237.882,11.4,0,18.449-.355,20.386-1.027,2.646-.917,4.226-3.731,4.226-7.525,0-3.18-3.826-5.067-5.472-5.73-4.567-1.508-57.875-10.7-79.318-10.7a32.329,32.329,0,0,0-6.812.534c-6.479,1.521-25.325,9.489-40.092,16.249a4.113,4.113,0,0,1-1.722.377,4.16,4.16,0,0,1-3.773-2.421,4.149,4.149,0,0,1,2.045-5.493c3.217-1.472,31.728-14.453,41.649-16.781a41.084,41.084,0,0,1,8.752-.706c24.782,0,78.333,9.638,82.306,11.226,6.815,2.727,10.726,7.626,10.726,13.443,0,7.376-3.756,13.26-9.8,15.355C3751.121,681.315,3743.056,681.82,3730.023,681.82Zm-37.527-8.7a3.656,3.656,0,0,0-.172,7.309c5,.213,22.5.908,37.7.908,12.978,0,20.989-.5,23.81-1.477,5.841-2.025,9.47-7.733,9.47-14.894,0-5.607-3.8-10.342-10.417-12.991-3.961-1.581-57.385-11.19-82.124-11.19a40.654,40.654,0,0,0-8.641.693c-9.874,2.316-38.344,15.279-41.559,16.749a3.655,3.655,0,0,0-1.8,4.847,3.666,3.666,0,0,0,3.328,2.136,3.618,3.618,0,0,0,1.517-.333c14.792-6.769,33.676-14.751,40.186-16.28a32.8,32.8,0,0,1,6.923-.547c21.481,0,74.893,9.211,79.485,10.728,1.754.706,5.792,2.711,5.792,6.188,0,4.011-1.7,7-4.554,7.985-2.51.871-12.559,1.054-20.545,1.054-10.8,0-25.457-.339-38.255-.883Z" transform="translate(-3617.938 -640.293)" fill="#4e9174"/>
      </g>
    </g>
    <g id="グループ_4728" data-name="グループ 4728" transform="translate(0 25.844)">
      <g id="グループ_4727" data-name="グループ 4727">
        <path id="パス_25" data-name="パス 25" d="M3606.049,682.277a4.017,4.017,0,0,1-3.728-2.583c-.124-.348-1.12-3.456,2.481-5.124a3.9,3.9,0,0,1,5.176,1.9,3.851,3.851,0,0,1,.342,2.045,3.81,3.81,0,0,1-2.849,3.566A5.62,5.62,0,0,1,3606.049,682.277Z" transform="translate(-3601.857 -673.965)" fill="#4e9174"/>
        <path id="パス_26" data-name="パス 26" d="M3605.92,682.389a4.3,4.3,0,0,1-3.961-2.743c-.131-.371-1.189-3.669,2.608-5.429a4.114,4.114,0,0,1,1.739-.385,4.151,4.151,0,0,1,4.127,4.576,4.054,4.054,0,0,1-3.03,3.777A5.913,5.913,0,0,1,3605.92,682.389Zm.387-8.069a3.622,3.622,0,0,0-1.534.34c-3.4,1.577-2.472,4.493-2.354,4.82a3.8,3.8,0,0,0,3.5,2.422,5.433,5.433,0,0,0,1.362-.188,3.57,3.57,0,0,0,2.663-3.34,3.654,3.654,0,0,0-3.639-4.053Z" transform="translate(-3601.725 -673.833)" fill="#4e9174"/>
      </g>
    </g>
    <g id="グループ_4730" data-name="グループ 4730" transform="translate(105.753 37.483)">
      <g id="グループ_4729" data-name="グループ 4729" transform="translate(0 0)">
        <path id="パス_27" data-name="パス 27" d="M3790.278,711.541a3.887,3.887,0,0,1-2.282-.74c-3.96-2.867-14.655-8.617-20.807-11.188a3.9,3.9,0,1,1,3.01-7.2c6.07,2.538,17.585,8.6,22.368,12.066a3.9,3.9,0,0,1-2.289,7.06Z" transform="translate(-3764.545 -691.869)" fill="#4e9174"/>
        <path id="パス_28" data-name="パス 28" d="M3790.146,711.653a4.12,4.12,0,0,1-2.427-.787c-3.947-2.856-14.617-8.593-20.759-11.16a4.144,4.144,0,1,1,3.2-7.647c6.088,2.543,17.625,8.623,22.422,12.092a4.145,4.145,0,0,1-2.434,7.5Zm-21.583-19.427a3.657,3.657,0,0,0-1.413,7.031c6.167,2.577,16.885,8.342,20.855,11.216a3.658,3.658,0,0,0,4.289-5.926c-4.771-3.451-16.264-9.5-22.323-12.037A3.628,3.628,0,0,0,3768.563,692.225Z" transform="translate(-3764.413 -691.738)" fill="#4e9174"/>
      </g>
    </g>
  </g>
  <g id="ハートのマーク2" transform="translate(65.296 0)">
    <path id="パス_5416" data-name="パス 5416" d="M77.111,29.736c-.194,0-.383,0-.577.006-11.791.227-19.417,6.04-23.7,13.089-4.278-7.049-11.9-12.862-23.7-13.089-.192,0-.385-.006-.577-.006A26.806,26.806,0,0,0,8.232,38.722C2.848,44.781,0,53.277,0,63.291c0,19.664,15.77,31.657,31.019,43.254A193.765,193.765,0,0,1,48.25,120.723l.235.319a5.593,5.593,0,0,0,4.189,2.092l.165,0,.173,0a5.6,5.6,0,0,0,4.179-2.088l.239-.326a193.386,193.386,0,0,1,17.229-14.175c15.249-11.6,31.018-23.59,31.018-43.254C105.677,43.534,93.929,29.736,77.111,29.736Zm-.455,67.7c-7.662,5.976-16.135,11.944-23.458,19.009-.142.138-.258.256-.361.367-.107-.113-.21-.225-.356-.367-9.763-9.415-21.573-16.9-30.778-25.016A56.432,56.432,0,0,1,10.394,78.616,28.942,28.942,0,0,1,6.015,63.291c0-9.129,2.644-15.995,6.714-20.573a20.743,20.743,0,0,1,15.838-6.969l.462.006C36,35.9,40.966,38.37,44.512,41.881A23.36,23.36,0,0,1,50.863,54.47a2,2,0,0,0,3.952,0,23.36,23.36,0,0,1,6.351-12.588c3.546-3.511,8.512-5.98,15.484-6.126l.462-.006a20.744,20.744,0,0,1,15.838,6.969c4.07,4.579,6.709,11.445,6.713,20.573a28.94,28.94,0,0,1-4.379,15.325C91.147,85.484,84.323,91.466,76.655,97.438Z" transform="translate(0 -29.736)" fill="#4e9174"/>
  </g>
</svg>
