<svg xmlns="http://www.w3.org/2000/svg" width="293.681" height="31.679" viewBox="0 0 293.681 31.679">
  <path id="パス_6926" data-name="パス 6926" d="M16.4-21.141a.285.285,0,0,0-.322.322v2.61a.285.285,0,0,0,.322.322h1.354a.943.943,0,0,0,.58-.193,36.6,36.6,0,0,0,3.029-2.836.125.125,0,0,0,.032-.145.125.125,0,0,0-.129-.081Zm14.5,3.8a1.679,1.679,0,0,1,.548,1.273,1.755,1.755,0,0,1-.532,1.289,1.737,1.737,0,0,1-1.273.532H20.013a.943.943,0,0,0-.58.193q-1.9,1.547-5.156,3.706a.613.613,0,0,0-.258.516v1a.217.217,0,0,0,.1.193.271.271,0,0,0,.226.032,68.241,68.241,0,0,0,8.314-2.61,3.611,3.611,0,0,1,1.354-.258,4.972,4.972,0,0,1,.548.032,3.43,3.43,0,0,1,1.74.806,1.226,1.226,0,0,1,.419.935v.258a1.216,1.216,0,0,1-.838.967A105.043,105.043,0,0,1,14.341-5.253a.359.359,0,0,0-.322.387v1.482q0,.967.5,1.225a6.254,6.254,0,0,0,2.3.258h7.154a2.234,2.234,0,0,0,2-.741,3.644,3.644,0,0,0,.419-1.321A1.382,1.382,0,0,1,27.135-5a1.469,1.469,0,0,1,.709-.193,1.209,1.209,0,0,1,.548.129,2.572,2.572,0,0,1,1.321,1A1.854,1.854,0,0,1,30.067-3,1.531,1.531,0,0,1,30-2.578,5.966,5.966,0,0,1,28.682.387Q27.489,1.644,24.3,1.644H16.532q-3.867,0-5.221-1.047T9.958-3.352V-7.444a.189.189,0,0,0-.1-.161.161.161,0,0,0-.193,0q-1.934,1-4.286,2.063a2.555,2.555,0,0,1-1.031.226,2.342,2.342,0,0,1-.741-.129,3,3,0,0,1-1.482-1A1.345,1.345,0,0,1,1.74-7.38,1.217,1.217,0,0,1,1.8-7.767a1.292,1.292,0,0,1,.87-1,57.44,57.44,0,0,0,10.28-5.285.182.182,0,0,0,.016-.129.076.076,0,0,0-.081-.064H3.352a1.737,1.737,0,0,1-1.273-.532,1.755,1.755,0,0,1-.532-1.289,1.755,1.755,0,0,1,.532-1.289,1.737,1.737,0,0,1,1.273-.532h8.314a.285.285,0,0,0,.322-.322v-2.61a.285.285,0,0,0-.322-.322H6.316a1.737,1.737,0,0,1-1.273-.532,1.718,1.718,0,0,1-.532-1.257,1.718,1.718,0,0,1,.532-1.257,1.737,1.737,0,0,1,1.273-.532h5.35a.285.285,0,0,0,.322-.322v-1.644a1.955,1.955,0,0,1,.6-1.434,1.974,1.974,0,0,1,1.45-.6,1.974,1.974,0,0,1,1.45.6,1.955,1.955,0,0,1,.6,1.434v1.644a.285.285,0,0,0,.322.322h5.027a1.646,1.646,0,0,1,1.208.5,1.646,1.646,0,0,1,.5,1.208q0,.032.048.048a.073.073,0,0,0,.081-.016q1.128-1.257,2.224-2.739a2.4,2.4,0,0,1,1.354-.935,2.233,2.233,0,0,1,.645-.1,2.337,2.337,0,0,1,1,.226,1.753,1.753,0,0,1,.935,1.1,1.894,1.894,0,0,1,.064.451,1.537,1.537,0,0,1-.354.967,53.029,53.029,0,0,1-5.092,5.9.125.125,0,0,0-.032.145.125.125,0,0,0,.129.081h5.511A1.661,1.661,0,0,1,30.905-17.338Zm15.759-8.379a2.208,2.208,0,0,1,.709-1.579,2.256,2.256,0,0,1,1.611-.645,1.982,1.982,0,0,1,1.515.661,2.5,2.5,0,0,1,.677,1.563q.064,1.063.193,2.191a32.753,32.753,0,0,0,.564,3.3,38.926,38.926,0,0,0,1.047,3.932A30.058,30.058,0,0,0,54.7-12.182a26.707,26.707,0,0,0,2.514,4.093,22.52,22.52,0,0,0,3.5,3.642,22.579,22.579,0,0,0,2.643,1.869,1.488,1.488,0,0,1,.806,1.192v.226A1.582,1.582,0,0,1,63.68,0,3.143,3.143,0,0,1,62.1.967a2.667,2.667,0,0,1-.58.064A2.426,2.426,0,0,1,60.328.709q-7.67-4.77-10.893-15.114-.032-.1-.1-.1t-.1.1A28.168,28.168,0,0,1,39.026.58,2.445,2.445,0,0,1,37.673,1a2.349,2.349,0,0,1-.387-.032A3.273,3.273,0,0,1,35.61.129,1.562,1.562,0,0,1,35.063-1.1a1.576,1.576,0,0,1,.709-1.386q.838-.58,1.611-1.225a24.666,24.666,0,0,0,2.836-2.707,19.113,19.113,0,0,0,2.175-3.045q.983-1.692,1.627-3.078a20.472,20.472,0,0,0,1.144-3.207q.5-1.821.757-3.013a27.3,27.3,0,0,0,.435-2.917q.177-1.724.242-2.5Q46.632-24.75,46.664-25.717ZM72.929-12.182a2.375,2.375,0,0,1,1.257-1.031,2.684,2.684,0,0,1,.709-.1,2.275,2.275,0,0,1,.9.193,1.844,1.844,0,0,1,1.031,1.16,1.825,1.825,0,0,1,.1.58,1.859,1.859,0,0,1-.258.935A53.53,53.53,0,0,1,72.7-4.705a2.1,2.1,0,0,1-1.482.838,2.17,2.17,0,0,1-.354.032,2.345,2.345,0,0,1-1.354-.419,1.809,1.809,0,0,1-.773-1.321V-5.8a1.845,1.845,0,0,1,.483-1.257A36.608,36.608,0,0,0,72.929-12.182Zm19.916-4.737h-7.38a.285.285,0,0,0-.322.322V-1.579a2.974,2.974,0,0,1-.87,2.272,3.676,3.676,0,0,1-2.61.822q-1.644,0-3.319-.1a2.3,2.3,0,0,1-1.5-.693,2.474,2.474,0,0,1-.725-1.531V-1a1.472,1.472,0,0,1,.5-1.112,1.627,1.627,0,0,1,1.144-.467.608.608,0,0,1,.193.032q.935.064,1.644.064a1.258,1.258,0,0,0,.9-.258,1.414,1.414,0,0,0,.29-.935q.032-1.192.032-12.923a.285.285,0,0,0-.322-.322h-9.12A2.151,2.151,0,0,1,69.9-17.5a1.97,1.97,0,0,1-.645-1.482,1.87,1.87,0,0,1,.645-1.45,2.094,2.094,0,0,1,1.386-.516h.161q.548.032,1,.032H80.5a.285.285,0,0,0,.322-.322v-2.32l-.032-.58a2.28,2.28,0,0,1,.612-1.579,2.07,2.07,0,0,1,1.6-.709,1.973,1.973,0,0,1,1.563.709,2.24,2.24,0,0,1,.612,1.547l-.032.645v2.288a.285.285,0,0,0,.322.322H92.78q.516,0,1.128-.032h.129a2.015,2.015,0,0,1,1.386.516,1.87,1.87,0,0,1,.645,1.45,1.97,1.97,0,0,1-.645,1.482,2.077,2.077,0,0,1-1.482.58h-1.1Zm-3.416,6.445a1.826,1.826,0,0,1-.322-1.031,3.186,3.186,0,0,1,.032-.451,1.757,1.757,0,0,1,.9-1.16,2.383,2.383,0,0,1,1.128-.29,2.119,2.119,0,0,1,.516.064,2.1,2.1,0,0,1,1.386.9q1.644,2.32,3.319,5.124a2.143,2.143,0,0,1,.29,1.063,2.667,2.667,0,0,1-.064.58,2.172,2.172,0,0,1-1.063,1.321,2.159,2.159,0,0,1-1.031.258,2.132,2.132,0,0,1-.612-.1,2.172,2.172,0,0,1-1.321-1.063Q90.976-8.153,89.429-10.474Zm15.179.258h-.064a2.436,2.436,0,0,1-1.74-.709,2.287,2.287,0,0,1-.773-1.756,2.387,2.387,0,0,1,.773-1.789,2.385,2.385,0,0,1,1.708-.677h.1q1.547.064,2.739.064h17.725q.612,0,1.289-.032h.1a2.385,2.385,0,0,1,1.708.677,2.269,2.269,0,0,1,.773,1.74,2.3,2.3,0,0,1-.773,1.772,2.385,2.385,0,0,1-1.708.677h-19.11Q106.025-10.248,104.607-10.216Zm57.847,7.509a2.269,2.269,0,0,1,.226.967,2.4,2.4,0,0,1-.161.87A2.232,2.232,0,0,1,161.229.483a2.205,2.205,0,0,1-.935.226,2.275,2.275,0,0,1-.9-.193A2.37,2.37,0,0,1,158.1-.773q-.258-.709-.548-1.354a.357.357,0,0,0-.419-.258q-7.315.87-19.239,2.095-.258.032-.677.064a1.811,1.811,0,0,1-.354.032,2.393,2.393,0,0,1-1.482-.516,2.347,2.347,0,0,1-.967-1.611,1.811,1.811,0,0,1-.032-.354A2.014,2.014,0,0,1,134.9-4a2.089,2.089,0,0,1,1.579-.741h1.192l.58-.032a.4.4,0,0,0,.419-.322q1.321-3.384,3.045-8.717t2.562-8.331l.29-1.16a2.93,2.93,0,0,1,1.16-1.708,2.567,2.567,0,0,1,1.45-.451,2.119,2.119,0,0,1,.516.064,2.048,2.048,0,0,1,1.482,1.1,2.143,2.143,0,0,1,.29,1.063,2.32,2.32,0,0,1-.161.838q-.193.548-.419,1.192Q144.762-8.54,143.634-5.479a.213.213,0,0,0,.032.193.131.131,0,0,0,.161.064q5.188-.516,11.408-1.257a.18.18,0,0,0,.177-.1.319.319,0,0,0,.016-.226q-1.128-2.256-2.095-3.9a1.756,1.756,0,0,1-.29-.967,1.825,1.825,0,0,1,.1-.58,1.642,1.642,0,0,1,1.031-1.128,2.337,2.337,0,0,1,1-.226,2.241,2.241,0,0,1,.806.161,2.433,2.433,0,0,1,1.418,1.1A99.49,99.49,0,0,1,162.454-2.707Zm4.705-4.318a1.642,1.642,0,0,1,.612-1.063,1.555,1.555,0,0,1,.9-.29h.29a1.747,1.747,0,0,1,1.1.677,1.68,1.68,0,0,1,.322,1v.258a32.244,32.244,0,0,1-1.192,5.317,1.259,1.259,0,0,1-.838.838,1.547,1.547,0,0,1-.548.1,1.494,1.494,0,0,1-.677-.161,1.7,1.7,0,0,1-.87-.9,2.063,2.063,0,0,1-.129-.709,2.667,2.667,0,0,1,.064-.58A24.778,24.778,0,0,0,167.159-7.025Zm7.863.322a1.214,1.214,0,0,1-.1-.483,1.185,1.185,0,0,1,.161-.58,1.255,1.255,0,0,1,.806-.709,1.381,1.381,0,0,1,.483-.1,1.494,1.494,0,0,1,.677.161,1.484,1.484,0,0,1,.773.838q.645,1.644,1.1,3.126a1.636,1.636,0,0,1,.064.451,1.527,1.527,0,0,1-.193.741,1.585,1.585,0,0,1-.935.806,1.137,1.137,0,0,1-.451.1,1.43,1.43,0,0,1-.645-.161,1.479,1.479,0,0,1-.709-.9Q175.667-4.866,175.022-6.7Zm-.58-8.25a1.418,1.418,0,0,1-.129-.58,1.137,1.137,0,0,1,.1-.451,1.266,1.266,0,0,1,.709-.773,1.491,1.491,0,0,1,.612-.129,1.46,1.46,0,0,1,.516.1,1.506,1.506,0,0,1,.838.741,29.087,29.087,0,0,1,1.837,4.286,1.46,1.46,0,0,1,.1.516,1.469,1.469,0,0,1-.193.709,1.87,1.87,0,0,1-.9.87.959.959,0,0,1-.483.129,1.016,1.016,0,0,1-.548-.161,1.255,1.255,0,0,1-.709-.806v-.064a.183.183,0,0,0-.226-.129l-1.192.1a.285.285,0,0,0-.322.322V1.192a1.646,1.646,0,0,1-.5,1.208,1.712,1.712,0,0,1-2.417,0,1.646,1.646,0,0,1-.5-1.208V-10.055a.26.26,0,0,0-.1-.209.342.342,0,0,0-.226-.081l-2.739.161a.286.286,0,0,1-.129.032,1.6,1.6,0,0,1-1.128-.451,1.639,1.639,0,0,1-.612-1.16v-.161a1.582,1.582,0,0,1,.387-1.063,1.572,1.572,0,0,1,1.16-.548l.419-.032a.488.488,0,0,0,.387-.193q.548-.709,1.225-1.644a.436.436,0,0,0,0-.548,27.9,27.9,0,0,0-2.578-3.029,2.122,2.122,0,0,1-.548-1.225V-20.4a1.9,1.9,0,0,1,.354-1.1l.419-.612a.762.762,0,0,1,.564-.338.713.713,0,0,1,.628.209q.1.064.129-.032.967-1.934,1.772-3.932a1.77,1.77,0,0,1,.935-1.031,1.771,1.771,0,0,1,.741-.161,1.924,1.924,0,0,1,.612.1,1.548,1.548,0,0,1,.935.935,1.418,1.418,0,0,1,.129.58,1.469,1.469,0,0,1-.193.709q-1.74,3.255-2.675,4.77a.369.369,0,0,0,.032.516q.548.645.709.838a.24.24,0,0,0,.177.064.2.2,0,0,0,.177-.1q1.16-1.9,2-3.48a1.654,1.654,0,0,1,1.031-.9,1.491,1.491,0,0,1,.612-.129,1.657,1.657,0,0,1,.741.193,1.452,1.452,0,0,1,.838.967,1.531,1.531,0,0,1,.064.419,1.481,1.481,0,0,1-.258.838q-2.643,4.028-5.027,7.122a.128.128,0,0,0-.016.161.155.155,0,0,0,.145.1l2.578-.129a.158.158,0,0,0,.145-.081.2.2,0,0,0,.016-.177Q174.668-14.534,174.442-14.953Zm17.241,7.605a.285.285,0,0,0-.322-.322h-6.993a.285.285,0,0,0-.322.322v5a.285.285,0,0,0,.322.322h6.993a.285.285,0,0,0,.322-.322ZM182.241,2.8a1.737,1.737,0,0,1-1.273-.532A1.737,1.737,0,0,1,180.437,1V-8.314a2.7,2.7,0,0,1,.822-1.982,2.7,2.7,0,0,1,1.982-.822h9.442a2.7,2.7,0,0,1,1.982.822,2.7,2.7,0,0,1,.822,1.982V.773a1.854,1.854,0,0,1-.548,1.337,1.812,1.812,0,0,1-1.354.564h-.773a1.082,1.082,0,0,1-.79-.338,1.082,1.082,0,0,1-.338-.79.114.114,0,0,0-.129-.129h-7.38a.114.114,0,0,0-.129.129,1.209,1.209,0,0,1-.371.886,1.209,1.209,0,0,1-.886.371Zm-2.449-26.136a1.729,1.729,0,0,1-.516-1.273,1.7,1.7,0,0,1,.532-1.273,1.764,1.764,0,0,1,1.273-.516h12.278a2.57,2.57,0,0,1,1.934.806,2.655,2.655,0,0,1,.773,1.9,56.788,56.788,0,0,1-.387,6.7,6.08,6.08,0,0,1-.806,2.739,3.7,3.7,0,0,1-2.449,1.289,17.138,17.138,0,0,1-2.127.1,2.094,2.094,0,0,1-1.386-.516,3,3,0,0,1-.87-1.386,1.217,1.217,0,0,1-.064-.387,1.36,1.36,0,0,1,.226-.741,1.105,1.105,0,0,1,.935-.483h1.482a1.412,1.412,0,0,0,1.031-.322q.548-.645.773-5.8a.309.309,0,0,0-.1-.226.309.309,0,0,0-.226-.1h-4.189a.319.319,0,0,0-.354.322,17.447,17.447,0,0,1-1.789,5.575,10.849,10.849,0,0,1-3.883,4,1.8,1.8,0,0,1-.9.258,2.119,2.119,0,0,1-.516-.064,2.286,2.286,0,0,1-1.257-.87,1.452,1.452,0,0,1-.322-.9,1.2,1.2,0,0,1,.032-.29,1.382,1.382,0,0,1,.677-1.031,8.261,8.261,0,0,0,2.8-2.82,11.222,11.222,0,0,0,1.289-3.851.242.242,0,0,0-.048-.226.26.26,0,0,0-.209-.1h-2.353A1.819,1.819,0,0,1,179.792-23.332Zm34.74-.419a.2.2,0,0,0-.177-.1.137.137,0,0,0-.145.1,27.974,27.974,0,0,1-4.705,5.527,38.3,38.3,0,0,1-6.478,4.85,1.917,1.917,0,0,1-1,.29,1.735,1.735,0,0,1-.548-.1,2.241,2.241,0,0,1-1.289-.9,1.579,1.579,0,0,1-.354-1,1.811,1.811,0,0,1,.032-.354,1.573,1.573,0,0,1,.773-1.128,29.725,29.725,0,0,0,5.849-4.367,31.549,31.549,0,0,0,4.528-5.3,4.186,4.186,0,0,1,1.386-1.289A3.493,3.493,0,0,1,214.178-28a3.849,3.849,0,0,1,3.255,1.74,30.573,30.573,0,0,0,4.947,5.382,27.943,27.943,0,0,0,5.881,3.9,1.757,1.757,0,0,1,.9,1.16,1.894,1.894,0,0,1,.064.451,1.713,1.713,0,0,1-.354,1.031,2.466,2.466,0,0,1-1.418,1.031,2.816,2.816,0,0,1-.612.064,2.324,2.324,0,0,1-1.1-.29,39.686,39.686,0,0,1-6.429-4.77A28.875,28.875,0,0,1,214.532-23.751Zm3.513,9.861a2.009,2.009,0,0,1,.6-1.45,1.93,1.93,0,0,1,1.434-.612,1.982,1.982,0,0,1,1.45.612,1.982,1.982,0,0,1,.612,1.45V.806a1.93,1.93,0,0,1-.612,1.434,2.009,2.009,0,0,1-1.45.6,1.955,1.955,0,0,1-1.434-.6,1.955,1.955,0,0,1-.6-1.434Zm-11.376.161a1.94,1.94,0,0,1,.6-1.45,1.983,1.983,0,0,1,1.434-.58,1.983,1.983,0,0,1,1.434.58,1.94,1.94,0,0,1,.6,1.45v2.063a28.569,28.569,0,0,1-.177,3.335A22.063,22.063,0,0,1,209.859-5a12.148,12.148,0,0,1-1.644,3.513,14.322,14.322,0,0,1-2.868,3.094,2.177,2.177,0,0,1-1.386.483,1.059,1.059,0,0,1-.258-.032,3.021,3.021,0,0,1-1.611-.709,1.526,1.526,0,0,1-.58-1.225,1.559,1.559,0,0,1,.612-1.289,12.265,12.265,0,0,0,2.449-2.514,9.179,9.179,0,0,0,1.386-2.82,17.562,17.562,0,0,0,.564-2.643,21.9,21.9,0,0,0,.145-2.659Zm48.34,8.991a.285.285,0,0,0,.322-.322v-.935a.285.285,0,0,0-.322-.322h-5.317a.285.285,0,0,0-.322.322v.935a.285.285,0,0,0,.322.322Zm-5.317-5.994a.285.285,0,0,0-.322.322v.773a.285.285,0,0,0,.322.322h5.317a.285.285,0,0,0,.322-.322v-.773a.285.285,0,0,0-.322-.322Zm-9.475-6.9a.285.285,0,0,0,.322.322h4.512a.285.285,0,0,0,.322-.322v-.935a.285.285,0,0,0-.322-.322h-4.512a.285.285,0,0,0-.322.322Zm14.5-.935a.285.285,0,0,0-.322-.322h-4.705a.285.285,0,0,0-.322.322v.935a.285.285,0,0,0,.322.322H254.4a.285.285,0,0,0,.322-.322Zm6.51,9.249a1.439,1.439,0,0,1,1.08.451,1.482,1.482,0,0,1,.435,1.063,1.428,1.428,0,0,1-.435,1.047,1.466,1.466,0,0,1-1.08.435h-1.579a.285.285,0,0,0-.322.322v3.448a1.919,1.919,0,0,1-.6,1.4,1.919,1.919,0,0,1-1.4.6h-.806a1.146,1.146,0,0,1-.838-.354,1.183,1.183,0,0,1-.354-.87q0-.129-.161-.129h-5.479a.285.285,0,0,0-.322.322V-.9a4.771,4.771,0,0,1-.387,2.175,2.646,2.646,0,0,1-1.354,1.144,13.545,13.545,0,0,1-4.157.548h-.032a2.049,2.049,0,0,1-1.289-.451,2.774,2.774,0,0,1-.9-1.128,1.137,1.137,0,0,1-.1-.451.9.9,0,0,1,.193-.548.923.923,0,0,1,.838-.483q1.063.032,2.385.032a.983.983,0,0,0,.628-.209.879.879,0,0,0,.177-.628v-.677a.285.285,0,0,0-.322-.322h-8.282a1.364,1.364,0,0,1-1-.419,1.383,1.383,0,0,1-.419-1.015,1.33,1.33,0,0,1,.419-1,1.391,1.391,0,0,1,1-.4h8.282a.285.285,0,0,0,.322-.322v-.935a.285.285,0,0,0-.322-.322H233.836a1.466,1.466,0,0,1-1.08-.435,1.428,1.428,0,0,1-.435-1.047,1.482,1.482,0,0,1,.435-1.063,1.439,1.439,0,0,1,1.08-.451h11.215a.285.285,0,0,0,.322-.322v-.773a.285.285,0,0,0-.322-.322H236.93a1.273,1.273,0,0,1-.935-.387,1.273,1.273,0,0,1-.387-.935,1.273,1.273,0,0,1,.387-.935,1.273,1.273,0,0,1,.935-.387h8.121a.285.285,0,0,0,.322-.322V-14.5a.285.285,0,0,0-.322-.322h-5.8a2.7,2.7,0,0,1-1.982-.822,2.7,2.7,0,0,1-.822-1.982v-.935a2.7,2.7,0,0,1,.822-1.982,2.7,2.7,0,0,1,1.982-.822h5.8a.285.285,0,0,0,.322-.322V-22.4a.285.285,0,0,0-.322-.322H234.642a1.492,1.492,0,0,1-1.1-.451,1.492,1.492,0,0,1-.451-1.1,1.492,1.492,0,0,1,.451-1.1,1.492,1.492,0,0,1,1.1-.451H245.18q.193,0,.193-.226a1.828,1.828,0,0,1,.564-1.337,1.865,1.865,0,0,1,1.37-.564h.161a1.828,1.828,0,0,1,1.337.564,1.828,1.828,0,0,1,.564,1.337.2.2,0,0,0,.226.226h10.828a1.546,1.546,0,0,1,1.112.451,1.466,1.466,0,0,1,.467,1.1,1.466,1.466,0,0,1-.467,1.1,1.546,1.546,0,0,1-1.112.451H249.691a.285.285,0,0,0-.322.322v.709a.285.285,0,0,0,.322.322h6.252a2.7,2.7,0,0,1,1.982.822,2.7,2.7,0,0,1,.822,1.982v.935a2.7,2.7,0,0,1-.822,1.982,2.7,2.7,0,0,1-1.982.822h-6.252a.285.285,0,0,0-.322.322v.806a.285.285,0,0,0,.322.322h6.832a2.7,2.7,0,0,1,1.982.822,2.7,2.7,0,0,1,.822,1.982v.935a.285.285,0,0,0,.322.322Zm23.2-9.765a.161.161,0,0,0,0-.193.217.217,0,0,0-.193-.1h-7.283a.158.158,0,0,0-.145.081.2.2,0,0,0-.016.177,16.321,16.321,0,0,1,.838,1.8.408.408,0,0,1-.032.354.523.523,0,0,1-.322.226h5.8a.456.456,0,0,0,.451-.29A21.793,21.793,0,0,0,284.432-19.078ZM294.744-7.412a1.564,1.564,0,0,1,.483,1.144,1.564,1.564,0,0,1-.483,1.144,1.546,1.546,0,0,1-1.128.483h-7.638a.1.1,0,0,0-.1.064.064.064,0,0,0,.032.1,27.99,27.99,0,0,0,8.024,3,1.273,1.273,0,0,1,.935.87,1.137,1.137,0,0,1,.1.451,1.325,1.325,0,0,1-.29.806,3.176,3.176,0,0,1-1.515,1.192,2.666,2.666,0,0,1-1,.193,2.32,2.32,0,0,1-.838-.161,27.439,27.439,0,0,1-8.7-4.737.128.128,0,0,0-.161-.016.155.155,0,0,0-.1.145V.935a1.865,1.865,0,0,1-.564,1.37,1.906,1.906,0,0,1-2.707,0,1.865,1.865,0,0,1-.564-1.37v-3.48a.155.155,0,0,0-.1-.145.128.128,0,0,0-.161.016,30.145,30.145,0,0,1-8.83,4.576,2.531,2.531,0,0,1-.806.129,2.275,2.275,0,0,1-.9-.193A3.038,3.038,0,0,1,266.32.773,1.2,1.2,0,0,1,266.03,0a1.317,1.317,0,0,1,.064-.419,1.184,1.184,0,0,1,.87-.838,33.6,33.6,0,0,0,8.153-3.223.064.064,0,0,0,.032-.1.1.1,0,0,0-.1-.064h-7.509a1.582,1.582,0,0,1-1.16-.483,1.564,1.564,0,0,1-.483-1.144,1.564,1.564,0,0,1,.483-1.144,1.582,1.582,0,0,1,1.16-.483h10.667a.285.285,0,0,0,.322-.322v-.806a.285.285,0,0,0-.322-.322h-7.767a1.349,1.349,0,0,1-1.015-.419,1.391,1.391,0,0,1-.4-1,1.391,1.391,0,0,1,.4-1,1.349,1.349,0,0,1,1.015-.419h7.767a.285.285,0,0,0,.322-.322v-.838a.285.285,0,0,0-.322-.322H268.9a1.492,1.492,0,0,1-1.1-.451,1.473,1.473,0,0,1-.451-1.08,1.473,1.473,0,0,1,.451-1.08,1.492,1.492,0,0,1,1.1-.451h4.447a.189.189,0,0,0,.161-.1.213.213,0,0,0,.032-.193,14.609,14.609,0,0,0-.838-1.966.277.277,0,0,1-.016-.242.245.245,0,0,1,.177-.145h-5.253a1.572,1.572,0,0,1-1.128-.467A1.512,1.512,0,0,1,266-20.963a1.512,1.512,0,0,1,.483-1.128,1.572,1.572,0,0,1,1.128-.467h2.514a.189.189,0,0,0,.161-.1.271.271,0,0,0,.032-.226q-.387-.935-1.063-2.224a1.469,1.469,0,0,1-.193-.709,1.209,1.209,0,0,1,.129-.548,1.352,1.352,0,0,1,.87-.87,2.387,2.387,0,0,1,.757-.129,2.387,2.387,0,0,1,.757.129,2.024,2.024,0,0,1,1.128.935q.548.9.935,1.708a1.242,1.242,0,0,1,.161.612,1.352,1.352,0,0,1-.129.548,1.466,1.466,0,0,1-.87.806v.032a.028.028,0,0,0,.032.032h2.481a.285.285,0,0,0,.322-.322V-26.1a1.748,1.748,0,0,1,.548-1.305,1.809,1.809,0,0,1,1.305-.532,1.755,1.755,0,0,1,1.289.532,1.774,1.774,0,0,1,.532,1.305v3.223a.285.285,0,0,0,.322.322h1.8a.285.285,0,0,0,.322-.322V-26.1a1.748,1.748,0,0,1,.548-1.305,1.809,1.809,0,0,1,1.305-.532,1.809,1.809,0,0,1,1.305.532,1.748,1.748,0,0,1,.548,1.305v3.223a.285.285,0,0,0,.322.322h2.481v-.064a.782.782,0,0,1-.58-.5.924.924,0,0,1,.032-.79q.419-.838.838-1.8a2.449,2.449,0,0,1,1.128-1.289,2.324,2.324,0,0,1,1.1-.29,2.252,2.252,0,0,1,.548.064,1.557,1.557,0,0,1,1.1.9,2.132,2.132,0,0,1,.1.612,1.577,1.577,0,0,1-.226.806q-.773,1.289-1.289,2.063a.181.181,0,0,0-.016.193.18.18,0,0,0,.177.1h2.353a1.556,1.556,0,0,1,1.144.467,1.537,1.537,0,0,1,.467,1.128,1.537,1.537,0,0,1-.467,1.128,1.556,1.556,0,0,1-1.144.467h-4.286a.521.521,0,0,0-.483.29q-.58,1.063-1.225,2.063a.244.244,0,0,0,.016.193.155.155,0,0,0,.145.1h4.608a1.492,1.492,0,0,1,1.1.451,1.473,1.473,0,0,1,.451,1.08,1.473,1.473,0,0,1-.451,1.08,1.492,1.492,0,0,1-1.1.451h-9.6a.285.285,0,0,0-.322.322v.838a.285.285,0,0,0,.322.322h8.186a1.364,1.364,0,0,1,1,.419,1.364,1.364,0,0,1,.419,1,1.364,1.364,0,0,1-.419,1,1.364,1.364,0,0,1-1,.419h-8.186a.285.285,0,0,0-.322.322v.806a.285.285,0,0,0,.322.322h10.925A1.546,1.546,0,0,1,294.744-7.412Z" transform="translate(-1.547 28.714)" fill="#47b847"/>
</svg>
