<svg xmlns="http://www.w3.org/2000/svg" width="269.307" height="22.079" viewBox="0 0 269.307 22.079">
  <path id="パス_6928" data-name="パス 6928" d="M11.433-14.734a.2.2,0,0,0-.225.225v1.819a.2.2,0,0,0,.225.225h.943a.657.657,0,0,0,.4-.135,25.509,25.509,0,0,0,2.111-1.977.087.087,0,0,0,.022-.1.087.087,0,0,0-.09-.056Zm10.107,2.65a1.17,1.17,0,0,1,.382.887,1.223,1.223,0,0,1-.371.9,1.21,1.21,0,0,1-.887.371H13.948a.657.657,0,0,0-.4.135Q12.219-8.715,9.95-7.21a.427.427,0,0,0-.18.359v.7a.151.151,0,0,0,.067.135A.189.189,0,0,0,10-6,47.562,47.562,0,0,0,15.79-7.816,2.517,2.517,0,0,1,16.733-8a3.466,3.466,0,0,1,.382.022,2.39,2.39,0,0,1,1.213.562.855.855,0,0,1,.292.651v.18a.847.847,0,0,1-.584.674A73.212,73.212,0,0,1,10-3.661a.25.25,0,0,0-.225.27v1.033q0,.674.348.854a4.359,4.359,0,0,0,1.606.18h4.986A1.557,1.557,0,0,0,18.1-1.842a2.539,2.539,0,0,0,.292-.921.963.963,0,0,1,.517-.719,1.024,1.024,0,0,1,.494-.135.842.842,0,0,1,.382.09,1.793,1.793,0,0,1,.921.7,1.292,1.292,0,0,1,.247.741,1.067,1.067,0,0,1-.045.292A4.158,4.158,0,0,1,19.99.27a4.158,4.158,0,0,1-3.055.876H11.522A6.347,6.347,0,0,1,7.884.416,3.318,3.318,0,0,1,6.94-2.336V-5.188A.132.132,0,0,0,6.873-5.3a.112.112,0,0,0-.135,0q-1.348.7-2.987,1.438a1.78,1.78,0,0,1-.719.157,1.632,1.632,0,0,1-.517-.09,2.091,2.091,0,0,1-1.033-.7.938.938,0,0,1-.27-.651.848.848,0,0,1,.045-.27.9.9,0,0,1,.606-.7A40.034,40.034,0,0,0,9.029-9.793a.127.127,0,0,0,.011-.09.053.053,0,0,0-.056-.045H2.336a1.21,1.21,0,0,1-.887-.371,1.223,1.223,0,0,1-.371-.9,1.223,1.223,0,0,1,.371-.9,1.21,1.21,0,0,1,.887-.371H8.131a.2.2,0,0,0,.225-.225V-14.51a.2.2,0,0,0-.225-.225H4.4a1.21,1.21,0,0,1-.887-.371,1.2,1.2,0,0,1-.371-.876,1.2,1.2,0,0,1,.371-.876,1.21,1.21,0,0,1,.887-.371H8.131a.2.2,0,0,0,.225-.225V-18.6a1.363,1.363,0,0,1,.416-1,1.376,1.376,0,0,1,1.011-.416,1.376,1.376,0,0,1,1.011.416,1.363,1.363,0,0,1,.416,1v1.146a.2.2,0,0,0,.225.225h3.5a1.147,1.147,0,0,1,.842.348,1.147,1.147,0,0,1,.348.842q0,.022.034.034a.051.051,0,0,0,.056-.011q.786-.876,1.55-1.909a1.674,1.674,0,0,1,.943-.651,1.556,1.556,0,0,1,.449-.067,1.629,1.629,0,0,1,.7.157,1.222,1.222,0,0,1,.651.764,1.32,1.32,0,0,1,.045.314,1.071,1.071,0,0,1-.247.674,36.96,36.96,0,0,1-3.549,4.11.087.087,0,0,0-.022.1.087.087,0,0,0,.09.056h3.841A1.157,1.157,0,0,1,21.54-12.084Zm10.983-5.84a1.539,1.539,0,0,1,.494-1.1,1.572,1.572,0,0,1,1.123-.449,1.382,1.382,0,0,1,1.056.46,1.74,1.74,0,0,1,.472,1.089q.045.741.135,1.527a22.828,22.828,0,0,0,.393,2.3,27.13,27.13,0,0,0,.73,2.74,20.949,20.949,0,0,0,1.2,2.864,18.614,18.614,0,0,0,1.752,2.853A15.7,15.7,0,0,0,42.316-3.1a15.737,15.737,0,0,0,1.842,1.3,1.037,1.037,0,0,1,.562.831v.157A1.1,1.1,0,0,1,44.383,0a2.19,2.19,0,0,1-1.1.674,1.859,1.859,0,0,1-.4.045,1.691,1.691,0,0,1-.831-.225Q36.7-2.83,34.455-10.04q-.022-.067-.067-.067t-.067.067A19.632,19.632,0,0,1,27.2.4,1.7,1.7,0,0,1,26.257.7a1.637,1.637,0,0,1-.27-.022A2.281,2.281,0,0,1,24.819.09a1.089,1.089,0,0,1-.382-.854,1.1,1.1,0,0,1,.494-.966q.584-.4,1.123-.854A17.192,17.192,0,0,0,28.031-4.47a13.321,13.321,0,0,0,1.516-2.123q.685-1.179,1.134-2.145a14.268,14.268,0,0,0,.8-2.235q.348-1.269.528-2.1a19.029,19.029,0,0,0,.3-2.033q.124-1.2.168-1.741Q32.5-17.25,32.523-17.924ZM50.829-8.49a1.656,1.656,0,0,1,.876-.719,1.871,1.871,0,0,1,.494-.067,1.585,1.585,0,0,1,.629.135,1.285,1.285,0,0,1,.719.809,1.272,1.272,0,0,1,.067.4,1.3,1.3,0,0,1-.18.651,37.308,37.308,0,0,1-2.763,4,1.467,1.467,0,0,1-1.033.584,1.512,1.512,0,0,1-.247.022,1.634,1.634,0,0,1-.943-.292,1.261,1.261,0,0,1-.539-.921v-.157a1.286,1.286,0,0,1,.337-.876A25.515,25.515,0,0,0,50.829-8.49Zm13.881-3.3H59.566a.2.2,0,0,0-.225.225V-1.1A2.073,2.073,0,0,1,58.735.483a2.562,2.562,0,0,1-1.819.573q-1.146,0-2.313-.067A1.6,1.6,0,0,1,53.558.505a1.724,1.724,0,0,1-.505-1.067V-.7a1.026,1.026,0,0,1,.348-.775,1.134,1.134,0,0,1,.8-.326.424.424,0,0,1,.135.022q.651.045,1.146.045a.877.877,0,0,0,.629-.18.985.985,0,0,0,.2-.651q.022-.831.022-9.007a.2.2,0,0,0-.225-.225H49.751a1.5,1.5,0,0,1-1.033-.4,1.373,1.373,0,0,1-.449-1.033,1.3,1.3,0,0,1,.449-1.011,1.459,1.459,0,0,1,.966-.359H49.8q.382.022.7.022h5.615a.2.2,0,0,0,.225-.225v-1.617l-.022-.4a1.589,1.589,0,0,1,.427-1.1,1.442,1.442,0,0,1,1.112-.494,1.375,1.375,0,0,1,1.089.494,1.561,1.561,0,0,1,.427,1.078l-.022.449V-14.8a.2.2,0,0,0,.225.225h5.1q.359,0,.786-.022h.09a1.4,1.4,0,0,1,.966.359,1.3,1.3,0,0,1,.449,1.011,1.373,1.373,0,0,1-.449,1.033,1.448,1.448,0,0,1-1.033.4H64.71ZM62.329-7.3a1.273,1.273,0,0,1-.225-.719,2.221,2.221,0,0,1,.022-.314,1.224,1.224,0,0,1,.629-.809,1.661,1.661,0,0,1,.786-.2A1.477,1.477,0,0,1,63.9-9.3a1.461,1.461,0,0,1,.966.629Q66.013-7.053,67.181-5.1a1.493,1.493,0,0,1,.2.741,1.859,1.859,0,0,1-.045.4,1.514,1.514,0,0,1-.741.921,1.5,1.5,0,0,1-.719.18,1.486,1.486,0,0,1-.427-.067,1.514,1.514,0,0,1-.921-.741Q63.407-5.683,62.329-7.3Zm10.579.18h-.045a1.7,1.7,0,0,1-1.213-.494,1.594,1.594,0,0,1-.539-1.224,1.664,1.664,0,0,1,.539-1.247,1.662,1.662,0,0,1,1.19-.472h.067q1.078.045,1.909.045H87.171q.427,0,.9-.022h.067a1.662,1.662,0,0,1,1.19.472,1.582,1.582,0,0,1,.539,1.213,1.606,1.606,0,0,1-.539,1.235,1.662,1.662,0,0,1-1.19.472H74.817Q73.9-7.143,72.908-7.12Zm40.317,5.233a1.582,1.582,0,0,1,.157.674,1.675,1.675,0,0,1-.112.606,1.556,1.556,0,0,1-.9.943,1.537,1.537,0,0,1-.651.157,1.585,1.585,0,0,1-.629-.135,1.652,1.652,0,0,1-.9-.9q-.18-.494-.382-.943a.249.249,0,0,0-.292-.18q-5.1.606-13.409,1.46-.18.022-.472.045a1.262,1.262,0,0,1-.247.022,1.667,1.667,0,0,1-1.033-.359,1.636,1.636,0,0,1-.674-1.123,1.262,1.262,0,0,1-.022-.247,1.4,1.4,0,0,1,.359-.921,1.456,1.456,0,0,1,1.1-.517h.831l.4-.022a.282.282,0,0,0,.292-.225q.921-2.358,2.123-6.076t1.786-5.806l.2-.809a2.042,2.042,0,0,1,.809-1.19,1.789,1.789,0,0,1,1.011-.314,1.477,1.477,0,0,1,.359.045,1.427,1.427,0,0,1,1.033.764,1.493,1.493,0,0,1,.2.741,1.617,1.617,0,0,1-.112.584q-.135.382-.292.831-2.875,8.827-3.661,10.961a.149.149,0,0,0,.022.135.091.091,0,0,0,.112.045q3.616-.359,7.951-.876a.125.125,0,0,0,.124-.067.222.222,0,0,0,.011-.157q-.786-1.572-1.46-2.718a1.224,1.224,0,0,1-.2-.674,1.272,1.272,0,0,1,.067-.4,1.145,1.145,0,0,1,.719-.786,1.629,1.629,0,0,1,.7-.157,1.562,1.562,0,0,1,.562.112,1.7,1.7,0,0,1,.988.764A69.341,69.341,0,0,1,113.226-1.887ZM116.5-4.9a1.145,1.145,0,0,1,.427-.741,1.084,1.084,0,0,1,.629-.2h.2a1.218,1.218,0,0,1,.764.472,1.171,1.171,0,0,1,.225.7v.18a22.473,22.473,0,0,1-.831,3.706.877.877,0,0,1-.584.584,1.078,1.078,0,0,1-.382.067,1.041,1.041,0,0,1-.472-.112,1.185,1.185,0,0,1-.606-.629,1.437,1.437,0,0,1-.09-.494,1.859,1.859,0,0,1,.045-.4A17.269,17.269,0,0,0,116.5-4.9Zm5.48.225a.846.846,0,0,1-.067-.337.826.826,0,0,1,.112-.4.875.875,0,0,1,.562-.494.962.962,0,0,1,.337-.067,1.041,1.041,0,0,1,.472.112,1.035,1.035,0,0,1,.539.584q.449,1.146.764,2.179a1.14,1.14,0,0,1,.045.314,1.064,1.064,0,0,1-.135.517,1.1,1.1,0,0,1-.651.562.793.793,0,0,1-.314.067,1,1,0,0,1-.449-.112,1.031,1.031,0,0,1-.494-.629Q122.435-3.392,121.985-4.672Zm-.4-5.75a.988.988,0,0,1-.09-.4.793.793,0,0,1,.067-.314.882.882,0,0,1,.494-.539,1.039,1.039,0,0,1,.427-.09,1.017,1.017,0,0,1,.359.067,1.049,1.049,0,0,1,.584.517A20.273,20.273,0,0,1,124.7-8.2a1.017,1.017,0,0,1,.067.359,1.024,1.024,0,0,1-.135.494,1.3,1.3,0,0,1-.629.606.668.668,0,0,1-.337.09.708.708,0,0,1-.382-.112.875.875,0,0,1-.494-.562v-.045a.128.128,0,0,0-.157-.09l-.831.067a.2.2,0,0,0-.225.225v8a1.147,1.147,0,0,1-.348.842,1.193,1.193,0,0,1-1.685,0A1.147,1.147,0,0,1,119.2.831V-7.008a.181.181,0,0,0-.067-.146.238.238,0,0,0-.157-.056l-1.909.112a.2.2,0,0,1-.09.022,1.116,1.116,0,0,1-.786-.314,1.142,1.142,0,0,1-.427-.809v-.112a1.1,1.1,0,0,1,.27-.741,1.1,1.1,0,0,1,.809-.382l.292-.022a.34.34,0,0,0,.27-.135q.382-.494.854-1.146a.3.3,0,0,0,0-.382,19.445,19.445,0,0,0-1.8-2.111,1.479,1.479,0,0,1-.382-.854v-.135a1.325,1.325,0,0,1,.247-.764l.292-.427a.531.531,0,0,1,.393-.236.5.5,0,0,1,.438.146q.067.045.09-.022.674-1.348,1.235-2.74a1.234,1.234,0,0,1,.651-.719,1.235,1.235,0,0,1,.517-.112,1.341,1.341,0,0,1,.427.067,1.079,1.079,0,0,1,.651.651.988.988,0,0,1,.09.4,1.024,1.024,0,0,1-.135.494q-1.213,2.269-1.864,3.324a.257.257,0,0,0,.022.359q.382.449.494.584a.167.167,0,0,0,.124.045.141.141,0,0,0,.124-.067q.809-1.325,1.393-2.426a1.153,1.153,0,0,1,.719-.629,1.039,1.039,0,0,1,.427-.09,1.155,1.155,0,0,1,.517.135,1.012,1.012,0,0,1,.584.674,1.067,1.067,0,0,1,.045.292,1.032,1.032,0,0,1-.18.584q-1.842,2.808-3.5,4.964a.089.089,0,0,0-.011.112.108.108,0,0,0,.1.067l1.8-.09a.11.11,0,0,0,.1-.056.142.142,0,0,0,.011-.124Q121.738-10.13,121.581-10.422Zm12.017,5.3a.2.2,0,0,0-.225-.225H128.5a.2.2,0,0,0-.225.225V-1.64a.2.2,0,0,0,.225.225h4.874a.2.2,0,0,0,.225-.225Zm-6.581,7.075a1.21,1.21,0,0,1-.887-.371A1.21,1.21,0,0,1,125.759.7V-5.795a1.883,1.883,0,0,1,.573-1.381,1.883,1.883,0,0,1,1.381-.573h6.581a1.883,1.883,0,0,1,1.381.573,1.883,1.883,0,0,1,.573,1.381V.539a1.292,1.292,0,0,1-.382.932,1.263,1.263,0,0,1-.943.393h-.539a.754.754,0,0,1-.55-.236.754.754,0,0,1-.236-.55.079.079,0,0,0-.09-.09h-5.144a.079.079,0,0,0-.09.09.843.843,0,0,1-.258.618.843.843,0,0,1-.618.258ZM125.31-16.262a1.205,1.205,0,0,1-.359-.887,1.187,1.187,0,0,1,.371-.887,1.23,1.23,0,0,1,.887-.359h8.558a1.791,1.791,0,0,1,1.348.562,1.85,1.85,0,0,1,.539,1.325,39.579,39.579,0,0,1-.27,4.672,4.237,4.237,0,0,1-.562,1.909,2.58,2.58,0,0,1-1.707.9,11.944,11.944,0,0,1-1.482.067,1.459,1.459,0,0,1-.966-.359,2.092,2.092,0,0,1-.606-.966.848.848,0,0,1-.045-.27.948.948,0,0,1,.157-.517.77.77,0,0,1,.651-.337h1.033a.984.984,0,0,0,.719-.225q.382-.449.539-4.043a.215.215,0,0,0-.067-.157.215.215,0,0,0-.157-.067h-2.92a.222.222,0,0,0-.247.225,12.16,12.16,0,0,1-1.247,3.886,7.562,7.562,0,0,1-2.707,2.785,1.258,1.258,0,0,1-.629.18,1.477,1.477,0,0,1-.359-.045,1.593,1.593,0,0,1-.876-.606,1.012,1.012,0,0,1-.225-.629.835.835,0,0,1,.022-.2.963.963,0,0,1,.472-.719,5.757,5.757,0,0,0,1.954-1.965,7.821,7.821,0,0,0,.9-2.684.169.169,0,0,0-.034-.157.181.181,0,0,0-.146-.067h-1.64A1.268,1.268,0,0,1,125.31-16.262Zm24.213-.292a.141.141,0,0,0-.124-.067.1.1,0,0,0-.1.067,19.5,19.5,0,0,1-3.279,3.852,26.7,26.7,0,0,1-4.515,3.38,1.336,1.336,0,0,1-.7.2,1.209,1.209,0,0,1-.382-.067,1.562,1.562,0,0,1-.9-.629,1.1,1.1,0,0,1-.247-.7,1.262,1.262,0,0,1,.022-.247,1.1,1.1,0,0,1,.539-.786,20.718,20.718,0,0,0,4.077-3.043,21.988,21.988,0,0,0,3.156-3.695,2.917,2.917,0,0,1,.966-.9,2.434,2.434,0,0,1,1.235-.337,2.683,2.683,0,0,1,2.269,1.213,21.309,21.309,0,0,0,3.448,3.751,19.475,19.475,0,0,0,4.1,2.718,1.224,1.224,0,0,1,.629.809,1.32,1.32,0,0,1,.045.314,1.194,1.194,0,0,1-.247.719,1.718,1.718,0,0,1-.988.719,1.963,1.963,0,0,1-.427.045,1.619,1.619,0,0,1-.764-.2,27.66,27.66,0,0,1-4.481-3.324A20.124,20.124,0,0,1,149.522-16.554Zm2.448,6.873a1.4,1.4,0,0,1,.416-1.011,1.345,1.345,0,0,1,1-.427,1.381,1.381,0,0,1,1.011.427,1.381,1.381,0,0,1,.427,1.011V.562a1.345,1.345,0,0,1-.427,1,1.4,1.4,0,0,1-1.011.416,1.363,1.363,0,0,1-1-.416,1.363,1.363,0,0,1-.416-1Zm-7.929.112a1.352,1.352,0,0,1,.416-1.011,1.382,1.382,0,0,1,1-.4,1.382,1.382,0,0,1,1,.4,1.352,1.352,0,0,1,.416,1.011v1.438a19.913,19.913,0,0,1-.124,2.325,15.378,15.378,0,0,1-.483,2.325,8.467,8.467,0,0,1-1.146,2.448,9.982,9.982,0,0,1-2,2.156,1.518,1.518,0,0,1-.966.337.738.738,0,0,1-.18-.022,2.106,2.106,0,0,1-1.123-.494,1.064,1.064,0,0,1-.4-.854,1.087,1.087,0,0,1,.427-.9,8.548,8.548,0,0,0,1.707-1.752,6.4,6.4,0,0,0,.966-1.965,12.241,12.241,0,0,0,.393-1.842,15.266,15.266,0,0,0,.1-1.853ZM177.733-3.3a.2.2,0,0,0,.225-.225v-.651a.2.2,0,0,0-.225-.225h-3.706a.2.2,0,0,0-.225.225v.651a.2.2,0,0,0,.225.225Zm-3.706-4.178a.2.2,0,0,0-.225.225v.539a.2.2,0,0,0,.225.225h3.706a.2.2,0,0,0,.225-.225v-.539a.2.2,0,0,0-.225-.225Zm-6.6-4.807a.2.2,0,0,0,.225.225h3.145a.2.2,0,0,0,.225-.225v-.651a.2.2,0,0,0-.225-.225h-3.145a.2.2,0,0,0-.225.225Zm10.107-.651a.2.2,0,0,0-.225-.225h-3.279a.2.2,0,0,0-.225.225v.651a.2.2,0,0,0,.225.225h3.279a.2.2,0,0,0,.225-.225Zm4.537,6.446a1,1,0,0,1,.752.314,1.033,1.033,0,0,1,.3.741,1,1,0,0,1-.3.73,1.022,1.022,0,0,1-.752.3h-1.1a.2.2,0,0,0-.225.225v2.4a1.337,1.337,0,0,1-.416.977,1.337,1.337,0,0,1-.977.416h-.562a.8.8,0,0,1-.584-.247.824.824,0,0,1-.247-.606q0-.09-.112-.09h-3.818a.2.2,0,0,0-.225.225v.472a3.325,3.325,0,0,1-.27,1.516,1.844,1.844,0,0,1-.943.8,9.44,9.44,0,0,1-2.9.382h-.022a1.428,1.428,0,0,1-.9-.314,1.933,1.933,0,0,1-.629-.786.793.793,0,0,1-.067-.314A.626.626,0,0,1,168.21.27a.643.643,0,0,1,.584-.337q.741.022,1.662.022a.685.685,0,0,0,.438-.146.613.613,0,0,0,.124-.438V-1.1a.2.2,0,0,0-.225-.225h-5.772a.951.951,0,0,1-.7-.292.964.964,0,0,1-.292-.708.927.927,0,0,1,.292-.7.97.97,0,0,1,.7-.281h5.772a.2.2,0,0,0,.225-.225v-.651a.2.2,0,0,0-.225-.225h-7.816a1.022,1.022,0,0,1-.752-.3,1,1,0,0,1-.3-.73,1.033,1.033,0,0,1,.3-.741,1,1,0,0,1,.752-.314h7.816a.2.2,0,0,0,.225-.225v-.539a.2.2,0,0,0-.225-.225h-5.66a.887.887,0,0,1-.651-.27.887.887,0,0,1-.27-.651.887.887,0,0,1,.27-.651.887.887,0,0,1,.651-.27h5.66a.2.2,0,0,0,.225-.225v-.562a.2.2,0,0,0-.225-.225H166.75a1.883,1.883,0,0,1-1.381-.573,1.883,1.883,0,0,1-.573-1.381v-.651a1.883,1.883,0,0,1,.573-1.381,1.883,1.883,0,0,1,1.381-.573h4.043a.2.2,0,0,0,.225-.225v-.494a.2.2,0,0,0-.225-.225h-7.255a1.04,1.04,0,0,1-.764-.314,1.04,1.04,0,0,1-.314-.764,1.04,1.04,0,0,1,.314-.764,1.04,1.04,0,0,1,.764-.314h7.345q.135,0,.135-.157a1.274,1.274,0,0,1,.393-.932,1.3,1.3,0,0,1,.955-.393h.112a1.274,1.274,0,0,1,.932.393,1.274,1.274,0,0,1,.393.932.139.139,0,0,0,.157.157h7.547a1.077,1.077,0,0,1,.775.314,1.022,1.022,0,0,1,.326.764,1.022,1.022,0,0,1-.326.764,1.077,1.077,0,0,1-.775.314h-7.479a.2.2,0,0,0-.225.225v.494a.2.2,0,0,0,.225.225h4.357a1.883,1.883,0,0,1,1.381.573,1.883,1.883,0,0,1,.573,1.381v.651a1.883,1.883,0,0,1-.573,1.381,1.883,1.883,0,0,1-1.381.573h-4.357a.2.2,0,0,0-.225.225v.562a.2.2,0,0,0,.225.225h4.762a1.883,1.883,0,0,1,1.381.573,1.883,1.883,0,0,1,.573,1.381v.651a.2.2,0,0,0,.225.225ZM198.24-13.3a.112.112,0,0,0,0-.135.151.151,0,0,0-.135-.067h-5.076a.11.11,0,0,0-.1.056.142.142,0,0,0-.011.124,11.375,11.375,0,0,1,.584,1.258.284.284,0,0,1-.022.247.364.364,0,0,1-.225.157H197.3a.318.318,0,0,0,.314-.2A15.188,15.188,0,0,0,198.24-13.3Zm7.188,8.131a1.09,1.09,0,0,1,.337.8,1.09,1.09,0,0,1-.337.8,1.077,1.077,0,0,1-.786.337h-5.323a.072.072,0,0,0-.067.045.044.044,0,0,0,.022.067,19.508,19.508,0,0,0,5.593,2.089.887.887,0,0,1,.651.606.793.793,0,0,1,.067.314.924.924,0,0,1-.2.562,2.214,2.214,0,0,1-1.056.831,1.858,1.858,0,0,1-.7.135,1.617,1.617,0,0,1-.584-.112A19.124,19.124,0,0,1,196.982-2a.089.089,0,0,0-.112-.011.108.108,0,0,0-.067.1V.651a1.3,1.3,0,0,1-.393.955,1.329,1.329,0,0,1-1.887,0,1.3,1.3,0,0,1-.393-.955V-1.774a.108.108,0,0,0-.067-.1.089.089,0,0,0-.112.011A21.01,21.01,0,0,1,187.8,1.325a1.764,1.764,0,0,1-.562.09,1.585,1.585,0,0,1-.629-.135,2.118,2.118,0,0,1-.988-.741.833.833,0,0,1-.2-.539.918.918,0,0,1,.045-.292.825.825,0,0,1,.606-.584,23.422,23.422,0,0,0,5.683-2.246.044.044,0,0,0,.022-.067.072.072,0,0,0-.067-.045h-5.233a1.1,1.1,0,0,1-.809-.337,1.09,1.09,0,0,1-.337-.8,1.09,1.09,0,0,1,.337-.8,1.1,1.1,0,0,1,.809-.337h7.435a.2.2,0,0,0,.225-.225v-.562a.2.2,0,0,0-.225-.225h-5.413a.94.94,0,0,1-.708-.292.97.97,0,0,1-.281-.7.97.97,0,0,1,.281-.7.94.94,0,0,1,.708-.292h5.413a.2.2,0,0,0,.225-.225V-9.3a.2.2,0,0,0-.225-.225h-6.491a1.04,1.04,0,0,1-.764-.314,1.027,1.027,0,0,1-.314-.752,1.027,1.027,0,0,1,.314-.752,1.04,1.04,0,0,1,.764-.314h3.1a.132.132,0,0,0,.112-.067.149.149,0,0,0,.022-.135,10.182,10.182,0,0,0-.584-1.37.193.193,0,0,1-.011-.168.171.171,0,0,1,.124-.1h-3.661a1.1,1.1,0,0,1-.786-.326,1.054,1.054,0,0,1-.337-.786,1.054,1.054,0,0,1,.337-.786,1.1,1.1,0,0,1,.786-.326h1.752a.132.132,0,0,0,.112-.067.189.189,0,0,0,.022-.157q-.27-.651-.741-1.55a1.024,1.024,0,0,1-.135-.494.842.842,0,0,1,.09-.382.942.942,0,0,1,.606-.606,1.663,1.663,0,0,1,.528-.09,1.663,1.663,0,0,1,.528.09,1.41,1.41,0,0,1,.786.651q.382.629.651,1.19a.866.866,0,0,1,.112.427.942.942,0,0,1-.09.382,1.022,1.022,0,0,1-.606.562v.022a.02.02,0,0,0,.022.022h1.729a.2.2,0,0,0,.225-.225v-2.246a1.218,1.218,0,0,1,.382-.91,1.261,1.261,0,0,1,.91-.371,1.223,1.223,0,0,1,.9.371,1.237,1.237,0,0,1,.371.91v2.246a.2.2,0,0,0,.225.225h1.258a.2.2,0,0,0,.225-.225v-2.246a1.218,1.218,0,0,1,.382-.91,1.261,1.261,0,0,1,.91-.371,1.261,1.261,0,0,1,.91.371,1.218,1.218,0,0,1,.382.91v2.246a.2.2,0,0,0,.225.225h1.729v-.045a.545.545,0,0,1-.4-.348.644.644,0,0,1,.022-.55q.292-.584.584-1.258a1.707,1.707,0,0,1,.786-.9,1.619,1.619,0,0,1,.764-.2,1.57,1.57,0,0,1,.382.045,1.085,1.085,0,0,1,.764.629,1.486,1.486,0,0,1,.067.427,1.1,1.1,0,0,1-.157.562q-.539.9-.9,1.438a.126.126,0,0,0-.011.135.125.125,0,0,0,.124.067h1.64a1.084,1.084,0,0,1,.8.326,1.071,1.071,0,0,1,.326.786,1.071,1.071,0,0,1-.326.786,1.084,1.084,0,0,1-.8.326h-2.987a.363.363,0,0,0-.337.2q-.4.741-.854,1.438a.17.17,0,0,0,.011.135.108.108,0,0,0,.1.067h3.212a1.04,1.04,0,0,1,.764.314,1.027,1.027,0,0,1,.314.752,1.027,1.027,0,0,1-.314.752,1.04,1.04,0,0,1-.764.314h-6.693a.2.2,0,0,0-.225.225v.584a.2.2,0,0,0,.225.225h5.705a.951.951,0,0,1,.7.292.951.951,0,0,1,.292.7.951.951,0,0,1-.292.7.951.951,0,0,1-.7.292h-5.705a.2.2,0,0,0-.225.225v.562a.2.2,0,0,0,.225.225h7.614A1.077,1.077,0,0,1,205.428-5.166Zm17.362-9.973a1.359,1.359,0,0,1,.786-.247,2.385,2.385,0,0,1,.337.022,1.384,1.384,0,0,1,.921.651,1.417,1.417,0,0,1,.225.764,1.858,1.858,0,0,1-.045.4,1.532,1.532,0,0,1-.719.921q-.427.2-.921.449-.067.045-1.235.618t-1.763.876q-.6.3-1.606.865t-1.752,1.033a9.976,9.976,0,0,0-2.347,2,3.339,3.339,0,0,0-.82,2.134q0,2.516,4.739,2.516a36.175,36.175,0,0,0,5.84-.517,1.512,1.512,0,0,1,.247-.022,1.4,1.4,0,0,1,.876.314,1.277,1.277,0,0,1,.472,1.011,1.935,1.935,0,0,1-.472,1.28,1.832,1.832,0,0,1-1.19.629,48.327,48.327,0,0,1-5.683.314q-7.951,0-7.951-5.166a5.631,5.631,0,0,1,.932-3.167,11.2,11.2,0,0,1,2.662-2.718.212.212,0,0,0,.067-.314q-1.1-2.089-2.471-5.166a1.537,1.537,0,0,1-.135-.606,1.617,1.617,0,0,1,.112-.584,1.509,1.509,0,0,1,.831-.831,1.617,1.617,0,0,1,.584-.112,1.537,1.537,0,0,1,.606.135,1.509,1.509,0,0,1,.831.831q.9,2.224,2.179,4.672a.182.182,0,0,0,.292.09q1.078-.629,2.841-1.572t1.9-1.011Zm10.489-1.235a1.683,1.683,0,0,1,.584-1.078,1.437,1.437,0,0,1,.988-.382h.135a1.327,1.327,0,0,1,.966.562,1.417,1.417,0,0,1,.225.764,1.477,1.477,0,0,1-.045.359q-.067.27-.112.494-.292,1.325-.685,4.279a37.05,37.05,0,0,0-.393,4.526,10.63,10.63,0,0,0,.067,1.258q0,.022.045.034a.055.055,0,0,0,.067-.034q.2-.517.562-1.3a.646.646,0,0,1,.472-.393.665.665,0,0,1,.606.146,1.22,1.22,0,0,1,.427.651,1.477,1.477,0,0,1,.045.359,1.272,1.272,0,0,1-.067.4,41.74,41.74,0,0,0-1.348,4.582q-.067.359-.112.7a1.589,1.589,0,0,1-.393.955,1.263,1.263,0,0,1-.865.438h-.135a1.5,1.5,0,0,1-.9-.292,1.35,1.35,0,0,1-.562-.876,28.277,28.277,0,0,1-.606-6.02,63.915,63.915,0,0,1,.943-9.479Q233.257-16.1,233.279-16.374ZM244.914-3.818v-.157a.263.263,0,0,0-.225-.292,6.831,6.831,0,0,0-1.617-.2,2.9,2.9,0,0,0-1.583.382,1.156,1.156,0,0,0-.6,1.011,1.077,1.077,0,0,0,.584.988,3.09,3.09,0,0,0,1.55.337,1.8,1.8,0,0,0,1.449-.517A2.348,2.348,0,0,0,244.914-3.818Zm6.109-.022a1.417,1.417,0,0,1,.562,1.011,1.143,1.143,0,0,1,.022.225,1.585,1.585,0,0,1-.27.9,1.161,1.161,0,0,1-.854.539.738.738,0,0,1-.18.022,1.2,1.2,0,0,1-.809-.314q-.764-.651-1.5-1.19a.126.126,0,0,0-.135-.011.108.108,0,0,0-.067.1A3.821,3.821,0,0,1,246.542.011a4.749,4.749,0,0,1-3.2.932,6.3,6.3,0,0,1-3.74-.977,3.192,3.192,0,0,1-1.359-2.751,3.428,3.428,0,0,1,1.37-2.83A5.8,5.8,0,0,1,243.3-6.693a10.276,10.276,0,0,1,1.258.067.238.238,0,0,0,.157-.056.181.181,0,0,0,.067-.146q-.112-2.4-.157-4.223,0-.225-.225-.2H243q-1.325,0-2.628-.045a1.452,1.452,0,0,1-.977-.46,1.375,1.375,0,0,1-.393-.977,1.221,1.221,0,0,1,.4-.921,1.258,1.258,0,0,1,.854-.337.37.37,0,0,1,.112.022q1.28.09,2.628.09.921,0,1.37-.022.225,0,.225-.247,0-.359-.011-.831t-.011-.809l-.022-.584a1.51,1.51,0,0,1,.427-1.078,1.363,1.363,0,0,1,1.078-.494,1.363,1.363,0,0,1,1.078.494,1.527,1.527,0,0,1,.4,1.056l-.067,2.066a.215.215,0,0,0,.067.157.156.156,0,0,0,.157.045q1.078-.112,1.909-.247a1.041,1.041,0,0,1,.2-.022,1.134,1.134,0,0,1,.764.292,1.087,1.087,0,0,1,.427.9,1.568,1.568,0,0,1-.4,1.067,1.509,1.509,0,0,1-.988.528q-.988.112-1.932.18a.222.222,0,0,0-.225.247q.045,1.977.247,5.121a.318.318,0,0,0,.225.314A13.658,13.658,0,0,1,251.023-3.841Zm14.892-3.392q-.584,1.325-1.55,1.325h-.135a1.5,1.5,0,0,1-1.1-.449.966.966,0,0,1-.314-.7,1.14,1.14,0,0,1,.045-.314,3.974,3.974,0,0,1,.741-1.292,7.016,7.016,0,0,1,1.1-1.067q.584-.449,1.146-.887a4.819,4.819,0,0,0,.932-.943,1.717,1.717,0,0,0,.371-1.022,1.852,1.852,0,0,0-.775-1.595,3.554,3.554,0,0,0-2.123-.562,4.478,4.478,0,0,0-2.74.921,1.708,1.708,0,0,1-.966.359H260.5a1.286,1.286,0,0,1-.876-.337,1.285,1.285,0,0,1-.427-.966,1.065,1.065,0,0,1,.382-.831,7.457,7.457,0,0,1,5.031-1.887,6.8,6.8,0,0,1,4.189,1.19,4.014,4.014,0,0,1,1.583,3.414,2.981,2.981,0,0,1-.371,1.46,4.205,4.205,0,0,1-.943,1.168q-.573.494-1.179.932a10.915,10.915,0,0,0-1.168.977A3.517,3.517,0,0,0,265.915-7.232ZM262.523-.427a2.185,2.185,0,0,1-.674-1.64,2.149,2.149,0,0,1,.674-1.628,2.394,2.394,0,0,1,1.718-.64,2.394,2.394,0,0,1,1.718.64,2.149,2.149,0,0,1,.674,1.628,2.149,2.149,0,0,1-.674,1.628,2.394,2.394,0,0,1-1.718.64A2.418,2.418,0,0,1,262.523-.427Z" transform="translate(-1.078 20.013)"/>
</svg>
