<svg xmlns="http://www.w3.org/2000/svg" width="320.889" height="17.279" viewBox="0 0 320.889 17.279">
  <path id="パス_6924" data-name="パス 6924" d="M8.947-11.531a.155.155,0,0,0-.176.176v1.424a.155.155,0,0,0,.176.176h.738A.514.514,0,0,0,10-9.861a19.963,19.963,0,0,0,1.652-1.547.068.068,0,0,0,.018-.079.068.068,0,0,0-.07-.044Zm7.91,2.074a.916.916,0,0,1,.3.694.958.958,0,0,1-.29.7.947.947,0,0,1-.694.29H10.916a.514.514,0,0,0-.316.105Q9.563-6.82,7.787-5.643a.334.334,0,0,0-.141.281v.545a.118.118,0,0,0,.053.105.148.148,0,0,0,.123.018,37.223,37.223,0,0,0,4.535-1.424,1.97,1.97,0,0,1,.738-.141,2.712,2.712,0,0,1,.3.018,1.871,1.871,0,0,1,.949.439.669.669,0,0,1,.229.51v.141a.663.663,0,0,1-.457.527A57.3,57.3,0,0,1,7.822-2.865a.2.2,0,0,0-.176.211v.809q0,.527.272.668a3.411,3.411,0,0,0,1.257.141h3.9a1.219,1.219,0,0,0,1.09-.4,1.987,1.987,0,0,0,.229-.721.754.754,0,0,1,.4-.562.8.8,0,0,1,.387-.105.659.659,0,0,1,.3.07,1.4,1.4,0,0,1,.721.545,1.011,1.011,0,0,1,.193.58.835.835,0,0,1-.035.229A3.254,3.254,0,0,1,15.645.211,3.254,3.254,0,0,1,13.254.9H9.018A4.967,4.967,0,0,1,6.17.325a2.6,2.6,0,0,1-.738-2.153V-4.061a.1.1,0,0,0-.053-.088.088.088,0,0,0-.105,0Q4.219-3.6,2.936-3.023a1.393,1.393,0,0,1-.562.123,1.277,1.277,0,0,1-.4-.07,1.636,1.636,0,0,1-.809-.545.734.734,0,0,1-.211-.51.664.664,0,0,1,.035-.211.7.7,0,0,1,.475-.545A31.331,31.331,0,0,0,7.066-7.664a.1.1,0,0,0,.009-.07.042.042,0,0,0-.044-.035h-5.2a.947.947,0,0,1-.694-.29.958.958,0,0,1-.29-.7.958.958,0,0,1,.29-.7.947.947,0,0,1,.694-.29H6.363a.155.155,0,0,0,.176-.176v-1.424a.155.155,0,0,0-.176-.176H3.445a.947.947,0,0,1-.694-.29.937.937,0,0,1-.29-.686.937.937,0,0,1,.29-.686.947.947,0,0,1,.694-.29H6.363a.155.155,0,0,0,.176-.176v-.9a1.066,1.066,0,0,1,.325-.782,1.077,1.077,0,0,1,.791-.325,1.077,1.077,0,0,1,.791.325,1.066,1.066,0,0,1,.325.782v.9a.155.155,0,0,0,.176.176h2.742a.9.9,0,0,1,.659.272.9.9,0,0,1,.272.659q0,.018.026.026a.04.04,0,0,0,.044-.009q.615-.686,1.213-1.494a1.31,1.31,0,0,1,.738-.51,1.218,1.218,0,0,1,.352-.053,1.275,1.275,0,0,1,.545.123.956.956,0,0,1,.51.6,1.033,1.033,0,0,1,.035.246.838.838,0,0,1-.193.527,28.925,28.925,0,0,1-2.777,3.217A.068.068,0,0,0,13.1-9.8a.068.068,0,0,0,.07.044h3.006A.906.906,0,0,1,16.857-9.457Zm8.6-4.57a1.2,1.2,0,0,1,.387-.861,1.231,1.231,0,0,1,.879-.352,1.081,1.081,0,0,1,.826.36,1.362,1.362,0,0,1,.369.853q.035.58.105,1.2a17.865,17.865,0,0,0,.308,1.8A21.232,21.232,0,0,0,28.9-8.886a16.4,16.4,0,0,0,.94,2.241A14.567,14.567,0,0,0,31.21-4.412a12.283,12.283,0,0,0,1.907,1.986,12.316,12.316,0,0,0,1.441,1.02A.812.812,0,0,1,35-.756v.123A.863.863,0,0,1,34.734,0a1.714,1.714,0,0,1-.861.527,1.455,1.455,0,0,1-.316.035,1.323,1.323,0,0,1-.65-.176,14.218,14.218,0,0,1-5.941-8.244q-.018-.053-.053-.053t-.053.053A15.364,15.364,0,0,1,21.287.316a1.334,1.334,0,0,1-.738.229,1.281,1.281,0,0,1-.211-.018A1.785,1.785,0,0,1,19.424.07a.852.852,0,0,1-.3-.668.86.86,0,0,1,.387-.756q.457-.316.879-.668A13.454,13.454,0,0,0,21.938-3.5a10.425,10.425,0,0,0,1.187-1.661q.536-.923.888-1.679a11.167,11.167,0,0,0,.624-1.749q.272-.993.413-1.644a14.893,14.893,0,0,0,.237-1.591q.1-.94.132-1.362Q25.436-13.5,25.453-14.027ZM39.779-6.645a1.3,1.3,0,0,1,.686-.562,1.464,1.464,0,0,1,.387-.053,1.241,1.241,0,0,1,.492.105,1.006,1.006,0,0,1,.563.633,1,1,0,0,1,.053.316,1.014,1.014,0,0,1-.141.51,29.2,29.2,0,0,1-2.162,3.129,1.148,1.148,0,0,1-.809.457,1.183,1.183,0,0,1-.193.018,1.279,1.279,0,0,1-.738-.229.987.987,0,0,1-.422-.721v-.123a1.006,1.006,0,0,1,.264-.686A19.968,19.968,0,0,0,39.779-6.645ZM50.643-9.229H46.617a.155.155,0,0,0-.176.176V-.861A1.622,1.622,0,0,1,45.967.378a2,2,0,0,1-1.424.448q-.9,0-1.811-.053A1.254,1.254,0,0,1,41.915.4a1.35,1.35,0,0,1-.4-.835V-.545a.8.8,0,0,1,.272-.606.888.888,0,0,1,.624-.255.332.332,0,0,1,.105.018q.51.035.9.035a.686.686,0,0,0,.492-.141A.771.771,0,0,0,44.068-2q.018-.65.018-7.049a.155.155,0,0,0-.176-.176H38.936a1.173,1.173,0,0,1-.809-.316,1.074,1.074,0,0,1-.352-.809,1.02,1.02,0,0,1,.352-.791,1.142,1.142,0,0,1,.756-.281h.088q.3.018.545.018H43.91a.155.155,0,0,0,.176-.176V-12.85l-.018-.316a1.244,1.244,0,0,1,.334-.861,1.129,1.129,0,0,1,.87-.387,1.076,1.076,0,0,1,.853.387,1.222,1.222,0,0,1,.334.844l-.018.352v1.248a.155.155,0,0,0,.176.176h3.99q.281,0,.615-.018h.07a1.1,1.1,0,0,1,.756.281,1.02,1.02,0,0,1,.352.791,1.074,1.074,0,0,1-.352.809,1.133,1.133,0,0,1-.809.316h-.6ZM48.779-5.713a1,1,0,0,1-.176-.562,1.738,1.738,0,0,1,.018-.246.958.958,0,0,1,.492-.633,1.3,1.3,0,0,1,.615-.158,1.156,1.156,0,0,1,.281.035,1.144,1.144,0,0,1,.756.492q.9,1.266,1.811,2.795a1.169,1.169,0,0,1,.158.58,1.455,1.455,0,0,1-.035.316,1.185,1.185,0,0,1-.58.721,1.178,1.178,0,0,1-.562.141,1.163,1.163,0,0,1-.334-.053,1.185,1.185,0,0,1-.721-.58Q49.623-4.447,48.779-5.713Zm8.279.141h-.035a1.329,1.329,0,0,1-.949-.387,1.247,1.247,0,0,1-.422-.958,1.3,1.3,0,0,1,.422-.976,1.3,1.3,0,0,1,.932-.369h.053q.844.035,1.494.035h9.668q.334,0,.7-.018h.053a1.3,1.3,0,0,1,.932.369,1.238,1.238,0,0,1,.422.949,1.257,1.257,0,0,1-.422.967,1.3,1.3,0,0,1-.932.369H58.553Q57.832-5.59,57.059-5.572Zm31.553,4.1a1.238,1.238,0,0,1,.123.527,1.311,1.311,0,0,1-.088.475,1.218,1.218,0,0,1-.7.738,1.2,1.2,0,0,1-.51.123,1.241,1.241,0,0,1-.492-.105,1.293,1.293,0,0,1-.7-.7q-.141-.387-.3-.738a.2.2,0,0,0-.229-.141q-3.99.475-10.494,1.143-.141.018-.369.035a.988.988,0,0,1-.193.018,1.305,1.305,0,0,1-.809-.281,1.28,1.28,0,0,1-.527-.879.988.988,0,0,1-.018-.193,1.1,1.1,0,0,1,.281-.721,1.139,1.139,0,0,1,.861-.4h.65L75.41-2.6a.221.221,0,0,0,.229-.176q.721-1.846,1.661-4.755t1.4-4.544l.158-.633a1.6,1.6,0,0,1,.633-.932,1.4,1.4,0,0,1,.791-.246,1.156,1.156,0,0,1,.281.035,1.117,1.117,0,0,1,.809.6,1.169,1.169,0,0,1,.158.58,1.265,1.265,0,0,1-.088.457l-.229.65q-2.25,6.908-2.865,8.578a.116.116,0,0,0,.018.105.071.071,0,0,0,.088.035q2.83-.281,6.223-.686a.1.1,0,0,0,.1-.053.174.174,0,0,0,.009-.123q-.615-1.23-1.143-2.127a.958.958,0,0,1-.158-.527,1,1,0,0,1,.053-.316.9.9,0,0,1,.563-.615,1.275,1.275,0,0,1,.545-.123,1.222,1.222,0,0,1,.439.088,1.327,1.327,0,0,1,.773.6A54.267,54.267,0,0,1,88.611-1.477Zm2.566-2.355a.9.9,0,0,1,.334-.58A.848.848,0,0,1,92-4.57h.158a.953.953,0,0,1,.6.369.916.916,0,0,1,.176.545v.141a17.588,17.588,0,0,1-.65,2.9.687.687,0,0,1-.457.457.844.844,0,0,1-.3.053.815.815,0,0,1-.369-.088.928.928,0,0,1-.475-.492,1.125,1.125,0,0,1-.07-.387,1.455,1.455,0,0,1,.035-.316A13.515,13.515,0,0,0,91.178-3.832Zm4.289.176a.662.662,0,0,1-.053-.264.647.647,0,0,1,.088-.316.684.684,0,0,1,.439-.387.753.753,0,0,1,.264-.053.815.815,0,0,1,.369.088A.81.81,0,0,1,97-4.131q.352.9.6,1.705a.892.892,0,0,1,.035.246.833.833,0,0,1-.105.4.864.864,0,0,1-.51.439.62.62,0,0,1-.246.053.78.78,0,0,1-.352-.088.807.807,0,0,1-.387-.492Q95.818-2.654,95.467-3.656Zm-.316-4.5a.773.773,0,0,1-.07-.316.62.62,0,0,1,.053-.246.69.69,0,0,1,.387-.422.813.813,0,0,1,.334-.07.8.8,0,0,1,.281.053.821.821,0,0,1,.457.4,15.866,15.866,0,0,1,1,2.338.8.8,0,0,1,.053.281.8.8,0,0,1-.105.387,1.02,1.02,0,0,1-.492.475.523.523,0,0,1-.264.07.554.554,0,0,1-.3-.088A.684.684,0,0,1,96.1-5.73v-.035a.1.1,0,0,0-.123-.07l-.65.053a.155.155,0,0,0-.176.176V.65a.9.9,0,0,1-.272.659.934.934,0,0,1-1.318,0A.9.9,0,0,1,93.287.65V-5.484a.142.142,0,0,0-.053-.114.186.186,0,0,0-.123-.044l-1.494.088a.156.156,0,0,1-.07.018.873.873,0,0,1-.615-.246.894.894,0,0,1-.334-.633V-6.5a.863.863,0,0,1,.211-.58.858.858,0,0,1,.633-.3L91.67-7.4a.266.266,0,0,0,.211-.105q.3-.387.668-.9a.238.238,0,0,0,0-.3,15.218,15.218,0,0,0-1.406-1.652,1.157,1.157,0,0,1-.3-.668v-.105a1.037,1.037,0,0,1,.193-.6l.229-.334a.415.415,0,0,1,.308-.185.389.389,0,0,1,.343.114q.053.035.07-.018.527-1.055.967-2.145a.965.965,0,0,1,.51-.562.966.966,0,0,1,.4-.088,1.049,1.049,0,0,1,.334.053.844.844,0,0,1,.51.51.773.773,0,0,1,.07.316.8.8,0,0,1-.105.387q-.949,1.775-1.459,2.6a.2.2,0,0,0,.018.281q.3.352.387.457a.131.131,0,0,0,.1.035.11.11,0,0,0,.1-.053q.633-1.037,1.09-1.9a.9.9,0,0,1,.563-.492.813.813,0,0,1,.334-.07.9.9,0,0,1,.4.105.792.792,0,0,1,.457.527.835.835,0,0,1,.035.229.808.808,0,0,1-.141.457q-1.441,2.2-2.742,3.885a.07.07,0,0,0-.009.088.084.084,0,0,0,.079.053l1.406-.07a.086.086,0,0,0,.079-.044.111.111,0,0,0,.009-.1Q95.273-7.928,95.15-8.156Zm9.4,4.148a.155.155,0,0,0-.176-.176h-3.814a.155.155,0,0,0-.176.176v2.725a.155.155,0,0,0,.176.176h3.814a.155.155,0,0,0,.176-.176ZM99.4,1.529a.947.947,0,0,1-.694-.29.947.947,0,0,1-.29-.694v-5.08a1.473,1.473,0,0,1,.448-1.081,1.473,1.473,0,0,1,1.081-.448h5.15a1.473,1.473,0,0,1,1.081.448,1.473,1.473,0,0,1,.448,1.081V.422a1.011,1.011,0,0,1-.3.729.988.988,0,0,1-.738.308h-.422a.59.59,0,0,1-.431-.185.59.59,0,0,1-.185-.431.062.062,0,0,0-.07-.07h-4.025a.062.062,0,0,0-.07.07.66.66,0,0,1-.2.483.66.66,0,0,1-.483.2ZM98.068-12.727a.943.943,0,0,1-.281-.694.929.929,0,0,1,.29-.694.962.962,0,0,1,.694-.281h6.7a1.4,1.4,0,0,1,1.055.439,1.448,1.448,0,0,1,.422,1.037,30.975,30.975,0,0,1-.211,3.656,3.316,3.316,0,0,1-.439,1.494,2.019,2.019,0,0,1-1.336.7,9.348,9.348,0,0,1-1.16.053,1.142,1.142,0,0,1-.756-.281,1.637,1.637,0,0,1-.475-.756.664.664,0,0,1-.035-.211.742.742,0,0,1,.123-.4.6.6,0,0,1,.51-.264h.809a.77.77,0,0,0,.563-.176,8.822,8.822,0,0,0,.422-3.164.169.169,0,0,0-.053-.123.169.169,0,0,0-.123-.053H102.5a.174.174,0,0,0-.193.176,9.516,9.516,0,0,1-.976,3.041,5.918,5.918,0,0,1-2.118,2.18.984.984,0,0,1-.492.141,1.156,1.156,0,0,1-.281-.035,1.247,1.247,0,0,1-.686-.475.792.792,0,0,1-.176-.492.654.654,0,0,1,.018-.158.754.754,0,0,1,.369-.562,4.506,4.506,0,0,0,1.529-1.538,6.121,6.121,0,0,0,.7-2.1.132.132,0,0,0-.026-.123.142.142,0,0,0-.114-.053H98.771A.992.992,0,0,1,98.068-12.727Zm18.949-.229a.11.11,0,0,0-.1-.053.075.075,0,0,0-.079.053,15.259,15.259,0,0,1-2.566,3.015,20.892,20.892,0,0,1-3.533,2.646,1.046,1.046,0,0,1-.545.158.946.946,0,0,1-.3-.053,1.222,1.222,0,0,1-.7-.492A.861.861,0,0,1,109-8.227a.988.988,0,0,1,.018-.193.858.858,0,0,1,.422-.615,16.214,16.214,0,0,0,3.19-2.382,17.208,17.208,0,0,0,2.47-2.892,2.283,2.283,0,0,1,.756-.7,1.905,1.905,0,0,1,.967-.264,2.1,2.1,0,0,1,1.775.949,16.676,16.676,0,0,0,2.7,2.936,15.242,15.242,0,0,0,3.208,2.127.958.958,0,0,1,.492.633,1.033,1.033,0,0,1,.035.246.934.934,0,0,1-.193.563,1.345,1.345,0,0,1-.773.563,1.536,1.536,0,0,1-.334.035,1.267,1.267,0,0,1-.6-.158,21.647,21.647,0,0,1-3.507-2.6A15.75,15.75,0,0,1,117.018-12.955Zm1.916,5.379a1.1,1.1,0,0,1,.325-.791,1.053,1.053,0,0,1,.782-.334,1.081,1.081,0,0,1,.791.334,1.081,1.081,0,0,1,.334.791V.439a1.053,1.053,0,0,1-.334.782,1.1,1.1,0,0,1-.791.325,1.066,1.066,0,0,1-.782-.325,1.066,1.066,0,0,1-.325-.782Zm-6.205.088a1.058,1.058,0,0,1,.325-.791,1.081,1.081,0,0,1,.782-.316,1.081,1.081,0,0,1,.782.316,1.058,1.058,0,0,1,.325.791v1.125a15.583,15.583,0,0,1-.1,1.819,12.035,12.035,0,0,1-.378,1.819,6.626,6.626,0,0,1-.9,1.916A7.812,7.812,0,0,1,112.008.879a1.188,1.188,0,0,1-.756.264.578.578,0,0,1-.141-.018,1.648,1.648,0,0,1-.879-.387.832.832,0,0,1-.316-.668.85.85,0,0,1,.334-.7A6.69,6.69,0,0,0,111.586-2a5.007,5.007,0,0,0,.756-1.538,9.579,9.579,0,0,0,.308-1.441,11.948,11.948,0,0,0,.079-1.45Zm26.367,4.9a.155.155,0,0,0,.176-.176v-.51a.155.155,0,0,0-.176-.176h-2.9a.155.155,0,0,0-.176.176v.51a.155.155,0,0,0,.176.176Zm-2.9-3.27a.155.155,0,0,0-.176.176v.422a.155.155,0,0,0,.176.176h2.9a.155.155,0,0,0,.176-.176v-.422a.155.155,0,0,0-.176-.176Zm-5.168-3.762a.155.155,0,0,0,.176.176h2.461a.155.155,0,0,0,.176-.176v-.51a.155.155,0,0,0-.176-.176H131.2a.155.155,0,0,0-.176.176Zm7.91-.51a.155.155,0,0,0-.176-.176H136.2a.155.155,0,0,0-.176.176v.51a.155.155,0,0,0,.176.176h2.566a.155.155,0,0,0,.176-.176Zm3.551,5.045a.785.785,0,0,1,.589.246.808.808,0,0,1,.237.58.779.779,0,0,1-.237.571.8.8,0,0,1-.589.237h-.861a.155.155,0,0,0-.176.176v1.881a1.046,1.046,0,0,1-.325.765,1.046,1.046,0,0,1-.765.325h-.439a.625.625,0,0,1-.457-.193.645.645,0,0,1-.193-.475q0-.07-.088-.07H136.2a.155.155,0,0,0-.176.176v.369a2.6,2.6,0,0,1-.211,1.187,1.443,1.443,0,0,1-.738.624,7.388,7.388,0,0,1-2.268.3h-.018a1.118,1.118,0,0,1-.7-.246,1.513,1.513,0,0,1-.492-.615.62.62,0,0,1-.053-.246.49.49,0,0,1,.105-.3.5.5,0,0,1,.457-.264q.58.018,1.3.018a.536.536,0,0,0,.343-.114.479.479,0,0,0,.1-.343V-.861a.155.155,0,0,0-.176-.176h-4.518a.744.744,0,0,1-.545-.229.754.754,0,0,1-.229-.554.725.725,0,0,1,.229-.545.759.759,0,0,1,.545-.22h4.518a.155.155,0,0,0,.176-.176v-.51a.155.155,0,0,0-.176-.176h-6.117a.8.8,0,0,1-.589-.237.779.779,0,0,1-.237-.571.808.808,0,0,1,.237-.58.785.785,0,0,1,.589-.246h6.117a.155.155,0,0,0,.176-.176v-.422a.155.155,0,0,0-.176-.176h-4.43a.7.7,0,0,1-.51-.211.7.7,0,0,1-.211-.51.7.7,0,0,1,.211-.51.7.7,0,0,1,.51-.211h4.43a.155.155,0,0,0,.176-.176V-7.91a.155.155,0,0,0-.176-.176H130.5a1.473,1.473,0,0,1-1.081-.448,1.473,1.473,0,0,1-.448-1.081v-.51a1.473,1.473,0,0,1,.448-1.081,1.473,1.473,0,0,1,1.081-.448h3.164a.155.155,0,0,0,.176-.176v-.387a.155.155,0,0,0-.176-.176h-5.678a.814.814,0,0,1-.6-.246.814.814,0,0,1-.246-.6.814.814,0,0,1,.246-.6.814.814,0,0,1,.6-.246h5.748q.105,0,.105-.123a1,1,0,0,1,.308-.729,1.017,1.017,0,0,1,.747-.308h.088a1,1,0,0,1,.729.308,1,1,0,0,1,.308.729.109.109,0,0,0,.123.123h5.906a.843.843,0,0,1,.606.246.8.8,0,0,1,.255.6.8.8,0,0,1-.255.6.843.843,0,0,1-.606.246H136.2a.155.155,0,0,0-.176.176v.387a.155.155,0,0,0,.176.176h3.41a1.473,1.473,0,0,1,1.081.448,1.473,1.473,0,0,1,.448,1.081v.51a1.473,1.473,0,0,1-.448,1.081,1.473,1.473,0,0,1-1.081.448H136.2a.155.155,0,0,0-.176.176v.439a.155.155,0,0,0,.176.176h3.727A1.473,1.473,0,0,1,141-6.847a1.473,1.473,0,0,1,.448,1.081v.51a.155.155,0,0,0,.176.176Zm12.656-5.326a.088.088,0,0,0,0-.105.118.118,0,0,0-.105-.053h-3.973a.086.086,0,0,0-.079.044.111.111,0,0,0-.009.1,8.9,8.9,0,0,1,.457.984.223.223,0,0,1-.018.193.285.285,0,0,1-.176.123h3.164a.249.249,0,0,0,.246-.158A11.887,11.887,0,0,0,155.145-10.406Zm5.625,6.363a.853.853,0,0,1,.264.624.853.853,0,0,1-.264.624.843.843,0,0,1-.615.264h-4.166a.056.056,0,0,0-.053.035.035.035,0,0,0,.018.053A15.267,15.267,0,0,0,160.33-.809a.694.694,0,0,1,.51.475.62.62,0,0,1,.053.246.723.723,0,0,1-.158.439,1.732,1.732,0,0,1-.826.65,1.454,1.454,0,0,1-.545.105,1.265,1.265,0,0,1-.457-.088,14.967,14.967,0,0,1-4.746-2.584.07.07,0,0,0-.088-.009.084.084,0,0,0-.053.079v2a1.017,1.017,0,0,1-.308.747,1.04,1.04,0,0,1-1.477,0,1.017,1.017,0,0,1-.308-.747v-1.9a.084.084,0,0,0-.053-.079.07.07,0,0,0-.088.009,16.443,16.443,0,0,1-4.816,2.5,1.38,1.38,0,0,1-.439.07A1.241,1.241,0,0,1,146.039,1a1.657,1.657,0,0,1-.773-.58A.652.652,0,0,1,145.107,0a.718.718,0,0,1,.035-.229.646.646,0,0,1,.475-.457,18.33,18.33,0,0,0,4.447-1.758.035.035,0,0,0,.018-.053.056.056,0,0,0-.053-.035h-4.1a.863.863,0,0,1-.633-.264.853.853,0,0,1-.264-.624.853.853,0,0,1,.264-.624.863.863,0,0,1,.633-.264h5.818a.155.155,0,0,0,.176-.176v-.439a.155.155,0,0,0-.176-.176h-4.236a.736.736,0,0,1-.554-.229.759.759,0,0,1-.22-.545.759.759,0,0,1,.22-.545.736.736,0,0,1,.554-.229h4.236a.155.155,0,0,0,.176-.176v-.457a.155.155,0,0,0-.176-.176h-5.08a.814.814,0,0,1-.6-.246.8.8,0,0,1-.246-.589.8.8,0,0,1,.246-.589.814.814,0,0,1,.6-.246H149.1a.1.1,0,0,0,.088-.053.116.116,0,0,0,.018-.105,7.968,7.968,0,0,0-.457-1.072.151.151,0,0,1-.009-.132.134.134,0,0,1,.1-.079h-2.865a.857.857,0,0,1-.615-.255.825.825,0,0,1-.264-.615.825.825,0,0,1,.264-.615.857.857,0,0,1,.615-.255h1.371a.1.1,0,0,0,.088-.053.148.148,0,0,0,.018-.123q-.211-.51-.58-1.213a.8.8,0,0,1-.105-.387.659.659,0,0,1,.07-.3.737.737,0,0,1,.475-.475,1.3,1.3,0,0,1,.413-.07,1.3,1.3,0,0,1,.413.07,1.1,1.1,0,0,1,.615.51q.3.492.51.932a.678.678,0,0,1,.088.334.737.737,0,0,1-.07.3.8.8,0,0,1-.475.439v.018a.016.016,0,0,0,.018.018h1.354a.155.155,0,0,0,.176-.176v-1.758a.954.954,0,0,1,.3-.712.987.987,0,0,1,.712-.29.958.958,0,0,1,.7.29.968.968,0,0,1,.29.712v1.758a.155.155,0,0,0,.176.176h.984a.155.155,0,0,0,.176-.176v-1.758a.954.954,0,0,1,.3-.712.987.987,0,0,1,.712-.29.987.987,0,0,1,.712.29.954.954,0,0,1,.3.712v1.758a.155.155,0,0,0,.176.176h1.354v-.035a.427.427,0,0,1-.316-.272.5.5,0,0,1,.018-.431q.229-.457.457-.984a1.336,1.336,0,0,1,.615-.7,1.267,1.267,0,0,1,.6-.158,1.228,1.228,0,0,1,.3.035.849.849,0,0,1,.6.492,1.163,1.163,0,0,1,.053.334.86.86,0,0,1-.123.439q-.422.7-.7,1.125a.1.1,0,0,0-.009.105.1.1,0,0,0,.1.053H160.1a.849.849,0,0,1,.624.255.838.838,0,0,1,.255.615.838.838,0,0,1-.255.615.849.849,0,0,1-.624.255h-2.338a.284.284,0,0,0-.264.158q-.316.58-.668,1.125a.133.133,0,0,0,.009.105.084.084,0,0,0,.079.053h2.514a.814.814,0,0,1,.6.246.8.8,0,0,1,.246.589.8.8,0,0,1-.246.589.814.814,0,0,1-.6.246H154.2a.155.155,0,0,0-.176.176v.457a.155.155,0,0,0,.176.176h4.465a.744.744,0,0,1,.545.229.744.744,0,0,1,.229.545.744.744,0,0,1-.229.545.744.744,0,0,1-.545.229H154.2a.155.155,0,0,0-.176.176v.439a.155.155,0,0,0,.176.176h5.959A.843.843,0,0,1,160.77-4.043Zm10.459-6.135a1.221,1.221,0,0,1-.826-.387,1.244,1.244,0,0,1-.334-.861,1,1,0,0,1,.334-.756,1.1,1.1,0,0,1,.721-.264h.088q1.23.088,2.531.088,1.389,0,2.848-.105h.088a.992.992,0,0,1,.7.281,1,1,0,0,1,.352.773,1.182,1.182,0,0,1-.334.844,1.2,1.2,0,0,1-.809.387q-1.336.07-2.672.07T171.229-10.178ZM169.26-4.113a1.055,1.055,0,0,1,.422-.7,1.073,1.073,0,0,1,.668-.229.39.39,0,0,1,.123.018.87.87,0,0,1,.65.369,1.063,1.063,0,0,1,.193.615v.123a3.357,3.357,0,0,0-.035.475q0,1.266,2.5,1.266a21.025,21.025,0,0,0,3.27-.246,1.183,1.183,0,0,1,.193-.018,1,1,0,0,1,.65.246.967.967,0,0,1,.369.791,1.374,1.374,0,0,1-.316.9,1.221,1.221,0,0,1-.844.457,29.471,29.471,0,0,1-3.41.176,6.127,6.127,0,0,1-3.4-.765,2.466,2.466,0,0,1-1.134-2.171A9.065,9.065,0,0,1,169.26-4.113Zm-4.535-8.578a1.33,1.33,0,0,1,.457-.861,1.168,1.168,0,0,1,.773-.3.39.39,0,0,1,.123.018.97.97,0,0,1,.756.439,1.037,1.037,0,0,1,.193.6,1.09,1.09,0,0,1-.035.264q-.053.211-.088.387-.264,1.23-.571,3.287a23.289,23.289,0,0,0-.308,3.252,8.152,8.152,0,0,0,.053.967.042.042,0,0,0,.035.044.043.043,0,0,0,.053-.026q.141-.352.439-1a.505.505,0,0,1,.369-.308.548.548,0,0,1,.475.1,1.056,1.056,0,0,1,.352.51,1.156,1.156,0,0,1,.035.281,1,1,0,0,1-.053.316,34.012,34.012,0,0,0-1.055,3.709q-.053.246-.088.527a1.257,1.257,0,0,1-.316.756,1.007,1.007,0,0,1-.686.352h-.105a1.252,1.252,0,0,1-.721-.229,1.125,1.125,0,0,1-.439-.7,24.273,24.273,0,0,1-.457-4.834q0-.756.053-1.591t.149-1.7q.1-.861.176-1.433t.2-1.371q.123-.8.158-.958l.026-.193Q164.707-12.586,164.725-12.691Zm18.6,4.816a1.411,1.411,0,0,1-.527.105,1.369,1.369,0,0,1-.51-.105,1.282,1.282,0,0,1-.721-.721,1.222,1.222,0,0,1-.088-.439,1.112,1.112,0,0,1,.141-.527,1.184,1.184,0,0,1,.773-.6q.439-.123.844-.246.123-.035,1.037-.325t1.538-.466q.624-.176,1.591-.413t1.837-.36a11.543,11.543,0,0,1,1.608-.123,6.981,6.981,0,0,1,2.927.589,4.786,4.786,0,0,1,2.065,1.775,4.987,4.987,0,0,1,.773,2.786,5.556,5.556,0,0,1-2.347,4.6,12.719,12.719,0,0,1-6.5,2.241,1.183,1.183,0,0,1-.193.018,1.635,1.635,0,0,1-.879-.264,1.853,1.853,0,0,1-.738-.844.94.94,0,0,1-.07-.352A.866.866,0,0,1,186.029-2a.875.875,0,0,1,.721-.439,16.071,16.071,0,0,0,3.762-.677,6.224,6.224,0,0,0,2.575-1.512,3.237,3.237,0,0,0,.976-2.347,2.8,2.8,0,0,0-.87-2.127,3.4,3.4,0,0,0-2.435-.826Q188.227-9.932,183.322-7.875Zm16.77-3.656a1.314,1.314,0,0,1,.352-.914,1.174,1.174,0,0,1,.879-.387h.018a1.116,1.116,0,0,1,.9.422,1.2,1.2,0,0,1,.316.826.39.39,0,0,1-.018.123q-.035.492-.035.809v.773q0,1.652.105,3.006.422,4.324,1.916,4.324.756,0,1.494-2.145a.761.761,0,0,1,.58-.527.894.894,0,0,1,.176-.018.649.649,0,0,1,.527.264,2.379,2.379,0,0,1,.527,1.143,1.789,1.789,0,0,1,.035.352,2.086,2.086,0,0,1-.193.879,6.871,6.871,0,0,1-1.5,2.232,2.518,2.518,0,0,1-1.7.668,3.249,3.249,0,0,1-2.7-1.573A10.664,10.664,0,0,1,200.3-6.24q-.193-2-.193-4.816Zm9.984.809a.9.9,0,0,1-.158-.492,1.38,1.38,0,0,1,.035-.3.843.843,0,0,1,.545-.545,1.659,1.659,0,0,1,.527-.088,1.784,1.784,0,0,1,.492.07,1.485,1.485,0,0,1,.791.615A17.121,17.121,0,0,1,213.785-8.2a23.45,23.45,0,0,1,.949,3.612,2.132,2.132,0,0,1,.018.264,1.448,1.448,0,0,1-.229.773,1.516,1.516,0,0,1-.826.668.94.94,0,0,1-.352.07.984.984,0,0,1-.492-.141.971.971,0,0,1-.475-.721A18.046,18.046,0,0,0,210.076-10.723Zm8.719.6a1.281,1.281,0,0,1-.211.018,1.073,1.073,0,0,1-.668-.229,1.035,1.035,0,0,1-.439-.791v-.105a1.1,1.1,0,0,1,.281-.756,1.122,1.122,0,0,1,.844-.4,4.3,4.3,0,0,0,.51-.053q.51-.035,7.682-.668,1.828-.158,3.9-.264h.053a1.063,1.063,0,0,1,.756.3,1.074,1.074,0,0,1,.352.809,1.1,1.1,0,0,1-.334.809,1.166,1.166,0,0,1-.809.352,12.38,12.38,0,0,0-2.285.211,4.922,4.922,0,0,0-2.672,1.916,5.111,5.111,0,0,0-1.09,3.076,3.7,3.7,0,0,0,.343,1.626,3.229,3.229,0,0,0,.967,1.187,5.417,5.417,0,0,0,1.406.765,8.584,8.584,0,0,0,1.749.431,1.092,1.092,0,0,1,.756.492.97.97,0,0,1,.176.545,1.163,1.163,0,0,1-.053.334,1.685,1.685,0,0,1-.668.861,1.448,1.448,0,0,1-.773.229A1.867,1.867,0,0,1,228.3.545,9.7,9.7,0,0,1,226-.167a7.927,7.927,0,0,1-1.89-1.2,5.16,5.16,0,0,1-1.318-1.767,5.359,5.359,0,0,1-.483-2.276,6.683,6.683,0,0,1,.747-3.138,6.959,6.959,0,0,1,1.749-2.241.057.057,0,0,0,.018-.07.035.035,0,0,0-.053-.018Q220.852-10.477,218.795-10.125Zm21.34-4.57a.779.779,0,0,1,.571.237.789.789,0,0,1,.237.58.789.789,0,0,1-.237.58.779.779,0,0,1-.571.237H236.32a.779.779,0,0,1-.571-.237.789.789,0,0,1-.237-.58.789.789,0,0,1,.237-.58.779.779,0,0,1,.571-.237Zm.65,2.426a.814.814,0,0,1,.6.246.814.814,0,0,1,.246.6.814.814,0,0,1-.246.6.814.814,0,0,1-.6.246h-5.344a.814.814,0,0,1-.6-.246.814.814,0,0,1-.246-.6.814.814,0,0,1,.246-.6.814.814,0,0,1,.6-.246Zm-1.67,9.316a.155.155,0,0,0-.176-.176h-1.564a.155.155,0,0,0-.176.176V-1.23a.155.155,0,0,0,.176.176h1.564a.155.155,0,0,0,.176-.176Zm.316-1.863a1.473,1.473,0,0,1,1.081.448,1.473,1.473,0,0,1,.448,1.081V-.914a1.473,1.473,0,0,1-.448,1.081,1.473,1.473,0,0,1-1.081.448H237.27a.062.062,0,0,0-.07.07.61.61,0,0,1-.185.448.61.61,0,0,1-.448.185H236.3a.869.869,0,0,1-.65-.272A.892.892,0,0,1,235.389.4V-3.287a1.473,1.473,0,0,1,.448-1.081,1.473,1.473,0,0,1,1.081-.448Zm-3.2-.9a.773.773,0,0,1-.554-.229.75.75,0,0,1-.237-.562.779.779,0,0,1,.237-.571.759.759,0,0,1,.554-.237h3.955a.75.75,0,0,1,.563.237.794.794,0,0,1,.229.571.764.764,0,0,1-.229.563.764.764,0,0,1-.562.229Zm.035-2.426a.8.8,0,0,1-.589-.237.789.789,0,0,1-.237-.58.789.789,0,0,1,.237-.58.8.8,0,0,1,.589-.237h3.9a.779.779,0,0,1,.571.237.789.789,0,0,1,.237.58.789.789,0,0,1-.237.58.779.779,0,0,1-.571.237Zm14.2,3.639a.933.933,0,0,1,.686.281.933.933,0,0,1,.281.686.962.962,0,0,1-.281.694.919.919,0,0,1-.686.29h-2.777a.155.155,0,0,0-.176.176V.51a1.017,1.017,0,0,1-.308.747,1.061,1.061,0,0,1-1.494,0,1.017,1.017,0,0,1-.308-.747V-2.373a.155.155,0,0,0-.176-.176h-2.865a.919.919,0,0,1-.686-.29.962.962,0,0,1-.281-.694.933.933,0,0,1,.281-.686.933.933,0,0,1,.686-.281h2.865a.155.155,0,0,0,.176-.176V-6.135a.155.155,0,0,0-.176-.176h-1.951a.913.913,0,0,1-.668-.281.913.913,0,0,1-.281-.668.913.913,0,0,1,.281-.668.913.913,0,0,1,.668-.281h1.951a.155.155,0,0,0,.176-.176V-9.738a.155.155,0,0,0-.176-.176h-2.285a.919.919,0,0,1-.686-.29.952.952,0,0,1-.281-.686.952.952,0,0,1,.281-.686.919.919,0,0,1,.686-.29h.492a.118.118,0,0,0,.105-.053.116.116,0,0,0,.018-.105,11.965,11.965,0,0,0-.633-1.67.892.892,0,0,1-.088-.369.773.773,0,0,1,.07-.316.737.737,0,0,1,.475-.475.985.985,0,0,1,.369-.07.985.985,0,0,1,.369.07.975.975,0,0,1,.563.492,12.253,12.253,0,0,1,.6,1.354.946.946,0,0,1,.053.3.78.78,0,0,1-.088.352.857.857,0,0,1-.492.457v.018a.016.016,0,0,0,.018.018H248.1q.018,0,.018-.009t-.018-.009a.692.692,0,0,1-.4-.387.753.753,0,0,1-.053-.264.946.946,0,0,1,.053-.3q.316-.7.58-1.424a1.147,1.147,0,0,1,.563-.633,1.014,1.014,0,0,1,.51-.141,1,1,0,0,1,.316.053.844.844,0,0,1,.58.492.985.985,0,0,1,.07.369,1.05,1.05,0,0,1-.088.4q-.527,1.02-.932,1.705a.1.1,0,0,0,.009.088.084.084,0,0,0,.079.053h.809a.928.928,0,0,1,.677.29.937.937,0,0,1,.29.686.937.937,0,0,1-.29.686.928.928,0,0,1-.677.29h-2.5a.155.155,0,0,0-.176.176v1.354a.155.155,0,0,0,.176.176h2.145a.884.884,0,0,1,.659.281.927.927,0,0,1,.272.668.927.927,0,0,1-.272.668.884.884,0,0,1-.659.281h-2.145a.155.155,0,0,0-.176.176v1.459a.155.155,0,0,0,.176.176Zm5.555-8.332v-.105a1.266,1.266,0,0,1,.334-.879,1.116,1.116,0,0,1,.9-.422h.018a1.165,1.165,0,0,1,.932.439,1.308,1.308,0,0,1,.334.879v.123a9.262,9.262,0,0,0-.053.949q-.229,4.588-.229,8.121,0,2.373,2.461,2.373a6.7,6.7,0,0,0,5.326-2.6,1.054,1.054,0,0,1,.791-.387h.035a.95.95,0,0,1,.756.352A1.677,1.677,0,0,1,268-2.936a1.362,1.362,0,0,1-.369.949A9.637,9.637,0,0,1,264.709.2a8.847,8.847,0,0,1-4.008.87A5.393,5.393,0,0,1,257.15.018a3.993,3.993,0,0,1-1.266-3.252q0-1.318.088-4.632t.088-3.981Q256.061-12.357,256.025-12.832Zm24.152-.9a1.532,1.532,0,0,1,.967-.457h.105a1.308,1.308,0,0,1,.879.334,1.1,1.1,0,0,1,.387.844,1.134,1.134,0,0,1-.439.932q-.018,0-.475.352-.158.141-2.074,1.661t-2.619,2.118a3.18,3.18,0,0,0-.624.677.463.463,0,0,0,.009.483,3.188,3.188,0,0,0,.65.686q.141.123,2.276,1.881t3.226,2.725a1.238,1.238,0,0,1,.422.949,1.293,1.293,0,0,1-.422.967,1.362,1.362,0,0,1-.949.369h-.07a1.44,1.44,0,0,1-.984-.457q-.387-.4-.6-.615-1.072-1.143-5.326-4.746A3.71,3.71,0,0,1,273.393-6.4a1.275,1.275,0,0,1-.123-.545,1.528,1.528,0,0,1,.176-.686,4.925,4.925,0,0,1,1.23-1.354q3.973-3.252,5.045-4.307Q279.967-13.518,280.178-13.729Zm13.236,6.223a.155.155,0,0,0-.176.176v.756a.155.155,0,0,0,.176.176h7.172a.155.155,0,0,0,.176-.176V-7.33a.155.155,0,0,0-.176-.176Zm0-2.865a.155.155,0,0,0-.176.176v.756a.155.155,0,0,0,.176.176h7.172a.155.155,0,0,0,.176-.176V-10.2a.155.155,0,0,0-.176-.176Zm0-2.848a.155.155,0,0,0-.176.176v.756a.155.155,0,0,0,.176.176h7.172a.155.155,0,0,0,.176-.176v-.756a.155.155,0,0,0-.176-.176ZM300.8-1.02h1.881a.573.573,0,0,0,.6-.422,4.042,4.042,0,0,0,.141-.9.647.647,0,0,1,.352-.527.78.78,0,0,1,.352-.088.946.946,0,0,1,.3.053,1.624,1.624,0,0,1,.7.58,1.079,1.079,0,0,1,.211.633.894.894,0,0,1-.018.176,4.247,4.247,0,0,1-.58,1.793,2.138,2.138,0,0,1-1.863.738H300.5A2.951,2.951,0,0,1,298.38.457a3.1,3.1,0,0,1-.536-2.109V-4.342a.155.155,0,0,0-.176-.176H295.84a.174.174,0,0,0-.193.176,9.111,9.111,0,0,1-.439,1.811,5.551,5.551,0,0,1-.958,1.564A5.159,5.159,0,0,1,292.5.316a10.366,10.366,0,0,1-1.635.633,1.218,1.218,0,0,1-.352.053,1.112,1.112,0,0,1-.527-.141,1.782,1.782,0,0,1-.721-.633.742.742,0,0,1-.123-.4.8.8,0,0,1,.053-.281.737.737,0,0,1,.492-.457,7.626,7.626,0,0,0,1.723-.633,3.541,3.541,0,0,0,1.406-1.23,4.719,4.719,0,0,0,.51-1.564.132.132,0,0,0-.026-.123.142.142,0,0,0-.114-.053h-.492a1.473,1.473,0,0,1-1.081-.448,1.473,1.473,0,0,1-.448-1.081V-13.57a1.473,1.473,0,0,1,.448-1.081,1.473,1.473,0,0,1,1.081-.448h8.719a1.473,1.473,0,0,1,1.081.448,1.473,1.473,0,0,1,.448,1.081v7.523a1.473,1.473,0,0,1-.448,1.081,1.473,1.473,0,0,1-1.081.448h-1.23a.155.155,0,0,0-.176.176V-1.67q0,.439.132.545A1.257,1.257,0,0,0,300.8-1.02Zm14.045-.053a6.667,6.667,0,0,0,.861-.053q.176,0,.158-.193a2.228,2.228,0,0,0-.58-1.257,1.535,1.535,0,0,0-1.143-.466,1.241,1.241,0,0,0-.8.246.742.742,0,0,0-.308.6.933.933,0,0,0,.51.809A2.431,2.431,0,0,0,314.842-1.072Zm2.953-12.709a.988.988,0,0,1,.193-.018,1.626,1.626,0,0,1,.668.141,1.493,1.493,0,0,1,.686.51.916.916,0,0,1,.176.545.894.894,0,0,1-.018.176.92.92,0,0,1-.4.615l-.422.281q-.422.281-1.037.773t-1.6,1.3q-.984.809-1.178.949a.058.058,0,0,0,0,.062q.018.026.035.009a7.213,7.213,0,0,1,1.512-.141,5.756,5.756,0,0,1,3.8,1.266A4,4,0,0,1,321.732-4.1a4.525,4.525,0,0,1-1.67,3.612A7.2,7.2,0,0,1,315.281.932a5.6,5.6,0,0,1-3.111-.8,2.429,2.429,0,0,1-1.23-2.118,2.542,2.542,0,0,1,.905-1.934,3.272,3.272,0,0,1,2.294-.826,3.858,3.858,0,0,1,2.514.8A3.5,3.5,0,0,1,317.9-1.881a.138.138,0,0,0,.07.1.133.133,0,0,0,.123-.009,2.582,2.582,0,0,0,1.3-2.355,2.268,2.268,0,0,0-1.055-1.925A4.449,4.449,0,0,0,315.7-6.82a6.315,6.315,0,0,0-2.988.694,10.829,10.829,0,0,0-2.654,2.065,1.147,1.147,0,0,1-.791.352h-.018a1.081,1.081,0,0,1-.791-.334,1.041,1.041,0,0,1-.3-.738,1.067,1.067,0,0,1,.387-.844q.369-.3,1.731-1.433t1.837-1.521q.246-.211,1.652-1.362t1.951-1.626a.1.1,0,0,0,.009-.07q-.009-.035-.062-.035-2.408.053-4.131.193a2.712,2.712,0,0,0-.3.018h-.088a1.12,1.12,0,0,1-.738-.281,1,1,0,0,1-.369-.791.99.99,0,0,1,.325-.747,1.076,1.076,0,0,1,.765-.308h.035q.246.018.475.018.844,0,2.953-.062t2.795-.114Z" transform="translate(-0.844 15.662)" fill="#fff"/>
</svg>
