<svg xmlns="http://www.w3.org/2000/svg" width="156.438" height="29.906" viewBox="0 0 156.438 29.906">
  <path id="パス_6930" data-name="パス 6930" d="M11.563-14.156a.276.276,0,0,0-.312.313v1.125a.594.594,0,0,0,.25.5q.969.719,3.844,3.125a2.157,2.157,0,0,1,.75,1.375,1.59,1.59,0,0,1,.031.313,2.011,2.011,0,0,1-.375,1.188,1.349,1.349,0,0,1-1.125.656h-.094a1.522,1.522,0,0,1-1.156-.5q-.813-.906-1.906-2.031a.121.121,0,0,0-.141-.031A.122.122,0,0,0,11.25-8V.875a1.783,1.783,0,0,1-.531,1.313,1.849,1.849,0,0,1-2.594,0A1.783,1.783,0,0,1,7.594.875V-8.437q0-.031-.062-.047a.093.093,0,0,0-.094.016A38.912,38.912,0,0,1,4.031-2.812a1.154,1.154,0,0,1-.937.469H2.875a1.419,1.419,0,0,1-1.062-.781A2.924,2.924,0,0,1,1.469-4.5,2.1,2.1,0,0,1,1.5-4.844a2.984,2.984,0,0,1,.688-1.625,31.966,31.966,0,0,0,4.531-7.375.206.206,0,0,0,0-.219.21.21,0,0,0-.187-.094H3.25a1.711,1.711,0,0,1-1.234-.5A1.651,1.651,0,0,1,1.5-15.891a1.651,1.651,0,0,1,.516-1.234,1.711,1.711,0,0,1,1.234-.5H7.281a.276.276,0,0,0,.313-.312v-3.344a.252.252,0,0,0-.094-.2.235.235,0,0,0-.219-.047q-1.719.313-3.5.563a1.027,1.027,0,0,1-.25.031,1.754,1.754,0,0,1-.969-.281A2.31,2.31,0,0,1,1.75-22.25a1.938,1.938,0,0,1-.062-.469,1.387,1.387,0,0,1,.156-.625,1.127,1.127,0,0,1,.844-.625,53.919,53.919,0,0,0,9.438-2.312,2.914,2.914,0,0,1,1.031-.187,2.6,2.6,0,0,1,.688.094,2.555,2.555,0,0,1,1.469.844,1.2,1.2,0,0,1,.375.875,2.1,2.1,0,0,1-.031.344,1.24,1.24,0,0,1-.844.906q-1.437.469-3.25.938a.348.348,0,0,0-.312.375v4.156a.276.276,0,0,0,.313.313h3.469a1.711,1.711,0,0,1,1.234.5,1.651,1.651,0,0,1,.516,1.234,1.651,1.651,0,0,1-.516,1.234,1.711,1.711,0,0,1-1.234.5Zm7.25-8.531a1.783,1.783,0,0,1,1.313-.531,1.783,1.783,0,0,1,1.313.531,1.783,1.783,0,0,1,.531,1.313V-7.187a1.8,1.8,0,0,1-.531,1.3,1.757,1.757,0,0,1-1.312.547,1.757,1.757,0,0,1-1.312-.547,1.8,1.8,0,0,1-.531-1.3V-21.375A1.783,1.783,0,0,1,18.813-22.687Zm7-1.906a1.834,1.834,0,0,1,.563-1.344,1.834,1.834,0,0,1,1.344-.562,1.783,1.783,0,0,1,1.328.563,1.86,1.86,0,0,1,.547,1.344v22.75A6.432,6.432,0,0,1,29.2.688a2.711,2.711,0,0,1-1.359,1.344,11.538,11.538,0,0,1-4.281.719h-.094a2.319,2.319,0,0,1-1.5-.562,2.919,2.919,0,0,1-1-1.437,1.415,1.415,0,0,1-.094-.5,1.388,1.388,0,0,1,.25-.781,1.262,1.262,0,0,1,1.094-.594h.031q1.25.031,2.719.031a1.084,1.084,0,0,0,.656-.2.756.756,0,0,0,.188-.578ZM50.25-11.187a.276.276,0,0,0,.313.313h6.125A.276.276,0,0,0,57-11.187V-14.5a.276.276,0,0,0-.312-.312H50.563a.276.276,0,0,0-.312.313Zm-9.937,0a.217.217,0,0,0,.063.219.3.3,0,0,0,.219.094h5.5a.276.276,0,0,0,.313-.312V-14.5a.276.276,0,0,0-.312-.312H40.688a.276.276,0,0,0-.312.313v.281Q40.375-12.781,40.313-11.187ZM46.406-21.75a.276.276,0,0,0-.312-.312H40.688a.276.276,0,0,0-.312.313v3.094a.276.276,0,0,0,.313.313h5.406a.276.276,0,0,0,.313-.312Zm10.281,3.406A.276.276,0,0,0,57-18.656V-21.75a.276.276,0,0,0-.312-.312H50.563a.276.276,0,0,0-.312.313v3.094a.276.276,0,0,0,.313.313Zm1.375-7.344a2.619,2.619,0,0,1,1.922.8,2.619,2.619,0,0,1,.8,1.922V-2.437a5.779,5.779,0,0,1-.391,2.391,2.489,2.489,0,0,1-1.359,1.234,12.206,12.206,0,0,1-4.187.688h-.062a2.115,2.115,0,0,1-1.406-.531A2.724,2.724,0,0,1,52.438,0a1.177,1.177,0,0,1-.094-.469,1.319,1.319,0,0,1,.219-.719,1.2,1.2,0,0,1,1.031-.531h2.563q.844,0,.844-.75v-4.5a.276.276,0,0,0-.312-.312H50.563a.276.276,0,0,0-.312.313V-.25a1.834,1.834,0,0,1-.562,1.344,1.852,1.852,0,0,1-1.359.563,1.852,1.852,0,0,1-1.359-.562A1.834,1.834,0,0,1,46.406-.25V-6.969a.276.276,0,0,0-.312-.312H40.188a.348.348,0,0,0-.375.313A19.266,19.266,0,0,1,37.031.688a1.428,1.428,0,0,1-1.219.656.127.127,0,0,1-.094.031,1.875,1.875,0,0,1-1.281-.5,2.024,2.024,0,0,1-.719-1.25V-.719a1.971,1.971,0,0,1,.313-1.062,12.846,12.846,0,0,0,.844-1.594,14.34,14.34,0,0,0,1.156-3.719q.344-2,.453-3.547t.109-3.609v-8.719a2.619,2.619,0,0,1,.8-1.922,2.619,2.619,0,0,1,1.922-.8Zm21.969,5.344a.276.276,0,0,0-.312.313v2.281a.276.276,0,0,0,.313.313h1.125a.914.914,0,0,0,.563-.187q1.625-1.25,2.969-2.5a.121.121,0,0,0,.031-.141q-.031-.078-.094-.078ZM86.375-6.375a.276.276,0,0,0,.313-.312V-8.094a.276.276,0,0,0-.312-.312H76a.276.276,0,0,0-.312.313v1.406A.276.276,0,0,0,76-6.375ZM75.688-1.625A.276.276,0,0,0,76-1.312H86.375a.276.276,0,0,0,.313-.312V-3.187a.276.276,0,0,0-.312-.312H76a.276.276,0,0,0-.312.313ZM93.844-16.937a1.54,1.54,0,0,1,.5,1.172,1.589,1.589,0,0,1-.5,1.188,1.648,1.648,0,0,1-1.187.484H83.125a.914.914,0,0,0-.562.188q-1.687,1.219-3.25,2.219a.076.076,0,0,0-.047.094.074.074,0,0,0,.078.063h8.594a2.619,2.619,0,0,1,1.922.8,2.619,2.619,0,0,1,.8,1.922V.719a1.9,1.9,0,0,1-.578,1.391,1.9,1.9,0,0,1-1.391.578h-1.25a.747.747,0,0,1-.75-.75.083.083,0,0,0-.094-.094H75.781q-.094,0-.094.125a.811.811,0,0,1-.25.594.848.848,0,0,1-.625.25H73.781a1.834,1.834,0,0,1-1.344-.562A1.834,1.834,0,0,1,71.875.906v-8.25a.184.184,0,0,0-.094-.156.207.207,0,0,0-.187-.031q-1.531.688-2.781,1.188a2.587,2.587,0,0,1-.875.156,3.082,3.082,0,0,1-.75-.094,2.858,2.858,0,0,1-1.312-.969,1.327,1.327,0,0,1-.281-.812,1.277,1.277,0,0,1,.063-.406,1.24,1.24,0,0,1,.844-.906,58.665,58.665,0,0,0,9.781-4.562.062.062,0,0,0,.031-.094.1.1,0,0,0-.094-.062H67.344a1.648,1.648,0,0,1-1.187-.484,1.589,1.589,0,0,1-.5-1.187,1.589,1.589,0,0,1,.5-1.187,1.648,1.648,0,0,1,1.188-.484h8.281a.276.276,0,0,0,.313-.312v-2.281a.276.276,0,0,0-.312-.312H70.063a1.6,1.6,0,0,1-1.172-.484A1.6,1.6,0,0,1,68.406-22a1.6,1.6,0,0,1,.484-1.172,1.6,1.6,0,0,1,1.172-.484h5.563a.276.276,0,0,0,.313-.312v-1.25a1.808,1.808,0,0,1,.547-1.328,1.808,1.808,0,0,1,1.328-.547,1.86,1.86,0,0,1,1.344.547,1.783,1.783,0,0,1,.563,1.328v1.25a.276.276,0,0,0,.313.313H85.25a1.334,1.334,0,0,1,1,.422,1.375,1.375,0,0,1,.406.984q0,.031.047.047a.257.257,0,0,0,.078.016q1.094-1.219,2.094-2.469a1.959,1.959,0,0,1,1.25-.812,2.055,2.055,0,0,1,.5-.062,2.266,2.266,0,0,1,.969.219,1.618,1.618,0,0,1,.813,1.031,2.277,2.277,0,0,1,.031.375,1.408,1.408,0,0,1-.312.875,47.918,47.918,0,0,1-4.969,5.375.121.121,0,0,0-.031.141q.031.078.094.078h5.438A1.622,1.622,0,0,1,93.844-16.937ZM104.75-5.75q2,0,3.844-6.281a48.524,48.524,0,0,0,1.656-7.375.168.168,0,0,0-.047-.187.315.315,0,0,0-.2-.062,10.247,10.247,0,0,0-3.328,1.453,9.648,9.648,0,0,0-2.453,2.3,10.581,10.581,0,0,0-1.437,2.672,7.966,7.966,0,0,0-.5,2.7,7.037,7.037,0,0,0,.734,3.516A2.077,2.077,0,0,0,104.75-5.75ZM115.594.875a2.72,2.72,0,0,1-.719.094,2.969,2.969,0,0,1-1.156-.25A3.351,3.351,0,0,1,112.25-.562a1.477,1.477,0,0,1-.219-.75,1.672,1.672,0,0,1,.125-.625,1.51,1.51,0,0,1,1.094-.844q.406-.063.781-.156a9.853,9.853,0,0,0,5.188-2.953,7.939,7.939,0,0,0,2-5.547,8.884,8.884,0,0,0-1.656-5.469,7.475,7.475,0,0,0-4.656-2.844.282.282,0,0,0-.375.25,74.521,74.521,0,0,1-1.812,8.313A23.951,23.951,0,0,1,109.2-3.594a5.8,5.8,0,0,1-4.609,2.688,5.5,5.5,0,0,1-4.547-2.625,11,11,0,0,1-1.891-6.594,12.509,12.509,0,0,1,1.125-5.187,13.5,13.5,0,0,1,3.063-4.328A14.908,14.908,0,0,1,107-22.578a15.072,15.072,0,0,1,5.75-1.109,13.506,13.506,0,0,1,6.75,1.656,11.352,11.352,0,0,1,4.484,4.469,12.815,12.815,0,0,1,1.547,6.281A12.01,12.01,0,0,1,123-3.547,13.359,13.359,0,0,1,115.594.875Zm26.531-12.031a.276.276,0,0,0-.312-.312h-5.156a.276.276,0,0,0-.312.313v.625q0,1-.062,2.125a.331.331,0,0,0,.078.219.252.252,0,0,0,.2.094h5.25a.276.276,0,0,0,.313-.312Zm9.75,3.063a.276.276,0,0,0,.313-.312v-2.75a.276.276,0,0,0-.312-.312h-5.75a.276.276,0,0,0-.312.313v2.75a.276.276,0,0,0,.313.313Zm1.406-6.469a2.619,2.619,0,0,1,1.922.8,2.619,2.619,0,0,1,.8,1.922v6.75a1.834,1.834,0,0,1-.562,1.344,1.834,1.834,0,0,1-1.344.563h-.375a1.472,1.472,0,0,1-1.078-.453,1.472,1.472,0,0,1-.453-1.078q0-.187-.156-.187H136.094a.348.348,0,0,0-.375.313,15.624,15.624,0,0,1-2.75,6.094,1.584,1.584,0,0,1-1.3.625,2.067,2.067,0,0,1-1.422-.562,1.846,1.846,0,0,1-.625-1.281V.125a1.952,1.952,0,0,1,.406-1.219q2.531-3.406,2.531-9.5v-1.25a2.619,2.619,0,0,1,.8-1.922,2.619,2.619,0,0,1,1.922-.8Zm4.156-9.656a1.552,1.552,0,0,1,.469,1.141,1.552,1.552,0,0,1-.469,1.141,1.534,1.534,0,0,1-1.125.469H146.156a.276.276,0,0,0-.312.313v1.313a.276.276,0,0,0,.313.313h8.719a1.534,1.534,0,0,1,1.125.469,1.552,1.552,0,0,1,.469,1.141A1.552,1.552,0,0,1,156-16.781a1.534,1.534,0,0,1-1.125.469H133.656a1.534,1.534,0,0,1-1.125-.469,1.552,1.552,0,0,1-.469-1.141,1.552,1.552,0,0,1,.469-1.141,1.534,1.534,0,0,1,1.125-.469h8.063a.276.276,0,0,0,.313-.312v-1.312a.276.276,0,0,0-.312-.312H131.656a1.534,1.534,0,0,1-1.125-.469,1.552,1.552,0,0,1-.469-1.141,1.6,1.6,0,0,1,.469-1.156,1.51,1.51,0,0,1,1.125-.484h10.125q.25,0,.25-.219v-.25a1.834,1.834,0,0,1,.563-1.344,1.834,1.834,0,0,1,1.344-.562,1.834,1.834,0,0,1,1.344.563,1.834,1.834,0,0,1,.563,1.344v.25q0,.219.25.219h10.219A1.488,1.488,0,0,1,157.438-24.219Z" transform="translate(-1.469 27.094)" fill="#231815"/>
</svg>
