<svg xmlns="http://www.w3.org/2000/svg" width="248.906" height="16.822" viewBox="0 0 248.906 16.822">
  <path id="パス_6900" data-name="パス 6900" d="M6.5-7.963a.155.155,0,0,0-.176.176v.633a.334.334,0,0,0,.141.281q.545.4,2.162,1.758a1.213,1.213,0,0,1,.422.773.894.894,0,0,1,.018.176,1.131,1.131,0,0,1-.211.668.759.759,0,0,1-.633.369H8.174a.856.856,0,0,1-.65-.281q-.457-.51-1.072-1.143a.068.068,0,0,0-.079-.018.068.068,0,0,0-.044.07V.492a1,1,0,0,1-.3.738,1.04,1.04,0,0,1-1.459,0,1,1,0,0,1-.3-.738V-4.746q0-.018-.035-.026a.052.052,0,0,0-.053.009A21.888,21.888,0,0,1,2.268-1.582a.649.649,0,0,1-.527.264H1.617a.8.8,0,0,1-.6-.439,1.645,1.645,0,0,1-.193-.773,1.183,1.183,0,0,1,.018-.193,1.679,1.679,0,0,1,.387-.914A17.981,17.981,0,0,0,3.779-7.787a.116.116,0,0,0,0-.123.118.118,0,0,0-.105-.053H1.828a.962.962,0,0,1-.694-.281.929.929,0,0,1-.29-.694.929.929,0,0,1,.29-.694.962.962,0,0,1,.694-.281H4.1a.155.155,0,0,0,.176-.176v-1.881a.142.142,0,0,0-.053-.114.132.132,0,0,0-.123-.026q-.967.176-1.969.316a.578.578,0,0,1-.141.018.987.987,0,0,1-.545-.158,1.3,1.3,0,0,1-.457-.58,1.09,1.09,0,0,1-.035-.264.78.78,0,0,1,.088-.352.634.634,0,0,1,.475-.352,30.329,30.329,0,0,0,5.309-1.3,1.639,1.639,0,0,1,.58-.105,1.464,1.464,0,0,1,.387.053,1.437,1.437,0,0,1,.826.475.675.675,0,0,1,.211.492,1.183,1.183,0,0,1-.018.193.7.7,0,0,1-.475.51q-.809.264-1.828.527a.2.2,0,0,0-.176.211v2.338a.155.155,0,0,0,.176.176H8.455a.962.962,0,0,1,.694.281.929.929,0,0,1,.29.694.929.929,0,0,1-.29.694.962.962,0,0,1-.694.281Zm4.078-4.8a1,1,0,0,1,.738-.3,1,1,0,0,1,.738.3,1,1,0,0,1,.3.738v7.98a1.011,1.011,0,0,1-.3.729.988.988,0,0,1-.738.308.988.988,0,0,1-.738-.308,1.011,1.011,0,0,1-.3-.729v-7.98A1,1,0,0,1,10.582-12.762Zm3.938-1.072a1.032,1.032,0,0,1,.316-.756,1.032,1.032,0,0,1,.756-.316,1,1,0,0,1,.747.316,1.046,1.046,0,0,1,.308.756v12.8a3.618,3.618,0,0,1-.22,1.424,1.525,1.525,0,0,1-.765.756,6.49,6.49,0,0,1-2.408.4H13.2a1.3,1.3,0,0,1-.844-.316,1.642,1.642,0,0,1-.562-.809.8.8,0,0,1-.053-.281A.781.781,0,0,1,11.883-.3.71.71,0,0,1,12.5-.633h.018q.7.018,1.529.018a.61.61,0,0,0,.369-.114.425.425,0,0,0,.105-.325ZM28.266-6.293a.155.155,0,0,0,.176.176h3.445a.155.155,0,0,0,.176-.176V-8.156a.155.155,0,0,0-.176-.176H28.441a.155.155,0,0,0-.176.176Zm-5.59,0a.122.122,0,0,0,.035.123.169.169,0,0,0,.123.053h3.094a.155.155,0,0,0,.176-.176V-8.156a.155.155,0,0,0-.176-.176H22.887a.155.155,0,0,0-.176.176V-8Q22.711-7.189,22.676-6.293ZM26.1-12.234a.155.155,0,0,0-.176-.176H22.887a.155.155,0,0,0-.176.176v1.74a.155.155,0,0,0,.176.176h3.041a.155.155,0,0,0,.176-.176Zm5.783,1.916a.155.155,0,0,0,.176-.176v-1.74a.155.155,0,0,0-.176-.176H28.441a.155.155,0,0,0-.176.176v1.74a.155.155,0,0,0,.176.176Zm.773-4.131A1.473,1.473,0,0,1,33.741-14a1.473,1.473,0,0,1,.448,1.081V-1.371a3.25,3.25,0,0,1-.22,1.345,1.4,1.4,0,0,1-.765.694,6.866,6.866,0,0,1-2.355.387h-.035a1.19,1.19,0,0,1-.791-.3A1.532,1.532,0,0,1,29.5,0a.662.662,0,0,1-.053-.264.742.742,0,0,1,.123-.4.672.672,0,0,1,.58-.3h1.441q.475,0,.475-.422V-3.92a.155.155,0,0,0-.176-.176H28.441a.155.155,0,0,0-.176.176V-.141a1.032,1.032,0,0,1-.316.756,1.042,1.042,0,0,1-.765.316A1.042,1.042,0,0,1,26.42.615,1.032,1.032,0,0,1,26.1-.141V-3.92a.155.155,0,0,0-.176-.176H22.605a.2.2,0,0,0-.211.176A10.837,10.837,0,0,1,20.83.387a.8.8,0,0,1-.686.369.072.072,0,0,1-.053.018,1.055,1.055,0,0,1-.721-.281,1.139,1.139,0,0,1-.4-.7V-.4a1.109,1.109,0,0,1,.176-.6,7.226,7.226,0,0,0,.475-.9,8.066,8.066,0,0,0,.65-2.092q.193-1.125.255-2t.062-2.03v-4.9A1.473,1.473,0,0,1,21.032-14a1.473,1.473,0,0,1,1.081-.448Zm12.357,3.006a.155.155,0,0,0-.176.176v1.283a.155.155,0,0,0,.176.176h.633a.514.514,0,0,0,.316-.105q.914-.7,1.67-1.406a.068.068,0,0,0,.018-.079q-.018-.044-.053-.044Zm3.568,7.857a.155.155,0,0,0,.176-.176v-.791a.155.155,0,0,0-.176-.176H42.75a.155.155,0,0,0-.176.176v.791a.155.155,0,0,0,.176.176ZM42.574-.914a.155.155,0,0,0,.176.176h5.836a.155.155,0,0,0,.176-.176v-.879a.155.155,0,0,0-.176-.176H42.75a.155.155,0,0,0-.176.176ZM52.787-9.527a.866.866,0,0,1,.281.659.894.894,0,0,1-.281.668.927.927,0,0,1-.668.272H46.758a.514.514,0,0,0-.316.105q-.949.686-1.828,1.248a.043.043,0,0,0-.026.053.042.042,0,0,0,.044.035h4.834a1.473,1.473,0,0,1,1.081.448,1.473,1.473,0,0,1,.448,1.081V.4a1.066,1.066,0,0,1-.325.782,1.066,1.066,0,0,1-.782.325h-.7a.42.42,0,0,1-.422-.422.047.047,0,0,0-.053-.053H42.627q-.053,0-.053.07a.456.456,0,0,1-.141.334.477.477,0,0,1-.352.141H41.5a1.032,1.032,0,0,1-.756-.316A1.032,1.032,0,0,1,40.43.51V-4.131a.1.1,0,0,0-.053-.088.116.116,0,0,0-.105-.018q-.861.387-1.564.668a1.455,1.455,0,0,1-.492.088,1.734,1.734,0,0,1-.422-.053,1.608,1.608,0,0,1-.738-.545.746.746,0,0,1-.158-.457.718.718,0,0,1,.035-.229.7.7,0,0,1,.475-.51,33,33,0,0,0,5.5-2.566.035.035,0,0,0,.018-.053.056.056,0,0,0-.053-.035H37.881a.927.927,0,0,1-.668-.272.894.894,0,0,1-.281-.668.894.894,0,0,1,.281-.668.927.927,0,0,1,.668-.272h4.658a.155.155,0,0,0,.176-.176v-1.283a.155.155,0,0,0-.176-.176H39.41a.9.9,0,0,1-.659-.272.9.9,0,0,1-.272-.659.9.9,0,0,1,.272-.659.9.9,0,0,1,.659-.272h3.129a.155.155,0,0,0,.176-.176v-.7a1.017,1.017,0,0,1,.308-.747,1.017,1.017,0,0,1,.747-.308,1.046,1.046,0,0,1,.756.308,1,1,0,0,1,.316.747v.7a.155.155,0,0,0,.176.176h2.936a.75.75,0,0,1,.563.237.773.773,0,0,1,.229.554q0,.018.026.026a.145.145,0,0,0,.044.009q.615-.686,1.178-1.389a1.1,1.1,0,0,1,.7-.457,1.156,1.156,0,0,1,.281-.035,1.275,1.275,0,0,1,.545.123.91.91,0,0,1,.457.58,1.281,1.281,0,0,1,.018.211.792.792,0,0,1-.176.492,26.954,26.954,0,0,1-2.795,3.023.068.068,0,0,0-.018.079q.018.044.053.044h3.059A.913.913,0,0,1,52.787-9.527Zm6.135,6.293q1.125,0,2.162-3.533a27.3,27.3,0,0,0,.932-4.148.1.1,0,0,0-.026-.105.177.177,0,0,0-.114-.035A5.764,5.764,0,0,0,60-10.239a5.427,5.427,0,0,0-1.38,1.292,5.952,5.952,0,0,0-.809,1.5,4.481,4.481,0,0,0-.281,1.521,3.958,3.958,0,0,0,.413,1.978A1.168,1.168,0,0,0,58.922-3.234Zm6.1,3.727a1.53,1.53,0,0,1-.4.053A1.67,1.67,0,0,1,63.967.4a1.885,1.885,0,0,1-.826-.721.831.831,0,0,1-.123-.422.94.94,0,0,1,.07-.352.85.85,0,0,1,.615-.475q.229-.035.439-.088a5.542,5.542,0,0,0,2.918-1.661,4.466,4.466,0,0,0,1.125-3.12,5,5,0,0,0-.932-3.076,4.2,4.2,0,0,0-2.619-1.6.158.158,0,0,0-.211.141A41.918,41.918,0,0,1,63.4-6.293a13.473,13.473,0,0,1-1.978,4.271A3.263,3.263,0,0,1,58.834-.51a3.1,3.1,0,0,1-2.558-1.477A6.185,6.185,0,0,1,55.213-5.7a7.036,7.036,0,0,1,.633-2.918,7.594,7.594,0,0,1,1.723-2.435A8.386,8.386,0,0,1,60.188-12.7a8.478,8.478,0,0,1,3.234-.624,7.6,7.6,0,0,1,3.8.932,6.386,6.386,0,0,1,2.522,2.514,7.208,7.208,0,0,1,.87,3.533A6.756,6.756,0,0,1,69.188-2,7.514,7.514,0,0,1,65.021.492ZM79.945-6.275a.155.155,0,0,0-.176-.176h-2.9a.155.155,0,0,0-.176.176v.352q0,.563-.035,1.2a.186.186,0,0,0,.044.123.142.142,0,0,0,.114.053H79.77a.155.155,0,0,0,.176-.176ZM85.43-4.553a.155.155,0,0,0,.176-.176V-6.275a.155.155,0,0,0-.176-.176H82.2a.155.155,0,0,0-.176.176v1.547a.155.155,0,0,0,.176.176Zm.791-3.639a1.473,1.473,0,0,1,1.081.448,1.473,1.473,0,0,1,.448,1.081v3.8a1.032,1.032,0,0,1-.316.756,1.032,1.032,0,0,1-.756.316h-.211a.828.828,0,0,1-.606-.255.828.828,0,0,1-.255-.606q0-.105-.088-.105H76.553a.2.2,0,0,0-.211.176A8.789,8.789,0,0,1,74.795.844a.891.891,0,0,1-.729.352,1.163,1.163,0,0,1-.8-.316,1.038,1.038,0,0,1-.352-.721V.07a1.1,1.1,0,0,1,.229-.686,8.8,8.8,0,0,0,1.424-5.344v-.7a1.473,1.473,0,0,1,.448-1.081A1.473,1.473,0,0,1,76.1-8.191Zm2.338-5.432a.873.873,0,0,1,.264.642.873.873,0,0,1-.264.642.863.863,0,0,1-.633.264H82.213a.155.155,0,0,0-.176.176v.738a.155.155,0,0,0,.176.176h4.9a.863.863,0,0,1,.633.264.873.873,0,0,1,.264.642.873.873,0,0,1-.264.642.863.863,0,0,1-.633.264H75.182a.863.863,0,0,1-.633-.264.873.873,0,0,1-.264-.642.873.873,0,0,1,.264-.642.863.863,0,0,1,.633-.264h4.535a.155.155,0,0,0,.176-.176V-11.9a.155.155,0,0,0-.176-.176h-5.66a.863.863,0,0,1-.633-.264.873.873,0,0,1-.264-.642.9.9,0,0,1,.264-.65.849.849,0,0,1,.633-.272h5.7q.141,0,.141-.123v-.141a1.032,1.032,0,0,1,.316-.756,1.032,1.032,0,0,1,.756-.316,1.032,1.032,0,0,1,.756.316,1.032,1.032,0,0,1,.316.756v.141q0,.123.141.123h5.748A.837.837,0,0,1,88.559-13.623Zm10.67,3.445a1.221,1.221,0,0,1-.826-.387,1.244,1.244,0,0,1-.334-.861,1,1,0,0,1,.334-.756,1.1,1.1,0,0,1,.721-.264h.088q1.23.088,2.531.088,1.389,0,2.848-.105h.088a.992.992,0,0,1,.7.281,1,1,0,0,1,.352.773,1.182,1.182,0,0,1-.334.844,1.2,1.2,0,0,1-.809.387q-1.336.07-2.672.07T99.229-10.178ZM97.26-4.113a1.055,1.055,0,0,1,.422-.7,1.073,1.073,0,0,1,.668-.229.39.39,0,0,1,.123.018.87.87,0,0,1,.65.369,1.063,1.063,0,0,1,.193.615v.123a3.357,3.357,0,0,0-.035.475q0,1.266,2.5,1.266a21.025,21.025,0,0,0,3.27-.246,1.183,1.183,0,0,1,.193-.018,1,1,0,0,1,.65.246.967.967,0,0,1,.369.791,1.374,1.374,0,0,1-.316.9,1.221,1.221,0,0,1-.844.457,29.471,29.471,0,0,1-3.41.176,6.127,6.127,0,0,1-3.4-.765,2.466,2.466,0,0,1-1.134-2.171A9.065,9.065,0,0,1,97.26-4.113Zm-4.535-8.578a1.33,1.33,0,0,1,.457-.861,1.168,1.168,0,0,1,.773-.3.39.39,0,0,1,.123.018.97.97,0,0,1,.756.439,1.037,1.037,0,0,1,.193.6,1.09,1.09,0,0,1-.035.264q-.053.211-.088.387-.264,1.23-.571,3.287a23.289,23.289,0,0,0-.308,3.252,8.152,8.152,0,0,0,.053.967.042.042,0,0,0,.035.044.043.043,0,0,0,.053-.026q.141-.352.439-1a.505.505,0,0,1,.369-.308.548.548,0,0,1,.475.1,1.056,1.056,0,0,1,.352.51,1.156,1.156,0,0,1,.035.281,1,1,0,0,1-.053.316A34.012,34.012,0,0,0,94.729-1.02q-.053.246-.088.527a1.257,1.257,0,0,1-.316.756,1.007,1.007,0,0,1-.686.352h-.105a1.252,1.252,0,0,1-.721-.229,1.125,1.125,0,0,1-.439-.7,24.273,24.273,0,0,1-.457-4.834q0-.756.053-1.591t.149-1.7q.1-.861.176-1.433t.2-1.371q.123-.8.158-.958l.026-.193Q92.707-12.586,92.725-12.691Zm18.6,4.816a1.411,1.411,0,0,1-.527.105,1.369,1.369,0,0,1-.51-.105,1.282,1.282,0,0,1-.721-.721,1.222,1.222,0,0,1-.088-.439,1.112,1.112,0,0,1,.141-.527,1.184,1.184,0,0,1,.773-.6q.439-.123.844-.246.123-.035,1.037-.325t1.538-.466q.624-.176,1.591-.413t1.837-.36a11.543,11.543,0,0,1,1.608-.123,6.981,6.981,0,0,1,2.927.589,4.786,4.786,0,0,1,2.065,1.775,4.987,4.987,0,0,1,.773,2.786,5.556,5.556,0,0,1-2.347,4.6,12.719,12.719,0,0,1-6.5,2.241,1.183,1.183,0,0,1-.193.018,1.635,1.635,0,0,1-.879-.264,1.853,1.853,0,0,1-.738-.844.94.94,0,0,1-.07-.352A.866.866,0,0,1,114.029-2a.875.875,0,0,1,.721-.439,16.071,16.071,0,0,0,3.762-.677,6.224,6.224,0,0,0,2.575-1.512,3.237,3.237,0,0,0,.976-2.347,2.8,2.8,0,0,0-.87-2.127,3.4,3.4,0,0,0-2.435-.826Q116.227-9.932,111.322-7.875Zm16.77-3.656a1.314,1.314,0,0,1,.352-.914,1.174,1.174,0,0,1,.879-.387h.018a1.116,1.116,0,0,1,.9.422,1.2,1.2,0,0,1,.316.826.39.39,0,0,1-.018.123q-.035.492-.035.809v.773q0,1.652.105,3.006.422,4.324,1.916,4.324.756,0,1.494-2.145a.761.761,0,0,1,.58-.527.894.894,0,0,1,.176-.018.649.649,0,0,1,.527.264,2.379,2.379,0,0,1,.527,1.143,1.789,1.789,0,0,1,.035.352,2.086,2.086,0,0,1-.193.879,6.871,6.871,0,0,1-1.5,2.232,2.518,2.518,0,0,1-1.7.668,3.249,3.249,0,0,1-2.7-1.573A10.664,10.664,0,0,1,128.3-6.24q-.193-2-.193-4.816Zm9.984.809a.9.9,0,0,1-.158-.492,1.38,1.38,0,0,1,.035-.3.843.843,0,0,1,.545-.545,1.659,1.659,0,0,1,.527-.088,1.784,1.784,0,0,1,.492.07,1.485,1.485,0,0,1,.791.615A17.121,17.121,0,0,1,141.785-8.2a23.45,23.45,0,0,1,.949,3.612,2.132,2.132,0,0,1,.018.264,1.448,1.448,0,0,1-.229.773,1.516,1.516,0,0,1-.826.668.94.94,0,0,1-.352.07.984.984,0,0,1-.492-.141.971.971,0,0,1-.475-.721A18.046,18.046,0,0,0,138.076-10.723Zm8.719.6a1.281,1.281,0,0,1-.211.018,1.073,1.073,0,0,1-.668-.229,1.035,1.035,0,0,1-.439-.791v-.105a1.1,1.1,0,0,1,.281-.756,1.122,1.122,0,0,1,.844-.4,4.3,4.3,0,0,0,.51-.053q.51-.035,7.682-.668,1.828-.158,3.9-.264h.053a1.063,1.063,0,0,1,.756.3,1.074,1.074,0,0,1,.352.809,1.1,1.1,0,0,1-.334.809,1.166,1.166,0,0,1-.809.352,12.38,12.38,0,0,0-2.285.211,4.922,4.922,0,0,0-2.672,1.916,5.111,5.111,0,0,0-1.09,3.076,3.7,3.7,0,0,0,.343,1.626,3.229,3.229,0,0,0,.967,1.187,5.417,5.417,0,0,0,1.406.765,8.584,8.584,0,0,0,1.749.431,1.092,1.092,0,0,1,.756.492.97.97,0,0,1,.176.545,1.163,1.163,0,0,1-.053.334,1.685,1.685,0,0,1-.668.861,1.448,1.448,0,0,1-.773.229A1.867,1.867,0,0,1,156.3.545,9.7,9.7,0,0,1,154-.167a7.927,7.927,0,0,1-1.89-1.2,5.16,5.16,0,0,1-1.318-1.767,5.359,5.359,0,0,1-.483-2.276,6.683,6.683,0,0,1,.747-3.138,6.959,6.959,0,0,1,1.749-2.241.057.057,0,0,0,.018-.07.035.035,0,0,0-.053-.018Q148.852-10.477,146.795-10.125Zm21.34-4.57a.779.779,0,0,1,.571.237.789.789,0,0,1,.237.58.789.789,0,0,1-.237.58.779.779,0,0,1-.571.237H164.32a.779.779,0,0,1-.571-.237.789.789,0,0,1-.237-.58.789.789,0,0,1,.237-.58.779.779,0,0,1,.571-.237Zm.65,2.426a.814.814,0,0,1,.6.246.814.814,0,0,1,.246.6.814.814,0,0,1-.246.6.814.814,0,0,1-.6.246h-5.344a.814.814,0,0,1-.6-.246.814.814,0,0,1-.246-.6.814.814,0,0,1,.246-.6.814.814,0,0,1,.6-.246Zm-1.67,9.316a.155.155,0,0,0-.176-.176h-1.564a.155.155,0,0,0-.176.176V-1.23a.155.155,0,0,0,.176.176h1.564a.155.155,0,0,0,.176-.176Zm.316-1.863a1.473,1.473,0,0,1,1.081.448,1.473,1.473,0,0,1,.448,1.081V-.914a1.473,1.473,0,0,1-.448,1.081,1.473,1.473,0,0,1-1.081.448H165.27a.062.062,0,0,0-.07.07.61.61,0,0,1-.185.448.61.61,0,0,1-.448.185H164.3a.869.869,0,0,1-.65-.272A.892.892,0,0,1,163.389.4V-3.287a1.473,1.473,0,0,1,.448-1.081,1.473,1.473,0,0,1,1.081-.448Zm-3.2-.9a.773.773,0,0,1-.554-.229.75.75,0,0,1-.237-.562.779.779,0,0,1,.237-.571.759.759,0,0,1,.554-.237h3.955a.75.75,0,0,1,.563.237.794.794,0,0,1,.229.571.764.764,0,0,1-.229.563.764.764,0,0,1-.562.229Zm.035-2.426a.8.8,0,0,1-.589-.237.789.789,0,0,1-.237-.58.789.789,0,0,1,.237-.58.8.8,0,0,1,.589-.237h3.9a.779.779,0,0,1,.571.237.789.789,0,0,1,.237.58.789.789,0,0,1-.237.58.779.779,0,0,1-.571.237Zm14.2,3.639a.933.933,0,0,1,.686.281.933.933,0,0,1,.281.686.962.962,0,0,1-.281.694.919.919,0,0,1-.686.29h-2.777a.155.155,0,0,0-.176.176V.51a1.017,1.017,0,0,1-.308.747,1.061,1.061,0,0,1-1.494,0,1.017,1.017,0,0,1-.308-.747V-2.373a.155.155,0,0,0-.176-.176h-2.865a.919.919,0,0,1-.686-.29.962.962,0,0,1-.281-.694.933.933,0,0,1,.281-.686.933.933,0,0,1,.686-.281h2.865a.155.155,0,0,0,.176-.176V-6.135a.155.155,0,0,0-.176-.176h-1.951a.913.913,0,0,1-.668-.281.913.913,0,0,1-.281-.668.913.913,0,0,1,.281-.668.913.913,0,0,1,.668-.281h1.951a.155.155,0,0,0,.176-.176V-9.738a.155.155,0,0,0-.176-.176h-2.285a.919.919,0,0,1-.686-.29.952.952,0,0,1-.281-.686.952.952,0,0,1,.281-.686.919.919,0,0,1,.686-.29h.492a.118.118,0,0,0,.105-.053.116.116,0,0,0,.018-.105,11.965,11.965,0,0,0-.633-1.67.892.892,0,0,1-.088-.369.773.773,0,0,1,.07-.316.737.737,0,0,1,.475-.475.985.985,0,0,1,.369-.07.985.985,0,0,1,.369.07.975.975,0,0,1,.563.492,12.253,12.253,0,0,1,.6,1.354.946.946,0,0,1,.053.3.78.78,0,0,1-.088.352.857.857,0,0,1-.492.457v.018a.016.016,0,0,0,.018.018H176.1q.018,0,.018-.009t-.018-.009a.692.692,0,0,1-.4-.387.753.753,0,0,1-.053-.264.946.946,0,0,1,.053-.3q.316-.7.58-1.424a1.147,1.147,0,0,1,.563-.633,1.014,1.014,0,0,1,.51-.141,1,1,0,0,1,.316.053.844.844,0,0,1,.58.492.985.985,0,0,1,.07.369,1.05,1.05,0,0,1-.088.4q-.527,1.02-.932,1.705a.1.1,0,0,0,.009.088.084.084,0,0,0,.079.053h.809a.928.928,0,0,1,.677.29.937.937,0,0,1,.29.686.937.937,0,0,1-.29.686.928.928,0,0,1-.677.29h-2.5a.155.155,0,0,0-.176.176v1.354a.155.155,0,0,0,.176.176h2.145a.884.884,0,0,1,.659.281.927.927,0,0,1,.272.668.927.927,0,0,1-.272.668.884.884,0,0,1-.659.281h-2.145a.155.155,0,0,0-.176.176v1.459a.155.155,0,0,0,.176.176Zm5.555-8.332v-.105a1.266,1.266,0,0,1,.334-.879,1.116,1.116,0,0,1,.9-.422h.018a1.165,1.165,0,0,1,.932.439,1.308,1.308,0,0,1,.334.879v.123a9.262,9.262,0,0,0-.053.949q-.229,4.588-.229,8.121,0,2.373,2.461,2.373a6.7,6.7,0,0,0,5.326-2.6,1.054,1.054,0,0,1,.791-.387h.035a.95.95,0,0,1,.756.352A1.677,1.677,0,0,1,196-2.936a1.362,1.362,0,0,1-.369.949A9.637,9.637,0,0,1,192.709.2a8.847,8.847,0,0,1-4.008.87A5.393,5.393,0,0,1,185.15.018a3.993,3.993,0,0,1-1.266-3.252q0-1.318.088-4.632t.088-3.981Q184.061-12.357,184.025-12.832Zm24.152-.9a1.532,1.532,0,0,1,.967-.457h.105a1.308,1.308,0,0,1,.879.334,1.1,1.1,0,0,1,.387.844,1.134,1.134,0,0,1-.439.932q-.018,0-.475.352-.158.141-2.074,1.661t-2.619,2.118a3.18,3.18,0,0,0-.624.677.463.463,0,0,0,.009.483,3.188,3.188,0,0,0,.65.686q.141.123,2.276,1.881t3.226,2.725a1.238,1.238,0,0,1,.422.949,1.293,1.293,0,0,1-.422.967,1.362,1.362,0,0,1-.949.369h-.07a1.44,1.44,0,0,1-.984-.457q-.387-.4-.6-.615-1.072-1.143-5.326-4.746A3.71,3.71,0,0,1,201.393-6.4a1.275,1.275,0,0,1-.123-.545,1.528,1.528,0,0,1,.176-.686,4.925,4.925,0,0,1,1.23-1.354q3.973-3.252,5.045-4.307Q207.967-13.518,208.178-13.729Zm13.236,6.223a.155.155,0,0,0-.176.176v.756a.155.155,0,0,0,.176.176h7.172a.155.155,0,0,0,.176-.176V-7.33a.155.155,0,0,0-.176-.176Zm0-2.865a.155.155,0,0,0-.176.176v.756a.155.155,0,0,0,.176.176h7.172a.155.155,0,0,0,.176-.176V-10.2a.155.155,0,0,0-.176-.176Zm0-2.848a.155.155,0,0,0-.176.176v.756a.155.155,0,0,0,.176.176h7.172a.155.155,0,0,0,.176-.176v-.756a.155.155,0,0,0-.176-.176ZM228.8-1.02h1.881a.573.573,0,0,0,.6-.422,4.042,4.042,0,0,0,.141-.9.647.647,0,0,1,.352-.527.78.78,0,0,1,.352-.088.946.946,0,0,1,.3.053,1.624,1.624,0,0,1,.7.58,1.079,1.079,0,0,1,.211.633.894.894,0,0,1-.018.176,4.247,4.247,0,0,1-.58,1.793,2.138,2.138,0,0,1-1.863.738H228.5A2.951,2.951,0,0,1,226.38.457a3.1,3.1,0,0,1-.536-2.109V-4.342a.155.155,0,0,0-.176-.176H223.84a.174.174,0,0,0-.193.176,9.111,9.111,0,0,1-.439,1.811,5.551,5.551,0,0,1-.958,1.564A5.159,5.159,0,0,1,220.5.316a10.366,10.366,0,0,1-1.635.633,1.218,1.218,0,0,1-.352.053,1.112,1.112,0,0,1-.527-.141,1.782,1.782,0,0,1-.721-.633.742.742,0,0,1-.123-.4.8.8,0,0,1,.053-.281.737.737,0,0,1,.492-.457,7.626,7.626,0,0,0,1.723-.633,3.541,3.541,0,0,0,1.406-1.23,4.719,4.719,0,0,0,.51-1.564.132.132,0,0,0-.026-.123.142.142,0,0,0-.114-.053h-.492a1.473,1.473,0,0,1-1.081-.448,1.473,1.473,0,0,1-.448-1.081V-13.57a1.473,1.473,0,0,1,.448-1.081,1.473,1.473,0,0,1,1.081-.448h8.719a1.473,1.473,0,0,1,1.081.448,1.473,1.473,0,0,1,.448,1.081v7.523a1.473,1.473,0,0,1-.448,1.081,1.473,1.473,0,0,1-1.081.448h-1.23a.155.155,0,0,0-.176.176V-1.67q0,.439.132.545A1.257,1.257,0,0,0,228.8-1.02Zm14.045-.053a6.667,6.667,0,0,0,.861-.053q.176,0,.158-.193a2.228,2.228,0,0,0-.58-1.257,1.535,1.535,0,0,0-1.143-.466,1.241,1.241,0,0,0-.8.246.742.742,0,0,0-.308.6.933.933,0,0,0,.51.809A2.431,2.431,0,0,0,242.842-1.072Zm2.953-12.709a.988.988,0,0,1,.193-.018,1.626,1.626,0,0,1,.668.141,1.493,1.493,0,0,1,.686.51.916.916,0,0,1,.176.545.894.894,0,0,1-.018.176.92.92,0,0,1-.4.615l-.422.281q-.422.281-1.037.773t-1.6,1.3q-.984.809-1.178.949a.058.058,0,0,0,0,.062q.018.026.035.009a7.213,7.213,0,0,1,1.512-.141,5.756,5.756,0,0,1,3.8,1.266A4,4,0,0,1,249.732-4.1a4.525,4.525,0,0,1-1.67,3.612A7.2,7.2,0,0,1,243.281.932a5.6,5.6,0,0,1-3.111-.8,2.429,2.429,0,0,1-1.23-2.118,2.542,2.542,0,0,1,.905-1.934,3.272,3.272,0,0,1,2.294-.826,3.858,3.858,0,0,1,2.514.8A3.5,3.5,0,0,1,245.9-1.881a.138.138,0,0,0,.07.1.133.133,0,0,0,.123-.009,2.582,2.582,0,0,0,1.3-2.355,2.268,2.268,0,0,0-1.055-1.925A4.449,4.449,0,0,0,243.7-6.82a6.315,6.315,0,0,0-2.988.694,10.829,10.829,0,0,0-2.654,2.065,1.147,1.147,0,0,1-.791.352h-.018a1.081,1.081,0,0,1-.791-.334,1.041,1.041,0,0,1-.3-.738,1.067,1.067,0,0,1,.387-.844q.369-.3,1.731-1.433t1.837-1.521q.246-.211,1.652-1.362t1.951-1.626a.1.1,0,0,0,.009-.07q-.009-.035-.062-.035-2.408.053-4.131.193a2.712,2.712,0,0,0-.3.018h-.088a1.12,1.12,0,0,1-.738-.281,1,1,0,0,1-.369-.791.99.99,0,0,1,.325-.747,1.076,1.076,0,0,1,.765-.308h.035q.246.018.475.018.844,0,2.953-.062t2.795-.114Z" transform="translate(-0.826 15.24)" fill="#fff"/>
</svg>
