<svg xmlns="http://www.w3.org/2000/svg" width="76.343" height="18.896" viewBox="0 0 76.343 18.896">
  <path id="パス_6929" data-name="パス 6929" d="M8.313-4.492l3.833-13.477h3.906L10,0H6.445L.391-17.969H4.407Zm9.473-4.419a9.979,9.979,0,0,1,2.307-7.007,8.155,8.155,0,0,1,6.323-2.515,8.431,8.431,0,0,1,6.213,2.393q2.417,2.38,2.417,7.056a9.845,9.845,0,0,1-2.319,6.921A8.12,8.12,0,0,1,26.416.464,8.324,8.324,0,0,1,20.178-1.99,9.5,9.5,0,0,1,17.786-8.911Zm3.784-.122A7.923,7.923,0,0,0,22.791-4.48a4.117,4.117,0,0,0,3.625,1.794,4.376,4.376,0,0,0,3.479-1.6,7.14,7.14,0,0,0,1.367-4.749,7.634,7.634,0,0,0-1.233-4.5,4.18,4.18,0,0,0-3.65-1.746,4.314,4.314,0,0,0-3.467,1.624A7.077,7.077,0,0,0,21.57-9.033ZM37.7-17.969h3.723V0H37.7ZM56.348-6.177h3.723a8.11,8.11,0,0,1-2.49,4.81A7.422,7.422,0,0,1,52.368.464a7.7,7.7,0,0,1-5.957-2.429q-2.234-2.441-2.234-7.019A10.1,10.1,0,0,1,46.4-15.894a7.6,7.6,0,0,1,6.03-2.539,7.855,7.855,0,0,1,5.2,1.7,7.016,7.016,0,0,1,2.441,4.749H56.348a4.733,4.733,0,0,0-1.392-2.454,3.722,3.722,0,0,0-2.441-.745,3.9,3.9,0,0,0-3.345,1.672,7.739,7.739,0,0,0-1.208,4.626A7.952,7.952,0,0,0,49.072-4.48a3.7,3.7,0,0,0,3.308,1.7,4.383,4.383,0,0,0,2.38-.684A4.239,4.239,0,0,0,56.348-6.177ZM63.037,0V-17.969H76.331v3.149H66.76v3.809h8.813v3.149H66.76v4.712h9.973V0Z" transform="translate(-0.391 18.433)" fill="#231815"/>
</svg>
