<svg xmlns="http://www.w3.org/2000/svg" width="40.133" height="32.995" viewBox="0 0 40.133 32.995">
  <g id="チェックマークのアイコン素材_7" data-name="チェックマークのアイコン素材 7" transform="translate(0 -45.505)">
    <path id="パス_5567" data-name="パス 5567" d="M111.962,62.111,106.154,56.4l-4.16,3.9-.506.473h0l0,0,10.484,8.866,21.694-21.626L132.4,45.839l-.192-.334h0l1.451,2.513Z" transform="translate(-93.529)" fill="#e6753d"/>
    <path id="パス_5568" data-name="パス 5568" d="M32.716,63.226v-.009l-4.215,4.2v8.05a2.163,2.163,0,0,1-2.16,2.16H6.375a2.163,2.163,0,0,1-2.16-2.16V55.5a2.163,2.163,0,0,1,2.16-2.16H26.341a2.142,2.142,0,0,1,1.317.453l3.049-2.506.229-.187h0l0,0a6.351,6.351,0,0,0-4.6-1.97H6.375A6.383,6.383,0,0,0,0,55.5V75.471a6.383,6.383,0,0,0,6.375,6.375H26.341a6.383,6.383,0,0,0,6.375-6.375V68.252l0-5.031Z" transform="translate(0 -3.345)" fill="#e6753d"/>
  </g>
</svg>
