<svg xmlns="http://www.w3.org/2000/svg" width="73.84" height="57.92" viewBox="0 0 73.84 57.92">
  <path id="パス_6838" data-name="パス 6838" d="M27.12.96a22.706,22.706,0,0,1-12.4-3.44A23.085,23.085,0,0,1,6.2-12.44,36.15,36.15,0,0,1,3.12-28,36.15,36.15,0,0,1,6.2-43.56a23.085,23.085,0,0,1,8.52-9.96,22.706,22.706,0,0,1,12.4-3.44,22.706,22.706,0,0,1,12.4,3.44,23.085,23.085,0,0,1,8.52,9.96A36.15,36.15,0,0,1,51.12-28a36.15,36.15,0,0,1-3.08,15.56,23.085,23.085,0,0,1-8.52,9.96A22.706,22.706,0,0,1,27.12.96Zm0-10.96a9.158,9.158,0,0,0,8.04-4.4q2.92-4.4,2.92-13.6T35.16-41.6A9.158,9.158,0,0,0,27.12-46a9.09,9.09,0,0,0-7.96,4.4Q16.24-37.2,16.24-28t2.92,13.6A9.09,9.09,0,0,0,27.12-10ZM76.96-56V0H64V-45.6H52.8V-56Z" transform="translate(-3.12 56.96)" fill="#f9b886"/>
</svg>
