<svg xmlns="http://www.w3.org/2000/svg" width="88.2" height="78.592" viewBox="0 0 88.2 78.592">
  <g id="グループ_6999" data-name="グループ 6999" transform="translate(-913.925 -2542.6)">
    <g id="グループ_5646" data-name="グループ 5646" transform="translate(-6223 296)">
      <path id="パス_6830" data-name="パス 6830" d="M25.425.9A21.287,21.287,0,0,1,13.8-2.325a21.642,21.642,0,0,1-7.988-9.337A33.891,33.891,0,0,1,2.925-26.25,33.891,33.891,0,0,1,5.813-40.837,21.642,21.642,0,0,1,13.8-50.175,21.287,21.287,0,0,1,25.425-53.4,21.287,21.287,0,0,1,37.05-50.175a21.642,21.642,0,0,1,7.987,9.338A33.891,33.891,0,0,1,47.925-26.25a33.891,33.891,0,0,1-2.888,14.588A21.642,21.642,0,0,1,37.05-2.325,21.287,21.287,0,0,1,25.425.9Zm0-10.275A8.585,8.585,0,0,0,32.963-13.5Q35.7-17.625,35.7-26.25T32.963-39a8.585,8.585,0,0,0-7.538-4.125A8.522,8.522,0,0,0,17.962-39q-2.738,4.125-2.738,12.75T17.962-13.5A8.522,8.522,0,0,0,25.425-9.375Zm65.7-.525V0H51.45V-7.875L71.7-27a21.5,21.5,0,0,0,4.35-5.287,9.618,9.618,0,0,0,1.125-4.388,5.8,5.8,0,0,0-2.137-4.838Q72.9-43.2,68.775-43.2a14.381,14.381,0,0,0-6.225,1.312A11.921,11.921,0,0,0,57.9-37.95l-8.85-5.7a20.761,20.761,0,0,1,8.475-7.162A28.3,28.3,0,0,1,69.9-53.4a25.443,25.443,0,0,1,10.237,1.913,15.779,15.779,0,0,1,6.825,5.4A13.972,13.972,0,0,1,89.4-37.875a18.307,18.307,0,0,1-1.8,8.025q-1.8,3.75-6.975,8.55L68.55-9.9Z" transform="translate(7134 2300)" fill="#f9b886" opacity="0.24"/>
    </g>
    <g id="グループ_6203" data-name="グループ 6203" transform="translate(754.14 2341.181)">
      <rect id="長方形_3322" data-name="長方形 3322" width="3.357" height="9.831" transform="translate(182.875 248.237)" fill="#e6753d"/>
      <rect id="長方形_3323" data-name="長方形 3323" width="3.359" height="13.787" transform="translate(188.215 244.281)" fill="#e6753d"/>
      <rect id="長方形_3324" data-name="長方形 3324" width="4.327" height="16.495" transform="translate(203.554 243.655)" fill="#e6753d"/>
      <path id="パス_6231" data-name="パス 6231" d="M236.571,273.8l-7.507-7.505V228.819h-60.2V273h55.326l6.6,6.6a1.433,1.433,0,0,0,2.027,0l3.763-3.762a1.435,1.435,0,0,0,0-2.027Zm-63.889-5.583V232.943h52.563v29.532l-5.112-5.11a13.66,13.66,0,0,0-1.255-14.271v-3.9H215.52v.7a13.658,13.658,0,0,0-15.254,0h-2.274v1.928a13.633,13.633,0,0,0-3.741,8.452H193.8v7.793h2.242a13.821,13.821,0,0,0,1.55,2.17h-17.3V237.76a1.147,1.147,0,0,0-2.294,0v22.478h-1.542a1.146,1.146,0,0,0,0,2.293H178v1.331a1.147,1.147,0,1,0,2.294,0v-1.331h19.875a13.648,13.648,0,0,0,14.284.727l4.961,4.961Zm37.91-19.924V260.15h3.435a10.768,10.768,0,0,1-13.185-.718V243.068a10.783,10.783,0,0,1,16.787,3.5v9.372a10.836,10.836,0,0,1-2.085,2.955l-.007.005c-.2.2-.406.381-.619.563V248.295Zm10.491,17.542-4.216-4.215,1.735-1.733,4.213,4.216Zm10.712,10.713L228.241,273l-1.432-1.433-1.436-1.435-1.908-1.909-.355-.354,1.734-1.733.4.4.953.953,1.432,1.434,1.434,1.434,4.464,4.464Z" fill="#e6753d"/>
    </g>
  </g>
</svg>
