<svg xmlns="http://www.w3.org/2000/svg" width="87.45" height="74.733" viewBox="0 0 87.45 74.733">
  <g id="グループ_7000" data-name="グループ 7000" transform="translate(-1265.925 -2541.6)">
    <path id="パス_6831" data-name="パス 6831" d="M25.425.9A21.287,21.287,0,0,1,13.8-2.325a21.642,21.642,0,0,1-7.988-9.337A33.891,33.891,0,0,1,2.925-26.25,33.891,33.891,0,0,1,5.813-40.837,21.642,21.642,0,0,1,13.8-50.175,21.287,21.287,0,0,1,25.425-53.4,21.287,21.287,0,0,1,37.05-50.175a21.642,21.642,0,0,1,7.987,9.338A33.891,33.891,0,0,1,47.925-26.25a33.891,33.891,0,0,1-2.888,14.588A21.642,21.642,0,0,1,37.05-2.325,21.287,21.287,0,0,1,25.425.9Zm0-10.275A8.585,8.585,0,0,0,32.963-13.5Q35.7-17.625,35.7-26.25T32.963-39a8.585,8.585,0,0,0-7.538-4.125A8.522,8.522,0,0,0,17.962-39q-2.738,4.125-2.738,12.75T17.962-13.5A8.522,8.522,0,0,0,25.425-9.375Zm50.7-21.75Q83.025-30,86.7-25.988a14.162,14.162,0,0,1,3.675,9.938,15.682,15.682,0,0,1-2.4,8.437,16.718,16.718,0,0,1-7.312,6.187A28.012,28.012,0,0,1,68.625.9,41.292,41.292,0,0,1,57.712-.562,28.109,28.109,0,0,1,48.6-4.725l4.725-9.3a22.892,22.892,0,0,0,6.937,3.488A26.736,26.736,0,0,0,68.325-9.3a12.78,12.78,0,0,0,7.2-1.762A5.662,5.662,0,0,0,78.15-16.05q0-6.45-9.825-6.45h-5.55v-8.025l10.8-12.225H51.225V-52.5h36.75v7.875Z" transform="translate(1263 2595)" fill="#f9b886" opacity="0.2"/>
    <g id="グループ_6144" data-name="グループ 6144" transform="translate(976.279 2379.046)">
      <g id="グループ_6141" data-name="グループ 6141" transform="translate(326.075 183.56)">
        <path id="パス_6200" data-name="パス 6200" d="M337.613,198.589a7.514,7.514,0,1,1,7.515-7.515A7.524,7.524,0,0,1,337.613,198.589Zm0-12.621a5.107,5.107,0,1,0,5.107,5.106A5.113,5.113,0,0,0,337.613,185.968Z" transform="translate(-330.097 -183.56)" fill="#e6753d"/>
      </g>
      <path id="パス_6201" data-name="パス 6201" d="M341.972,242.818a4.218,4.218,0,0,1-4.182-4.243V227.342a.429.429,0,0,0-.858,0v11.233a4.218,4.218,0,0,1-4.182,4.243,4,4,0,0,1-3.926-4.243v-25.79a1.2,1.2,0,1,1,2.408,0v25.79a1.64,1.64,0,0,0,1.519,1.836,1.808,1.808,0,0,0,1.775-1.836V227.342a2.837,2.837,0,0,1,5.674,0v11.233a1.808,1.808,0,0,0,1.775,1.836,1.64,1.64,0,0,0,1.518-1.836V224.265c0-.014,0-.029,0-.043V212.785a1.2,1.2,0,1,1,2.408,0v11.477c0,.014,0,.029,0,.043v14.269A4,4,0,0,1,341.972,242.818Z" transform="translate(-3.77 -5.531)" fill="#e6753d"/>
      <path id="パス_6202" data-name="パス 6202" d="M346.179,224.544a3.994,3.994,0,0,1-3.961-4.018,1.2,1.2,0,0,1,2.408,0,1.584,1.584,0,0,0,1.553,1.61c.91,0,1.317-.808,1.317-1.61v-9.71a5.235,5.235,0,0,0-5.229-5.228H329.843a5.234,5.234,0,0,0-5.228,5.228v9.71c0,.8.407,1.61,1.316,1.61a1.584,1.584,0,0,0,1.553-1.61,1.2,1.2,0,1,1,2.408,0,3.994,3.994,0,0,1-3.961,4.018,3.794,3.794,0,0,1-3.724-4.018v-9.71a7.645,7.645,0,0,1,7.636-7.636h12.424a7.645,7.645,0,0,1,7.637,7.636v9.71A3.794,3.794,0,0,1,346.179,224.544Z" transform="translate(-2.465 -3.873)" fill="#e6753d"/>
      <g id="グループ_6142" data-name="グループ 6142" transform="translate(314.159 193.019)">
        <path id="パス_6203" data-name="パス 6203" d="M318.386,207.191a1.2,1.2,0,0,1-.766-.277,6.534,6.534,0,1,1,9.725-8.466,1.2,1.2,0,1,1-2.048,1.266,4.126,4.126,0,1,0-6.142,5.345,1.2,1.2,0,0,1-.769,2.132Z" transform="translate(-315.25 -195.345)" fill="#e6753d"/>
      </g>
      <path id="パス_6204" data-name="パス 6204" d="M318.811,244.254a3.565,3.565,0,0,1-3.5-3.771V220.061a1.2,1.2,0,0,1,2.408,0v20.422c0,.678.339,1.363,1.1,1.363a1.34,1.34,0,0,0,1.311-1.363V231.65a2.586,2.586,0,0,1,2.583-2.583,1.2,1.2,0,0,1,0,2.408.176.176,0,0,0-.175.176v8.833A3.749,3.749,0,0,1,318.811,244.254Z" transform="translate(-1.103 -6.967)" fill="#e6753d"/>
      <path id="パス_6205" data-name="パス 6205" d="M313.053,229.474a3.386,3.386,0,0,1-3.332-3.58v-7.5a6.646,6.646,0,0,1,6.039-6.61,1.2,1.2,0,0,1,.253-.026h.344a1.2,1.2,0,0,1,0,2.408,4.233,4.233,0,0,0-4.228,4.228v7.5c0,.435.194,1.172.925,1.172a1.15,1.15,0,0,0,1.124-1.172,1.2,1.2,0,0,1,2.408,0A3.56,3.56,0,0,1,313.053,229.474Z" transform="translate(0 -5.567)" fill="#e6753d"/>
      <g id="グループ_6143" data-name="グループ 6143" transform="translate(340.649 193.019)">
        <path id="パス_6206" data-name="パス 6206" d="M357.394,207.191a1.2,1.2,0,0,1-.768-2.132,4.126,4.126,0,1,0-6.142-5.345,1.2,1.2,0,0,1-2.049-1.267,6.534,6.534,0,1,1,9.726,8.466A1.2,1.2,0,0,1,357.394,207.191Z" transform="translate(-348.255 -195.345)" fill="#e6753d"/>
      </g>
      <path id="パス_6207" data-name="パス 6207" d="M357.872,244.254a3.749,3.749,0,0,1-3.719-3.771V231.65a.175.175,0,0,0-.175-.175,1.2,1.2,0,1,1,0-2.408,2.586,2.586,0,0,1,2.583,2.583v8.834a1.34,1.34,0,0,0,1.311,1.363c.757,0,1.1-.685,1.1-1.363V220.061a1.2,1.2,0,0,1,2.408,0v20.422A3.565,3.565,0,0,1,357.872,244.254Z" transform="translate(-8.498 -6.967)" fill="#e6753d"/>
      <path id="パス_6208" data-name="パス 6208" d="M363.818,229.474a3.561,3.561,0,0,1-3.533-3.58,1.2,1.2,0,1,1,2.408,0,1.151,1.151,0,0,0,1.125,1.172c.73,0,.924-.737.924-1.172v-7.5a4.233,4.233,0,0,0-4.227-4.228,1.2,1.2,0,0,1,0-2.408h.344a1.2,1.2,0,0,1,.254.026,6.646,6.646,0,0,1,6.038,6.61v7.5A3.386,3.386,0,0,1,363.818,229.474Z" transform="translate(-9.788 -5.567)" fill="#e6753d"/>
    </g>
  </g>
</svg>
