<svg xmlns="http://www.w3.org/2000/svg" width="41.16" height="39.351" viewBox="0 0 41.16 39.351">
  <g id="グループ_5645" data-name="グループ 5645" transform="translate(-6531.365 -2290.069)">
    <g id="グループ_6996" data-name="グループ 6996">
      <path id="パス_6826" data-name="パス 6826" d="M11.865.42A9.934,9.934,0,0,1,6.44-1.085,10.1,10.1,0,0,1,2.713-5.442,15.816,15.816,0,0,1,1.365-12.25a15.816,15.816,0,0,1,1.348-6.807A10.1,10.1,0,0,1,6.44-23.415a9.934,9.934,0,0,1,5.425-1.5,9.934,9.934,0,0,1,5.425,1.5,10.1,10.1,0,0,1,3.728,4.358,15.816,15.816,0,0,1,1.347,6.807,15.816,15.816,0,0,1-1.347,6.808A10.1,10.1,0,0,1,17.29-1.085,9.934,9.934,0,0,1,11.865.42Zm0-4.8A4.006,4.006,0,0,0,15.382-6.3q1.278-1.925,1.278-5.95T15.382-18.2a4.006,4.006,0,0,0-3.517-1.925A3.977,3.977,0,0,0,8.382-18.2q-1.277,1.925-1.277,5.95T8.382-6.3A3.977,3.977,0,0,0,11.865-4.375Zm30.66-.245V0H24.01V-3.675L33.46-12.6a10.035,10.035,0,0,0,2.03-2.467,4.488,4.488,0,0,0,.525-2.047,2.707,2.707,0,0,0-1-2.257A4.642,4.642,0,0,0,32.1-20.16a6.711,6.711,0,0,0-2.905.612,5.563,5.563,0,0,0-2.17,1.838l-4.13-2.66a9.689,9.689,0,0,1,3.955-3.342A13.209,13.209,0,0,1,32.62-24.92a11.873,11.873,0,0,1,4.778.892,7.364,7.364,0,0,1,3.185,2.52,6.52,6.52,0,0,1,1.138,3.833,8.543,8.543,0,0,1-.84,3.745,14.416,14.416,0,0,1-3.255,3.99L31.99-4.62Z" transform="translate(6530 2329)" fill="#f2a935"/>
      <path id="パス_6825" data-name="パス 6825" d="M3.161-2.888V0H.908V-8.671h3.58a4.045,4.045,0,0,1,1.254.165,2.43,2.43,0,0,1,.917.565A2.751,2.751,0,0,1,7.5-5.827a3.975,3.975,0,0,1-.184,1.27,2.333,2.333,0,0,1-.568.927,2.356,2.356,0,0,1-.92.562,3.972,3.972,0,0,1-1.266.181Zm0-1.8H3.9a1.4,1.4,0,0,0,.949-.27,1.065,1.065,0,0,0,.3-.835q0-1.066-1.238-1.066H3.161Zm9.947-4.24a4.99,4.99,0,0,1,2.444.6,4.458,4.458,0,0,1,1.72,1.66A4.531,4.531,0,0,1,17.9-4.316a4.553,4.553,0,0,1-.628,2.355A4.455,4.455,0,0,1,15.545-.292a4.979,4.979,0,0,1-2.437.6,5.016,5.016,0,0,1-2.444-.6,4.42,4.42,0,0,1-1.73-1.669,4.571,4.571,0,0,1-.625-2.355,4.537,4.537,0,0,1,.625-2.349,4.434,4.434,0,0,1,1.73-1.663A5.016,5.016,0,0,1,13.108-8.931Zm0,2.184a2.4,2.4,0,0,0-1.225.327,2.419,2.419,0,0,0-.892.885,2.37,2.37,0,0,0-.327,1.219,2.39,2.39,0,0,0,.19.939,2.449,2.449,0,0,0,.527.787,2.449,2.449,0,0,0,.787.527,2.39,2.39,0,0,0,.939.19A2.4,2.4,0,0,0,14.333-2.2a2.4,2.4,0,0,0,.892-.892,2.4,2.4,0,0,0,.327-1.225,2.37,2.37,0,0,0-.327-1.219,2.419,2.419,0,0,0-.892-.885A2.4,2.4,0,0,0,13.108-6.748Zm8.474-1.923V0H19.329V-8.671ZM23.4,0V-8.671h2.253L29.8-3.364V-8.671h2.247V0H29.8L25.651-5.307V0Zm13.73-6.76V0H34.88V-6.76H33.046V-8.671H39V-6.76Z" transform="translate(6532 2299)" fill="#f2a935"/>
    </g>
  </g>
</svg>
