<svg xmlns="http://www.w3.org/2000/svg" width="69.225" height="82.233" viewBox="0 0 69.225 82.233">
  <g id="グループ_6699" data-name="グループ 6699" transform="translate(-569.925 -2539.6)">
    <g id="グループ_6998" data-name="グループ 6998">
      <path id="パス_6829" data-name="パス 6829" d="M25.425.9A21.287,21.287,0,0,1,13.8-2.325a21.642,21.642,0,0,1-7.988-9.337A33.891,33.891,0,0,1,2.925-26.25,33.891,33.891,0,0,1,5.813-40.837,21.642,21.642,0,0,1,13.8-50.175,21.287,21.287,0,0,1,25.425-53.4,21.287,21.287,0,0,1,37.05-50.175a21.642,21.642,0,0,1,7.987,9.338A33.891,33.891,0,0,1,47.925-26.25a33.891,33.891,0,0,1-2.888,14.588A21.642,21.642,0,0,1,37.05-2.325,21.287,21.287,0,0,1,25.425.9Zm0-10.275A8.585,8.585,0,0,0,32.963-13.5Q35.7-17.625,35.7-26.25T32.963-39a8.585,8.585,0,0,0-7.538-4.125A8.522,8.522,0,0,0,17.962-39q-2.738,4.125-2.738,12.75T17.962-13.5A8.522,8.522,0,0,0,25.425-9.375ZM72.15-52.5V0H60V-42.75H49.5V-52.5Z" transform="translate(567 2593)" fill="#f9b886" opacity="0.17"/>
      <g id="グループ_6202" data-name="グループ 6202" transform="translate(-1234.367 2947.686)">
        <g id="グループ_6163" data-name="グループ 6163" transform="translate(1833.454 -356.492)">
          <g id="グループ_6148" data-name="グループ 6148">
            <g id="グループ_6147" data-name="グループ 6147">
              <g id="グループ_6146" data-name="グループ 6146">
                <path id="パス_6209" data-name="パス 6209" d="M1845.319-342.547a22.331,22.331,0,0,1-10.9-2.6c-3.066-1.769-4.756-4.168-4.756-6.757s1.689-4.991,4.756-6.759c6.013-3.466,15.794-3.466,21.806,0,3.066,1.768,4.756,4.168,4.756,6.759s-1.69,4.988-4.756,6.757A22.33,22.33,0,0,1,1845.319-342.547Zm0-17.109a20.659,20.659,0,0,0-10.088,2.406c-2.541,1.465-3.939,3.364-3.939,5.346s1.4,3.88,3.939,5.345c5.563,3.207,14.614,3.207,20.177,0,2.541-1.465,3.941-3.364,3.941-5.345s-1.4-3.881-3.941-5.346h0A20.658,20.658,0,0,0,1845.319-359.656Z" transform="translate(-1829.66 361.262)" fill="#e6753d" stroke="#e6753d" stroke-width="1"/>
              </g>
            </g>
          </g>
          <g id="グループ_6155" data-name="グループ 6155" transform="translate(0 8.642)">
            <g id="グループ_6151" data-name="グループ 6151" transform="translate(0.001 5.423)">
              <g id="グループ_6150" data-name="グループ 6150">
                <g id="グループ_6149" data-name="グループ 6149">
                  <path id="パス_6210" data-name="パス 6210" d="M1845.318-339.786a22.331,22.331,0,0,1-10.9-2.6c-3.165-1.826-4.853-4.3-4.75-6.978a.813.813,0,0,1,.845-.785.817.817,0,0,1,.783.847c-.079,2.04,1.32,3.995,3.937,5.5,5.563,3.207,14.613,3.207,20.176,0,2.541-1.465,3.941-3.364,3.941-5.346a.815.815,0,0,1,.815-.815.816.816,0,0,1,.815.815c0,2.59-1.689,4.99-4.756,6.759A22.331,22.331,0,0,1,1845.318-339.786Z" transform="translate(-1829.661 350.147)" fill="#e6753d" stroke="#e6753d" stroke-width="1"/>
                </g>
              </g>
            </g>
            <g id="グループ_6154" data-name="グループ 6154">
              <g id="グループ_6152" data-name="グループ 6152">
                <path id="パス_6211" data-name="パス 6211" d="M1830.476-347.091a.816.816,0,0,1-.816-.815v-5.712a.816.816,0,0,1,.816-.815.816.816,0,0,1,.815.815v5.712A.815.815,0,0,1,1830.476-347.091Z" transform="translate(-1829.66 354.433)" fill="#e6753d" stroke="#e6753d" stroke-width="1"/>
              </g>
              <g id="グループ_6153" data-name="グループ 6153" transform="translate(29.687)">
                <path id="パス_6212" data-name="パス 6212" d="M1853.935-347.091a.814.814,0,0,1-.815-.815v-5.712a.815.815,0,0,1,.815-.815.816.816,0,0,1,.815.815v5.712A.815.815,0,0,1,1853.935-347.091Z" transform="translate(-1853.12 354.433)" fill="#e6753d" stroke="#e6753d" stroke-width="1"/>
              </g>
            </g>
          </g>
          <g id="グループ_6162" data-name="グループ 6162" transform="translate(0 14.354)">
            <g id="グループ_6158" data-name="グループ 6158" transform="translate(0.001 5.423)">
              <g id="グループ_6157" data-name="グループ 6157">
                <g id="グループ_6156" data-name="グループ 6156">
                  <path id="パス_6213" data-name="パス 6213" d="M1845.318-335.272a22.318,22.318,0,0,1-10.9-2.6c-3.165-1.825-4.853-4.3-4.75-6.978a.812.812,0,0,1,.845-.783.817.817,0,0,1,.783.845c-.079,2.041,1.32,4,3.937,5.5,5.563,3.208,14.615,3.207,20.176,0,2.541-1.465,3.941-3.364,3.941-5.347a.815.815,0,0,1,.815-.815.816.816,0,0,1,.815.815c0,2.59-1.689,4.99-4.756,6.757A22.315,22.315,0,0,1,1845.318-335.272Z" transform="translate(-1829.661 345.633)" fill="#e6753d" stroke="#e6753d" stroke-width="1"/>
                </g>
              </g>
            </g>
            <g id="グループ_6161" data-name="グループ 6161">
              <g id="グループ_6159" data-name="グループ 6159">
                <path id="パス_6214" data-name="パス 6214" d="M1830.476-342.577a.815.815,0,0,1-.816-.815V-349.1a.816.816,0,0,1,.816-.815.816.816,0,0,1,.815.815v5.712A.815.815,0,0,1,1830.476-342.577Z" transform="translate(-1829.66 349.919)" fill="#e6753d" stroke="#e6753d" stroke-width="1"/>
              </g>
              <g id="グループ_6160" data-name="グループ 6160" transform="translate(29.687)">
                <path id="パス_6215" data-name="パス 6215" d="M1853.935-342.577a.814.814,0,0,1-.815-.815V-349.1a.815.815,0,0,1,.815-.815.816.816,0,0,1,.815.815v5.712A.815.815,0,0,1,1853.935-342.577Z" transform="translate(-1853.12 349.919)" fill="#e6753d" stroke="#e6753d" stroke-width="1"/>
              </g>
            </g>
          </g>
        </g>
        <g id="グループ_6201" data-name="グループ 6201" transform="translate(1815.368 -379.232)">
          <g id="グループ_6166" data-name="グループ 6166" transform="translate(0.001)">
            <g id="グループ_6165" data-name="グループ 6165">
              <g id="グループ_6164" data-name="グループ 6164">
                <path id="パス_6216" data-name="パス 6216" d="M1831.025-360.517a22.324,22.324,0,0,1-10.9-2.6c-3.068-1.769-4.756-4.168-4.756-6.758s1.688-4.99,4.756-6.759c6.012-3.466,15.794-3.466,21.8,0,3.066,1.769,4.755,4.168,4.755,6.759s-1.689,4.988-4.755,6.758A22.33,22.33,0,0,1,1831.025-360.517Zm0-17.109a20.655,20.655,0,0,0-10.088,2.406c-2.54,1.465-3.939,3.364-3.939,5.346s1.4,3.88,3.939,5.345c5.563,3.207,14.615,3.207,20.177,0,2.539-1.465,3.939-3.364,3.939-5.345s-1.4-3.881-3.939-5.346h0A20.65,20.65,0,0,0,1831.025-377.626Z" transform="translate(-1815.368 379.232)" fill="#e6753d" stroke="#e6753d" stroke-width="1"/>
              </g>
            </g>
          </g>
          <g id="グループ_6173" data-name="グループ 6173" transform="translate(0 8.642)">
            <g id="グループ_6169" data-name="グループ 6169" transform="translate(0 5.424)">
              <g id="グループ_6168" data-name="グループ 6168">
                <g id="グループ_6167" data-name="グループ 6167">
                  <path id="パス_6217" data-name="パス 6217" d="M1831.025-357.755a22.324,22.324,0,0,1-10.9-2.6c-3.166-1.826-4.853-4.3-4.752-6.978a.821.821,0,0,1,.845-.785.815.815,0,0,1,.783.847c-.077,2.04,1.321,4,3.937,5.5,5.563,3.207,14.615,3.207,20.177,0,2.54-1.465,3.939-3.364,3.939-5.346a.815.815,0,0,1,.815-.815.815.815,0,0,1,.815.815c0,2.59-1.689,4.99-4.756,6.759A22.325,22.325,0,0,1,1831.025-357.755Z" transform="translate(-1815.368 368.117)" fill="#e6753d" stroke="#e6753d" stroke-width="1"/>
                </g>
              </g>
            </g>
            <g id="グループ_6172" data-name="グループ 6172" transform="translate(0.001)">
              <g id="グループ_6170" data-name="グループ 6170">
                <path id="パス_6218" data-name="パス 6218" d="M1816.183-365.061a.814.814,0,0,1-.815-.815v-5.712a.815.815,0,0,1,.815-.815.815.815,0,0,1,.815.815v5.712A.814.814,0,0,1,1816.183-365.061Z" transform="translate(-1815.368 372.403)" fill="#e6753d" stroke="#e6753d" stroke-width="1"/>
              </g>
              <g id="グループ_6171" data-name="グループ 6171" transform="translate(29.686)">
                <path id="パス_6219" data-name="パス 6219" d="M1839.642-365.061a.814.814,0,0,1-.815-.815v-5.712a.815.815,0,0,1,.815-.815.815.815,0,0,1,.815.815v5.712A.814.814,0,0,1,1839.642-365.061Z" transform="translate(-1838.827 372.403)" fill="#e6753d" stroke="#e6753d" stroke-width="1"/>
              </g>
            </g>
          </g>
          <g id="グループ_6181" data-name="グループ 6181" transform="translate(0 14.354)">
            <g id="グループ_6177" data-name="グループ 6177" transform="translate(0 5.424)">
              <g id="グループ_6176" data-name="グループ 6176">
                <g id="グループ_6174" data-name="グループ 6174">
                  <path id="パス_6220" data-name="パス 6220" d="M1831.048-353.228a22.4,22.4,0,0,1-10.925-2.614c-3.166-1.825-4.853-4.3-4.752-6.978a.819.819,0,0,1,.845-.783.815.815,0,0,1,.783.845c-.077,2.041,1.321,4,3.937,5.5,3.651,2.1,9.03,2.9,14.036,2.08a.814.814,0,0,1,.936.672.815.815,0,0,1-.672.936A25.953,25.953,0,0,1,1831.048-353.228Z" transform="translate(-1815.368 363.603)" fill="#e6753d" stroke="#e6753d" stroke-width="1"/>
                </g>
                <g id="グループ_6175" data-name="グループ 6175" transform="translate(28.67 0.189)">
                  <path id="パス_6221" data-name="パス 6221" d="M1838.838-358.706a.809.809,0,0,1-.456-.14.813.813,0,0,1-.218-1.131,4.714,4.714,0,0,0,.876-2.661.815.815,0,0,1,.815-.815.815.815,0,0,1,.815.815,6.3,6.3,0,0,1-1.157,3.575A.812.812,0,0,1,1838.838-358.706Z" transform="translate(-1838.024 363.454)" fill="#e6753d" stroke="#e6753d" stroke-width="1"/>
                </g>
              </g>
            </g>
            <g id="グループ_6180" data-name="グループ 6180" transform="translate(0.001)">
              <g id="グループ_6178" data-name="グループ 6178">
                <path id="パス_6222" data-name="パス 6222" d="M1816.183-360.547a.814.814,0,0,1-.815-.815v-5.712a.815.815,0,0,1,.815-.815.815.815,0,0,1,.815.815v5.712A.814.814,0,0,1,1816.183-360.547Z" transform="translate(-1815.368 367.889)" fill="#e6753d" stroke="#e6753d" stroke-width="1"/>
              </g>
              <g id="グループ_6179" data-name="グループ 6179" transform="translate(29.686)">
                <path id="パス_6223" data-name="パス 6223" d="M1839.642-360.547a.814.814,0,0,1-.815-.815v-5.712a.815.815,0,0,1,.815-.815.815.815,0,0,1,.815.815v5.712A.814.814,0,0,1,1839.642-360.547Z" transform="translate(-1838.827 367.889)" fill="#e6753d" stroke="#e6753d" stroke-width="1"/>
              </g>
            </g>
          </g>
          <g id="グループ_6188" data-name="グループ 6188" transform="translate(0 19.591)">
            <g id="グループ_6184" data-name="グループ 6184" transform="translate(0 5.424)">
              <g id="グループ_6183" data-name="グループ 6183">
                <g id="グループ_6182" data-name="グループ 6182">
                  <path id="パス_6224" data-name="パス 6224" d="M1831.01-349.086a22.226,22.226,0,0,1-10.887-2.618c-3.166-1.825-4.853-4.3-4.752-6.978a.822.822,0,0,1,.845-.783.815.815,0,0,1,.783.845c-.077,2.041,1.321,3.995,3.937,5.5a21.856,21.856,0,0,0,13.228,2.2.817.817,0,0,1,.912.7.815.815,0,0,1-.7.912A26.586,26.586,0,0,1,1831.01-349.086Z" transform="translate(-1815.368 359.465)" fill="#e6753d" stroke="#e6753d" stroke-width="1"/>
                </g>
              </g>
            </g>
            <g id="グループ_6187" data-name="グループ 6187" transform="translate(0.001)">
              <g id="グループ_6185" data-name="グループ 6185">
                <path id="パス_6225" data-name="パス 6225" d="M1816.183-356.409a.814.814,0,0,1-.815-.815v-5.712a.815.815,0,0,1,.815-.815.815.815,0,0,1,.815.815v5.712A.814.814,0,0,1,1816.183-356.409Z" transform="translate(-1815.368 363.751)" fill="#e6753d" stroke="#e6753d" stroke-width="1"/>
              </g>
              <g id="グループ_6186" data-name="グループ 6186" transform="translate(29.686)">
                <path id="パス_6226" data-name="パス 6226" d="M1839.642-358.78a.815.815,0,0,1-.815-.815v-3.341a.815.815,0,0,1,.815-.815.815.815,0,0,1,.815.815v3.341A.815.815,0,0,1,1839.642-358.78Z" transform="translate(-1838.827 363.751)" fill="#e6753d" stroke="#e6753d" stroke-width="1"/>
              </g>
            </g>
          </g>
          <g id="グループ_6194" data-name="グループ 6194" transform="translate(0 24.827)">
            <g id="グループ_6191" data-name="グループ 6191" transform="translate(0 5.423)">
              <g id="グループ_6190" data-name="グループ 6190">
                <g id="グループ_6189" data-name="グループ 6189">
                  <path id="パス_6227" data-name="パス 6227" d="M1831.01-344.948a22.24,22.24,0,0,1-10.887-2.618c-3.166-1.825-4.853-4.3-4.752-6.978a.817.817,0,0,1,.845-.783.813.813,0,0,1,.783.845c-.077,2.041,1.321,3.995,3.937,5.5a21.848,21.848,0,0,0,13.228,2.2.815.815,0,0,1,.912.7.814.814,0,0,1-.7.912A26.375,26.375,0,0,1,1831.01-344.948Z" transform="translate(-1815.368 355.327)" fill="#e6753d" stroke="#e6753d" stroke-width="1"/>
                </g>
              </g>
            </g>
            <g id="グループ_6193" data-name="グループ 6193" transform="translate(0.001)">
              <g id="グループ_6192" data-name="グループ 6192">
                <path id="パス_6228" data-name="パス 6228" d="M1816.183-352.271a.814.814,0,0,1-.815-.815V-358.8a.814.814,0,0,1,.815-.815.814.814,0,0,1,.815.815v5.712A.814.814,0,0,1,1816.183-352.271Z" transform="translate(-1815.368 359.613)" fill="#e6753d" stroke="#e6753d" stroke-width="1"/>
              </g>
            </g>
          </g>
          <g id="グループ_6200" data-name="グループ 6200" transform="translate(0 30.063)">
            <g id="グループ_6197" data-name="グループ 6197" transform="translate(0 5.424)">
              <g id="グループ_6196" data-name="グループ 6196">
                <g id="グループ_6195" data-name="グループ 6195">
                  <path id="パス_6229" data-name="パス 6229" d="M1831.01-340.811a22.24,22.24,0,0,1-10.887-2.617c-3.166-1.825-4.853-4.3-4.752-6.978a.82.82,0,0,1,.845-.783.813.813,0,0,1,.783.845c-.077,2.04,1.321,3.995,3.937,5.5a21.856,21.856,0,0,0,13.228,2.2.817.817,0,0,1,.912.7.814.814,0,0,1-.7.912A26.35,26.35,0,0,1,1831.01-340.811Z" transform="translate(-1815.368 351.189)" fill="#e6753d" stroke="#e6753d" stroke-width="1"/>
                </g>
              </g>
            </g>
            <g id="グループ_6199" data-name="グループ 6199" transform="translate(0.001)">
              <g id="グループ_6198" data-name="グループ 6198">
                <path id="パス_6230" data-name="パス 6230" d="M1816.183-348.133a.815.815,0,0,1-.815-.815v-5.712a.814.814,0,0,1,.815-.815.814.814,0,0,1,.815.815v5.712A.815.815,0,0,1,1816.183-348.133Z" transform="translate(-1815.368 355.475)" fill="#e6753d" stroke="#e6753d" stroke-width="1"/>
              </g>
            </g>
          </g>
        </g>
      </g>
    </g>
  </g>
</svg>
