<svg xmlns="http://www.w3.org/2000/svg" xmlns:xlink="http://www.w3.org/1999/xlink" width="133" height="156" viewBox="0 0 133 156">
  <defs>
    <clipPath id="clip-path">
      <rect id="長方形_3334" data-name="長方形 3334" width="133" height="156" transform="translate(5788 5569)" fill="#fff" stroke="#707070" stroke-width="1"/>
    </clipPath>
  </defs>
  <g id="グループ_2" data-name="グループ 2" transform="translate(-5788 -5569)" clip-path="url(#clip-path)">
    <g id="グループ_6279" data-name="グループ 6279" transform="translate(5489.249 5540.224)">
      <g id="グループ_6249" data-name="グループ 6249" transform="translate(313.751 80.282)">
        <g id="グループ_6247" data-name="グループ 6247" transform="translate(17.145 3.668)">
          <g id="グループ_6245" data-name="グループ 6245" transform="translate(15.89)">
            <path id="パス_6275" data-name="パス 6275" d="M377.3,78.384l-13.4-4.838c-2.642-.795-2.769-4.585-2.769-4.585V60.823H350.72V68.96s-.119,3.79-2.761,4.585l-13.4,4.838s-.746,16.675,1.491,22.815,3.361,24.315,3.361,24.315h33.037s1.131-18.175,3.366-24.315S377.3,78.384,377.3,78.384Z" transform="translate(-328.977 -60.823)" fill="#fac3a0"/>
            <path id="パス_6276" data-name="パス 6276" d="M372.219,95.588H339.182s-4.291,16.251-4.477,24.254l18.2,8.93h5.582l18.208-8.93C376.516,111.839,372.219,95.588,372.219,95.588Z" transform="translate(-328.749 -30.897)" fill="#fccfb0"/>
            <path id="パス_6277" data-name="パス 6277" d="M337.46,108.622s-2.425,9.63,1.933,32.855c2.093,11.18,4.084,16.176,3.141,28.3-.517,6.7,2.034,24.278,2.964,33.147,1.074,10.153-1.094,16.7-1.094,16.7s-5.709,9.926-9.179,14.144c-1.922,2.337-3.722,4.215-3.722,6.45v1.487s.493,2.235,4.961,2.235,10.67.744,11.662-2.977,2.977-6.7,4.715-7.443,1.485-4.961,1.485-4.961-.246-7.445-.744-11.414a74.549,74.549,0,0,1,0-16.623c.744-5.21,2.981-15.8,1.742-29.447,0,0,.454-9.01,1.485-15.878.746-4.963,1.647-27.417-1.144-37.652Z" transform="translate(-331.504 -19.677)" fill="#fccfb0"/>
            <path id="パス_6278" data-name="パス 6278" d="M366.575,108.622s2.421,9.63-1.933,32.855c-2.1,11.18-4.084,16.176-3.147,28.3.519,6.7-2.032,24.278-2.966,33.147-1.064,10.153,1.1,16.7,1.1,16.7s5.705,9.926,9.181,14.144c1.926,2.337,3.722,4.215,3.722,6.45v1.487s-.5,2.235-4.961,2.235-10.672.744-11.664-2.977-2.977-6.7-4.713-7.443-1.491-4.961-1.491-4.961.251-7.445.744-11.414a73.99,73.99,0,0,0,0-16.623c-.744-5.21-2.975-15.8-1.732-29.447,0,0-.461-9.01-1.491-15.878-.744-4.963-1.647-27.417,1.144-37.652Z" transform="translate(-318.623 -19.677)" fill="#fccfb0"/>
          </g>
          <path id="パス_6279" data-name="パス 6279" d="M344.437,70.336a4.655,4.655,0,0,0-5.7,3.234c-1.758,6.416-11.411,34.7-13.785,42.231a5.194,5.194,0,1,0,8.225,2.743c3.093-8.124,10.112-26.632,14.5-42.5A4.642,4.642,0,0,0,344.437,70.336Z" transform="translate(-322.965 -52.776)" fill="#fccfb0"/>
          <g id="グループ_6246" data-name="グループ 6246" transform="translate(60.925 17.405)">
            <path id="パス_6280" data-name="パス 6280" d="M358.994,70.332a4.487,4.487,0,0,1,5.491,3.132c1.675,6.187,9.042,31.494,11.31,38.752a5.007,5.007,0,1,1-7.935,2.624c-2.959-7.838-7.81-23.712-12-39.021A4.471,4.471,0,0,1,358.994,70.332Z" transform="translate(-355.706 -70.176)" fill="#fccfb0"/>
            <path id="パス_6281" data-name="パス 6281" d="M363.515,93.969a5,5,0,0,1,8.3,5.374c.9,10.015,3.956,34.8,3.956,34.8s3.675,11.552,4.155,12.808-.305,6.418-.305,6.418-2.6,5.491-3.969,7.65c-1.453,2.3-3.344.936-1.4-4.473,2.3-6.4.244-9.371.244-9.371s-.755,5.4-1.345,6.643c-.462.984-2.144,2.274-2.493-1.241a55.88,55.88,0,0,0-1.21-8.054c-.622-2.659.283-9.427.283-9.427s-5.45-25.677-6.44-34.749A5.006,5.006,0,0,1,363.515,93.969Z" transform="translate(-350.069 -51.148)" fill="#fccfb0"/>
          </g>
        </g>
        <g id="グループ_6248" data-name="グループ 6248">
          <path id="パス_6282" data-name="パス 6282" d="M339.927,126.731c-.916-9.425-9-41.82-9-41.82-.344-7.324-2.94-7.4-4.371-9.379s-2.1-8.71-4.885-6.878c-.9.6-.285,4.54.138,5.971-.37-.85-.808-2.01-1.293-3.279.207-1.2,1.046-6.533.02-8.405a4.148,4.148,0,0,0-2.572-1.706,2.676,2.676,0,0,0-2.168-2.354c-2.166-.318-2.034,1.924-1.758,3.322a2.63,2.63,0,0,0,0,2.449,61.325,61.325,0,0,1,3.188,12.164,5.284,5.284,0,0,0,1.537,3.6c1.236,1.239,6.273,7.259,6.273,7.259s5.231,29.593,6.035,40a5.19,5.19,0,1,0,8.856-.94Z" transform="translate(-313.751 -58.852)" fill="#fccfb0"/>
          <path id="パス_6283" data-name="パス 6283" d="M329.577,78.156c-.9-1.407-2.68-1.718-4.4-2.015-.244-.043-.491-.086-.739-.13a4.125,4.125,0,0,1-3.147-2.079c-.065-.251-.339-1.249-.75-2.417a.356.356,0,0,0,.073-.318c-.013-.043-1.107-3.735-2.006-6.353.007-.047.034-.087.022-.136l-1.156-4.879a.367.367,0,0,0-.447-.275.372.372,0,0,0-.277.448l.506,2.14a3.27,3.27,0,0,0-2.962-.876.372.372,0,1,0,.19.72,2.553,2.553,0,0,1,2.99,1.9c.408,1.077.919,2.65,1.37,4.081a2.517,2.517,0,0,0-1.213-1.035,2.327,2.327,0,0,0-2.1.194,1.742,1.742,0,0,0-.61,1.317.347.347,0,0,0,.374.363.375.375,0,0,0,.37-.376.987.987,0,0,1,.328-.72,1.7,1.7,0,0,1,1.446-.061c1.128.313,2.523,4.14,3.152,6.52a4.784,4.784,0,0,0,3.718,2.577c.247.047.5.089.748.134,1.632.283,3.173.549,3.9,1.682a.374.374,0,0,0,.316.171.372.372,0,0,0,.313-.573Z" transform="translate(-313.522 -58.256)" fill="#f8b790"/>
        </g>
      </g>
      <g id="グループ_6250" data-name="グループ 6250" transform="translate(342.169 284.133)">
        <path id="パス_6284" data-name="パス 6284" d="M352.408,172.743c-.48-2.5-3.054-5.354-7.607-3.99-1.651.495-1.967,5.06-1.967,5.06s-4.663,5.538-9.808,8.376a7.121,7.121,0,0,0-4,7.106l.06,2.3s1.522,2.672,6.734,2.546,12.737.313,15.367-3.087a51.948,51.948,0,0,0,5.584-10.489c.495-1.418.266-6.262-.413-8.335A12.2,12.2,0,0,1,352.408,172.743Z" transform="translate(-329.023 -168.4)" fill="#302d2c"/>
      </g>
      <g id="グループ_6251" data-name="グループ 6251" transform="translate(377.293 284.133)">
        <path id="パス_6285" data-name="パス 6285" d="M352.529,172.743c.476-2.5,3.052-5.354,7.611-3.99,1.645.495,1.961,5.06,1.961,5.06s4.663,5.538,9.81,8.376a7.12,7.12,0,0,1,4,7.106l-.054,2.3s-1.524,2.672-6.742,2.546-12.735.313-15.363-3.087a51.5,51.5,0,0,1-5.586-10.489c-.495-1.418-.262-6.262.411-8.335A12.262,12.262,0,0,0,352.529,172.743Z" transform="translate(-347.899 -168.4)" fill="#302d2c"/>
      </g>
      <g id="グループ_6257" data-name="グループ 6257" transform="translate(323.816 90.205)">
        <path id="パス_6286" data-name="パス 6286" d="M376.279,119.038a5.621,5.621,0,0,0-1.45-6.377c-.069-.058-.141-.108-.29-.223l-.007,0c-2.192-7.025-9.552-33.033-11.241-39.265a5.151,5.151,0,0,0-3.763-3.649c-.167,2.884-.865,14.526-1.708,22.44,2.94,9.933,5.731,18.621,7.56,23.484a5.648,5.648,0,0,0,1.133,4.838c1.01,8.854,5.4,35.236,5.761,36.948a35.267,35.267,0,0,0,8.3-1.4C380.23,152.862,377.115,128.281,376.279,119.038Z" transform="translate(-285.881 -59.591)" fill="#d7effc"/>
        <path id="パス_6287" data-name="パス 6287" d="M347.007,91.357c-.949-9.157-1.647-21.837-1.647-21.837-2.125.242-3.322,2.166-3.962,4.444-1.027,3.748-5.052,16.656-8.309,26.087-.086.255-.173.5-.26.757C330.816,91.5,328.4,81.5,327.4,77.572a26.8,26.8,0,0,0-8.236,2.019c.808,4.522,5.856,29.4,6.612,38.787a5.815,5.815,0,0,0,5.342,8.126h0a6.277,6.277,0,0,0,5.994-7.356c.489-1.28,1.061-2.754,1.7-4.392C341,109.116,344.238,99.438,347.007,91.357Z" transform="translate(-319.16 -59.591)" fill="#d7effc"/>
        <g id="グループ_6256" data-name="グループ 6256" transform="translate(26.2)">
          <g id="グループ_6252" data-name="グループ 6252" transform="translate(0 4.321)">
            <path id="パス_6288" data-name="パス 6288" d="M364.74,66.506s-2.657,5.019-7.778,5.019-7.776-5.019-7.776-5.019L333.24,72.115s1.228,22.254,2.628,29.088,1.414,29.245,1.414,29.245h39.36s.015-22.41,1.418-29.245,2.628-29.088,2.628-29.088Z" transform="translate(-333.24 -66.506)" fill="#c6dce8"/>
          </g>
          <g id="グループ_6255" data-name="グループ 6255" transform="translate(14.475)">
            <g id="グループ_6253" data-name="グループ 6253" transform="translate(0.888 1.6)">
              <path id="パス_6289" data-name="パス 6289" d="M356.436,65.044s-.77,7.769-6.582,10.852c-5.811-3.083-6.578-10.852-6.578-10.852L341.5,66.527c.058,10.376,8.359,11.061,8.359,11.061s8.3-.685,8.362-11.061Z" transform="translate(-341.496 -65.044)" fill="#a97d45"/>
              <path id="パス_6290" data-name="パス 6290" d="M350.66,74.108a7.631,7.631,0,0,0-3.8,0,17.256,17.256,0,0,0-1.468,5.1,324.284,324.284,0,0,0-2.605,44.714l5.975,4.563,5.971-4.563a323.821,323.821,0,0,0-2.626-44.833A16.351,16.351,0,0,0,350.66,74.108Z" transform="translate(-340.437 -57.448)" fill="#c08d4e"/>
              <path id="パス_6291" data-name="パス 6291" d="M347.844,76.967a7.273,7.273,0,0,1,1.9.24,23.574,23.574,0,0,0,2.147-5.357c0-.876-1.809-1.582-4.044-1.582s-4.049.705-4.049,1.582a23.575,23.575,0,0,0,2.147,5.357A7.3,7.3,0,0,1,347.844,76.967Z" transform="translate(-339.517 -60.547)" fill="#c08d4e"/>
            </g>
            <g id="グループ_6254" data-name="グループ 6254">
              <path id="パス_6292" data-name="パス 6292" d="M350.265,73.523C345.429,70.544,344,64.184,344,64.184l-2.977,3.5.525,12.441Z" transform="translate(-341.019 -64.184)" fill="#d7effc"/>
              <path id="パス_6293" data-name="パス 6293" d="M345.988,73.523c4.838-2.979,6.269-9.339,6.269-9.339l2.981,3.5-.527,12.441Z" transform="translate(-336.742 -64.184)" fill="#d7effc"/>
            </g>
          </g>
        </g>
      </g>
      <g id="グループ_6259" data-name="グループ 6259" transform="translate(350.21 154.145)">
        <path id="パス_6294" data-name="パス 6294" d="M380.406,130.4a126.1,126.1,0,0,0-2.708-26.139V98.976H336.052v5.287a126.1,126.1,0,0,0-2.708,26.139c0,11.545,2.642,30.248,2.642,38.177s-.88,67.65-.88,67.65a22.14,22.14,0,0,0,6.753,3.818c2.882.785,7.635-.88,12.335-2.35,0,0,2.052-67.062,2.052-69.7s.625-35.873.625-35.873.625,33.229.625,35.873,2.058,69.7,2.058,69.7c4.7,1.47,9.453,3.135,12.332,2.35a22.2,22.2,0,0,0,6.758-3.818s-.886-59.721-.886-67.65S380.406,141.946,380.406,130.4Z" transform="translate(-333.344 -98.174)" fill="#757271"/>
        <g id="グループ_6258" data-name="グループ 6258" transform="translate(2.155)">
          <path id="パス_6295" data-name="パス 6295" d="M355.875,99.347c-8.344,0-15.9-.305-21.373-.8v5.288c5.473.495,13.029.8,21.373.8s15.9-.305,21.379-.8V98.547C371.776,99.042,364.221,99.347,355.875,99.347Z" transform="translate(-334.502 -98.545)" fill="#767676"/>
          <path id="長方形_3333" data-name="長方形 3333" d="M.939,0H8.072a.941.941,0,0,1,.941.941V4.662a.94.94,0,0,1-.94.94H.939A.939.939,0,0,1,0,4.663V.939A.939.939,0,0,1,.939,0Z" transform="translate(16.867 0.352)" fill="#c1ae8a"/>
        </g>
      </g>
      <g id="グループ_6265" data-name="グループ 6265" transform="translate(321.73 92.153)">
        <path id="パス_6296" data-name="パス 6296" d="M377.792,119.168a49.671,49.671,0,0,0-1.945-7.942c-1.941-7.412-6.466-28.846-9-36.206-.837-2.436-2.531-6.9-5.337-5.757,0,0-1.53,23.871-2.957,29.887,0,0,0,.244.017.69,2.16,6.69,5.22,14.941,6.12,19.153.921,7.894,3.712,29.027,4.271,35.912a49.723,49.723,0,0,0,12.841-1.675C380.939,146.063,378.479,126.759,377.792,119.168Z" transform="translate(-283.162 -61.918)" fill="#6a6766"/>
        <g id="グループ_6260" data-name="グループ 6260" transform="translate(0 7.293)">
          <path id="パス_6297" data-name="パス 6297" d="M346.42,97.892c-1.353-7.458-2.711-28.69-2.711-28.69-1.472-.519-3.882,2.977-5,7.123-.489,1.811-2.761,10.443-5.091,19.215-1.2-5.886-2.417-11.435-3.26-14.8-5.847.417-12.32,3.342-12.32,3.342,1.879,9.4,8.175,39.457,9.689,41.686.964,1.418,2.741,1.682,4.354,1.682a6.462,6.462,0,0,0,3.951-1.375C338.127,124.639,343.4,106.133,346.42,97.892Z" transform="translate(-318.039 -69.15)" fill="#6a6766"/>
          <path id="パス_6298" data-name="パス 6298" d="M329.964,97.985a.37.37,0,0,1-.359-.285L326.222,83.59a.372.372,0,0,1,.275-.448.378.378,0,0,1,.45.275l3.381,14.111a.374.374,0,0,1-.277.448A.341.341,0,0,1,329.964,97.985Z" transform="translate(-311.004 -57.115)" fill="#555251"/>
        </g>
        <g id="グループ_6264" data-name="グループ 6264" transform="translate(21.491)">
          <g id="グループ_6263" data-name="グループ 6263">
            <g id="グループ_6261" data-name="グループ 6261" transform="translate(0 2.449)">
              <path id="パス_6299" data-name="パス 6299" d="M383.49,101.329c1.427-6.016,2.957-29.887,2.957-29.887l-15.4-4.9a62.843,62.843,0,0,1-10.94,38.56,62.9,62.9,0,0,1-10.936-38.56l-15.4,4.9s1.53,23.871,2.959,29.887c0,0-.683,28.837-7.138,57.618a44.814,44.814,0,0,0,16.626,3.969c10.668.495,13.4-7.843,13.891-16.775.5,8.932,3.225,17.27,13.895,16.775a44.769,44.769,0,0,0,16.625-3.969C384.173,130.167,383.49,101.329,383.49,101.329Z" transform="translate(-329.588 -66.547)" fill="#7f7d7c"/>
              <path id="パス_6300" data-name="パス 6300" d="M348.893,91.013a1.985,1.985,0,1,1-1.989-1.986A1.987,1.987,0,0,1,348.893,91.013Z" transform="translate(-316.387 -47.195)" fill="#6a6766"/>
              <path id="パス_6301" data-name="パス 6301" d="M348.893,97.92a1.985,1.985,0,1,1-1.989-1.984A1.987,1.987,0,0,1,348.893,97.92Z" transform="translate(-316.387 -41.248)" fill="#6a6766"/>
              <path id="パス_6302" data-name="パス 6302" d="M348.893,104.83a1.985,1.985,0,1,1-1.989-1.986A1.988,1.988,0,0,1,348.893,104.83Z" transform="translate(-316.387 -35.302)" fill="#6a6766"/>
            </g>
            <g id="グループ_6262" data-name="グループ 6262" transform="translate(13.651)">
              <path id="パス_6303" data-name="パス 6303" d="M353.79,106.24c-9.176-26.051-8.93-41.009-8.93-41.009l-3.474,2.056-3.722,7.938,4.22,1.986-4.961,1.241S340.646,95.075,353.79,106.24Z" transform="translate(-336.924 -65.231)" fill="#959291"/>
              <path id="パス_6304" data-name="パス 6304" d="M345.988,106.24c9.185-26.051,8.934-41.009,8.934-41.009l3.474,2.056,3.722,7.938L357.9,77.211l4.965,1.241S359.142,95.075,345.988,106.24Z" transform="translate(-329.122 -65.231)" fill="#959291"/>
            </g>
          </g>
        </g>
      </g>
      <g id="グループ_6278" data-name="グループ 6278" transform="translate(345.185 33.956)">
        <g id="グループ_6277" data-name="グループ 6277" transform="translate(2.745 7.417)">
          <g id="グループ_6276" data-name="グループ 6276">
            <path id="パス_6305" data-name="パス 6305" d="M337.077,54.446s-2.867-2.4-4.531-.288c-1.959,2.479,3.184,9.963,8.07,7.65Z" transform="translate(-332.118 -24.73)" fill="#fac3a0"/>
            <path id="パス_6306" data-name="パス 6306" d="M353.472,51.69s1.87-3.236,4.157-1.822c2.685,1.662.419,10.452-4.965,9.948Z" transform="translate(-314.432 -27.983)" fill="#fac3a0"/>
            <path id="パス_6307" data-name="パス 6307" d="M348.789,38.24C338.482,40.058,329.974,50.1,333.86,62.7a44.16,44.16,0,0,0,8.919,16.316c2.043,2.473,7.542,8.474,14.475,7.252s10.054-8.742,11.122-11.766a44.105,44.105,0,0,0,2.8-18.381C370.52,42.95,359.091,36.426,348.789,38.24Z" transform="translate(-331.445 -37.942)" fill="#fccfb0"/>
            <g id="グループ_6272" data-name="グループ 6272" transform="translate(6.711 16.728)">
              <g id="グループ_6267" data-name="グループ 6267" transform="translate(19.736 3.916)">
                <g id="グループ_6266" data-name="グループ 6266">
                  <path id="パス_6308" data-name="パス 6308" d="M346.7,53.562a.386.386,0,0,1-.065-.006.371.371,0,0,1-.3-.432,4.66,4.66,0,0,1,3.482-4.034c1.846-.324,3.733.813,4.823,2.9a.372.372,0,0,1-.659.346c-.938-1.79-2.518-2.78-4.034-2.508a3.93,3.93,0,0,0-2.879,3.433A.371.371,0,0,1,346.7,53.562Z" transform="translate(-346.331 -49.036)" fill="#685744"/>
                </g>
                <path id="パス_6309" data-name="パス 6309" d="M349.648,51.683l1.273-1.347a2.119,2.119,0,0,0-1.749-.545c-1.262.223-2.056,1.7-1.777,3.284s1.533,2.707,2.795,2.484,2.06-1.7,1.781-3.29a3.918,3.918,0,0,0-.3-.927Z" transform="translate(-345.463 -48.409)" fill="#4e3b30"/>
              </g>
              <g id="グループ_6269" data-name="グループ 6269" transform="translate(19.062)">
                <g id="グループ_6268" data-name="グループ 6268">
                  <path id="パス_6310" data-name="パス 6310" d="M346.714,50.317a.745.745,0,0,1-.495-1.3,8.6,8.6,0,0,1,3.493-1.7,11.083,11.083,0,0,1,4.875-.186.744.744,0,1,1-.437,1.422,9.787,9.787,0,0,0-4.07.208,7.168,7.168,0,0,0-2.875,1.371A.74.74,0,0,1,346.714,50.317Z" transform="translate(-345.968 -46.931)" fill="#685744"/>
                </g>
              </g>
              <g id="グループ_6271" data-name="グループ 6271" transform="translate(0 3.479)">
                <g id="グループ_6270" data-name="グループ 6270">
                  <path id="パス_6311" data-name="パス 6311" d="M336.47,51.685a.746.746,0,0,1-.45-1.338,11.121,11.121,0,0,1,4.652-1.492,8.567,8.567,0,0,1,3.852.4.744.744,0,1,1-.542,1.386,7.15,7.15,0,0,0-3.161-.309,9.861,9.861,0,0,0-3.9,1.2A.723.723,0,0,1,336.47,51.685Z" transform="translate(-335.725 -48.801)" fill="#685744"/>
                </g>
              </g>
            </g>
            <g id="グループ_6275" data-name="グループ 6275" transform="translate(8.897 23.719)">
              <g id="グループ_6274" data-name="グループ 6274">
                <g id="グループ_6273" data-name="グループ 6273">
                  <path id="パス_6312" data-name="パス 6312" d="M337.272,55.974h-.026a.376.376,0,0,1-.346-.4c.175-2.542,1.615-4.485,3.588-4.833a4.6,4.6,0,0,1,4.591,2.493.374.374,0,0,1-.64.387,3.851,3.851,0,0,0-3.824-2.147c-1.628.288-2.823,1.956-2.972,4.151A.372.372,0,0,1,337.272,55.974Z" transform="translate(-336.9 -50.688)" fill="#685744"/>
                </g>
                <path id="パス_6313" data-name="パス 6313" d="M340.281,53.337l1.271-1.347a2.112,2.112,0,0,0-1.747-.547c-1.262.223-2.056,1.7-1.777,3.284s1.533,2.707,2.795,2.484,2.06-1.7,1.781-3.292a4.116,4.116,0,0,0-.3-.925Z" transform="translate(-335.976 -50.062)" fill="#4e3b30"/>
              </g>
            </g>
            <path id="パス_6314" data-name="パス 6314" d="M345.927,62.069a9.406,9.406,0,0,1-4.079-.793.746.746,0,1,1,.666-1.334,11.955,11.955,0,0,0,11.161-1.969A.744.744,0,0,1,354.755,59,11.533,11.533,0,0,1,348.6,61.83,15.576,15.576,0,0,1,345.927,62.069Z" transform="translate(-324.097 -20.897)" fill="#cfa490"/>
          </g>
        </g>
        <path id="パス_6315" data-name="パス 6315" d="M345.241,59.61a.413.413,0,0,1-.143,0,3.838,3.838,0,0,1-2.026-1.085c-.3-.4-.037-1.833.767-4.263a.379.379,0,0,1,.473-.234.371.371,0,0,1,.233.469,14.028,14.028,0,0,0-.85,3.625,3.23,3.23,0,0,0,1.558.759.37.37,0,0,1,.288.439A.376.376,0,0,1,345.241,59.61Z" transform="translate(-320.048 -16.694)" fill="#f6aa81"/>
        <path id="パス_6316" data-name="パス 6316" d="M372.539,68.538c-.716-13.1-4.172-14.5-10.2-18.727,3.5,2.9,3.707,7.841,3.707,7.841-7.1-7.114-19.756.389-26.1-7.657-.685-.867.268,6.712-2.1,8.578-4.183,3.3,1.336,16.143,1.336,16.143s-6.174-5.19-7.482-9.747c-.763-2.665-2.345-16.545,1-20.147a3.934,3.934,0,0,1,3.2-1.342c-.491-1.792.309-5.5,5.16-7.659,7.19-3.206,21.364-2.75,28.2,5.121a28.494,28.494,0,0,1,5.294,11.018,95.39,95.39,0,0,1,.763,10.819S373.4,63.685,372.539,68.538Z" transform="translate(-330.644 -33.956)" fill="#4e3b30"/>
      </g>
    </g>
  </g>
</svg>
